<?xml version="1.0" encoding="UTF-8"?>
<svg width="18px" height="16px" viewBox="0 0 18 16" version="1.1" xmlns="http://www.w3.org/2000/svg" xmlns:xlink="http://www.w3.org/1999/xlink">
    <!-- Generator: Sketch 62 (91390) - https://sketch.com -->
    <title>alpine</title>
    <desc>Created with Sketch.</desc>
    <g id="Kotsadm" stroke="none" stroke-width="1" fill="none" fill-rule="evenodd">
        <g id="main_spritesheet" transform="translate(0.000000, -307.000000)">
            <g id="alpine" transform="translate(0.000000, 307.000000)">
                <polygon id="Polygon" fill="#005982" transform="translate(9.000000, 8.000000) rotate(90.000000) translate(-9.000000, -8.000000) " points="9 -1 17 3.5 17 12.5 9 17 1 12.5 1 3.5"></polygon>
                <path d="M6.54516602,8.02868652 C6.09399414,8.47302246 5.64282227,8.9364624 5.19165039,9.41900635 C5.37552897,9.68145752 5.82670085,9.89168294 6.54516602,10.0496826 L6.54516602,8.02868652 Z" id="Path-11" fill="#FFFFFF"></path>
                <path d="M7.48950195,4.24206543 C5.4152832,6.31050618 3.70373535,8.04933675 2.3548584,9.45855713 C2.81268311,9.89257812 3.95792599,10.3241293 4.37817383,9.89257813 C4.65833905,9.60487737 5.69544843,8.53409694 7.48950195,6.68023682 C9.37386068,8.61704508 10.4269613,9.68782552 10.6488037,9.89257813 C10.9815674,10.199707 12.2902222,9.89257813 12.5563965,9.45855713 C11.659139,8.53635661 9.97017415,6.79752604 7.48950195,4.24206543 Z" id="Path-6" fill="#FFFFFF"></path>
                <path d="M9.64099121,6.23840332 L10.7917786,7.38966704 L11.0012817,7.18121338 C12.3128459,8.57753499 13.1419067,9.44789632 13.4884644,9.79229736 C14.0083008,10.3088989 15.3025513,9.58483887 15.4984741,9.44165039 C14.4591675,8.3597819 12.9601034,6.81378174 11.0012817,4.8036499 L9.64099121,6.23840332 Z" id="Path-13" fill="#FFFFFF"></path>
            </g>
        </g>
    </g>
</svg>