<?xml version="1.0" encoding="UTF-8"?>
<svg width="16px" height="16px" viewBox="0 0 16 16" version="1.1" xmlns="http://www.w3.org/2000/svg" xmlns:xlink="http://www.w3.org/1999/xlink">
    <!-- Generator: Sketch 62 (91390) - https://sketch.com -->
    <title>centos</title>
    <desc>Created with Sketch.</desc>
    <g id="Kotsadm" stroke="none" stroke-width="1" fill="none" fill-rule="evenodd">
        <g id="main_spritesheet" transform="translate(-29.000000, -289.000000)" fill-rule="nonzero">
            <g id="centos" transform="translate(29.000000, 289.000000)">
                <path d="M6.74127787,7.415073 L7.31804031,7.98861944 L6.74127787,8.562055 L2.6813186,8.562055 L2.6813186,10.4727676 L0.205376651,7.98861944 L2.6813186,5.54616764 L2.6813186,7.415073 L6.74127787,7.415073 L6.74127787,7.415073 L6.74127787,7.415073 L6.74127787,7.415073 Z M8.52590337,2.535825 L13.4589352,2.535825 L13.4589352,7.46896775 L8.52590337,7.46896775 L8.52590337,2.535825 L8.52590337,2.535825 L8.52590337,2.535825 L8.52590337,2.535825 Z" id="Shape" fill="#932279"></path>
                <path d="M8.57968725,6.74127787 L8.00625169,7.31804031 L7.43281613,6.74127787 L7.43281613,2.6813186 L5.52199263,2.6813186 L8.00625169,0.205376651 L10.4485926,2.6813186 L8.57968725,2.6813186 L8.57968725,6.74127787 L8.57968725,6.74127787 L8.57968725,6.74127787 L8.57968725,6.74127787 Z M8.52590338,8.52590337 L13.4589352,8.52590337 L13.4589352,13.4590461 L8.52590338,13.4590461 L8.52590338,8.52590337 L8.52590338,8.52590337 L8.52590338,8.52590337 L8.52590338,8.52590337 Z" id="Shape" fill="#EFA724"></path>
                <path d="M9.25359325,8.57968725 L8.67671994,8.00625169 L9.25359325,7.43281613 L13.3134417,7.43281613 L13.3134417,5.52199263 L15.7894944,8.00625169 L13.3134417,10.4485926 L13.3134417,8.57968725 L9.25359325,8.57968725 L9.25359325,8.57968725 L9.25359325,8.57968725 L9.25359325,8.57968725 Z M2.535825,8.52590338 L7.46885681,8.52590338 L7.46885681,13.4590461 L2.535825,13.4590461 L2.535825,8.52590338 L2.535825,8.52590338 L2.535825,8.52590338 L2.535825,8.52590338 Z" id="Shape" fill="#262577"></path>
                <path d="M7.415073,9.25359325 L7.98850856,8.67671994 L8.562055,9.25359325 L8.562055,13.3135526 L10.4727676,13.3135526 L7.98850856,15.7894944 L5.54627853,13.3135526 L7.415073,13.3135526 L7.415073,9.25359325 L7.415073,9.25359325 L7.415073,9.25359325 L7.415073,9.25359325 Z M2.535825,2.535825 L7.46885681,2.535825 L7.46885681,7.46896775 L2.535825,7.46896775 L2.535825,2.535825 L2.535825,2.535825 L2.535825,2.535825 L2.535825,2.535825 Z" id="Shape" fill="#9CCD2A"></path>
                <path d="M2.3596136,2.3596136 L7.64506825,2.3596136 L7.64506825,7.64506825 L2.3596136,7.64506825 L2.3596136,2.3596136 L2.3596136,2.3596136 L2.3596136,2.3596136 L2.3596136,2.3596136 L2.3596136,2.3596136 Z M2.71192549,7.29275631 L7.29264544,7.29275631 L7.29264544,2.71203639 L2.71192549,2.71203639 L2.71192549,7.29275631 L2.71192549,7.29275631 L2.71192549,7.29275631 L2.71192549,7.29275631 Z M8.34980288,2.3596136 L13.6352576,2.3596136 L13.6352576,7.64506825 L8.34980288,7.64506825 L8.34980288,2.3596136 L8.34980288,2.3596136 L8.34980288,2.3596136 L8.34980288,2.3596136 Z M8.70211481,7.29275631 L13.2828347,7.29275631 L13.2828347,2.71203639 L8.70211481,2.71203639 L8.70211481,7.29275631 L8.70211481,7.29275631 L8.70211481,7.29275631 L8.70211481,7.29275631 Z M8.34980288,8.34980287 L13.6352576,8.34980287 L13.6352576,13.6353684 L8.34980288,13.6353684 L8.34980288,8.34980287 L8.34980288,8.34980287 L8.34980288,8.34980287 L8.34980288,8.34980287 Z M8.70211481,13.2828347 L13.2828347,13.2828347 L13.2828347,8.70211481 L8.70211481,8.70211481 L8.70211481,13.2828347 L8.70211481,13.2828347 L8.70211481,13.2828347 L8.70211481,13.2828347 Z M2.3596136,8.34980287 L7.64506825,8.34980287 L7.64506825,13.6353684 L2.3596136,13.6353684 L2.3596136,8.34980287 L2.3596136,8.34980287 L2.3596136,8.34980287 L2.3596136,8.34980287 Z M2.71192549,13.2828347 L7.29264544,13.2828347 L7.29264544,8.70211481 L2.71192549,8.70211481 L2.71192549,13.2828347 L2.71192549,13.2828347 L2.71192549,13.2828347 L2.71192549,13.2828347 L2.71192549,13.2828347 Z" id="Shape" fill="#FFFFFF"></path>
                <path d="M3.76176391,11.7348581 L0.0242858999,7.99738012 L3.76165303,4.260013 L7.49913106,7.99738012 L3.76176391,11.7348581 L3.76176391,11.7348581 L3.76176391,11.7348581 L3.76176391,11.7348581 L3.76176391,11.7348581 L3.76176391,11.7348581 Z M0.522645874,7.99738012 L3.76176391,11.2364981 L7.00077106,7.99738012 L3.76165303,4.75837297 L0.522645874,7.99738012 L0.522645874,7.99738012 L0.522645874,7.99738012 L0.522645874,7.99738012 Z M7.99738012,7.49913106 L4.260013,3.76176391 L7.99738012,0.0242858999 L11.7347472,3.76176391 L7.99738012,7.49913106 L7.99738012,7.49913106 L7.99738012,7.49913106 L7.99738012,7.49913106 Z M4.75837297,3.76176391 L7.99738012,7.00077106 L11.2364981,3.76176391 L7.99738012,0.522645874 L4.75837297,3.76176391 L4.75837297,3.76176391 L4.75837297,3.76176391 L4.75837297,3.76176391 Z M12.2331072,11.7348581 L8.49574006,7.99738012 L12.2331072,4.260013 L15.9704743,7.99738012 L12.2331072,11.7348581 L12.2331072,11.7348581 L12.2331072,11.7348581 L12.2331072,11.7348581 Z M8.99398919,7.99738012 L12.2331073,11.2364981 L15.4721143,7.99738012 L12.2331073,4.75837297 L8.99398919,7.99738012 L8.99398919,7.99738012 L8.99398919,7.99738012 L8.99398919,7.99738012 Z M7.99738012,15.9704743 L4.260013,12.2331072 L7.99738012,8.49574006 L11.7347472,12.2331072 L7.99738012,15.9704743 L7.99738012,15.9704743 L7.99738012,15.9704743 L7.99738012,15.9704743 Z M4.75837297,12.2331072 L7.99738012,15.4721143 L11.2364981,12.2331072 L7.99738012,8.99410006 L4.75837297,12.2331072 L4.75837297,12.2331072 L4.75837297,12.2331072 L4.75837297,12.2331072 L4.75837297,12.2331072 L4.75837297,12.2331072 Z" id="Shape" fill="#FFFFFF"></path>
            </g>
        </g>
    </g>
</svg>