<?xml version="1.0" encoding="UTF-8"?>
<svg width="12px" height="16px" viewBox="0 0 12 16" version="1.1" xmlns="http://www.w3.org/2000/svg" xmlns:xlink="http://www.w3.org/1999/xlink">
    <!-- Generator: Sketch 62 (91390) - https://sketch.com -->
    <title>Group</title>
    <desc>Created with Sketch.</desc>
    <g id="Kotsadm" stroke="none" stroke-width="1" fill="none" fill-rule="evenodd">
        <g id="main_spritesheet" transform="translate(-56.000000, -307.000000)" fill="#44BB66" fill-rule="nonzero">
            <g id="Group" transform="translate(56.000000, 307.000000)">
                <path d="M5.90769231,0.0681750588 C2.66881809,0.0681750588 0.0539420308,0.972946824 -3.6e-15,2.10346918 C0.000541108647,2.11522741 0.000541108647,2.12700506 -3.6e-15,2.13876329 C-3.6e-15,2.269408 0.0810662769,2.43721412 0.346153846,2.64464565 C0.611241415,2.85207718 1.03977157,3.06618541 1.58076923,3.24464565 C2.66276455,3.60156612 4.20104105,3.83288094 5.90769231,3.83288094 C7.61434357,3.83288094 9.15262006,3.60156612 10.2346154,3.24464565 C10.775613,3.06618541 11.2041432,2.85207718 11.4692308,2.64464565 C11.7343183,2.43721412 11.8154965,2.269408 11.8154965,2.13876329 C11.8154965,2.13082184 11.8156364,2.12315369 11.8154965,2.11523388 C11.77925,0.979177976 9.15789563,0.0681750588 5.90769231,0.0681750588 Z M-3.6e-15,3.32111624 L-3.6e-15,6.05641035 C0.000541108647,6.06816859 0.000541108647,6.07994623 -3.6e-15,6.09170447 C-3.6e-15,6.22234918 0.0810659077,6.39015341 0.346153846,6.59758682 C0.611241785,6.80502024 1.03977157,7.01912471 1.58076923,7.19758682 C2.66276455,7.55451859 4.20104142,7.78582212 5.90769231,7.78582212 C7.6143432,7.78582212 9.15262006,7.55451859 10.2346154,7.19758682 C10.775613,7.01912471 11.2041428,6.80502024 11.4692308,6.59758682 C11.7343187,6.39015341 11.8153846,6.22234918 11.8153846,6.09170447 L11.8153846,6.06817506 L11.8153846,3.32111624 C11.460036,3.5746176 11.0054644,3.78413459 10.4653846,3.96229271 C9.27827243,4.35388988 7.67845662,4.58582212 5.90769231,4.58582212 C4.136928,4.58582212 2.53711218,4.35388988 1.35,3.96229271 C0.809920246,3.78413459 0.355348615,3.5746176 -3.6e-15,3.32111624 Z M-3.6e-15,7.27405741 L-3.6e-15,9.82111624 C0.000541108647,9.83287447 0.000541108647,9.84465212 -3.6e-15,9.85641035 C-3.6e-15,9.98706447 0.0810662769,10.1548574 0.346153846,10.3622927 C0.611241415,10.569728 1.03977157,10.7838268 1.58076923,10.9622927 C2.66276455,11.3192056 4.20104105,11.550528 5.90769231,11.550528 C7.61434357,11.550528 9.15262006,11.3192056 10.2346154,10.9622927 C10.775613,10.7838268 11.2041432,10.569728 11.4692308,10.3622927 C11.7343183,10.1548574 11.8153846,9.98706447 11.8153846,9.85641035 L11.8153846,9.83288094 L11.8153846,7.27405741 C11.4600362,7.52755934 11.0054644,7.73707238 10.4653846,7.91523388 C9.27827225,8.30683859 7.67845698,8.53876329 5.90769231,8.53876329 C4.13692763,8.53876329 2.53711237,8.30683859 1.35,7.91523388 C0.809920246,7.73707238 0.355348431,7.52755934 -3.6e-15,7.27405741 Z M-4.72863212e-17,11.0387633 L-4.72863212e-17,13.8093515 C-4.72863212e-17,14.956457 2.63483077,15.8799398 5.90769231,15.8799398 C9.18055385,15.8799398 11.8153846,14.956457 11.8153846,13.8093515 L11.8153846,11.0387633 C11.460036,11.2922607 11.0054644,11.5017783 10.4653846,11.6799398 C9.27827243,12.0715445 7.67845662,12.3034692 5.90769231,12.3034692 C4.136928,12.3034692 2.53711218,12.0715445 1.35,11.6799398 C0.809920246,11.5017783 0.355348615,11.2922607 -4.72863212e-17,11.0387633 Z" id="Shape"></path>
            </g>
        </g>
    </g>
</svg>