<?xml version="1.0" encoding="UTF-8"?>
<svg width="15px" height="16px" viewBox="0 0 15 16" version="1.1" xmlns="http://www.w3.org/2000/svg" xmlns:xlink="http://www.w3.org/1999/xlink">
    <!-- Generator: Sketch 62 (91390) - https://sketch.com -->
    <title>gce_datacenter</title>
    <desc>Created with Sketch.</desc>
    <g id="Kotsadm" stroke="none" stroke-width="1" fill="none" fill-rule="evenodd">
        <g id="main_spritesheet" transform="translate(0.000000, -289.000000)">
            <g id="gce_datacenter" transform="translate(0.000000, 289.000000)">
                <path d="M0.0004,10.4014231 L0.0004,12.3028673 C0.0004,12.5010637 0.11746834,12.6805512 0.298848765,12.7604447 L7.30043235,15.8444645 C7.4285067,15.900878 7.57436176,15.9010338 7.70255639,15.8448942 L14.7009728,12.7801123 C14.8828788,12.7004511 15.0004,12.5206893 15.0004,12.3221051 L15.0004,10.4013883 C15.0004,10.2020309 14.8819732,10.0217237 14.69902,9.94253094 L7.69999348,6.91294833 C7.57327726,6.85809824 7.42951971,6.85809125 7.30279816,6.91292903 L0.301824641,9.94254642 C0.11884751,10.0217284 0.0004,10.2020481 0.0004,10.4014231 Z M2.0714,11.3559856 L7.5014,9.00598561 L12.9484,11.3639856 L7.5024,13.7489856 L2.0714,11.3559856 Z" id="Fill-3" fill="#FBAE17"></path>
                <path d="M0.0004,6.96522312 L0.0004,8.8676275 C0.0004,9.06584418 0.117491977,9.24534604 0.298899859,9.32522742 L7.30048348,12.4083138 C7.42852852,12.4646973 7.5743399,12.4648531 7.70250517,12.4087434 L14.7009216,9.34489479 C14.882855,9.26524583 15.0004,9.08546969 15.0004,8.8868652 L15.0004,6.96518833 C15.0004,6.76583093 14.8819732,6.58552366 14.69902,6.50633094 L7.69999348,3.47674833 C7.57327726,3.42189824 7.42951971,3.42189125 7.30279816,3.47672903 L0.301824641,6.50634642 C0.11884751,6.58552836 0.0004,6.76584807 0.0004,6.96522312 Z M2.0714,7.91978561 L7.5014,5.57078561 L12.9474,7.92878561 L7.5024,10.3127856 L2.0714,7.91978561 Z" id="Fill-2" fill="#ED252A"></path>
                <path d="M7.3024114,0.0411232991 L0.301424641,3.07074642 C0.11844751,3.14992836 1.01550443e-13,3.33024807 1.02140518e-13,3.52962312 L1.02140518e-13,5.43106729 C1.02738903e-13,5.62926372 0.11706834,5.80875124 0.298448765,5.88864471 L7.30007625,8.9726838 C7.42812498,9.02908602 7.57394859,9.02925358 7.70212661,8.97314579 L14.7014991,5.90928713 C14.8834446,5.82964352 15.001,5.6498611 15.001,5.45124772 L15.001,3.52960573 C15.001,3.3302395 14.8825628,3.14992601 14.6995977,3.07073868 L7.69958442,0.0411329498 C7.57287329,-0.0137076282 7.4291252,-0.0137111211 7.3024114,0.0411232991 Z M2.071,4.48518561 L7.501,2.13418561 L12.949,4.49318561 L7.503,6.87718561 L2.071,4.48518561 Z" id="Fill-1" fill="#3A7CBF"></path>
            </g>
        </g>
    </g>
</svg>