<?xml version="1.0" encoding="UTF-8"?>
<svg width="20px" height="13px" viewBox="0 0 20 13" version="1.1" xmlns="http://www.w3.org/2000/svg" xmlns:xlink="http://www.w3.org/1999/xlink">
    <!-- Generator: Sketch 62 (91390) - https://sketch.com -->
    <title>Shape</title>
    <desc>Created with Sketch.</desc>
    <g id="Kotsadm" stroke="none" stroke-width="1" fill="none" fill-rule="evenodd">
        <g id="main_spritesheet" transform="translate(-154.000000, -72.000000)" fill="#196D80" fill-rule="nonzero">
            <path d="M165.740663,72.3043458 C167.106468,72.0247317 168.750501,71.8278695 170.163418,72.2211584 C170.662762,72.3600944 171.142327,72.5025146 171.557669,72.8385306 C172.096568,73.273631 172.273461,73.6126957 172.39013,73.8367789 C172.445909,73.9432675 172.476798,74.0813323 172.513021,74.1031091 C172.60169,74.155809 172.734359,74.2176551 172.874584,74.2829855 C173.41215,74.5332009 174.163054,75.0432134 173.968606,75.5806647 C173.803714,76.0368886 173.231702,76.0229515 172.435464,76.02992 C171.775673,76.0357998 170.87121,76.0442927 169.769855,76.2925482 C169.435404,76.3678959 169.158509,76.6914991 168.837836,77.0662777 C168.428273,77.5449317 167.963819,78.0873917 167.220915,78.2574685 C167.107357,78.2827296 166.990688,78.2463623 166.913798,78.164046 C166.835796,78.0808587 166.808907,77.9628284 166.843796,77.8554688 C166.963577,77.4861344 166.989133,77.1853968 166.920465,76.9737264 C166.031336,77.2428876 165.228875,77.5486338 164.410192,77.9301632 C161.986588,79.0597256 159.898768,80.9277392 158.794524,82.0261608 C158.778523,82.2053838 158.77319,82.674456 159.121864,82.9379552 C159.678542,83.3593362 159.744765,84.1332835 159.747432,84.4466516 C159.748543,84.5812322 159.66143,84.6999158 159.530761,84.741945 C159.399425,84.784192 159.257866,84.7384607 159.177643,84.6291412 C159.063418,84.4734371 158.805857,84.2164709 158.348293,84.2550158 C157.799837,84.2974806 157.508498,84.0890766 157.363606,83.9176932 C157.061156,84.139381 156.59848,84.400267 156.011357,84.494125 C155.547792,84.5681661 154.68133,84.884583 154.426881,84.9797476 C154.389769,84.9932492 154.351546,85 154.313989,85 C154.226432,85 154.141986,84.9642861 154.081096,84.8980846 C153.993983,84.8031378 153.975316,84.6679039 154.033539,84.5535757 C154.156209,84.3109822 154.652663,83.4608161 155.868243,82.7428351 C156.954042,82.1015085 157.696057,81.1045668 157.83206,80.913802 C158.148733,79.7731335 158.698966,78.2744544 159.625874,76.9425855 C160.260331,76.0307911 160.71634,75.4463019 161.049013,75.0192589 C161.61858,74.289083 161.688804,74.1847721 161.627692,73.8966651 C161.561913,73.5863458 161.043902,73.5040295 160.824342,73.4831238 C160.670784,73.4683155 160.545003,73.3598671 160.511003,73.2133093 C160.477002,73.0667514 160.542114,72.9156205 160.673006,72.8374418 C161.089459,72.5891863 161.834585,72.3422374 162.678379,72.4032125 C162.938829,72.4212872 163.158834,72.4489437 163.371949,72.475947 C163.763735,72.5253803 164.152853,72.5626186 164.547306,72.5214605 C164.950203,72.4794312 165.344655,72.3853555 165.740663,72.3043458 Z M170,73.5 C169.723858,73.5 169.5,73.7238576 169.5,74 C169.5,74.2761424 169.723858,74.5 170,74.5 C170.276142,74.5 170.5,74.2761424 170.5,74 C170.5,73.7238576 170.276142,73.5 170,73.5 Z" id="Shape" transform="translate(164.000000, 78.500000) scale(-1, 1) translate(-164.000000, -78.500000) "></path>
        </g>
    </g>
</svg>