<?xml version="1.0" encoding="UTF-8"?>
<svg width="14px" height="16px" viewBox="0 0 14 16" version="1.1" xmlns="http://www.w3.org/2000/svg" xmlns:xlink="http://www.w3.org/1999/xlink">
    <!-- Generator: Sketch 62 (91390) - https://sketch.com -->
    <title>replicated</title>
    <desc>Created with Sketch.</desc>
    <g id="Kotsadm" stroke="none" stroke-width="1" fill="none" fill-rule="evenodd">
        <g id="main_spritesheet" transform="translate(0.000000, -395.000000)" fill="#ED2D2D" fill-rule="nonzero">
            <g id="replicated" transform="translate(0.000000, 395.000000)">
                <path d="M1,1 L1,15 L13,15 L13,1 L1,1 Z M0.848484848,0 L13.1515152,0 C13.6201204,0 14,0.3581722 14,0.8 L14,15.2 C14,15.6418278 13.6201204,16 13.1515152,16 L0.848484848,16 C0.379879606,16 0,15.6418278 0,15.2 L0,0.8 C0,0.3581722 0.379879606,0 0.848484848,0 Z" id="Rectangle-11"></path>
                <path d="M10.2692404,12.2352941 L8.24074677,12.2352941 L6.85211356,9.18363627 L5.87190189,9.18363627 L5.87190189,12.2352941 L4.04761905,12.2352941 L4.04761905,3.78941949 L7.43751776,3.78941949 C9.09843199,3.78941949 10.2011701,4.90371779 10.2011701,6.46120292 C10.2011701,7.9173882 9.37071301,8.65181208 8.6219402,8.87973673 L10.2692404,12.2352941 Z M7.16523674,7.68946354 C7.87316739,7.68946354 8.33604513,7.22095176 8.33604513,6.48652788 C8.33604513,5.752104 7.87316739,5.28359221 7.16523674,5.28359221 L5.87190189,5.28359221 L5.87190189,7.68946354 L7.16523674,7.68946354 Z" id="R-Copy-4"></path>
            </g>
        </g>
    </g>
</svg>