<?xml version="1.0" encoding="UTF-8"?>
<svg width="16px" height="16px" viewBox="0 0 16 16" version="1.1" xmlns="http://www.w3.org/2000/svg" xmlns:xlink="http://www.w3.org/1999/xlink">
    <!-- Generator: Sketch 62 (91390) - https://sketch.com -->
    <title>ubuntu</title>
    <desc>Created with Sketch.</desc>
    <g id="Kotsadm" stroke="none" stroke-width="1" fill="none" fill-rule="evenodd">
        <g id="main_spritesheet" transform="translate(0.000000, -359.000000)">
            <g id="ubuntu" transform="translate(0.000000, 359.000000)">
                <path d="M15.9604927,8.01965982 C15.9604927,12.4268387 12.3876598,16 7.97991789,16 C3.57255132,16 0,12.4268387 0,8.01965982 C0,3.61224633 3.57255132,0.0395073314 7.97991789,0.0395073314 C12.3876598,0.0395073314 15.9604927,3.61224633 15.9604927,8.01965982" id="Fill-1" fill="#CF432B"></path>
                <path d="M7.97991789,10.9458299 C7.54008211,10.9458299 7.12229912,10.8483284 6.7474956,10.6740176 L6.0250088,11.9715191 C6.61442815,12.2637419 7.27840469,12.4277302 7.97991789,12.4277302 C8.3808563,12.4277302 8.76875073,12.3741466 9.13773607,12.2739238 C9.20276833,11.8571261 9.44858651,11.4721408 9.84234604,11.2448563 C10.2356833,11.0177126 10.6916598,10.9972551 11.085044,11.1489501 C11.8270968,10.4121525 12.3089267,9.41306745 12.3794018,8.30235777 L10.8945455,8.2789912 C10.7635425,9.77360704 9.50911437,10.9458299 7.97991789,10.9458299 Z M5.05426393,8.01965982 C5.05426393,7.02967742 5.54599413,6.15483871 6.29832258,5.62529032 L5.536,4.35124927 C4.65295015,4.94066862 3.99512023,5.84056305 3.7176305,6.89501466 C4.0459824,7.15964809 4.25614076,7.56490323 4.25614076,8.01965982 C4.25614076,8.47460411 4.0459824,8.88004692 3.7176305,9.14449267 C3.99512023,10.1988504 4.65295015,11.0985103 5.536,11.6884927 L6.29832258,10.4144047 C5.54599413,9.88466862 5.05426393,9.00973607 5.05426393,8.01965982 Z M7.97991789,5.09367742 C9.50911437,5.09367742 10.7635425,6.26594721 10.8945455,7.76037537 L12.3794018,7.73738416 C12.3089267,6.62629912 11.8270968,5.62754252 11.085044,4.89079179 C10.6916598,5.04243988 10.2356833,5.02193548 9.84234604,4.79469795 C9.44858651,4.56750733 9.20276833,4.18256891 9.13773607,3.7656305 C8.76875073,3.66554839 8.3808563,3.61191789 7.97991789,3.61191789 C7.27840469,3.61191789 6.61442815,3.77595308 6.0250088,4.06822287 L6.7474956,5.36567742 C7.12229912,5.19131965 7.54008211,5.09367742 7.97991789,5.09367742 Z M11.4522933,4.05691496 C11.7360235,3.56635777 11.5682346,2.93879179 11.0772082,2.65543695 C10.5868387,2.37245748 9.95922581,2.54043402 9.67591789,3.03094428 C9.39256305,3.52164223 9.56072727,4.14939589 10.0513783,4.43237537 C10.5417478,4.71577713 11.1696891,4.5476129 11.4522933,4.05691496 Z M9.67591789,13.0087038 C9.95922581,13.4990733 10.586088,13.6672845 11.0772082,13.3838827 C11.5675308,13.1005279 11.7360235,12.4733372 11.4522933,11.9824985 C11.1693607,11.4917537 10.5417478,11.3237771 10.0513783,11.607132 C9.56072727,11.8904868 9.39256305,12.5175367 9.67591789,13.0087038 Z M3.83835777,8.01965982 C3.83835777,8.5863695 3.37895601,9.04558358 2.81257478,9.04558358 C2.24581818,9.04558358 1.78641642,8.5863695 1.78641642,8.01965982 C1.78641642,7.45299707 2.24581818,6.99354839 2.81257478,6.99354839 C3.37895601,6.99354839 3.83835777,7.45299707 3.83835777,8.01965982 L3.83835777,8.01965982 Z" id="Fill-4" fill="#FFFFFE"></path>
            </g>
        </g>
    </g>
</svg>