<svg width="71" height="81" viewBox="0 0 71 81" fill="none" xmlns="http://www.w3.org/2000/svg">
<path d="M17.7547 32.5848L17.7549 32.5849L19.8037 34.6384C20.4016 35.2378 21.2372 35.7371 22.0778 36.0861C22.9183 36.435 23.8617 36.6743 24.7078 36.6743H63.5979C64.3954 36.6743 65.056 37.3331 65.056 38.1381V78.5362C65.056 79.3412 64.3954 80 63.5979 80H2.45815C1.66061 80 1 79.3412 1 78.5362V32.6003C1 31.7952 1.66079 31.1362 2.45815 31.1362H14.2665C14.7723 31.1362 15.449 31.2889 16.1297 31.5715C16.8102 31.8541 17.3968 32.2259 17.7547 32.5848Z" fill="#CEE3F6" stroke="#73A3CD" stroke-width="2"/>
<path d="M60.3031 16.6393L60.3118 16.6489L60.3207 16.6584L65.9065 22.5485L65.8554 60.8151C65.8551 60.9732 65.7269 61.1014 65.5687 61.1014H26.2061C26.0478 61.1014 25.9194 60.973 25.9194 60.8147V9.58851C25.9194 9.42929 26.0492 9.30058 26.2084 9.30185L53.8979 9.52311L60.3031 16.6393Z" fill="white" stroke="#E5E5E5" stroke-width="2"/>
<path d="M53.1494 9.04422V22.3627C53.1494 22.8364 53.5335 23.2205 54.0072 23.2205H65.7514" stroke="#E5E5E5" stroke-width="2" stroke-dasharray="1.12 1.12"/>
<path d="M31.5786 16.8886H42.5306" stroke="#EBB55C" stroke-width="1.23192" stroke-linecap="round"/>
<path d="M34.9077 22.3903H45.8597" stroke="#EBB55C" stroke-width="1.23192" stroke-linecap="round"/>
<path d="M34.9077 27.8919H51.0005" stroke="#EBB55C" stroke-width="1.23192" stroke-linecap="round"/>
<path d="M34.9077 54.7469H51.0005" stroke="#EBB55C" stroke-width="1.23192" stroke-linecap="round"/>
<path d="M31.5786 33.3936H39.9025" stroke="#EBB55C" stroke-width="1.23192" stroke-linecap="round"/>
<path d="M34.9077 38.8953H41.0119" stroke="#EBB55C" stroke-width="1.23192" stroke-linecap="round"/>
<path d="M34.9077 44.397H43.7865" stroke="#EBB55C" stroke-width="1.23192" stroke-linecap="round"/>
<path d="M31.5786 49.8987H42.5306" stroke="#EBB55C" stroke-width="1.23192" stroke-linecap="round"/>
<path d="M42.8807 9.32909L42.8894 9.33876L42.8984 9.3482L48.4841 15.2383L48.433 53.5049C48.4328 53.6631 48.3045 53.7912 48.1463 53.7912H8.78374C8.62542 53.7912 8.49707 53.6628 8.49707 53.5045V2.27834C8.49707 2.11913 8.62682 1.99041 8.78603 1.99168L36.4755 2.21294L42.8807 9.32909Z" fill="white" stroke="#E5E5E5" stroke-width="2"/>
<path d="M35.6245 1.86188V15.0525C35.6245 15.5263 36.0086 15.9103 36.4823 15.9103H48.3289" stroke="#E5E5E5" stroke-width="2" stroke-dasharray="1.12 1.12"/>
<path d="M14.1558 9.57841H25.1077" stroke="#E5E5E5" stroke-width="2" stroke-linecap="round"/>
<path d="M17.4858 15.0801H28.4378" stroke="#E5E5E5" stroke-width="2" stroke-linecap="round"/>
<path d="M17.4858 20.5818H33.5787" stroke="#EBB55C" stroke-width="1.23192" stroke-linecap="round"/>
<path d="M17.4858 47.4367H33.5787" stroke="#EBB55C" stroke-width="1.23192" stroke-linecap="round"/>
<path d="M14.1558 26.0835H22.4796" stroke="#E5E5E5" stroke-width="2" stroke-linecap="round"/>
<path d="M17.4858 31.5852H23.59" stroke="#EBB55C" stroke-width="1.23192" stroke-linecap="round"/>
<path d="M17.4858 37.0868H26.3646" stroke="#EBB55C" stroke-width="1.23192" stroke-linecap="round"/>
<path d="M50.9217 27.6862L50.9304 27.6959L50.9394 27.7053L56.5251 33.5954L56.474 71.862C56.4738 72.0202 56.3455 72.1483 56.1873 72.1483H16.8248C16.6664 72.1483 16.5381 72.02 16.5381 71.8616V20.6354C16.5381 20.4762 16.6678 20.3475 16.827 20.3488L44.5165 20.57L50.9217 27.6862Z" fill="white" stroke="#C5C5C5" stroke-width="2"/>
<path d="M19.8657 28.5632H36.9109" stroke="#C5C5C5" stroke-width="2" stroke-linecap="round"/>
<path d="M19.5361 23.9835H34.3746" stroke="#C5C5C5" stroke-width="2" stroke-linecap="round" stroke-dasharray="4.06 4.06"/>
<path d="M19.8657 33.1429L41.3703 33.1752" stroke="#C5C5C5" stroke-width="2" stroke-linecap="round"/>
<path d="M19.8657 37.7225H24.3299" stroke="#9B9B9B" stroke-width="2" stroke-linecap="round"/>
<path d="M27.1709 37.7225H38.0271" stroke="#C5C5C5" stroke-width="2" stroke-linecap="round"/>
<path d="M21.6919 42.3021H31.6349" stroke="#9B9B9B" stroke-width="2" stroke-linecap="round"/>
<path d="M34.4756 42.3021H36.2004" stroke="#C5C5C5" stroke-width="2" stroke-linecap="round"/>
<path d="M21.6919 46.8818H29.8087" stroke="#9B9B9B" stroke-width="2" stroke-linecap="round"/>
<path d="M32.6494 46.8818H51.7238" stroke="#C5C5C5" stroke-width="2" stroke-linecap="round"/>
<path d="M21.6919 51.4615H25.7503" stroke="#9B9B9B" stroke-width="2" stroke-linecap="round"/>
<path d="M28.8955 51.4615H43.5057" stroke="#C5C5C5" stroke-width="2" stroke-linecap="round"/>
<path d="M23.5181 56.0411H36.9107" stroke="#9B9B9B" stroke-width="2" stroke-linecap="round"/>
<path d="M39.8535 56.0411H46.2455" stroke="#C5C5C5" stroke-width="2" stroke-linecap="round"/>
<path d="M25.3442 60.6208H31.6347" stroke="#9B9B9B" stroke-width="2" stroke-linecap="round"/>
<path d="M34.3745 60.6208H36.2008" stroke="#C5C5C5" stroke-width="2" stroke-linecap="round"/>
<path d="M19.8657 65.2004H24.3299" stroke="#9B9B9B" stroke-width="2" stroke-linecap="round"/>
<path d="M27.1709 65.2004H38.0271" stroke="#C5C5C5" stroke-width="2" stroke-linecap="round"/>
<path d="M21.6919 69.7801H31.6349" stroke="#9B9B9B" stroke-width="2" stroke-linecap="round"/>
<path d="M34.4756 69.7801H36.2004" stroke="#C5C5C5" stroke-width="2" stroke-linecap="round"/>
<path d="M21.6919 74.3598H29.8087" stroke="#9B9B9B" stroke-width="2" stroke-linecap="round"/>
<path d="M32.6494 74.3598H51.7238" stroke="#C5C5C5" stroke-width="2" stroke-linecap="round"/>
<path d="M21.6919 78.9394H25.7503" stroke="#9B9B9B" stroke-width="2" stroke-linecap="round"/>
<path d="M28.8955 78.9394H43.5057" stroke="#C5C5C5" stroke-width="2" stroke-linecap="round"/>
<path d="M44.2432 20.2487V33.4683C44.2432 33.942 44.6272 34.3261 45.1009 34.3261H56.8841" stroke="#C5C5C5" stroke-width="2"/>
<path d="M1.00999 78.192L1.01164 78.178L1.01289 78.1639L4.2658 41.6935C4.37151 40.8546 5.17824 40.1418 6.01713 40.1418H68.3111C69.0523 40.1418 69.5398 40.6993 69.4352 41.4423L69.4337 41.4535L69.4324 41.4648L65.1376 77.9524C65.0124 78.7983 64.1754 79.5217 63.3269 79.5217H2.18719C1.43622 79.5217 0.921291 78.9453 1.00999 78.192Z" fill="#CEE3F7" stroke="#73A3CD" stroke-width="2"/>
<path d="M2.75744 32.7538L10.3397 25.3288C9.75642 24.5896 9.31041 23.7833 8.93301 22.9433C8.34977 21.5658 8.04099 20.0875 8.04099 18.5757C8.04099 17.0638 8.34977 15.5855 8.93301 14.208C9.51626 12.8641 10.3397 11.6546 11.4032 10.613C12.4668 9.5715 13.7019 8.76516 15.0743 8.194C16.4809 7.62284 17.9905 7.32047 19.5344 7.32047C21.0783 7.32047 22.5879 7.62284 23.9945 8.194C25.3669 8.76516 26.602 9.5715 27.6656 10.613C28.7291 11.6546 29.5526 12.8641 30.1358 14.208C30.7191 15.5855 31.0278 17.0638 31.0278 18.5757C31.0278 20.0875 30.7191 21.5658 30.1358 22.9433C29.5526 24.2872 28.7291 25.4968 27.6656 26.5383C26.602 27.5798 25.3669 28.3861 23.9945 28.9573C22.5879 29.5285 21.0783 29.8308 19.5344 29.8308C17.9905 29.8308 16.4809 29.5285 15.0743 28.9573C14.1822 28.5877 13.3931 28.1174 12.6384 27.5798L5.05613 35.0049C4.74735 35.3072 4.33565 35.4752 3.92394 35.4752C3.51224 35.4752 3.10053 35.3072 2.79175 35.0049C2.13989 34.3665 2.13989 33.3586 2.75744 32.7538ZM19.5001 27.311C24.4406 27.311 28.4547 23.3801 28.4547 18.5421C28.4547 13.704 24.4406 9.77309 19.5001 9.77309C14.5596 9.77309 10.5455 13.704 10.5455 18.5421C10.5455 20.6587 11.3003 22.5738 12.5697 24.0857C12.9471 24.5224 13.3588 24.9592 13.8392 25.3288C15.3831 26.5719 17.373 27.311 19.5001 27.311Z" fill="#4A4A4A"/>
</svg>
