<svg width="467" height="129" viewBox="0 0 467 129" fill="none" xmlns="http://www.w3.org/2000/svg">
<path d="M398.638 121.687H394.366L393.338 125H391.712L395.843 112.203H397.205L401.266 125H399.648L398.638 121.687ZM394.806 120.271H398.207L396.52 114.717L394.806 120.271ZM404.799 115.49L404.913 116.896C405.259 116.404 405.684 116.021 406.188 115.745C406.691 115.464 407.254 115.32 407.875 115.314C408.373 115.314 408.824 115.385 409.229 115.525C409.639 115.666 409.987 115.886 410.274 116.185C410.562 116.483 410.781 116.864 410.934 117.327C411.092 117.784 411.171 118.329 411.171 118.962V125H409.545V118.997C409.545 118.575 409.498 118.218 409.404 117.925C409.311 117.632 409.17 117.395 408.982 117.213C408.801 117.031 408.575 116.899 408.306 116.817C408.042 116.735 407.737 116.694 407.392 116.694C406.847 116.694 406.366 116.832 405.95 117.107C405.54 117.377 405.212 117.734 404.966 118.18V125H403.34V115.49H404.799ZM420.399 125C420.335 124.877 420.282 124.725 420.241 124.543C420.206 124.355 420.18 124.162 420.162 123.963C419.998 124.127 419.813 124.282 419.608 124.429C419.409 124.575 419.187 124.704 418.94 124.815C418.7 124.927 418.442 125.015 418.167 125.079C417.892 125.144 417.599 125.176 417.288 125.176C416.784 125.176 416.327 125.103 415.917 124.956C415.513 124.81 415.167 124.613 414.88 124.367C414.599 124.115 414.379 123.819 414.221 123.479C414.068 123.134 413.992 122.762 413.992 122.363C413.992 121.842 414.095 121.385 414.3 120.992C414.511 120.6 414.807 120.274 415.188 120.017C415.568 119.753 416.025 119.557 416.559 119.428C417.098 119.299 417.698 119.234 418.36 119.234H420.136V118.487C420.136 118.2 420.083 117.942 419.978 117.714C419.872 117.485 419.723 117.292 419.529 117.134C419.336 116.97 419.099 116.844 418.817 116.756C418.542 116.668 418.231 116.624 417.886 116.624C417.563 116.624 417.273 116.665 417.016 116.747C416.764 116.829 416.55 116.938 416.374 117.072C416.198 117.207 416.061 117.368 415.961 117.556C415.867 117.737 415.82 117.928 415.82 118.127H414.186C414.191 117.781 414.279 117.441 414.449 117.107C414.625 116.773 414.874 116.475 415.196 116.211C415.524 115.941 415.92 115.725 416.383 115.561C416.852 115.396 417.382 115.314 417.974 115.314C418.513 115.314 419.014 115.382 419.477 115.517C419.939 115.646 420.338 115.845 420.672 116.114C421.012 116.378 421.278 116.709 421.472 117.107C421.665 117.506 421.762 117.972 421.762 118.505V122.926C421.762 123.242 421.791 123.579 421.85 123.937C421.908 124.288 421.99 124.596 422.096 124.859V125H420.399ZM417.525 123.761C417.842 123.761 418.138 123.72 418.413 123.638C418.688 123.556 418.938 123.447 419.16 123.312C419.389 123.178 419.585 123.025 419.749 122.855C419.913 122.68 420.042 122.498 420.136 122.311V120.386H418.624C417.675 120.386 416.937 120.526 416.409 120.808C415.882 121.089 415.618 121.531 415.618 122.135C415.618 122.369 415.656 122.586 415.732 122.785C415.814 122.984 415.935 123.157 416.093 123.304C416.251 123.444 416.45 123.556 416.69 123.638C416.931 123.72 417.209 123.761 417.525 123.761ZM425.216 111.5H430.076V123.594H433.179V125H425.216V123.594H428.45V112.915H425.216V111.5ZM439.27 121.625L439.691 122.776L442.592 115.49H444.411L439.586 126.468C439.475 126.714 439.331 126.975 439.155 127.25C438.985 127.525 438.777 127.78 438.531 128.015C438.285 128.249 437.998 128.445 437.67 128.604C437.342 128.762 436.964 128.841 436.536 128.841C436.46 128.841 436.375 128.835 436.281 128.823C436.188 128.817 436.094 128.806 436 128.788C435.906 128.776 435.818 128.762 435.736 128.744C435.654 128.727 435.587 128.712 435.534 128.7L435.798 127.373C435.839 127.373 435.895 127.376 435.965 127.382C436.035 127.388 436.108 127.394 436.185 127.399C436.261 127.405 436.334 127.408 436.404 127.408C436.475 127.414 436.53 127.417 436.571 127.417C436.794 127.417 436.996 127.355 437.178 127.232C437.365 127.109 437.529 126.963 437.67 126.793C437.816 126.623 437.939 126.447 438.039 126.266C438.145 126.084 438.227 125.935 438.285 125.817L438.936 124.552L434.84 115.49H436.659L439.27 121.625ZM448.533 123.673H454.589V125H446.459V123.805L452.137 116.835H446.538V115.49H454.272V116.642L448.533 123.673ZM461.594 125.176C460.926 125.176 460.311 125.062 459.748 124.833C459.191 124.604 458.714 124.285 458.315 123.875C457.917 123.465 457.606 122.979 457.384 122.416C457.161 121.854 457.05 121.241 457.05 120.579V120.21C457.05 119.442 457.173 118.757 457.419 118.153C457.665 117.544 457.99 117.031 458.395 116.615C458.805 116.193 459.268 115.871 459.783 115.648C460.305 115.426 460.838 115.314 461.383 115.314C462.068 115.314 462.666 115.435 463.176 115.675C463.691 115.909 464.119 116.237 464.459 116.659C464.799 117.075 465.051 117.567 465.215 118.136C465.385 118.704 465.47 119.319 465.47 119.981V120.711H458.676C458.693 121.145 458.775 121.552 458.922 121.933C459.074 122.313 459.279 122.647 459.537 122.935C459.801 123.216 460.114 123.438 460.478 123.603C460.841 123.767 461.242 123.849 461.682 123.849C462.262 123.849 462.777 123.731 463.229 123.497C463.68 123.263 464.055 122.952 464.354 122.565L465.347 123.339C465.188 123.579 464.989 123.811 464.749 124.033C464.515 124.25 464.242 124.443 463.932 124.613C463.621 124.783 463.27 124.918 462.877 125.018C462.484 125.123 462.057 125.176 461.594 125.176ZM461.383 116.65C461.055 116.65 460.744 116.712 460.451 116.835C460.158 116.952 459.895 117.128 459.66 117.362C459.426 117.591 459.227 117.875 459.062 118.215C458.904 118.549 458.793 118.936 458.729 119.375H463.844V119.252C463.826 118.936 463.765 118.622 463.659 118.312C463.56 118.001 463.41 117.723 463.211 117.477C463.012 117.23 462.76 117.031 462.455 116.879C462.156 116.727 461.799 116.65 461.383 116.65Z" fill="#C5C5C5"/>
<path d="M210.766 119.779H208.208V125H206.591V112.203H210.344C210.941 112.215 211.504 112.3 212.031 112.458C212.559 112.616 213.019 112.854 213.411 113.17C213.81 113.486 214.12 113.885 214.343 114.365C214.571 114.84 214.686 115.399 214.686 116.044C214.686 116.46 214.624 116.841 214.501 117.187C214.384 117.532 214.22 117.846 214.009 118.127C213.798 118.408 213.546 118.657 213.253 118.874C212.96 119.091 212.638 119.275 212.286 119.428L215.002 124.895L214.993 125H213.279L210.766 119.779ZM208.208 118.443H210.388C210.751 118.438 211.094 118.382 211.416 118.276C211.738 118.165 212.02 118.007 212.26 117.802C212.506 117.597 212.699 117.348 212.84 117.055C212.98 116.756 213.051 116.413 213.051 116.026C213.051 115.616 212.983 115.259 212.849 114.954C212.714 114.644 212.526 114.386 212.286 114.181C212.046 113.97 211.759 113.812 211.425 113.706C211.097 113.601 210.736 113.545 210.344 113.539H208.208V118.443ZM221.541 125.176C220.873 125.176 220.258 125.062 219.695 124.833C219.139 124.604 218.661 124.285 218.263 123.875C217.864 123.465 217.554 122.979 217.331 122.416C217.108 121.854 216.997 121.241 216.997 120.579V120.21C216.997 119.442 217.12 118.757 217.366 118.153C217.612 117.544 217.938 117.031 218.342 116.615C218.752 116.193 219.215 115.871 219.73 115.648C220.252 115.426 220.785 115.314 221.33 115.314C222.016 115.314 222.613 115.435 223.123 115.675C223.639 115.909 224.066 116.237 224.406 116.659C224.746 117.075 224.998 117.567 225.162 118.136C225.332 118.704 225.417 119.319 225.417 119.981V120.711H218.623C218.641 121.145 218.723 121.552 218.869 121.933C219.021 122.313 219.227 122.647 219.484 122.935C219.748 123.216 220.062 123.438 220.425 123.603C220.788 123.767 221.189 123.849 221.629 123.849C222.209 123.849 222.725 123.731 223.176 123.497C223.627 123.263 224.002 122.952 224.301 122.565L225.294 123.339C225.136 123.579 224.937 123.811 224.696 124.033C224.462 124.25 224.189 124.443 223.879 124.613C223.568 124.783 223.217 124.918 222.824 125.018C222.432 125.123 222.004 125.176 221.541 125.176ZM221.33 116.65C221.002 116.65 220.691 116.712 220.398 116.835C220.105 116.952 219.842 117.128 219.607 117.362C219.373 117.591 219.174 117.875 219.01 118.215C218.852 118.549 218.74 118.936 218.676 119.375H223.791V119.252C223.773 118.936 223.712 118.622 223.606 118.312C223.507 118.001 223.357 117.723 223.158 117.477C222.959 117.23 222.707 117.031 222.402 116.879C222.104 116.727 221.746 116.65 221.33 116.65ZM227.843 120.166C227.843 119.457 227.931 118.807 228.106 118.215C228.288 117.617 228.543 117.104 228.871 116.677C229.205 116.249 229.606 115.915 230.075 115.675C230.544 115.435 231.068 115.314 231.648 115.314C232.217 115.314 232.712 115.411 233.134 115.604C233.562 115.792 233.931 116.067 234.241 116.431V111.5H235.867V125H234.373L234.303 123.998C233.986 124.385 233.608 124.678 233.169 124.877C232.729 125.076 232.217 125.176 231.631 125.176C231.057 125.176 230.535 125.053 230.066 124.807C229.604 124.561 229.208 124.221 228.88 123.787C228.552 123.354 228.297 122.844 228.115 122.258C227.934 121.666 227.843 121.03 227.843 120.351V120.166ZM229.469 120.351C229.469 120.813 229.519 121.253 229.618 121.669C229.718 122.085 229.87 122.451 230.075 122.768C230.286 123.084 230.553 123.336 230.875 123.523C231.197 123.705 231.584 123.796 232.035 123.796C232.311 123.796 232.56 123.764 232.782 123.699C233.005 123.635 233.207 123.544 233.389 123.427C233.57 123.304 233.731 123.16 233.872 122.996C234.013 122.826 234.136 122.639 234.241 122.434V118.021C234.03 117.635 233.746 117.318 233.389 117.072C233.031 116.82 232.586 116.694 232.053 116.694C231.596 116.694 231.203 116.788 230.875 116.976C230.553 117.163 230.286 117.418 230.075 117.74C229.87 118.057 229.718 118.426 229.618 118.848C229.519 119.264 229.469 119.703 229.469 120.166V120.351ZM245.21 125C245.146 124.877 245.093 124.725 245.052 124.543C245.017 124.355 244.99 124.162 244.973 123.963C244.809 124.127 244.624 124.282 244.419 124.429C244.22 124.575 243.997 124.704 243.751 124.815C243.511 124.927 243.253 125.015 242.978 125.079C242.702 125.144 242.409 125.176 242.099 125.176C241.595 125.176 241.138 125.103 240.728 124.956C240.323 124.81 239.978 124.613 239.69 124.367C239.409 124.115 239.189 123.819 239.031 123.479C238.879 123.134 238.803 122.762 238.803 122.363C238.803 121.842 238.905 121.385 239.11 120.992C239.321 120.6 239.617 120.274 239.998 120.017C240.379 119.753 240.836 119.557 241.369 119.428C241.908 119.299 242.509 119.234 243.171 119.234H244.946V118.487C244.946 118.2 244.894 117.942 244.788 117.714C244.683 117.485 244.533 117.292 244.34 117.134C244.146 116.97 243.909 116.844 243.628 116.756C243.353 116.668 243.042 116.624 242.696 116.624C242.374 116.624 242.084 116.665 241.826 116.747C241.574 116.829 241.36 116.938 241.185 117.072C241.009 117.207 240.871 117.368 240.771 117.556C240.678 117.737 240.631 117.928 240.631 118.127H238.996C239.002 117.781 239.09 117.441 239.26 117.107C239.436 116.773 239.685 116.475 240.007 116.211C240.335 115.941 240.73 115.725 241.193 115.561C241.662 115.396 242.192 115.314 242.784 115.314C243.323 115.314 243.824 115.382 244.287 115.517C244.75 115.646 245.148 115.845 245.482 116.114C245.822 116.378 246.089 116.709 246.282 117.107C246.476 117.506 246.572 117.972 246.572 118.505V122.926C246.572 123.242 246.602 123.579 246.66 123.937C246.719 124.288 246.801 124.596 246.906 124.859V125H245.21ZM242.336 123.761C242.652 123.761 242.948 123.72 243.224 123.638C243.499 123.556 243.748 123.447 243.971 123.312C244.199 123.178 244.396 123.025 244.56 122.855C244.724 122.68 244.853 122.498 244.946 122.311V120.386H243.435C242.485 120.386 241.747 120.526 241.22 120.808C240.692 121.089 240.429 121.531 240.429 122.135C240.429 122.369 240.467 122.586 240.543 122.785C240.625 122.984 240.745 123.157 240.903 123.304C241.062 123.444 241.261 123.556 241.501 123.638C241.741 123.72 242.02 123.761 242.336 123.761ZM253.823 123.857C254.116 123.857 254.4 123.811 254.676 123.717C254.957 123.623 255.206 123.494 255.423 123.33C255.64 123.16 255.812 122.964 255.941 122.741C256.076 122.513 256.146 122.267 256.152 122.003H257.69C257.685 122.425 257.573 122.829 257.356 123.216C257.146 123.597 256.861 123.934 256.504 124.227C256.146 124.514 255.736 124.745 255.273 124.921C254.811 125.091 254.327 125.176 253.823 125.176C253.103 125.176 252.473 125.047 251.934 124.789C251.395 124.531 250.943 124.186 250.58 123.752C250.223 123.312 249.953 122.809 249.771 122.24C249.59 121.666 249.499 121.062 249.499 120.43V120.061C249.499 119.434 249.59 118.833 249.771 118.259C249.953 117.685 250.223 117.181 250.58 116.747C250.943 116.308 251.395 115.959 251.934 115.701C252.473 115.443 253.103 115.314 253.823 115.314C254.386 115.314 254.901 115.405 255.37 115.587C255.845 115.763 256.252 116.006 256.592 116.316C256.938 116.621 257.207 116.984 257.4 117.406C257.594 117.828 257.69 118.279 257.69 118.76H256.152C256.146 118.473 256.082 118.203 255.959 117.951C255.842 117.693 255.681 117.468 255.476 117.274C255.271 117.081 255.024 116.929 254.737 116.817C254.456 116.706 254.151 116.65 253.823 116.65C253.319 116.65 252.895 116.753 252.549 116.958C252.209 117.157 251.934 117.421 251.723 117.749C251.512 118.071 251.359 118.435 251.266 118.839C251.178 119.243 251.134 119.65 251.134 120.061V120.43C251.134 120.846 251.178 121.259 251.266 121.669C251.359 122.073 251.509 122.439 251.714 122.768C251.925 123.09 252.2 123.354 252.54 123.559C252.886 123.758 253.313 123.857 253.823 123.857ZM264.432 113.188V115.49H268.053V116.747H264.432V121.915C264.432 122.284 264.479 122.589 264.572 122.829C264.666 123.069 264.795 123.263 264.959 123.409C265.123 123.55 265.311 123.649 265.521 123.708C265.738 123.767 265.967 123.796 266.207 123.796C266.383 123.796 266.564 123.787 266.752 123.77C266.939 123.746 267.121 123.72 267.297 123.69C267.479 123.661 267.646 123.632 267.798 123.603C267.956 123.567 268.085 123.538 268.185 123.515L268.413 124.666C268.278 124.748 268.114 124.821 267.921 124.886C267.728 124.944 267.517 124.994 267.288 125.035C267.06 125.082 266.816 125.117 266.559 125.141C266.307 125.164 266.055 125.176 265.803 125.176C265.381 125.176 264.985 125.117 264.616 125C264.253 124.877 263.937 124.687 263.667 124.429C263.397 124.165 263.184 123.828 263.025 123.418C262.873 123.002 262.797 122.501 262.797 121.915V116.747H260.301V115.49H262.797V113.188H264.432Z" fill="#C5C5C5"/>
<path d="M49 85H234" stroke="#E5E5E5" stroke-width="2" stroke-dasharray="8 8"/>
<path d="M240 85H427" stroke="#E5E5E5" stroke-width="2" stroke-dasharray="8 8"/>
<circle cx="237.5" cy="84.5" r="10" stroke="#E5E5E5"/>
<circle cx="237.5" cy="84.5" r="7.5" fill="#E5E5E5"/>
<circle cx="429.5" cy="84.5" r="10" stroke="#E5E5E5"/>
<circle cx="429.5" cy="84.5" r="7.5" fill="#E5E5E5"/>
<path d="M10.0371 120.992C9.99609 121.637 9.85547 122.217 9.61523 122.732C9.38086 123.248 9.06445 123.688 8.66602 124.051C8.26758 124.414 7.79297 124.695 7.24219 124.895C6.69141 125.088 6.08203 125.185 5.41406 125.185C4.6582 125.185 3.9873 125.047 3.40137 124.771C2.81543 124.49 2.32324 124.101 1.9248 123.603C1.52637 123.099 1.22168 122.495 1.01074 121.792C0.799805 121.089 0.694336 120.315 0.694336 119.472V117.749C0.694336 116.899 0.805664 116.123 1.02832 115.42C1.25098 114.717 1.56738 114.113 1.97754 113.609C2.3877 113.105 2.88281 112.716 3.46289 112.44C4.04883 112.159 4.70508 112.019 5.43164 112.019C6.13477 112.019 6.75879 112.118 7.30371 112.317C7.85449 112.517 8.32324 112.801 8.70996 113.17C9.09668 113.539 9.40137 113.99 9.62402 114.523C9.84668 115.057 9.9873 115.657 10.0459 116.325H7.58496C7.56152 115.944 7.50293 115.61 7.40918 115.323C7.32129 115.036 7.18945 114.799 7.01367 114.611C6.84375 114.418 6.62695 114.274 6.36328 114.181C6.10547 114.081 5.79492 114.031 5.43164 114.031C5.05078 114.031 4.71973 114.113 4.43848 114.277C4.15723 114.441 3.92285 114.682 3.73535 114.998C3.55371 115.314 3.41895 115.704 3.33105 116.167C3.24316 116.624 3.19922 117.146 3.19922 117.731V119.472C3.19922 120.731 3.375 121.663 3.72656 122.267C4.08398 122.87 4.64648 123.172 5.41406 123.172C6.05859 123.172 6.56836 123.002 6.94336 122.662C7.31836 122.316 7.52637 121.76 7.56738 120.992H10.0371ZM11.7158 120.157C11.7158 119.466 11.8154 118.827 12.0146 118.241C12.2139 117.649 12.5039 117.137 12.8848 116.703C13.2715 116.27 13.7402 115.93 14.291 115.684C14.8477 115.438 15.4834 115.314 16.1982 115.314C16.9131 115.314 17.5488 115.438 18.1055 115.684C18.6621 115.93 19.1309 116.27 19.5117 116.703C19.8984 117.137 20.1914 117.649 20.3906 118.241C20.5898 118.827 20.6895 119.466 20.6895 120.157V120.342C20.6895 121.039 20.5898 121.684 20.3906 122.275C20.1914 122.861 19.9014 123.371 19.5205 123.805C19.1396 124.238 18.6709 124.578 18.1143 124.824C17.5576 125.064 16.9248 125.185 16.2158 125.185C15.501 125.185 14.8623 125.064 14.2998 124.824C13.7432 124.578 13.2715 124.238 12.8848 123.805C12.5039 123.371 12.2139 122.861 12.0146 122.275C11.8154 121.684 11.7158 121.039 11.7158 120.342V120.157ZM14.1592 120.342C14.1592 120.74 14.1973 121.115 14.2734 121.467C14.3496 121.812 14.4697 122.117 14.6338 122.381C14.7979 122.639 15.0088 122.844 15.2666 122.996C15.5303 123.148 15.8467 123.225 16.2158 123.225C16.5732 123.225 16.8809 123.148 17.1387 122.996C17.3965 122.844 17.6045 122.639 17.7627 122.381C17.9268 122.117 18.0469 121.812 18.123 121.467C18.1992 121.115 18.2373 120.74 18.2373 120.342V120.157C18.2373 119.771 18.1992 119.404 18.123 119.059C18.0469 118.713 17.9268 118.408 17.7627 118.145C17.6045 117.881 17.3965 117.673 17.1387 117.521C16.8809 117.368 16.5674 117.292 16.1982 117.292C15.835 117.292 15.5244 117.368 15.2666 117.521C15.0088 117.673 14.7979 117.881 14.6338 118.145C14.4697 118.408 14.3496 118.713 14.2734 119.059C14.1973 119.404 14.1592 119.771 14.1592 120.157V120.342ZM23.3701 111.5H28.6875V123.014H31.4121V125H23.3701V123.014H26.2178V113.495H23.3701V111.5ZM34.1807 111.5H39.498V123.014H42.2227V125H34.1807V123.014H37.0283V113.495H34.1807V111.5ZM49.0957 125.176C48.3633 125.176 47.6982 125.056 47.1006 124.815C46.5029 124.575 45.9902 124.25 45.5625 123.84C45.1348 123.424 44.8037 122.938 44.5693 122.381C44.3408 121.818 44.2266 121.218 44.2266 120.579V120.228C44.2266 119.501 44.3408 118.839 44.5693 118.241C44.7979 117.638 45.1172 117.119 45.5273 116.686C45.9375 116.252 46.4238 115.915 46.9863 115.675C47.5488 115.435 48.1611 115.314 48.8232 115.314C49.5088 115.314 50.1182 115.429 50.6514 115.657C51.1904 115.88 51.6445 116.196 52.0137 116.606C52.3887 117.017 52.6729 117.512 52.8662 118.092C53.0596 118.666 53.1562 119.302 53.1562 119.999V121.036H46.7051C46.752 121.358 46.8457 121.654 46.9863 121.924C47.1328 122.188 47.3174 122.416 47.54 122.609C47.7627 122.803 48.0176 122.952 48.3047 123.058C48.5918 123.163 48.9053 123.216 49.2451 123.216C49.4854 123.216 49.7227 123.192 49.957 123.146C50.1973 123.099 50.4258 123.031 50.6426 122.943C50.8594 122.85 51.0615 122.735 51.249 122.601C51.4365 122.466 51.6006 122.308 51.7412 122.126L52.9629 123.444C52.8105 123.661 52.6113 123.875 52.3652 124.086C52.125 124.291 51.8379 124.476 51.5039 124.64C51.1758 124.798 50.8096 124.927 50.4053 125.026C50.001 125.126 49.5645 125.176 49.0957 125.176ZM48.8057 117.292C48.5303 117.292 48.2783 117.342 48.0498 117.441C47.8213 117.535 47.6191 117.673 47.4434 117.854C47.2734 118.036 47.1299 118.253 47.0127 118.505C46.8955 118.757 46.8076 119.038 46.749 119.349H50.7568V119.155C50.7451 118.897 50.6953 118.654 50.6074 118.426C50.5195 118.197 50.3936 118.001 50.2295 117.837C50.0654 117.667 49.8633 117.535 49.623 117.441C49.3887 117.342 49.1162 117.292 48.8057 117.292ZM59.502 123.225C59.7422 123.225 59.9707 123.189 60.1875 123.119C60.4043 123.049 60.5947 122.949 60.7588 122.82C60.9229 122.691 61.0488 122.536 61.1367 122.354C61.2305 122.173 61.2715 121.971 61.2598 121.748H63.5625C63.5742 122.24 63.4717 122.697 63.2549 123.119C63.0439 123.541 62.7539 123.904 62.3848 124.209C62.0156 124.514 61.585 124.754 61.0928 124.93C60.6064 125.1 60.0908 125.185 59.5459 125.185C58.8076 125.185 58.1602 125.062 57.6035 124.815C57.0469 124.563 56.5811 124.221 56.2061 123.787C55.8369 123.354 55.5557 122.847 55.3623 122.267C55.1748 121.681 55.0811 121.054 55.0811 120.386V120.122C55.0811 119.454 55.1748 118.83 55.3623 118.25C55.5498 117.664 55.8311 117.154 56.2061 116.721C56.5811 116.287 57.0439 115.944 57.5947 115.692C58.1514 115.44 58.7959 115.314 59.5283 115.314C60.1143 115.314 60.6562 115.402 61.1543 115.578C61.6523 115.754 62.0801 116.003 62.4375 116.325C62.8008 116.642 63.082 117.028 63.2812 117.485C63.4805 117.937 63.5742 118.443 63.5625 119.006H61.2598C61.2715 118.771 61.2363 118.549 61.1543 118.338C61.0723 118.127 60.9521 117.945 60.7939 117.793C60.6357 117.641 60.4453 117.521 60.2227 117.433C60 117.339 59.7568 117.292 59.4932 117.292C59.1064 117.292 58.7871 117.371 58.5352 117.529C58.2832 117.688 58.0811 117.898 57.9287 118.162C57.7822 118.426 57.6768 118.728 57.6123 119.067C57.5537 119.407 57.5244 119.759 57.5244 120.122V120.386C57.5244 120.755 57.5537 121.112 57.6123 121.458C57.6709 121.798 57.7734 122.1 57.9199 122.363C58.0723 122.621 58.2744 122.829 58.5264 122.987C58.7842 123.146 59.1094 123.225 59.502 123.225ZM70.585 113.161V115.49H74.1357V117.292H70.585V121.379C70.585 121.725 70.623 122.015 70.6992 122.249C70.7812 122.478 70.8955 122.662 71.042 122.803C71.1885 122.938 71.3643 123.034 71.5693 123.093C71.7803 123.151 72.0146 123.181 72.2725 123.181C72.46 123.181 72.6504 123.172 72.8438 123.154C73.043 123.137 73.2305 123.116 73.4062 123.093C73.5879 123.063 73.7549 123.034 73.9072 123.005C74.0654 122.976 74.2002 122.946 74.3115 122.917L74.5488 124.596C74.3789 124.695 74.1797 124.783 73.9512 124.859C73.7227 124.93 73.4795 124.988 73.2217 125.035C72.9639 125.082 72.6943 125.117 72.4131 125.141C72.1377 125.17 71.8652 125.185 71.5957 125.185C71.0742 125.185 70.5996 125.117 70.1719 124.982C69.75 124.842 69.3867 124.628 69.082 124.341C68.7832 124.048 68.5518 123.679 68.3877 123.233C68.2236 122.782 68.1416 122.243 68.1416 121.616V117.292H65.9707V115.49H68.1416V113.161H70.585Z" fill="#4A4A4A"/>
<circle cx="38" cy="85" r="17" fill="#326DE6"/>
<path d="M39.832 92H37.4785V80.6621L33.8457 81.9902V79.9395L39.6855 77.7812H39.832V92Z" fill="white"/>
<mask id="path-12-inside-1" fill="white">
<path d="M54.8335 10.686V54.4988C54.8335 55.6792 53.9007 56.636 52.7501 56.636H11.0833C9.93274 56.636 9 55.6792 9 54.4988V2.13721C9 0.956861 9.93274 0 11.0833 0H44.4168"/>
</mask>
<path d="M54.8335 10.686V54.4988C54.8335 55.6792 53.9007 56.636 52.7501 56.636H11.0833C9.93274 56.636 9 55.6792 9 54.4988V2.13721C9 0.956861 9.93274 0 11.0833 0H44.4168" fill="white"/>
<path d="M53.3335 10.686V54.4988H56.3335V10.686H53.3335ZM53.3335 54.4988C53.3335 54.8871 53.0364 55.136 52.7501 55.136V58.136C54.765 58.136 56.3335 56.4713 56.3335 54.4988H53.3335ZM52.7501 55.136H11.0833V58.136H52.7501V55.136ZM11.0833 55.136C10.797 55.136 10.5 54.8871 10.5 54.4988H7.5C7.5 56.4713 9.06845 58.136 11.0833 58.136V55.136ZM10.5 54.4988V2.13721H7.5V54.4988H10.5ZM10.5 2.13721C10.5 1.74896 10.797 1.5 11.0833 1.5V-1.5C9.06845 -1.5 7.5 0.164762 7.5 2.13721H10.5ZM11.0833 1.5H44.4168V-1.5H11.0833V1.5Z" fill="#E5E5E5" mask="url(#path-12-inside-1)"/>
<path d="M54.8337 10.686H45.4814C44.8935 10.686 44.417 10.2095 44.417 9.62167V0" fill="#D8D8D8"/>
<path d="M54.8337 10.686H45.4814C44.8935 10.686 44.417 10.2095 44.417 9.62167V0" fill="#E5E5E5"/>
<path d="M15.9243 10.457H28.7084" stroke="#E5E5E5" stroke-width="1.5" stroke-linecap="round"/>
<path d="M15.6777 7.02234H26.8068" stroke="#E5E5E5" stroke-width="1.5" stroke-linecap="round" stroke-dasharray="4.06 4.06"/>
<path d="M15.9243 13.8918H34.3396" stroke="#E5E5E5" stroke-width="1.5" stroke-linecap="round"/>
<path d="M15.9243 17.3267H19.2725" stroke="#C5C5C5" stroke-width="1.5" stroke-linecap="round"/>
<path d="M21.4038 17.3267H29.5461" stroke="#E5E5E5" stroke-width="1.5" stroke-linecap="round"/>
<path d="M17.2944 20.7614H24.7518" stroke="#C5C5C5" stroke-width="1.5" stroke-linecap="round"/>
<path d="M26.8823 20.7614H28.176" stroke="#E5E5E5" stroke-width="1.5" stroke-linecap="round"/>
<path d="M17.2944 24.1962H23.3821" stroke="#C5C5C5" stroke-width="1.5" stroke-linecap="round"/>
<path d="M25.5127 24.1962H39.8187" stroke="#E5E5E5" stroke-width="1.5" stroke-linecap="round"/>
<path d="M17.2944 27.631H20.3383" stroke="#C5C5C5" stroke-width="1.5" stroke-linecap="round"/>
<path d="M22.6973 27.631H33.6551" stroke="#E5E5E5" stroke-width="1.5" stroke-linecap="round"/>
<path d="M18.6641 31.0659H28.7087" stroke="#C5C5C5" stroke-width="1.5" stroke-linecap="round"/>
<path d="M30.9155 31.0659H35.7096" stroke="#E5E5E5" stroke-width="1.5" stroke-linecap="round"/>
<path d="M20.0332 34.5006H24.7512" stroke="#C5C5C5" stroke-width="1.5" stroke-linecap="round"/>
<path d="M26.8066 34.5006H28.1764" stroke="#E5E5E5" stroke-width="1.5" stroke-linecap="round"/>
<path d="M15.9243 37.9355H19.2725" stroke="#C5C5C5" stroke-width="1.5" stroke-linecap="round"/>
<path d="M21.4038 37.9355H29.5461" stroke="#E5E5E5" stroke-width="1.5" stroke-linecap="round"/>
<path d="M17.2944 41.3701H24.7518" stroke="#C5C5C5" stroke-width="1.5" stroke-linecap="round"/>
<path d="M26.8823 41.3701H28.176" stroke="#E5E5E5" stroke-width="1.5" stroke-linecap="round"/>
<path d="M17.2944 44.8049H23.3821" stroke="#C5C5C5" stroke-width="1.5" stroke-linecap="round"/>
<path d="M25.5127 44.8049H39.8187" stroke="#E5E5E5" stroke-width="1.5" stroke-linecap="round"/>
<path d="M17.2944 48.2397H20.3383" stroke="#C5C5C5" stroke-width="1.5" stroke-linecap="round"/>
<path d="M22.6973 48.2397H33.6551" stroke="#E5E5E5" stroke-width="1.5" stroke-linecap="round"/>
<mask id="path-39-inside-2" fill="white">
<path d="M62.8945 14.0303V57.8431C62.8945 59.0234 61.9618 59.9803 60.8112 59.9803H19.1444C17.9938 59.9803 17.061 59.0234 17.061 57.8431V5.48145C17.061 4.3011 17.9938 3.34424 19.1444 3.34424H52.4778"/>
</mask>
<path d="M62.8945 14.0303V57.8431C62.8945 59.0234 61.9618 59.9803 60.8112 59.9803H19.1444C17.9938 59.9803 17.061 59.0234 17.061 57.8431V5.48145C17.061 4.3011 17.9938 3.34424 19.1444 3.34424H52.4778" fill="white"/>
<path d="M61.3945 14.0303V57.8431H64.3945V14.0303H61.3945ZM61.3945 57.8431C61.3945 58.2313 61.0975 58.4803 60.8112 58.4803V61.4803C62.8261 61.4803 64.3945 59.8155 64.3945 57.8431H61.3945ZM60.8112 58.4803H19.1444V61.4803H60.8112V58.4803ZM19.1444 58.4803C18.8581 58.4803 18.561 58.2313 18.561 57.8431H15.561C15.561 59.8155 17.1295 61.4803 19.1444 61.4803V58.4803ZM18.561 57.8431V5.48145H15.561V57.8431H18.561ZM18.561 5.48145C18.561 5.0932 18.8581 4.84424 19.1444 4.84424V1.84424C17.1295 1.84424 15.561 3.509 15.561 5.48145H18.561ZM19.1444 4.84424H52.4778V1.84424H19.1444V4.84424Z" fill="#D8D8D8" mask="url(#path-39-inside-2)"/>
<path d="M62.8947 14.0303H53.5424C52.9546 14.0303 52.478 13.5537 52.478 12.9659V3.34424" fill="#D8D8D8"/>
<path d="M62.8947 14.0303H53.5424C52.9546 14.0303 52.478 13.5537 52.478 12.9659V3.34424" fill="#C5C5C5"/>
<path d="M23.9854 13.8013H36.7695" stroke="#C5C5C5" stroke-width="1.5" stroke-linecap="round"/>
<path d="M23.7383 10.3665H34.8673" stroke="#C5C5C5" stroke-width="1.5" stroke-linecap="round" stroke-dasharray="4.06 4.06"/>
<path d="M23.9854 17.2361H42.4006" stroke="#C5C5C5" stroke-width="1.5" stroke-linecap="round"/>
<path d="M23.9854 20.6709H27.3336" stroke="#9B9B9B" stroke-width="1.5" stroke-linecap="round"/>
<path d="M29.4648 20.6709H37.6071" stroke="#C5C5C5" stroke-width="1.5" stroke-linecap="round"/>
<path d="M25.3555 24.1057H32.8129" stroke="#9B9B9B" stroke-width="1.5" stroke-linecap="round"/>
<path d="M34.9438 24.1057H36.2375" stroke="#C5C5C5" stroke-width="1.5" stroke-linecap="round"/>
<path d="M25.3555 27.5405H31.4432" stroke="#9B9B9B" stroke-width="1.5" stroke-linecap="round"/>
<path d="M33.5737 27.5405H47.8798" stroke="#C5C5C5" stroke-width="1.5" stroke-linecap="round"/>
<path d="M25.3555 30.9753H28.3993" stroke="#9B9B9B" stroke-width="1.5" stroke-linecap="round"/>
<path d="M30.7583 30.9753H41.7161" stroke="#C5C5C5" stroke-width="1.5" stroke-linecap="round"/>
<path d="M26.7251 34.4102H36.7698" stroke="#9B9B9B" stroke-width="1.5" stroke-linecap="round"/>
<path d="M38.9766 34.4102H43.7706" stroke="#C5C5C5" stroke-width="1.5" stroke-linecap="round"/>
<path d="M28.0947 37.845H32.8127" stroke="#9B9B9B" stroke-width="1.5" stroke-linecap="round"/>
<path d="M34.8672 37.845H36.2369" stroke="#C5C5C5" stroke-width="1.5" stroke-linecap="round"/>
<path d="M23.9854 41.2798H27.3336" stroke="#9B9B9B" stroke-width="1.5" stroke-linecap="round"/>
<path d="M29.4648 41.2798H37.6071" stroke="#C5C5C5" stroke-width="1.5" stroke-linecap="round"/>
<path d="M25.3555 44.7146H32.8129" stroke="#9B9B9B" stroke-width="1.5" stroke-linecap="round"/>
<path d="M34.9438 44.7146H36.2375" stroke="#C5C5C5" stroke-width="1.5" stroke-linecap="round"/>
<path d="M25.3555 48.1494H31.4432" stroke="#9B9B9B" stroke-width="1.5" stroke-linecap="round"/>
<path d="M33.5737 48.1494H47.8798" stroke="#C5C5C5" stroke-width="1.5" stroke-linecap="round"/>
<path d="M25.3555 51.5842H28.3993" stroke="#9B9B9B" stroke-width="1.5" stroke-linecap="round"/>
<path d="M30.7583 51.5842H41.7161" stroke="#C5C5C5" stroke-width="1.5" stroke-linecap="round"/>
<g filter="url(#filter0_d)">
<path d="M59.116 21.7859C63.4699 21.7859 66.9995 18.2595 66.9995 13.9096C66.9995 9.55957 63.4699 6.0332 59.116 6.0332C54.762 6.0332 51.2324 9.55957 51.2324 13.9096C51.2324 18.2595 54.762 21.7859 59.116 21.7859Z" fill="white"/>
</g>
<path fill-rule="evenodd" clip-rule="evenodd" d="M62.9274 11.3299C62.8749 11.1621 62.749 11.0258 62.5916 10.942L59.391 9.41107C59.3071 9.36913 59.2126 9.35864 59.1287 9.35864C59.0447 9.35864 58.9503 9.35864 58.8663 9.37961L55.6658 10.921C55.5084 10.9944 55.3929 11.1307 55.351 11.3089L54.5639 14.7587C54.5325 14.9369 54.5744 15.1152 54.6794 15.262L56.8935 17.9987C57.0195 18.1245 57.1978 18.2084 57.3762 18.2189H60.9021C61.091 18.2398 61.2694 18.156 61.3848 17.9987L63.599 15.262C63.7039 15.1152 63.7459 14.9369 63.7249 14.7587L62.9274 11.3299Z" fill="#326DE6"/>
<path fill-rule="evenodd" clip-rule="evenodd" d="M62.4343 14.6224C62.4239 14.6224 62.4134 14.6224 62.4134 14.6119C62.4134 14.6014 62.3924 14.6014 62.3714 14.6014C62.3294 14.591 62.2874 14.591 62.2455 14.591C62.2245 14.591 62.2035 14.591 62.1825 14.5805H62.172C62.0566 14.57 61.9306 14.549 61.8152 14.5176C61.7837 14.5071 61.7523 14.4756 61.7418 14.4442L61.6578 14.4232C61.6998 14.1191 61.6788 13.8045 61.6158 13.5005C61.5424 13.1964 61.4165 12.9028 61.2486 12.6407L61.3115 12.5777V12.5673C61.3115 12.5358 61.322 12.4939 61.343 12.4729C61.4374 12.389 61.5319 12.3261 61.6368 12.2632L61.6998 12.2317C61.7208 12.2212 61.7391 12.2108 61.7575 12.2003C61.7759 12.1898 61.7942 12.1793 61.8152 12.1688C61.8205 12.1636 61.8257 12.1609 61.831 12.1583C61.8362 12.1557 61.8415 12.1531 61.8467 12.1478C61.8532 12.1414 61.8517 12.1389 61.8495 12.1355C61.8482 12.1333 61.8467 12.1309 61.8467 12.1269C61.9411 12.0535 61.9621 11.9276 61.8887 11.8333C61.8572 11.7913 61.7942 11.7599 61.7418 11.7599C61.6893 11.7599 61.6368 11.7808 61.5948 11.8123L61.5844 11.8228C61.5739 11.8333 61.5634 11.8438 61.5529 11.8438C61.5214 11.8752 61.4899 11.9067 61.4689 11.9381C61.4616 11.9528 61.4492 11.9623 61.4388 11.9703C61.4343 11.9737 61.4301 11.9769 61.427 11.9801C61.3535 12.064 61.2591 12.1478 61.1646 12.2108C61.1436 12.2212 61.1226 12.2317 61.1016 12.2317C61.0912 12.2317 61.0702 12.2317 61.0597 12.2212H61.0492L60.9652 12.2737C60.9233 12.2317 60.8787 12.1898 60.8341 12.1478L60.8341 12.1478L60.8341 12.1478C60.7895 12.1059 60.7449 12.064 60.7029 12.022C60.3146 11.7179 59.8319 11.5292 59.3387 11.4768L59.3282 11.3929V11.4034C59.2967 11.3824 59.2862 11.3509 59.2757 11.3195C59.2757 11.2041 59.2757 11.0888 59.2967 10.963V10.9525C59.2967 10.942 59.2994 10.9315 59.302 10.921C59.3046 10.9106 59.3072 10.9001 59.3072 10.8896C59.3125 10.8686 59.3151 10.8476 59.3177 10.8267L59.3177 10.8267C59.3203 10.8057 59.323 10.7847 59.3282 10.7638V10.7008C59.3387 10.596 59.2548 10.4911 59.1498 10.4806C59.0869 10.4702 59.0239 10.5016 58.9714 10.554C58.9295 10.596 58.9085 10.6484 58.9085 10.7008V10.7533C58.9085 10.7952 58.919 10.8372 58.9295 10.8791C58.9399 10.9001 58.9399 10.921 58.9399 10.942V10.9525C58.9609 11.0678 58.9609 11.1832 58.9609 11.309C58.9504 11.3405 58.9399 11.3719 58.9085 11.3929V11.4139L58.898 11.4977C58.7992 11.5067 58.7004 11.5234 58.5951 11.5411L58.5412 11.5502C58.048 11.655 57.5968 11.9172 57.2505 12.2842L57.1875 12.2422H57.177C57.1727 12.2422 57.1683 12.244 57.1632 12.2461C57.156 12.2491 57.1473 12.2527 57.135 12.2527C57.114 12.2527 57.0931 12.2422 57.0721 12.2317C56.9776 12.1583 56.8832 12.0744 56.8097 11.9906C56.8024 11.9759 56.79 11.9664 56.7796 11.9584C56.7751 11.955 56.7709 11.9518 56.7678 11.9486C56.752 11.9329 56.7389 11.9172 56.7258 11.9014L56.7258 11.9014C56.7127 11.8857 56.6995 11.87 56.6838 11.8542C56.6786 11.849 56.6733 11.8464 56.6681 11.8438C56.6628 11.8411 56.6576 11.8385 56.6523 11.8333L56.6418 11.8228C56.5999 11.7913 56.5474 11.7704 56.4949 11.7704C56.432 11.7704 56.3795 11.7913 56.348 11.8438C56.285 11.9381 56.306 12.064 56.39 12.1374C56.4005 12.1374 56.4005 12.1478 56.4005 12.1478C56.4005 12.1478 56.4215 12.1688 56.432 12.1688C56.4634 12.1898 56.5054 12.2108 56.5474 12.2317L56.6104 12.2632C56.7153 12.3261 56.8202 12.389 56.9042 12.4729C56.9233 12.492 56.9425 12.5287 56.9377 12.5588L56.9357 12.5568V12.5673C56.9366 12.5645 56.9372 12.5617 56.9377 12.5588L56.9986 12.6197C56.9934 12.6302 56.9881 12.638 56.9829 12.6459C56.9776 12.6538 56.9724 12.6616 56.9671 12.6721C56.6418 13.1859 56.5054 13.7941 56.5999 14.3917L56.5159 14.4127C56.5159 14.4232 56.5054 14.4232 56.5054 14.4232C56.4949 14.4546 56.4634 14.4756 56.432 14.4966C56.3165 14.528 56.2011 14.549 56.0752 14.5595C56.0542 14.5595 56.0332 14.5595 56.0122 14.57C55.9912 14.57 55.9702 14.5726 55.9493 14.5752C55.9283 14.5778 55.9073 14.5805 55.8863 14.5805C55.8819 14.5805 55.8776 14.5823 55.8725 14.5844C55.8653 14.5874 55.8566 14.591 55.8443 14.591C55.8399 14.591 55.8373 14.591 55.835 14.5918C55.8319 14.5929 55.8294 14.5954 55.8233 14.6014C55.7079 14.6224 55.6344 14.7273 55.6554 14.8426C55.6764 14.937 55.7709 14.9999 55.8653 14.9894C55.8863 14.9894 55.8968 14.9894 55.9178 14.9789C55.923 14.9789 55.9256 14.9789 55.927 14.9776C55.9283 14.9763 55.9283 14.9737 55.9283 14.9684C55.9283 14.9611 55.9436 14.964 55.9564 14.9664C55.962 14.9675 55.9671 14.9684 55.9702 14.9684C55.9966 14.9619 56.0229 14.9511 56.0467 14.9415L56.0467 14.9415L56.0467 14.9415C56.0608 14.9357 56.074 14.9304 56.0857 14.9265C56.1067 14.916 56.1276 14.9055 56.1486 14.9055H56.1591C56.2746 14.8636 56.3795 14.8321 56.5054 14.8112H56.5159C56.5474 14.8112 56.5789 14.8216 56.5999 14.8426C56.6104 14.8426 56.6104 14.8531 56.6104 14.8531L56.7048 14.8426C56.8622 15.3249 57.156 15.7548 57.5653 16.0694C57.6597 16.1428 57.7437 16.2057 57.8486 16.2581L57.7961 16.3315C57.7961 16.342 57.8066 16.342 57.8066 16.342C57.8276 16.3735 57.8276 16.4154 57.8171 16.4469C57.7752 16.5517 57.7122 16.6566 57.6492 16.751V16.7615C57.6387 16.7824 57.6282 16.7929 57.6073 16.8139C57.5955 16.8257 57.5837 16.844 57.57 16.8653L57.57 16.8653C57.5594 16.882 57.5476 16.9003 57.5338 16.9187C57.5285 16.924 57.5259 16.9292 57.5233 16.9345C57.5207 16.9397 57.5181 16.9449 57.5128 16.9502C57.5128 16.9502 57.5128 16.9607 57.5023 16.9607C57.4498 17.0655 57.4918 17.1914 57.5863 17.2438C57.6073 17.2543 57.6387 17.2648 57.6597 17.2648C57.7437 17.2648 57.8171 17.2123 57.8591 17.1389C57.8591 17.1389 57.8591 17.1284 57.8696 17.1284C57.8696 17.118 57.8801 17.1075 57.8906 17.097C57.8958 17.076 57.9037 17.0577 57.9116 17.0393C57.9194 17.021 57.9273 17.0026 57.9326 16.9816L57.9535 16.9187C57.985 16.8034 58.0375 16.6985 58.09 16.5937C58.1109 16.5622 58.1424 16.5413 58.1739 16.5308C58.1792 16.5308 58.1818 16.5308 58.1831 16.5295C58.1844 16.5281 58.1844 16.5255 58.1844 16.5203L58.2264 16.4364C58.5202 16.5517 58.8245 16.6042 59.1393 16.6042C59.3282 16.6042 59.5171 16.5832 59.706 16.5308C59.792 16.5151 59.8781 16.4878 59.9598 16.4619C59.9877 16.4531 60.0151 16.4444 60.0418 16.4364L60.0838 16.5098H60.0838C60.089 16.5098 60.0916 16.5098 60.0929 16.5111C60.0943 16.5124 60.0943 16.515 60.0943 16.5203C60.1257 16.5308 60.1572 16.5517 60.1782 16.5832L60.1782 16.5832C60.2307 16.6881 60.2831 16.7929 60.3146 16.9082V16.9187L60.3356 16.9816L60.3356 16.9817C60.3461 17.0236 60.3566 17.0655 60.3776 17.097C60.3828 17.1022 60.3855 17.1075 60.3881 17.1127C60.3907 17.118 60.3933 17.1232 60.3986 17.1284C60.3986 17.1284 60.3986 17.1389 60.4091 17.1389C60.451 17.2123 60.5245 17.2648 60.6084 17.2648C60.6334 17.2648 60.6517 17.2582 60.6739 17.2503L60.6924 17.2438C60.7344 17.2228 60.7763 17.1809 60.7868 17.1284C60.7973 17.076 60.7973 17.0236 60.7763 16.9712C60.7763 16.9607 60.7658 16.9607 60.7658 16.9607C60.7658 16.9502 60.7554 16.9397 60.7449 16.9292C60.7239 16.8873 60.7029 16.8558 60.6714 16.8244C60.6609 16.8034 60.6504 16.7929 60.6294 16.7719V16.751C60.556 16.6566 60.5035 16.5517 60.4615 16.4469C60.451 16.4154 60.451 16.3735 60.472 16.342C60.472 16.3315 60.4825 16.3315 60.4825 16.3315L60.451 16.2477C60.9862 15.9226 61.3955 15.4193 61.5844 14.8216L61.6683 14.8321C61.6788 14.8321 61.6788 14.8216 61.6788 14.8216C61.6998 14.8007 61.7313 14.7902 61.7627 14.7902H61.7732C61.8887 14.8112 62.0041 14.8426 62.109 14.8846H62.1195C62.1405 14.895 62.1615 14.9055 62.1825 14.9055C62.1933 14.9109 62.2035 14.9164 62.2133 14.9216C62.2414 14.9366 62.2668 14.9502 62.2979 14.9579C62.3023 14.9579 62.3066 14.9597 62.3117 14.9619C62.3189 14.9648 62.3276 14.9684 62.3399 14.9684C62.3444 14.9684 62.3469 14.9684 62.3492 14.9692C62.3523 14.9703 62.3549 14.9729 62.3609 14.9789C62.3819 14.9894 62.3924 14.9894 62.4134 14.9894C62.5078 14.9894 62.5917 14.9265 62.6232 14.8426C62.6127 14.7273 62.5288 14.6434 62.4343 14.6224ZM59.4015 14.2974L59.1181 14.4337L58.8348 14.2974L58.7614 13.9933L58.9607 13.7416H59.2756L59.4749 13.9933L59.4015 14.2974ZM61.1548 14.2765C61.1758 14.0563 61.1653 13.8361 61.1129 13.6159C61.0604 13.3957 60.9764 13.186 60.861 12.9973L60.074 13.7103C60.053 13.7313 60.0425 13.7522 60.032 13.7837C60.011 13.8781 60.0635 13.9724 60.1579 13.9934L61.1548 14.2765ZM60.5457 12.6093L59.6853 13.2174C59.6118 13.2594 59.5069 13.2489 59.4544 13.1755C59.4334 13.1545 59.4229 13.1336 59.4229 13.1021L59.36 12.0431C59.8217 12.0955 60.2309 12.2947 60.5457 12.6093ZM58.8562 12.0326L58.6463 12.0746C58.279 12.1584 57.9432 12.3472 57.6704 12.6093L58.5414 13.228L58.5599 13.2344C58.5821 13.2424 58.6004 13.2489 58.6253 13.2489C58.7198 13.2489 58.8037 13.1755 58.8037 13.0812L58.8562 12.0326ZM57.3661 12.9973L58.1427 13.6893C58.2161 13.7522 58.2266 13.8571 58.1637 13.9305C58.1427 13.9619 58.1217 13.9724 58.0797 13.9829L57.0618 14.2765C57.0303 13.8361 57.1353 13.3852 57.3661 12.9973ZM58.2265 14.5909L57.1877 14.7692C57.3346 15.1886 57.6284 15.5556 57.9957 15.7968L58.3944 14.8321C58.4154 14.8006 58.4154 14.7587 58.4049 14.7272C58.3944 14.6434 58.3105 14.5909 58.2265 14.5909ZM59.5699 16.0695C59.423 16.1009 59.2761 16.1219 59.1187 16.1219C58.8983 16.1219 58.6674 16.08 58.4576 16.0171L58.9718 15.0838C59.0242 15.0209 59.1082 15 59.1816 15.0419C59.2131 15.0629 59.2341 15.0838 59.2656 15.1153L59.7693 16.0275C59.7063 16.038 59.6433 16.0485 59.5699 16.0695ZM60.22 15.7863C60.4719 15.629 60.6922 15.4088 60.8496 15.1572C60.9336 15.0418 60.9965 14.9055 61.049 14.7587L59.9996 14.5805C59.9682 14.5805 59.9367 14.591 59.9052 14.6014L59.9052 14.6014C59.8317 14.6329 59.7898 14.7168 59.8108 14.8007L60.22 15.7863Z" fill="white"/>
<g filter="url(#filter1_d)">
<path d="M59.116 39.8858C63.4699 39.8858 66.9995 36.3594 66.9995 32.0094C66.9995 27.6594 63.4699 24.1331 59.116 24.1331C54.762 24.1331 51.2324 27.6594 51.2324 32.0094C51.2324 36.3594 54.762 39.8858 59.116 39.8858Z" fill="white"/>
</g>
<path d="M58.9901 27.5808C56.6275 27.5808 54.72 28.26 54.6807 29.1086C54.6811 29.1174 54.6811 29.1262 54.6807 29.135C54.6807 29.2331 54.7398 29.3591 54.9332 29.5148C55.1265 29.6705 55.4391 29.8312 55.8338 29.9652C56.623 30.2331 57.7451 30.4067 58.9901 30.4067C60.235 30.4067 61.3571 30.2331 62.1464 29.9652C62.541 29.8312 62.8536 29.6705 63.047 29.5148C63.2404 29.3591 63.2996 29.2331 63.2996 29.135C63.2996 29.1291 63.2997 29.1233 63.2996 29.1174C63.2731 28.2646 61.361 27.5808 58.9901 27.5808ZM54.6807 30.0226V32.0757C54.6811 32.0846 54.6811 32.0934 54.6807 32.1022C54.6807 32.2003 54.7398 32.3263 54.9332 32.482C55.1265 32.6377 55.4391 32.7984 55.8338 32.9323C56.623 33.2003 57.7451 33.3739 58.9901 33.3739C60.235 33.3739 61.3571 33.2003 62.1464 32.9323C62.541 32.7984 62.8536 32.6377 63.047 32.482C63.2404 32.3263 63.2995 32.2003 63.2995 32.1022V32.0846V30.0226C63.0403 30.2128 62.7087 30.3701 62.3147 30.5038C61.4488 30.7978 60.2818 30.9719 58.9901 30.9719C57.6984 30.9719 56.5314 30.7978 55.6654 30.5038C55.2715 30.3701 54.9399 30.2128 54.6807 30.0226ZM54.6807 32.9897V34.9016C54.6811 34.9105 54.6811 34.9193 54.6807 34.9281C54.6807 35.0262 54.7398 35.1521 54.9332 35.3078C55.1265 35.4636 55.4391 35.6243 55.8338 35.7582C56.623 36.0261 57.7451 36.1998 58.9901 36.1998C60.235 36.1998 61.3571 36.0261 62.1464 35.7582C62.541 35.6243 62.8536 35.4636 63.047 35.3078C63.2404 35.1521 63.2995 35.0262 63.2995 34.9281V34.9105V32.9897C63.0403 33.18 62.7087 33.3373 62.3147 33.471C61.4488 33.765 60.2818 33.9391 58.9901 33.9391C57.6984 33.9391 56.5314 33.765 55.6654 33.471C55.2715 33.3373 54.9399 33.18 54.6807 32.9897Z" fill="#44BB66"/>
<g filter="url(#filter2_d)">
<path d="M59.116 57.9857C63.4699 57.9857 66.9995 54.4594 66.9995 50.1094C66.9995 45.7594 63.4699 42.233 59.116 42.233C54.762 42.233 51.2324 45.7594 51.2324 50.1094C51.2324 54.4594 54.762 57.9857 59.116 57.9857Z" fill="white"/>
</g>
<path d="M58.2406 46.5195C57.9948 46.2841 57.7695 46.0829 57.575 45.9191C58.8294 45.4835 60.2148 45.6503 61.3299 46.3711C60.6609 46.3867 59.9973 46.4958 59.3586 46.6952C59.2369 46.5195 59.0485 46.4013 58.8372 46.3681C58.626 46.3349 58.4104 46.3896 58.2406 46.5195ZM57.1363 49.5899C57.6831 50.1129 58.3227 50.5295 59.0223 50.818C59.5213 51.019 60.049 51.1393 60.5858 51.1745C60.6177 51.0124 60.7009 50.8647 60.823 50.7532C60.3674 49.7122 59.7663 48.7411 59.0377 47.8688C58.7216 48.0133 58.348 47.9304 58.1228 47.6658C57.9593 47.7763 57.8026 47.8965 57.6535 48.0257C57.4302 48.2217 57.2246 48.4369 57.039 48.6688C57.2713 48.9194 57.3109 49.2928 57.1363 49.5865V49.5899ZM61.7737 46.7055C61.0004 46.6833 60.2286 46.7864 59.4883 47.0108C59.5347 47.2479 59.4656 47.4929 59.3022 47.6709C60.0369 48.553 60.6453 49.533 61.1097 50.5826C61.1886 50.5574 61.271 50.5448 61.3538 50.5451C61.5482 50.5449 61.7357 50.6173 61.8795 50.7481C62.3369 50.4744 62.8112 50.23 63.2996 50.0163C63.2996 50.0163 63.2996 50.0044 63.2996 49.9976C63.3042 48.7269 62.7462 47.5192 61.7754 46.6986L61.7737 46.7055ZM60.823 51.9114C59.7136 52.8513 59.2152 53.7656 59.0018 54.2995C59.9289 54.3002 60.8313 54.001 61.574 53.4466C61.5138 52.9975 61.4231 52.553 61.3026 52.1161C61.1239 52.1031 60.9552 52.029 60.8247 51.9063L60.823 51.9114ZM60.6984 51.6283C60.6763 51.5854 60.6518 51.5438 60.625 51.5038C60.0393 51.4671 59.4632 51.3375 58.9182 51.12C58.1792 50.8174 57.5023 50.3814 56.9213 49.8338C56.7313 49.9704 56.4891 50.0125 56.2641 49.9481C55.8856 50.7956 55.6536 51.7011 55.578 52.6261C56.3349 53.5892 57.461 54.1912 58.6827 54.2858C58.8892 53.7127 59.333 52.6807 60.6984 51.6283ZM62.1014 51.0705C62.1301 51.1527 62.1445 51.2393 62.1441 51.3264C62.1441 51.3519 62.1441 51.3758 62.1441 51.4014C62.1143 51.7018 61.9155 51.9589 61.632 52.0632C61.7334 52.436 61.8137 52.8141 61.8727 53.1959C62.6814 52.47 63.1851 51.465 63.2825 50.3831C62.8704 50.5707 62.4692 50.7814 62.0809 51.0142C62.0887 51.0326 62.0955 51.0514 62.1014 51.0705ZM55.6668 49.1942C55.6672 49.0005 55.7396 48.8139 55.8699 48.6705C55.6603 48.3869 55.4665 48.0919 55.2896 47.7869C54.4777 49.1472 54.4777 50.8428 55.2896 52.2031C55.3883 51.3716 55.6134 50.56 55.9569 49.7963C55.7732 49.6475 55.6666 49.4237 55.6668 49.1873V49.1942ZM56.143 48.4709C56.3417 48.3849 56.5672 48.3849 56.7659 48.4709C56.9676 48.2199 57.1909 47.987 57.4333 47.775C57.6004 47.6293 57.7766 47.4943 57.9607 47.3707C57.8969 47.1722 57.9199 46.9561 58.0239 46.7754C57.7183 46.4803 57.4435 46.2432 57.2234 46.0624C56.5346 46.3728 55.9391 46.8579 55.4961 47.4696C55.691 47.8114 55.907 48.1407 56.143 48.4556V48.4709Z" fill="#A048F8"/>
<defs>
<filter id="filter0_d" x="47.2324" y="2.0332" width="23.7671" height="23.7527" filterUnits="userSpaceOnUse" color-interpolation-filters="sRGB">
<feFlood flood-opacity="0" result="BackgroundImageFix"/>
<feColorMatrix in="SourceAlpha" type="matrix" values="0 0 0 0 0 0 0 0 0 0 0 0 0 0 0 0 0 0 127 0"/>
<feOffset/>
<feGaussianBlur stdDeviation="2"/>
<feColorMatrix type="matrix" values="0 0 0 0 0 0 0 0 0 0 0 0 0 0 0 0 0 0 0.16 0"/>
<feBlend mode="normal" in2="BackgroundImageFix" result="effect1_dropShadow"/>
<feBlend mode="normal" in="SourceGraphic" in2="effect1_dropShadow" result="shape"/>
</filter>
<filter id="filter1_d" x="47.2324" y="20.1331" width="23.7671" height="23.7527" filterUnits="userSpaceOnUse" color-interpolation-filters="sRGB">
<feFlood flood-opacity="0" result="BackgroundImageFix"/>
<feColorMatrix in="SourceAlpha" type="matrix" values="0 0 0 0 0 0 0 0 0 0 0 0 0 0 0 0 0 0 127 0"/>
<feOffset/>
<feGaussianBlur stdDeviation="2"/>
<feColorMatrix type="matrix" values="0 0 0 0 0 0 0 0 0 0 0 0 0 0 0 0 0 0 0.16 0"/>
<feBlend mode="normal" in2="BackgroundImageFix" result="effect1_dropShadow"/>
<feBlend mode="normal" in="SourceGraphic" in2="effect1_dropShadow" result="shape"/>
</filter>
<filter id="filter2_d" x="47.2324" y="38.233" width="23.7671" height="23.7527" filterUnits="userSpaceOnUse" color-interpolation-filters="sRGB">
<feFlood flood-opacity="0" result="BackgroundImageFix"/>
<feColorMatrix in="SourceAlpha" type="matrix" values="0 0 0 0 0 0 0 0 0 0 0 0 0 0 0 0 0 0 127 0"/>
<feOffset/>
<feGaussianBlur stdDeviation="2"/>
<feColorMatrix type="matrix" values="0 0 0 0 0 0 0 0 0 0 0 0 0 0 0 0 0 0 0.16 0"/>
<feBlend mode="normal" in2="BackgroundImageFix" result="effect1_dropShadow"/>
<feBlend mode="normal" in="SourceGraphic" in2="effect1_dropShadow" result="shape"/>
</filter>
</defs>
</svg>
