<svg width="35" height="35" viewBox="0 0 35 35" fill="none" xmlns="http://www.w3.org/2000/svg">
<path d="M18.2229 0.649511L18.2229 0.649578L18.2307 0.653395L30.4277 6.60716C30.9208 6.87803 31.2966 7.30332 31.455 7.80306L34.4861 21.1023C34.5457 21.6689 34.4131 22.2241 34.0982 22.6797L25.6628 33.3199L25.6555 33.3291L25.6487 33.3386C25.3041 33.8177 24.7942 34.0502 24.2698 33.9908L24.2418 33.9876H24.2135H10.7813C10.245 33.9516 9.6937 33.6919 9.29897 33.2983L0.88075 22.6797C0.563261 22.2204 0.436983 21.669 0.52974 21.1157L3.528 7.70378C3.52812 7.70325 3.52824 7.70272 3.52837 7.70219C3.65436 7.15821 3.99385 6.75284 4.45637 6.53274L4.45639 6.53277L4.46206 6.52998L16.6193 0.555005C16.8577 0.502439 17.1368 0.5 17.4495 0.5C17.735 0.5 18.0041 0.537922 18.2229 0.649511Z" fill="#326DE6" stroke="white"/>
<path fill-rule="evenodd" clip-rule="evenodd" d="M17.0823 15.2154C16.9748 15.3225 16.8321 15.381 16.6806 15.381C16.5278 15.381 16.3843 15.3214 16.2762 15.2127C16.1455 15.0813 16.0787 14.9351 16.0787 14.7765C16.0787 14.6243 16.1369 14.481 16.2435 14.373L11.457 9.56411C11.2202 9.32624 10.9052 9.19509 10.5701 9.19509C10.2366 9.19509 9.92324 9.32482 9.68692 9.5602L8.09379 11.0532C7.85469 11.2914 7.72314 11.6088 7.72314 11.9469C7.72314 12.2832 7.85398 12.5994 8.09128 12.8378L12.878 17.6465C12.9855 17.5394 13.1281 17.4809 13.2797 17.4809C13.4323 17.4809 13.5758 17.5406 13.6838 17.6492C13.8146 17.7806 13.8814 17.9269 13.8814 18.0856C13.8814 18.2378 13.8232 18.3811 13.7166 18.4891L14.5421 19.3187L15.6189 18.2369C15.6193 18.2365 15.6986 18.1835 15.7752 18.1278C15.8904 18.044 16.003 17.9576 16.0034 17.9571L16.8208 17.137L17.9078 16.045L17.0823 15.2154Z" fill="white"/>
<path fill-rule="evenodd" clip-rule="evenodd" d="M14.5426 19.7428L15.8104 18.4692C15.8181 18.464 15.8274 18.4576 15.8378 18.4504C15.8684 18.4294 15.9096 18.4006 15.9508 18.3707C16.0104 18.3274 16.0688 18.2837 16.1122 18.2509C16.134 18.2345 16.1522 18.2207 16.165 18.2109L16.1802 18.1992L16.1848 18.1956L16.187 18.194L16.1892 18.1922L16.1924 18.1896C16.1932 18.189 16.1948 18.1877 16.1969 18.1859L16.202 18.1814C16.2044 18.1793 16.2108 18.1733 16.215 18.1692L18.3304 16.0451L17.0839 14.7923L16.8728 15.0025C16.8216 15.0534 16.7547 15.0812 16.6812 15.0812C16.6075 15.0812 16.54 15.0531 16.488 15.0008C16.4021 14.9145 16.3778 14.841 16.3778 14.7765C16.3778 14.7027 16.4054 14.6354 16.4561 14.584L16.6652 14.372L11.6686 9.35212C11.3759 9.05803 10.985 8.89526 10.5707 8.89526C10.1601 8.89526 9.77262 9.05499 9.48078 9.34392L7.88748 10.8371L7.88425 10.8403C7.5886 11.1348 7.42529 11.5289 7.42529 11.9469C7.42529 12.363 7.58783 12.7554 7.88084 13.0498L12.8777 18.0696L13.0887 17.8595C13.1399 17.8085 13.2068 17.7808 13.2803 17.7808C13.3538 17.7808 13.4213 17.8088 13.4733 17.8611C13.5591 17.9474 13.5835 18.0209 13.5835 18.0856C13.5835 18.1595 13.5559 18.2267 13.5052 18.2781L13.2962 18.49L14.5426 19.7428ZM14.5427 18.8947L14.1013 18.451C14.1532 18.3376 14.1804 18.2133 14.1804 18.0856C14.1804 17.833 14.0712 17.6138 13.8955 17.4372C13.7314 17.2723 13.5119 17.1811 13.2803 17.1811C13.1532 17.1811 13.0295 17.2085 12.9166 17.2606L8.30295 12.6258C8.12135 12.4434 8.02222 12.2033 8.02222 11.9469C8.02222 11.6901 8.12092 11.4506 8.30154 11.2691L9.89445 9.77632L9.89768 9.77311C10.0781 9.59341 10.3159 9.49491 10.5707 9.49491C10.8266 9.49491 11.0657 9.59446 11.2465 9.77611L15.86 14.4111C15.8081 14.5246 15.7808 14.6488 15.7808 14.7765C15.7808 15.029 15.8901 15.2482 16.0657 15.4246M14.5427 18.8947L15.4085 18.0249C15.4209 18.0125 15.432 18.0036 15.4334 18.0026C15.4368 17.9999 15.4396 17.9977 15.4409 17.9968C15.4436 17.9947 15.4457 17.9932 15.4465 17.9927L15.4502 17.9901L15.4528 17.9883L15.4662 17.9792C15.4745 17.9735 15.4863 17.9655 15.5004 17.9558C15.5287 17.9363 15.5654 17.9107 15.6008 17.8849C15.6565 17.8445 15.7119 17.803 15.7537 17.7715C15.7745 17.7558 15.7917 17.7427 15.8037 17.7335L15.8071 17.731L17.4863 16.045L17.0449 15.6013C16.932 15.6535 16.8083 15.6808 16.6812 15.6808C16.4495 15.6808 16.2298 15.5896 16.0657 15.4246" fill="#326DE6"/>
<path fill-rule="evenodd" clip-rule="evenodd" d="M24.1884 23.4669L23.3067 23.529L17.1452 17.482L16.0215 18.7527L21.9472 24.7036L21.9739 25.8098L24.4051 27.165L25.535 25.9045L24.1884 23.4669Z" fill="white"/>
<path fill-rule="evenodd" clip-rule="evenodd" d="M24.4673 27.543L25.8987 25.9461L24.3566 23.1545L23.4188 23.2205L17.1293 17.0478L15.6108 18.7649L21.6511 24.8308L21.679 25.9886L24.4673 27.543ZM22.2675 25.6309L22.242 24.5763L16.4309 18.7405L17.1599 17.9162L23.1933 23.8375L24.0191 23.7793L25.17 25.8628L24.3416 26.7871L22.2675 25.6309Z" fill="#326DE6"/>
<path d="M13.2067 15.7194C13.0889 15.8377 12.8982 15.8377 12.7804 15.7194L9.19185 12.1144C9.07407 11.9963 9.07407 11.8043 9.19185 11.6861C9.25074 11.627 9.32791 11.5975 9.40509 11.5975C9.48227 11.5975 9.55945 11.627 9.61834 11.6861L13.2067 15.2911C13.3245 15.4094 13.3245 15.6012 13.2067 15.7194Z" fill="#326DE6"/>
<path d="M13.8791 14.6156L10.2905 11.0106C10.1727 10.8925 10.1727 10.7005 10.2905 10.5824C10.3494 10.5232 10.4265 10.4937 10.5037 10.4937C10.5809 10.4937 10.6581 10.5232 10.717 10.5824L14.3054 14.1873C14.4231 14.3055 14.4231 14.4975 14.3054 14.6156C14.1876 14.7339 13.9968 14.7339 13.8791 14.6156Z" fill="#326DE6"/>
<path fill-rule="evenodd" clip-rule="evenodd" d="M25.8293 17.4726C25.1052 18.2 24.3223 17.256 24.3223 17.256L23.4987 16.4329C23.6199 16.066 23.6618 15.7802 23.6391 15.5583C23.6223 15.3932 23.5686 15.2706 23.4848 15.1858C23.3687 15.0682 23.2063 15.0234 23.0524 15.0069C22.9241 14.9931 22.798 15.0007 22.6937 15.0174C22.6704 15.0211 22.5935 14.9804 22.5867 14.991L22.3894 15.2985L22.128 15.0439C21.1885 14.129 20.7417 13.6512 20.7417 13.6512C20.5674 13.4573 20.2858 13.086 20.347 12.6669C20.3804 12.4376 20.3156 11.3146 19.5909 10.6282C19.184 10.2429 18.5637 10.0109 17.6445 10.1318C16.8024 10.1506 16.6796 9.77581 16.6655 9.71834L16.2923 9.08313C16.2634 9.041 16.1912 8.91798 16.1913 8.7409C16.1914 8.64494 16.2123 8.53089 16.2822 8.4065C16.3592 8.26943 16.5052 8.10622 16.7972 7.94854C20.7512 5.72538 23.6699 8.98483 23.8564 9.20017C23.9679 9.31225 25.2446 10.595 25.8958 11.254C25.9324 11.291 25.971 11.3301 26.0111 11.3708C25.9987 11.4205 25.9872 11.472 25.9764 11.5252C25.8802 11.9985 25.8884 12.3741 26.098 12.5843C26.3011 12.788 26.6631 12.8002 27.141 12.6966C27.1955 12.6848 27.2479 12.6723 27.2983 12.6589C27.336 12.6977 27.3749 12.7373 27.4151 12.7777C27.5308 12.8939 27.6404 12.9996 27.742 13.0974C28.2066 13.5451 28.4877 13.8682 28.5265 14.2109C28.561 14.5162 28.4355 14.8654 27.9526 15.3505C27.4112 15.8944 26.9655 16.3386 26.5846 16.7181C26.3011 17.0007 26.0536 17.2473 25.8293 17.4726Z" fill="white"/>
<path fill-rule="evenodd" clip-rule="evenodd" d="M21.6171 7.93328C20.4395 7.40089 18.8228 7.15318 16.943 8.21012L16.9408 8.21137L16.9385 8.21257C16.6876 8.3481 16.5869 8.47416 16.5421 8.55389C16.4998 8.62904 16.4898 8.69151 16.4898 8.74107C16.4897 8.83578 16.529 8.89964 16.5381 8.91295L16.544 8.92162L16.9449 9.6039L16.9542 9.64201C16.9581 9.65038 16.9737 9.678 17.0177 9.70942C17.0867 9.75883 17.2547 9.83825 17.6224 9.83228C18.6048 9.70692 19.3147 9.95451 19.7956 10.41C20.2128 10.8051 20.4311 11.3159 20.542 11.7432C20.6513 12.1641 20.6665 12.5443 20.6423 12.7103C20.6234 12.8399 20.6556 12.9742 20.7228 13.1091C20.7897 13.2431 20.8829 13.3606 20.9612 13.4479L20.9639 13.4508L20.9791 13.4669C20.9928 13.4813 21.0135 13.5031 21.0414 13.5322C21.0971 13.5905 21.1815 13.678 21.2953 13.7941C21.5228 14.0262 21.8677 14.3727 22.3358 14.8286C22.3858 14.7506 22.4565 14.7165 22.5026 14.7025C22.5464 14.6893 22.5833 14.689 22.6019 14.6896C22.6391 14.6908 22.6689 14.6986 22.6793 14.7013C22.6914 14.7045 22.7036 14.7085 22.7138 14.7119C22.8252 14.6987 22.9526 14.6946 23.0841 14.7087C23.2638 14.728 23.5089 14.7845 23.6967 14.9746C23.8403 15.1201 23.9142 15.3133 23.9361 15.5277C23.9602 15.7645 23.925 16.037 23.8371 16.348L24.5427 17.0533L24.551 17.0632L24.5512 17.0634L24.5513 17.0636L24.5515 17.0639L24.5552 17.0681C24.5592 17.0726 24.5658 17.08 24.5749 17.0897C24.5931 17.1092 24.6208 17.1375 24.6564 17.1699C24.729 17.236 24.8273 17.3129 24.9387 17.3693C25.0503 17.4259 25.1608 17.4549 25.265 17.4467C25.3626 17.439 25.4825 17.3969 25.6183 17.2605C25.8427 17.0351 26.0903 16.7883 26.3733 16.5064L26.3744 16.5052C26.7553 16.1257 27.2006 15.6818 27.7416 15.1384C28.1964 14.6816 28.2495 14.4181 28.2299 14.2447C28.2187 14.1459 28.1708 14.0293 28.0546 13.8726C27.9373 13.7145 27.7665 13.5364 27.5353 13.3137L27.533 13.3114C27.4323 13.2144 27.3213 13.1075 27.204 12.9896C26.9512 13.0445 26.7082 13.0736 26.4902 13.0543C26.2699 13.0348 26.0535 12.9633 25.8871 12.7964C25.7169 12.6257 25.6454 12.4034 25.6253 12.1805C25.6053 11.9596 25.6332 11.7149 25.684 11.4651C25.0332 10.8066 23.757 9.52433 23.6453 9.41212L23.638 9.40476L23.6312 9.39691C23.5503 9.30351 22.8076 8.47152 21.6171 7.93328ZM24.1036 17.4603L23.1573 16.5146L23.2155 16.3385C23.3301 15.9913 23.3588 15.7514 23.3422 15.5888C23.3304 15.473 23.2968 15.4211 23.273 15.397C23.2284 15.3518 23.1487 15.3187 23.0207 15.305C22.9229 15.2945 22.8236 15.3002 22.7407 15.3135C22.7385 15.3138 22.7364 15.3141 22.7342 15.3144L22.4431 15.7683L21.9203 15.2591C21.4489 14.8 21.1006 14.4502 20.8699 14.2147C20.7545 14.097 20.6685 14.0078 20.6111 13.9479C20.5824 13.9179 20.5609 13.8953 20.5464 13.88L20.53 13.8626L20.5258 13.8581L20.5243 13.8565C20.5243 13.8565 20.5242 13.8564 20.7417 13.6511L20.5242 13.8564L20.5222 13.8543L20.5202 13.8521C20.4246 13.7458 20.2909 13.5815 20.1892 13.3778C20.0874 13.1738 20.0094 12.9129 20.0516 12.6233C20.0609 12.56 20.0604 12.2641 19.9644 11.8946C19.8702 11.5315 19.6937 11.1376 19.3861 10.8463C19.056 10.5337 18.5306 10.3176 17.6832 10.429L17.6672 10.4311L17.6511 10.4315C17.1875 10.4419 16.8768 10.3448 16.6714 10.1978C16.4994 10.0748 16.4236 9.93286 16.3911 9.84108L16.0399 9.24327C15.9889 9.16619 15.8927 8.98875 15.8929 8.74064C15.893 8.59828 15.9247 8.43264 16.0223 8.25902C16.1313 8.06506 16.322 7.86515 16.6536 7.68565C18.7269 6.52083 20.5457 6.79129 21.8621 7.38646C23.1403 7.96435 23.9438 8.84578 24.0745 8.99521C24.2241 9.14556 25.4676 10.3949 26.1076 11.0427C26.1443 11.0798 26.1829 11.119 26.2232 11.1599L26.3414 11.2797L26.3007 11.4434C26.2895 11.4885 26.2789 11.5357 26.2688 11.5851C26.2234 11.8087 26.2073 11.9884 26.2198 12.1262C26.232 12.262 26.2695 12.3326 26.3089 12.3721C26.3456 12.4089 26.4118 12.4454 26.5427 12.457C26.676 12.4688 26.853 12.4523 27.0781 12.4035C27.1285 12.3926 27.1765 12.381 27.2221 12.369L27.3902 12.3244L27.5117 12.4493C27.5488 12.4874 27.5869 12.5262 27.6261 12.5656C27.739 12.679 27.8463 12.7824 27.9478 12.8802L27.9486 12.881C28.1821 13.106 28.3841 13.3133 28.5332 13.5143C28.6835 13.7169 28.7954 13.9332 28.823 14.1771C28.8724 14.6141 28.6746 15.0491 28.1637 15.5624C27.6218 16.1068 27.1757 16.5514 26.7948 16.9309L26.7942 16.9315C26.5108 17.2139 26.2639 17.46 26.0404 17.6845C25.8141 17.9119 25.5645 18.0246 25.3117 18.0445C25.0655 18.0639 24.8444 17.9932 24.6698 17.9047C24.495 17.8161 24.3524 17.7024 24.2555 17.6142C24.2064 17.5695 24.1673 17.5297 24.1399 17.5004C24.1261 17.4857 24.1152 17.4735 24.1074 17.4646C24.106 17.463 24.1048 17.4616 24.1036 17.4603Z" fill="#326DE6"/>
<path fill-rule="evenodd" clip-rule="evenodd" d="M21.7072 15.9851C21.7072 15.9851 13.6595 24.8338 12.1444 26.5333C11.6571 27.0234 11.1367 27.228 10.6481 27.2463C10.075 27.2678 9.5386 27.0306 9.15104 26.6413C8.76281 26.2513 8.52589 25.7106 8.54605 25.1338C8.56327 24.6411 8.76621 24.1172 9.24112 23.6401C11.3372 21.5345 19.7015 13.9673 19.7015 13.9673C19.7015 13.9673 19.7757 13.9001 19.9121 13.7769L21.8996 15.7735C21.7751 15.9105 21.7072 15.9851 21.7072 15.9851Z" fill="white"/>
<path fill-rule="evenodd" clip-rule="evenodd" d="M19.923 13.3639L22.3124 15.7643L21.9276 16.1874L21.7072 15.9852C21.9276 16.1874 21.9277 16.1873 21.9276 16.1874L21.9272 16.1878L21.5788 16.5709C21.3558 16.8162 21.0355 17.1685 20.6465 17.5965C19.8684 18.4526 18.8151 19.6118 17.7145 20.824C15.5126 23.2492 13.1231 25.8849 12.3667 26.7333L12.3613 26.7394L12.3556 26.7452C11.8192 27.2847 11.2289 27.5246 10.6593 27.546C9.99588 27.5709 9.38092 27.2963 8.93999 26.8534C8.49836 26.4097 8.22446 25.7903 8.24777 25.1233C8.26779 24.5505 8.50488 23.9557 9.03007 23.4281C10.0841 22.3693 12.7053 19.9456 15.0563 17.7926C16.2332 16.7147 17.3445 15.7028 18.1616 14.9603C18.5702 14.589 18.9052 14.2851 19.1381 14.074C19.2545 13.9684 19.3454 13.8861 19.4072 13.8301L19.5017 13.7446C19.5017 13.7446 19.5018 13.7445 19.7015 13.9673L19.5017 13.7446L19.923 13.3639ZM21.4883 15.7844L19.9002 14.189C19.9012 14.1902 19.9012 14.1902 19.9012 14.1902L19.8069 14.2755C19.7452 14.3314 19.6543 14.4137 19.538 14.5192C19.3052 14.7301 18.9704 15.0339 18.5621 15.405C17.7453 16.1471 16.6346 17.1585 15.4584 18.2357C13.1032 20.3927 10.4942 22.8054 9.45216 23.8522C9.02755 24.2787 8.85875 24.7318 8.84433 25.1443C8.82732 25.631 9.02727 26.093 9.36209 26.4294C9.69627 26.7651 10.154 26.9649 10.637 26.9468C11.0427 26.9316 11.4912 26.7637 11.9276 26.3271C12.6923 25.4695 15.078 22.838 17.2734 20.4199C18.3741 19.2076 19.4275 18.0483 20.2057 17.1922C20.5947 16.7641 20.915 16.4118 21.1381 16.1665L21.4868 15.7831C21.4868 15.783 21.4868 15.783 21.4883 15.7844Z" fill="#326DE6"/>
</svg>
