<svg width="50" height="50" viewBox="0 0 50 50" fill="none" xmlns="http://www.w3.org/2000/svg">
<circle cx="25" cy="24.9999" r="25" fill="#44BB66"/>
<path d="M34.9702 31.1258H35.4751L35.4702 30.621L35.4652 30.105L35.4648 30.0575L35.4554 30.011L32.7318 16.5051C32.6729 16.2128 32.5146 15.9612 32.2972 15.7832C32.0797 15.6053 31.8018 15.4999 31.5036 15.4999H18.4705C18.1723 15.4999 17.8944 15.6053 17.677 15.7832C17.4595 15.9612 17.3013 16.2128 17.2424 16.5051L14.5573 29.8202L14.5504 29.854L14.5483 29.8883L14.5048 30.5951L14.4722 31.1258H15.0039H34.9702Z" fill="white" stroke="#44BB66"/>
<path d="M34.247 34.7866H34.2471C34.593 34.7866 34.9069 34.6458 35.133 34.4197C35.3592 34.1935 35.5 33.8796 35.5 33.5337L35.5 33.5308L35.4798 30.0906H34.9798L35.4798 30.0877L35.4798 30.089C35.4794 29.8824 35.3948 29.6946 35.2598 29.5596C35.1245 29.4242 34.9361 29.3396 34.7288 29.3396L15.0735 29.3396L14.8664 29.3396L14.72 29.486C14.5846 29.6214 14.5 29.8098 14.5 30.0171V33.5305C14.5 33.8763 14.6408 34.1902 14.867 34.4164C15.0931 34.6426 15.407 34.7833 15.7528 34.7834C15.7528 34.7834 15.7528 34.7834 15.7529 34.7834L34.247 34.7866Z" fill="white" stroke="#44BB66"/>
<path d="M17.7444 32.9748C18.1769 32.9748 18.5274 32.6242 18.5274 32.1918C18.5274 31.7594 18.1769 31.4088 17.7444 31.4088C17.312 31.4088 16.9614 31.7594 16.9614 32.1918C16.9614 32.6242 17.312 32.9748 17.7444 32.9748Z" fill="#44BB66"/>
</svg>
