<svg width="50" height="50" viewBox="0 0 50 50" fill="none" xmlns="http://www.w3.org/2000/svg">
<circle cx="25" cy="25" r="25" fill="#3F3177"/>
<path fill-rule="evenodd" clip-rule="evenodd" d="M36.9924 26.7226L35.6497 22.2351L32.9816 13.3433C32.9203 13.1386 32.7444 13 32.5458 13C32.3472 13 32.1713 13.1386 32.11 13.3433L29.4436 22.2357H20.5906L17.9242 13.3433C17.8629 13.1386 17.687 13 17.4884 13C17.2898 13 17.1139 13.1386 17.0526 13.3433L14.3873 22.2357L13.0446 26.7232C12.9226 27.133 13.0581 27.5814 13.3803 27.8335L25.0171 37L36.6595 27.8329C36.9817 27.5808 37.1172 27.1324 36.9952 26.7226" fill="#FC6D26"/>
<path fill-rule="evenodd" clip-rule="evenodd" d="M25.0168 36.9999L29.4433 22.2356H20.5903L25.0168 36.9999Z" fill="#E24329"/>
<path fill-rule="evenodd" clip-rule="evenodd" d="M25.017 36.9999L20.5905 22.2356H14.3872L25.017 36.9999Z" fill="#FC6D26"/>
<path fill-rule="evenodd" clip-rule="evenodd" d="M14.3871 22.2356L13.0444 26.723C12.9222 27.1329 13.0578 27.5814 13.3801 27.8334L25.017 36.9993L14.3871 22.2356Z" fill="#FCA326"/>
<path fill-rule="evenodd" clip-rule="evenodd" d="M14.3872 22.2357H20.5905L17.9241 13.3433C17.8628 13.1386 17.6869 13 17.4883 13C17.2898 13 17.1138 13.1386 17.0525 13.3433L14.3872 22.2357Z" fill="#E24329"/>
<path fill-rule="evenodd" clip-rule="evenodd" d="M25.0168 36.9999L29.4433 22.2356H35.6467L25.0168 36.9999Z" fill="#FC6D26"/>
<path fill-rule="evenodd" clip-rule="evenodd" d="M35.6467 22.2356L36.9894 26.723C37.1116 27.1329 36.976 27.5814 36.6537 27.8334L25.0168 36.9993L35.6467 22.2356Z" fill="#FCA326"/>
<path fill-rule="evenodd" clip-rule="evenodd" d="M35.6467 22.2357H29.4434L32.1098 13.3433C32.1711 13.1386 32.347 13 32.5456 13C32.7441 13 32.9201 13.1386 32.9814 13.3433L35.6467 22.2357Z" fill="#E24329"/>
</svg>
