<svg width="50" height="50" viewBox="0 0 50 50" fill="none" xmlns="http://www.w3.org/2000/svg">
<circle cx="25" cy="25" r="25" fill="#326DE6"/>
<path fill-rule="evenodd" clip-rule="evenodd" d="M38.985 28.0975C38.9417 28.0975 38.8984 28.0975 38.8984 28.0542C38.8984 28.011 38.8118 28.011 38.7252 28.011C38.5521 27.9677 38.3789 27.9677 38.2057 27.9677C38.1191 27.9677 38.0325 27.9677 37.9459 27.9244H37.9026C37.4263 27.8812 36.9067 27.7946 36.4305 27.6649C36.3006 27.6216 36.1707 27.4918 36.1274 27.362L35.781 27.2755C35.9542 26.0208 35.8676 24.7229 35.6078 23.4683C35.3047 22.2136 34.7852 21.0022 34.0924 19.9206L34.3522 19.661V19.6178C34.3522 19.488 34.3955 19.3149 34.4821 19.2284C34.8718 18.8823 35.2614 18.6227 35.6944 18.3631L35.9542 18.2333C36.0408 18.1901 36.1166 18.1468 36.1923 18.1035L36.1924 18.1035C36.2681 18.0603 36.3439 18.017 36.4305 17.9738C36.4521 17.9521 36.4738 17.9413 36.4954 17.9305C36.5171 17.9197 36.5387 17.9089 36.5604 17.8872C36.5871 17.8605 36.5808 17.8503 36.5721 17.8362C36.5667 17.8274 36.5604 17.8172 36.5604 17.8007C36.95 17.4979 37.0366 16.9787 36.7336 16.5893C36.6037 16.4163 36.3439 16.2865 36.1274 16.2865C35.9109 16.2865 35.6944 16.373 35.5212 16.5028L35.4779 16.546C35.4346 16.5893 35.3913 16.6326 35.348 16.6326C35.2181 16.7624 35.0882 16.8922 35.0016 17.0219C34.9715 17.0823 34.9202 17.1216 34.8773 17.1545C34.8586 17.1688 34.8416 17.1819 34.8285 17.195C34.5254 17.5411 34.1357 17.8872 33.746 18.1468C33.6594 18.1901 33.5728 18.2333 33.4862 18.2333C33.4429 18.2333 33.3563 18.2333 33.313 18.1901H33.2697L32.9234 18.4064C32.7502 18.2333 32.5662 18.0603 32.3821 17.8872C32.1981 17.7142 32.0141 17.5411 31.8409 17.3681C30.2389 16.1134 28.2472 15.3347 26.2122 15.1183L26.1689 14.7722V14.8155C26.039 14.729 25.9957 14.5992 25.9524 14.4694C25.9524 13.9935 25.9524 13.5176 26.039 12.9984V12.9551C26.039 12.9119 26.0499 12.8686 26.0607 12.8254L26.0607 12.8254L26.0607 12.8253C26.0715 12.7821 26.0823 12.7388 26.0823 12.6956C26.104 12.609 26.1148 12.5225 26.1256 12.436C26.1364 12.3495 26.1473 12.2629 26.1689 12.1764V11.9168C26.2122 11.4842 25.8658 11.0515 25.4329 11.0083C25.1731 10.965 24.9133 11.0948 24.6968 11.3111C24.5236 11.4842 24.437 11.7005 24.437 11.9168V12.1331C24.437 12.3062 24.4803 12.4792 24.5236 12.6523C24.5669 12.7388 24.5669 12.8254 24.5669 12.9119V12.9551C24.6535 13.431 24.6535 13.907 24.6535 14.4261C24.6102 14.5559 24.5669 14.6857 24.437 14.7722V14.8588L24.3937 15.2049C23.9862 15.2419 23.5787 15.3106 23.144 15.3838L23.144 15.3838L22.9216 15.4212C20.8866 15.8538 19.0248 16.9354 17.596 18.4497L17.3362 18.2766H17.2929C17.275 18.2766 17.257 18.284 17.236 18.2927C17.2063 18.305 17.1704 18.3199 17.1197 18.3199C17.0331 18.3199 16.9465 18.2766 16.8599 18.2333C16.4702 17.9305 16.0806 17.5844 15.7775 17.2383C15.7473 17.1779 15.6961 17.1386 15.6531 17.1057C15.6345 17.0914 15.6174 17.0783 15.6043 17.0652C15.5393 17.0003 15.4852 16.9354 15.4311 16.8705C15.377 16.8056 15.3229 16.7407 15.2579 16.6758C15.2363 16.6542 15.2146 16.6434 15.193 16.6326C15.1713 16.6218 15.1497 16.6109 15.128 16.5893L15.0847 16.546C14.9115 16.4163 14.695 16.3297 14.4786 16.3297C14.2188 16.3297 14.0023 16.4163 13.8724 16.6326C13.6126 17.0219 13.6992 17.5411 14.0456 17.844C14.0889 17.844 14.0889 17.8872 14.0889 17.8872C14.0889 17.8872 14.1755 17.9738 14.2188 17.9738C14.3487 18.0603 14.5219 18.1468 14.695 18.2333L14.9548 18.3631C15.3878 18.6227 15.8208 18.8823 16.1672 19.2284C16.2462 19.3074 16.3253 19.4585 16.3055 19.583L16.2971 19.5745V19.6178C16.3008 19.6065 16.3036 19.5948 16.3055 19.583L16.5568 19.8341C16.5352 19.8774 16.5135 19.9098 16.4919 19.9423L16.4919 19.9423C16.4702 19.9747 16.4486 20.0072 16.427 20.0504C15.0847 22.1703 14.5219 24.6797 14.9115 27.1457L14.5652 27.2322C14.5652 27.2755 14.5219 27.2755 14.5219 27.2755C14.4786 27.4053 14.3487 27.4918 14.2188 27.5783C13.7425 27.7081 13.2662 27.7946 12.7467 27.8379C12.6601 27.8379 12.5735 27.8379 12.4869 27.8812C12.4003 27.8812 12.3137 27.892 12.2271 27.9028C12.1405 27.9136 12.0539 27.9244 11.9673 27.9244C11.9494 27.9244 11.9314 27.9319 11.9104 27.9406C11.8807 27.9529 11.8448 27.9677 11.7941 27.9677C11.7757 27.9677 11.7651 27.9677 11.7557 27.971C11.743 27.9755 11.7324 27.9861 11.7075 28.011C11.2312 28.0975 10.9281 28.5301 11.0147 29.006C11.1013 29.3954 11.491 29.655 11.8807 29.6117C11.9673 29.6117 12.0106 29.6117 12.0972 29.5685C12.1188 29.5685 12.1297 29.5685 12.1351 29.5631C12.1405 29.5576 12.1405 29.5468 12.1405 29.5252C12.1405 29.495 12.2036 29.5069 12.2565 29.5169C12.2795 29.5212 12.3006 29.5252 12.3137 29.5252C12.4224 29.498 12.5311 29.4538 12.6291 29.414L12.6292 29.414C12.6873 29.3903 12.7416 29.3682 12.7899 29.3521C12.8765 29.3089 12.9631 29.2656 13.0497 29.2656H13.093C13.5693 29.0926 14.0023 28.9628 14.5219 28.8762H14.5652C14.695 28.8762 14.8249 28.9195 14.9115 29.006C14.9548 29.006 14.9548 29.0493 14.9548 29.0493L15.3445 29.006C15.994 30.9962 17.2063 32.77 18.8949 34.0679C19.2846 34.3708 19.631 34.6303 20.064 34.8467L19.8475 35.1495C19.8475 35.1928 19.8908 35.1928 19.8908 35.1928C19.9774 35.3226 19.9774 35.4956 19.9341 35.6254C19.7609 36.058 19.5011 36.4907 19.2413 36.8801V36.9233C19.198 37.0098 19.1547 37.0531 19.0681 37.1396C19.0195 37.1882 18.9709 37.2641 18.9146 37.3519C18.8706 37.4205 18.822 37.4964 18.765 37.5723C18.7434 37.5939 18.7326 37.6155 18.7217 37.6372C18.7109 37.6588 18.7001 37.6804 18.6784 37.7021C18.6784 37.7021 18.6784 37.7453 18.6351 37.7453C18.4186 38.178 18.5918 38.6971 18.9815 38.9135C19.0681 38.9567 19.198 39 19.2846 39C19.631 39 19.9341 38.7837 20.1073 38.4808C20.1073 38.4808 20.1073 38.4376 20.1505 38.4376C20.1505 38.3943 20.1938 38.351 20.2371 38.3078C20.2588 38.2212 20.2913 38.1455 20.3237 38.0698C20.3562 37.9941 20.3887 37.9184 20.4103 37.8319L20.4969 37.5723C20.6268 37.0964 20.8433 36.6638 21.0598 36.2311L21.0598 36.2311C21.1464 36.1013 21.2763 36.0148 21.4062 35.9715C21.4495 35.9715 21.4495 35.9715 21.4495 35.9283L21.6227 35.5821C22.835 36.058 24.0906 36.2744 25.3896 36.2744C26.1689 36.2744 26.9483 36.1878 27.7276 35.9715C28.0827 35.907 28.4378 35.7944 28.7749 35.6875C28.89 35.651 29.003 35.6152 29.1132 35.5821L29.2864 35.885C29.308 35.885 29.3188 35.885 29.3242 35.8904C29.3297 35.8958 29.3297 35.9066 29.3297 35.9283C29.4595 35.9715 29.5894 36.058 29.676 36.1878C29.8925 36.6205 30.109 37.0531 30.2389 37.529V37.5723L30.3255 37.8319C30.3688 38.0049 30.4121 38.178 30.4987 38.3078C30.5203 38.3294 30.5312 38.351 30.542 38.3727C30.5528 38.3943 30.5636 38.4159 30.5853 38.4376C30.5853 38.4376 30.5853 38.4808 30.6286 38.4808C30.8018 38.7837 31.1049 39 31.4512 39C31.554 39 31.6297 38.9729 31.7212 38.9402L31.7529 38.9289C31.7673 38.9238 31.7821 38.9186 31.7976 38.9135C31.9708 38.8269 32.144 38.6539 32.1873 38.4376C32.2306 38.2212 32.2306 38.0049 32.144 37.7886C32.144 37.7453 32.1007 37.7453 32.1007 37.7453C32.1007 37.7021 32.0574 37.6588 32.0141 37.6155C31.9275 37.4425 31.8409 37.3127 31.711 37.1829C31.6677 37.0964 31.6244 37.0531 31.5379 36.9666L31.5378 36.9666V36.8801C31.2347 36.4907 31.0183 36.058 30.8451 35.6254C30.8018 35.4956 30.8018 35.3226 30.8884 35.1928C30.8884 35.1495 30.9317 35.1495 30.9317 35.1495L30.8018 34.8034C33.01 33.4622 34.6986 31.3855 35.4779 28.9195L35.8243 28.9628C35.8676 28.9628 35.8676 28.9195 35.8676 28.9195C35.9542 28.833 36.0841 28.7897 36.214 28.7897H36.2573C36.7336 28.8762 37.2098 29.006 37.6428 29.1791H37.6861C37.7727 29.2224 37.8593 29.2656 37.9459 29.2656C37.9906 29.288 38.0325 29.3103 38.0729 29.3319C38.1891 29.394 38.2937 29.4499 38.4222 29.4819C38.4401 29.4819 38.458 29.4894 38.479 29.4981C38.5088 29.5104 38.5446 29.5252 38.5954 29.5252C38.6138 29.5252 38.6243 29.5252 38.6337 29.5285C38.6465 29.533 38.6571 29.5436 38.6819 29.5685C38.7685 29.6117 38.8118 29.6117 38.8984 29.6117C39.2881 29.6117 39.6345 29.3521 39.7644 29.006C39.7211 28.5301 39.3747 28.184 38.985 28.0975ZM26.472 26.7563L25.3029 27.3188L24.1339 26.7563L23.8308 25.5017L24.6535 24.4634H25.9524L26.775 25.5017L26.472 26.7563ZM33.7027 26.6698C33.7893 25.7613 33.746 24.8527 33.5295 23.9442C33.313 23.0356 32.9667 22.1704 32.4904 21.3916L29.2431 24.3336C29.1565 24.4201 29.1132 24.5066 29.0699 24.6364C28.9833 25.0258 29.1998 25.4152 29.5895 25.5017L33.7027 26.6698ZM31.1915 19.7909L27.6411 22.3002C27.338 22.4732 26.905 22.43 26.6885 22.1271C26.6019 22.0406 26.5586 21.9541 26.5586 21.8243L26.2988 17.4546C28.2039 17.6709 29.8925 18.493 31.1915 19.7909ZM24.2206 17.4113L23.3546 17.5844C21.8392 17.9305 20.4537 18.7092 19.3279 19.7908L22.9216 22.3434C22.9488 22.3524 22.974 22.3615 22.9981 22.3701C23.0896 22.4029 23.1652 22.4299 23.268 22.4299C23.6577 22.4299 24.0041 22.1271 24.0041 21.7377L24.2206 17.4113ZM18.0723 21.3916L21.2763 24.247C21.5794 24.5066 21.6227 24.9393 21.3629 25.2421C21.2763 25.3719 21.1897 25.4152 21.0165 25.4584L16.8166 26.6698C16.6867 24.8527 17.1197 22.9924 18.0723 21.3916ZM21.6226 27.9677L17.3362 28.7032C17.9423 30.4337 19.1547 31.9479 20.6701 32.943L22.3154 28.9627C22.402 28.8329 22.402 28.6599 22.3587 28.5301C22.3154 28.184 21.969 27.9677 21.6226 27.9677ZM27.1647 34.0679C26.5585 34.1977 25.9524 34.2842 25.3029 34.2842C24.3936 34.2842 23.4411 34.1111 22.5751 33.8516L24.6967 30.0011C24.9132 29.7415 25.2596 29.655 25.5627 29.828C25.6926 29.9145 25.7792 30.0011 25.9091 30.1309L27.9873 33.8948L27.9873 33.8948C27.7275 33.9381 27.4678 33.9814 27.1647 34.0679ZM29.8492 32.8998C30.8884 32.2508 31.7976 31.3423 32.4471 30.3039C32.7935 29.828 33.0533 29.2656 33.2697 28.6599L28.94 27.9244C28.8101 27.9244 28.6802 27.9677 28.5503 28.011C28.2472 28.1408 28.074 28.4869 28.1606 28.833L29.8492 32.8998Z" fill="white"/>
</svg>
