<svg width="56" height="56" viewBox="0 0 56 56" fill="none" xmlns="http://www.w3.org/2000/svg">
<g filter="url(#filter0_d)">
<circle cx="28" cy="28" r="25" fill="white"/>
</g>
<path fill-rule="evenodd" clip-rule="evenodd" d="M34.2909 17.3366C34.1311 17.3366 34.0185 17.3558 33.9048 17.3836V17.4024H33.9231C33.9991 17.5518 34.1311 17.6556 34.2245 17.7864C34.3003 17.9362 34.3663 18.0856 34.4415 18.2352C34.4508 18.2262 34.4599 18.2164 34.4599 18.2164C34.5926 18.1232 34.6584 17.9734 34.6584 17.7484C34.6015 17.6826 34.5926 17.6176 34.5452 17.5518C34.4888 17.4584 34.3663 17.4116 34.2909 17.3366Z" fill="#5B7F93"/>
<path fill-rule="evenodd" clip-rule="evenodd" d="M19.3105 35.8136H18.006C17.9602 33.625 17.833 31.567 17.6252 29.6392H17.6137L15.6279 35.8136H14.6346L12.6608 29.6392H12.6491C12.5029 31.4906 12.4107 33.5486 12.3723 35.8136H11.1831C11.26 33.059 11.4523 30.4768 11.7601 28.0664H13.3766L15.2585 33.7588H15.2701L17.1635 28.0664H18.7102C19.049 30.8894 19.249 33.4724 19.3105 35.8136Z" fill="#196D80"/>
<path fill-rule="evenodd" clip-rule="evenodd" d="M24.9675 30.0978C24.4364 32.9628 23.7359 35.0448 22.8661 36.3436C22.1886 37.3444 21.4464 37.8448 20.638 37.8448C20.4226 37.8448 20.157 37.7802 19.8416 37.652V36.9614C19.9957 36.9838 20.1763 36.9958 20.3843 36.9958C20.7614 36.9958 21.0651 36.8922 21.2965 36.6854C21.5733 36.4334 21.7118 36.1502 21.7118 35.8364C21.7118 35.622 21.6037 35.1822 21.3887 34.5168L19.957 30.0978H21.2386L22.2658 33.4028C22.4968 34.1532 22.5929 34.677 22.5545 34.9756C23.1164 33.4836 23.5089 31.8576 23.7322 30.0978H24.9675Z" fill="#196D80"/>
<path fill-rule="evenodd" clip-rule="evenodd" d="M42.3304 35.8136H38.6248V28.0664H39.8717V34.8606H42.3304V35.8136Z" fill="#E6892E"/>
<path fill-rule="evenodd" clip-rule="evenodd" d="M33.0141 34.2638C32.6984 33.7588 32.5403 32.9484 32.5403 31.831C32.5403 29.8802 33.137 28.9042 34.3298 28.9042C34.9535 28.9042 35.4112 29.1376 35.7039 29.604C36.0192 30.1092 36.1773 30.9126 36.1773 32.0144C36.1773 33.9808 35.5806 34.9644 34.3878 34.9644C33.7643 34.9644 33.3064 34.7312 33.0141 34.2638ZM37.655 36.0004L36.2226 35.2982C36.3501 35.1942 36.4712 35.082 36.5809 34.9522C37.1891 34.2414 37.4934 33.1894 37.4934 31.7966C37.4934 29.2336 36.4813 27.9514 34.4572 27.9514C33.4643 27.9514 32.6906 28.2764 32.1365 28.9274C31.5282 29.639 31.2244 30.687 31.2244 32.072C31.2244 33.4338 31.4936 34.4328 32.0323 35.0674C32.525 35.641 33.2678 35.9282 34.2608 35.9282C34.6316 35.9282 34.9718 35.8828 35.281 35.792L37.1464 36.8712L37.655 36.0004Z" fill="#E6892E"/>
<path fill-rule="evenodd" clip-rule="evenodd" d="M30.6811 33.6662C30.6811 34.3232 30.4383 34.8626 29.9543 35.2846C29.4698 35.7048 28.819 35.9154 28.004 35.9154C27.2417 35.9154 26.503 35.673 25.7874 35.192L26.1221 34.5266C26.7379 34.8326 27.2952 34.9854 27.7956 34.9854C28.2649 34.9854 28.6323 34.8816 28.898 34.6764C29.1632 34.4698 29.3221 34.1816 29.3221 33.816C29.3221 33.356 28.9994 32.9628 28.4074 32.633C27.8607 32.3348 26.7683 31.7122 26.7683 31.7122C26.1764 31.283 25.8797 30.8224 25.8797 30.0636C25.8797 29.436 26.101 28.9288 26.543 28.5428C26.986 28.1562 27.5576 27.9628 28.2575 27.9628C28.9809 27.9628 29.6388 28.1548 30.2313 28.5372L29.9303 29.202C29.4233 28.9884 28.9234 28.8812 28.4305 28.8812C28.0305 28.8812 27.7223 28.9766 27.5075 29.1686C27.2914 29.359 27.1578 29.604 27.1578 29.9026C27.1578 30.3614 27.4876 30.7594 28.0963 31.0956C28.6498 31.394 29.769 32.0286 29.769 32.0286C30.3778 32.457 30.6811 32.9138 30.6811 33.6662Z" fill="#E6892E"/>
<path fill-rule="evenodd" clip-rule="evenodd" d="M43.8952 25.4714C43.1415 25.4526 42.5579 25.5274 42.0684 25.7334C41.9272 25.7896 41.7014 25.7896 41.6821 25.9674C41.758 26.0422 41.767 26.1638 41.8334 26.2672C41.9461 26.4544 42.1434 26.7066 42.3227 26.8382C42.5205 26.988 42.7182 27.1372 42.9256 27.2682C43.2926 27.4938 43.707 27.6242 44.0643 27.849C44.2722 27.98 44.4786 28.1482 44.6864 28.289C44.7896 28.364 44.855 28.4858 44.9874 28.532V28.5038C44.921 28.4198 44.9025 28.298 44.8369 28.204C44.7429 28.111 44.6486 28.0262 44.5542 27.933C44.281 27.568 43.9416 27.25 43.5753 26.988C43.2737 26.7814 42.6142 26.5006 42.4923 26.1554C42.4923 26.1554 42.4824 26.1454 42.4732 26.1362C42.6804 26.1172 42.9256 26.0422 43.1232 25.9854C43.4429 25.9014 43.7348 25.9204 44.0643 25.8364C44.2152 25.7986 44.3659 25.7516 44.5172 25.7056V25.6208C44.3468 25.4526 44.2249 25.2276 44.046 25.0686C43.5662 24.6568 43.0383 24.2548 42.4923 23.9172C42.2 23.73 41.8234 23.6088 41.5125 23.4492C41.4001 23.393 41.212 23.3652 41.1458 23.2712C40.9762 23.0652 40.8816 22.7942 40.7595 22.5504C40.4867 22.0362 40.2225 21.4654 39.9876 20.9216C39.8182 20.5568 39.7146 20.192 39.5073 19.8548C38.537 18.2632 37.4828 17.2996 35.8633 16.354C35.5149 16.157 35.1006 16.073 34.6584 15.97C34.4226 15.9602 34.1874 15.942 33.9521 15.9328C33.8012 15.867 33.6503 15.689 33.5187 15.6048C32.9818 15.268 31.5982 14.538 31.2025 15.502C30.9482 16.1108 31.5791 16.7096 31.7958 17.0186C31.9557 17.2336 32.1631 17.4774 32.2756 17.7204C32.3416 17.8796 32.3605 18.0484 32.4267 18.2166C32.5772 18.6284 32.7182 19.0872 32.9164 19.4712C33.0196 19.6678 33.1324 19.874 33.2642 20.051C33.3403 20.1546 33.4716 20.2008 33.5 20.3698C33.3686 20.5568 33.3584 20.8376 33.2831 21.0718C32.9443 22.1296 33.0759 23.44 33.5563 24.2168C33.7066 24.4508 34.0649 24.9658 34.5452 24.7688C34.9688 24.6006 34.8747 24.067 34.997 23.5992C35.0252 23.4862 35.0063 23.412 35.0626 23.3372V23.3562C35.1944 23.6178 35.3265 23.87 35.4489 24.1328C35.7412 24.591 36.2492 25.0686 36.6733 25.3866C36.8986 25.5556 37.0776 25.8454 37.3601 25.9486V25.9204H37.3416C37.2849 25.8364 37.2004 25.7986 37.1249 25.7334C36.9555 25.5648 36.7676 25.3588 36.6352 25.1718C36.2399 24.6478 35.8911 24.067 35.581 23.468C35.43 23.1772 35.2984 22.8592 35.1759 22.5692C35.1195 22.4574 35.1195 22.2884 35.0252 22.2324C34.8835 22.4382 34.6769 22.6162 34.5735 22.8682C34.3945 23.2712 34.3758 23.7672 34.3094 24.2822C34.2719 24.292 34.2909 24.2822 34.2719 24.3008C33.971 24.226 33.8674 23.9172 33.7541 23.6558C33.4716 22.9904 33.4242 21.9234 33.6694 21.1558C33.735 20.9596 34.0183 20.3418 33.9048 20.1546C33.8478 19.976 33.6597 19.874 33.5563 19.733C33.4342 19.5552 33.3016 19.331 33.2177 19.134C32.9916 18.61 32.8779 18.0294 32.6339 17.5054C32.5208 17.2616 32.3227 17.0088 32.1631 16.7846C31.9839 16.5318 31.7863 16.354 31.6449 16.0548C31.5982 15.9516 31.5322 15.783 31.6073 15.671C31.6258 15.596 31.664 15.5678 31.7394 15.5488C31.8612 15.446 32.21 15.5768 32.3321 15.633C32.6808 15.773 32.9727 15.9048 33.2642 16.101C33.3962 16.1948 33.5374 16.3726 33.7066 16.4198H33.9048C34.206 16.4848 34.5451 16.438 34.8278 16.5226C35.3265 16.6816 35.7784 16.9156 36.1836 17.1684C37.4166 17.9454 38.4336 19.0502 39.1207 20.3698C39.2339 20.5848 39.2814 20.7816 39.3848 21.0058C39.5826 21.4654 39.8276 21.9334 40.025 22.3822C40.2225 22.8222 40.4113 23.2712 40.6941 23.6368C40.8349 23.833 41.4001 23.936 41.6544 24.039C41.8423 24.123 42.1346 24.198 42.3042 24.3008C42.6243 24.4972 42.9438 24.7222 43.2455 24.9378C43.3958 25.05 43.8668 25.2838 43.8952 25.4714Z" fill="#196D80"/>
<path fill-rule="evenodd" clip-rule="evenodd" d="M43.2203 35.8128H43.4269V35.0246H43.6973V34.8636H42.9395V35.0246H43.2203V35.8128ZM44.7926 35.8128H44.9873V34.8636H44.6944L44.456 35.5106L44.1964 34.8636H43.9142V35.8128H44.0985V35.0904H44.1089L44.3807 35.8128H44.5212L44.7926 35.0904V35.8128Z" fill="#E6892E"/>
<defs>
<filter id="filter0_d" x="0" y="0" width="56" height="56" filterUnits="userSpaceOnUse" color-interpolation-filters="sRGB">
<feFlood flood-opacity="0" result="BackgroundImageFix"/>
<feColorMatrix in="SourceAlpha" type="matrix" values="0 0 0 0 0 0 0 0 0 0 0 0 0 0 0 0 0 0 127 0"/>
<feOffset/>
<feGaussianBlur stdDeviation="1.5"/>
<feColorMatrix type="matrix" values="0 0 0 0 0 0 0 0 0 0 0 0 0 0 0 0 0 0 0.16 0"/>
<feBlend mode="normal" in2="BackgroundImageFix" result="effect1_dropShadow"/>
<feBlend mode="normal" in="SourceGraphic" in2="effect1_dropShadow" result="shape"/>
</filter>
</defs>
</svg>
