<svg width="50" height="50" viewBox="0 0 50 50" fill="none" xmlns="http://www.w3.org/2000/svg">
<circle cx="25" cy="25" r="25" fill="#D66760"/>
<path d="M24.9998 14C18.9692 14 14.1004 15.7335 14 17.8996C14.001 17.9221 14.001 17.9447 14 17.9672C14 18.2175 14.151 18.539 14.6445 18.9365C15.1381 19.3339 15.936 19.7441 16.9433 20.0861C18.9579 20.7699 21.8221 21.2131 24.9998 21.2131C28.1775 21.2131 31.0418 20.7699 33.0564 20.0861C34.0637 19.7441 34.8616 19.3339 35.3552 18.9365C35.8487 18.539 35.9999 18.2175 35.9999 17.9672C35.9999 17.952 36.0001 17.9373 35.9999 17.9221C35.9324 15.7455 31.0516 14 24.9998 14ZM14 20.2326V25.4734C14.001 25.4959 14.001 25.5185 14 25.541C14 25.7913 14.151 26.1128 14.6445 26.5102C15.1381 26.9077 15.936 27.3179 16.9433 27.6598C18.9579 28.3437 21.8221 28.7869 24.9998 28.7869C28.1775 28.7869 31.0418 28.3437 33.0564 27.6598C34.0637 27.3179 34.8616 26.9077 35.3552 26.5102C35.8487 26.1128 35.9997 25.7913 35.9997 25.541V25.4959V20.2326C35.3381 20.7183 34.4916 21.1197 33.486 21.4611C31.2757 22.2114 28.2969 22.6557 24.9998 22.6557C21.7028 22.6557 18.724 22.2114 16.5136 21.4611C15.508 21.1197 14.6616 20.7183 14 20.2326ZM14 27.8064V32.6865C14.001 32.709 14.001 32.7316 14 32.7541C14 33.0044 14.151 33.3259 14.6445 33.7234C15.1381 34.1208 15.936 34.531 16.9433 34.873C18.9579 35.5568 21.8221 36 24.9998 36C28.1775 36 31.0418 35.5568 33.0564 34.873C34.0637 34.531 34.8616 34.1208 35.3552 33.7234C35.8487 33.3259 35.9997 33.0044 35.9997 32.7541V32.709V27.8064C35.3381 28.2921 34.4916 28.6935 33.486 29.0348C31.2757 29.7851 28.2969 30.2295 24.9998 30.2295C21.7028 30.2295 18.724 29.7851 16.5136 29.0348C15.508 28.6935 14.6616 28.2921 14 27.8064Z" fill="white"/>
</svg>
