<svg width="490" height="47" viewBox="0 0 490 47" fill="none" xmlns="http://www.w3.org/2000/svg">
<path d="M20.8775 46.3896V8.60649H32.5982V0.61039H0V8.60649H11.7817V46.3896H20.8775ZM46.8828 46.3896V26.9792H51.4001L61.4116 46.3896H71.7282L60.618 26.3688C63.4261 25.6364 65.7153 24.1816 67.4856 22.0045C69.2559 19.8275 70.141 17.2537 70.141 14.2831C70.141 10.458 68.8286 7.22294 66.2036 4.57792C63.5787 1.9329 60.3738 0.61039 56.589 0.61039H37.6649V46.3896H46.8828ZM56.2227 19.8377H46.8828V8.60649H56.2227C57.7692 8.60649 59.0817 9.14567 60.1601 10.224C61.2386 11.3024 61.7778 12.6351 61.7778 14.2221C61.7778 15.8091 61.2488 17.1418 60.1907 18.2201C59.1325 19.2985 57.8099 19.8377 56.2227 19.8377ZM146.07 47C151.32 47 155.756 45.5147 159.378 42.5442C163 39.5736 164.811 35.9316 164.811 31.6182V0.61039H155.593V29.9701C155.593 32.4524 154.667 34.5684 152.815 36.3182C150.964 38.068 148.715 38.9429 146.07 38.9429C143.424 38.9429 141.176 38.068 139.324 36.3182C137.473 34.5684 136.547 32.4524 136.547 29.9701V0.61039H127.329V31.6182C127.329 35.9316 129.14 39.5736 132.762 42.5442C136.384 45.5147 140.82 47 146.07 47ZM192.891 46.3896C196.758 46.3896 199.963 45.2706 202.506 43.0325C205.05 40.7944 206.321 37.7628 206.321 33.9377C206.321 31.0485 205.558 28.668 204.032 26.7961C202.506 24.9242 200.42 23.5814 197.775 22.7675C201.194 20.8143 202.903 17.6403 202.903 13.2455C202.903 9.37965 201.621 6.30736 199.057 4.02857C196.493 1.74978 193.258 0.61039 189.351 0.61039H172.258V46.3896H192.891ZM188.252 19.7766H181.415V8.60649H188.252C189.758 8.60649 191.05 9.15584 192.128 10.2545C193.207 11.3532 193.746 12.6554 193.746 14.161C193.746 15.6667 193.207 16.979 192.128 18.0981C191.05 19.2171 189.758 19.7766 188.252 19.7766ZM191.548 38.3325H181.415V27.2234H191.548C193.095 27.2234 194.407 27.7727 195.486 28.8714C196.564 29.9701 197.104 31.2723 197.104 32.7779C197.104 34.2836 196.564 35.5857 195.486 36.6844C194.407 37.7831 193.095 38.3325 191.548 38.3325ZM236.844 46.3896V38.3325H221.4V0.61039H212.182V46.3896H236.844ZM269.625 46.3896V38.3325H251.678V27.5286H267.062V19.4714H251.678V8.60649H269.625V0.61039H242.46V46.3896H269.625ZM292.029 47C296.994 47 301.064 45.8403 304.238 43.5208C307.412 41.2013 309 37.8238 309 33.3883C309 31.9641 308.817 30.6517 308.45 29.4513C308.084 28.2509 307.484 27.1725 306.649 26.2162C305.815 25.26 305.022 24.4461 304.269 23.7747C303.516 23.1032 302.458 22.4216 301.094 21.7299C299.731 21.0381 298.663 20.5294 297.889 20.2039C297.116 19.8784 295.977 19.4104 294.471 18.8C292.965 18.1896 291.836 17.7216 291.083 17.3961C290.33 17.0706 289.475 16.6229 288.519 16.0532C287.563 15.4836 286.881 14.8935 286.474 14.2831C286.067 13.6727 285.863 13.0013 285.863 12.2688C285.863 10.8853 286.443 9.77641 287.603 8.94221C288.763 8.10801 290.259 7.69091 292.09 7.69091C296.323 7.69091 299.843 9.27792 302.651 12.4519L308.633 6.65325C304.482 2.21775 298.886 0 291.846 0C287.369 0 283.676 1.15974 280.766 3.47922C277.856 5.7987 276.401 8.85065 276.401 12.6351C276.401 14.0593 276.666 15.3716 277.195 16.5721C277.724 17.7725 278.345 18.7695 279.057 19.563C279.769 20.3565 280.776 21.1398 282.079 21.913C283.381 22.6861 284.5 23.2864 285.436 23.7136C286.372 24.1409 287.634 24.6597 289.221 25.2701C290.686 25.8398 291.754 26.2569 292.426 26.5214C293.097 26.7859 294.003 27.2132 295.142 27.8032C296.282 28.3933 297.106 28.9223 297.615 29.3903C298.123 29.8582 298.591 30.4584 299.019 31.1909C299.446 31.9234 299.66 32.6965 299.66 33.5104C299.619 35.1788 298.937 36.4199 297.615 37.2338C296.292 38.0476 294.532 38.4545 292.334 38.4545C287.003 38.4545 282.994 36.3792 280.308 32.2286L273.96 38.5156C275.913 41.0792 278.508 43.1342 281.743 44.6805C284.978 46.2268 288.407 47 292.029 47ZM324.139 46.3896V27.5286H343.795V46.3896H353.013V0.61039H343.795V19.4104H324.139V0.61039H314.921V46.3896H324.139ZM381.338 47C387.85 47 393.201 44.7314 397.393 40.1942C401.585 35.6569 403.681 30.0922 403.681 23.5C403.681 16.9078 401.585 11.3431 397.393 6.80584C393.201 2.26862 387.85 0 381.338 0C374.786 0 369.424 2.25844 365.253 6.77532C361.081 11.2922 358.996 16.8671 358.996 23.5C358.996 30.1329 361.081 35.7078 365.253 40.2247C369.424 44.7416 374.786 47 381.338 47ZM381.338 38.0883C377.187 38.0883 373.891 36.7149 371.449 33.9682C369.007 31.2214 367.786 27.732 367.786 23.5C367.786 19.2273 368.997 15.7175 371.418 12.9708C373.84 10.224 377.147 8.85065 381.338 8.85065C385.489 8.85065 388.765 10.224 391.167 12.9708C393.568 15.7175 394.768 19.2273 394.768 23.5C394.768 27.732 393.568 31.2214 391.167 33.9682C388.765 36.7149 385.489 38.0883 381.338 38.0883ZM430.602 47C437.113 47 442.465 44.7314 446.657 40.1942C450.849 35.6569 452.944 30.0922 452.944 23.5C452.944 16.9078 450.849 11.3431 446.657 6.80584C442.465 2.26862 437.113 0 430.602 0C424.05 0 418.688 2.25844 414.516 6.77532C410.345 11.2922 408.259 16.8671 408.259 23.5C408.259 30.1329 410.345 35.7078 414.516 40.2247C418.688 44.7416 424.05 47 430.602 47ZM430.602 38.0883C426.451 38.0883 423.154 36.7149 420.713 33.9682C418.271 31.2214 417.05 27.732 417.05 23.5C417.05 19.2273 418.261 15.7175 420.682 12.9708C423.103 10.224 426.41 8.85065 430.602 8.85065C434.753 8.85065 438.029 10.224 440.43 12.9708C442.831 15.7175 444.032 19.2273 444.032 23.5C444.032 27.732 442.831 31.2214 440.43 33.9682C438.029 36.7149 434.753 38.0883 430.602 38.0883ZM477.485 46.3896V8.60649H489.205V0.61039H456.607V8.60649H468.389V46.3896H477.485Z" fill="#7A9FEA"/>
<path d="M117.713 10.3837C117.441 9.49994 116.788 8.78193 115.972 8.34007L99.3768 0.276161C98.9415 0.0552322 98.4518 0 98.0165 0C97.5812 0 97.0915 0 96.6563 0.110464L80.0612 8.2296C79.2451 8.61623 78.6466 9.33425 78.4289 10.2732L74.3482 28.4446C74.185 29.3835 74.4026 30.3225 74.9467 31.0957L86.4272 45.5114C87.0801 46.1741 88.0051 46.616 88.93 46.6712H107.212C108.191 46.7817 109.116 46.3398 109.715 45.5114L121.195 31.0957C121.739 30.3225 121.957 29.3835 121.848 28.4446L117.713 10.3837Z" fill="#326DE6"/>
<path fill-rule="evenodd" clip-rule="evenodd" d="M97.5168 20.5907C97.3706 20.7356 97.1767 20.8148 96.9707 20.8148C96.7631 20.8148 96.5679 20.7341 96.421 20.587C96.2432 20.4092 96.1525 20.2113 96.1525 19.9967C96.1525 19.7908 96.2316 19.5969 96.3765 19.4507L89.8696 12.9429C89.5477 12.621 89.1195 12.4436 88.6639 12.4436C88.2106 12.4436 87.7846 12.6191 87.4633 12.9376L85.2976 14.9581C84.9725 15.2804 84.7937 15.7099 84.7937 16.1675C84.7937 16.6226 84.9716 17.0505 85.2942 17.3731L91.8014 23.8806C91.9476 23.7357 92.1414 23.6566 92.3474 23.6566C92.5549 23.6566 92.75 23.7373 92.8968 23.8844C93.0746 24.0622 93.1654 24.2601 93.1654 24.4749C93.1654 24.6809 93.0863 24.8747 92.9414 25.0209L94.0636 26.1436L95.5274 24.6797C95.528 24.6791 95.6358 24.6074 95.7399 24.532C95.8965 24.4186 96.0495 24.3016 96.0502 24.3009L97.1613 23.1911L98.639 21.7134L97.5168 20.5907Z" fill="white"/>
<path fill-rule="evenodd" clip-rule="evenodd" d="M94.0635 26.7175L95.7869 24.994C95.7974 24.9869 95.81 24.9783 95.8242 24.9686C95.8657 24.9401 95.9218 24.9012 95.9778 24.8606C96.0587 24.8021 96.1382 24.7429 96.1972 24.6986C96.2268 24.6763 96.2515 24.6576 96.269 24.6444L96.2896 24.6286L96.2959 24.6238L96.2989 24.6215L96.3019 24.6191L96.3063 24.6156C96.3072 24.6148 96.3095 24.613 96.3123 24.6106L96.3193 24.6045C96.3225 24.6017 96.3312 24.5935 96.3369 24.588L99.2127 21.7134L97.5181 20.0181L97.2311 20.3025C97.1616 20.3715 97.0706 20.409 96.9707 20.409C96.8705 20.409 96.7787 20.371 96.7081 20.3003C96.5913 20.1835 96.5582 20.0841 96.5582 19.9967C96.5582 19.8968 96.5957 19.8058 96.6647 19.7363L96.9489 19.4494L90.1565 12.6561C89.7585 12.2581 89.2271 12.0378 88.6639 12.0378C88.1057 12.0378 87.579 12.254 87.1822 12.645L85.0162 14.6657L85.0119 14.67C84.6099 15.0685 84.3879 15.6018 84.3879 16.1675C84.3879 16.7307 84.6089 17.2617 85.0072 17.66L91.8001 24.4532L92.087 24.1688C92.1565 24.0999 92.2475 24.0623 92.3474 24.0623C92.4473 24.0623 92.5391 24.1003 92.6097 24.1711C92.7265 24.2878 92.7596 24.3873 92.7596 24.4749C92.7596 24.5748 92.7221 24.6658 92.6532 24.7354L92.369 25.0222L94.0635 26.7175ZM94.0636 25.5697L93.4635 24.9693C93.5341 24.8159 93.5711 24.6477 93.5711 24.4749C93.5711 24.133 93.4226 23.8363 93.1837 23.5975C92.9606 23.3742 92.6623 23.2509 92.3474 23.2509C92.1746 23.2509 92.0064 23.2879 91.853 23.3584L85.581 17.0863C85.3342 16.8394 85.1994 16.5144 85.1994 16.1675C85.1994 15.82 85.3336 15.4959 85.5791 15.2503L87.7446 13.2301L87.749 13.2258C87.9942 12.9826 88.3175 12.8493 88.6639 12.8493C89.0118 12.8493 89.3368 12.984 89.5827 13.2298L95.8543 19.5023C95.7837 19.6558 95.7467 19.8239 95.7467 19.9967C95.7467 20.3385 95.8953 20.635 96.1339 20.8737M94.0636 25.5697L95.2405 24.3928C95.2574 24.3759 95.2726 24.3639 95.2744 24.3625C95.279 24.3588 95.2828 24.3559 95.2846 24.3546C95.2882 24.3519 95.2912 24.3498 95.2922 24.3491L95.2972 24.3456L95.3007 24.3431L95.319 24.3308C95.3303 24.3232 95.3463 24.3123 95.3654 24.2992C95.404 24.2728 95.4538 24.2382 95.502 24.2033C95.5777 24.1485 95.653 24.0925 95.7098 24.0498C95.7381 24.0285 95.7616 24.0108 95.7779 23.9984L95.7824 23.9949L98.0652 21.7133L97.4651 21.1129C97.3116 21.1835 97.1435 21.2205 96.9707 21.2205C96.6557 21.2205 96.3571 21.0971 96.1339 20.8737" fill="#326DE6"/>
<path fill-rule="evenodd" clip-rule="evenodd" d="M107.176 31.7572L105.978 31.8412L97.6016 23.658L96.074 25.3776L104.13 33.4307L104.166 34.9277L107.471 36.7618L109.007 35.0559L107.176 31.7572Z" fill="white"/>
<path fill-rule="evenodd" clip-rule="evenodd" d="M107.556 37.2733L109.502 35.1122L107.406 31.3344L106.131 31.4237L97.5809 23.0705L95.5166 25.3941L103.728 33.6029L103.766 35.1698L107.556 37.2733ZM104.566 34.6857L104.531 33.2586L96.6314 25.3611L97.6224 24.2455L105.824 32.2587L106.947 32.18L108.512 34.9996L107.385 36.2504L104.566 34.6857Z" fill="#326DE6"/>
<path d="M92.2482 21.2726C92.0881 21.4327 91.8288 21.4327 91.6687 21.2726L86.7902 16.3941C86.6301 16.2343 86.6301 15.9744 86.7902 15.8145C86.8703 15.7345 86.9752 15.6946 87.0801 15.6946C87.1851 15.6946 87.29 15.7345 87.37 15.8145L92.2482 20.6931C92.4083 20.8532 92.4083 21.1128 92.2482 21.2726Z" fill="#326DE6"/>
<path d="M93.1623 19.779L88.2839 14.9005C88.1238 14.7406 88.1238 14.4808 88.2839 14.3209C88.364 14.2409 88.4689 14.201 88.5738 14.201C88.6787 14.201 88.7836 14.2409 88.8637 14.3209L93.7418 19.1994C93.902 19.3593 93.902 19.6191 93.7418 19.779C93.5817 19.9391 93.3224 19.9391 93.1623 19.779Z" fill="#326DE6"/>
<path fill-rule="evenodd" clip-rule="evenodd" d="M109.408 23.6452C108.424 24.6297 107.36 23.3521 107.36 23.3521L106.24 22.2383C106.405 21.7418 106.462 21.355 106.431 21.0547C106.408 20.8312 106.335 20.6654 106.221 20.5506C106.063 20.3914 105.843 20.3309 105.633 20.3085C105.459 20.2899 105.288 20.3001 105.146 20.3227C105.114 20.3278 105.009 20.2727 105 20.287L104.732 20.7031L104.377 20.3586C103.1 19.1204 102.492 18.4738 102.492 18.4738C102.255 18.2114 101.872 17.709 101.956 17.1418C102.001 16.8315 101.913 15.3118 100.928 14.3829C100.375 13.8614 99.5313 13.5475 98.2817 13.7111C97.137 13.7366 96.97 13.2294 96.9509 13.1516L96.4436 12.292C96.4043 12.235 96.3061 12.0685 96.3063 11.8289C96.3064 11.699 96.3347 11.5447 96.4297 11.3763C96.5345 11.1908 96.733 10.97 97.1299 10.7566C102.505 7.74804 106.473 12.159 106.726 12.4504C106.878 12.6021 108.614 14.3379 109.499 15.2297C109.549 15.2799 109.601 15.3327 109.656 15.3879C109.639 15.4551 109.623 15.5248 109.608 15.5968C109.478 16.2373 109.489 16.7456 109.774 17.0301C110.05 17.3057 110.542 17.3223 111.192 17.182C111.266 17.1661 111.337 17.1491 111.405 17.131C111.457 17.1835 111.51 17.2371 111.564 17.2917C111.721 17.449 111.871 17.592 112.009 17.7244C112.64 18.3303 113.022 18.7675 113.075 19.2313C113.122 19.6444 112.951 20.117 112.295 20.7734C111.559 21.5095 110.953 22.1106 110.435 22.6242C110.05 23.0066 109.713 23.3404 109.408 23.6452Z" fill="white"/>
<path fill-rule="evenodd" clip-rule="evenodd" d="M103.682 10.736C102.081 10.0155 99.8835 9.68032 97.3281 11.1106L97.325 11.1123L97.322 11.114C96.9809 11.2974 96.844 11.468 96.783 11.5759C96.7256 11.6776 96.712 11.7621 96.712 11.8292C96.7119 11.9573 96.7652 12.0438 96.7777 12.0618L96.7857 12.0735L97.3307 12.9968L97.3433 13.0484C97.3486 13.0597 97.3699 13.0971 97.4296 13.1396C97.5235 13.2065 97.7519 13.3139 98.2517 13.3059C99.5872 13.1362 100.552 13.4713 101.206 14.0877C101.773 14.6224 102.07 15.3136 102.221 15.8919C102.369 16.4615 102.39 16.976 102.357 17.2007C102.331 17.376 102.375 17.5578 102.467 17.7403C102.557 17.9216 102.684 18.0806 102.791 18.1988L102.794 18.2027L102.815 18.2245C102.833 18.244 102.862 18.2735 102.9 18.3129C102.975 18.3918 103.09 18.5102 103.245 18.6672C103.554 18.9814 104.023 19.4504 104.659 20.0672C104.727 19.9617 104.823 19.9155 104.886 19.8966C104.945 19.8787 104.996 19.8783 105.021 19.8791C105.072 19.8807 105.112 19.8913 105.126 19.895C105.143 19.8994 105.159 19.9047 105.173 19.9094C105.324 19.8915 105.498 19.886 105.676 19.9051C105.921 19.9312 106.254 20.0076 106.509 20.2649C106.705 20.4617 106.805 20.7232 106.835 21.0133C106.868 21.3338 106.82 21.7026 106.7 22.1235L107.659 23.0778L107.671 23.0913L107.671 23.0916L107.671 23.0919L107.671 23.0922L107.676 23.0979C107.682 23.104 107.691 23.1141 107.703 23.1272C107.728 23.1536 107.766 23.1919 107.814 23.2357C107.913 23.3251 108.046 23.4292 108.198 23.5056C108.349 23.5822 108.5 23.6213 108.641 23.6102C108.774 23.5998 108.937 23.5429 109.122 23.3583C109.427 23.0532 109.763 22.7193 110.148 22.3377L110.149 22.3362C110.667 21.8226 111.273 21.2219 112.008 20.4865C112.626 19.8683 112.699 19.5118 112.672 19.2771C112.657 19.1434 112.591 18.9856 112.434 18.7736C112.274 18.5596 112.042 18.3186 111.728 18.0172L111.724 18.0141C111.588 17.8829 111.437 17.7381 111.277 17.5786C110.934 17.6528 110.603 17.6923 110.307 17.6662C110.007 17.6397 109.713 17.5429 109.487 17.3172C109.256 17.0862 109.158 16.7853 109.131 16.4837C109.104 16.1848 109.142 15.8536 109.211 15.5156C108.326 14.6244 106.591 12.8891 106.439 12.7373L106.429 12.7273L106.42 12.7167C106.31 12.5903 105.301 11.4644 103.682 10.736ZM107.062 23.6286L105.776 22.3488L105.855 22.1105C106.011 21.6408 106.05 21.3161 106.027 21.096C106.011 20.9393 105.966 20.8691 105.933 20.8364C105.873 20.7753 105.764 20.7305 105.59 20.712C105.457 20.6978 105.322 20.7054 105.21 20.7234C105.207 20.7239 105.204 20.7243 105.201 20.7247L104.805 21.3389L104.094 20.6499C103.453 20.0286 102.98 19.5552 102.666 19.2365C102.51 19.0772 102.393 18.9565 102.315 18.8754C102.276 18.8349 102.246 18.8042 102.227 18.7835L102.204 18.76L102.199 18.7539L102.197 18.7518C102.197 18.7518 102.196 18.7516 102.492 18.4738L102.196 18.7516L102.194 18.7487L102.191 18.7458C102.061 18.6019 101.879 18.3797 101.741 18.1039C101.603 17.8278 101.497 17.4748 101.554 17.0829C101.567 16.9972 101.566 16.5968 101.436 16.0967C101.307 15.6054 101.067 15.0724 100.649 14.6781C100.201 14.255 99.4864 13.9626 98.3344 14.1134L98.3126 14.1163L98.2907 14.1168C97.6604 14.1308 97.238 13.9995 96.9588 13.8006C96.725 13.6341 96.622 13.442 96.5778 13.3178L96.1004 12.5088C96.0311 12.4045 95.9003 12.1643 95.9005 11.8286C95.9007 11.6359 95.9438 11.4118 96.0765 11.1768C96.2247 10.9143 96.4839 10.6438 96.9347 10.4009C99.7532 8.82457 102.226 9.19057 104.015 9.996C105.753 10.778 106.845 11.9709 107.023 12.1731C107.226 12.3765 108.917 14.0673 109.787 14.9439C109.837 14.9941 109.889 15.0471 109.944 15.1024L110.105 15.2647L110.049 15.4862C110.034 15.5472 110.02 15.6111 110.006 15.678C109.944 15.9805 109.922 16.2238 109.939 16.4102C109.956 16.594 110.007 16.6894 110.06 16.7429C110.11 16.7928 110.2 16.8421 110.378 16.8578C110.559 16.8738 110.8 16.8515 111.106 16.7854C111.175 16.7706 111.24 16.7551 111.302 16.7387L111.53 16.6784L111.696 16.8474C111.746 16.899 111.798 16.9515 111.851 17.0048C112.004 17.1583 112.15 17.2982 112.288 17.4306L112.289 17.4316C112.607 17.7361 112.881 18.0166 113.084 18.2887C113.288 18.5628 113.441 18.8555 113.478 19.1856C113.545 19.777 113.276 20.3657 112.582 21.0603C111.845 21.797 111.239 22.3986 110.721 22.9123L110.72 22.9131C110.335 23.2953 109.999 23.6282 109.695 23.9321C109.388 24.2398 109.048 24.3923 108.705 24.4192C108.37 24.4455 108.07 24.3498 107.832 24.2301C107.594 24.1101 107.401 23.9563 107.269 23.8369C107.202 23.7764 107.149 23.7226 107.112 23.6829C107.093 23.6631 107.078 23.6466 107.068 23.6345C107.066 23.6324 107.064 23.6304 107.062 23.6286Z" fill="#326DE6"/>
<path fill-rule="evenodd" clip-rule="evenodd" d="M103.805 21.6323C103.805 21.6323 92.8646 33.6071 90.8049 35.9068C90.1425 36.5701 89.435 36.847 88.7709 36.8719C87.9917 36.901 87.2626 36.5799 86.7357 36.0531C86.2079 35.5253 85.8859 34.7936 85.9133 34.013C85.9367 33.3463 86.2126 32.6372 86.8581 31.9916C89.7076 29.1422 101.078 18.9016 101.078 18.9016C101.078 18.9016 101.179 18.8108 101.365 18.6441L104.067 21.346C103.897 21.5313 103.805 21.6323 103.805 21.6323Z" fill="white"/>
<path fill-rule="evenodd" clip-rule="evenodd" d="M101.379 18.0851L104.628 21.3334L104.105 21.9059L103.805 21.6323C104.104 21.906 104.105 21.9058 104.105 21.9059L104.104 21.9066L103.63 22.425C103.327 22.7569 102.892 23.2336 102.363 23.8129C101.305 24.9714 99.8733 26.5401 98.3771 28.1806C95.3838 31.4626 92.1354 35.0294 91.1072 36.1775L91.0998 36.1858L91.092 36.1936C90.3629 36.9237 89.5603 37.2484 88.786 37.2773C87.8842 37.311 87.0482 36.9394 86.4488 36.34C85.8484 35.7396 85.4761 34.9013 85.5078 33.9987C85.535 33.2236 85.8573 32.4187 86.5712 31.7047C88.0042 30.2718 91.5675 26.9919 94.7634 24.0782C96.3634 22.6196 97.8742 21.2501 98.985 20.2453C99.5404 19.7429 99.9958 19.3317 100.312 19.046C100.471 18.9032 100.594 18.7917 100.678 18.716L100.807 18.6003C100.807 18.6002 100.807 18.6001 101.078 18.9016L100.807 18.6003L101.379 18.0851ZM103.507 21.3606L101.348 19.2017C101.35 19.2032 101.35 19.2032 101.35 19.2032L101.222 19.3187C101.138 19.3944 101.014 19.5057 100.856 19.6485C100.54 19.9339 100.084 20.345 99.5293 20.8471C98.4191 21.8515 96.9091 23.2202 95.3101 24.6779C92.1084 27.5969 88.5616 30.862 87.1451 32.2785C86.5678 32.8558 86.3383 33.469 86.3187 34.0272C86.2956 34.6858 86.5674 35.311 87.0226 35.7662C87.4769 36.2205 88.0992 36.4909 88.7557 36.4664C89.3073 36.4458 89.9169 36.2186 90.5102 35.6277C91.5499 34.4672 94.793 30.9061 97.7775 27.6338C99.2739 25.9931 100.706 24.4243 101.764 23.2657C102.293 22.6864 102.728 22.2097 103.031 21.8777L103.505 21.3588C103.505 21.3588 103.505 21.3588 103.507 21.3606Z" fill="#326DE6"/>
</svg>
