<?xml version="1.0" encoding="UTF-8"?>
<svg width="22px" height="20px" viewBox="0 0 22 20" version="1.1" xmlns="http://www.w3.org/2000/svg" xmlns:xlink="http://www.w3.org/1999/xlink">
    <!-- Generator: Sketch 62 (91390) - https://sketch.com -->
    <title>Fill 1</title>
    <desc>Created with Sketch.</desc>
    <g id="Page-1" stroke="none" stroke-width="1" fill="none" fill-rule="evenodd">
        <g id="Kurl-Vendor-Install-Page" transform="translate(-1003.000000, -1001.000000)" fill="#FFFFFF">
            <g id="Footer" transform="translate(0.000000, 982.000000)">
                <g id="Group-3" transform="translate(19.000000, -132.000000)">
                    <g id="Group-11" transform="translate(984.000000, 151.000000)">
                        <path d="M11,0 C4.92566404,0 0,4.59023655 0,10.2531979 C0,14.7831595 3.1518348,18.6264957 7.52247135,19.9822582 C8.07221633,20.07717 8.27404451,19.759835 8.27404451,19.4890221 C8.27404451,19.2446962 8.26384381,18.4368417 8.25910777,17.5800881 C5.19889713,18.2003261 4.55315626,16.3703439 4.55315626,16.3703439 C4.05277539,15.1853888 3.33180433,14.8700912 3.33180433,14.8700912 C2.33377492,14.2337233 3.40703451,14.2467971 3.40703451,14.2467971 C4.51162483,14.319127 5.093247,15.3035617 5.093247,15.3035617 C6.07433596,16.8708809 7.66655627,16.4177149 8.29426376,16.155731 C8.39299199,15.4932156 8.67806518,15.0407289 8.99264755,14.7846876 C6.54939723,14.52559 3.98100616,13.6462546 3.98100616,9.71751464 C3.98100616,8.59826777 4.41071074,7.68344644 5.11437703,6.96541018 C5.0001656,6.70716162 4.62365039,5.66431964 5.22093793,4.25201753 C5.22093793,4.25201753 6.1448301,3.97662031 8.2467212,5.30317915 C9.12416374,5.07600192 10.0651785,4.96207372 11,4.9579988 C11.9348215,4.96207372 12.8765649,5.07600192 13.7556468,5.30317915 C15.8551699,3.97662031 16.7776048,4.25201753 16.7776048,4.25201753 C17.3763496,5.66431964 16.9998344,6.70716162 16.885623,6.96541018 C17.5909287,7.68344644 18.0175366,8.59826777 18.0175366,9.71751464 C18.0175366,13.6557627 15.4442273,14.5227036 12.9947837,14.7765377 C13.3893323,15.0947217 13.7408922,15.718695 13.7408922,16.6752843 C13.7408922,18.0471767 13.7283235,19.1513124 13.7283235,19.4890221 C13.7283235,19.7620423 13.9261443,20.0815845 14.4837219,19.9810696 C18.8519905,18.623779 22,14.7818011 22,10.2531979 C22,4.59023655 17.0750646,0 11,0" id="Fill-1"></path>
                    </g>
                </g>
            </g>
        </g>
    </g>
</svg>