<?xml version="1.0" encoding="UTF-8"?>
<svg width="204px" height="80px" viewBox="0 0 204 80" version="1.1" xmlns="http://www.w3.org/2000/svg" xmlns:xlink="http://www.w3.org/1999/xlink">
    <!-- Generator: Sketch 58 (84663) - https://sketch.com -->
    <title>Group Copy</title>
    <desc>Created with Sketch.</desc>
    <g id="Page-1" stroke="none" stroke-width="1" fill="none" fill-rule="evenodd">
        <g id="Kots.io-Landing" transform="translate(-538.000000, -210.000000)" fill-rule="nonzero">
            <g id="Group-Copy" transform="translate(538.000000, 210.000000)">
                <path d="M80.5572946,24.0495362 L60.2087079,33.8846945 C59.370708,34.2768722 58.7842199,34.9941337 58.5690332,35.9112052 L53.5575897,57.9535382 C53.3890985,58.911034 53.6102051,59.8718846 54.155997,60.6402023 L68.2261859,78.0999148 C68.9259546,78.8016718 69.9138026,79.2576874 70.8317829,79.3129986 L93.3859808,79.3170991 C94.3378408,79.4231618 95.2476404,79.0031752 95.8708016,78.1522469 L109.963952,60.6718414 C110.526191,59.8824709 110.764526,58.9114814 110.660377,57.9885153 L105.588505,36.0959584 C105.318591,35.2297799 104.659872,34.4791086 103.795486,34.0160755 L83.3788893,24.2150076 C83.0111809,24.0306311 82.5569716,23.9502488 82.0050622,23.9502488 C81.6082552,23.9502488 81.4266585,23.9529669 81.2079977,23.9658658 C80.9588362,23.980564 80.7448143,24.0074741 80.5572946,24.0495362 Z M81.8414967,37.5422886 C85.4886112,37.5422886 88.3356345,38.9928946 90.3118037,41.8671115 C92.2466241,44.6811892 93.2039801,48.5059256 93.2039801,53.3306621 C93.2039801,58.1532916 92.2474633,62.0098957 90.316155,64.8899783 C88.3412305,67.835104 85.4923909,69.3233831 81.8414967,69.3233831 C78.1921894,69.3233831 75.3282809,67.8367011 73.319511,64.8945959 C71.3524976,62.0136485 70.3781095,58.1551433 70.3781095,53.3306621 C70.3781095,48.504063 71.3533631,44.6773991 73.3239448,41.8624891 C75.3339029,38.9913311 78.1959721,37.5422886 81.8414967,37.5422886 Z" id="Combined-Shape" stroke="#326DE6" stroke-width="1.33333333" fill="#326DE6"></path>
                <path d="M15.1526934,0 L15.1526934,44.6837975 L18.5944627,40.9136047 C18.9864156,40.482 19.3815472,40.0461631 19.7798582,39.6060932 C21.3731024,37.8458136 22.9154752,36.1024859 24.407023,34.3760579 L28.6274041,29.4506847 L28.6274041,29.4506847 L30.711133,26.9802261 C31.1864046,26.4123537 31.6274319,25.8817865 32.0342177,25.3885213 L50.0343972,25.3885213 C46.441123,29.5184081 42.9326486,33.4620523 39.5088685,37.2195722 C36.0850884,40.9770922 32.3393258,44.8530343 28.2714683,48.847515 C30.3053971,50.6754977 32.4070919,52.8588887 34.5766159,55.3977535 C36.7461399,57.9366183 38.8478348,60.5600726 40.8817635,63.2681951 C42.9156923,65.9763176 44.780099,68.6843994 46.4750396,71.3925219 C48.1699803,74.1006444 49.593709,76.5717691 50.7462687,78.8059701 L33.3562648,78.8059701 L32.2206594,76.983637 C31.4296926,75.7273777 30.5709309,74.3883745 29.6443634,72.9666102 C28.254512,70.8339638 26.7799358,68.7013493 25.2205904,66.5687029 C23.6612451,64.4360564 22.0171773,62.3880695 20.2883379,60.4246807 C18.5594984,58.4612919 16.8476341,56.8025918 15.1526934,55.4485305 L15.1526934,78.8059701 L0,78.8059701 L0,2.43729805 L15.1526934,0 Z" id="Path" fill="#303030"></path>
                <path d="M120,11.9919881 L135.038276,9.55223881 L135.038276,25.3089531 L153.104392,25.3089531 L153.104392,37.9143245 L135.038276,37.9143245 L135.038276,56.7207254 C135.038276,59.9059696 135.593374,62.4473497 136.703588,64.344942 C137.813802,66.2425342 140.051017,67.1913161 143.415302,67.1913161 C145.030158,67.1913161 146.695454,67.0388333 148.411239,66.7338632 C150.127024,66.428893 151.691393,66.0053296 153.104392,65.4631604 L155.223881,77.255282 C153.407167,78.0007647 151.388627,78.644581 149.168199,79.1867502 C146.947771,79.7289195 144.222742,80 140.993029,80 C136.888602,80 133.490726,79.4408908 130.799299,78.3226724 C128.107871,77.2044483 125.954762,75.6457352 124.339905,73.6464862 C122.725049,71.6472372 121.59803,69.2244548 120.958816,66.3780664 C120.319602,63.531678 120,60.3803493 120,56.9240378 L120,11.9919881 Z" id="Path" fill="#303030"></path>
                <path d="M180.899945,67.7428741 C183.680132,67.7428741 185.646576,67.4727473 186.799337,66.9324856 C187.952097,66.3922239 188.528469,65.3454826 188.528469,63.7922302 C188.528469,62.5766414 187.782576,61.5130171 186.290768,60.6013255 C184.923278,59.7656082 182.90056,58.8305979 180.222563,57.796271 L179.475954,57.5117194 C177.102623,56.6337941 174.949706,55.7221162 173.017137,54.7766582 C171.084567,53.8312003 169.440213,52.7000443 168.084024,51.3831564 C166.727835,50.0662685 165.676805,48.4961565 164.930901,46.6727733 C164.184997,44.8493901 163.812051,42.6546099 163.812051,40.0883668 C163.812051,35.0909462 165.676783,31.1403418 169.406302,28.2364352 C173.135821,25.3325285 178.255357,23.880597 184.765064,23.880597 C188.019917,23.880597 191.139104,24.1676067 194.12272,24.7416348 C197.106335,25.3156628 199.47963,25.9403311 201.242676,26.6156582 L198.598121,38.3662913 C196.835075,37.7584969 194.919487,37.2182433 192.851299,36.7455143 C190.783111,36.2727853 188.460673,36.0364244 185.883914,36.0364244 C181.137253,36.0364244 178.763958,37.3532925 178.763958,39.9870683 C178.763958,40.5948627 178.865671,41.1351163 179.069099,41.6078453 C179.272527,42.0805742 179.679378,42.5364132 180.289663,42.9753758 C180.899948,43.4143385 181.730601,43.8870603 182.781647,44.3935557 C183.682544,44.8276945 184.795158,45.2990392 186.119514,45.8076001 L186.799337,46.0649819 C190.121999,47.2805708 192.86824,48.4792584 195.038143,49.6610809 C197.208045,50.8429033 198.920207,52.1260056 200.174682,53.5104262 C201.429157,54.8948468 202.310666,56.431193 202.819237,58.1195107 C203.327808,59.8078285 203.58209,61.7662478 203.58209,63.9948273 C203.58209,69.2623788 201.598693,73.2467491 197.631841,75.9480575 C193.664988,78.649366 188.053841,80 180.798231,80 C176.05157,80 172.101729,79.5948098 168.94859,78.7844173 L167.656407,78.445376 C165.190365,77.7838332 163.434263,77.2215275 162.38806,76.758446 L164.930901,64.5013201 C167.50766,65.5143108 170.152188,66.3078083 172.864566,66.8818363 C175.576944,67.4558644 178.255376,67.7428741 180.899945,67.7428741 Z" id="Path" fill="#303030"></path>
            </g>
        </g>
    </g>
</svg>