<?xml version="1.0" encoding="UTF-8"?>
<svg width="1702px" height="236px" viewBox="0 0 1702 236" version="1.1" xmlns="http://www.w3.org/2000/svg" xmlns:xlink="http://www.w3.org/1999/xlink">
    <!-- Generator: Sketch 59.1 (86144) - https://sketch.com -->
    <title>Group 3</title>
    <desc>Created with Sketch.</desc>
    <g id="Page-1" stroke="none" stroke-width="1" fill="none" fill-rule="evenodd">
        <g id="Artboard" transform="translate(-100.000000, -794.000000)">
            <g id="Group-3" transform="translate(100.000000, 794.000000)">
                <polygon id="Rectangle" fill="#2756B3" points="75.247812 0 1701.68421 0 1667.49802 118 37.2631579 118"></polygon>
                <polygon id="Rectangle-Copy" fill="#163166" points="37.9688995 118 1667.52632 118 1633.35431 236 -8.24418658e-14 236"></polygon>
                <g id="Group-4" transform="translate(1404.368421, 15.526316)" stroke="#FFFFFF" stroke-width="15.5263158">
                    <path d="M186.550982,47.6866513 C185.974149,46.0769051 184.623918,44.5731598 182.733478,43.534001 L108.744235,8.21827576 L108.624485,8.15985109 C108.138546,7.91758168 107.260949,7.76315789 106.009386,7.76315789 C104.670483,7.76315789 104.08135,7.77192559 103.424507,7.81045207 C103.03673,7.83319669 102.700069,7.86519107 102.412725,7.9051034 L29.0433561,43.1641578 C27.473575,43.894611 26.4357368,45.1566195 26.0414488,46.8266917 L7.85503328,126.37451 C7.55640331,128.288187 7.99033719,130.178403 9.11124188,131.821631 L59.9490192,194.525036 C61.5167098,195.97196 63.669435,196.943414 65.6699727,197.11073 L147.531329,197.11073 L147.957454,197.157941 C149.489067,197.327629 150.949412,196.657345 152.033809,195.182882 L152.142251,195.035433 L203.393685,131.821822 C204.502546,130.195773 205.006197,128.227417 204.838408,126.143936 L186.550982,47.6866513 Z" id="path10349" fill="#326DE6" fill-rule="nonzero"></path>
                    <path d="M53.7986842,104.633944 L91.9471437,139.882103 C93.5088713,141.325098 95.9398745,141.223624 97.3769419,139.655454 C97.4465256,139.579522 97.5130484,139.500818 97.5763495,139.419531 L156.272368,64.0460526" id="Path-4" stroke-linecap="round"></path>
                </g>
                <path d="M230.578947,102.473684 L198.284211,133.526316 L137.421053,133.526316 L137.421053,211.157895 L106.368421,211.157895 L106.368421,24.8421053 L199.526316,24.8421053 L230.578947,55.8947368 L230.578947,102.473684 Z M199.526316,89.7421053 L199.526316,68.6263158 L186.794737,55.8947368 L137.421053,55.8947368 L137.421053,102.473684 L186.794737,102.473684 L199.526316,89.7421053 Z M385.842105,102.473684 L353.547368,133.526316 L385.842105,211.157895 L351.994737,211.157895 L319.078947,133.526316 L292.684211,133.526316 L292.684211,211.157895 L261.631579,211.157895 L261.631579,24.8421053 L354.789474,24.8421053 L385.842105,55.8947368 L385.842105,102.473684 Z M354.789474,89.7421053 L354.789474,68.6263158 L342.057895,55.8947368 L292.684211,55.8947368 L292.684211,102.473684 L342.057895,102.473684 L354.789474,89.7421053 Z M541.105263,211.157895 L416.894737,211.157895 L416.894737,24.8421053 L541.105263,24.8421053 L541.105263,55.8947368 L447.947368,55.8947368 L447.947368,102.473684 L494.526316,102.473684 L494.526316,133.526316 L447.947368,133.526316 L447.947368,180.105263 L541.105263,180.105263 L541.105263,211.157895 Z M696.368421,55.8947368 L603.210526,55.8947368 L603.210526,102.473684 L649.789474,102.473684 L649.789474,133.526316 L603.210526,133.526316 L603.210526,211.157895 L572.157895,211.157895 L572.157895,24.8421053 L696.368421,24.8421053 L696.368421,55.8947368 Z M851.631579,211.157895 L727.421053,211.157895 L727.421053,24.8421053 L758.473684,24.8421053 L758.473684,180.105263 L851.631579,180.105263 L851.631579,211.157895 Z M913.736842,211.157895 L882.684211,211.157895 L882.684211,24.8421053 L913.736842,24.8421053 L913.736842,211.157895 Z M1069,180.105263 L1036.70526,211.157895 L975.842105,211.157895 L944.789474,180.105263 L944.789474,55.8947368 L975.842105,24.8421053 L1037.94737,24.8421053 L1069,55.8947368 L1069,71.4210526 L1037.94737,71.4210526 L1037.94737,68.6263158 L1025.21579,55.8947368 L988.573684,55.8947368 L975.842105,68.6263158 L975.842105,167.373684 L988.573684,180.105263 L1025.21579,180.105263 L1037.94737,167.373684 L1037.94737,149.052632 L1022.42105,149.052632 L1022.42105,118 L1069,118 L1069,180.105263 Z M1224.26316,211.157895 L1193.21053,211.157895 L1193.21053,133.526316 L1131.10526,133.526316 L1131.10526,211.157895 L1100.05263,211.157895 L1100.05263,24.8421053 L1131.10526,24.8421053 L1131.10526,102.473684 L1193.21053,102.473684 L1193.21053,24.8421053 L1224.26316,24.8421053 L1224.26316,211.157895 Z M1379.52632,55.8947368 L1332.94737,55.8947368 L1332.94737,211.157895 L1301.89474,211.157895 L1301.89474,55.8947368 L1255.31579,55.8947368 L1255.31579,24.8421053 L1379.52632,24.8421053 L1379.52632,55.8947368 Z" id="preflight" fill="#FFFFFF" fill-rule="nonzero"></path>
            </g>
        </g>
    </g>
</svg>