<?xml version="1.0" encoding="UTF-8"?>
<svg width="251px" height="242px" viewBox="0 0 251 242" version="1.1" xmlns="http://www.w3.org/2000/svg" xmlns:xlink="http://www.w3.org/1999/xlink">
    <!-- Generator: Sketch 60 (88103) - https://sketch.com -->
    <title>Group 4</title>
    <desc>Created with Sketch.</desc>
    <defs>
        <path d="M217.693912,51.1401178 C216.329871,46.7877674 213.056173,43.2514826 208.964051,41.0753074 L125.757564,1.36010952 C123.575099,0.272021903 121.119825,0 118.93736,0 C116.754895,0 114.299622,0 112.117156,0.544043807 L28.9106695,40.5312636 C24.8185466,42.4354169 21.817657,45.9717017 20.7264243,50.596074 L0.26581293,140.09128 C-0.552611531,144.715653 0.538621084,149.340025 3.26670251,153.148332 L60.8292235,224.146048 C64.1029213,227.410311 68.7406599,229.586486 73.3783985,229.858508 L165.041938,229.858508 C169.952485,230.402552 174.590224,228.226377 177.591113,224.146048 L235.153634,153.148332 C237.881715,149.340025 238.972948,144.715653 238.427331,140.09128 L217.693912,51.1401178 Z" id="path-1"></path>
    </defs>
    <g id="Page-1" stroke="none" stroke-width="1" fill="none" fill-rule="evenodd">
        <g id="Mini-logos" transform="translate(-285.000000, -25.000000)">
            <g id="Group-4" transform="translate(291.000000, 31.000000)">
                <g id="path10349" fill-rule="nonzero" stroke-width="6">
                    <path stroke="#FFFFFF" d="M214.799101,51.9364128 C213.709356,48.5638639 211.11425,45.6328398 207.610651,43.7535334 L124.419019,4.04493687 C122.963072,3.31906137 121.149832,3 118.93736,3 C117.324539,3 116.587618,3.01096712 115.702918,3.06285832 C114.713594,3.12088615 113.864272,3.22620016 113.122264,3.38946283 L30.176321,43.2512133 C26.8377969,44.8047008 24.5064742,47.6395832 23.6509675,51.2646902 L3.20771532,140.683967 C2.5631848,144.432103 3.4305957,148.188043 5.65592613,151.331643 L63.0553234,222.128162 C65.8331277,224.844754 69.7091369,226.61535 73.4705707,226.858508 L165.207618,226.858508 L165.37229,226.876753 C169.15602,227.295955 172.770729,225.636837 175.174343,222.368628 L175.260795,222.256706 L232.764399,151.331656 C234.946719,148.248664 235.886366,144.478574 235.46608,140.602526 L214.799101,51.9364128 Z" stroke-linejoin="square" fill="#326DE6" fill-rule="evenodd"></path>
                    <path stroke="#326DE6" d="M179.964035,225.982844 C176.347026,230.860543 170.751867,233.446717 164.884484,232.858508 L73.3783985,232.858508 L73.2027385,232.853361 C67.8823022,232.541296 62.5414925,230.089914 58.7109666,226.270428 L58.5987268,226.158511 L0.936383958,155.037674 L0.827885807,154.895379 C-2.38331413,150.412655 -3.64368146,144.966804 -2.68827951,139.568463 L-2.65873019,139.422664 L17.8066162,49.9070746 C19.0915139,44.4619976 22.6490459,40.1360479 27.6112059,37.8273046 L111.094033,-2.29271812 L111.391524,-2.36687652 C112.60024,-2.66818478 113.892418,-2.8412606 115.351598,-2.92684736 C116.39156,-2.98784526 117.208281,-3 118.93736,-3 C121.99918,-3 124.68314,-2.52772493 127.049833,-1.34729551 L210.256319,38.3679024 L210.372645,38.4265599 C215.278259,41.0353471 218.988474,45.2393489 220.556615,50.2429375 L220.590144,50.3499215 L241.387038,139.573405 L241.406666,139.739757 C242.046796,145.165184 240.723891,150.523997 237.59245,154.895379 L237.483952,155.037674 L179.964035,225.982844 Z"></path>
                </g>
                <path d="M60.3594994,117.394181 L103.16021,156.940896 C104.912392,158.559866 107.639859,158.446017 109.252179,156.686607 C109.330248,156.601415 109.404884,156.513112 109.475904,156.421913 L175.329974,71.8565469" id="Path-4" stroke="#FFFFFF" stroke-width="24" stroke-linecap="round"></path>
            </g>
        </g>
    </g>
</svg>