<?xml version="1.0" encoding="UTF-8"?>
<svg width="247px" height="243px" viewBox="0 0 247 243" version="1.1" xmlns="http://www.w3.org/2000/svg" xmlns:xlink="http://www.w3.org/1999/xlink">
    <!-- Generator: Sketch 60 (88103) - https://sketch.com -->
    <title>Group</title>
    <desc>Created with Sketch.</desc>
    <defs>
        <path d="M214.016849,51.1836417 C212.675849,46.8275871 209.457447,43.2882927 205.434444,41.1102654 L123.633396,1.36126707 C121.487795,0.272253413 119.073993,0 116.928392,0 C114.782791,0 112.36899,0 110.223388,0.544506827 L28.4223401,40.5657586 C24.3993372,42.4715325 21.4491355,46.0108268 20.3763348,50.6391349 L0.261323091,140.210508 C-0.543277383,144.838816 0.529523249,149.467124 3.21152472,153.278672 L59.8017586,224.336813 C63.0201605,227.603854 67.5795632,229.781881 72.1389659,230.054134 L162.254219,230.054134 C167.081822,230.598641 171.641224,228.420614 174.591426,224.336813 L231.18166,153.278672 C233.863661,149.467124 234.936462,144.838816 234.400061,140.210508 L214.016849,51.1836417 Z" id="path-1"></path>
    </defs>
    <g id="Page-1" stroke="none" stroke-width="1" fill="none" fill-rule="evenodd">
        <g id="Mini-logos" transform="translate(-24.000000, -24.000000)" fill-rule="nonzero">
            <g id="Group" transform="translate(30.000000, 30.000000)">
                <g id="path10349" stroke-width="6">
                    <path stroke="#FFFFFF" d="M211.118511,51.9667124 C210.046203,48.5864822 207.497527,45.6552959 204.061647,43.7786208 L122.275608,4.03641412 C120.857657,3.31672405 119.089608,3 116.928392,3 C115.344841,3 114.621762,3.01095532 113.754709,3.06272924 C112.791672,3.1202346 111.965164,3.22426967 111.243737,3.38510435 L29.7066767,43.2769353 C26.4363868,44.8261346 24.1460843,47.6613972 23.3034336,51.2964724 L3.20519495,140.793156 C2.5688891,144.558115 3.42447549,148.330495 5.61623665,151.482558 L62.0455618,222.338652 C64.7670413,225.047801 68.5586523,226.811399 72.232968,227.054134 L162.42287,227.054134 L162.590458,227.073037 C166.276661,227.488805 169.804223,225.840466 172.159612,222.580032 L172.244697,222.467893 L228.776937,151.482571 C230.926353,148.39126 231.852797,144.605472 231.437506,140.713099 L211.118511,51.9667124 Z" stroke-linejoin="square" fill="#326DE6" fill-rule="evenodd"></path>
                    <path stroke="#326DE6" d="M176.980101,226.153063 C173.417601,231.04391 167.893599,233.644171 162.094201,233.054134 L72.1389659,233.054134 L71.9601468,233.0488 C66.706897,232.735115 61.4389014,230.273517 57.664589,226.442164 L57.5535757,226.329473 L0.864795327,155.147591 L0.758045231,155.005066 C-2.39514658,150.523883 -3.63129395,145.08629 -2.69434695,139.696684 L-2.6657757,139.55317 L17.453817,49.9617212 C18.7154913,44.5185686 22.214575,40.1869046 27.103922,37.8709907 L109.184171,-2.28686024 L109.485446,-2.36331728 C110.680316,-2.66654933 111.956691,-2.84059381 113.397071,-2.92660253 C114.42217,-2.98781378 115.226492,-3 116.928392,-3 C119.95238,-3 122.605569,-2.52471412 124.944563,-1.3370362 L206.745612,38.4119621 L206.862737,38.4720878 C211.694046,41.0877272 215.343896,45.2979656 216.884061,50.3009775 L216.941181,50.5140993 L237.361152,139.70152 L237.380114,139.865133 C238.008024,145.283021 236.710271,150.634819 233.635139,155.005066 L233.528389,155.147591 L176.980101,226.153063 Z"></path>
                </g>
                <path d="M130.459627,45.4409938 C135.316989,45.4409938 139.254658,49.3786633 139.254658,54.2360248 L139.254155,96.7449938 L181.763975,96.7453416 C186.621337,96.7453416 190.559006,100.683011 190.559006,105.540373 L190.559006,131.925466 C190.559006,136.782827 186.621337,140.720497 181.763975,140.720497 L139.254155,140.719994 L139.254658,183.229814 C139.254658,188.087175 135.316989,192.024845 130.459627,192.024845 L104.074534,192.024845 C99.2171726,192.024845 95.2795031,188.087175 95.2795031,183.229814 L95.2791553,140.719994 L52.7701863,140.720497 C47.9128248,140.720497 43.9751553,136.782827 43.9751553,131.925466 L43.9751553,105.540373 C43.9751553,100.683011 47.9128248,96.7453416 52.7701863,96.7453416 L95.2791553,96.7449938 L95.2795031,54.2360248 C95.2795031,49.3786633 99.2171726,45.4409938 104.074534,45.4409938 L130.459627,45.4409938 Z" id="Combined-Shape" fill="#FFFFFF"></path>
            </g>
        </g>
    </g>
</svg>