<?xml version="1.0" encoding="UTF-8"?>
<svg width="1334px" height="235px" viewBox="0 0 1334 235" version="1.1" xmlns="http://www.w3.org/2000/svg" xmlns:xlink="http://www.w3.org/1999/xlink">
    <!-- Generator: Sketch 59.1 (86144) - https://sketch.com -->
    <title>Group 7</title>
    <desc>Created with Sketch.</desc>
    <g id="Page-1" stroke="none" stroke-width="1" fill="none" fill-rule="evenodd">
        <g id="Artboard" transform="translate(-100.000000, -1802.000000)" fill-rule="nonzero">
            <g id="Group-7" transform="translate(100.000000, 1802.000000)">
                <path d="M73.0688154,187.571373 C60.0508483,187.571373 46.0529304,177.073039 46.0529304,164.194865 L0,173.993394 C5.24923668,208.35821 37.5142186,234.534217 73.2088883,234.534217 C112.05296,234.534217 146.977509,203.108974 146.977509,164.194865 C146.977509,132.391067 121.802629,110.327955 93.0483134,101.740682 L90.205562,100.90884 C74.0852801,96.2584484 49.8323808,90.3646127 49.8323808,70.4092488 C49.8323808,57.6012511 60.4707872,46.9628447 73.3486815,46.9628447 C86.0167462,46.9628447 96.6551526,57.6012511 96.6551526,70.2693157 L142.708223,60.5408236 C137.948822,26.31608 108.553376,0 73.0688154,0 C34.1547072,0 2.58967003,31.3552075 2.58967003,70.2693157 C2.58967003,101.380169 26.9413855,124.328296 54.7283926,134.087781 L55.571453,134.37948 C71.5291325,139.908723 99.8048344,142.848156 99.8048344,163.914999 C99.8048344,176.722997 85.6668437,187.361403 72.858846,187.361403 L73.0688154,187.571373 Z" id="Path" fill="#7A9FEA"></path>
                <path d="M260.350956,187.982365 C234.99218,187.982365 213.684613,166.761609 213.684613,141.602318 L213.684613,2.0327337 L167.01827,2.0327337 L167.01827,141.745467 C167.01827,167.512159 176.132091,189.509327 194.359593,207.736829 C212.587096,225.868993 234.631933,234.935005 260.494104,234.935005 C286.069979,234.935005 308.019337,225.868993 326.342319,207.736829 C344.569821,189.509327 353.683642,167.512159 353.683642,141.745467 L353.683642,2.0327337 L307.017299,2.0327337 L307.017299,141.602318 C307.017299,166.609794 285.467051,187.982365 260.350956,187.982365 Z" id="Path" fill="#7A9FEA"></path>
                <path d="M463.335234,2.0327337 C485.761846,2.0327337 504.848239,9.90588976 520.594551,25.6522019 C536.531681,41.4939928 544.500315,60.5803851 544.500315,82.9115186 C544.500315,105.43347 536.531681,124.424523 520.594551,139.884539 L520.594551,139.884539 L519.878843,140.584336 C504.086976,155.864117 485.239153,163.504007 463.335374,163.504007 L463.335374,163.504007 L428.693487,163.504007 L428.693487,232.78778 L382.313301,232.78778 L382.313301,2.0327337 Z M463.335234,47.9833354 L428.693347,47.9833354 L428.693347,117.553405 L463.335234,117.696554 C482.319298,117.696554 498.120269,101.779414 498.120269,82.9115186 C498.120269,64.0655707 482.241712,47.9833354 463.335234,47.9833354 L463.335234,47.9833354 Z" id="Combined-Shape" fill="#7A9FEA"></path>
                <path d="M645.56301,2.0327337 C667.989622,2.0327337 687.076014,9.90588976 702.822326,25.6522019 C718.759456,41.4939928 726.728091,60.5803851 726.728091,82.9115186 C726.728091,105.43347 718.759456,124.424523 702.822326,139.884539 L702.822326,139.884539 L702.106619,140.584336 C686.314752,155.864117 667.466929,163.504007 645.563149,163.504007 L645.563149,163.504007 L610.921263,163.504007 L610.921263,232.78778 L564.541076,232.78778 L564.541076,2.0327337 Z M645.56301,47.9833354 L610.921123,47.9833354 L610.921123,117.553405 L645.56301,117.696554 C664.547073,117.696554 680.348044,101.779414 680.348044,82.9115186 C680.348044,64.0655707 664.469488,47.9833354 645.56301,47.9833354 L645.56301,47.9833354 Z" id="Combined-Shape" fill="#7A9FEA"></path>
                <path d="M854.346798,2.65113433 C856.492399,2.65113433 858.9062,2.92338774 861.051802,4.01240139 L861.051802,4.01240139 L942.85285,43.7613997 C946.875852,45.939427 950.094254,49.4787214 951.435255,53.834776 L951.435255,53.834776 L971.818467,142.861642 C972.354867,147.48995 971.282067,152.118258 968.600065,155.929806 L968.600065,155.929806 L912.009832,226.987947 C909.05963,231.071748 904.500227,233.249775 899.672624,232.705269 L899.672624,232.705269 L809.557371,232.705269 C804.997969,232.433015 800.438566,230.254988 797.220164,226.987947 L797.220164,226.987947 L740.62993,155.929806 C737.947929,152.118258 736.875128,147.48995 737.679729,142.861642 L737.679729,142.861642 L757.79474,53.2902692 C758.867541,48.6619612 761.817743,45.1226668 765.840746,43.2168929 L765.840746,43.2168929 L847.641794,3.19564115 C849.787395,2.65113433 852.201196,2.65113433 854.346798,2.65113433 Z M867.878033,48.0921281 L841.49294,48.0921281 C836.635578,48.0921281 832.697909,52.0297976 832.697909,56.8871592 L832.697909,56.8871592 L832.697561,99.3961281 L790.188592,99.3964759 C785.33123,99.3964759 781.393561,103.334145 781.393561,108.191507 L781.393561,108.191507 L781.393561,134.5766 C781.393561,139.433962 785.33123,143.371631 790.188592,143.371631 L790.188592,143.371631 L832.697561,143.371128 L832.697909,185.880948 C832.697909,190.73831 836.635578,194.675979 841.49294,194.675979 L841.49294,194.675979 L867.878033,194.675979 C872.735394,194.675979 876.673064,190.73831 876.673064,185.880948 L876.673064,185.880948 L876.672561,143.371128 L919.182381,143.371631 C924.039742,143.371631 927.977412,139.433962 927.977412,134.5766 L927.977412,134.5766 L927.977412,108.191507 C927.977412,103.334145 924.039742,99.3964759 919.182381,99.3964759 L919.182381,99.3964759 L876.672561,99.3961281 L876.673064,56.8871592 C876.673064,52.0297976 872.735394,48.0921281 867.878033,48.0921281 L867.878033,48.0921281 Z" id="Combined-Shape" fill="#326DE6"></path>
                <path d="M1067.56417,2.0327337 C1093.25594,2.0327337 1114.03117,11.7335468 1127.97275,25.5090536 C1142.02086,39.5571572 1150.30375,52.3722844 1150.30375,77.9013284 L1150.30375,77.9013284 L1150.30375,83.9135567 C1150.30375,99.469051 1145.43671,114.117846 1135.70262,127.860082 C1127.59783,139.206681 1121.17894,144.033603 1108.075,149.189178 L1108.075,149.189178 L1161.75561,232.78778 L1105.06889,232.78778 L1038.79123,130.723048 L1038.79123,232.78778 L992.411181,232.78778 L992.268173,2.0327337 Z M1064.70121,47.9833354 L1038.64822,47.9833354 L1038.64822,111.684325 L1056.54176,111.684325 L1056.54176,111.827474 L1072.00177,111.827474 C1088.90347,111.827474 1102.49236,96.924674 1102.49236,79.3329511 C1102.49236,70.9348714 1099.43857,63.5388297 1093.33087,57.1448261 C1087.31291,51.294059 1075.88649,47.9833354 1064.70121,47.9833354 L1064.70121,47.9833354 Z" id="Combined-Shape" fill="#7A9FEA"></path>
                <polygon id="Path" fill="#7A9FEA" points="1173.06447 2.0327337 1333.10426 2.0327337 1333.10426 47.9833354 1276.41753 47.9833354 1276.41753 232.78778 1229.89434 232.78778 1229.89434 47.9833354 1173.06447 47.9833354"></polygon>
            </g>
        </g>
    </g>
</svg>