<?xml version="1.0" encoding="UTF-8"?>
<svg width="247px" height="243px" viewBox="0 0 247 243" version="1.1" xmlns="http://www.w3.org/2000/svg" xmlns:xlink="http://www.w3.org/1999/xlink">
    <!-- Generator: Sketch 60 (88103) - https://sketch.com -->
    <title>Group 3</title>
    <desc>Created with Sketch.</desc>
    <defs>
        <path d="M214.016849,51.1836417 C212.675849,46.8275871 209.457447,43.2882927 205.434444,41.1102654 L123.633396,1.36126707 C121.487795,0.272253413 119.073993,1.42108547e-14 116.928392,1.42108547e-14 C114.782791,1.42108547e-14 112.36899,1.42108547e-14 110.223388,0.544506827 L28.4223401,40.5657586 C24.3993372,42.4715325 21.4491355,46.0108268 20.3763348,50.6391349 L0.261323091,140.210508 C-0.543277383,144.838816 0.529523249,149.467124 3.21152472,153.278672 L59.8017586,224.336813 C63.0201605,227.603854 67.5795632,229.781881 72.1389659,230.054134 L162.254219,230.054134 C167.081822,230.598641 171.641224,228.420614 174.591426,224.336813 L231.18166,153.278672 C233.863661,149.467124 234.936462,144.838816 234.400061,140.210508 L214.016849,51.1836417 Z" id="path-1"></path>
    </defs>
    <g id="Page-1" stroke="none" stroke-width="1" fill="none" fill-rule="evenodd">
        <g id="Mini-logos" transform="translate(-388.000000, -817.000000)">
            <g id="Group-3" transform="translate(394.000000, 823.000000)">
                <g id="Combined-Shape-Copy" fill-rule="nonzero" stroke-width="6">
                    <path stroke="#FFFFFF" d="M211.118511,51.9667124 C210.046203,48.5864822 207.497527,45.6552959 204.061647,43.7786208 L122.275608,4.03641412 C120.857657,3.31672405 119.089608,3 116.928392,3 C115.344841,3 114.621762,3.01095532 113.754709,3.06272924 C112.791672,3.1202346 111.965164,3.22426967 111.243737,3.38510435 L29.7066767,43.2769353 C26.4363868,44.8261346 24.1460843,47.6613972 23.3034336,51.2964724 L3.20519495,140.793156 C2.5688891,144.558115 3.42447549,148.330495 5.61623665,151.482558 L62.0455618,222.338652 C64.7670413,225.047801 68.5586523,226.811399 72.232968,227.054134 L162.42287,227.054134 L162.590458,227.073037 C166.276661,227.488805 169.804223,225.840466 172.159612,222.580032 L172.244697,222.467893 L228.776937,151.482571 C230.926353,148.39126 231.852797,144.605472 231.437506,140.713099 L211.118511,51.9667124 Z" stroke-linejoin="square" fill="#326DE6" fill-rule="evenodd"></path>
                    <path stroke="#326DE6" d="M176.980101,226.153063 C173.417601,231.04391 167.893599,233.644171 162.094201,233.054134 L72.1389659,233.054134 L71.9601468,233.0488 C66.706897,232.735115 61.4389014,230.273517 57.664589,226.442164 L57.5535757,226.329473 L0.864795327,155.147591 L0.758045231,155.005066 C-2.39514658,150.523883 -3.63129395,145.08629 -2.69434695,139.696684 L-2.6657757,139.55317 L17.453817,49.9617212 C18.7154913,44.5185686 22.214575,40.1869046 27.103922,37.8709907 L109.184171,-2.28686024 L109.485446,-2.36331728 C110.680316,-2.66654933 111.956691,-2.84059381 113.397071,-2.92660253 C114.42217,-2.98781378 115.226492,-3 116.928392,-3 C119.95238,-3 122.605569,-2.52471412 124.944563,-1.3370362 L206.745612,38.4119621 L206.862737,38.4720878 C211.694046,41.0877272 215.343896,45.2979656 216.884061,50.3009775 L216.941181,50.5140993 L237.361152,139.70152 L237.380114,139.865133 C238.008024,145.283021 236.710271,150.634819 233.635139,155.005066 L233.528389,155.147591 L176.980101,226.153063 Z"></path>
                </g>
                <g id="Group-14" transform="translate(122.500000, 110.000000) scale(1, -1) translate(-122.500000, -110.000000) translate(53.000000, 35.000000)">
                    <g id="Group-2" transform="translate(0.313080, 6.313080)">
                        <path d="M51.2361181,56.9242236 C51.3400024,56.9995772 51.3478457,57.0052599 51.5103016,57.1229622 C51.911943,57.4138359 51.911943,57.4138359 52.3939084,57.7627416 C52.8759767,58.1117219 52.8759767,58.1117219 53.2785402,58.4032633 C53.4500096,58.527496 53.4500096,58.527496 53.5722128,58.6161378 C53.6223711,58.6525537 53.6223711,58.6525537 53.6576077,58.6781978 C53.6511509,58.6691661 53.6503437,58.668037 53.8337103,58.8250617 C53.8666361,58.8521508 53.9037199,58.8827258 53.9457054,58.9173422 L59.4001711,64.3720498 C59.405764,64.3788339 59.4112514,64.38549 59.4166357,64.3920213 C59.4231666,64.3974058 59.4298224,64.4028934 59.4366062,64.4084865 L66.6840636,71.6562653 L61.3280039,77.0150062 L60.0625672,76.4331964 C59.5649308,76.2043982 59.0221768,76.0857005 58.4609316,76.0857005 C57.432361,76.0857005 56.4775476,76.4811552 55.7512658,77.2083587 L55.5501982,77.4094352 C54.8236667,78.135999 54.4275531,79.0917001 54.4275531,80.1179972 C54.4275531,80.6793039 54.546253,81.2221164 54.7750536,81.719802 L55.3566038,82.9847865 L23.4576442,114.887946 C21.8732323,116.472428 19.7558739,117.349578 17.5146544,117.349578 C15.2723183,117.349578 13.1548916,116.472593 11.6202467,114.936176 L0.894778493,104.928525 C-0.687900245,103.345776 -1.56265989,101.232572 -1.56265989,98.9934937 C-1.56265989,96.7539074 -0.683107177,94.6377679 0.904224624,93.0503657 L32.8046427,61.1485329 L34.0697717,61.7302012 C34.567408,61.9589994 35.1101621,62.0776971 35.6714072,62.0776971 C36.6987437,62.0776971 37.6535232,61.682161 38.3797236,60.9550389 L38.5807912,60.7539624 C39.3074044,60.027317 39.7034363,59.0715821 39.7034363,58.0440509 C39.7034363,57.4827442 39.5847364,56.9399317 39.3559359,56.4422461 L38.7744999,55.1775103 L44.1307694,49.8185597 L51.2361181,56.9242236 Z" id="Path" stroke="#326DE6" stroke-width="4" fill="#FFFFFF"></path>
                        <path d="M98.0799705,14.5925932 C98.0780641,14.5976561 98.0761419,14.6027372 98.0742037,14.6078378 C98.0771773,14.5999984 98.0798035,14.5929578 98.0818101,14.5876054 Z M102.051797,21.6770433 C102.034482,21.6770968 102.014197,21.6771226 101.990105,21.6771383 C101.989775,21.6774076 101.989446,21.6776766 101.989117,21.6779453 C102.007701,21.6781462 102.01428,21.6779835 102.02776,21.6774918 C102.032044,21.6773456 102.02933,21.6774705 102.0239,21.6777204 C102.010477,21.6783477 102.007286,21.6784968 101.987532,21.6792393 C101.985018,21.6812926 101.982524,21.6833293 101.98005,21.6853494 L61.5878662,62.089525 L54.0411799,53.5945047 L55.3746548,52.2614256 L94.2696038,13.3780204 C94.2743981,13.3630639 94.279303,13.3479041 94.2842733,13.3327422 C94.28443,13.3292893 94.2846111,13.3253761 94.2848398,13.3204349 C94.2855479,13.3048409 94.2855479,13.3048409 94.2855145,13.3056121 C94.2853323,13.3110031 94.2852612,13.3131082 94.2855799,13.3382026 C94.2860647,13.3648774 94.2860477,13.3633785 94.2860311,13.3618986 C94.2861076,13.3769313 94.286384,13.3962885 94.286746,13.4216434 C94.2864892,13.4007009 94.2862656,13.3824604 94.286082,13.3663957 C94.2856604,13.3445398 94.2857658,13.3523432 94.2859006,13.3620359 C94.2856526,13.3617423 94.3041574,13.3414795 94.3471845,13.2943648 C94.3474316,13.2940921 94.3474316,13.2940921 94.3476787,13.2938193 C94.4019817,13.2338097 94.4123416,13.2223611 94.448736,13.1826385 C94.3963244,13.2421217 94.3373288,13.3226376 94.2808764,13.4235759 C94.2811933,13.4143961 94.2815467,13.4042478 94.2822699,13.383473 C94.2826051,13.3745201 94.2828638,13.3676073 94.2830767,13.3619888 C94.2861079,13.3552648 94.289246,13.3483245 94.2924992,13.3411461 C94.2601955,13.4058454 94.2700902,13.3772678 94.2557183,13.4215796 C94.2563425,13.4196553 94.2564084,13.419452 94.2571443,13.4171814 C94.2611896,13.4043809 94.2653533,13.3912806 94.2696038,13.3780204 L94.2809762,13.3666514 C94.2816706,13.3651087 94.2823708,13.3635546 94.2830767,13.3619888 C94.2836034,13.3480815 94.2838486,13.3421038 94.2842733,13.3327422 C94.3008719,13.2821085 94.3182004,13.2314504 94.3345794,13.1882576 C94.3269814,13.2083141 94.3102855,13.2637041 94.2947903,13.3525915 C94.2856623,13.3290739 94.2854725,13.3055928 94.2855258,13.2866088 L93.8156139,6.58180576 L110.219285,-2.52107222 L117.790931,5.88781938 L108.767773,22.1478338 L107.497193,22.0587841 L102.051797,21.6770433 Z M102.015518,21.6629608 C102.018004,21.6620095 102.020597,21.661007 102.023301,21.6599507 C102.092301,21.6304504 102.092301,21.6304504 102.082405,21.6348013 C102.06211,21.6445461 102.06211,21.6445461 102.011235,21.6681152 C102.009282,21.6689971 102.009523,21.6686195 102.015518,21.6629608 Z M94.2809762,13.3666514 L94.3147651,13.3328725 C94.296362,13.3517387 94.2858211,13.3625448 94.2856702,13.3622884 C94.2942074,13.3559354 94.2936262,13.3593268 94.2930472,13.3627654 C94.2833214,13.4205287 94.2805028,13.448191 94.2799096,13.4543366 C94.280443,13.4361718 94.2806504,13.43012 94.2808764,13.4235759 C94.2501586,13.4784999 94.2201938,13.5394707 94.1919073,13.6069802 C94.1559939,13.6992904 94.1538773,13.7047307 94.1440998,13.736005 C94.2000219,13.5572629 94.2142821,13.5148098 94.2809762,13.3666514 Z M94.2924992,13.3411461 C94.2945908,13.3365309 94.2967301,13.3318173 94.2989192,13.3269996 C94.2904031,13.3453418 94.2842076,13.3581433 94.2796351,13.367227 Z" id="Path" stroke="#326DE6" stroke-width="4" fill="#FFFFFF"></path>
                        <path d="M35.182399,73.8290196 C34.3931775,73.0397414 33.1150698,73.0397414 32.3258483,73.8290196 L8.27883653,97.8764142 C7.48961508,98.6643456 7.48961508,99.945239 8.27883653,100.73317 C8.67344725,101.127809 9.19061625,101.324456 9.70778525,101.324456 C10.2249543,101.324456 10.7421233,101.127809 11.136734,100.73317 L35.182399,76.6857758 C35.9716204,75.8964975 35.9716204,74.6169509 35.182399,73.8290196 Z" id="Shape" fill="#326DE6" fill-rule="nonzero"></path>
                        <path d="M39.6883132,81.1914845 L15.6413014,105.238879 C14.85208,106.02681 14.85208,107.307704 15.6413014,108.095635 C16.0359121,108.490274 16.5530811,108.68692 17.0702501,108.68692 C17.5874191,108.68692 18.1045881,108.490274 18.4991988,108.095635 L42.5448638,84.0482406 C43.3340853,83.2603093 43.3340853,81.9794158 42.5448638,81.1914845 C41.7556424,80.4022063 40.4775346,80.4022063 39.6883132,81.1914845 Z" id="Shape" fill="#326DE6" fill-rule="nonzero"></path>
                    </g>
                    <path d="M133.018561,125.128696 L125.100445,125.128696 L124.528384,124.102573 C121.964197,119.503114 119.68241,118.583578 117.34867,119.779532 C116.404109,120.263584 115.472341,121.098271 114.729644,122.065261 C114.436917,122.446392 114.198511,122.818234 114.048066,123.113461 L114.463395,125.034076 L112.023939,125.07193 C107.167198,125.147294 103.281365,125.147294 100.364592,125.101946 C99.9370633,125.0953 99.5699562,125.088163 99.2632417,125.081007 C99.133299,125.077975 99.0327701,125.075391 98.9616452,125.073414 C98.9585122,125.073536 98.9552471,125.073664 98.9518411,125.073798 C97.886323,125.109322 96.6056502,124.965481 95.3140816,124.467214 C94.133847,124.011898 93.1217047,123.305455 92.3726876,122.299086 C91.9987557,121.796676 90.827738,120.729364 89.4558277,119.764793 C87.5695105,118.43855 85.4802746,117.38978 83.3398534,116.796992 C77.6878328,115.23167 72.391627,116.924248 67.6098354,123.146585 L67.4664007,123.313376 C65.2945568,125.574431 63.1765133,126.302334 61.4519133,125.94552 C61.3420568,125.922791 61.2418439,125.896681 61.1515017,125.868494 L56.245582,124.604193 C55.7051324,124.505506 55.0752125,124.250733 54.4568417,123.738394 C52.8173148,122.379996 52.3448247,120.027715 53.2866353,116.900707 C56.4758917,105.568101 63.0635748,97.9639009 71.9919377,93.5494278 C76.018787,91.5584226 80.3067131,90.328296 84.6513089,89.7100514 C87.5890246,89.2920085 90.1706494,89.1995595 92.1970803,89.2925572 C92.3905524,89.3014361 92.5432076,89.3106116 92.6528215,89.3185569 C92.7765318,89.3185593 92.8865589,89.3185744 93.5648321,89.3186676 C94.3519119,89.3188065 95.228931,89.3190565 96.1734085,89.3194455 C98.8719568,89.3205569 101.570523,89.3225573 104.089308,89.3256693 C107.32392,89.3296657 110.020446,89.3352145 112.000309,89.3425406 L113.071131,89.3465029 L113.661499,90.2398915 C117.533048,96.0986107 120.889165,96.1642016 124.705327,90.2469028 L125.296094,89.3308656 L126.386108,89.3308656 C127.241809,89.3308656 127.985024,89.3201385 129.243583,89.2941083 C134.446182,89.1865055 135.91455,89.2941162 137.738327,90.3632625 C140.136126,91.7689156 141.06882,94.4184567 141.06882,98.9191462 C141.06882,102.734973 141.060663,105.981454 141.043181,110.451915 C141.017603,116.992518 141.017572,117.001567 141.017572,118.989575 C141.017572,122.133625 139.265122,124.109456 136.618113,124.85206 C135.459972,125.17697 134.292185,125.235463 133.232333,125.148793 C133.152085,125.142231 133.08062,125.135394 133.018561,125.128696 Z" id="Path-2" stroke="#326DE6" stroke-width="4" fill="#FFFFFF" transform="translate(96.937728, 107.640809) scale(1, -1) rotate(45.000000) translate(-96.937728, -107.640809) "></path>
                    <path d="M38.1202161,-9.04938531 L56.9563111,-9.04938531 L57.0425201,-7.1395736 C57.0511189,-6.94908211 57.0511189,-6.94908211 57.092024,-6.04400415 C57.1480319,-4.80545299 57.1792868,-4.11470946 57.2321447,-2.94759567 C57.3831685,0.38704143 57.5517942,4.10279063 57.7338203,8.10437057 C58.2538935,19.5374214 58.7771535,30.9704567 59.2699874,41.6411868 C59.3100589,42.508651 59.3100589,42.508651 59.3501447,43.3757885 C60.4058305,66.2081572 61.1611761,82.0502688 61.4848412,87.9259013 L61.4878688,88.0359065 C61.4878688,96.8729115 55.4538323,102.635452 47.7804808,102.618928 C40.1182451,102.602427 34.0817066,96.8288315 34.0817066,88.0359065 C34.0817066,80.4724169 34.6400253,64.5718072 35.6070182,42.7791382 C35.7482824,39.595533 35.8969448,36.3178013 36.052144,32.9602313 C36.482841,23.6425539 36.9442843,14.1248783 37.4057267,4.91733061 C37.5672317,1.69468633 37.7172026,-1.25904445 37.8517955,-3.88008053 C37.8989064,-4.79750941 37.9407312,-5.60784264 37.9767892,-6.30310718 C37.9984296,-6.72037211 38.013335,-7.00648189 38.0210465,-7.15387893 L38.1202161,-9.04938531 Z" id="Path-17" stroke="#326DE6" stroke-width="4" fill="#FFFFFF" transform="translate(47.784788, 46.784788) scale(1, -1) rotate(45.000000) translate(-47.784788, -46.784788) "></path>
                </g>
            </g>
        </g>
    </g>
</svg>