<?xml version="1.0" encoding="UTF-8"?>
<svg width="1712px" height="165px" viewBox="0 0 1712 165" version="1.1" xmlns="http://www.w3.org/2000/svg" xmlns:xlink="http://www.w3.org/1999/xlink">
    <!-- Generator: Sketch 60 (88103) - https://sketch.com -->
    <title>Group 8</title>
    <desc>Created with Sketch.</desc>
    <g id="Page-1" stroke="none" stroke-width="1" fill="none" fill-rule="evenodd">
        <g id="Logos" transform="translate(-95.000000, -2319.000000)">
            <g id="Group-8" transform="translate(95.000000, 2319.000000)">
                <path d="M73.0618803,162.342901 L73.0618803,30.1188803 L114.079076,30.1188803 L114.079076,2.1360908 L0,2.1360908 L0,30.1188803 L41.2308272,30.1188803 L41.2308272,162.342901 L73.0618803,162.342901 Z M164.068784,162.342901 L164.068784,94.4152134 L179.877495,94.4152134 L214.913016,162.342901 L251.016694,162.342901 L212.13581,92.2791226 C221.962847,89.7158136 229.974018,84.6247983 236.169323,77.0060733 C242.364629,69.3873484 245.462282,60.3801677 245.462282,49.9845247 C245.462282,36.5983546 240.86921,25.2770734 231.683068,16.020681 C222.496925,6.76428862 211.281285,2.1360908 198.036149,2.1360908 L131.810468,2.1360908 L131.810468,162.342901 L164.068784,162.342901 Z M196.754362,69.422951 L164.068784,69.422951 L164.068784,30.1188803 L196.754362,30.1188803 C202.166352,30.1188803 206.759423,32.0057594 210.533576,35.7795209 C214.307729,39.5532824 216.194804,44.2170796 216.194804,49.7709156 C216.194804,55.3247517 214.343332,59.9885489 210.640392,63.7623104 C206.937451,67.5360719 202.308774,69.422951 196.754362,69.422951 Z M511.178863,164.478992 C529.551148,164.478992 545.075019,159.281172 557.750471,148.885529 C570.425923,138.489886 576.76365,125.744546 576.76365,110.649503 L576.76365,2.1360908 L544.505335,2.1360908 L544.505335,104.882058 C544.505335,113.568829 541.26526,120.973941 534.785114,127.097403 C528.304967,133.220864 520.436215,136.282593 511.178863,136.282593 C501.921511,136.282593 494.052758,133.220864 487.572612,127.097403 C481.092466,120.973941 477.852391,113.568829 477.852391,104.882058 L477.852391,2.1360908 L445.594076,2.1360908 L445.594076,110.649503 C445.594076,125.744546 451.931803,138.489886 464.607255,148.885529 C477.282707,159.281172 492.806577,164.478992 511.178863,164.478992 Z M675.034015,162.342901 C688.563992,162.342901 699.779632,158.426735 708.680934,150.594401 C717.582236,142.762067 722.032886,132.152819 722.032886,118.766648 C722.032886,108.65582 719.362495,100.325066 714.021715,93.7743861 C708.680934,87.2237066 701.381866,82.5243068 692.124514,79.6761868 C704.087862,72.8406963 710.069537,61.7330241 710.069537,46.3531704 C710.069537,32.8245964 705.583281,22.0729372 696.610769,14.0981993 C687.638258,6.12346138 676.315803,2.1360908 662.643404,2.1360908 L602.82666,2.1360908 L602.82666,162.342901 L675.034015,162.342901 Z M658.798042,69.2093419 L634.871344,69.2093419 L634.871344,30.1188803 L658.798042,30.1188803 C664.067613,30.1188803 668.589472,32.041362 672.363625,35.8863254 C676.137778,39.7312889 678.024853,44.2882815 678.024853,49.5573066 C678.024853,54.8263316 676.137778,59.4189268 672.363625,63.3350922 C668.589472,67.2512576 664.067613,69.2093419 658.798042,69.2093419 Z M670.334128,134.146502 L634.871344,134.146502 L634.871344,95.2696497 L670.334128,95.2696497 C675.746118,95.2696497 680.33919,97.1921314 684.113343,101.037095 C687.887495,104.882058 689.77457,109.439051 689.77457,114.708076 C689.77457,119.977101 687.887495,124.534094 684.113343,128.379057 C680.33919,132.224021 675.746118,134.146502 670.334128,134.146502 Z M828.8485,162.342901 L828.8485,134.146502 L774.799799,134.146502 L774.799799,2.1360908 L742.541484,2.1360908 L742.541484,162.342901 L828.8485,162.342901 Z M943.56847,162.342901 L943.56847,134.146502 L880.760889,134.146502 L880.760889,96.3376951 L934.595958,96.3376951 L934.595958,68.1412965 L880.760889,68.1412965 L880.760889,30.1188803 L943.56847,30.1188803 L943.56847,2.1360908 L848.502573,2.1360908 L848.502573,162.342901 L943.56847,162.342901 Z M1021.97113,164.478992 C1039.34647,164.478992 1053.58855,160.420419 1064.69738,152.303274 C1075.8062,144.186129 1081.36061,132.366428 1081.36061,116.844167 C1081.36061,111.859956 1080.71972,107.267361 1079.43793,103.066381 C1078.15614,98.8654014 1076.05544,95.0916432 1073.13581,91.7450999 C1070.21618,88.3985565 1067.43898,85.5504365 1064.80419,83.2007367 C1062.16941,80.8510368 1058.46646,78.4657343 1053.69537,76.0448325 C1048.92427,73.6239307 1045.18573,71.8438528 1042.47973,70.7046055 C1039.77373,69.5653581 1035.78595,67.9276874 1030.51638,65.7915966 C1025.24681,63.6555058 1021.29463,62.0178351 1018.65985,60.8785878 C1016.02506,59.7393405 1013.03423,58.1728717 1009.68734,56.179188 C1006.34044,54.1855044 1003.9549,52.1206155 1002.53069,49.9845247 C1001.10648,47.8484339 1000.39438,45.498734 1000.39438,42.9354251 C1000.39438,38.0936182 1002.42387,34.2130554 1006.48287,31.2937302 C1010.54186,28.374405 1015.77583,26.9147441 1022.18476,26.9147441 C1036.99653,26.9147441 1049.31593,32.4685802 1059.14296,43.5762523 L1080.07883,23.2833897 C1065.5519,7.76112882 1045.96904,-8.52651283e-14 1021.33024,-8.52651283e-14 C1005.66395,-8.52651283e-14 992.739259,4.05857252 982.556169,12.1757176 C972.37308,20.2928626 967.281536,30.9733166 967.281536,44.2170796 C967.281536,49.2012903 968.207271,53.7938856 970.058742,57.9948652 C971.910214,62.1958449 974.082129,65.6847921 976.574495,68.4617101 C979.06686,71.2386282 982.591775,73.9799436 987.149241,76.6856597 C991.706706,79.3913758 995.62328,81.491864 998.898958,82.9871276 C1002.17464,84.4823911 1006.58968,86.2980683 1012.14409,88.4341591 C1017.27124,90.4278428 1021.00979,91.887507 1023.35973,92.8131453 C1025.70968,93.7387835 1028.87854,95.2340471 1032.86632,97.2989359 C1036.85411,99.3638248 1039.73813,101.215101 1041.51839,102.852772 C1043.29865,104.490443 1044.93649,106.590931 1046.43191,109.15424 C1047.92733,111.717549 1048.67503,114.423265 1048.67503,117.271385 C1048.53261,123.110032 1046.14707,127.453419 1041.51839,130.301539 C1036.88971,133.149659 1030.73001,134.57372 1023.03929,134.57372 C1004.38216,134.57372 990.353709,127.311012 980.953935,112.785594 L958.736287,134.787329 C965.572487,143.758911 974.651814,150.950418 985.974269,156.361847 C997.296724,161.773275 1009.29568,164.478992 1021.97113,164.478992 Z M1134.34116,162.342901 L1134.34116,96.3376951 L1203.13041,96.3376951 L1203.13041,162.342901 L1235.38873,162.342901 L1235.38873,2.1360908 L1203.13041,2.1360908 L1203.13041,67.9276874 L1134.34116,67.9276874 L1134.34116,2.1360908 L1102.08284,2.1360908 L1102.08284,162.342901 L1134.34116,162.342901 Z M1334.51362,164.478992 C1357.30095,164.478992 1376.02929,156.539853 1390.69863,140.661579 C1405.36798,124.783305 1412.70265,105.309276 1412.70265,82.2394958 C1412.70265,59.1697152 1405.36798,39.6956863 1390.69863,23.8174124 C1376.02929,7.93913856 1357.30095,-8.52651283e-14 1334.51362,-8.52651283e-14 C1311.58387,-8.52651283e-14 1292.81992,7.90353596 1278.22179,23.7106079 C1263.62366,39.5176798 1256.32459,59.027308 1256.32459,82.2394958 C1256.32459,105.451684 1263.62366,124.961312 1278.22179,140.768384 C1292.81992,156.575456 1311.58387,164.478992 1334.51362,164.478992 Z M1334.51362,133.292066 C1319.9867,133.292066 1308.45061,128.485862 1299.90536,118.873453 C1291.36011,109.261044 1287.08749,97.0497243 1287.08749,82.2394958 C1287.08749,67.2868602 1291.3245,55.0043381 1299.79854,45.3919295 C1308.27258,35.7795209 1319.84427,30.9733166 1334.51362,30.9733166 C1349.04054,30.9733166 1360.50542,35.7795209 1368.90825,45.3919295 C1377.31107,55.0043381 1381.51249,67.2868602 1381.51249,82.2394958 C1381.51249,97.0497243 1377.31107,109.261044 1368.90825,118.873453 C1360.50542,128.485862 1349.04054,133.292066 1334.51362,133.292066 Z M1506.91402,164.478992 C1529.70135,164.478992 1548.42969,156.539853 1563.09903,140.661579 C1577.76838,124.783305 1585.10305,105.309276 1585.10305,82.2394958 C1585.10305,59.1697152 1577.76838,39.6956863 1563.09903,23.8174124 C1548.42969,7.93913856 1529.70135,-8.52651283e-14 1506.91402,-8.52651283e-14 C1483.98427,-8.52651283e-14 1465.22032,7.90353596 1450.62219,23.7106079 C1436.02406,39.5176798 1428.72499,59.027308 1428.72499,82.2394958 C1428.72499,105.451684 1436.02406,124.961312 1450.62219,140.768384 C1465.22032,156.575456 1483.98427,164.478992 1506.91402,164.478992 Z M1506.91402,133.292066 C1492.3871,133.292066 1480.85101,128.485862 1472.30576,118.873453 C1463.76051,109.261044 1459.48789,97.0497243 1459.48789,82.2394958 C1459.48789,67.2868602 1463.72491,55.0043381 1472.19895,45.3919295 C1480.67299,35.7795209 1492.24467,30.9733166 1506.91402,30.9733166 C1521.44094,30.9733166 1532.90582,35.7795209 1541.30865,45.3919295 C1549.71148,55.0043381 1553.91289,67.2868602 1553.91289,82.2394958 C1553.91289,97.0497243 1549.71148,109.261044 1541.30865,118.873453 C1532.90582,128.485862 1521.44094,133.292066 1506.91402,133.292066 Z M1670.9828,162.342901 L1670.9828,30.1188803 L1712,30.1188803 L1712,2.1360908 L1597.92092,2.1360908 L1597.92092,30.1188803 L1639.15175,30.1188803 L1639.15175,162.342901 L1670.9828,162.342901 Z" id="TROUBLESHOOT" fill="#7A9FEA" fill-rule="nonzero"></path>
                <g id="Group-3" transform="translate(260.000000, 0.000000)">
                    <path d="M151.942698,36.3381699 C150.990646,33.2455597 148.70572,30.7328139 145.849562,29.1865088 L87.7743592,0.966440688 C86.2510752,0.193288138 84.5373807,1.42108547e-14 83.0140966,1.42108547e-14 C81.4908126,1.42108547e-14 79.7771181,1.42108547e-14 78.2538341,0.386576275 L20.1786311,28.7999325 C17.3224732,30.1529495 15.2279576,32.6656952 14.4663156,35.9515936 L0.185528082,99.5433909 C-0.385703424,102.829289 0.375938583,106.115188 2.28004352,108.821221 L42.4566598,159.269425 C44.7415858,161.588883 47.9785643,163.135188 51.2155429,163.328476 L115.193471,163.328476 C118.62086,163.715053 121.857839,162.168747 123.952355,159.269425 L164.12897,108.821221 C166.033075,106.115188 166.794717,102.829289 166.413896,99.5433909 L151.942698,36.3381699 Z" id="Combined-Shape-Copy" fill="#326DE6" fill-rule="nonzero"></path>
                    <g id="Group-14" transform="translate(87.127706, 78.341991) scale(1, -1) translate(-87.127706, -78.341991) translate(37.627706, 25.341991)">
                        <g id="Group-2" transform="translate(0.222273, 4.482013)">
                            <path d="M38.1178693,41.682153 C38.0889234,41.6587938 38.0679121,41.6423452 38.0510602,41.629977 C38.1010769,41.6654826 38.1647304,41.7179639 38.2991155,41.8287624 L42.1715501,45.7013687 C42.1755208,45.7061851 42.1794166,45.7109107 42.1832392,45.7155476 C42.1878759,45.7193703 42.1926012,45.7232663 42.1974174,45.7272372 L47.3427984,50.8728464 L43.5402279,54.6773204 L42.6418226,54.2642606 C42.2885223,54.1018238 41.9031905,54.0175536 41.5047307,54.0175536 C40.7744901,54.0175536 40.0966139,54.2983093 39.5809853,54.8145923 L39.4382359,54.957348 C38.92243,55.4731768 38.6412065,56.1516832 38.6412065,56.8803097 C38.6412065,57.2788131 38.7254783,57.6641865 38.8879168,58.0175217 L39.3007923,58.915606 L16.6539119,81.565468 C15.529048,82.6903818 14.0258152,83.3131206 12.4346464,83.3131206 C10.8426848,83.3131206 9.33940355,82.6904986 8.24987208,81.5997091 L0.635253995,74.4947101 C-0.488379395,73.3710269 -1.10942087,71.8707436 -1.10942087,70.2810951 C-1.10942087,68.6910858 -0.484976524,67.1887184 0.641960339,66.0617315 L23.2898762,43.4128112 L24.188063,43.8257705 C24.5413633,43.9882074 24.9266951,44.0724776 25.3251549,44.0724776 C26.0545194,44.0724776 26.7323714,43.7916641 27.2479423,43.2754389 L27.3906916,43.1326832 C27.9065555,42.6167965 28.187721,41.9382661 28.187721,41.2087634 C28.187721,40.81026 28.1034492,40.4248866 27.9410108,40.0715514 L27.5282164,39.1736437 L31.3309358,35.3690207 L36.4538706,40.4921828 C36.3142101,40.3657566 36.3142101,40.3657566 36.5700843,40.5548303 C36.8552323,40.761338 36.8552323,40.761338 37.1974068,41.009046 C37.5396545,41.2568069 37.5396545,41.2568069 37.8254571,41.4637886 C37.9759916,41.5701433 38.0141249,41.5970849 38.130659,41.6921644 Z" id="Path" stroke="#326DE6" stroke-width="2.83982684" fill="#FFFFFF"></path>
                            <path d="M72.4523583,15.3897623 C72.4400648,15.3898003 72.425664,15.3898186 72.4085592,15.3898298 C72.4083252,15.390021 72.4080913,15.390212 72.4078577,15.3904027 C72.4210515,15.3905454 72.4257227,15.3904299 72.4352926,15.3900807 C72.4383346,15.389977 72.4364072,15.3900657 72.4325525,15.390243 C72.4230226,15.3906884 72.4207575,15.3907943 72.4067329,15.3913214 C72.4049479,15.3927792 72.4031772,15.3942251 72.4014208,15.3956593 L43.7247188,44.0808749 L38.3668983,38.0497782 L39.3136078,37.1033497 L66.9272976,9.49785553 C66.9308055,9.48689477 66.933858,9.47756725 66.9377332,9.46609489 C66.9378489,9.46353956 66.9379828,9.4606445 66.9381546,9.45693211 C66.9386574,9.44586105 66.9386574,9.44586105 66.9386337,9.44640856 C66.9385043,9.45023598 66.9384538,9.45173049 66.9386801,9.46954643 C66.9390243,9.48848437 66.9390122,9.48742023 66.9390004,9.48636958 C66.9390547,9.49704213 66.939251,9.51078493 66.939508,9.52878581 C66.9393257,9.51391755 66.9391669,9.50096754 66.9390366,9.48956231 C66.9387373,9.4740456 66.9388121,9.47958567 66.9389078,9.48646707 C66.9387317,9.48625861 66.9518693,9.47187292 66.9824167,9.43842351 C66.9825921,9.43822988 66.9825921,9.43822988 66.9827676,9.43803622 C67.0265666,9.38963435 67.0300994,9.38573029 67.0662143,9.34633711 C67.0244786,9.39166519 66.978846,9.45236946 66.9353408,9.53015776 C66.9355658,9.5236405 66.9358167,9.51643566 66.9363302,9.50168648 C66.9371444,9.47993493 66.9373237,9.47514599 66.9377332,9.46609489 C66.9444386,9.4462441 66.9536072,9.41997169 66.97186,9.36770518 C66.9661455,9.38390413 66.9553228,9.42180276 66.9452191,9.47976194 C66.9387386,9.46306546 66.9386039,9.44639492 66.9386417,9.43291708 L66.6050246,4.67279716 L78.2509209,-1.78985214 L83.6264621,4.18009688 L77.22041,15.7240032 L76.3183536,15.6607818 L72.4523583,15.3897623 Z M72.4266012,15.3797643 C72.4283663,15.379089 72.4302074,15.3783773 72.4321269,15.3776273 C72.4811138,15.3566834 72.4811138,15.3566834 72.4740884,15.3597724 C72.4596797,15.3666907 72.4596797,15.3666907 72.4235605,15.3834238 C72.422174,15.3840499 72.4223454,15.3837818 72.4266012,15.3797643 Z M66.9272976,9.49785553 L66.9594004,9.46576229 C66.9463349,9.47915646 66.9388513,9.48682837 66.9387442,9.48664629 C66.9448053,9.48213598 66.9443926,9.48454368 66.9439816,9.48698497 C66.9370767,9.5279944 66.9350756,9.54763341 66.9346544,9.55199658 C66.9350331,9.53910036 66.9351804,9.53480378 66.9353408,9.53015776 C66.9135325,9.56915146 66.8922588,9.61243807 66.8721766,9.66036688 C66.8450829,9.73000741 66.8450829,9.73000741 66.8368599,9.75637586 C66.8529658,9.69867357 66.8819509,9.61254523 66.930268,9.50175051 C66.908591,9.5528849 66.9023271,9.57160466 66.9173527,9.5291318 C66.9179182,9.52738856 66.9179182,9.52738856 66.918492,9.52561794 C66.9219872,9.51455823 66.9247614,9.50578003 66.9272976,9.49785553 Z M66.930268,9.50175051 C66.9359572,9.48870455 66.9419145,9.47531658 66.9481504,9.46159277 C66.9394555,9.48032028 66.931673,9.49820829 66.9253729,9.513132 Z" id="Path" stroke="#326DE6" stroke-width="2.83982684" fill="#FFFFFF"></path>
                            <path d="M24.9779802,52.4154079 C24.4176672,51.8550545 23.510266,51.8550545 22.9499529,52.4154079 L5.87761554,69.488017 C5.31730248,70.0474142 5.31730248,70.9567931 5.87761554,71.5161902 C6.15777207,71.7963669 6.52493968,71.9359771 6.89210728,71.9359771 C7.25927488,71.9359771 7.62644249,71.7963669 7.90659902,71.5161902 L24.9779802,54.4435811 C25.5382933,53.8832277 25.5382933,52.974805 24.9779802,52.4154079 Z" id="Shape" fill="#326DE6" fill-rule="nonzero"></path>
                            <path d="M28.1769842,57.6424392 L11.1046469,74.7150484 C10.5443338,75.2744455 10.5443338,76.1838244 11.1046469,76.7432215 C11.3848034,77.0233982 11.751971,77.1630085 12.1191386,77.1630085 C12.4863062,77.1630085 12.8534738,77.0233982 13.1336304,76.7432215 L30.2050116,59.6706124 C30.7653246,59.1112153 30.7653246,58.2018363 30.2050116,57.6424392 C29.6446985,57.0820858 28.7372973,57.0820858 28.1769842,57.6424392 Z" id="Shape" fill="#326DE6" fill-rule="nonzero"></path>
                        </g>
                        <path d="M94.4374197,88.8359573 L88.8159006,88.8359573 L88.409762,88.1074546 C86.5892999,84.8420379 84.96933,84.1892069 83.3124754,85.0382824 C82.641878,85.3819383 81.980363,85.97453 81.4530809,86.6610512 C81.2452574,86.9316374 81.0759993,87.1956297 80.9691896,87.4052274 L81.2640552,88.7687814 L79.5321474,88.7956561 C76.0840712,88.8491612 73.3252982,88.8491612 71.2545154,88.8169663 C70.7808226,88.8096017 70.4486931,88.8021897 70.2580038,88.7967281 C70.2559266,88.7968095 70.2537682,88.796894 70.2515236,88.7969819 C69.4950518,88.8222023 68.5858296,88.720082 67.6688718,88.366334 C66.8309563,88.0430793 66.1123791,87.5415353 65.5806094,86.8270567 C65.3151339,86.4703675 64.483762,85.7126221 63.5097651,85.0278185 C62.1705616,84.0862432 60.6872945,83.3416622 59.1676881,82.9208084 C55.1549982,81.8094972 51.3949214,83.0111546 48.0000563,87.4287445 L47.8982239,87.5471588 C46.3563087,89.1524101 44.8525896,89.6691897 43.6281982,89.4158669 C43.5502049,89.3997304 43.479058,89.3811931 43.4149189,89.3611819 L39.9319283,88.4635827 C39.5482325,88.3935193 39.1010167,88.2126414 38.6620002,87.848903 C37.498007,86.8844996 37.1625595,85.2144813 37.8312043,82.994441 C40.0954383,74.9487818 44.7724081,69.5501288 51.1111592,66.416044 C53.9700479,65.0025164 57.0142898,64.1291799 60.0987647,63.6902529 C62.1844158,63.3934606 64.0172576,63.3278258 65.4559358,63.3938501 C65.5932926,63.4001538 65.7016712,63.4066679 65.7794923,63.4123088 C65.8673213,63.4123105 65.9454357,63.4123213 66.4269804,63.4123874 C67.1933271,63.4125452 67.6084185,63.4126635 68.2789567,63.4129397 C70.1948092,63.4137287 72.1106747,63.4151489 73.8989024,63.4173583 C76.1953373,63.4201955 78.1097535,63.424135 79.5153707,63.4293362 L80.2756085,63.4321493 L80.6947439,64.0664165 C83.4433761,68.2258535 85.8260741,68.2724202 88.5353837,64.0713942 L88.9548028,63.4210474 L89.7286654,63.4210474 C90.3361761,63.4210474 90.8638268,63.4134316 91.757349,63.3949514 C95.4509691,63.3185581 96.4934469,63.3949569 97.7882496,64.1540046 C99.490583,65.1519574 100.152755,67.0330169 100.152755,70.2283116 C100.152755,72.9373835 100.146964,75.2422441 100.134553,78.4160785 C100.116394,83.0596235 100.116372,83.0660477 100.116372,84.4774471 C100.116372,86.7095865 98.8722075,88.1123411 96.992946,88.6395577 C96.1707164,88.8702298 95.3416377,88.9117575 94.5891889,88.8502253 C94.5322161,88.8455663 94.4814795,88.8407128 94.4374197,88.8359573 Z" id="Path-2" stroke="#326DE6" stroke-width="2.83982684" fill="#FFFFFF" transform="translate(68.821591, 76.420315) scale(1, -1) rotate(45.000000) translate(-68.821591, -76.420315) "></path>
                        <path d="M27.0637032,-6.42467182 L40.4365152,-6.42467182 L40.4977199,-5.06878819 C40.5038247,-4.93354748 40.5038247,-4.93354748 40.5328655,-4.2909813 C40.5726287,-3.41166359 40.5726287,-3.41166359 40.6323452,-2.09266533 C40.7395655,0.274782661 40.8592824,2.91280374 40.9885131,5.75375227 C41.3577425,13.8707234 41.7292345,21.9876836 42.0791253,29.56344 C42.1075743,30.179302 42.1075743,30.179302 42.1360335,30.7949321 C42.8855247,47.0049254 43.4217874,58.2521389 43.653725,62.5016825 C43.653725,68.7755735 39.3698203,72.8667277 33.922073,72.8549963 C28.4822173,72.8432818 24.1965363,68.7442787 24.1965363,62.5016825 C24.1965363,57.1319323 24.5929184,45.8431878 25.2794415,30.3713362 C25.379733,28.1111143 25.4852769,25.7840667 25.5954615,23.4003374 C25.9012378,16.7851898 26.2288425,10.0280521 26.5564467,3.49109186 C26.6711082,1.20315393 26.7775811,-0.893867053 26.8731362,-2.75468921 C26.9065829,-3.406024 26.9362767,-3.98132551 26.9618763,-4.47493323 C26.9878222,-4.97429883 26.9878222,-4.97429883 26.9932971,-5.07894435 L27.0637032,-6.42467182 Z" id="Path-17" stroke="#326DE6" stroke-width="2.83982684" fill="#FFFFFF" transform="translate(33.925131, 33.215174) scale(1, -1) rotate(45.000000) translate(-33.925131, -33.215174) "></path>
                    </g>
                </g>
            </g>
        </g>
    </g>
</svg>