<?xml version="1.0" encoding="UTF-8"?>
<svg width="27px" height="16px" viewBox="0 0 27 16" version="1.1" xmlns="http://www.w3.org/2000/svg" xmlns:xlink="http://www.w3.org/1999/xlink">
    <!-- Generator: Sketch 62 (91390) - https://sketch.com -->
    <title>aws</title>
    <desc>Created with Sketch.</desc>
    <g id="Kotsadm" stroke="none" stroke-width="1" fill="none" fill-rule="evenodd">
        <g id="main_spritesheet" transform="translate(0.000000, -324.000000)">
            <g id="aws" transform="translate(0.000000, 324.000000)">
                <path d="M7.63509934,5.81333333 C7.63509934,6.14222222 7.67086093,6.40888889 7.73344371,6.60444444 C7.80496689,6.8 7.89437086,7.01333333 8.01953642,7.24444444 C8.06423841,7.31555556 8.08211921,7.38666667 8.08211921,7.44888889 C8.08211921,7.53777778 8.02847682,7.62666667 7.91225166,7.71555556 L7.34900662,8.08888889 C7.26854305,8.14222222 7.18807947,8.16888889 7.11655629,8.16888889 C7.02715232,8.16888889 6.93774834,8.12444444 6.84834437,8.04444444 C6.72317881,7.91111111 6.61589404,7.76888889 6.52649007,7.62666667 C6.43708609,7.47555556 6.34768212,7.30666667 6.24933775,7.10222222 C5.55198675,7.92 4.67582781,8.32888889 3.62086093,8.32888889 C2.86986755,8.32888889 2.27086093,8.11555556 1.83278146,7.68888889 C1.39470199,7.26222222 1.17119205,6.69333333 1.17119205,5.98222222 C1.17119205,5.22666667 1.43940397,4.61333333 1.98476821,4.15111111 C2.53013245,3.68888889 3.25430464,3.45777778 4.17516556,3.45777778 C4.47913907,3.45777778 4.79205298,3.48444444 5.12284768,3.52888889 C5.45364238,3.57333333 5.79337748,3.64444444 6.15099338,3.72444444 L6.15099338,3.07555556 C6.15099338,2.4 6.00794702,1.92888889 5.7307947,1.65333333 C5.44470199,1.37777778 4.96192053,1.24444444 4.27350993,1.24444444 C3.96059603,1.24444444 3.63874172,1.28 3.30794702,1.36 C2.97715232,1.44 2.65529801,1.53777778 2.34238411,1.66222222 C2.19933775,1.72444444 2.09205298,1.76 2.0294702,1.77777778 C1.96688742,1.79555556 1.92218543,1.80444444 1.88642384,1.80444444 C1.76125828,1.80444444 1.6986755,1.71555556 1.6986755,1.52888889 L1.6986755,1.09333333 C1.6986755,0.951111111 1.71655629,0.844444444 1.76125828,0.782222222 C1.80596026,0.72 1.88642384,0.657777778 2.0115894,0.595555556 C2.32450331,0.435555556 2.7,0.302222222 3.13807947,0.195555556 C3.57615894,0.08 4.0410596,0.0266666667 4.53278146,0.0266666667 C5.59668874,0.0266666667 6.37450331,0.266666667 6.87516556,0.746666667 C7.36688742,1.22666667 7.61721854,1.95555556 7.61721854,2.93333333 L7.61721854,5.81333333 L7.63509934,5.81333333 Z M4.00529801,7.16444444 C4.30033113,7.16444444 4.60430464,7.11111111 4.92615894,7.00444444 C5.24801325,6.89777778 5.53410596,6.70222222 5.77549669,6.43555556 C5.91854305,6.26666667 6.02582781,6.08 6.0794702,5.86666667 C6.13311258,5.65333333 6.16887417,5.39555556 6.16887417,5.09333333 L6.16887417,4.72 C5.90960265,4.65777778 5.63245033,4.60444444 5.34635762,4.56888889 C5.0602649,4.53333333 4.78311258,4.51555556 4.50596026,4.51555556 C3.90695364,4.51555556 3.46887417,4.63111111 3.17384106,4.87111111 C2.87880795,5.11111111 2.73576159,5.44888889 2.73576159,5.89333333 C2.73576159,6.31111111 2.84304636,6.62222222 3.06655629,6.83555556 C3.28112583,7.05777778 3.59403974,7.16444444 4.00529801,7.16444444 Z M11.1844371,8.12444444 C11.0235099,8.12444444 10.9162252,8.09777778 10.844702,8.03555556 C10.7731788,7.98222222 10.710596,7.85777778 10.6569536,7.68888889 L8.55596026,0.817777778 C8.50231788,0.64 8.47549669,0.524444444 8.47549669,0.462222222 C8.47549669,0.32 8.54701987,0.24 8.69006623,0.24 L9.56622517,0.24 C9.73609272,0.24 9.85231788,0.266666667 9.91490066,0.328888889 C9.98642384,0.382222222 10.0400662,0.506666667 10.0937086,0.675555556 L11.5956954,6.56 L12.9903974,0.675555556 C13.0350993,0.497777778 13.0887417,0.382222222 13.1602649,0.328888889 C13.2317881,0.275555556 13.3569536,0.24 13.5178808,0.24 L14.2331126,0.24 C14.4029801,0.24 14.5192053,0.266666667 14.5907285,0.328888889 C14.6622517,0.382222222 14.7248344,0.506666667 14.760596,0.675555556 L16.1731788,6.63111111 L17.7198675,0.675555556 C17.7735099,0.497777778 17.8360927,0.382222222 17.8986755,0.328888889 C17.9701987,0.275555556 18.0864238,0.24 18.247351,0.24 L19.0788079,0.24 C19.2218543,0.24 19.3023179,0.311111111 19.3023179,0.462222222 C19.3023179,0.506666667 19.2933775,0.551111111 19.2844371,0.604444444 C19.2754967,0.657777778 19.2576159,0.728888889 19.2218543,0.826666667 L17.0672185,7.69777778 C17.0135762,7.87555556 16.9509934,7.99111111 16.8794702,8.04444444 C16.807947,8.09777778 16.6917219,8.13333333 16.5397351,8.13333333 L15.7708609,8.13333333 C15.6009934,8.13333333 15.4847682,8.10666667 15.413245,8.04444444 C15.3417219,7.98222222 15.2791391,7.86666667 15.2433775,7.68888889 L13.8576159,1.95555556 L12.4807947,7.68 C12.4360927,7.85777778 12.3824503,7.97333333 12.3109272,8.03555556 C12.239404,8.09777778 12.1142384,8.12444444 11.9533113,8.12444444 L11.1844371,8.12444444 Z M22.6728477,8.36444444 C22.207947,8.36444444 21.7430464,8.31111111 21.2960265,8.20444444 C20.8490066,8.09777778 20.5003311,7.98222222 20.2678808,7.84888889 C20.1248344,7.76888889 20.0264901,7.68 19.9907285,7.6 C19.9549669,7.52 19.9370861,7.43111111 19.9370861,7.35111111 L19.9370861,6.89777778 C19.9370861,6.71111111 20.0086093,6.62222222 20.1427152,6.62222222 C20.1963576,6.62222222 20.25,6.63111111 20.3036424,6.64888889 C20.3572848,6.66666667 20.4377483,6.70222222 20.5271523,6.73777778 C20.8311258,6.87111111 21.1619205,6.97777778 21.510596,7.04888889 C21.8682119,7.12 22.2168874,7.15555556 22.5745033,7.15555556 C23.1377483,7.15555556 23.5758278,7.05777778 23.8798013,6.86222222 C24.1837748,6.66666667 24.344702,6.38222222 24.344702,6.01777778 C24.344702,5.76888889 24.2642384,5.56444444 24.1033113,5.39555556 C23.9423841,5.22666667 23.6384106,5.07555556 23.2003311,4.93333333 L21.9039735,4.53333333 C21.2513245,4.32888889 20.768543,4.02666667 20.4735099,3.62666667 C20.1784768,3.23555556 20.0264901,2.8 20.0264901,2.33777778 C20.0264901,1.96444444 20.1069536,1.63555556 20.2678808,1.35111111 C20.4288079,1.06666667 20.6433775,0.817777778 20.9115894,0.622222222 C21.1798013,0.417777778 21.4837748,0.266666667 21.8413907,0.16 C22.1990066,0.0533333333 22.5745033,0.00888888889 22.9678808,0.00888888889 C23.1645695,0.00888888889 23.3701987,0.0177777778 23.5668874,0.0444444444 C23.7725166,0.0711111111 23.9602649,0.106666667 24.1480132,0.142222222 C24.3268212,0.186666667 24.4966887,0.231111111 24.6576159,0.284444444 C24.818543,0.337777778 24.9437086,0.391111111 25.0331126,0.444444444 C25.1582781,0.515555556 25.2476821,0.586666667 25.3013245,0.666666667 C25.3549669,0.737777778 25.3817881,0.835555556 25.3817881,0.96 L25.3817881,1.37777778 C25.3817881,1.56444444 25.3102649,1.66222222 25.1761589,1.66222222 C25.1046358,1.66222222 24.9884106,1.62666667 24.8364238,1.55555556 C24.3268212,1.32444444 23.7546358,1.20888889 23.1198675,1.20888889 C22.6102649,1.20888889 22.207947,1.28888889 21.9307947,1.45777778 C21.6536424,1.62666667 21.510596,1.88444444 21.510596,2.24888889 C21.510596,2.49777778 21.6,2.71111111 21.7788079,2.88 C21.9576159,3.04888889 22.2884106,3.21777778 22.7622517,3.36888889 L24.0317881,3.76888889 C24.6754967,3.97333333 25.1403974,4.25777778 25.4175497,4.62222222 C25.694702,4.98666667 25.8288079,5.40444444 25.8288079,5.86666667 C25.8288079,6.24888889 25.7483444,6.59555556 25.5963576,6.89777778 C25.4354305,7.2 25.2208609,7.46666667 24.9437086,7.68 C24.6665563,7.90222222 24.3357616,8.06222222 23.9513245,8.17777778 C23.5490066,8.30222222 23.1288079,8.36444444 22.6728477,8.36444444 Z" id="Shape" fill="#252F3E" fill-rule="nonzero"></path>
                <g id="Group" transform="translate(0.000000, 9.955556)" fill="#FF9900">
                    <path d="M24.3625828,2.72888889 C21.4211921,4.88888889 17.1476821,6.03555556 13.4731788,6.03555556 C8.32350993,6.03555556 3.68344371,4.14222222 0.178807947,0.995555556 C-0.0983443709,0.746666667 0.151986755,0.408888889 0.482781457,0.604444444 C4.27350993,2.79111111 8.94933775,4.11555556 13.7860927,4.11555556 C17.0493377,4.11555556 20.6344371,3.44 23.9334437,2.05333333 C24.4251656,1.83111111 24.8453642,2.37333333 24.3625828,2.72888889 Z" id="Path"></path>
                    <path d="M25.5874172,1.34222222 C25.2119205,0.862222222 23.1019868,1.11111111 22.1453642,1.22666667 C21.8592715,1.26222222 21.8145695,1.01333333 22.0738411,0.826666667 C23.7546358,-0.346666667 26.5172185,-0.00888888889 26.8390728,0.382222222 C27.1609272,0.782222222 26.7496689,3.52888889 25.1761589,4.84444444 C24.9347682,5.04888889 24.7023179,4.94222222 24.8096026,4.67555556 C25.1672185,3.79555556 25.9629139,1.81333333 25.5874172,1.34222222 Z" id="Path"></path>
                </g>
            </g>
        </g>
    </g>
</svg>