<?xml version="1.0" encoding="UTF-8"?>
<svg width="23px" height="16px" viewBox="0 0 23 16" version="1.1" xmlns="http://www.w3.org/2000/svg" xmlns:xlink="http://www.w3.org/1999/xlink">
    <!-- Generator: Sketch 62 (91390) - https://sketch.com -->
    <title>Group 11</title>
    <desc>Created with Sketch.</desc>
    <g id="Kotsadm" stroke="none" stroke-width="1" fill="none" fill-rule="evenodd">
        <g id="main_spritesheet" transform="translate(-180.000000, -415.000000)" fill="#326DE6" fill-rule="nonzero">
            <g id="Group-11" transform="translate(179.999984, 415.000000)">
                <path d="M18.0383159,4.99998586 C18.2392159,4.9989 18.4397159,5.062 18.5729159,5.1898 L21.9025159,8.3833 C22.1689159,8.6388 22.1667159,9.0243 21.8975159,9.2827 C21.6283159,9.5412 21.2266159,9.5434 20.9602159,9.2879 L18.9799159,7.4292 C18.9932159,7.6178 18.9999159,7.8081 18.9999159,8 C18.9999159,12.4183 15.4182159,16 10.9999159,16 C8.72939593,16 6.67977593,15.0541 5.22364593,13.5348 L6.21123593,12.5833 C7.41790593,13.8437 9.11731593,14.6286 10.9999159,14.6286 C14.6608159,14.6286 17.6285159,11.6609 17.6285159,8 C17.6285159,7.6599 17.6029159,7.3258 17.5535159,6.9996 L15.1356159,9.3203 C14.8664159,9.5787 14.4647159,9.581 14.1983159,9.3255 C13.9319159,9.07 13.9341159,8.6845 14.2033159,8.4261 L17.5686159,5.1953 C17.7032159,5.0661 17.9044159,5.0008 18.0383159,4.99998586 Z" id="Path"></path>
                <path d="M4.06249593,11.0000141 C3.86165593,11.0011 3.66115593,10.938 3.52797593,10.8102 L0.198355933,7.6167 C-0.0680120666,7.3612 -0.0658680666,6.9757 0.203355933,6.7173 C0.472585933,6.4588 0.874285933,6.4566 1.14065593,6.7121 L3.12095593,8.5708 C3.10766593,8.3822 3.10090593,8.1919 3.10090593,8 C3.10090593,3.5817 6.68263593,-8.8817842e-16 11.1009159,-8.8817842e-16 C13.3714159,-8.8817842e-16 15.4211159,0.9459 16.8772159,2.4652 L15.8896159,3.4167 C14.6829159,2.1563 12.9836159,1.3714 11.1009159,1.3714 C7.44004593,1.3714 4.47233593,4.3391 4.47233593,8 C4.47233593,8.3401 4.49794593,8.6742 4.54734593,9.0004 L6.96525593,6.6797 C7.23448593,6.4213 7.63618593,6.419 7.90255593,6.6745 C8.16892593,6.93 8.16677593,7.3155 7.89755593,7.5739 L4.53221593,10.8047 C4.39760593,10.9339 4.19639593,10.9992 4.06249593,11.0000141 Z" id="Path"></path>
                <path d="M10.6664159,5.6923 C10.6664159,5.31 10.9649159,5 11.3332159,5 C11.7015159,5 12.0000159,5.31 12.0000159,5.6923 L12.0000159,10.0308 C12.0000159,10.5661 11.5820159,11 11.0665159,11 L8.66683593,11 C8.29855593,11 8.00001593,10.69 8.00001593,10.3077 C8.00001593,9.9253 8.29855593,9.6154 8.66683593,9.6154 L10.6664159,9.6154 L10.6664159,5.6923 Z" id="Path"></path>
            </g>
        </g>
    </g>
</svg>