<?xml version="1.0" encoding="UTF-8"?>
<svg width="13px" height="16px" viewBox="0 0 13 16" version="1.1" xmlns="http://www.w3.org/2000/svg" xmlns:xlink="http://www.w3.org/1999/xlink">
    <!-- Generator: Sketch 62 (91390) - https://sketch.com -->
    <title>Custom resource</title>
    <desc>Created with Sketch.</desc>
    <g id="Kotsadm" stroke="none" stroke-width="1" fill="none" fill-rule="evenodd">
        <g id="main_spritesheet" transform="translate(-178.000000, -395.000000)" fill="#F7B500" fill-rule="nonzero">
            <path d="M190.59375,395 L188.96875,395 L188.96875,400.894737 L187.34375,399.210526 L185.71875,400.894737 L185.71875,395 L180.03125,395 C178.914062,395 178,395.947368 178,397.105263 L178,408.894737 C178,410.052632 178.914062,411 180.03125,411 L190.59375,411 C190.817187,411 191,410.810526 191,410.578947 C191,406.762737 191,404.221263 191,395.421053 C191,395.189474 190.817187,395 190.59375,395 Z M190.1875,408.473684 L180.03125,408.473684 C179.494391,408.473684 179.493375,409.315789 180.03125,409.315789 L190.1875,409.315789 L190.1875,410.157895 L180.03125,410.157895 C178.420672,410.157895 178.417828,407.631579 180.03125,407.631579 L190.1875,407.631579 L190.1875,408.473684 Z" id="Custom-resource"></path>
        </g>
    </g>
</svg>