<?xml version="1.0" encoding="UTF-8"?>
<svg width="16px" height="11px" viewBox="0 0 16 11" version="1.1" xmlns="http://www.w3.org/2000/svg" xmlns:xlink="http://www.w3.org/1999/xlink">
    <!-- Generator: Sketch 62 (91390) - https://sketch.com -->
    <title>Distribution</title>
    <desc>Created with Sketch.</desc>
    <g id="Kotsadm" stroke="none" stroke-width="1" fill="none" fill-rule="evenodd">
        <g id="main_spritesheet" transform="translate(-151.000000, -359.000000)" fill="#6B4F02" fill-rule="nonzero">
            <path d="M166.2474,359.000028 L158.688609,359.000028 C158.276593,359.000028 157.942589,359.332032 157.942589,359.741545 L157.942589,360.05186 L154.066244,360.05186 C153.792412,360.051946 153.537638,360.19119 153.390882,360.420971 L151.203762,363.831165 C151.070905,364.039821 151.000256,364.281626 151.000002,364.528556 L151.000002,367.83259 C150.999566,368.028512 151.077678,368.216534 151.217062,368.355072 C151.356447,368.49361 151.545618,368.571247 151.742737,368.570812 L152.666224,368.570812 C152.919121,369.417673 153.701655,369.99885 154.590429,369.999947 C155.484206,370.006432 156.272337,369.418924 156.516278,368.564279 L161.334186,368.564279 C161.585712,369.417211 162.374007,370.002345 163.26825,369.999947 C164.162027,370.006432 164.950158,369.418924 165.194099,368.564279 L166.257259,368.564279 C166.454378,368.564714 166.64355,368.487077 166.782934,368.348539 C166.922319,368.210001 167.00043,368.021979 167.000002,367.826057 L167.000002,359.741545 C167.000002,359.543753 166.920501,359.354156 166.77917,359.21491 C166.637839,359.075665 166.446393,358.998314 166.2474,359.000028 L166.2474,359.000028 Z M156.586646,364.062938 C156.585555,364.171406 156.486205,364.25882 156.364029,364.25882 L152.808126,364.25882 C152.727134,364.258453 152.652757,364.219061 152.613916,364.155961 C152.575074,364.092861 152.577897,364.01601 152.621287,363.955291 L154.487689,361.350585 C154.528305,361.293745 154.598711,361.259165 154.674528,361.25882 L156.364029,361.25882 C156.486977,361.25882 156.586646,361.34731 156.586646,361.456467 L156.586646,364.062938 Z M163.350471,369.113063 C162.715083,369.113063 162.2,368.59819 162.2,367.963063 C162.2,367.327936 162.715083,366.813063 163.350471,366.813063 C163.981111,366.823151 164.489908,367.33174 164.5,367.962121 C164.498966,368.596605 163.985213,369.11099 163.350471,369.113063 Z M154.650471,369.113063 C154.015083,369.113063 153.5,368.59819 153.5,367.963063 C153.5,367.327936 154.015083,366.813063 154.650471,366.813063 C155.281111,366.823151 155.789908,367.33174 155.8,367.962121 C155.798966,368.596605 155.285213,369.11099 154.650471,369.113063 Z" id="Distribution"></path>
        </g>
    </g>
</svg>