<?xml version="1.0" encoding="UTF-8"?>
<svg width="19px" height="16px" viewBox="0 0 19 16" version="1.1" xmlns="http://www.w3.org/2000/svg" xmlns:xlink="http://www.w3.org/1999/xlink">
    <!-- Generator: Sketch 62 (91390) - https://sketch.com -->
    <title>Image pull secret</title>
    <desc>Created with Sketch.</desc>
    <g id="Kotsadm" stroke="none" stroke-width="1" fill="none" fill-rule="evenodd">
        <g id="main_spritesheet" transform="translate(-169.000000, -359.000000)">
            <g id="Image-pull-secret" transform="translate(169.000000, 354.000000)">
                <g id="Group-11">
                    <polygon id="Rectangle-Copy-12" fill="#02233F" transform="translate(9.500000, 15.873016) rotate(45.000000) translate(-9.500000, -15.873016) " points="6.5179688 12.8909847 15.8333333 9.53968254 12.4820312 18.8550471 3.16666667 22.2063492"></polygon>
                    <polygon id="Rectangle-Copy-8" fill="#254E58" transform="translate(9.500000, 12.698413) rotate(45.000000) translate(-9.500000, -12.698413) " points="6.5179688 9.7163815 15.8333333 6.36507937 12.4820312 15.6804439 3.16666667 19.031746"></polygon>
                    <polygon id="Rectangle" fill="#4999AD" transform="translate(9.500000, 9.523810) rotate(45.000000) translate(-9.500000, -9.523810) " points="6.5179688 6.54177832 15.8333333 3.19047619 12.4820312 12.5058407 3.16666667 15.8571429"></polygon>
                </g>
                <path d="M9.52173913,8 C11.2608696,8 12.6521739,9.4573991 12.6521739,11.2286996 L12.6521739,11.2286996 L12.6521739,12.3497758 L12.673913,12.3497758 C13.1304348,12.3497758 13.5,12.7309417 13.5,13.2017937 L13.5,13.2017937 L13.5,17.1479821 C13.5,17.6188341 13.1304348,18 12.673913,18 L12.673913,18 L6.32608696,18 C5.86956522,18 5.5,17.6188341 5.5,17.1479821 L5.5,17.1479821 L5.5,13.1793722 C5.5,12.7085202 5.86956522,12.3273543 6.32608696,12.3273543 L6.32608696,12.3273543 L6.39130435,12.3273543 L6.39130435,11.2959641 C6.39130435,9.5470852 7.69565217,8.06726457 9.39130435,8 L9.39130435,8 Z M9.5,14.0313901 L9.41304348,14.0313901 C9.13043478,14.0538117 8.86956522,14.3004484 8.82608696,14.6143498 C8.7826087,14.8609865 8.89130435,15.1076233 9.06521739,15.264574 L9.06521739,15.264574 L8.89130435,16.161435 C8.86956522,16.2735426 8.93478261,16.3632287 9.04347826,16.3632287 L9.04347826,16.3632287 L9.95652174,16.3632287 C10.0434783,16.3632287 10.1304348,16.2511211 10.1086957,16.161435 L10.1086957,16.161435 L9.93478261,15.264574 C10.1086957,15.1524664 10.1956522,14.9506726 10.1956522,14.7264574 C10.1956522,14.32287 9.86956522,14.0089686 9.5,14.0313901 L9.5,14.0313901 Z M9.52173913,9.41255605 L9.34782609,9.41255605 L9.34782609,9.41255605 C8.45652174,9.52466368 7.76086957,10.3542601 7.76086957,11.2959641 L7.76086957,12.3721973 L11.2826087,12.3721973 L11.2826087,11.2286996 C11.2826087,10.2197309 10.5,9.41255605 9.52173913,9.41255605 Z" id="Secret-Copy" fill="#FFFFFF"></path>
            </g>
        </g>
    </g>
</svg>