<?xml version="1.0" encoding="UTF-8"?>
<svg width="16px" height="18px" viewBox="0 0 16 18" version="1.1" xmlns="http://www.w3.org/2000/svg" xmlns:xlink="http://www.w3.org/1999/xlink">
    <!-- Generator: Sketch 62 (91390) - https://sketch.com -->
    <title>Ingress controller</title>
    <desc>Created with Sketch.</desc>
    <g id="Kotsadm" stroke="none" stroke-width="1" fill="none" fill-rule="evenodd">
        <g id="main_spritesheet" transform="translate(-190.000000, -379.000000)">
            <g id="Ingress-controller" transform="translate(190.000000, 379.000000)">
                <g id="kubernetes-logo-small" transform="translate(2.000000, 0.000000)">
                    <path d="M10.9109076,2.66488662 C10.8425413,2.43808776 10.6784623,2.25381369 10.4733634,2.14041426 L6.30302039,0.0708746442 C6.19363434,0.0141749288 6.07057504,-3.73034936e-14 5.96118899,-3.73034936e-14 C5.85180295,-3.73034936e-14 5.72874364,-3.73034936e-14 5.61935759,0.0283498576 L1.44901454,2.11206439 C1.24391568,2.2112889 1.09350986,2.39556297 1.03881684,2.63653677 L0.0133226524,7.30008835 C-0.0276971154,7.54106214 0.0269959082,7.78203592 0.163728461,7.98048493 L3.04878548,11.6801413 C3.21286456,11.8502405 3.44530991,11.9636399 3.67775526,11.9778149 L8.27196924,11.9778149 C8.51808784,12.0061647 8.7505332,11.8927653 8.900939,11.6801413 L11.785996,7.98048493 C11.9227286,7.78203592 11.9774216,7.54106214 11.9500751,7.30008835 L10.9109076,2.66488662 Z" id="path10349" fill="#326DE6"></path>
                    <path d="M10.2682646,7.11581427 C10.2545913,7.11581427 10.2409181,7.11581427 10.2409181,7.10163934 C10.2409181,7.08746442 10.2135716,7.08746442 10.1862251,7.08746442 C10.131532,7.07328948 10.076839,7.07328948 10.022146,7.07328948 C9.99479948,7.07328948 9.96745297,7.07328948 9.94010646,7.05911455 L9.9264332,7.05911455 C9.77602738,7.04493963 9.61194831,7.01658976 9.4615425,6.97406499 C9.42052274,6.95989005 9.37950296,6.91736527 9.36582972,6.87484048 C9.37950296,6.87484048 9.36582972,6.87484048 9.36582972,6.87484048 L9.25644366,6.84649062 C9.31113668,6.43541769 9.28379017,6.01016982 9.20175064,5.59909689 C9.10603784,5.18802394 8.94195878,4.79112594 8.72318667,4.43675272 L8.80522622,4.35170314 L8.80522622,4.33752822 C8.80522622,4.29500343 8.81889947,4.23830371 8.84624598,4.20995386 C8.96930529,4.09655443 9.09236459,4.01150485 9.22909715,3.92645529 C9.25644366,3.91228035 9.28379017,3.89810542 9.31113668,3.8839305 C9.36582972,3.85558063 9.40684947,3.82723078 9.4615425,3.79888092 C9.47521576,3.78470599 9.48888901,3.78470599 9.50256227,3.77053107 C9.51623552,3.75635614 9.50256227,3.75635614 9.50256227,3.7421812 C9.62562158,3.64295671 9.65296809,3.47285757 9.55725529,3.3452832 C9.51623552,3.28858348 9.43419599,3.24605869 9.36582972,3.24605869 C9.29746343,3.24605869 9.22909715,3.27440856 9.17440413,3.31693335 L9.16073088,3.33110827 C9.14705761,3.3452832 9.13338435,3.35945814 9.1197111,3.35945814 C9.07869133,3.40198291 9.03767157,3.4445077 9.01032506,3.48703249 C8.9966518,3.51538234 8.96930529,3.52955728 8.95563204,3.54373221 C8.85991924,3.65713164 8.73685994,3.77053107 8.61380063,3.85558063 C8.58645412,3.86975557 8.55910761,3.8839305 8.5317611,3.8839305 C8.51808784,3.8839305 8.49074133,3.8839305 8.47706808,3.86975557 L8.46339481,3.86975557 L8.35400877,3.94063021 C8.24462273,3.82723078 8.12156342,3.71383135 8.01217738,3.60043192 C7.50626691,3.18935898 6.87729714,2.93421027 6.2346541,2.86333563 L6.22098085,2.7499362 L6.22098085,2.76411113 C6.17996108,2.73576126 6.16628783,2.69323648 6.15261457,2.6507117 C6.15261457,2.49478747 6.15261457,2.33886325 6.17996108,2.16876411 L6.17996108,2.15458918 C6.17996108,2.12623932 6.19363434,2.09788947 6.19363434,2.06953961 C6.20730759,2.01283989 6.20730759,1.95614018 6.22098085,1.89944046 L6.22098085,1.8143909 C6.2346541,1.6726416 6.12526806,1.53089232 5.9885355,1.51671738 C5.90649597,1.50254246 5.82445642,1.54506725 5.75609015,1.61594189 C5.70139713,1.6726416 5.67405062,1.74351624 5.67405062,1.8143909 L5.67405062,1.88526554 C5.67405062,1.94196525 5.68772387,1.99866497 5.70139713,2.05536468 C5.71507038,2.08371454 5.71507038,2.11206439 5.71507038,2.14041426 L5.71507038,2.15458918 C5.74241689,2.31051341 5.74241689,2.46643761 5.74241689,2.63653677 C5.72874364,2.67906155 5.71507038,2.72158633 5.67405062,2.7499362 L5.67405062,2.77828605 L5.66037736,2.89168548 C5.50997154,2.9058604 5.35956573,2.93421027 5.19548666,2.96256012 C4.55284363,3.10430941 3.96489363,3.45868263 3.51367618,3.95480514 L3.43163665,3.89810542 L3.4179634,3.89810542 C3.40429013,3.89810542 3.39061689,3.91228035 3.36327038,3.91228035 C3.33592385,3.91228035 3.30857734,3.89810542 3.28123083,3.8839305 C3.15817154,3.78470599 3.03511223,3.67130656 2.93939944,3.55790713 C2.92572617,3.52955728 2.89837966,3.51538234 2.88470641,3.50120742 C2.84368664,3.45868263 2.81634013,3.41615785 2.77532037,3.37363306 C2.76164711,3.35945814 2.74797386,3.35945814 2.7343006,3.3452832 C2.72062735,3.33110827 2.72062735,3.33110827 2.72062735,3.33110827 C2.66593431,3.28858348 2.59756804,3.26023363 2.52920176,3.26023363 C2.44716223,3.26023363 2.37879594,3.28858348 2.33777618,3.35945814 C2.25573664,3.48703249 2.28308315,3.65713164 2.3924692,3.75635614 C2.40614245,3.75635614 2.40614245,3.77053107 2.40614245,3.77053107 C2.40614245,3.77053107 2.43348896,3.79888092 2.44716223,3.79888092 C2.48818199,3.82723078 2.54287502,3.85558063 2.59756804,3.8839305 C2.62491455,3.89810542 2.65226107,3.91228035 2.67960758,3.92645529 C2.81634013,4.01150485 2.9530727,4.09655443 3.06245874,4.20995386 C3.08980525,4.23830371 3.11715176,4.29500343 3.1034785,4.33752822 L3.1034785,4.32335329 L3.18551805,4.40840286 C3.17184479,4.43675272 3.15817154,4.45092765 3.14449827,4.47927751 C2.72062735,5.17384902 2.54287502,5.99599489 2.66593431,6.80396584 L2.55654827,6.83231569 C2.55654827,6.84649062 2.54287502,6.84649062 2.54287502,6.84649062 C2.52920176,6.88901541 2.48818199,6.91736527 2.44716223,6.94571512 C2.29675641,6.98823991 2.14635059,7.01658976 1.98227153,7.0307647 C1.95492502,7.0307647 1.92757851,7.0307647 1.900232,7.04493963 C1.84553896,7.04493963 1.79084594,7.05911455 1.73615292,7.05911455 C1.72247967,7.05911455 1.7088064,7.07328948 1.68145989,7.07328948 C1.66778663,7.07328948 1.66778663,7.07328948 1.65411338,7.08746442 C1.50370757,7.11581427 1.40799478,7.25756356 1.43534129,7.41348778 C1.43534129,7.41348778 1.43534129,7.41348778 1.43534129,7.41348778 C1.46268779,7.54106214 1.5857471,7.6261117 1.7088064,7.61193678 C1.73615292,7.61193678 1.74982618,7.61193678 1.77717269,7.59776185 C1.79084594,7.59776185 1.79084594,7.59776185 1.79084594,7.58358693 C1.79084594,7.56941199 1.83186571,7.58358693 1.84553896,7.58358693 C1.900232,7.56941199 1.95492502,7.54106214 1.99594478,7.52688721 C2.02329129,7.51271227 2.0506378,7.49853735 2.07798431,7.49853735 L2.09165757,7.49853735 C2.24206339,7.44183763 2.37879594,7.39931284 2.54287502,7.37096299 L2.55654827,7.37096299 C2.59756804,7.37096299 2.6385878,7.38513792 2.66593431,7.41348778 C2.67960758,7.41348778 2.67960758,7.42766271 2.67960758,7.42766271 L2.80266688,7.41348778 C3.00776572,8.0655345 3.39061689,8.64670659 3.92387386,9.07195444 C4.04693316,9.17117895 4.1563192,9.25622853 4.29305177,9.32710317 L4.22468549,9.42632767 C4.22468549,9.4405026 4.23835875,9.4405026 4.23835875,9.4405026 C4.26570526,9.48302739 4.26570526,9.5397271 4.252032,9.58225189 C4.19733898,9.72400117 4.11529945,9.86575047 4.03325991,9.99332482 L4.03325991,10.0074997 C4.01958665,10.0358496 4.0059134,10.0500245 3.97856689,10.0783744 C3.95122037,10.1067243 3.92387386,10.163424 3.8828541,10.2201237 C3.86918083,10.2342986 3.86918083,10.2484735 3.85550759,10.2626485 C3.85550759,10.2626485 3.85550759,10.2768234 3.84183432,10.2768234 C3.77346805,10.4185727 3.82816107,10.5886718 3.95122037,10.6595465 C3.97856689,10.6737214 4.01958665,10.6878963 4.04693316,10.6878963 C4.1563192,10.6878963 4.252032,10.6170217 4.30672502,10.5177972 C4.30672502,10.5177972 4.30672502,10.5036223 4.32039828,10.5036223 C4.32039828,10.4894473 4.33407153,10.4752724 4.3477448,10.4610975 C4.36141804,10.4043978 4.38876457,10.361873 4.40243782,10.3051733 L4.42978433,10.2201237 C4.4708041,10.0641995 4.53917037,9.92245018 4.60753666,9.78070089 C4.63488317,9.7381761 4.67590294,9.70982625 4.7169227,9.69565132 C4.73059596,9.69565132 4.73059596,9.69565132 4.73059596,9.68147638 L4.78528898,9.56807695 C5.16814015,9.72400117 5.56466456,9.79487581 5.97486224,9.79487581 C6.22098085,9.79487581 6.46709947,9.76652596 6.71321806,9.69565132 C6.86362388,9.66730146 7.0140297,9.61060174 7.15076225,9.56807695 L7.20545527,9.66730146 C7.21912853,9.66730146 7.21912853,9.66730146 7.21912853,9.68147638 C7.26014829,9.69565132 7.30116807,9.72400117 7.32851458,9.76652596 C7.39688086,9.90827526 7.46524713,10.0500245 7.50626691,10.2059488 L7.50626691,10.2201237 L7.53361342,10.3051733 C7.54728668,10.361873 7.56095993,10.4185727 7.58830644,10.4610975 C7.6019797,10.4752724 7.6019797,10.4894473 7.61565295,10.5036223 C7.61565295,10.5036223 7.61565295,10.5177972 7.62932621,10.5177972 C7.68401923,10.6170217 7.77973203,10.6878963 7.88911807,10.6878963 C7.93013785,10.6878963 7.95748436,10.6737214 7.99850412,10.6595465 C8.05319714,10.6311966 8.10789016,10.5744969 8.12156342,10.5036223 C8.13523668,10.4327476 8.13523668,10.361873 8.10789016,10.2909983 C8.10789016,10.2768234 8.09421691,10.2768234 8.09421691,10.2768234 C8.09421691,10.2626485 8.08054365,10.2484735 8.0668704,10.2342986 C8.03952389,10.1775989 8.01217738,10.1350741 7.9711576,10.0925493 C7.95748436,10.0641995 7.94381109,10.0500245 7.91646458,10.0216747 L7.91646458,9.99332482 C7.82075179,9.86575047 7.75238552,9.72400117 7.69769248,9.58225189 C7.68401923,9.5397271 7.68401923,9.48302739 7.71136574,9.4405026 C7.71136574,9.42632767 7.72503901,9.42632767 7.72503901,9.42632767 L7.68401923,9.31292824 C8.38135528,8.87350545 8.91461227,8.19310887 9.16073088,7.38513792 L9.27011692,7.39931284 C9.28379017,7.39931284 9.28379017,7.38513792 9.28379017,7.38513792 C9.31113668,7.35678807 9.35215645,7.34261313 9.39317623,7.34261313 L9.40684947,7.34261313 C9.55725529,7.37096299 9.70766111,7.41348778 9.84439366,7.4701875 L9.85806693,7.4701875 C9.88541344,7.48436242 9.91275995,7.49853735 9.94010646,7.49853735 C9.99479948,7.52688721 10.0358193,7.55523706 10.0905123,7.56941199 C10.1041855,7.56941199 10.1178588,7.58358693 10.1452053,7.58358693 C10.1588785,7.58358693 10.1588785,7.58358693 10.1725518,7.59776185 C10.1998983,7.61193678 10.2135716,7.61193678 10.2409181,7.61193678 C10.3639774,7.61193678 10.4733634,7.52688721 10.5143832,7.41348778 C10.50071,7.25756356 10.3913239,7.14416413 10.2682646,7.11581427 Z M6.31669365,6.67639147 L5.94751573,6.86066556 L5.57833783,6.67639147 L5.48262503,6.26531855 L5.74241689,5.92512025 L6.15261457,5.92512025 L6.41240643,6.26531855 L6.31669365,6.67639147 Z M8.54543436,5.75502111 C8.61380063,6.05269461 8.62747389,6.35036811 8.60012738,6.64804163 L7.30116807,6.26531855 C7.17810876,6.23696868 7.10974249,6.10939433 7.137089,5.98181997 C7.15076225,5.93929518 7.16443551,5.91094532 7.19178202,5.88259547 L8.21727622,4.91870031 C8.36768203,5.17384902 8.47706808,5.4573476 8.54543436,5.75502111 Z M7.80707854,4.39422794 L6.68587155,5.21637381 C6.59015876,5.27307353 6.4534262,5.2588986 6.38505992,5.1596741 C6.35771341,5.13132423 6.34404016,5.10297438 6.34404016,5.06044959 L6.26200063,3.62878178 C6.86362388,3.69965643 7.39688086,3.96898008 7.80707854,4.39422794 Z M5.33221921,3.67130657 L5.60568434,3.61460685 L5.53731805,5.03209974 C5.53731805,5.1596741 5.42793201,5.2588986 5.3048727,5.2588986 C5.26385294,5.2588986 5.23650643,5.24472366 5.19548666,5.23054874 L4.06060642,4.39422794 C4.41611108,4.03985472 4.85365527,3.784706 5.33221921,3.67130657 Z M3.664082,4.91870031 L4.67590294,5.8542456 C4.77161572,5.93929518 4.78528898,6.08104448 4.70324945,6.18026897 C4.67590294,6.22279376 4.64855643,6.23696868 4.59386341,6.25114362 L3.26755758,6.64804163 C3.22653781,6.05269461 3.36327038,5.44317267 3.664082,4.91870031 Z M3.43163665,7.31426328 L4.78528898,7.07328948 C4.89467503,7.07328948 5.00406108,7.14416414 5.01773433,7.25756356 C5.0314076,7.30008836 5.0314076,7.35678807 5.00406108,7.39931285 L4.48447735,8.70340631 C4.0059134,8.37738294 3.62306224,7.88126043 3.43163665,7.31426328 Z M6.53546573,9.07195444 C6.34404016,9.11447923 6.15261457,9.1428291 5.94751573,9.1428291 C5.66037736,9.1428291 5.35956573,9.08612938 5.08610062,9.0010798 L5.75609015,7.73951114 C5.82445642,7.65446157 5.93384248,7.62611171 6.02955526,7.68281142 C6.07057504,7.71116129 6.09792155,7.73951114 6.13894132,7.78203593 L6.7952576,9.01525473 C6.71321806,9.02942967 6.63117853,9.04360459 6.53546573,9.07195444 Z M8.20360295,7.83873564 C7.99850412,8.17893393 7.71136574,8.47660745 7.3832076,8.68923138 L6.84995062,7.35678807 C6.82260411,7.24338864 6.87729714,7.1299892 6.97300992,7.08746442 C7.0140297,7.07328948 7.05504946,7.05911456 7.09606923,7.05911456 L8.46339481,7.30008836 C8.39502854,7.49853735 8.312989,7.68281142 8.20360295,7.83873564 Z" id="path10351" fill="#FFFFFF" fill-rule="nonzero"></path>
                </g>
                <rect id="Rectangle" fill="#326DE6" x="0" y="15" width="16" height="1" rx="0.5"></rect>
                <rect id="Rectangle" fill="#326DE6" x="7.5" y="11" width="1" height="3" rx="0.5"></rect>
                <circle id="Oval" stroke="#326DE6" fill="#FFFFFF" cx="8" cy="15.5" r="1.5"></circle>
            </g>
        </g>
    </g>
</svg>