<?xml version="1.0" encoding="UTF-8"?>
<svg width="19px" height="14px" viewBox="0 0 19 14" version="1.1" xmlns="http://www.w3.org/2000/svg" xmlns:xlink="http://www.w3.org/1999/xlink">
    <!-- Generator: Sketch 62 (91390) - https://sketch.com -->
    <title>Shape</title>
    <desc>Created with Sketch.</desc>
    <g id="Kotsadm" stroke="none" stroke-width="1" fill="none" fill-rule="evenodd">
        <g id="main_spritesheet" transform="translate(-203.000000, -72.000000)" fill="#336791" fill-rule="nonzero">
            <path d="M221.968354,77.3395035 C221.746833,75.0588033 219.753142,73.2404072 217.158178,72.8397437 C217.442992,73.2712275 217.632867,73.7643519 217.75945,74.2266559 C218.075909,75.4594668 218.012618,76.7847385 217.569575,77.9559089 C217.537929,78.0175494 217.537929,78.07919 217.506283,78.1408305 C217.442992,78.3257522 217.253116,78.418213 217.063241,78.418213 C216.746782,78.418213 216.493615,78.07919 216.620198,77.8018075 C216.651844,77.740167 216.651844,77.7093467 216.68349,77.6477062 C217.063241,76.6306372 217.126533,75.4902871 216.84172,74.4423978 C216.588552,73.4253289 215.860697,72.2541585 214.594861,72.0384166 C213.772068,71.8843152 212.980921,72.2233382 212.379649,72.531541 C212.031544,72.7164626 211.746731,72.870564 211.461918,73.0554856 C210.987229,72.8397437 210.449249,72.7472829 209.879623,72.7472829 C207.379598,72.7472829 206.556805,74.68896 205.892241,76.2299736 C205.734011,76.5689966 205.607428,76.8771994 205.480844,77.1854021 C205.259323,77.6477062 203.265632,82.3323876 203.04411,82.8563322 C202.980819,83.0104336 202.980819,83.2261755 203.075756,83.3802768 C203.170694,83.5343782 203.328924,83.6576593 203.487153,83.6884796 L204.025133,83.8117607 C204.088425,83.8117607 204.120071,83.8425809 204.183363,83.8425809 C204.404884,83.8425809 204.626405,83.7192998 204.721343,83.5343782 C204.784635,83.4419174 206.461867,80.0516874 207.221368,79.2811806 C208.328975,80.1749685 209.974561,80.3907104 210.037853,80.3907104 L210.037853,85.3835946 C210.037853,85.7226175 210.322666,86 210.670771,86 L213.265734,86 C213.613839,86 213.898652,85.7226175 213.898652,85.3835946 L213.898652,82.4864889 C215.259425,82.9179728 216.810074,82.9179728 218.170847,82.4864889 L218.170847,85.3835946 C218.170847,85.7226175 218.45566,86 218.803765,86 L221.367082,86 C221.715187,86 222,85.7226175 222,85.3835946 L222,77.4936048 C222,77.4319643 222,77.3703237 221.968354,77.3395035 Z M209.497912,76 C209.229805,76 209,75.7692308 209,75.5 C209,75.2307692 209.229805,75 209.497912,75 C209.766018,75 209.995824,75.2307692 209.995824,75.5 C210.034125,75.8076923 209.804319,76 209.497912,76 Z" id="Shape"></path>
        </g>
    </g>
</svg>