<?xml version="1.0" encoding="UTF-8"?>
<svg width="24px" height="16px" viewBox="0 0 24 16" version="1.1" xmlns="http://www.w3.org/2000/svg" xmlns:xlink="http://www.w3.org/1999/xlink">
    <!-- Generator: Sketch 62 (91390) - https://sketch.com -->
    <title>memory</title>
    <desc>Created with Sketch.</desc>
    <g id="Kotsadm" stroke="none" stroke-width="1" fill="none" fill-rule="evenodd">
        <g id="main_spritesheet" transform="translate(-29.000000, -380.000000)">
            <g id="memory" transform="translate(29.000000, 380.000000)">
                <path d="M1.53846154,1.03333333 C1.26231916,1.03333333 1.03846154,1.25719096 1.03846154,1.53333333 L1.03846154,10.2 C1.03846154,10.4761424 1.26231916,10.7 1.53846154,10.7 L22.4584616,10.7 C22.734604,10.7 22.9584616,10.4761424 22.9584616,10.2 L22.9584616,1.53333333 C22.9584616,1.25719096 22.734604,1.03333333 22.4584616,1.03333333 L1.53846154,1.03333333 Z" id="Rectangle-14-path" fill="#FFFFFF" fill-rule="nonzero"></path>
                <polygon id="Rectangle-14-Copy-3-path" fill="#FFFFFF" fill-rule="nonzero" points="3.19230769 11.7 3.19230769 14.9666667 20.8123085 14.9666667 20.8123085 11.7"></polygon>
                <path d="M1.53846154,1.03333333 C1.26231916,1.03333333 1.03846154,1.25719096 1.03846154,1.53333333 L1.03846154,10.2 C1.03846154,10.4761424 1.26231916,10.7 1.53846154,10.7 L22.4584616,10.7 C22.734604,10.7 22.9584616,10.4761424 22.9584616,10.2 L22.9584616,1.53333333 C22.9584616,1.25719096 22.734604,1.03333333 22.4584616,1.03333333 L1.53846154,1.03333333 Z M1.53846154,0.0333333333 L22.4584616,0.0333333333 C23.2868887,0.0333333333 23.9584616,0.704906209 23.9584616,1.53333333 L23.9584616,10.2 C23.9584616,11.0284271 23.2868887,11.7 22.4584616,11.7 L1.53846154,11.7 C0.710034414,11.7 0.0384615385,11.0284271 0.0384615385,10.2 L0.0384615385,1.53333333 C0.0384615385,0.704906209 0.710034414,0.0333333333 1.53846154,0.0333333333 Z" id="Rectangle-14" fill="#88BB35" fill-rule="nonzero"></path>
                <path d="M3.19230769,11.7 L3.19230769,14.9666667 L20.8123085,14.9666667 L20.8123085,11.7 L3.19230769,11.7 Z M21.8123085,10.7 L21.8123085,15.9666667 L2.19230769,15.9666667 L2.19230769,10.7 L21.8123085,10.7 Z" id="Rectangle-14-Copy-3" fill="#88BB35" fill-rule="nonzero"></path>
                <g id="Group-4" transform="translate(5.000000, 12.000000)" fill="#88BB35">
                    <rect id="Rectangle-15-Copy-4" x="3.61538462" y="0.8" width="1.07692308" height="3.2" rx="0.533333333"></rect>
                    <rect id="Rectangle-15-Copy-8" x="0.384615385" y="0.8" width="1.07692308" height="3.2" rx="0.533333333"></rect>
                    <rect id="Rectangle-15-Copy" x="6.84615385" y="0.8" width="1.07692308" height="3.2" rx="0.533333333"></rect>
                    <rect id="Rectangle-15-Copy-5" x="10.0769231" y="0.8" width="1.07692308" height="3.2" rx="0.533333333"></rect>
                    <rect id="Rectangle-15-Copy-2" x="13.3076923" y="0.8" width="1.07692308" height="3.2" rx="0.533333333"></rect>
                </g>
                <path d="M4.72528209,5.61386667 L6.02189748,5.61386667 C6.29328345,5.61386667 6.49681987,5.55413393 6.63251286,5.43466667 C6.76820585,5.3151994 6.83605132,5.12106801 6.83605132,4.85226667 C6.83605132,4.59342093 6.76820585,4.40551169 6.63251286,4.28853333 C6.49681987,4.17155497 6.29328345,4.11306667 6.02189748,4.11306667 L4.72528209,4.11306667 L4.72528209,5.61386667 Z M3.54174363,3.20213333 L6.44405132,3.20213333 C6.6852833,3.20213333 6.9026401,3.24071072 7.09612824,3.31786667 C7.2896164,3.3950226 7.45546089,3.50079933 7.59366671,3.6352 C7.73187253,3.76960067 7.83740994,3.92515467 7.91028209,4.10186667 C7.98315426,4.27857866 8.01958978,4.46897676 8.01958978,4.67306667 C8.01958978,4.98666823 7.95300071,5.25795441 7.81982055,5.48693333 C7.6866404,5.71591226 7.4692836,5.89013274 7.16774363,6.0096 L7.16774363,6.02453333 C7.31348795,6.06435575 7.43410213,6.12533292 7.52958978,6.20746667 C7.62507744,6.28960041 7.7029741,6.3866661 7.76328209,6.49866667 C7.82359008,6.61066722 7.86756401,6.73386599 7.89520517,6.86826667 C7.92284634,7.00266734 7.9416923,7.13706599 7.95174363,7.27146667 C7.9567693,7.35608931 7.96179489,7.45564387 7.96682055,7.57013333 C7.97184622,7.68462279 7.98064101,7.8015994 7.99320517,7.92106667 C8.00576934,8.04053393 8.0258717,8.15377724 8.05351286,8.2608 C8.08115403,8.36782275 8.12261515,8.45866629 8.17789748,8.53333333 L6.99435901,8.53333333 C6.92902535,8.36408804 6.88882063,8.16249006 6.87374363,7.92853333 C6.85866663,7.69457661 6.83605147,7.47057885 6.80589748,7.25653333 C6.76569215,6.97777638 6.6802571,6.77368954 6.54958978,6.64426667 C6.41892246,6.5148438 6.20533486,6.45013333 5.90882055,6.45013333 L4.72528209,6.45013333 L4.72528209,8.53333333 L3.54174363,8.53333333 L3.54174363,3.20213333 Z M10.5978462,6.47253333 L11.9924615,6.47253333 L11.314,4.51626667 L11.2989231,4.51626667 L10.5978462,6.47253333 Z M10.7109231,3.20213333 L11.9246154,3.20213333 L13.9373846,8.53333333 L12.7086154,8.53333333 L12.3015385,7.34613333 L10.2887692,7.34613333 L9.86661538,8.53333333 L8.67553846,8.53333333 L10.7109231,3.20213333 Z M14.6611794,3.20213333 L14.6611794,8.53333333 L15.7693333,8.53333333 L15.7693333,4.79253333 L15.7844102,4.79253333 L17.103641,8.53333333 L18.0157948,8.53333333 L19.3350256,4.7552 L19.3501025,4.7552 L19.3501025,8.53333333 L20.4582563,8.53333333 L20.4582563,3.20213333 L18.7922563,3.20213333 L17.6011794,6.86826667 L17.5861025,6.86826667 L16.3271794,3.20213333 L14.6611794,3.20213333 Z" id="RAM" fill="#88BB35" fill-rule="nonzero"></path>
            </g>
        </g>
    </g>
</svg>