<?xml version="1.0" encoding="UTF-8"?>
<svg width="16px" height="14px" viewBox="0 0 16 14" version="1.1" xmlns="http://www.w3.org/2000/svg" xmlns:xlink="http://www.w3.org/1999/xlink">
    <!-- Generator: Sketch 62 (91390) - https://sketch.com -->
    <title>redis</title>
    <desc>Created with Sketch.</desc>
    <g id="Kotsadm" stroke="none" stroke-width="1" fill="none" fill-rule="evenodd">
        <g id="main_spritesheet" transform="translate(-133.000000, -72.000000)" fill-rule="nonzero">
            <g id="redis" transform="translate(133.000000, 72.000000)">
                <path d="M15.373125,10.37711 C14.51925,10.8198536 10.096,12.6290652 9.1543125,13.1174448 C8.212625,13.6058865 7.6895,13.6011613 6.9455625,13.2473892 C6.2016875,12.8936171 1.4945625,11.0021488 0.646625,10.5989481 C0.222875,10.3975032 0,10.2273941 0,10.0667356 L0,8.45791191 C0,8.45791191 6.128125,7.13080025 7.1174375,6.77771208 C8.1066875,6.42462391 8.4499375,6.41187816 9.2918125,6.71864644 C10.1338125,7.02553907 15.1679375,7.92905682 16,8.23221899 L15.999625,9.81828684 C15.99975,9.97732885 15.80775,10.1517901 15.373125,10.37711" id="Path" fill="#912626"></path>
                <path d="M15.3728139,8.73173412 C14.5190005,9.19491746 10.0958711,11.0885161 9.15418267,11.5995925 C8.21255673,12.1108642 7.6894312,12.1058536 6.94555546,11.7355933 C6.20161721,11.3655932 1.49467499,9.38564384 0.646799139,8.96391144 C-0.201076711,8.54191875 -0.218826729,8.25150188 0.614049107,7.91195557 C1.44692494,7.5722791 6.12805464,5.66013489 7.11749313,5.29059033 C8.10674412,4.92117591 8.44993196,4.90770598 9.29180781,5.22890196 C10.1337462,5.5499678 14.5305006,7.3720522 15.3624389,7.68927877 C16.1946897,8.00689579 16.2266273,8.26842063 15.3728139,8.73173412" id="Path" fill="#C6302B"></path>
                <path d="M15.373125,7.87708293 C14.51925,8.31988992 10.096,10.1290443 9.1543125,10.6176118 C8.212625,11.1058683 7.6895,11.1011431 6.9455625,10.74737 C6.201625,10.3937835 1.4945625,8.50212346 0.646625,8.09892165 C0.222875,7.89747618 0,7.72761537 0,7.56689421 L0,5.95787961 C0,5.95787961 6.128125,4.6308265 7.1174375,4.27773735 C8.1066875,3.92464821 8.4499375,3.91184026 9.2918125,4.21867155 C10.133875,4.52550285 15.168,5.42883656 16,5.73206173 L15.999625,7.31832045 C15.99975,7.47730072 15.80775,7.65176244 15.373125,7.87708293" id="Path" fill="#912626"></path>
                <path d="M15.3728139,6.33170862 C14.5190005,6.79502298 10.0958711,8.68849507 9.15418267,9.19976767 C8.21255673,9.71084506 7.6894312,9.70583449 6.94555546,9.33557344 C6.20161721,8.96557267 1.49467499,6.98568465 0.646799139,6.56388638 C-0.201076711,6.14202304 -0.218826729,5.85154055 0.614049107,5.51186345 C1.44692494,5.17238157 6.12811714,3.26010361 7.11749313,2.89062342 C8.10674412,2.52114323 8.44993196,2.50773835 9.29180781,2.82886986 C10.1337462,3.1499363 14.5305006,4.97189399 15.3624389,5.28925132 C16.1946897,5.60680385 16.2266273,5.86839427 15.3728139,6.33170862" id="Path" fill="#C6302B"></path>
                <path d="M15.373125,5.37701444 C14.51925,5.81970375 10.096,7.62900975 9.1543125,8.11758455 C8.212625,8.60591064 7.6895,8.60112313 6.9455625,8.24734474 C6.201625,7.89375288 1.4945625,6.00200221 0.646625,5.59898085 C0.222875,5.39734582 0,5.22742028 0,5.06688323 L0,3.45778222 C0,3.45778222 6.128125,2.13077129 7.1174375,1.777739 C8.1066875,1.42458237 8.4499375,1.41189857 9.2918125,1.71867231 C10.133875,2.02550823 15.168,2.92885555 16,3.23208528 L15.999625,4.81830572 C15.99975,4.97716403 15.80775,5.15162839 15.373125,5.37701444" id="Path" fill="#912626"></path>
                <path d="M15.3728127,3.7316911 C14.5189977,4.19501287 10.0958596,6.08864541 9.1541693,6.59973097 C8.21254152,7.11081654 7.68941497,7.10580589 6.94553777,6.73573413 C6.20166057,6.36546715 1.49464666,4.38567759 0.646831653,3.9638075 C-0.201108353,3.54200248 -0.218795906,3.25145027 0.614019056,2.9118328 C1.44689652,2.57228041 6.12809785,0.660232137 7.11747578,0.290615889 C8.1067287,-0.078935285 8.44991722,-0.0922102348 9.29179471,0.228926417 C10.1337347,0.550063069 14.5304977,2.37204992 15.3624377,2.68941232 C16.1946901,3.00670965 16.2266277,3.26836932 15.3728127,3.7316911" id="Path" fill="#C6302B"></path>
                <path d="M10,2.22723933 L8.67933585,2.37711864 L8.38370149,3.15478564 L7.9061983,2.28699428 L6.38122423,2.13718056 L7.5191195,1.68859212 L7.17770292,1 L8.24305466,1.45547568 L9.24738344,1.09602771 L8.97593026,1.80803642 L10,2.22723933 M8.30485766,6 L5.84011795,4.88249725 L9.37188949,4.28986724 L8.30485766,6 M4.88769169,2.6594952 C5.93024233,2.6594952 6.77538338,3.01763132 6.77538338,3.45933253 C6.77538338,3.90116493 5.93024233,4.25923545 4.88769169,4.25923545 C3.84514105,4.25923545 3,3.90109933 3,3.45933253 C3,3.01763132 3.84514105,2.6594952 4.88769169,2.6594952" id="Shape" fill="#FFFFFF"></path>
                <polyline id="Path" fill="#621B1C" points="11.5 2.20007267 13.5 3.20050872 11.5017224 4.2 11.5 2.2"></polyline>
                <polyline id="Path" fill="#9A2928" points="9.5 3.25148808 11.4984444 2.2 11.5 4.09805842 11.3040446 4.2 9.5 3.25148808"></polyline>
            </g>
        </g>
    </g>
</svg>