<?xml version="1.0" encoding="UTF-8"?>
<svg width="11px" height="16px" viewBox="0 0 11 16" version="1.1" xmlns="http://www.w3.org/2000/svg" xmlns:xlink="http://www.w3.org/1999/xlink">
    <!-- Generator: Sketch 62 (91390) - https://sketch.com -->
    <title>Combined Shape</title>
    <desc>Created with Sketch.</desc>
    <g id="Kotsadm" stroke="none" stroke-width="1" fill="none" fill-rule="evenodd">
        <g id="main_spritesheet" transform="translate(-190.000000, -71.000000)" fill="#0091BD">
            <path d="M192.497454,71 C192.773597,71 192.997454,71.2238576 192.997454,71.5 L192.997454,73 L194,73 L194,71.5 C194,71.2238576 194.223858,71 194.5,71 L196.504289,71 C196.780432,71 197.004289,71.2238576 197.004289,71.5 L197.004289,73 L198,73 L198,71.5 C198,71.2238576 198.223858,71 198.5,71 L200.5,71 C200.776142,71 201,71.2238576 201,71.5 L201,74.5 C201,74.7761424 200.776142,75 200.5,75 L199,75 L199,76.5 C199,76.7761424 198.776142,77 198.5,77 L198.009299,77.0017188 C198.094716,79.8902883 198.767414,82.2230487 200.027391,84.0000001 L200.5,84 C200.776142,84 201,84.2238576 201,84.5 L201,86.5 C201,86.7761424 200.776142,87 200.5,87 L190.5,87 C190.223858,87 190,86.7761424 190,86.5 L190,84.5 C190,84.2238576 190.223858,84 190.5,84 L190.998731,84.0000001 C192.242283,82.2214213 192.907985,79.8885459 192.995839,77.0013739 L192.5,77 C192.223858,77 192,76.7761424 192,76.5 L192,75 L190.5,75 C190.223858,75 190,74.7761424 190,74.5 L190,71.5 C190,71.2238576 190.223858,71 190.5,71 L192.497454,71 Z" id="Combined-Shape"></path>
        </g>
    </g>
</svg>