<?xml version="1.0" encoding="UTF-8"?>
<svg width="14px" height="16px" viewBox="0 0 14 16" version="1.1" xmlns="http://www.w3.org/2000/svg" xmlns:xlink="http://www.w3.org/1999/xlink">
    <!-- Generator: Sketch 62 (91390) - https://sketch.com -->
    <title>rook</title>
    <desc>Created with Sketch.</desc>
    <g id="Kotsadm" stroke="none" stroke-width="1" fill="none" fill-rule="evenodd">
        <g id="main_spritesheet" transform="translate(-196.000000, -83.000000)" fill="#0091BD" fill-rule="nonzero">
            <g id="rook" transform="translate(196.000000, 83.000000)">
                <path d="M13.1481903,4.96547538 L9.7245618,4.96547538 L9.7245618,3.82426588 L11.9948403,3.82426588 L11.9948403,1.15335003 L10.258745,1.15335003 L10.258745,2.67091585 L7.4421428,2.67091585 L7.4421428,1.15335003 L5.73032855,1.15335003 L5.73032855,2.67091585 L2.84088322,2.67091585 L2.84088322,1.15335003 L1.20191213,1.15335003 L1.20191213,3.82426588 L3.41148797,3.82426588 L3.41148797,4.96547538 L0.060702633,4.96547538 L0.060702633,0.0121405266 L3.98209272,0.0121405266 L3.98209272,1.52970635 L4.58911905,1.52970635 L4.58911905,0.0121405266 L8.5833523,0.0121405266 L8.5833523,1.52970635 L9.11753547,1.52970635 L9.11753547,0.0121405266 L13.1481903,0.0121405266 L13.1481903,4.96547538 Z M11.9705592,7.11434858 L11.9705592,13.4152819 C11.9705592,14.0830109 11.4242355,14.6293345 10.7565066,14.6293345 L2.45238637,14.6293345 C1.78465741,14.6293345 1.23833371,14.0830109 1.23833371,13.4152819 L1.23833371,7.11434858 L11.9705592,7.11434858 L11.9705592,7.11434858 Z M13.1117687,5.96099856 L0.0849836862,5.96099856 L0.0849836862,13.4274224 C0.0971242128,14.7264588 1.15335003,15.770544 2.45238637,15.770544 L10.7565066,15.770544 C12.0555429,15.770544 13.1117687,14.7143182 13.1239092,13.4031414 L13.1239092,5.94885803 L13.1117687,5.96099856 Z" id="Shape"></path>
                <path d="M6.60444647,9.40890811 C7.28431596,9.40890811 7.84278018,9.96737233 7.84278018,10.6472418 L7.84278018,11.9584187 L5.36611276,11.9584187 L5.36611276,10.6472418 C5.36611276,9.96737233 5.91243645,9.42104864 6.60444647,9.40890811 L6.60444647,9.40890811 Z M6.60444647,8.26769861 C5.2932696,8.26769861 4.22490326,9.33606495 4.22490326,10.6472418 L4.22490326,13.0874877 L8.98398968,13.0874877 L8.98398968,10.6472418 C8.98398968,9.33606495 7.91562334,8.26769861 6.60444647,8.26769861 L6.60444647,8.26769861 Z" id="Shape"></path>
            </g>
        </g>
    </g>
</svg>