<?xml version="1.0" encoding="UTF-8"?>
<svg width="16px" height="16px" viewBox="0 0 16 16" version="1.1" xmlns="http://www.w3.org/2000/svg" xmlns:xlink="http://www.w3.org/1999/xlink">
    <!-- Generator: Sketch 62 (91390) - https://sketch.com -->
    <title>Help</title>
    <desc>Created with Sketch.</desc>
    <g id="Kotsadm" stroke="none" stroke-width="1" fill="none" fill-rule="evenodd">
        <g id="main_spritesheet" transform="translate(-55.000000, -346.000000)">
            <g id="Help" transform="translate(55.000000, 346.000000)">
                <g id="Oval-6">
                    <g id="path-54-link" fill="#FFFFFF">
                        <circle id="path-54" cx="8" cy="8" r="8"></circle>
                    </g>
                    <circle id="Oval" stroke="#9B9B9B" cx="8" cy="8" r="7.05555556"></circle>
                </g>
                <path d="M7.27473595,10.8888889 L8.94229147,10.8888889 L8.94229147,12.4444444 L7.27473595,12.4444444 L7.27473595,10.8888889 Z M5.29606928,6.384 C5.29606928,5.92770142 5.36451304,5.51289076 5.50140261,5.13955556 C5.63829219,4.76622036 5.83740131,4.44681614 6.09873595,4.18133333 C6.36007059,3.91585052 6.67532669,3.71051924 7.04451372,3.56533333 C7.41370076,3.42014742 7.82643737,3.34755556 8.28273595,3.34755556 C8.66436748,3.34755556 9.01903058,3.403555 9.34673591,3.51555556 C9.67444124,3.62755612 9.96066062,3.78933228 10.2054026,4.00088889 C10.4501445,4.2124455 10.6430316,4.47585028 10.7840692,4.79111111 C10.925107,5.10637195 10.9956248,5.46310912 10.9956248,5.86133333 C10.9956248,6.15170516 10.964514,6.40266561 10.9022915,6.61422222 C10.840069,6.82577884 10.7571068,7.00829553 10.6534026,7.16177778 C10.5496984,7.31526003 10.4314773,7.45214755 10.2987359,7.57244444 C10.1659946,7.69274134 10.0332551,7.81096238 9.90051369,7.92711111 C9.74288329,8.05985252 9.59769956,8.18844382 9.46495813,8.31288889 C9.3322168,8.43733396 9.21606978,8.57629553 9.11651369,8.72977778 C9.01695769,8.88326003 8.94021769,9.06370267 8.8862915,9.27111111 C8.83236531,9.47851956 8.80540261,9.73155404 8.80540261,10.0302222 L7.46140261,10.0302222 C7.46140261,9.66518338 7.48006909,9.35614942 7.51740261,9.10311111 C7.55473613,8.85007281 7.61488368,8.6281491 7.69784706,8.43733333 C7.78081044,8.24651756 7.88243905,8.07851924 8.00273595,7.93333333 C8.12303284,7.78814742 8.26614252,7.64503774 8.43206928,7.504 C8.56481068,7.38785127 8.69132794,7.2800005 8.81162484,7.18044444 C8.93192169,7.08088839 9.03977253,6.97096356 9.13518036,6.85066667 C9.23058827,6.73036977 9.30525422,6.5955563 9.35918036,6.44622222 C9.41310658,6.29688814 9.44006924,6.11851956 9.44006924,5.91111111 C9.44006924,5.66222098 9.39651413,5.44859348 9.30940258,5.27022222 C9.22229102,5.09185096 9.11651431,4.94874128 8.99206924,4.84088889 C8.86762421,4.7330365 8.7348848,4.65422247 8.59384706,4.60444444 C8.45280932,4.55466642 8.32836612,4.52977778 8.22051372,4.52977778 C7.70614078,4.52977778 7.32658902,4.6977761 7.08184706,5.03377778 C6.83710509,5.36977946 6.71473595,5.81984903 6.71473595,6.384 L5.29606928,6.384 Z" id="?" fill="#9B9B9B" fill-rule="nonzero"></path>
            </g>
        </g>
    </g>
</svg>