<svg width="56" height="56" viewBox="0 0 56 56" fill="none" xmlns="http://www.w3.org/2000/svg">
<g filter="url(#filter0_d)">
<circle cx="28" cy="28" r="25" fill="#181717"/>
</g>
<mask id="mask0" mask-type="alpha" maskUnits="userSpaceOnUse" x="14" y="15" width="28" height="26">
<path fill-rule="evenodd" clip-rule="evenodd" d="M14 15H41.6945V40.6939H14V15Z" fill="white"/>
</mask>
<g mask="url(#mask0)">
<path fill-rule="evenodd" clip-rule="evenodd" d="M27.8473 15C20.2007 15 14 20.8971 14 28.1723C14 33.9919 17.9677 38.9295 23.4697 40.6712C24.1617 40.7931 24.4158 40.3855 24.4158 40.0375C24.4158 39.7237 24.4029 38.6858 24.397 37.5851C20.5446 38.382 19.7317 36.031 19.7317 36.031C19.1018 34.5087 18.1942 34.1036 18.1942 34.1036C16.9379 33.2861 18.2889 33.3029 18.2889 33.3029C19.6795 33.3958 20.4116 34.6605 20.4116 34.6605C21.6467 36.674 23.651 36.0918 24.4412 35.7553C24.5655 34.9041 24.9244 34.3228 25.3204 33.9939C22.2447 33.661 19.0115 32.5313 19.0115 27.4841C19.0115 26.0462 19.5524 24.8709 20.4382 23.9485C20.2945 23.6167 19.8205 22.277 20.5724 20.4626C20.5724 20.4626 21.7354 20.1088 24.3814 21.813C25.486 21.5211 26.6705 21.3748 27.8473 21.3695C29.0241 21.3748 30.2097 21.5211 31.3163 21.813C33.9593 20.1088 35.1205 20.4626 35.1205 20.4626C35.8742 22.277 35.4002 23.6167 35.2565 23.9485C36.1443 24.8709 36.6814 26.0462 36.6814 27.4841C36.6814 32.5436 33.442 33.6573 30.3585 33.9834C30.8552 34.3922 31.2977 35.1938 31.2977 36.4227C31.2977 38.1852 31.2819 39.6037 31.2819 40.0375C31.2819 40.3883 31.5309 40.7988 32.2328 40.6697C37.7318 38.926 41.6947 33.9902 41.6947 28.1723C41.6947 20.8971 35.4949 15 27.8473 15Z" fill="white"/>
</g>
<path fill-rule="evenodd" clip-rule="evenodd" d="M19.2447 33.9122C19.2142 33.9778 19.1059 33.9975 19.0073 33.9525C18.9067 33.9093 18.8505 33.8201 18.883 33.7545C18.9128 33.6873 19.0211 33.6685 19.1215 33.7135C19.2219 33.7564 19.2793 33.8465 19.2447 33.9122Z" fill="white"/>
<path fill-rule="evenodd" clip-rule="evenodd" d="M19.8058 34.5076C19.7397 34.5658 19.6104 34.5388 19.5231 34.4467C19.4322 34.3549 19.4155 34.2319 19.4825 34.173C19.5506 34.1147 19.6758 34.142 19.7663 34.2338C19.8571 34.3267 19.8748 34.4485 19.8058 34.5076Z" fill="white"/>
<path fill-rule="evenodd" clip-rule="evenodd" d="M20.3516 35.266C20.2667 35.3222 20.1278 35.2697 20.042 35.1523C19.9572 35.0352 19.9572 34.8947 20.0441 34.8384C20.1298 34.7822 20.2667 34.833 20.3536 34.949C20.4383 35.0681 20.4383 35.2086 20.3516 35.266Z" fill="white"/>
<path fill-rule="evenodd" clip-rule="evenodd" d="M21.0995 35.9991C21.0236 36.0787 20.862 36.0573 20.7437 35.9487C20.6226 35.8425 20.5889 35.6917 20.6648 35.6121C20.7418 35.5323 20.9044 35.5548 21.0236 35.6625C21.1438 35.7685 21.1805 35.9203 21.0995 35.9991Z" fill="white"/>
<path fill-rule="evenodd" clip-rule="evenodd" d="M22.1315 36.4246C22.098 36.5277 21.9423 36.5744 21.7855 36.5306C21.6288 36.4854 21.5263 36.3648 21.558 36.2605C21.5905 36.1565 21.7469 36.1079 21.9049 36.1548C22.0613 36.1997 22.164 36.3197 22.1315 36.4246Z" fill="white"/>
<path fill-rule="evenodd" clip-rule="evenodd" d="M23.2647 36.5035C23.2686 36.6122 23.1356 36.7022 22.971 36.7042C22.8054 36.7079 22.6713 36.6198 22.6694 36.5129C22.6694 36.4032 22.7997 36.3142 22.965 36.3114C23.1297 36.3083 23.2647 36.3958 23.2647 36.5035Z" fill="white"/>
<path fill-rule="evenodd" clip-rule="evenodd" d="M24.3192 36.3327C24.3389 36.4385 24.2245 36.5474 24.061 36.5764C23.9002 36.6045 23.7514 36.5389 23.731 36.434C23.711 36.3253 23.8273 36.2165 23.988 36.1883C24.1518 36.1613 24.2983 36.225 24.3192 36.3327Z" fill="white"/>
<defs>
<filter id="filter0_d" x="0" y="0" width="56" height="56" filterUnits="userSpaceOnUse" color-interpolation-filters="sRGB">
<feFlood flood-opacity="0" result="BackgroundImageFix"/>
<feColorMatrix in="SourceAlpha" type="matrix" values="0 0 0 0 0 0 0 0 0 0 0 0 0 0 0 0 0 0 127 0"/>
<feOffset/>
<feGaussianBlur stdDeviation="1.5"/>
<feColorMatrix type="matrix" values="0 0 0 0 0 0 0 0 0 0 0 0 0 0 0 0 0 0 0.16 0"/>
<feBlend mode="normal" in2="BackgroundImageFix" result="effect1_dropShadow"/>
<feBlend mode="normal" in="SourceGraphic" in2="effect1_dropShadow" result="shape"/>
</filter>
</defs>
</svg>
