<svg width="50" height="50" viewBox="0 0 50 50" fill="none" xmlns="http://www.w3.org/2000/svg">
<circle cx="25" cy="25" r="25" fill="#336791"/>
<g clip-path="url(#clip0)">
<path d="M32.7288 32.295C32.9325 30.5988 32.8713 30.3513 34.1338 30.625L34.455 30.6538C35.4263 30.6975 36.6963 30.4975 37.455 30.1513C39.0613 29.4063 40.0138 28.1613 38.43 28.4888C34.8175 29.2338 34.555 28.01 34.555 28.01C38.3713 22.3475 39.9675 15.16 38.5888 13.4013C34.8338 8.60127 28.3325 10.8713 28.2238 10.9313L28.1888 10.9375C27.4763 10.7875 26.6888 10.7 25.7763 10.6875C24.1413 10.6625 22.9013 11.1163 21.9588 11.83C21.9588 11.83 10.3625 7.05252 10.9013 17.8388C11.0163 20.1338 14.1888 35.2138 17.9763 30.6513C19.3625 28.9838 20.7 27.575 20.7 27.575C21.3625 28.0163 22.1588 28.2413 22.9925 28.16L23.0575 28.105C23.0383 28.3211 23.0471 28.5387 23.0838 28.7525C22.1088 29.8425 22.3963 30.0338 20.4463 30.435C18.4738 30.8413 19.6338 31.565 20.3888 31.755C21.3063 31.985 23.4288 32.31 24.8638 30.3025L24.8063 30.5313C25.1888 30.8375 25.1625 32.7313 25.2188 34.0838C25.275 35.4363 25.3638 36.7 25.64 37.4438C25.9163 38.1875 26.24 40.1063 28.8025 39.5688C30.9438 39.11 32.5813 38.4488 32.7313 32.3063" fill="black"/>
<path d="M32.7288 32.295C32.9325 30.5988 32.8713 30.3513 34.1338 30.625L34.455 30.6538C35.4263 30.6975 36.6963 30.4975 37.455 30.1513C39.0613 29.4063 40.0138 28.1613 38.43 28.4888C34.8175 29.2338 34.555 28.01 34.555 28.01C38.3713 22.3475 39.9675 15.16 38.5888 13.4013C34.8338 8.60127 28.3325 10.8713 28.2238 10.9313L28.1888 10.9375C27.4763 10.7875 26.6888 10.7 25.7763 10.6875C24.1413 10.6625 22.9013 11.1163 21.9588 11.83C21.9588 11.83 10.3625 7.05252 10.9013 17.8388C11.0163 20.1338 14.1888 35.2138 17.9763 30.6513C19.3625 28.9838 20.7 27.575 20.7 27.575C21.3625 28.0163 22.1588 28.2413 22.9925 28.16L23.0575 28.105C23.0383 28.3211 23.0471 28.5387 23.0838 28.7525C22.1088 29.8425 22.3963 30.0338 20.4463 30.435C18.4738 30.8413 19.6338 31.565 20.3888 31.755C21.3063 31.985 23.4288 32.31 24.8638 30.3025L24.8063 30.5313C25.1888 30.8375 25.1625 32.7313 25.2188 34.0838C25.275 35.4363 25.3638 36.7 25.64 37.4438C25.9163 38.1875 26.24 40.1063 28.8025 39.5688C30.9438 39.11 32.5813 38.4488 32.7313 32.3063" stroke="black" stroke-width="3"/>
<path d="M38.4188 28.5C34.8063 29.245 34.5438 28.0213 34.5438 28.0213C38.3601 22.3588 39.9563 15.1713 38.5788 13.4125C34.8238 8.61251 28.3226 10.8838 28.2138 10.9425L28.1788 10.9488C27.3847 10.7894 26.5774 10.7053 25.7676 10.6975C24.1326 10.6725 22.8926 11.1263 21.9501 11.84C21.9501 11.84 10.3526 7.06251 10.8926 17.8488C11.0076 20.1438 14.1801 35.2238 17.9676 30.6613C19.3626 28.9838 20.7001 27.575 20.7001 27.575C21.3626 28.0163 22.1588 28.2413 22.9926 28.16L23.0576 28.105C23.0385 28.3211 23.0473 28.5387 23.0838 28.7525C22.1088 29.8425 22.3963 30.0338 20.4463 30.435C18.4738 30.8413 19.6338 31.565 20.3888 31.755C21.3063 31.985 23.4288 32.31 24.8638 30.3025L24.8063 30.5313C25.1888 30.8375 25.4563 32.5225 25.4113 34.05C25.3663 35.5775 25.3363 36.625 25.6363 37.445C25.9363 38.265 26.2363 40.1075 28.7988 39.57C30.9401 39.1113 32.0488 37.92 32.2051 35.9375C32.3151 34.5275 32.5626 34.735 32.5801 33.475L32.7801 32.8775C33.0088 30.965 32.8176 30.3488 34.1363 30.6363L34.4576 30.665C35.4288 30.7088 36.7001 30.5088 37.4451 30.1625C39.0513 29.4175 40.0038 28.1725 38.4201 28.5H38.4188Z" fill="#336791"/>
<path d="M28.2126 10.8838C27.8126 11.0088 34.6676 8.37751 38.5651 13.3563C39.9401 15.115 38.3463 22.3025 34.5301 27.965M25.0176 29.5838C24.9176 33.1413 25.0426 36.7238 25.3901 37.5838C25.7376 38.4438 26.4838 40.1463 29.0476 39.5988C31.1888 39.14 31.9688 38.2513 32.3063 36.29L33.0976 30.0188L25.0176 29.5838ZM21.9451 11.75C21.9451 11.75 10.3401 7.00502 10.8801 17.7913C10.9951 20.0863 14.1676 35.1663 17.9551 30.6038C19.3376 28.9375 20.5876 27.6338 20.5876 27.6338L21.9451 11.75Z" stroke="white" stroke-linecap="round" stroke-linejoin="round"/>
<path d="M34.5313 27.9625C34.5313 27.9625 34.7813 29.1875 38.4063 28.44C39.9901 28.1125 39.0363 29.3575 37.4313 30.1025C36.1138 30.715 33.1588 30.8713 33.1101 30.0275C32.9851 27.8463 34.6651 28.5088 34.5438 27.9625C34.4338 27.47 33.6813 26.9875 33.1863 25.7825C32.7526 24.7325 27.2363 16.67 34.7163 17.8663C34.9913 17.81 32.7663 10.7413 25.7663 10.6388C18.7663 10.5363 18.9876 19.245 18.9876 19.245" stroke="white" stroke-linecap="round" stroke-linejoin="bevel"/>
<path d="M23.0588 28.71C22.0838 29.8 22.3713 29.9913 20.4213 30.3925C18.4488 30.7988 19.6088 31.5225 20.3638 31.7125C21.2813 31.9425 23.4038 32.2675 24.8388 30.2588C25.2763 29.6463 24.8363 28.6713 24.2363 28.4238C23.9463 28.3038 23.5588 28.1538 23.0613 28.7113L23.0588 28.71Z" stroke="white" stroke-linejoin="round"/>
<path d="M23.0002 14.75L22.7502 12H22.5002L21.3202 13.1L20.2502 19.5L19.2502 26.75L22.0002 27.5L23.7502 19.5L23.0002 14.75Z" fill="#336791"/>
<path d="M22.9951 28.6913C22.8951 28.05 23.2051 27.2888 23.5364 26.3963C24.0339 25.0588 25.1814 23.7213 24.2639 19.475C23.5801 16.3125 18.9889 18.8163 18.9889 19.245C18.9889 19.6738 19.1964 21.42 18.9139 23.4513C18.5426 26.1038 20.6014 28.3463 22.9714 28.1175" stroke="white" stroke-linecap="round" stroke-linejoin="round"/>
<path d="M21.9025 19.1812C21.8812 19.3275 22.1712 19.7187 22.5475 19.7712C22.9237 19.8237 23.245 19.5187 23.2662 19.3712C23.2875 19.2237 22.9975 19.0637 22.6212 19.0112C22.245 18.9587 21.9212 19.0362 21.9025 19.1812Z" fill="white" stroke="white" stroke-width="0.5975"/>
<path d="M33.3575 18.8825C33.3775 19.0288 33.0888 19.42 32.7125 19.4725C32.3363 19.525 32.0125 19.22 31.9938 19.0725C31.975 18.925 32.2625 18.765 32.6388 18.7125C33.015 18.66 33.3388 18.7375 33.3575 18.8825Z" fill="white" stroke="white" stroke-width="0.2975"/>
<path d="M34.7027 17.8688C34.7652 19.0188 34.4552 19.8 34.4152 21.0238C34.3577 22.8013 35.2627 24.8363 33.8989 26.8738" stroke="white" stroke-linecap="round" stroke-linejoin="round"/>
<path d="M25.5001 30.25L25.3501 29L32.6001 29.2031L32.5001 30.5L25.5001 30.25Z" fill="#336791"/>
</g>
<defs>
<clipPath id="clip0">
<rect x="9" y="9" width="32" height="32" fill="white"/>
</clipPath>
</defs>
</svg>
