<?xml version="1.0" encoding="UTF-8"?>
<svg width="15px" height="16px" viewBox="0 0 15 16" version="1.1" xmlns="http://www.w3.org/2000/svg" xmlns:xlink="http://www.w3.org/1999/xlink">
    <!-- Generator: Sketch 62 (91390) - https://sketch.com -->
    <title>containers</title>
    <desc>Created with Sketch.</desc>
    <g id="Kotsadm" stroke="none" stroke-width="1" fill="none" fill-rule="evenodd">
        <g id="main_spritesheet" transform="translate(0.000000, -341.000000)">
            <g id="containers" transform="translate(0.000000, 341.000000)">
                <polygon id="Fill-1" fill="#00C4F4" points="0.3762 3.5374 0.3752 11.3724 7.2822 14.9874 14.0392 11.3744 14.0382 3.5524 7.2822 0.4124"></polygon>
                <path d="M7.2837,0.0004 L0.0007,3.2954 L-0.0003,11.5984 L7.2837,15.4124 L14.4137,11.5994 L14.4137,7.4564 L14.4127,3.3134 L7.2837,0.0004 Z M0.7497,11.1454 L0.7507,3.7794 L7.2797,0.8244 L13.6627,3.7924 L13.6637,11.1494 L7.2797,14.5634 L0.7497,11.1454 Z" id="Fill-2" fill="#344E55"></path>
                <g id="Group-9" transform="translate(0.000000, 3.412000)">
                    <polygon id="Fill-3" fill="#01A5CA" points="1.8564 8.3065 0.7574 7.7235 0.7674 0.5935 7.0604 3.6135"></polygon>
                    <polyline id="Stroke-5" stroke="#344E55" stroke-width="0.5" points="0.3739 0.1312 7.2839 3.4912 13.9839 0.1312"></polyline>
                    <line x1="7.2841" y1="11.5927" x2="7.2841" y2="3.4907" id="Stroke-7" stroke="#344E55" stroke-width="0.5"></line>
                </g>
                <polygon id="Fill-10" fill="#00AAD1" points="8.6643 7.564 8.6643 13.229 9.5433 12.822 9.5433 7.003"></polygon>
                <polygon id="Stroke-11" stroke="#344E55" stroke-width="0.25" points="8.664 7.5637 9.544 7.0027 9.544 12.8217 8.664 13.2287"></polygon>
                <polygon id="Fill-12" fill="#00AAD1" points="10.3176 6.6649 10.3176 12.3299 11.1956 11.9229 11.1956 6.1039"></polygon>
                <polygon id="Stroke-13" stroke="#344E55" stroke-width="0.25" points="10.3173 6.6648 11.1963 6.1038 11.1963 11.9228 10.3173 12.3298"></polygon>
                <polygon id="Fill-14" fill="#00AAD1" points="11.9601 5.7838 11.9601 11.4488 12.8391 11.0428 12.8391 5.2228"></polygon>
                <polygon id="Stroke-15" stroke="#344E55" stroke-width="0.25" points="11.9599 5.7839 12.8399 5.2229 12.8399 11.0419 11.9599 11.4479"></polygon>
                <polygon id="Fill-16" fill="#01AED5" points="1.8564 11.7185 7.0254 7.0575 7.0604 14.4465"></polygon>
            </g>
        </g>
    </g>
</svg>