<?xml version="1.0" encoding="UTF-8"?>
<svg width="13px" height="16px" viewBox="0 0 13 16" version="1.1" xmlns="http://www.w3.org/2000/svg" xmlns:xlink="http://www.w3.org/1999/xlink">
    <!-- Generator: Sketch 62 (91390) - https://sketch.com -->
    <title>debian</title>
    <desc>Created with Sketch.</desc>
    <g id="Kotsadm" stroke="none" stroke-width="1" fill="none" fill-rule="evenodd">
        <g id="main_spritesheet" transform="translate(-29.000000, -324.000000)" fill="#BD4750">
            <path d="M40.2301274,331.858582 L39.9959082,331.974331 C39.8137687,332.347317 40.021948,332.20583 39.8787986,332.501604 C39.5795495,332.758841 38.980912,333.324789 38.7858222,333.376263 C38.6425335,333.363326 38.8768919,333.209039 38.915882,333.144764 C38.5124736,333.414801 38.5905931,333.556288 37.9790053,333.710712 L37.9659158,333.672037 C36.4564414,334.379472 34.3614191,332.99034 34.3873196,331.099672 C34.3743694,331.215422 34.3483295,331.189684 34.3093394,331.228359 C34.2312199,330.263688 34.7648275,329.286217 35.6627141,328.887493 C36.5475112,328.450233 37.5755969,328.630257 38.200135,329.209005 C37.8618957,328.758806 37.1721885,328.283008 36.3522821,328.334483 C35.5585548,328.347283 34.8038176,328.848956 34.5565089,329.389029 C34.1531005,329.646265 34.1010208,330.366638 33.9188813,330.507987 C33.6846621,332.244368 34.3743694,333.003277 35.5456045,333.890736 C35.727744,334.006486 35.5975449,334.032223 35.6235847,334.122236 C35.2332659,333.942211 34.8819371,333.672037 34.5825487,333.337726 C34.7387877,333.569225 34.9078377,333.787787 35.1291065,333.955011 C34.751738,333.826462 34.2702101,333.080352 34.1271999,333.041815 C34.751738,334.160773 36.6906606,335.009695 37.6927065,334.585234 C37.2241289,334.598034 36.6385809,334.598034 36.1051126,334.405209 C35.8838437,334.28946 35.5845946,334.057961 35.6366743,334.019286 C37.0290391,334.520959 38.4474437,334.405209 39.6445794,333.453476 C39.9438285,333.221977 40.282207,332.823253 40.373416,332.823253 C40.2301274,333.029015 40.3993166,332.926065 40.282207,333.106089 C40.5945457,332.630291 40.1521471,332.913265 40.5945457,332.283043 L40.7637349,332.501604 C40.698705,332.102881 41.2713026,331.614145 41.2061334,330.983923 C41.3363326,330.790961 41.3492829,331.189684 41.219223,331.639883 C41.4143128,331.138347 41.2713026,331.061135 41.323243,330.649612 C41.3753227,330.790961 41.4403526,330.932448 41.479482,331.086872 C41.3492829,330.598137 41.5965916,330.276488 41.6616215,329.993514 C41.5965916,329.967914 41.4663925,330.212213 41.4403526,329.646265 C41.4534422,329.401966 41.5184721,329.517716 41.5314224,329.453441 C41.4924323,329.427704 41.3622331,329.24768 41.2842529,328.887493 C41.3363326,328.797481 41.4274023,329.106055 41.5055218,329.118993 C41.4663925,328.823081 41.3753227,328.60452 41.3753227,328.38582 C41.1540538,327.922822 41.2972032,328.450233 41.1150637,328.192996 C40.8678942,327.459824 41.3102927,328.012834 41.3363326,327.691323 C41.7006116,328.205796 41.9089302,329.003243 42,329.337692 C41.9218805,328.926031 41.8177212,328.540245 41.6747111,328.154321 C41.7787311,328.205796 41.4924323,327.331137 41.8177212,327.910022 C41.4663925,326.662377 40.347237,325.504744 39.3192905,324.964671 C39.4493503,325.080421 39.6055893,325.221908 39.5535096,325.247645 C39.0329916,324.938934 39.1240614,324.913196 39.0590315,324.797447 C38.6425335,324.630223 38.6166329,324.810247 38.3303341,324.797447 C37.5495571,324.385786 37.3933181,324.424461 36.6777103,324.167224 L36.7036109,324.321511 C36.1832321,324.141487 36.1051126,324.385786 35.532515,324.321511 C35.5064751,324.295774 35.7146545,324.218562 35.8969333,324.192962 C35.3893656,324.257236 35.4154054,324.102812 34.9209272,324.218562 C35.0380368,324.128549 35.1680967,324.077212 35.2982958,324 C34.8948874,324.025737 34.3222897,324.244437 34.4914789,324.051475 C33.8278115,324.347249 32.6436261,324.75891 31.9670084,325.376195 L31.9539188,325.234708 C31.6417194,325.594894 30.6136337,326.327928 30.5355142,326.790927 L30.457534,326.816664 C30.2883447,327.0739 30.1841854,327.382612 30.0670758,327.652786 C29.8588965,328.000034 29.7547372,327.781335 29.7938666,327.84561 C29.3773686,328.668794 29.1691892,329.350492 29,329.916439 C29.1301991,330.096464 29,331.035398 29.0520797,331.76857 C28.8439003,335.446955 31.6546697,339.009729 34.7256981,339.832913 C35.1811862,339.9872 35.8448536,339.9872 36.4174513,340 C35.7406943,339.807176 35.6627141,339.897188 34.9990467,339.678489 C34.5306083,339.44699 34.426449,339.202553 34.0880705,338.919717 L34.2312199,339.151216 C33.5675525,338.919717 33.8409011,338.855304 33.3072935,338.701018 L33.4504429,338.508056 C33.2422636,338.495256 32.8909348,338.160807 32.7867755,337.967845 L32.5655066,337.980783 C32.279347,337.633534 32.1361976,337.389098 32.1491479,337.196274 L32.0710284,337.337623 C31.9799587,337.196274 31.0430819,336.05144 31.5246098,336.321614 C31.4334008,336.244402 31.3162912,336.192927 31.1862313,335.948628 L31.2903907,335.832879 C31.0560322,335.536967 30.8478529,335.151181 30.8608032,335.022494 C30.9910023,335.189719 31.082072,335.228394 31.1601915,335.254131 C30.5746436,333.800724 30.5355142,335.176919 30.0931157,333.774987 L30.1841854,333.762049 C30.1062052,333.659237 30.0670758,333.53055 30.0020459,333.414801 L30.0541256,333.016077 C29.6246773,332.527342 29.9239264,330.932448 29.9890956,330.057926 C30.0280857,329.710678 30.3533747,329.324754 30.5875939,328.733069 L30.4444444,328.707332 C30.717793,328.231533 32.0320383,326.778127 32.6436261,326.855339 C32.9299249,326.495153 32.5785961,326.855339 32.5265165,326.765327 C33.1772336,326.096429 33.3723234,326.289391 33.8148612,326.173642 C34.2832996,325.903467 33.4114528,326.276591 33.6325825,326.070692 C34.4393993,325.86493 34.2051801,325.607694 35.272256,325.504744 C35.3764153,325.556219 35.011997,325.594894 34.9209272,325.671968 C35.5975449,325.350457 37.0550789,325.427669 38.0179954,325.86493 C39.1240614,326.366603 40.3603265,327.884285 40.4124061,329.299017 L40.4643465,329.311954 C40.438446,329.877764 40.5555556,330.533862 40.347237,331.138347 L40.4905256,330.855373 C40.5034759,331.279697 40.3603265,331.485596 40.2301274,331.858582 Z" id="debian"></path>
        </g>
    </g>
</svg>