<?xml version="1.0" encoding="UTF-8"?>
<svg width="21px" height="16px" viewBox="0 0 21 16" version="1.1" xmlns="http://www.w3.org/2000/svg" xmlns:xlink="http://www.w3.org/1999/xlink">
    <!-- Generator: Sketch 62 (91390) - https://sketch.com -->
    <title>Group</title>
    <desc>Created with Sketch.</desc>
    <g id="Kotsadm" stroke="none" stroke-width="1" fill="none" fill-rule="evenodd">
        <g id="main_spritesheet" transform="translate(-56.000000, -325.000000)" fill="#F92672">
            <g id="Group" transform="translate(56.000000, 325.000000)">
                <path d="M1.2296413,5.77307042 L1.20955435,5.77307042 C0.662413043,5.77307042 0.218673913,6.21092958 0.218673913,6.75132394 L0.218673913,14.9947042 C0.218673913,15.5348732 0.662184783,15.9729577 1.20955435,15.9729577 L1.2296413,15.9729577 C1.77678261,15.9729577 2.22052174,15.5350986 2.22052174,14.9947042 L2.22052174,6.75132394 C2.22052174,6.21092958 1.77678261,5.77307042 1.2296413,5.77307042 Z" id="Shape"></path>
                <path d="M4.32303261,9.83887324 L4.30294565,9.83887324 C3.75580435,9.83887324 3.31206522,10.2767324 3.31206522,10.8171268 L3.31206522,14.9947042 C3.31206522,15.5348732 3.75557609,15.9729577 4.30294565,15.9729577 L4.32303261,15.9729577 C4.87017391,15.9729577 5.31391304,15.5350986 5.31391304,14.9947042 L5.31391304,10.8171268 C5.31391304,10.2767324 4.87017391,9.83887324 4.32303261,9.83887324 Z" id="Shape"></path>
                <path d="M7.41665217,4 L7.39656522,4 C6.84942391,4 6.40568478,4.38150574 6.40568478,4.85235018 L6.40568478,15.1206076 C6.40568478,15.5912557 6.84919565,15.9729577 7.39656522,15.9729577 L7.41665217,15.9729577 C7.96379348,15.9729577 8.40753261,15.591452 8.40753261,15.1206076 L8.40753261,4.85215384 C8.40730435,4.38150574 7.96379348,4 7.41665217,4 Z" id="Shape"></path>
                <path d="M10.5100435,0.0754929577 L10.4899565,0.0754929577 C9.94281522,0.0754929577 9.49907609,0.513352113 9.49907609,1.05374648 L9.49907609,14.9947042 C9.49907609,15.5348732 9.94258696,15.9729577 10.4899565,15.9729577 L10.5100435,15.9729577 C11.0571848,15.9729577 11.5009239,15.5350986 11.5009239,14.9947042 L11.5009239,1.05374648 C11.5009239,0.513577465 11.0571848,0.0754929577 10.5100435,0.0754929577 Z" id="Shape"></path>
                <path d="M13.6034348,7.27729577 L13.5833478,7.27729577 C13.0362065,7.27729577 12.5924674,7.63963833 12.5924674,8.08683209 L12.5924674,15.1634214 C12.5924674,15.6104287 13.0359783,15.9729577 13.5833478,15.9729577 L13.6034348,15.9729577 C14.1505761,15.9729577 14.5943152,15.6106152 14.5943152,15.1634214 L14.5943152,8.08683209 C14.5943152,7.63963833 14.1508043,7.27729577 13.6034348,7.27729577 Z" id="Shape"></path>
                <path d="M16.6970543,2.50614085 L16.6769674,2.50614085 C16.1298261,2.50614085 15.686087,2.944 15.686087,3.48439437 L15.686087,14.9947042 C15.686087,15.5348732 16.1295978,15.9729577 16.6769674,15.9729577 L16.6970543,15.9729577 C17.2441957,15.9729577 17.6879348,15.5350986 17.6879348,14.9947042 L17.6879348,3.48416901 C17.6877065,2.944 17.2441957,2.50614085 16.6970543,2.50614085 Z" id="Shape"></path>
                <path d="M19.7904457,7.27729577 L19.7703587,7.27729577 C19.2232174,7.27729577 18.7794783,7.71515493 18.7794783,8.2555493 L18.7794783,14.9947042 C18.7794783,15.5348732 19.2229891,15.9729577 19.7703587,15.9729577 L19.7904457,15.9729577 C20.337587,15.9729577 20.7813261,15.5350986 20.7813261,14.9947042 L20.7813261,8.2555493 C20.7813261,7.71538028 20.337587,7.27729577 19.7904457,7.27729577 Z" id="Shape"></path>
            </g>
        </g>
    </g>
</svg>