<?xml version="1.0" encoding="UTF-8"?>
<svg width="22px" height="16px" viewBox="0 0 22 16" version="1.1" xmlns="http://www.w3.org/2000/svg" xmlns:xlink="http://www.w3.org/1999/xlink">
    <!-- Generator: Sketch 62 (91390) - https://sketch.com -->
    <title>no_docker</title>
    <desc>Created with Sketch.</desc>
    <g id="Kotsadm" stroke="none" stroke-width="1" fill="none" fill-rule="evenodd">
        <g id="main_spritesheet" transform="translate(0.000000, -413.000000)">
            <g id="no_docker" transform="translate(0.000000, 413.000000)">
                <path d="M12.4430846,7.35134318 L14.7147134,7.35134318 L14.7147134,5.18925452 L12.4430846,5.18925452 L12.4430846,7.35134318 Z M9.7584848,7.35134318 L12.0299693,7.35134318 L12.0299693,5.18925452 L9.7584848,5.18925452 L9.7584848,7.35134318 Z M7.07388504,7.35134318 L9.34551385,7.35134318 L9.34551385,5.18925452 L7.07388504,5.18925452 L7.07388504,7.35134318 Z M4.38928528,7.35134318 L6.66091409,7.35134318 L6.66091409,5.18925452 L4.38928528,5.18925452 L4.38928528,7.35134318 Z M1.70468551,7.35134318 L3.97631433,7.35134318 L3.97631433,5.18925452 L1.70468551,5.18925452 L1.70468551,7.35134318 Z M4.38928528,4.75671592 L6.66091409,4.75671592 L6.66091409,2.59462726 L4.38928528,2.59462726 L4.38928528,4.75671592 Z M7.07388504,4.75671592 L9.34551385,4.75671592 L9.34551385,2.59462726 L7.07388504,2.59462726 L7.07388504,4.75671592 Z M9.7584848,4.75671592 L12.0299693,4.75671592 L12.0299693,2.59462726 L9.7584848,2.59462726 L9.7584848,4.75671592 Z M9.7584848,2.16223974 L12.0299693,2.16223974 L12.0299693,0 L9.7584848,0 L9.7584848,2.16223974 Z M21.5412877,6.09059062 C21.0452031,5.74310939 19.9052763,5.61574996 19.0281098,5.78903734 C18.9151272,4.92396015 18.4546834,4.17385393 17.6170536,3.49581228 L17.1355427,3.15951088 L16.8141988,3.66426514 C16.4028151,4.31375289 16.1973397,5.21357821 16.2647252,6.0765403 C16.2950271,6.3800576 16.3902615,6.9230348 16.6885183,7.40044379 C16.3904058,7.56814126 15.8011069,7.79929182 15.0243694,7.7837307 L0.0848350975,7.7837307 L0.0555433076,7.96396771 C-0.0848552719,8.83116 -0.0818250867,11.5372834 1.59632032,13.6173363 C2.87188398,15.1982248 4.7843637,16 7.28037052,16 C12.6914155,16 16.6947229,13.3920778 18.5695418,8.65137623 C19.3067426,8.66678627 20.8939824,8.65605968 21.7093908,7.0248619 C21.7306021,6.98739436 21.779518,6.8894953 21.9219367,6.58053916 L22,6.41102875 L21.5412877,6.09059062 Z" id="docker" fill="#C4C8CA" fill-rule="nonzero"></path>
                <g id="warning" transform="translate(11.000000, 6.000000)">
                    <path d="M4.49210022,1.07085753 C5.0487479,0.111249413 5.95498165,0.1176788 6.50789975,1.07085753 L10.6796002,8.2624758 C11.2362479,9.22208393 10.7573637,10 9.63012889,10 L1.36987108,10 C0.233616412,10 -0.232518351,9.21565453 0.320399777,8.2624758 L4.49210022,1.07085753 Z" id="Triangle" fill="#BC4752"></path>
                    <path d="M6.03955696,4.59493671 L6.03955696,8.9240506 L4.96044304,8.9240506 L4.96044304,4.59493671 L6.03955696,4.59493671 Z M6.1875,3.33333333 C6.1875,3.42334785 6.1686447,3.50773519 6.13093354,3.58649789 C6.09322238,3.66526059 6.04318333,3.73417692 5.98081487,3.79324895 C5.91844642,3.85232097 5.84520084,3.89943723 5.76107595,3.93459915 C5.67695105,3.96976107 5.58702579,3.98734177 5.49129747,3.98734177 C5.39847,3.98734177 5.31072035,3.96976107 5.22804589,3.93459915 C5.14537142,3.89943723 5.07357625,3.85232097 5.01265823,3.79324895 C4.9517402,3.73417692 4.90315155,3.66526059 4.86689082,3.58649789 C4.83063009,3.50773519 4.8125,3.42334785 4.8125,3.33333333 C4.8125,3.24050587 4.83063009,3.15330561 4.86689082,3.07172996 C4.90315155,2.99015431 4.9517402,2.91983152 5.01265823,2.86075949 C5.07357625,2.80168747 5.14537142,2.7545712 5.22804589,2.71940928 C5.31072035,2.68424736 5.39847,2.66666667 5.49129747,2.66666667 C5.58702579,2.66666667 5.67695105,2.68424736 5.76107595,2.71940928 C5.84520084,2.7545712 5.91844642,2.80168747 5.98081487,2.86075949 C6.04318333,2.91983152 6.09322238,2.99015431 6.13093354,3.07172996 C6.1686447,3.15330561 6.1875,3.24050587 6.1875,3.33333333 Z" id="i" fill="#FFFFFF" fill-rule="nonzero" transform="translate(5.500000, 5.795359) rotate(180.000000) translate(-5.500000, -5.795359) "></path>
                </g>
            </g>
        </g>
    </g>
</svg>