<?xml version="1.0" encoding="UTF-8"?>
<svg width="16px" height="16px" viewBox="0 0 16 16" version="1.1" xmlns="http://www.w3.org/2000/svg" xmlns:xlink="http://www.w3.org/1999/xlink">
    <!-- Generator: Sketch 62 (91390) - https://sketch.com -->
    <title>RHEL</title>
    <desc>Created with Sketch.</desc>
    <g id="Kotsadm" stroke="none" stroke-width="1" fill="none" fill-rule="evenodd">
        <g id="main_spritesheet" transform="translate(-29.000000, -307.000000)">
            <g id="RHEL" transform="translate(29.000000, 307.000000)">
                <circle id="Oval" fill="#000000" cx="8" cy="8" r="8"></circle>
                <g id="Group-6" transform="translate(0.250000, 0.250000)">
                    <path d="M14.2565488,11.9627305 C13.95775,11.8940098 13.6408477,11.8512031 13.3201914,11.8512031 C12.7721816,11.8512031 12.2735781,11.9460195 11.9054531,12.0989609 C11.8648262,12.1191836 11.8360664,12.1615664 11.8360664,12.2097012 C11.8360664,12.2270781 11.8405469,12.2451816 11.8473281,12.2598945 C11.8907402,12.3861348 11.8191738,12.5229707 11.4632793,12.6013184 C10.9354316,12.7171445 10.6021816,13.2617031 10.4112773,13.4427988 C10.187375,13.6553184 9.55514453,13.7860391 9.65020312,13.659375 C9.72461523,13.5602598 10.0093066,13.2510469 10.1824707,12.9168281 C10.3372891,12.6182109 10.4751543,12.5333848 10.6650293,12.2484512 C10.7209141,12.1648359 10.9368848,11.8713652 10.9996719,11.6390469 C11.0702695,11.4122988 11.0464141,11.1279707 11.0735391,11.0109336 C11.1122891,10.8420684 11.2717695,10.4753359 11.2838184,10.2685684 C11.2907207,10.1512891 10.7951445,10.435375 10.5599805,10.435375 C10.3248164,10.435375 10.0955859,10.2948457 9.88554883,10.2844316 C9.6255,10.2722012 9.45845117,10.4849629 9.22310547,10.4477871 C9.08869141,10.4265957 8.97571094,10.3082871 8.74078906,10.2993262 C8.40650977,10.2870957 7.998,10.4849629 7.23093164,10.4604414 C6.4761543,10.4359805 5.77907812,9.50682813 5.68377734,9.3591543 C5.57243164,9.18556641 5.43620117,9.18556641 5.28774023,9.32161523 C5.1392793,9.45766406 4.95630664,9.35098047 4.90411523,9.25979688 C4.80518164,9.08645117 4.5404707,8.58003711 4.13056836,8.47401953 C3.56378906,8.32719336 3.27661523,8.78789453 3.31391211,9.15456641 C3.35169336,9.52680859 3.59230664,9.63100977 3.70389453,9.82881641 C3.81505859,10.0268652 3.8721543,10.1547402 4.08158594,10.2424121 C4.23028906,10.3040488 4.28556836,10.3958379 4.24130859,10.5177793 C4.20255859,10.6240391 4.04792188,10.6483184 3.94638477,10.6531621 C3.73041406,10.6633945 3.57904687,10.6048457 3.46854883,10.5343086 C3.34025,10.4526914 3.23580664,10.3389238 3.12367383,10.1457793 C2.99392187,9.93283594 2.78981836,9.84007813 2.55180859,9.84007813 C2.4384043,9.84007813 2.33232617,9.87004883 2.23811523,9.91854688 C1.86532813,10.1122969 1.42133789,10.2273359 0.943441406,10.2273359 L0.404634766,10.2275781 C0.142164062,9.44967188 0,8.61654688 0,7.75018164 C0,3.46975977 3.46994141,2.66453526e-15 7.75018164,2.66453526e-15 C12.0304219,2.66453526e-15 15.5,3.46975977 15.5,7.75018164 C15.5,9.30326953 15.0431738,10.7498555 14.2565488,11.9627305" id="Path" fill="#000000"></path>
                    <path d="M14.2565488,11.9625488 C13.95775,11.8938281 13.6408477,11.8505371 13.3201914,11.8505371 C12.7721816,11.8505371 12.2735781,11.9456017 11.9054531,12.0987793 C11.8648262,12.1187598 11.8360664,12.1613848 11.8360664,12.2095195 C11.8360664,12.2270781 11.8405469,12.245 11.8473281,12.2598945 C11.8907402,12.3859531 11.8191738,12.5225469 11.4632793,12.6008945 C10.9354316,12.7169629 10.6021816,13.2614609 10.4112773,13.4421934 C10.187375,13.6550762 9.55514453,13.7857969 9.65020312,13.6589512 C9.72461523,13.5600781 10.0093066,13.2508652 10.1824707,12.9168281 C10.3372891,12.6182109 10.4751543,12.5329609 10.6650293,12.2482695 C10.7209141,12.1648359 10.9368848,11.8711836 10.9996719,11.6388652 C11.0702695,11.4122988 11.0464141,11.1277891 11.0735391,11.0106914 C11.1122891,10.8416445 11.2717695,10.4751543 11.2838184,10.2679629 C11.2907207,10.1510469 10.7951445,10.4351934 10.5599805,10.4351934 C10.3248164,10.4351934 10.0955859,10.2944219 9.88554883,10.28425 C9.6255,10.2720195 9.45845117,10.4847207 9.22310547,10.4477871 C9.08869141,10.4261719 8.97571094,10.3076816 8.74078906,10.2989629 C8.40650977,10.2869141 7.998,10.4847207 7.23093164,10.4600781 C6.4761543,10.4355566 5.77907812,9.5064043 5.68377734,9.35854883 C5.57243164,9.18538477 5.43620117,9.18538477 5.28774023,9.32143359 C5.1392793,9.45742187 4.95630664,9.35055664 4.90411523,9.25919141 C4.80518164,9.08626953 4.5404707,8.57985547 4.13056836,8.4735957 C3.56378906,8.32676953 3.27661523,8.78765234 3.31391211,9.15438477 C3.35169336,9.52656641 3.59230664,9.63082812 3.70389453,9.82863477 C3.81505859,10.0266836 3.8721543,10.1543164 4.08158594,10.2418066 C4.23028906,10.3038066 4.28556836,10.3954141 4.24130859,10.5175977 C4.20255859,10.6236152 4.04792187,10.6478945 3.94638477,10.6527988 C3.73041406,10.6632129 3.57904687,10.6044219 3.46854883,10.5343086 C3.34025,10.4520859 3.23580664,10.3386816 3.12367383,10.1453555 C2.99392187,9.93241211 2.78981836,9.83923047 2.55180859,9.83923047 C2.4384043,9.83923047 2.33232617,9.869625 2.23811523,9.91794141 C1.86532812,10.1122969 1.42133789,10.2271543 0.943441406,10.2271543 L0.404634766,10.2273359 C1.43780664,13.2927031 4.33630664,15.5 7.75018164,15.5 C10.4771523,15.5 12.8751719,14.0917402 14.2565488,11.9625488" id="Path" fill="#FFFFFF"></path>
                    <path d="M9.45705859,11.2519707 C9.49677734,11.2909023 9.56555859,11.4216836 9.48151953,11.5877031 C9.43441406,11.6755566 9.38379687,11.7375566 9.29309766,11.8099707 C9.18417383,11.8972793 8.97104883,11.9982109 8.67878906,11.8128164 C8.52154883,11.7130957 8.51216406,11.6796738 8.29516406,11.7078281 C8.14016406,11.7279902 8.07852734,11.5715371 8.13423047,11.4414219 C8.18993359,11.3117305 8.41892187,11.2066816 8.70367383,11.3735488 C8.83154883,11.4488086 9.03141406,11.6074414 9.20621289,11.4669121 C9.27856641,11.4087871 9.32203906,11.3700371 9.42254687,11.2537871 C9.42708789,11.2489434 9.43338477,11.2460977 9.4405293,11.2460977 C9.44682617,11.2460977 9.45275977,11.2482773 9.45705859,11.2519707" id="Path" fill="#000000"></path>
                    <path d="M12.1234219,5.68807617 C12.0469512,5.94546094 11.9380879,6.27483594 11.4534707,6.52368359 C11.3829336,6.55958789 11.3559902,6.50043359 11.388625,6.44473047 C11.5715371,6.13327734 11.6041719,6.05541406 11.6574531,5.93244336 C11.7318652,5.75292187 11.7707969,5.49741406 11.6227598,4.96429883 C11.3313477,3.91538477 10.7231543,2.51342187 10.2814043,2.0586543 C9.85473047,1.61975 9.0819707,1.49617383 8.38344141,1.67545312 C8.12629883,1.74150977 7.62291211,2.00319336 6.68946094,1.79291406 C5.07419141,1.42902734 4.83478906,2.23793359 4.74221289,2.59031641 C4.64939453,2.94275977 4.42688477,3.94432617 4.42688477,3.94432617 C4.3526543,4.35204883 4.25553711,5.06135547 6.76369141,5.53900977 C7.932125,5.76170117 7.99170312,6.06352734 8.04328906,6.28095117 C8.13604687,6.67032812 8.28432617,6.89301953 8.45119336,7.00418359 C8.61818164,7.1155293 8.45119336,7.20768164 8.26598047,7.22669336 C7.7683457,7.2782793 5.92917383,6.75085547 4.84108594,6.13267187 C3.95086523,5.58853711 3.93578906,5.09865234 4.1395293,4.68305859 C2.7949043,4.537625 1.78576953,4.80929883 1.60279687,5.44582812 C1.28874023,6.53833594 4.00493359,8.40445117 7.09754687,9.34080859 C10.3431621,10.3236055 13.6811719,9.63754883 14.0522031,7.59766406 C14.2208262,6.67069141 13.4401348,5.98505859 12.1234219,5.68807617 M7.14713477,3.69045312 C6.25182812,3.75529883 6.15882812,3.85193164 5.99117383,4.03042383 C5.75479883,4.28229883 5.4433457,3.70371289 5.4433457,3.70371289 C5.25631641,3.66429687 5.02975,3.36307617 5.15211523,3.0816543 C5.27242187,2.80325977 5.49493164,2.886875 5.56468164,2.97357812 C5.64956836,3.07899023 5.83042187,3.25154883 6.0654043,3.24543359 C6.30032617,3.23907617 6.57139453,3.18973047 6.94950977,3.18973047 C7.3325293,3.18973047 7.5900957,3.33268164 7.60456641,3.45565234 C7.61703906,3.56051953 7.57356641,3.65963477 7.14713477,3.69045312 M8.08754883,2.21117187 C8.0860957,2.21141406 8.08470312,2.2115957 8.08343164,2.2115957 C8.06956641,2.2115957 8.05836523,2.20081836 8.05836523,2.18792187 C8.05836523,2.17859766 8.06405664,2.17042383 8.07247266,2.16673047 C8.246,2.07494141 8.50501953,2.00216406 8.80133594,1.97195117 C8.8902793,1.96280859 8.97716406,1.95808594 9.0607793,1.95729883 C9.07543164,1.95729883 9.09014453,1.95748047 9.10503906,1.95766211 C9.60182617,1.96892383 9.99955859,2.16630664 9.993625,2.398625 C9.98769141,2.63094336 9.58045312,2.81016211 9.08360547,2.79896094 C8.92267187,2.79532812 8.77178906,2.77207812 8.64185547,2.73453906 C8.62653711,2.73066406 8.61533594,2.7174043 8.61533594,2.7019043 C8.61533594,2.6864043 8.62653711,2.67314453 8.6422793,2.66945117 C8.9522793,2.59770312 9.16128711,2.48042383 9.14663477,2.36968359 C9.12707812,2.22303906 8.7215957,2.14305664 8.2410957,2.19143359 C8.18848047,2.19670117 8.13707617,2.20342187 8.08754883,2.21117187" id="Shape" fill="#FE010F" fill-rule="nonzero"></path>
                </g>
            </g>
        </g>
    </g>
</svg>