<svg width="56" height="56" viewBox="0 0 56 56" fill="none" xmlns="http://www.w3.org/2000/svg">
<g filter="url(#filter0_d)">
<circle cx="28" cy="28" r="25" fill="white"/>
</g>
<path d="M12.0007 31.8985C12.0011 31.7928 12.0068 31.6936 12.0164 31.5984C12.1639 29.1449 13.9982 27.1558 16.3698 26.7891C16.666 22.9903 19.8187 20 23.6668 20C26.2208 20 28.4683 21.3177 29.7788 23.314C30.3371 23.199 30.9202 23.1367 31.5204 23.1367C34.4868 23.1367 37.0404 24.627 38.1906 26.7687C38.4046 26.7411 38.6215 26.7225 38.8427 26.7225C41.691 26.7225 44 29.0475 44 31.9156C44 34.4207 42.326 36.7038 39.9449 36.9502C39.5744 36.9881 38.4039 37 38.4039 37H17.7774C17.7774 37 16.5301 37.0025 16.1166 36.9602C13.9292 36.7364 12.2997 34.7588 12.0391 32.528C12.0391 32.5237 12.038 32.5197 12.0373 32.5158C12.0313 32.4631 12.027 32.4105 12.0224 32.3575C12.0092 32.2139 12 32.0685 12 31.9196V31.9156C12 31.9096 12.0007 31.9045 12.0007 31.8985Z" fill="#77CFCF"/>
<defs>
<filter id="filter0_d" x="0" y="0" width="56" height="56" filterUnits="userSpaceOnUse" color-interpolation-filters="sRGB">
<feFlood flood-opacity="0" result="BackgroundImageFix"/>
<feColorMatrix in="SourceAlpha" type="matrix" values="0 0 0 0 0 0 0 0 0 0 0 0 0 0 0 0 0 0 127 0"/>
<feOffset/>
<feGaussianBlur stdDeviation="1.5"/>
<feColorMatrix type="matrix" values="0 0 0 0 0 0 0 0 0 0 0 0 0 0 0 0 0 0 0.16 0"/>
<feBlend mode="normal" in2="BackgroundImageFix" result="effect1_dropShadow"/>
<feBlend mode="normal" in="SourceGraphic" in2="effect1_dropShadow" result="shape"/>
</filter>
</defs>
</svg>
