<svg width="300" height="400" viewBox="0 0 300 400" fill="none" xmlns="http://www.w3.org/2000/svg">
<g clip-path="url(#clip0)">
<path fill-rule="evenodd" clip-rule="evenodd" d="M17.6241 28.6244L19.2738 35.7017C19.3066 36.0048 19.2355 36.3075 19.0581 36.5581L14.4645 42.224C14.2751 42.4844 13.9803 42.6261 13.6666 42.5867H6.34335C6.03648 42.5669 5.73078 42.4231 5.51202 42.2091L0.930422 36.5581C0.754524 36.3096 0.683262 36.0092 0.735006 35.7082L2.36658 28.5717C2.43635 28.277 2.62778 28.0517 2.88891 27.9306L9.50844 24.7494C9.65838 24.7161 9.82444 24.7184 9.9725 24.7184C10.1125 24.7184 10.2713 24.7321 10.4117 24.8026L17.0504 27.9713C17.3161 28.1138 17.5327 28.3412 17.6241 28.6244Z" fill="#326DE6"/>
<path fill-rule="evenodd" clip-rule="evenodd" d="M9.58551 24.978L2.9911 28.1471L2.98959 28.1478C2.79388 28.2386 2.65241 28.4048 2.59976 28.626C2.59969 28.6263 2.59963 28.6266 2.59956 28.6269L0.969946 35.7549C0.931633 35.987 0.98574 36.2187 1.12159 36.4137L5.68885 42.047C5.86678 42.2167 6.11184 42.3298 6.35148 42.3472H13.6816L13.6964 42.3491C13.9149 42.3765 14.1274 42.2803 14.2708 42.0831L14.2745 42.078L18.8669 36.4137C19.0026 36.2188 19.0602 35.9829 19.0371 35.7413L17.3933 28.6892C17.3233 28.4814 17.1591 28.3027 16.9419 28.1849L10.3064 25.0177L10.3042 25.0166C10.2147 24.9716 10.1017 24.9578 9.97246 24.9578L9.95548 24.9578C9.81654 24.9578 9.69387 24.9577 9.58551 24.978ZM9.94153 24.4789C9.95212 24.4789 9.96244 24.4789 9.97246 24.4789C10.1227 24.4789 10.3262 24.4924 10.5169 24.5875L17.1586 27.7576L17.1635 27.7603C17.4724 27.926 17.7378 28.1974 17.852 28.5508L17.855 28.5603L19.5102 35.6615L19.5118 35.6759C19.5505 36.0331 19.4669 36.3951 19.2535 36.6965L19.249 36.7029L14.6542 42.3702C14.4216 42.6863 14.0531 42.8705 13.6525 42.8261H6.3356L6.3279 42.8256C5.96035 42.8019 5.60164 42.6318 5.34454 42.3803L5.33467 42.3706L0.739455 36.7029L0.734936 36.6965C0.523303 36.3975 0.43617 36.0329 0.498974 35.6677L0.50008 35.6612L2.13332 28.5174L2.13353 28.5165C2.22044 28.1495 2.46107 27.8656 2.78655 27.7141L9.42955 24.5216L9.45649 24.5156C9.62458 24.4783 9.80517 24.4786 9.94153 24.4789Z" fill="white"/>
<path fill-rule="evenodd" clip-rule="evenodd" d="M9.42818 24.5223L2.7867 27.7141L2.78546 27.7147C2.45846 27.8672 2.22073 28.1473 2.13338 28.5175C2.13333 28.5177 2.13327 28.5179 2.13321 28.5182L0.500223 35.6609C0.435008 36.0294 0.520929 36.3977 0.739753 36.7032L5.33437 42.3702C5.59651 42.6316 5.96986 42.8047 6.33604 42.8261H13.652L13.6639 42.8273C14.0449 42.8656 14.4093 42.7005 14.6513 42.3742L14.6544 42.37L19.2489 36.7032C19.4651 36.4013 19.5541 36.0334 19.5102 35.6609L17.8552 28.5609C17.7493 28.2228 17.4938 27.9359 17.1584 27.7575L10.517 24.5875L10.5154 24.5867C10.3533 24.5063 10.1613 24.4789 9.97254 24.4789C9.77548 24.4789 9.58731 24.4826 9.42818 24.5223ZM9.28206 24.0655C9.51656 24.0014 9.77519 24 9.97254 24C10.1998 24 10.4733 24.0317 10.7265 24.1568L17.3736 27.3296L17.3779 27.3318C17.8141 27.5622 18.1681 27.9469 18.3155 28.4281L18.3179 28.4359L19.9824 35.5769L19.9839 35.5893C20.0458 36.0821 19.9292 36.5796 19.6333 36.9889L19.6294 36.9943L15.0328 42.6637C14.6985 43.1117 14.1803 43.356 13.6285 43.305H6.32285L6.3164 43.3047C5.82024 43.2779 5.32949 43.0469 4.98564 42.6987L4.9774 42.6903L0.359241 36.9943L0.355361 36.9889C0.0579401 36.5775 -0.0610748 36.0735 0.0298773 35.5705L0.0308545 35.5651L1.66686 28.4092L1.66703 28.4085C1.78852 27.8923 2.12536 27.4946 2.58166 27.2813L9.26108 24.0713L9.28206 24.0655Z" fill="#326DE6"/>
<path fill-rule="evenodd" clip-rule="evenodd" d="M15.0624 29.4588C15.4797 29.7838 15.5546 30.3856 15.2296 30.803L9.97312 37.5529C9.95173 37.5804 9.92925 37.607 9.90572 37.6327L9.90571 37.6327C9.41879 38.164 8.59302 38.1989 8.06327 37.7094L4.64693 34.5528C4.25839 34.1938 4.23445 33.5878 4.59345 33.1992C4.95244 32.8107 5.55844 32.7868 5.94697 33.1458L8.87229 35.8487L13.7181 29.626C14.0432 29.2086 14.645 29.1337 15.0624 29.4588Z" fill="white"/>
<path fill-rule="evenodd" clip-rule="evenodd" d="M17.6136 50.7025L19.262 57.902C19.295 58.2112 19.2239 58.52 19.0462 58.7757L14.4563 64.539C14.3609 64.6725 14.2394 64.7754 14.1017 64.8392C13.9673 64.9015 13.8177 64.9261 13.6641 64.9064H6.34662C6.04146 64.8863 5.73769 64.7404 5.52019 64.5238L0.942397 58.7757C0.766096 58.5221 0.69492 58.2155 0.746801 57.9085L2.37706 50.649C2.4467 50.3496 2.63719 50.1201 2.89803 49.997L9.51147 46.7613C9.66048 46.7278 9.82544 46.7301 9.97252 46.7301C10.1113 46.7301 10.2688 46.7439 10.408 46.8151L17.0411 50.0383C17.3065 50.1832 17.5224 50.4147 17.6136 50.7025Z" fill="#326DE6"/>
<path fill-rule="evenodd" clip-rule="evenodd" d="M9.59088 46.9934L3.00341 50.2163L3.00186 50.217C2.80861 50.3082 2.66723 50.4767 2.61428 50.7033C2.61421 50.7035 2.61415 50.7038 2.61408 50.7041L0.985739 57.9551C0.947002 58.1937 1.00158 58.4312 1.13794 58.6306L5.70135 64.3606C5.87775 64.5318 6.11959 64.6454 6.3551 64.663H13.6797L13.6951 64.6649C13.8026 64.6788 13.906 64.6616 13.9993 64.6184C14.0957 64.5737 14.1853 64.4996 14.2582 64.3975L14.2619 64.3923L18.8506 58.6305C18.9868 58.4313 19.0448 58.1895 19.0213 57.9415L17.3787 50.7672C17.3086 50.555 17.1447 50.3735 16.9293 50.2545L10.2994 47.0329L10.2972 47.0317C10.2103 46.9873 10.1001 46.9735 9.97249 46.9735L9.95484 46.9735C9.81733 46.9734 9.69706 46.9734 9.59088 46.9934ZM9.94098 46.4867C9.95178 46.4867 9.96229 46.4867 9.97249 46.4867C10.1218 46.4867 10.3255 46.5002 10.5164 46.5972L17.1527 49.8219L17.1578 49.8246C17.4678 49.994 17.732 50.2708 17.8456 50.6289L17.8486 50.6384L19.5024 57.8618L19.504 57.8762C19.5427 58.2391 19.4596 58.6073 19.2459 58.9146L19.2414 58.9211L14.6504 64.6859C14.5331 64.8482 14.3811 64.9779 14.204 65.06C14.0334 65.1391 13.8435 65.1716 13.6495 65.1497H6.33858L6.33059 65.1492C5.96237 65.1249 5.60443 64.9511 5.34844 64.6963L5.33851 64.6864L0.747062 58.9211L0.742546 58.9146C0.530586 58.6097 0.444114 58.2389 0.506801 57.8679L0.507886 57.8615L2.13978 50.5947L2.13999 50.5938C2.22631 50.2227 2.46516 49.9327 2.7925 49.7776L9.43012 46.5301L9.45798 46.5238C9.62574 46.4861 9.80583 46.4864 9.94098 46.4867Z" fill="white"/>
<path fill-rule="evenodd" clip-rule="evenodd" d="M9.42865 46.5309L2.79262 49.7776L2.79135 49.7782C2.466 49.9327 2.22744 50.2169 2.13984 50.5948C2.13978 50.5951 2.13973 50.5953 2.13967 50.5955L0.508021 57.8612C0.442784 58.2365 0.529065 58.6111 0.747348 58.9214L5.3382 64.6859C5.60072 64.9524 5.974 65.1279 6.33904 65.1497H13.649L13.6612 65.151C13.8521 65.1704 14.0368 65.1376 14.2041 65.06C14.3724 64.982 14.5256 64.8574 14.6475 64.69L14.6506 64.6857L19.2413 58.9214C19.4571 58.6147 19.5463 58.2404 19.5024 57.8612L17.8488 50.639C17.7426 50.2939 17.4867 50.0027 17.1526 49.8218L10.5166 46.5972L10.515 46.5964C10.3531 46.5147 10.1615 46.4867 9.97256 46.4867C9.77495 46.4867 9.58717 46.4906 9.42865 46.5309ZM9.27755 46.0675C9.51393 46.0015 9.7745 46 9.97256 46C10.2016 46 10.4773 46.0326 10.7326 46.161L17.3744 49.3884L17.3788 49.3908C17.8159 49.6257 18.17 50.0173 18.3172 50.5062L18.3195 50.514L19.9825 57.7773L19.984 57.7897C20.0456 58.2889 19.9294 58.7931 19.6344 59.2085L19.6305 59.2139L15.0377 64.9809C14.8694 65.2105 14.6535 65.3883 14.4087 65.5017C14.1673 65.6136 13.8997 65.6622 13.6248 65.6365H6.32543L6.31877 65.6361C5.81929 65.6087 5.32588 65.3724 4.9808 65.0166L4.97253 65.0081L0.358096 59.2139L0.354217 59.2085C0.0577755 58.791 -0.0607727 58.2803 0.0296865 57.7709L0.0306475 57.7655L1.66526 50.4866L1.66544 50.4859C1.78665 49.9616 2.12372 49.5569 2.5812 49.3391L9.25605 46.0735L9.27755 46.0675Z" fill="#326DE6"/>
<path d="M10.8824 49.9286C11.273 49.9286 11.5896 50.2603 11.5896 50.6695L11.5895 54.2501L15.0075 54.2502C15.398 54.2502 15.7146 54.5818 15.7146 54.991V57.2135C15.7146 57.6226 15.398 57.9543 15.0075 57.9543L11.5895 57.9543L11.5896 61.535C11.5896 61.9441 11.273 62.2758 10.8824 62.2758H8.76094C8.37039 62.2758 8.05378 61.9441 8.05378 61.535L8.05375 57.9543L4.63587 57.9543C4.24532 57.9543 3.92871 57.6226 3.92871 57.2135V54.991C3.92871 54.5818 4.24532 54.2502 4.63587 54.2502L8.05375 54.2501L8.05378 50.6695C8.05378 50.2603 8.37039 49.9286 8.76094 49.9286H10.8824Z" fill="white"/>
<path d="M57.4242 231.447L57.4243 231.447L60.99 235.021C61.9419 235.975 63.3039 236.797 64.7076 237.379C66.1112 237.962 67.6544 238.346 69.001 238.346H136.684C138.483 238.346 139.963 239.826 139.963 241.634V311.942C139.963 313.751 138.483 315.23 136.684 315.23H30.2781C28.4796 315.23 27 313.751 27 311.942V231.997C27 230.188 28.4798 228.708 30.2781 228.708H50.8291C51.8354 228.708 53.1119 229.006 54.3557 229.522C55.5994 230.039 56.7123 230.733 57.4242 231.447Z" fill="#CEE3F6" stroke="#73A3CD" stroke-width="2"/>
<path d="M131.5 203.723L131.509 203.733L131.518 203.742L141.443 214.208L141.352 282.053C141.352 282.211 141.224 282.34 141.065 282.34H70.6556C70.4972 282.34 70.3689 282.211 70.3689 282.053V190.987C70.3689 190.828 70.4986 190.699 70.6579 190.7L120.134 191.096L131.5 203.723Z" fill="white" stroke="#E5E5E5" stroke-width="2"/>
<path d="M118.5 191V214.814C118.5 215.288 118.884 215.672 119.358 215.672H140.432" stroke="#E5E5E5" stroke-width="2" stroke-dasharray="1.12 1.12"/>
<path d="M80.9583 204.652H100.019" stroke="#EBB55C" stroke-width="1.23192" stroke-linecap="round"/>
<path d="M86.7529 214.227H105.813" stroke="#EBB55C" stroke-width="1.23192" stroke-linecap="round"/>
<path d="M86.7529 223.802H114.761" stroke="#EBB55C" stroke-width="1.23192" stroke-linecap="round"/>
<path d="M86.7529 270.54H114.761" stroke="#EBB55C" stroke-width="1.23192" stroke-linecap="round"/>
<path d="M80.9583 233.377H95.445" stroke="#EBB55C" stroke-width="1.23192" stroke-linecap="round"/>
<path d="M86.7529 242.952H97.3765" stroke="#EBB55C" stroke-width="1.23192" stroke-linecap="round"/>
<path d="M86.7529 252.527H102.205" stroke="#EBB55C" stroke-width="1.23192" stroke-linecap="round"/>
<path d="M80.9583 262.102H100.019" stroke="#EBB55C" stroke-width="1.23192" stroke-linecap="round"/>
<path d="M101.178 191L101.187 191.01L101.196 191.02L111.121 201.485L111.03 269.331C111.03 269.489 110.902 269.617 110.744 269.617H40.3338C40.1755 269.617 40.0471 269.489 40.0471 269.33V178.265C40.0471 178.105 40.1769 177.977 40.3361 177.978L89.8127 178.373L101.178 191Z" fill="white" stroke="#E5E5E5" stroke-width="2"/>
<path d="M88 178.5V202.092C88 202.566 88.384 202.95 88.8578 202.95H110.11" stroke="#E5E5E5" stroke-width="2" stroke-dasharray="1.12 1.12"/>
<path d="M50.6365 191.93H69.697" stroke="#E5E5E5" stroke-width="2" stroke-linecap="round"/>
<path d="M56.4312 201.505H75.4917" stroke="#E5E5E5" stroke-width="2" stroke-linecap="round"/>
<path d="M56.4312 211.08H84.4388" stroke="#EBB55C" stroke-width="1.23192" stroke-linecap="round"/>
<path d="M56.4312 257.818H84.4388" stroke="#EBB55C" stroke-width="1.23192" stroke-linecap="round"/>
<path d="M50.6365 220.655H65.1232" stroke="#E5E5E5" stroke-width="2" stroke-linecap="round"/>
<path d="M56.4312 230.23H67.0547" stroke="#EBB55C" stroke-width="1.23192" stroke-linecap="round"/>
<path d="M56.4312 239.805H71.8836" stroke="#EBB55C" stroke-width="1.23192" stroke-linecap="round"/>
<path d="M115.173 222.949L115.182 222.958L115.191 222.968L125.116 233.434L125.025 301.279C125.025 301.437 124.896 301.565 124.738 301.565H54.3284C54.1701 301.565 54.0417 301.437 54.0417 301.279V210.213C54.0417 210.054 54.1715 209.925 54.3307 209.926L103.807 210.322L115.173 222.949Z" fill="white" stroke="#C5C5C5" stroke-width="2"/>
<path d="M60.574 224.97H90.2391" stroke="#C5C5C5" stroke-width="2.70967" stroke-linecap="round"/>
<path d="M60 217H85.8246" stroke="#C5C5C5" stroke-width="2.03225" stroke-linecap="round" stroke-dasharray="4.06 4.06"/>
<path d="M60.574 232.941L98.0001 232.997" stroke="#C5C5C5" stroke-width="2.70967" stroke-linecap="round"/>
<path d="M60.574 240.911H68.3434" stroke="#9B9B9B" stroke-width="2.70967" stroke-linecap="round"/>
<path d="M73.2876 240.911H92.1815" stroke="#C5C5C5" stroke-width="2.70967" stroke-linecap="round"/>
<path d="M63.7522 248.881H81.0569" stroke="#9B9B9B" stroke-width="2.70967" stroke-linecap="round"/>
<path d="M86.0012 248.881H89.003" stroke="#C5C5C5" stroke-width="2.70967" stroke-linecap="round"/>
<path d="M63.7522 256.852H77.8785" stroke="#9B9B9B" stroke-width="2.70967" stroke-linecap="round"/>
<path d="M82.8228 256.852H116.019" stroke="#C5C5C5" stroke-width="2.70967" stroke-linecap="round"/>
<path d="M63.7522 264.822H70.8153" stroke="#9B9B9B" stroke-width="2.70967" stroke-linecap="round"/>
<path d="M76.2893 264.822H101.717" stroke="#C5C5C5" stroke-width="2.70967" stroke-linecap="round"/>
<path d="M66.9307 272.792H90.239" stroke="#9B9B9B" stroke-width="2.70967" stroke-linecap="round"/>
<path d="M95.3599 272.792H106.484" stroke="#C5C5C5" stroke-width="2.70967" stroke-linecap="round"/>
<path d="M70.1091 280.763H81.057" stroke="#9B9B9B" stroke-width="2.70967" stroke-linecap="round"/>
<path d="M85.8245 280.763H89.0029" stroke="#C5C5C5" stroke-width="2.70967" stroke-linecap="round"/>
<path d="M60.574 288.733H68.3434" stroke="#9B9B9B" stroke-width="2.70967" stroke-linecap="round"/>
<path d="M73.2876 288.733H92.1815" stroke="#C5C5C5" stroke-width="2.70967" stroke-linecap="round"/>
<path d="M63.7522 296.703H81.0569" stroke="#9B9B9B" stroke-width="2.70967" stroke-linecap="round"/>
<path d="M86.0012 296.703H89.003" stroke="#C5C5C5" stroke-width="2.70967" stroke-linecap="round"/>
<path d="M63.7522 304.674H77.8785" stroke="#9B9B9B" stroke-width="2.70967" stroke-linecap="round"/>
<path d="M82.8228 304.674H116.019" stroke="#C5C5C5" stroke-width="2.70967" stroke-linecap="round"/>
<path d="M63.7522 312.644H70.8153" stroke="#9B9B9B" stroke-width="2.70967" stroke-linecap="round"/>
<path d="M76.2893 312.644H101.717" stroke="#C5C5C5" stroke-width="2.70967" stroke-linecap="round"/>
<path d="M103 210.5V234.142C103 234.616 103.384 235 103.858 235H125" stroke="#C5C5C5" stroke-width="2"/>
<path d="M27.0225 311.257L27.0241 311.243L27.0254 311.229L32.6878 247.744C32.9111 245.909 34.6325 244.381 36.4721 244.381H144.887C146.63 244.381 147.821 245.752 147.577 247.488L147.575 247.499L147.574 247.511L140.098 311.023C139.833 312.862 138.062 314.398 136.213 314.398H29.8065C28.0546 314.398 26.8165 313.006 27.0225 311.257Z" fill="#CEE3F7" stroke="#73A3CD" stroke-width="2"/>
<path d="M30.7988 232.264L43.9947 219.341C42.9797 218.055 42.2034 216.652 41.5466 215.19C40.5315 212.792 39.9942 210.22 39.9942 207.588C39.9942 204.957 40.5315 202.384 41.5466 199.987C42.5617 197.648 43.9947 195.543 45.8457 193.73C47.6968 191.918 49.8463 190.514 52.2347 189.52C54.6829 188.526 57.3101 188 59.9971 188C62.684 188 65.3113 188.526 67.7594 189.52C70.1478 190.514 72.2974 191.918 74.1484 193.73C75.9994 195.543 77.4325 197.648 78.4475 199.987C79.4626 202.384 80 204.957 80 207.588C80 210.22 79.4626 212.792 78.4475 215.19C77.4325 217.529 75.9994 219.634 74.1484 221.446C72.2974 223.259 70.1478 224.662 67.7594 225.656C65.3113 226.65 62.684 227.177 59.9971 227.177C57.3101 227.177 54.6829 226.65 52.2347 225.656C50.6823 225.013 49.3089 224.195 47.9953 223.259L34.7994 236.181C34.262 236.708 33.5454 237 32.8289 237C32.1124 237 31.3959 236.708 30.8585 236.181C29.724 235.07 29.724 233.316 30.7988 232.264ZM59.9374 222.791C68.5356 222.791 75.5217 215.95 75.5217 207.53C75.5217 199.11 68.5356 192.268 59.9374 192.268C51.3391 192.268 44.353 199.11 44.353 207.53C44.353 211.214 45.6666 214.547 47.8759 217.178C48.5327 217.938 49.2492 218.698 50.0852 219.341C52.7721 221.505 56.2353 222.791 59.9374 222.791Z" fill="#4A4A4A"/>
<rect y="96.4529" width="13.3684" height="1.57275" rx="0.786375" transform="rotate(-45 0 96.4529)" fill="white"/>
<rect x="1.11206" y="87" width="13.3684" height="1.57275" rx="0.786375" transform="rotate(45 1.11206 87)" fill="white"/>
<path fill-rule="evenodd" clip-rule="evenodd" d="M268.551 191C270.782 191 272.598 192.787 272.598 194.983V306.493C272.598 308.689 270.782 310.476 268.551 310.476H179.534C177.303 310.476 175.487 308.689 175.487 306.493V194.983C175.487 192.787 177.303 191 179.534 191H191.876C192.817 195.538 196.903 198.965 201.788 198.965H246.297C251.182 198.965 255.268 195.538 256.209 191H268.551Z" fill="white"/>
<path fill-rule="evenodd" clip-rule="evenodd" d="M194 178.944H254V189.882C254 193.501 251.117 196.444 247.571 196.444H200.429C196.883 196.444 194 193.501 194 189.882V178.944Z" fill="#E5E5E5"/>
<path d="M253.464 177H194.536C193.451 177 192.571 177.871 192.571 178.944V184.778H180.786C174.286 184.778 169 190.011 169 196.444V305.333C169 311.767 174.286 317 180.786 317H267.214C273.714 317 279 311.767 279 305.333V196.444C279 190.011 273.714 184.778 267.214 184.778H255.429V178.944C255.429 177.871 254.549 177 253.464 177ZM196.5 180.889H251.5V190.611C251.5 193.828 248.857 196.444 245.607 196.444H202.393C199.143 196.444 196.5 193.828 196.5 190.611V180.889ZM268.551 191C270.782 191 272.598 192.787 272.598 194.983V306.493C272.598 308.689 270.782 310.476 268.551 310.476H179.534C177.303 310.476 175.487 308.689 175.487 306.493V194.983C175.487 192.787 177.303 191 179.534 191H191.876C192.817 195.538 196.903 198.965 201.788 198.965H246.297C251.182 198.965 255.268 195.538 256.209 191H268.551Z" fill="#D8D8D8"/>
<path fill-rule="evenodd" clip-rule="evenodd" d="M206.431 218.574C206.309 218.185 206.017 217.869 205.652 217.674L198.225 214.122C198.03 214.024 197.811 214 197.616 214C197.421 214 197.202 214 197.007 214.049L189.58 217.625C189.215 217.796 188.947 218.112 188.85 218.526L187.024 226.531C186.951 226.944 187.048 227.358 187.292 227.698L192.429 234.049C192.722 234.341 193.136 234.536 193.55 234.56H201.731C202.17 234.609 202.584 234.414 202.851 234.049L207.989 227.698C208.233 227.358 208.33 226.944 208.281 226.531L206.431 218.574Z" fill="#326DE6"/>
<path fill-rule="evenodd" clip-rule="evenodd" d="M205.286 226.214C205.262 226.214 205.238 226.214 205.238 226.19C205.238 226.166 205.189 226.166 205.14 226.166C205.043 226.141 204.945 226.141 204.848 226.141C204.799 226.141 204.751 226.141 204.702 226.117H204.678C204.41 226.093 204.118 226.044 203.85 225.971C203.777 225.947 203.704 225.874 203.679 225.801L203.484 225.752C203.582 225.046 203.533 224.316 203.387 223.611C203.217 222.905 202.924 222.224 202.535 221.616L202.681 221.47V221.445C202.681 221.372 202.705 221.275 202.754 221.226C202.973 221.032 203.192 220.886 203.436 220.74L203.582 220.667C203.631 220.642 203.673 220.618 203.716 220.594L203.716 220.594L203.716 220.594L203.716 220.594C203.758 220.569 203.801 220.545 203.85 220.521C203.862 220.509 203.874 220.502 203.886 220.496C203.898 220.49 203.911 220.484 203.923 220.472C203.938 220.457 203.934 220.451 203.929 220.443C203.926 220.438 203.923 220.433 203.923 220.423C204.142 220.253 204.191 219.961 204.02 219.742C203.947 219.645 203.801 219.572 203.679 219.572C203.558 219.572 203.436 219.62 203.338 219.693L203.314 219.718C203.29 219.742 203.265 219.766 203.241 219.766L203.241 219.766C203.168 219.839 203.095 219.912 203.046 219.985C203.029 220.019 203 220.041 202.976 220.06C202.966 220.068 202.956 220.075 202.949 220.083C202.778 220.277 202.559 220.472 202.34 220.618C202.291 220.642 202.243 220.667 202.194 220.667C202.17 220.667 202.121 220.667 202.097 220.642H202.072L201.877 220.764C201.78 220.667 201.676 220.569 201.573 220.472L201.573 220.472L201.573 220.472C201.469 220.375 201.366 220.277 201.269 220.18C200.368 219.474 199.248 219.037 198.103 218.915L198.079 218.72V218.745C198.006 218.696 197.981 218.623 197.957 218.55C197.957 218.282 197.957 218.015 198.006 217.723V217.698C198.006 217.674 198.012 217.65 198.018 217.625L198.018 217.625C198.024 217.601 198.03 217.577 198.03 217.552C198.042 217.504 198.048 217.455 198.054 217.406L198.054 217.406C198.06 217.358 198.067 217.309 198.079 217.26V217.114C198.103 216.871 197.908 216.628 197.665 216.603C197.519 216.579 197.373 216.652 197.251 216.774C197.153 216.871 197.105 216.993 197.105 217.114V217.236C197.105 217.333 197.129 217.431 197.153 217.528C197.178 217.577 197.178 217.625 197.178 217.674V217.698C197.226 217.966 197.226 218.234 197.226 218.526C197.202 218.599 197.178 218.672 197.105 218.72V218.769L197.08 218.964C196.851 218.984 196.622 219.023 196.378 219.064L196.378 219.064L196.252 219.085C195.108 219.328 194.061 219.937 193.257 220.788L193.111 220.691H193.087C193.077 220.691 193.067 220.695 193.055 220.7C193.038 220.707 193.018 220.715 192.99 220.715C192.941 220.715 192.892 220.691 192.843 220.667C192.624 220.496 192.405 220.302 192.235 220.107C192.218 220.073 192.189 220.051 192.165 220.033C192.154 220.024 192.145 220.017 192.137 220.01C192.101 219.973 192.07 219.937 192.04 219.9C192.009 219.864 191.979 219.827 191.942 219.791C191.93 219.779 191.918 219.773 191.906 219.766C191.894 219.76 191.882 219.754 191.869 219.742L191.845 219.718C191.748 219.645 191.626 219.596 191.504 219.596C191.358 219.596 191.236 219.645 191.163 219.766C191.017 219.985 191.066 220.277 191.261 220.448C191.285 220.448 191.285 220.472 191.285 220.472C191.285 220.472 191.334 220.521 191.358 220.521C191.431 220.569 191.529 220.618 191.626 220.667L191.772 220.74C192.016 220.886 192.259 221.032 192.454 221.226C192.498 221.271 192.543 221.356 192.532 221.426L192.527 221.421V221.445C192.529 221.439 192.531 221.432 192.532 221.426L192.673 221.567C192.661 221.591 192.649 221.61 192.636 221.628L192.636 221.628C192.624 221.646 192.612 221.664 192.6 221.689C191.845 222.881 191.529 224.292 191.748 225.679L191.553 225.728C191.553 225.752 191.529 225.752 191.529 225.752C191.504 225.825 191.431 225.874 191.358 225.922C191.09 225.995 190.822 226.044 190.53 226.068C190.481 226.068 190.433 226.068 190.384 226.093C190.335 226.093 190.287 226.099 190.238 226.105C190.189 226.111 190.141 226.117 190.092 226.117C190.082 226.117 190.072 226.121 190.06 226.126C190.043 226.133 190.023 226.141 189.994 226.141C189.97 226.141 189.97 226.141 189.946 226.166C189.678 226.214 189.507 226.458 189.556 226.725C189.605 226.944 189.824 227.09 190.043 227.066C190.092 227.066 190.116 227.066 190.165 227.041C190.189 227.041 190.189 227.041 190.189 227.017C190.189 227 190.225 227.007 190.255 227.012L190.255 227.012C190.267 227.015 190.279 227.017 190.287 227.017C190.348 227.002 190.409 226.977 190.464 226.955C190.497 226.941 190.527 226.929 190.555 226.92C190.603 226.895 190.652 226.871 190.701 226.871H190.725C190.993 226.774 191.236 226.701 191.529 226.652H191.553C191.626 226.652 191.699 226.677 191.748 226.725C191.772 226.725 191.772 226.749 191.772 226.749L191.991 226.725C192.356 227.844 193.038 228.842 193.988 229.572C194.207 229.742 194.402 229.888 194.645 230.01L194.524 230.18C194.524 230.205 194.548 230.205 194.548 230.205C194.597 230.278 194.597 230.375 194.572 230.448C194.475 230.691 194.329 230.934 194.183 231.153V231.178C194.158 231.226 194.134 231.251 194.085 231.299C194.058 231.327 194.031 231.369 193.999 231.419C193.974 231.457 193.947 231.5 193.915 231.543C193.903 231.555 193.897 231.567 193.89 231.579C193.884 231.591 193.878 231.604 193.866 231.616C193.866 231.616 193.866 231.64 193.842 231.64C193.72 231.883 193.817 232.175 194.037 232.297C194.085 232.321 194.158 232.346 194.207 232.346C194.402 232.346 194.572 232.224 194.67 232.054C194.67 232.054 194.67 232.029 194.694 232.029C194.694 232.005 194.718 231.981 194.743 231.956C194.755 231.908 194.773 231.865 194.791 231.823C194.81 231.78 194.828 231.737 194.84 231.689L194.889 231.543C194.962 231.275 195.084 231.032 195.205 230.788C195.254 230.715 195.327 230.667 195.4 230.642C195.425 230.642 195.425 230.642 195.425 230.618L195.522 230.424C196.204 230.691 196.91 230.813 197.64 230.813C198.079 230.813 198.517 230.764 198.955 230.642C199.155 230.606 199.355 230.543 199.544 230.483L199.544 230.483C199.609 230.462 199.673 230.442 199.735 230.424L199.832 230.594H199.832C199.844 230.594 199.85 230.594 199.853 230.597C199.856 230.6 199.856 230.606 199.856 230.618C199.929 230.642 200.002 230.691 200.051 230.764L200.051 230.764C200.173 231.007 200.295 231.251 200.368 231.518V231.543L200.416 231.689C200.441 231.786 200.465 231.883 200.514 231.956C200.526 231.969 200.532 231.981 200.538 231.993C200.544 232.005 200.55 232.017 200.562 232.029C200.562 232.029 200.562 232.054 200.587 232.054C200.684 232.224 200.855 232.346 201.049 232.346C201.107 232.346 201.15 232.33 201.201 232.312C201.215 232.307 201.229 232.302 201.244 232.297C201.342 232.248 201.439 232.151 201.463 232.029C201.488 231.908 201.488 231.786 201.439 231.664C201.439 231.64 201.415 231.64 201.415 231.64C201.415 231.616 201.39 231.591 201.366 231.567C201.317 231.47 201.269 231.397 201.196 231.324C201.171 231.275 201.147 231.251 201.098 231.202L201.098 231.202V231.153C200.928 230.934 200.806 230.691 200.709 230.448C200.684 230.375 200.684 230.278 200.733 230.205C200.733 230.18 200.757 230.18 200.757 230.18L200.684 229.986C201.926 229.231 202.876 228.063 203.314 226.677L203.509 226.701C203.533 226.701 203.533 226.677 203.533 226.677C203.582 226.628 203.655 226.604 203.728 226.604H203.752C204.02 226.652 204.288 226.725 204.532 226.822H204.556L204.556 226.822C204.605 226.847 204.653 226.871 204.702 226.871C204.727 226.884 204.751 226.896 204.773 226.908L204.773 226.908C204.839 226.943 204.898 226.975 204.97 226.993C204.98 226.993 204.99 226.997 205.002 227.002C205.019 227.009 205.039 227.017 205.067 227.017C205.092 227.017 205.092 227.017 205.116 227.041L205.116 227.041C205.165 227.066 205.189 227.066 205.238 227.066C205.457 227.066 205.652 226.92 205.725 226.725C205.7 226.458 205.506 226.263 205.286 226.214ZM198.249 225.46L197.592 225.776L196.934 225.46L196.764 224.754L197.226 224.17H197.957L198.42 224.754L198.249 225.46ZM202.316 225.411C202.364 224.9 202.34 224.389 202.218 223.879C202.096 223.368 201.902 222.881 201.634 222.443L199.808 224.097C199.759 224.146 199.735 224.195 199.71 224.268C199.661 224.487 199.783 224.706 200.002 224.754L202.316 225.411ZM200.903 221.543L198.907 222.954C198.736 223.051 198.493 223.027 198.371 222.857C198.322 222.808 198.298 222.759 198.298 222.686L198.152 220.229C199.223 220.35 200.173 220.813 200.903 221.543ZM196.983 220.205L196.496 220.302C195.644 220.497 194.864 220.934 194.231 221.543L196.252 222.978C196.268 222.983 196.282 222.988 196.295 222.993C196.347 223.012 196.389 223.027 196.447 223.027C196.666 223.027 196.861 222.857 196.861 222.638L196.983 220.205ZM193.525 222.443L195.327 224.049C195.498 224.195 195.522 224.438 195.376 224.608C195.327 224.681 195.278 224.706 195.181 224.73L192.819 225.411C192.746 224.389 192.99 223.343 193.525 222.443ZM195.522 226.141L193.111 226.555C193.452 227.528 194.134 228.38 194.986 228.939L195.912 226.701C195.96 226.628 195.96 226.531 195.936 226.458C195.912 226.263 195.717 226.141 195.522 226.141ZM198.639 229.572C198.298 229.645 197.957 229.694 197.592 229.694C197.08 229.694 196.545 229.596 196.058 229.45L197.251 227.285C197.373 227.139 197.567 227.09 197.738 227.188C197.811 227.236 197.86 227.285 197.933 227.358L199.101 229.475C198.955 229.499 198.809 229.523 198.639 229.572ZM200.148 228.915C200.733 228.55 201.244 228.039 201.609 227.455C201.804 227.188 201.95 226.871 202.072 226.531L199.637 226.117C199.564 226.117 199.491 226.141 199.418 226.166C199.248 226.239 199.15 226.433 199.199 226.628L200.148 228.915Z" fill="white"/>
<path d="M197.294 244C191.811 244 187.385 245.576 187.294 247.545C187.295 247.566 187.295 247.586 187.294 247.607C187.294 247.834 187.431 248.126 187.88 248.488C188.328 248.849 189.054 249.222 189.969 249.533C191.801 250.154 194.405 250.557 197.294 250.557C200.182 250.557 202.786 250.154 204.618 249.533C205.533 249.222 206.259 248.849 206.707 248.488C207.156 248.126 207.294 247.834 207.294 247.607C207.294 247.593 207.294 247.579 207.294 247.566C207.232 245.587 202.795 244 197.294 244ZM187.294 249.666V254.43C187.295 254.451 187.295 254.471 187.294 254.492C187.294 254.719 187.431 255.012 187.88 255.373C188.328 255.734 189.054 256.107 189.969 256.418C191.801 257.04 194.405 257.443 197.294 257.443C200.182 257.443 202.786 257.04 204.618 256.418C205.533 256.107 206.259 255.734 206.707 255.373C207.156 255.012 207.293 254.719 207.293 254.492V254.451V249.666C206.692 250.108 205.922 250.472 205.008 250.783C202.999 251.465 200.291 251.869 197.294 251.869C194.296 251.869 191.588 251.465 189.579 250.783C188.665 250.472 187.895 250.108 187.294 249.666ZM187.294 256.551V260.988C187.295 261.008 187.295 261.029 187.294 261.049C187.294 261.277 187.431 261.569 187.88 261.93C188.328 262.292 189.054 262.665 189.969 262.975C191.801 263.597 194.405 264 197.294 264C200.182 264 202.786 263.597 204.618 262.975C205.533 262.665 206.259 262.292 206.707 261.93C207.156 261.569 207.293 261.277 207.293 261.049V261.008V256.551C206.692 256.993 205.922 257.358 205.008 257.668C202.999 258.35 200.291 258.754 197.294 258.754C194.296 258.754 191.588 258.35 189.579 257.668C188.665 257.358 187.895 256.993 187.294 256.551Z" fill="#44BB66"/>
<path d="M195.554 275.947C194.984 275.401 194.461 274.934 194.01 274.554C196.921 273.543 200.136 273.93 202.723 275.602C201.171 275.639 199.631 275.892 198.149 276.355C197.866 275.947 197.429 275.672 196.939 275.595C196.449 275.518 195.948 275.645 195.554 275.947ZM192.992 283.072C194.261 284.285 195.745 285.252 197.368 285.921C198.526 286.388 199.751 286.667 200.996 286.749C201.07 286.372 201.263 286.03 201.547 285.771C200.49 283.355 199.095 281.102 197.404 279.078C196.671 279.413 195.804 279.221 195.281 278.607C194.902 278.863 194.538 279.142 194.192 279.442C193.674 279.897 193.197 280.396 192.766 280.934C193.305 281.516 193.397 282.382 192.992 283.064V283.072ZM203.753 276.378C201.958 276.327 200.168 276.566 198.45 277.087C198.557 277.637 198.397 278.205 198.018 278.619C199.723 280.666 201.134 282.939 202.212 285.375C202.395 285.317 202.586 285.287 202.779 285.288C203.23 285.288 203.665 285.456 203.998 285.759C205.06 285.124 206.16 284.557 207.294 284.061C207.294 284.061 207.294 284.033 207.294 284.018C207.304 281.069 206.01 278.267 203.757 276.362L203.753 276.378ZM201.547 288.459C198.972 290.64 197.816 292.761 197.321 294C199.472 294.002 201.566 293.307 203.289 292.021C203.15 290.979 202.939 289.947 202.66 288.934C202.245 288.903 201.853 288.731 201.551 288.447L201.547 288.459ZM201.258 287.802C201.206 287.702 201.15 287.606 201.087 287.513C199.728 287.427 198.391 287.127 197.127 286.622C195.412 285.92 193.841 284.908 192.493 283.638C192.052 283.954 191.49 284.052 190.968 283.903C190.09 285.869 189.551 287.971 189.376 290.117C191.132 292.352 193.745 293.749 196.58 293.968C197.059 292.638 198.089 290.244 201.258 287.802ZM204.513 286.507C204.58 286.698 204.613 286.899 204.612 287.101C204.612 287.16 204.612 287.216 204.612 287.275C204.543 287.972 204.082 288.569 203.424 288.811C203.659 289.676 203.846 290.553 203.983 291.439C205.859 289.755 207.028 287.423 207.254 284.912C206.298 285.347 205.367 285.836 204.466 286.377C204.484 286.419 204.5 286.463 204.513 286.507ZM189.582 282.153C189.583 281.704 189.751 281.271 190.053 280.938C189.567 280.28 189.117 279.596 188.707 278.888C186.823 282.044 186.823 285.979 188.707 289.135C188.936 287.206 189.458 285.323 190.255 283.55C189.829 283.205 189.581 282.686 189.582 282.137V282.153ZM190.687 280.475C191.148 280.275 191.671 280.275 192.133 280.475C192.6 279.892 193.119 279.352 193.681 278.86C194.069 278.522 194.478 278.209 194.905 277.922C194.757 277.461 194.81 276.96 195.051 276.541C194.343 275.856 193.705 275.306 193.194 274.886C191.596 275.606 190.214 276.732 189.186 278.152C189.638 278.945 190.139 279.709 190.687 280.439V280.475Z" fill="#A048F8"/>
<path d="M259.568 219H220.932C219.865 219 219 219.56 219 220.25C219 220.94 219.865 221.5 220.932 221.5H259.568C260.635 221.5 261.5 220.94 261.5 220.25C261.5 219.56 260.635 219 259.568 219Z" fill="#9B9B9B"/>
<path d="M220.875 229H239.625C240.66 229 241.5 228.44 241.5 227.75C241.5 227.06 240.66 226.5 239.625 226.5H220.875C219.84 226.5 219 227.06 219 227.75C219 228.44 219.84 229 220.875 229Z" fill="#9B9B9B"/>
<path d="M259.568 249H220.932C219.865 249 219 249.56 219 250.25C219 250.94 219.865 251.5 220.932 251.5H259.568C260.635 251.5 261.5 250.94 261.5 250.25C261.5 249.56 260.635 249 259.568 249Z" fill="#9B9B9B"/>
<path d="M220.875 259H247.125C248.16 259 249 258.44 249 257.75C249 257.06 248.16 256.5 247.125 256.5H220.875C219.84 256.5 219 257.06 219 257.75C219 258.44 219.84 259 220.875 259Z" fill="#9B9B9B"/>
<path d="M259.568 279H220.932C219.865 279 219 279.56 219 280.25C219 280.94 219.865 281.5 220.932 281.5H259.568C260.635 281.5 261.5 280.94 261.5 280.25C261.5 279.56 260.635 279 259.568 279Z" fill="#9B9B9B"/>
<path d="M259.568 286.5H220.932C219.865 286.5 219 287.06 219 287.75C219 288.44 219.865 289 220.932 289H259.568C260.635 289 261.5 288.44 261.5 287.75C261.5 287.06 260.635 286.5 259.568 286.5Z" fill="#9B9B9B"/>
<path d="M133.355 57.7966V159.463C133.355 162.202 131.191 164.422 128.521 164.422H31.8343C29.1644 164.422 27 162.202 27 159.463V37.9593C27 35.2204 29.1644 33 31.8343 33H109.183" fill="white"/>
<path d="M133.355 57.7966V159.463C133.355 162.202 131.191 164.422 128.521 164.422H31.8343C29.1644 164.422 27 162.202 27 159.463V37.9593C27 35.2204 29.1644 33 31.8343 33H109.183" stroke="#E5E5E5" stroke-width="2.10752"/>
<path d="M133.355 57.7966H111.653C110.289 57.7966 109.183 56.6908 109.183 55.3268V33" fill="#D8D8D8"/>
<path d="M133.355 57.7966H111.653C110.289 57.7966 109.183 56.6908 109.183 55.3268V33" fill="#E5E5E5"/>
<path d="M43.0686 57.2653H72.7337" stroke="#E5E5E5" stroke-width="2.70967" stroke-linecap="round"/>
<path d="M42.4946 49.2949H68.3192" stroke="#E5E5E5" stroke-width="2.03225" stroke-linecap="round" stroke-dasharray="4.06 4.06"/>
<path d="M43.0686 65.2356H85.8005" stroke="#E5E5E5" stroke-width="2.70967" stroke-linecap="round"/>
<path d="M43.0686 73.2059H50.838" stroke="#C5C5C5" stroke-width="2.70967" stroke-linecap="round"/>
<path d="M55.7822 73.2059H74.6761" stroke="#E5E5E5" stroke-width="2.70967" stroke-linecap="round"/>
<path d="M46.2468 81.1763H63.5515" stroke="#C5C5C5" stroke-width="2.70967" stroke-linecap="round"/>
<path d="M68.4958 81.1763H71.4977" stroke="#E5E5E5" stroke-width="2.70967" stroke-linecap="round"/>
<path d="M46.2468 89.1466H60.3731" stroke="#C5C5C5" stroke-width="2.70967" stroke-linecap="round"/>
<path d="M65.3174 89.1466H98.5141" stroke="#E5E5E5" stroke-width="2.70967" stroke-linecap="round"/>
<path d="M46.2468 97.1169H53.31" stroke="#C5C5C5" stroke-width="2.70967" stroke-linecap="round"/>
<path d="M58.7839 97.1169H84.2112" stroke="#E5E5E5" stroke-width="2.70967" stroke-linecap="round"/>
<path d="M49.4253 105.087H72.7336" stroke="#C5C5C5" stroke-width="2.70967" stroke-linecap="round"/>
<path d="M77.8545 105.087H88.9789" stroke="#E5E5E5" stroke-width="2.70967" stroke-linecap="round"/>
<path d="M52.6038 113.058H63.5516" stroke="#C5C5C5" stroke-width="2.70967" stroke-linecap="round"/>
<path d="M68.3191 113.058H71.4975" stroke="#E5E5E5" stroke-width="2.70967" stroke-linecap="round"/>
<path d="M43.0686 121.028H50.838" stroke="#C5C5C5" stroke-width="2.70967" stroke-linecap="round"/>
<path d="M55.7822 121.028H74.6761" stroke="#E5E5E5" stroke-width="2.70967" stroke-linecap="round"/>
<path d="M46.2468 128.998H63.5515" stroke="#C5C5C5" stroke-width="2.70967" stroke-linecap="round"/>
<path d="M68.4958 128.998H71.4977" stroke="#E5E5E5" stroke-width="2.70967" stroke-linecap="round"/>
<path d="M46.2468 136.969H60.3731" stroke="#C5C5C5" stroke-width="2.70967" stroke-linecap="round"/>
<path d="M65.3174 136.969H98.5141" stroke="#E5E5E5" stroke-width="2.70967" stroke-linecap="round"/>
<path d="M46.2468 144.939H53.31" stroke="#C5C5C5" stroke-width="2.70967" stroke-linecap="round"/>
<path d="M58.7839 144.939H84.2112" stroke="#E5E5E5" stroke-width="2.70967" stroke-linecap="round"/>
<path d="M152.061 65.5567V167.223C152.061 169.962 149.896 172.182 147.226 172.182H50.5399C47.87 172.182 45.7056 169.962 45.7056 167.223V45.7194C45.7056 42.9804 47.87 40.7601 50.5399 40.7601H127.889" fill="white"/>
<path d="M152.061 65.5567V167.223C152.061 169.962 149.896 172.182 147.226 172.182H50.5399C47.87 172.182 45.7056 169.962 45.7056 167.223V45.7194C45.7056 42.9804 47.87 40.7601 50.5399 40.7601H127.889" stroke="#C5C5C5" stroke-width="2.10752"/>
<path d="M152.061 65.5567H130.359C128.995 65.5567 127.889 64.4509 127.889 63.0868V40.7601" fill="#D8D8D8"/>
<path d="M152.061 65.5567H130.359C128.995 65.5567 127.889 64.4509 127.889 63.0868V40.7601" fill="#C5C5C5"/>
<path d="M61.7742 65.0253H91.4393" stroke="#C5C5C5" stroke-width="2.70967" stroke-linecap="round"/>
<path d="M61.2002 57.055H87.0248" stroke="#C5C5C5" stroke-width="2.03225" stroke-linecap="round" stroke-dasharray="4.06 4.06"/>
<path d="M61.7742 72.9957H104.506" stroke="#C5C5C5" stroke-width="2.70967" stroke-linecap="round"/>
<path d="M61.7742 80.966H69.5436" stroke="#9B9B9B" stroke-width="2.70967" stroke-linecap="round"/>
<path d="M74.4878 80.966H93.3817" stroke="#C5C5C5" stroke-width="2.70967" stroke-linecap="round"/>
<path d="M64.9524 88.9363H82.2571" stroke="#9B9B9B" stroke-width="2.70967" stroke-linecap="round"/>
<path d="M87.2014 88.9363H90.2032" stroke="#C5C5C5" stroke-width="2.70967" stroke-linecap="round"/>
<path d="M64.9524 96.9067H79.0786" stroke="#9B9B9B" stroke-width="2.70967" stroke-linecap="round"/>
<path d="M84.0229 96.9067H117.22" stroke="#C5C5C5" stroke-width="2.70967" stroke-linecap="round"/>
<path d="M64.9524 104.877H72.0155" stroke="#9B9B9B" stroke-width="2.70967" stroke-linecap="round"/>
<path d="M77.4895 104.877H102.917" stroke="#C5C5C5" stroke-width="2.70967" stroke-linecap="round"/>
<path d="M68.1309 112.847H91.4392" stroke="#9B9B9B" stroke-width="2.70967" stroke-linecap="round"/>
<path d="M96.5601 112.847H107.684" stroke="#C5C5C5" stroke-width="2.70967" stroke-linecap="round"/>
<path d="M71.3093 120.818H82.2572" stroke="#9B9B9B" stroke-width="2.70967" stroke-linecap="round"/>
<path d="M87.0247 120.818H90.2031" stroke="#C5C5C5" stroke-width="2.70967" stroke-linecap="round"/>
<path d="M61.7742 128.788H69.5436" stroke="#9B9B9B" stroke-width="2.70967" stroke-linecap="round"/>
<path d="M74.4878 128.788H93.3817" stroke="#C5C5C5" stroke-width="2.70967" stroke-linecap="round"/>
<path d="M64.9524 136.758H82.2571" stroke="#9B9B9B" stroke-width="2.70967" stroke-linecap="round"/>
<path d="M87.2014 136.758H90.2032" stroke="#C5C5C5" stroke-width="2.70967" stroke-linecap="round"/>
<path d="M64.9524 144.729H79.0786" stroke="#9B9B9B" stroke-width="2.70967" stroke-linecap="round"/>
<path d="M84.0229 144.729H117.22" stroke="#C5C5C5" stroke-width="2.70967" stroke-linecap="round"/>
<path d="M64.9524 152.699H72.0155" stroke="#9B9B9B" stroke-width="2.70967" stroke-linecap="round"/>
<path d="M77.4895 152.699H102.917" stroke="#C5C5C5" stroke-width="2.70967" stroke-linecap="round"/>
<g filter="url(#filter0_d)">
<path d="M143.294 83.5536C153.397 83.5536 161.587 75.3708 161.587 65.2768C161.587 55.1828 153.397 47 143.294 47C133.19 47 125 55.1828 125 65.2768C125 75.3708 133.19 83.5536 143.294 83.5536Z" fill="white"/>
</g>
<path fill-rule="evenodd" clip-rule="evenodd" d="M152.137 59.2906C152.015 58.9013 151.723 58.585 151.358 58.3904L143.931 54.838C143.736 54.7407 143.517 54.7164 143.322 54.7164C143.128 54.7164 142.908 54.7164 142.714 54.765L135.287 58.3417C134.922 58.512 134.654 58.8283 134.556 59.242L132.73 67.2469C132.657 67.6606 132.754 68.0742 132.998 68.4148L138.136 74.7653C138.428 75.0573 138.842 75.2519 139.256 75.2762H147.438C147.876 75.3249 148.29 75.1303 148.558 74.7653L153.696 68.4148C153.939 68.0742 154.036 67.6606 153.988 67.2469L152.137 59.2906Z" fill="#326DE6"/>
<path fill-rule="evenodd" clip-rule="evenodd" d="M150.993 66.9306C150.968 66.9306 150.944 66.9306 150.944 66.9062C150.944 66.8819 150.895 66.8819 150.847 66.8819C150.749 66.8576 150.652 66.8576 150.554 66.8576C150.506 66.8576 150.457 66.8576 150.408 66.8332H150.384C150.116 66.8089 149.824 66.7602 149.556 66.6872C149.483 66.6629 149.41 66.5899 149.386 66.5169L149.191 66.4683C149.288 65.7627 149.239 65.0327 149.093 64.3271C148.923 63.6215 148.631 62.9402 148.241 62.332L148.387 62.186V62.1616C148.387 62.0886 148.412 61.9913 148.46 61.9427C148.679 61.748 148.899 61.602 149.142 61.456L149.288 61.383C149.337 61.3587 149.379 61.3344 149.422 61.3101L149.422 61.31L149.422 61.31L149.422 61.31C149.465 61.2857 149.507 61.2614 149.556 61.237C149.568 61.2249 149.58 61.2188 149.593 61.2127C149.605 61.2066 149.617 61.2006 149.629 61.1884C149.644 61.1733 149.641 61.1676 149.636 61.1597C149.633 61.1548 149.629 61.149 149.629 61.1397C149.848 60.9694 149.897 60.6774 149.726 60.4585C149.653 60.3611 149.507 60.2881 149.386 60.2881C149.264 60.2881 149.142 60.3368 149.045 60.4098L149.02 60.4341C148.996 60.4585 148.972 60.4828 148.947 60.4828L148.947 60.4828C148.874 60.5558 148.801 60.6288 148.752 60.7018C148.735 60.7357 148.707 60.7578 148.683 60.7763C148.672 60.7844 148.662 60.7917 148.655 60.7991C148.485 60.9937 148.265 61.1884 148.046 61.3344C147.998 61.3587 147.949 61.383 147.9 61.383C147.876 61.383 147.827 61.383 147.803 61.3587H147.778L147.584 61.4804C147.486 61.3831 147.383 61.2857 147.279 61.1884L147.279 61.1884L147.279 61.1883C147.176 61.091 147.072 60.9937 146.975 60.8964C146.074 60.1908 144.954 59.7528 143.809 59.6312L143.785 59.4365V59.4609C143.712 59.4122 143.688 59.3392 143.663 59.2662C143.663 58.9986 143.663 58.7309 143.712 58.439V58.4146C143.712 58.3903 143.718 58.366 143.724 58.3416L143.724 58.3416C143.73 58.3173 143.736 58.293 143.736 58.2686C143.748 58.22 143.755 58.1713 143.761 58.1227L143.761 58.1227C143.767 58.074 143.773 58.0253 143.785 57.9767V57.8307C143.809 57.5874 143.615 57.3441 143.371 57.3197C143.225 57.2954 143.079 57.3684 142.957 57.49C142.86 57.5874 142.811 57.709 142.811 57.8307V57.9523C142.811 58.0497 142.835 58.147 142.86 58.2443C142.884 58.293 142.884 58.3416 142.884 58.3903V58.4146C142.933 58.6823 142.933 58.9499 142.933 59.2419C142.908 59.3149 142.884 59.3879 142.811 59.4365V59.4852L142.787 59.6799C142.557 59.7007 142.328 59.7393 142.084 59.7805L142.084 59.7805L141.959 59.8015C140.814 60.0448 139.767 60.6531 138.964 61.5047L138.818 61.4074H138.793C138.783 61.4074 138.773 61.4115 138.761 61.4164C138.745 61.4233 138.724 61.4317 138.696 61.4317C138.647 61.4317 138.598 61.4074 138.55 61.383C138.331 61.2127 138.111 61.0181 137.941 60.8234C137.924 60.7895 137.895 60.7674 137.871 60.7489C137.861 60.7408 137.851 60.7335 137.844 60.7261C137.807 60.6896 137.777 60.6531 137.746 60.6166C137.716 60.5801 137.685 60.5436 137.649 60.5071C137.637 60.4949 137.624 60.4889 137.612 60.4828C137.6 60.4767 137.588 60.4706 137.576 60.4585L137.551 60.4341C137.454 60.3611 137.332 60.3125 137.21 60.3125C137.064 60.3125 136.943 60.3611 136.87 60.4828C136.723 60.7018 136.772 60.9937 136.967 61.1641C136.991 61.1641 136.991 61.1884 136.991 61.1884C136.991 61.1884 137.04 61.237 137.064 61.237C137.137 61.2857 137.235 61.3344 137.332 61.383L137.478 61.456C137.722 61.602 137.965 61.748 138.16 61.9427C138.205 61.9871 138.249 62.0721 138.238 62.142L138.233 62.1373V62.1616C138.235 62.1553 138.237 62.1487 138.238 62.142L138.379 62.2833C138.367 62.3076 138.355 62.3259 138.343 62.3441L138.343 62.3441C138.331 62.3624 138.318 62.3806 138.306 62.4049C137.551 63.5972 137.235 65.0084 137.454 66.3953L137.259 66.4439C137.259 66.4683 137.235 66.4683 137.235 66.4683C137.21 66.5413 137.137 66.5899 137.064 66.6386C136.797 66.7116 136.529 66.7602 136.236 66.7846C136.188 66.7846 136.139 66.7846 136.09 66.8089C136.042 66.8089 135.993 66.815 135.944 66.8211C135.896 66.8271 135.847 66.8332 135.798 66.8332C135.788 66.8332 135.778 66.8374 135.766 66.8423C135.749 66.8492 135.729 66.8576 135.701 66.8576C135.676 66.8576 135.676 66.8576 135.652 66.8819C135.384 66.9306 135.214 67.1739 135.262 67.4415C135.311 67.6605 135.53 67.8065 135.749 67.7821C135.798 67.7821 135.822 67.7821 135.871 67.7578C135.896 67.7578 135.896 67.7578 135.896 67.7335C135.896 67.7165 135.931 67.7232 135.961 67.7288L135.961 67.7288C135.974 67.7313 135.986 67.7335 135.993 67.7335C136.054 67.7182 136.115 67.6933 136.17 67.6709C136.203 67.6576 136.234 67.6452 136.261 67.6362C136.31 67.6118 136.358 67.5875 136.407 67.5875H136.431C136.699 67.4902 136.943 67.4172 137.235 67.3685H137.259C137.332 67.3685 137.405 67.3928 137.454 67.4415C137.478 67.4415 137.478 67.4658 137.478 67.4658L137.697 67.4415C138.063 68.5607 138.745 69.5583 139.694 70.2883C139.913 70.4586 140.108 70.6046 140.352 70.7262L140.23 70.8965C140.23 70.9209 140.254 70.9209 140.254 70.9209C140.303 70.9939 140.303 71.0912 140.279 71.1642C140.181 71.4075 140.035 71.6508 139.889 71.8698V71.8941C139.865 71.9428 139.84 71.9671 139.792 72.0158C139.764 72.0431 139.737 72.0858 139.705 72.1352C139.681 72.1737 139.653 72.2164 139.621 72.2591C139.609 72.2712 139.603 72.2834 139.597 72.2956C139.591 72.3077 139.585 72.3199 139.572 72.3321C139.572 72.3321 139.572 72.3564 139.548 72.3564C139.426 72.5997 139.524 72.8917 139.743 73.0134C139.792 73.0377 139.865 73.062 139.913 73.062C140.108 73.062 140.279 72.9404 140.376 72.77C140.376 72.77 140.376 72.7457 140.4 72.7457C140.4 72.7214 140.425 72.697 140.449 72.6727C140.461 72.6241 140.479 72.5815 140.498 72.5389C140.516 72.4963 140.534 72.4537 140.546 72.4051L140.595 72.2591C140.668 71.9914 140.79 71.7481 140.912 71.5048C140.96 71.4318 141.033 71.3832 141.106 71.3588C141.131 71.3588 141.131 71.3588 141.131 71.3345L141.228 71.1398C141.91 71.4075 142.616 71.5291 143.347 71.5291C143.785 71.5291 144.223 71.4805 144.662 71.3588C144.861 71.3226 145.061 71.2592 145.251 71.1991L145.251 71.1991C145.315 71.1786 145.379 71.1584 145.441 71.1398L145.538 71.3102H145.538C145.55 71.3102 145.556 71.3102 145.56 71.3132C145.563 71.3163 145.563 71.3223 145.563 71.3345C145.636 71.3588 145.709 71.4075 145.757 71.4805L145.757 71.4805C145.879 71.7238 146.001 71.9671 146.074 72.2348V72.2591L146.123 72.4051C146.147 72.5024 146.171 72.5997 146.22 72.6727C146.232 72.6849 146.238 72.697 146.244 72.7092C146.25 72.7214 146.257 72.7335 146.269 72.7457C146.269 72.7457 146.269 72.77 146.293 72.77C146.39 72.9404 146.561 73.062 146.756 73.062C146.814 73.062 146.856 73.0468 146.908 73.0284C146.921 73.0235 146.935 73.0184 146.951 73.0134C147.048 72.9647 147.145 72.8674 147.17 72.7457C147.194 72.6241 147.194 72.5024 147.145 72.3807C147.145 72.3564 147.121 72.3564 147.121 72.3564C147.121 72.3321 147.097 72.3077 147.072 72.2834C147.024 72.1861 146.975 72.1131 146.902 72.0401C146.877 71.9914 146.853 71.9671 146.804 71.9185L146.804 71.9184V71.8698C146.634 71.6508 146.512 71.4075 146.415 71.1642C146.39 71.0912 146.39 70.9939 146.439 70.9209C146.439 70.8965 146.464 70.8965 146.464 70.8965L146.39 70.7019C147.632 69.9476 148.582 68.7797 149.02 67.3928L149.215 67.4172C149.239 67.4172 149.239 67.3928 149.239 67.3928C149.288 67.3442 149.361 67.3199 149.434 67.3199H149.459C149.726 67.3685 149.994 67.4415 150.238 67.5388H150.262L150.262 67.5388C150.311 67.5632 150.36 67.5875 150.408 67.5875C150.433 67.6001 150.457 67.6126 150.48 67.6248L150.48 67.6248C150.545 67.6597 150.604 67.6911 150.676 67.7092C150.686 67.7092 150.696 67.7133 150.708 67.7182C150.725 67.7251 150.745 67.7335 150.774 67.7335C150.798 67.7335 150.798 67.7335 150.822 67.7578L150.822 67.7578C150.871 67.7821 150.895 67.7821 150.944 67.7821C151.163 67.7821 151.358 67.6362 151.431 67.4415C151.407 67.1739 151.212 66.9792 150.993 66.9306ZM143.955 66.1764L143.298 66.4927L142.641 66.1764L142.47 65.4708L142.933 64.8868H143.663L144.126 65.4708L143.955 66.1764ZM148.022 66.1277C148.071 65.6168 148.046 65.1058 147.925 64.5949C147.803 64.0839 147.608 63.5973 147.34 63.1593L145.514 64.8138C145.465 64.8625 145.441 64.9112 145.416 64.9842C145.368 65.2031 145.49 65.4221 145.709 65.4708L148.022 66.1277ZM146.61 62.2591L144.613 63.6703C144.442 63.7676 144.199 63.7433 144.077 63.5729C144.028 63.5243 144.004 63.4756 144.004 63.4026L143.858 60.9452C144.929 61.0668 145.879 61.5291 146.61 62.2591ZM142.689 60.9209L142.202 61.0182C141.35 61.2129 140.571 61.6508 139.938 62.2591L141.959 63.6946C141.974 63.6997 141.988 63.7048 142.002 63.7097C142.053 63.7281 142.096 63.7433 142.154 63.7433C142.373 63.7433 142.568 63.573 142.568 63.354L142.689 60.9209ZM139.232 63.1593L141.033 64.7652C141.204 64.9112 141.228 65.1545 141.082 65.3248C141.033 65.3978 140.985 65.4221 140.887 65.4465L138.525 66.1277C138.452 65.1058 138.696 64.0596 139.232 63.1593ZM141.228 66.8577L138.818 67.2713C139.158 68.2446 139.84 69.0962 140.693 69.6558L141.618 67.4173C141.667 67.3443 141.667 67.247 141.642 67.174C141.618 66.9793 141.423 66.8577 141.228 66.8577ZM144.345 70.2884C144.004 70.3614 143.663 70.4101 143.298 70.4101C142.787 70.4101 142.251 70.3128 141.764 70.1668L142.957 68.0013C143.079 67.8553 143.274 67.8067 143.444 67.904C143.517 67.9527 143.566 68.0013 143.639 68.0743L144.808 70.1911C144.662 70.2155 144.516 70.2398 144.345 70.2884ZM145.855 69.6314C146.439 69.2665 146.951 68.7555 147.316 68.1716C147.511 67.9039 147.657 67.5876 147.778 67.247L145.343 66.8333C145.27 66.8333 145.197 66.8577 145.124 66.882C144.954 66.955 144.856 67.1496 144.905 67.3443L145.855 69.6314Z" fill="white"/>
<g filter="url(#filter1_d)">
<path d="M143.294 125.554C153.397 125.554 161.587 117.371 161.587 107.277C161.587 97.1828 153.397 89 143.294 89C133.19 89 125 97.1828 125 107.277C125 117.371 133.19 125.554 143.294 125.554Z" fill="white"/>
</g>
<path d="M143 97C137.517 97 133.091 98.5759 133 100.545C133.001 100.566 133.001 100.586 133 100.607C133 100.834 133.137 101.126 133.586 101.488C134.035 101.849 134.76 102.222 135.676 102.533C137.507 103.154 140.111 103.557 143 103.557C145.889 103.557 148.493 103.154 150.324 102.533C151.24 102.222 151.965 101.849 152.414 101.488C152.862 101.126 153 100.834 153 100.607C153 100.593 153 100.579 153 100.566C152.939 98.5868 148.501 97 143 97ZM133 102.666V107.43C133.001 107.451 133.001 107.471 133 107.492C133 107.719 133.137 108.012 133.586 108.373C134.035 108.734 134.76 109.107 135.676 109.418C137.507 110.04 140.111 110.443 143 110.443C145.889 110.443 148.493 110.04 150.324 109.418C151.24 109.107 151.965 108.734 152.414 108.373C152.862 108.012 153 107.719 153 107.492V107.451V102.666C152.398 103.108 151.629 103.472 150.715 103.783C148.705 104.465 145.997 104.869 143 104.869C140.003 104.869 137.295 104.465 135.285 103.783C134.371 103.472 133.601 103.108 133 102.666ZM133 109.551V113.988C133.001 114.008 133.001 114.029 133 114.049C133 114.277 133.137 114.569 133.586 114.93C134.035 115.292 134.76 115.665 135.676 115.975C137.507 116.597 140.111 117 143 117C145.889 117 148.493 116.597 150.324 115.975C151.24 115.665 151.965 115.292 152.414 114.93C152.862 114.569 153 114.277 153 114.049V114.008V109.551C152.398 109.993 151.629 110.358 150.715 110.668C148.705 111.35 145.997 111.754 143 111.754C140.003 111.754 137.295 111.35 135.285 110.668C134.371 110.358 133.601 109.993 133 109.551Z" fill="#44BB66"/>
<g filter="url(#filter2_d)">
<path d="M143.294 167.554C153.397 167.554 161.587 159.371 161.587 149.277C161.587 139.183 153.397 131 143.294 131C133.19 131 125 139.183 125 149.277C125 159.371 133.19 167.554 143.294 167.554Z" fill="white"/>
</g>
<path d="M141.261 140.947C140.69 140.401 140.168 139.934 139.716 139.554C142.627 138.543 145.842 138.93 148.429 140.602C146.877 140.639 145.337 140.892 143.855 141.355C143.573 140.947 143.135 140.672 142.645 140.595C142.155 140.518 141.655 140.645 141.261 140.947ZM138.698 148.072C139.967 149.285 141.451 150.252 143.075 150.921C144.232 151.388 145.457 151.667 146.703 151.749C146.777 151.372 146.97 151.03 147.253 150.771C146.196 148.355 144.801 146.102 143.11 144.078C142.377 144.413 141.51 144.221 140.987 143.607C140.608 143.863 140.244 144.142 139.898 144.442C139.38 144.897 138.903 145.396 138.473 145.934C139.011 146.516 139.103 147.382 138.698 148.064V148.072ZM149.459 141.378C147.665 141.327 145.874 141.566 144.156 142.087C144.264 142.637 144.103 143.205 143.724 143.619C145.429 145.666 146.841 147.939 147.918 150.375C148.102 150.317 148.293 150.287 148.485 150.288C148.936 150.288 149.371 150.456 149.705 150.759C150.766 150.124 151.867 149.557 153 149.061C153 149.061 153 149.033 153 149.018C153.011 146.069 151.716 143.267 149.463 141.362L149.459 141.378ZM147.253 153.459C144.679 155.64 143.522 157.761 143.027 159C145.178 159.002 147.272 158.307 148.996 157.021C148.856 155.979 148.646 154.947 148.366 153.934C147.951 153.903 147.56 153.731 147.257 153.447L147.253 153.459ZM146.964 152.802C146.913 152.702 146.856 152.606 146.794 152.513C145.435 152.427 144.098 152.127 142.833 151.622C141.118 150.92 139.547 149.908 138.199 148.638C137.758 148.954 137.197 149.052 136.674 148.903C135.796 150.869 135.258 152.971 135.082 155.117C136.839 157.352 139.452 158.749 142.287 158.968C142.766 157.638 143.796 155.244 146.964 152.802ZM150.22 151.507C150.286 151.698 150.32 151.899 150.319 152.101C150.319 152.16 150.319 152.216 150.319 152.275C150.25 152.972 149.788 153.569 149.13 153.811C149.366 154.676 149.552 155.553 149.689 156.439C151.565 154.755 152.734 152.423 152.96 149.912C152.004 150.347 151.073 150.836 150.172 151.377C150.19 151.419 150.206 151.463 150.22 151.507ZM135.288 147.153C135.289 146.704 135.457 146.271 135.76 145.938C135.273 145.28 134.824 144.596 134.413 143.888C132.529 147.044 132.529 150.979 134.413 154.135C134.642 152.206 135.164 150.323 135.962 148.55C135.535 148.205 135.288 147.686 135.288 147.137V147.153ZM136.393 145.475C136.854 145.275 137.378 145.275 137.839 145.475C138.307 144.892 138.825 144.352 139.387 143.86C139.775 143.522 140.184 143.209 140.611 142.922C140.463 142.461 140.516 141.96 140.758 141.541C140.049 140.856 139.411 140.306 138.9 139.886C137.302 140.606 135.92 141.732 134.892 143.152C135.344 143.945 135.846 144.709 136.393 145.439V145.475Z" fill="#A048F8"/>
<path d="M249.136 50.818L249.145 50.8277L249.153 50.8371L261.999 64.3828L261.882 152.139C261.882 152.297 261.753 152.425 261.595 152.425H170.287C170.128 152.425 170 152.297 170 152.138V34.2552C170 34.096 170.13 33.9673 170.289 33.9686L234.431 34.4811L249.136 50.818ZM234.389 34.4346L234.39 34.4352C234.39 34.435 234.389 34.4348 234.389 34.4345L234.495 34.3394L234.389 34.4346Z" fill="white" stroke="#E5E5E5" stroke-width="2"/>
<path d="M231.971 34.9295V65.5226C231.971 65.9964 232.355 66.3804 232.828 66.3804H260.413" stroke="#E5E5E5" stroke-width="2" stroke-dasharray="1.12 1.12"/>
<path d="M183.908 52.205H208.427" stroke="#E5E5E5" stroke-width="2" stroke-linecap="round"/>
<path d="M191.362 64.5218H215.881" stroke="#E5E5E5" stroke-width="2" stroke-linecap="round"/>
<path d="M191.362 76.8387H227.39" stroke="#EBB55C" stroke-width="1.23192" stroke-linecap="round"/>
<path d="M191.362 136.96H227.39" stroke="#EBB55C" stroke-width="1.23192" stroke-linecap="round"/>
<path d="M183.908 89.1556H202.543" stroke="#E5E5E5" stroke-width="2" stroke-linecap="round"/>
<path d="M191.362 101.472H205.028" stroke="#EBB55C" stroke-width="1.23192" stroke-linecap="round"/>
<path d="M191.362 113.789H211.239" stroke="#EBB55C" stroke-width="1.23192" stroke-linecap="round"/>
<path d="M266.138 60.5407L266.147 60.5503L266.156 60.5598L279.001 74.1054L278.884 161.861C278.884 162.02 278.756 162.148 278.597 162.148H187.289C187.131 162.148 187.002 162.019 187.002 161.861V43.9779C187.002 43.8187 187.132 43.69 187.291 43.6912L251.433 44.2038L266.138 60.5407ZM251.391 44.1572L251.392 44.1578C251.392 44.1576 251.392 44.1574 251.391 44.1572L251.497 44.0621L251.391 44.1572Z" fill="white" stroke="#C5C5C5" stroke-width="2"/>
<path d="M198.574 62.9703H228.239" stroke="#C5C5C5" stroke-width="2.70967" stroke-linecap="round"/>
<path d="M198 55H223.825" stroke="#C5C5C5" stroke-width="2.03225" stroke-linecap="round" stroke-dasharray="4.06 4.06"/>
<path d="M198.574 70.9407H241.306" stroke="#C5C5C5" stroke-width="2.70967" stroke-linecap="round"/>
<path d="M198.574 78.911H206.343" stroke="#9B9B9B" stroke-width="2.70967" stroke-linecap="round"/>
<path d="M211.288 78.911H230.181" stroke="#C5C5C5" stroke-width="2.70967" stroke-linecap="round"/>
<path d="M201.752 86.8813H219.057" stroke="#9B9B9B" stroke-width="2.70967" stroke-linecap="round"/>
<path d="M224.001 86.8813H227.003" stroke="#C5C5C5" stroke-width="2.70967" stroke-linecap="round"/>
<path d="M201.752 94.8517H215.878" stroke="#9B9B9B" stroke-width="2.70967" stroke-linecap="round"/>
<path d="M220.823 94.8517H254.019" stroke="#C5C5C5" stroke-width="2.70967" stroke-linecap="round"/>
<path d="M201.752 102.822H208.815" stroke="#9B9B9B" stroke-width="2.70967" stroke-linecap="round"/>
<path d="M214.289 102.822H239.717" stroke="#C5C5C5" stroke-width="2.70967" stroke-linecap="round"/>
<path d="M204.931 110.792H228.239" stroke="#9B9B9B" stroke-width="2.70967" stroke-linecap="round"/>
<path d="M233.36 110.792H244.484" stroke="#C5C5C5" stroke-width="2.70967" stroke-linecap="round"/>
<path d="M208.109 118.763H219.057" stroke="#9B9B9B" stroke-width="2.70967" stroke-linecap="round"/>
<path d="M223.824 118.763H227.003" stroke="#C5C5C5" stroke-width="2.70967" stroke-linecap="round"/>
<path d="M198.574 126.733H206.343" stroke="#9B9B9B" stroke-width="2.70967" stroke-linecap="round"/>
<path d="M211.288 126.733H230.181" stroke="#C5C5C5" stroke-width="2.70967" stroke-linecap="round"/>
<path d="M201.752 134.703H219.057" stroke="#9B9B9B" stroke-width="2.70967" stroke-linecap="round"/>
<path d="M224.001 134.703H227.003" stroke="#C5C5C5" stroke-width="2.70967" stroke-linecap="round"/>
<path d="M201.752 142.674H215.878" stroke="#9B9B9B" stroke-width="2.70967" stroke-linecap="round"/>
<path d="M220.823 142.674H254.019" stroke="#C5C5C5" stroke-width="2.70967" stroke-linecap="round"/>
<path d="M201.752 150.644H208.815" stroke="#9B9B9B" stroke-width="2.70967" stroke-linecap="round"/>
<path d="M214.289 150.644H239.717" stroke="#C5C5C5" stroke-width="2.70967" stroke-linecap="round"/>
<path d="M250.266 44.7187V75.3766C250.266 75.8504 250.65 76.2344 251.124 76.2344H278.566" stroke="#C5C5C5" stroke-width="2"/>
<rect x="200" y="83" width="60" height="8" fill="#323232"/>
<rect x="203" y="115" width="38" height="8" fill="#323232"/>
<rect x="197" y="58.6" width="38" height="8" fill="#323232"/>
<rect x="209" y="146.6" width="38" height="8" fill="#323232"/>
<path d="M205.627 87.2506L203.752 86.7867L204.055 85.8297L205.856 86.611L205.7 84.526H206.701L206.53 86.6403L208.317 85.8785L208.62 86.8502L206.716 87.2897L207.99 88.8717L207.175 89.4723L206.149 87.6705L205.134 89.4186L204.309 88.8473L205.627 87.2506ZM217.639 87.2506L215.764 86.7867L216.066 85.8297L217.868 86.611L217.712 84.526H218.713L218.542 86.6403L220.329 85.8785L220.632 86.8502L218.728 87.2897L220.002 88.8717L219.187 89.4723L218.161 87.6705L217.146 89.4186L216.32 88.8473L217.639 87.2506ZM229.65 87.2506L227.775 86.7867L228.078 85.8297L229.88 86.611L229.724 84.526H230.725L230.554 86.6403L232.341 85.8785L232.644 86.8502L230.739 87.2897L232.014 88.8717L231.198 89.4723L230.173 87.6705L229.157 89.4186L228.332 88.8473L229.65 87.2506ZM241.662 87.2506L239.787 86.7867L240.09 85.8297L241.892 86.611L241.735 84.526H242.736L242.565 86.6403L244.353 85.8785L244.655 86.8502L242.751 87.2897L244.025 88.8717L243.21 89.4723L242.185 87.6705L241.169 89.4186L240.344 88.8473L241.662 87.2506ZM253.674 87.2506L251.799 86.7867L252.102 85.8297L253.903 86.611L253.747 84.526H254.748L254.577 86.6403L256.364 85.8785L256.667 86.8502L254.763 87.2897L256.037 88.8717L255.222 89.4723L254.196 87.6705L253.181 89.4186L252.355 88.8473L253.674 87.2506Z" fill="white"/>
<rect x="200" y="99" width="60" height="8" fill="#323232"/>
<path d="M205.627 103.251L203.752 102.787L204.055 101.83L205.856 102.611L205.7 100.526H206.701L206.53 102.64L208.317 101.879L208.62 102.85L206.716 103.29L207.99 104.872L207.175 105.472L206.149 103.671L205.134 105.419L204.309 104.847L205.627 103.251ZM217.639 103.251L215.764 102.787L216.066 101.83L217.868 102.611L217.712 100.526H218.713L218.542 102.64L220.329 101.879L220.632 102.85L218.728 103.29L220.002 104.872L219.187 105.472L218.161 103.671L217.146 105.419L216.32 104.847L217.639 103.251ZM229.65 103.251L227.775 102.787L228.078 101.83L229.88 102.611L229.724 100.526H230.725L230.554 102.64L232.341 101.879L232.644 102.85L230.739 103.29L232.014 104.872L231.198 105.472L230.173 103.671L229.157 105.419L228.332 104.847L229.65 103.251ZM241.662 103.251L239.787 102.787L240.09 101.83L241.892 102.611L241.735 100.526H242.736L242.565 102.64L244.353 101.879L244.655 102.85L242.751 103.29L244.025 104.872L243.21 105.472L242.185 103.671L241.169 105.419L240.344 104.847L241.662 103.251ZM253.674 103.251L251.799 102.787L252.102 101.83L253.903 102.611L253.747 100.526H254.748L254.577 102.64L256.364 101.879L256.667 102.85L254.763 103.29L256.037 104.872L255.222 105.472L254.196 103.671L253.181 105.419L252.355 104.847L253.674 103.251Z" fill="white"/>
<path d="M208.627 119.251L206.752 118.787L207.055 117.83L208.856 118.611L208.7 116.526H209.701L209.53 118.64L211.317 117.879L211.62 118.85L209.716 119.29L210.99 120.872L210.175 121.472L209.149 119.671L208.134 121.419L207.309 120.847L208.627 119.251ZM220.639 119.251L218.764 118.787L219.066 117.83L220.868 118.611L220.712 116.526H221.713L221.542 118.64L223.329 117.879L223.632 118.85L221.728 119.29L223.002 120.872L222.187 121.472L221.161 119.671L220.146 121.419L219.32 120.847L220.639 119.251ZM232.65 119.251L230.775 118.787L231.078 117.83L232.88 118.611L232.724 116.526H233.725L233.554 118.64L235.341 117.879L235.644 118.85L233.739 119.29L235.014 120.872L234.198 121.472L233.173 119.671L232.157 121.419L231.332 120.847L232.65 119.251Z" fill="white"/>
<path d="M202.627 62.8506L200.752 62.3867L201.055 61.4297L202.856 62.2109L202.7 60.126H203.701L203.53 62.2402L205.317 61.4785L205.62 62.4502L203.716 62.8896L204.99 64.4717L204.175 65.0723L203.149 63.2705L202.134 65.0186L201.309 64.4473L202.627 62.8506ZM214.639 62.8506L212.764 62.3867L213.066 61.4297L214.868 62.2109L214.712 60.126H215.713L215.542 62.2402L217.329 61.4785L217.632 62.4502L215.728 62.8896L217.002 64.4717L216.187 65.0723L215.161 63.2705L214.146 65.0186L213.32 64.4473L214.639 62.8506ZM226.65 62.8506L224.775 62.3867L225.078 61.4297L226.88 62.2109L226.724 60.126H227.725L227.554 62.2402L229.341 61.4785L229.644 62.4502L227.739 62.8896L229.014 64.4717L228.198 65.0723L227.173 63.2705L226.157 65.0186L225.332 64.4473L226.65 62.8506Z" fill="white"/>
<path d="M214.627 150.851L212.752 150.387L213.055 149.43L214.856 150.211L214.7 148.126H215.701L215.53 150.24L217.317 149.479L217.62 150.45L215.716 150.89L216.99 152.472L216.175 153.072L215.149 151.271L214.134 153.019L213.309 152.447L214.627 150.851ZM226.639 150.851L224.764 150.387L225.066 149.43L226.868 150.211L226.712 148.126H227.713L227.542 150.24L229.329 149.479L229.632 150.45L227.728 150.89L229.002 152.472L228.187 153.072L227.161 151.271L226.146 153.019L225.32 152.447L226.639 150.851ZM238.65 150.851L236.775 150.387L237.078 149.43L238.88 150.211L238.724 148.126H239.725L239.554 150.24L241.341 149.479L241.644 150.45L239.739 150.89L241.014 152.472L240.198 153.072L239.173 151.271L238.157 153.019L237.332 152.447L238.65 150.851Z" fill="white"/>
<path fill-rule="evenodd" clip-rule="evenodd" d="M6.57143 76.2678L0.428571 70.3449C-0.142857 69.794 -0.142857 68.9675 0.428571 68.4165C1 67.8656 1.85714 67.8656 2.42857 68.4165L9.57143 75.3036C9.85714 75.5791 10 75.9923 10 76.2678C10 76.681 9.85714 77.0942 9.57143 77.3697L2.42857 84.2568C1.85714 84.8077 1 84.8077 0.428571 84.2568C-0.142857 83.7058 -0.142857 82.8793 0.428571 82.3284L6.57143 76.2678Z" fill="#326DE6"/>
<rect y="109.453" width="13.3684" height="1.57275" rx="0.786375" transform="rotate(-45 0 109.453)" fill="#4A4A4A"/>
<rect x="1.11206" y="100" width="13.3684" height="1.57275" rx="0.786375" transform="rotate(45 1.11206 100)" fill="#4A4A4A"/>
<path fill-rule="evenodd" clip-rule="evenodd" d="M5.04132 116.943L8.59504 113.257C8.92562 112.914 9.42149 112.914 9.75207 113.257C10.0826 113.6 10.0826 114.114 9.75207 114.457L5.61983 118.743C5.45455 118.914 5.20661 119 5.04132 119C4.79339 119 4.54545 118.914 4.38017 118.743L0.247934 114.457C-0.0826447 114.114 -0.0826447 113.6 0.247934 113.257C0.578512 112.914 1.07438 112.914 1.40496 113.257L5.04132 116.943Z" fill="#163166"/>
<rect y="121" width="12" height="1.5" rx="0.75" fill="#4A4A4A"/>
<rect y="125" width="12" height="1.5" rx="0.75" fill="#4A4A4A"/>
<rect y="129" width="12" height="1.5" rx="0.75" fill="#4A4A4A"/>
<path d="M152.707 15.7071C153.098 15.3166 153.098 14.6834 152.707 14.2929L146.343 7.92893C145.953 7.53841 145.319 7.53841 144.929 7.92893C144.538 8.31946 144.538 8.95262 144.929 9.34315L150.586 15L144.929 20.6569C144.538 21.0474 144.538 21.6805 144.929 22.0711C145.319 22.4616 145.953 22.4616 146.343 22.0711L152.707 15.7071ZM48 16H51.7143V14H48V16ZM59.1429 16L66.5714 16V14H59.1429V16ZM74 16L81.4286 16V14L74 14V16ZM88.8571 16L96.2857 16V14L88.8571 14V16ZM103.714 16L111.143 16V14L103.714 14V16ZM118.571 16L126 16V14L118.571 14V16ZM133.429 16L140.857 16V14L133.429 14V16ZM148.286 16H152V14H148.286V16ZM153.414 16.4142C154.195 15.6332 154.195 14.3668 153.414 13.5858L140.686 0.857864C139.905 0.0768156 138.639 0.0768156 137.858 0.857864C137.077 1.63891 137.077 2.90524 137.858 3.68629L149.172 15L137.858 26.3137C137.077 27.0948 137.077 28.3611 137.858 29.1421C138.639 29.9232 139.905 29.9232 140.686 29.1421L153.414 16.4142ZM48 17H51.7143V13H48V17ZM59.1429 17H66.5714V13H59.1429V17ZM74 17H81.4286V13H74V17ZM88.8571 17H96.2857V13L88.8571 13V17ZM103.714 17H111.143V13L103.714 13V17ZM118.571 17H126V13L118.571 13V17ZM133.429 17H140.857V13L133.429 13V17ZM148.286 17H152V13H148.286V17Z" fill="#E5E5E5"/>
<path d="M24 68H18.7013L12 74.7013L17.2987 80L24 73.2987V68ZM21.1948 70.8052C21.5391 71.1495 21.5391 71.7077 21.1948 72.0519C20.8505 72.3962 20.2923 72.3962 19.9481 72.0519C19.6038 71.7077 19.6038 71.1495 19.9481 70.8052C20.2923 70.4609 20.8505 70.4609 21.1948 70.8052Z" fill="#C5C5C5"/>
<path d="M24.3515 19.8735L30.1577 14.0716C29.7111 13.494 29.3695 12.864 29.0805 12.2076C28.6339 11.1313 28.3974 9.97613 28.3974 8.79475C28.3974 7.61336 28.6339 6.45823 29.0805 5.38186C29.5271 4.33174 30.1577 3.38663 30.9721 2.57279C31.7866 1.75895 32.7324 1.12888 33.7833 0.682578C34.8605 0.236277 36.0165 0 37.1987 0C38.381 0 39.537 0.236277 40.6141 0.682578C41.665 1.12888 42.6108 1.75895 43.4253 2.57279C44.2397 3.38663 44.8703 4.33174 45.3169 5.38186C45.7635 6.45823 46 7.61336 46 8.79475C46 9.97613 45.7635 11.1313 45.3169 12.2076C44.8703 13.2578 44.2397 14.2029 43.4253 15.0167C42.6108 15.8305 41.665 16.4606 40.6141 16.9069C39.537 17.3532 38.381 17.5895 37.1987 17.5895C36.0165 17.5895 34.8605 17.3532 33.7833 16.9069C33.1002 16.6181 32.4959 16.2506 31.9179 15.8305L26.1117 21.6325C25.8753 21.8687 25.56 22 25.2447 22C24.9295 22 24.6142 21.8687 24.3777 21.6325C23.8786 21.1337 23.8786 20.3461 24.3515 19.8735ZM37.1724 15.6205C40.9557 15.6205 44.0296 12.5489 44.0296 8.7685C44.0296 4.98807 40.9557 1.91647 37.1724 1.91647C33.3892 1.91647 30.3153 4.98807 30.3153 8.7685C30.3153 10.4224 30.8933 11.9189 31.8654 13.1002C32.1544 13.4415 32.4697 13.7828 32.8375 14.0716C34.0197 15.043 35.5435 15.6205 37.1724 15.6205Z" fill="#E5E5E5"/>
<path d="M0.351463 19.8735L6.15768 14.0716C5.71105 13.494 5.36951 12.864 5.08051 12.2076C4.63388 11.1313 4.39743 9.97613 4.39743 8.79475C4.39743 7.61336 4.63388 6.45823 5.08051 5.38186C5.52714 4.33174 6.15768 3.38663 6.97213 2.57279C7.78658 1.75895 8.73239 1.12888 9.78329 0.682578C10.8605 0.236277 12.0165 0 13.1987 0C14.381 0 15.537 0.236277 16.6141 0.682578C17.665 1.12888 18.6108 1.75895 19.4253 2.57279C20.2397 3.38663 20.8703 4.33174 21.3169 5.38186C21.7635 6.45823 22 7.61336 22 8.79475C22 9.97613 21.7635 11.1313 21.3169 12.2076C20.8703 13.2578 20.2397 14.2029 19.4253 15.0167C18.6108 15.8305 17.665 16.4606 16.6141 16.9069C15.537 17.3532 14.381 17.5895 13.1987 17.5895C12.0165 17.5895 10.8605 17.3532 9.78329 16.9069C9.1002 16.6181 8.49594 16.2506 7.91794 15.8305L2.11172 21.6325C1.87527 21.8687 1.56 22 1.24473 22C0.929459 22 0.614187 21.8687 0.377735 21.6325C-0.121443 21.1337 -0.121443 20.3461 0.351463 19.8735ZM13.1724 15.6205C16.9557 15.6205 20.0296 12.5489 20.0296 8.7685C20.0296 4.98807 16.9557 1.91647 13.1724 1.91647C9.3892 1.91647 6.31532 4.98807 6.31532 8.7685C6.31532 10.4224 6.89331 11.9189 7.8654 13.1002C8.15439 13.4415 8.46966 13.7828 8.83748 14.0716C10.0197 15.043 11.5435 15.6205 13.1724 15.6205Z" fill="#163166"/>
</g>
<defs>
<filter id="filter0_d" x="121" y="43" width="44.587" height="44.5536" filterUnits="userSpaceOnUse" color-interpolation-filters="sRGB">
<feFlood flood-opacity="0" result="BackgroundImageFix"/>
<feColorMatrix in="SourceAlpha" type="matrix" values="0 0 0 0 0 0 0 0 0 0 0 0 0 0 0 0 0 0 127 0"/>
<feOffset/>
<feGaussianBlur stdDeviation="2"/>
<feColorMatrix type="matrix" values="0 0 0 0 0 0 0 0 0 0 0 0 0 0 0 0 0 0 0.16 0"/>
<feBlend mode="normal" in2="BackgroundImageFix" result="effect1_dropShadow"/>
<feBlend mode="normal" in="SourceGraphic" in2="effect1_dropShadow" result="shape"/>
</filter>
<filter id="filter1_d" x="121" y="85" width="44.587" height="44.5536" filterUnits="userSpaceOnUse" color-interpolation-filters="sRGB">
<feFlood flood-opacity="0" result="BackgroundImageFix"/>
<feColorMatrix in="SourceAlpha" type="matrix" values="0 0 0 0 0 0 0 0 0 0 0 0 0 0 0 0 0 0 127 0"/>
<feOffset/>
<feGaussianBlur stdDeviation="2"/>
<feColorMatrix type="matrix" values="0 0 0 0 0 0 0 0 0 0 0 0 0 0 0 0 0 0 0.16 0"/>
<feBlend mode="normal" in2="BackgroundImageFix" result="effect1_dropShadow"/>
<feBlend mode="normal" in="SourceGraphic" in2="effect1_dropShadow" result="shape"/>
</filter>
<filter id="filter2_d" x="121" y="127" width="44.587" height="44.5536" filterUnits="userSpaceOnUse" color-interpolation-filters="sRGB">
<feFlood flood-opacity="0" result="BackgroundImageFix"/>
<feColorMatrix in="SourceAlpha" type="matrix" values="0 0 0 0 0 0 0 0 0 0 0 0 0 0 0 0 0 0 127 0"/>
<feOffset/>
<feGaussianBlur stdDeviation="2"/>
<feColorMatrix type="matrix" values="0 0 0 0 0 0 0 0 0 0 0 0 0 0 0 0 0 0 0.16 0"/>
<feBlend mode="normal" in2="BackgroundImageFix" result="effect1_dropShadow"/>
<feBlend mode="normal" in="SourceGraphic" in2="effect1_dropShadow" result="shape"/>
</filter>
<clipPath id="clip0">
<rect width="300" height="400" fill="white"/>
</clipPath>
</defs>
</svg>
