<svg width="300" height="500" viewBox="0 0 300 500" fill="none" xmlns="http://www.w3.org/2000/svg">
<g clip-path="url(#clip0)">
<path d="M57.4242 231.447L57.4243 231.447L60.99 235.021C61.9419 235.975 63.3039 236.797 64.7076 237.379C66.1112 237.962 67.6544 238.346 69.001 238.346H136.684C138.483 238.346 139.963 239.826 139.963 241.634V311.942C139.963 313.751 138.483 315.23 136.684 315.23H30.2781C28.4796 315.23 27 313.751 27 311.942V231.997C27 230.188 28.4798 228.708 30.2781 228.708H50.8291C51.8354 228.708 53.1119 229.006 54.3557 229.522C55.5994 230.039 56.7123 230.733 57.4242 231.447Z" fill="#CEE3F6" stroke="#73A3CD" stroke-width="2"/>
<path d="M131.5 203.723L131.509 203.733L131.518 203.742L141.443 214.208L141.352 282.053C141.352 282.211 141.224 282.34 141.065 282.34H70.6556C70.4972 282.34 70.3689 282.211 70.3689 282.053V190.987C70.3689 190.828 70.4986 190.699 70.6579 190.7L120.134 191.096L131.5 203.723Z" fill="white" stroke="#E5E5E5" stroke-width="2"/>
<path d="M118.5 191V214.814C118.5 215.288 118.884 215.672 119.358 215.672H140.432" stroke="#E5E5E5" stroke-width="2" stroke-dasharray="1.12 1.12"/>
<path d="M80.9583 204.652H100.019" stroke="#EBB55C" stroke-width="1.23192" stroke-linecap="round"/>
<path d="M86.7529 214.227H105.813" stroke="#EBB55C" stroke-width="1.23192" stroke-linecap="round"/>
<path d="M86.7529 223.802H114.761" stroke="#EBB55C" stroke-width="1.23192" stroke-linecap="round"/>
<path d="M86.7529 270.54H114.761" stroke="#EBB55C" stroke-width="1.23192" stroke-linecap="round"/>
<path d="M80.9583 233.377H95.445" stroke="#EBB55C" stroke-width="1.23192" stroke-linecap="round"/>
<path d="M86.7529 242.952H97.3765" stroke="#EBB55C" stroke-width="1.23192" stroke-linecap="round"/>
<path d="M86.7529 252.527H102.205" stroke="#EBB55C" stroke-width="1.23192" stroke-linecap="round"/>
<path d="M80.9583 262.102H100.019" stroke="#EBB55C" stroke-width="1.23192" stroke-linecap="round"/>
<path d="M101.178 191L101.187 191.01L101.196 191.02L111.121 201.485L111.03 269.331C111.03 269.489 110.902 269.617 110.744 269.617H40.3338C40.1755 269.617 40.0471 269.489 40.0471 269.33V178.265C40.0471 178.105 40.1769 177.977 40.3361 177.978L89.8127 178.373L101.178 191Z" fill="white" stroke="#E5E5E5" stroke-width="2"/>
<path d="M88 178.5V202.092C88 202.566 88.384 202.95 88.8578 202.95H110.11" stroke="#E5E5E5" stroke-width="2" stroke-dasharray="1.12 1.12"/>
<path d="M50.6365 191.93H69.697" stroke="#E5E5E5" stroke-width="2" stroke-linecap="round"/>
<path d="M56.4312 201.505H75.4917" stroke="#E5E5E5" stroke-width="2" stroke-linecap="round"/>
<path d="M56.4312 211.08H84.4388" stroke="#EBB55C" stroke-width="1.23192" stroke-linecap="round"/>
<path d="M56.4312 257.818H84.4388" stroke="#EBB55C" stroke-width="1.23192" stroke-linecap="round"/>
<path d="M50.6365 220.655H65.1232" stroke="#E5E5E5" stroke-width="2" stroke-linecap="round"/>
<path d="M56.4312 230.23H67.0547" stroke="#EBB55C" stroke-width="1.23192" stroke-linecap="round"/>
<path d="M56.4312 239.805H71.8836" stroke="#EBB55C" stroke-width="1.23192" stroke-linecap="round"/>
<path d="M115.173 222.949L115.182 222.958L115.191 222.968L125.116 233.434L125.025 301.279C125.025 301.437 124.896 301.565 124.738 301.565H54.3284C54.1701 301.565 54.0417 301.437 54.0417 301.279V210.213C54.0417 210.054 54.1715 209.925 54.3307 209.926L103.807 210.322L115.173 222.949Z" fill="white" stroke="#C5C5C5" stroke-width="2"/>
<path d="M60.574 224.97H90.2391" stroke="#C5C5C5" stroke-width="2.70967" stroke-linecap="round"/>
<path d="M60 217H85.8246" stroke="#C5C5C5" stroke-width="2.03225" stroke-linecap="round" stroke-dasharray="4.06 4.06"/>
<path d="M60.574 232.941L98.0001 232.997" stroke="#C5C5C5" stroke-width="2.70967" stroke-linecap="round"/>
<path d="M60.574 240.911H68.3434" stroke="#9B9B9B" stroke-width="2.70967" stroke-linecap="round"/>
<path d="M73.2876 240.911H92.1815" stroke="#C5C5C5" stroke-width="2.70967" stroke-linecap="round"/>
<path d="M63.7522 248.881H81.0569" stroke="#9B9B9B" stroke-width="2.70967" stroke-linecap="round"/>
<path d="M86.0012 248.881H89.003" stroke="#C5C5C5" stroke-width="2.70967" stroke-linecap="round"/>
<path d="M63.7522 256.852H77.8785" stroke="#9B9B9B" stroke-width="2.70967" stroke-linecap="round"/>
<path d="M82.8228 256.852H116.019" stroke="#C5C5C5" stroke-width="2.70967" stroke-linecap="round"/>
<path d="M63.7522 264.822H70.8153" stroke="#9B9B9B" stroke-width="2.70967" stroke-linecap="round"/>
<path d="M76.2893 264.822H101.717" stroke="#C5C5C5" stroke-width="2.70967" stroke-linecap="round"/>
<path d="M66.9307 272.792H90.239" stroke="#9B9B9B" stroke-width="2.70967" stroke-linecap="round"/>
<path d="M95.3599 272.792H106.484" stroke="#C5C5C5" stroke-width="2.70967" stroke-linecap="round"/>
<path d="M70.1091 280.763H81.057" stroke="#9B9B9B" stroke-width="2.70967" stroke-linecap="round"/>
<path d="M85.8245 280.763H89.0029" stroke="#C5C5C5" stroke-width="2.70967" stroke-linecap="round"/>
<path d="M60.574 288.733H68.3434" stroke="#9B9B9B" stroke-width="2.70967" stroke-linecap="round"/>
<path d="M73.2876 288.733H92.1815" stroke="#C5C5C5" stroke-width="2.70967" stroke-linecap="round"/>
<path d="M63.7522 296.703H81.0569" stroke="#9B9B9B" stroke-width="2.70967" stroke-linecap="round"/>
<path d="M86.0012 296.703H89.003" stroke="#C5C5C5" stroke-width="2.70967" stroke-linecap="round"/>
<path d="M63.7522 304.674H77.8785" stroke="#9B9B9B" stroke-width="2.70967" stroke-linecap="round"/>
<path d="M82.8228 304.674H116.019" stroke="#C5C5C5" stroke-width="2.70967" stroke-linecap="round"/>
<path d="M63.7522 312.644H70.8153" stroke="#9B9B9B" stroke-width="2.70967" stroke-linecap="round"/>
<path d="M76.2893 312.644H101.717" stroke="#C5C5C5" stroke-width="2.70967" stroke-linecap="round"/>
<path d="M103 210.5V234.142C103 234.616 103.384 235 103.858 235H125" stroke="#C5C5C5" stroke-width="2"/>
<path d="M27.0225 311.257L27.0241 311.243L27.0254 311.229L32.6878 247.744C32.9111 245.909 34.6325 244.381 36.4721 244.381H144.887C146.63 244.381 147.821 245.752 147.577 247.488L147.575 247.499L147.574 247.511L140.098 311.023C139.833 312.862 138.062 314.398 136.213 314.398H29.8065C28.0546 314.398 26.8165 313.006 27.0225 311.257Z" fill="#CEE3F7" stroke="#73A3CD" stroke-width="2"/>
<path d="M30.7988 232.264L43.9947 219.341C42.9797 218.055 42.2034 216.652 41.5466 215.19C40.5315 212.792 39.9942 210.22 39.9942 207.588C39.9942 204.957 40.5315 202.384 41.5466 199.987C42.5617 197.648 43.9947 195.543 45.8457 193.73C47.6968 191.918 49.8463 190.514 52.2347 189.52C54.6829 188.526 57.3101 188 59.9971 188C62.684 188 65.3113 188.526 67.7594 189.52C70.1478 190.514 72.2974 191.918 74.1484 193.73C75.9994 195.543 77.4325 197.648 78.4475 199.987C79.4626 202.384 80 204.957 80 207.588C80 210.22 79.4626 212.792 78.4475 215.19C77.4325 217.529 75.9994 219.634 74.1484 221.446C72.2974 223.259 70.1478 224.662 67.7594 225.656C65.3113 226.65 62.684 227.177 59.9971 227.177C57.3101 227.177 54.6829 226.65 52.2347 225.656C50.6823 225.013 49.3089 224.195 47.9953 223.259L34.7994 236.181C34.262 236.708 33.5454 237 32.8289 237C32.1124 237 31.3959 236.708 30.8585 236.181C29.724 235.07 29.724 233.316 30.7988 232.264ZM59.9374 222.791C68.5356 222.791 75.5217 215.95 75.5217 207.53C75.5217 199.11 68.5356 192.268 59.9374 192.268C51.3391 192.268 44.353 199.11 44.353 207.53C44.353 211.214 45.6666 214.547 47.8759 217.178C48.5327 217.938 49.2492 218.698 50.0852 219.341C52.7721 221.505 56.2353 222.791 59.9374 222.791Z" fill="#4A4A4A"/>
<path fill-rule="evenodd" clip-rule="evenodd" d="M7.32388 181.23C8.24955 179.584 9.75655 179.595 10.676 181.23L17.6133 193.563C18.5389 195.209 17.7426 196.543 15.8681 196.543H2.13184C0.242325 196.543 -0.532825 195.198 0.386639 193.563L7.32388 181.23Z" fill="#E05243"/>
<path fill-rule="evenodd" clip-rule="evenodd" d="M7.9506 193.12C7.88789 193.255 7.85654 193.4 7.85654 193.554C7.85654 193.713 7.88789 193.863 7.9506 194.003C8.01332 194.143 8.09653 194.263 8.20024 194.365C8.30396 194.466 8.42576 194.547 8.56565 194.607C8.70555 194.667 8.85508 194.698 9.01427 194.698C9.16864 194.698 9.31456 194.667 9.45204 194.607C9.58952 194.547 9.70892 194.466 9.81022 194.365C9.91152 194.263 9.99232 194.143 10.0526 194.003C10.1129 193.863 10.1431 193.713 10.1431 193.554C10.1431 193.4 10.1129 193.255 10.0526 193.12C9.99232 192.985 9.91152 192.867 9.81022 192.766C9.70892 192.664 9.58952 192.583 9.45204 192.523C9.31456 192.463 9.16864 192.433 9.01427 192.433C8.85508 192.433 8.70555 192.463 8.56565 192.523C8.42576 192.583 8.30396 192.664 8.20024 192.766C8.09653 192.867 8.01332 192.985 7.9506 193.12ZM8.10273 183.967L8.10273 191.391H9.89722L9.89722 183.967H8.10273Z" fill="white"/>
<circle cx="9" cy="208" r="9" fill="#A048F8"/>
<path d="M13.2741 206.125C13.3996 206.124 13.5249 206.164 13.6082 206.244L15.6892 208.24C15.8557 208.399 15.8543 208.64 15.6861 208.802C15.5178 208.963 15.2667 208.965 15.1002 208.805L13.8626 207.643C13.8709 207.761 13.8751 207.88 13.8751 208C13.8751 210.761 11.6365 213 8.87508 213C7.45599 213 6.17497 212.409 5.26489 211.459L5.88213 210.865C6.6363 211.652 7.6984 212.143 8.87508 212.143C11.1631 212.143 13.0179 210.288 13.0179 208C13.0179 207.787 13.0019 207.579 12.9711 207.375L11.4599 208.825C11.2916 208.987 11.0405 208.988 10.8741 208.828C10.7076 208.669 10.7089 208.428 10.8772 208.266L12.9805 206.247C13.0646 206.166 13.1904 206.125 13.2741 206.125Z" fill="white"/>
<path d="M4.53914 209.875C4.41361 209.876 4.28831 209.836 4.20507 209.756L2.12405 207.76C1.95757 207.601 1.95891 207.36 2.12718 207.198C2.29545 207.037 2.54651 207.035 2.71299 207.195L3.95068 208.357C3.94237 208.239 3.93815 208.12 3.93815 208C3.93815 205.239 6.17673 203 8.93815 203C10.3572 203 11.6383 203.591 12.5483 204.541L11.9311 205.135C11.1769 204.348 10.1148 203.857 8.93815 203.857C6.65011 203.857 4.79529 205.712 4.79529 208C4.79529 208.213 4.8113 208.421 4.84217 208.625L6.35337 207.175C6.52164 207.013 6.7727 207.012 6.93918 207.172C7.10566 207.331 7.10432 207.572 6.93605 207.734L4.83272 209.753C4.74858 209.834 4.62283 209.875 4.53914 209.875Z" fill="white"/>
<path fill-rule="evenodd" clip-rule="evenodd" d="M2.4 224.695L6.7 228.71C7.1 229.083 7.1 229.643 6.7 230.017C6.3 230.39 5.7 230.39 5.3 230.017L0.3 225.349C0.1 225.162 0 224.882 0 224.695C0 224.415 0.1 224.135 0.3 223.948L5.3 219.28C5.7 218.907 6.3 218.907 6.7 219.28C7.1 219.654 7.1 220.214 6.7 220.587L2.4 224.695Z" fill="#326DE6"/>
<rect y="102.453" width="13.3684" height="1.57275" rx="0.786375" transform="rotate(-45 0 102.453)" fill="white"/>
<rect x="1.11206" y="93" width="13.3684" height="1.57275" rx="0.786375" transform="rotate(45 1.11206 93)" fill="white"/>
<path fill-rule="evenodd" clip-rule="evenodd" d="M268.551 191C270.782 191 272.598 192.787 272.598 194.983V306.493C272.598 308.689 270.782 310.476 268.551 310.476H179.534C177.303 310.476 175.487 308.689 175.487 306.493V194.983C175.487 192.787 177.303 191 179.534 191H191.876C192.817 195.538 196.903 198.965 201.788 198.965H246.297C251.182 198.965 255.268 195.538 256.209 191H268.551Z" fill="white"/>
<path fill-rule="evenodd" clip-rule="evenodd" d="M194 178.944H254V189.882C254 193.501 251.117 196.444 247.571 196.444H200.429C196.883 196.444 194 193.501 194 189.882V178.944Z" fill="#E5E5E5"/>
<path d="M253.464 177H194.536C193.451 177 192.571 177.871 192.571 178.944V184.778H180.786C174.286 184.778 169 190.011 169 196.444V305.333C169 311.767 174.286 317 180.786 317H267.214C273.714 317 279 311.767 279 305.333V196.444C279 190.011 273.714 184.778 267.214 184.778H255.429V178.944C255.429 177.871 254.549 177 253.464 177ZM196.5 180.889H251.5V190.611C251.5 193.828 248.857 196.444 245.607 196.444H202.393C199.143 196.444 196.5 193.828 196.5 190.611V180.889ZM268.551 191C270.782 191 272.598 192.787 272.598 194.983V306.493C272.598 308.689 270.782 310.476 268.551 310.476H179.534C177.303 310.476 175.487 308.689 175.487 306.493V194.983C175.487 192.787 177.303 191 179.534 191H191.876C192.817 195.538 196.903 198.965 201.788 198.965H246.297C251.182 198.965 255.268 195.538 256.209 191H268.551Z" fill="#D8D8D8"/>
<path fill-rule="evenodd" clip-rule="evenodd" d="M206.431 218.574C206.309 218.185 206.017 217.869 205.652 217.674L198.225 214.122C198.03 214.024 197.811 214 197.616 214C197.421 214 197.202 214 197.007 214.049L189.58 217.625C189.215 217.796 188.947 218.112 188.85 218.526L187.024 226.531C186.951 226.944 187.048 227.358 187.292 227.698L192.429 234.049C192.722 234.341 193.136 234.536 193.55 234.56H201.731C202.17 234.609 202.584 234.414 202.851 234.049L207.989 227.698C208.233 227.358 208.33 226.944 208.281 226.531L206.431 218.574Z" fill="#326DE6"/>
<path fill-rule="evenodd" clip-rule="evenodd" d="M205.286 226.214C205.262 226.214 205.238 226.214 205.238 226.19C205.238 226.166 205.189 226.166 205.14 226.166C205.043 226.141 204.945 226.141 204.848 226.141C204.799 226.141 204.751 226.141 204.702 226.117H204.678C204.41 226.093 204.118 226.044 203.85 225.971C203.777 225.947 203.704 225.874 203.679 225.801L203.484 225.752C203.582 225.046 203.533 224.316 203.387 223.611C203.217 222.905 202.924 222.224 202.535 221.616L202.681 221.47V221.445C202.681 221.372 202.705 221.275 202.754 221.226C202.973 221.032 203.192 220.886 203.436 220.74L203.582 220.667C203.631 220.642 203.673 220.618 203.716 220.594L203.716 220.594L203.716 220.594L203.716 220.594C203.758 220.569 203.801 220.545 203.85 220.521C203.862 220.509 203.874 220.502 203.886 220.496C203.898 220.49 203.911 220.484 203.923 220.472C203.938 220.457 203.934 220.451 203.929 220.443C203.926 220.438 203.923 220.433 203.923 220.423C204.142 220.253 204.191 219.961 204.02 219.742C203.947 219.645 203.801 219.572 203.679 219.572C203.558 219.572 203.436 219.62 203.338 219.693L203.314 219.718C203.29 219.742 203.265 219.766 203.241 219.766L203.241 219.766C203.168 219.839 203.095 219.912 203.046 219.985C203.029 220.019 203 220.041 202.976 220.06C202.966 220.068 202.956 220.075 202.949 220.083C202.778 220.277 202.559 220.472 202.34 220.618C202.291 220.642 202.243 220.667 202.194 220.667C202.17 220.667 202.121 220.667 202.097 220.642H202.072L201.877 220.764C201.78 220.667 201.676 220.569 201.573 220.472L201.573 220.472L201.573 220.472C201.469 220.375 201.366 220.277 201.269 220.18C200.368 219.474 199.248 219.037 198.103 218.915L198.079 218.72V218.745C198.006 218.696 197.981 218.623 197.957 218.55C197.957 218.282 197.957 218.015 198.006 217.723V217.698C198.006 217.674 198.012 217.65 198.018 217.625L198.018 217.625C198.024 217.601 198.03 217.577 198.03 217.552C198.042 217.504 198.048 217.455 198.054 217.406L198.054 217.406C198.06 217.358 198.067 217.309 198.079 217.26V217.114C198.103 216.871 197.908 216.628 197.665 216.603C197.519 216.579 197.373 216.652 197.251 216.774C197.153 216.871 197.105 216.993 197.105 217.114V217.236C197.105 217.333 197.129 217.431 197.153 217.528C197.178 217.577 197.178 217.625 197.178 217.674V217.698C197.226 217.966 197.226 218.234 197.226 218.526C197.202 218.599 197.178 218.672 197.105 218.72V218.769L197.08 218.964C196.851 218.984 196.622 219.023 196.378 219.064L196.378 219.064L196.252 219.085C195.108 219.328 194.061 219.937 193.257 220.788L193.111 220.691H193.087C193.077 220.691 193.067 220.695 193.055 220.7C193.038 220.707 193.018 220.715 192.99 220.715C192.941 220.715 192.892 220.691 192.843 220.667C192.624 220.496 192.405 220.302 192.235 220.107C192.218 220.073 192.189 220.051 192.165 220.033C192.154 220.024 192.145 220.017 192.137 220.01C192.101 219.973 192.07 219.937 192.04 219.9C192.009 219.864 191.979 219.827 191.942 219.791C191.93 219.779 191.918 219.773 191.906 219.766C191.894 219.76 191.882 219.754 191.869 219.742L191.845 219.718C191.748 219.645 191.626 219.596 191.504 219.596C191.358 219.596 191.236 219.645 191.163 219.766C191.017 219.985 191.066 220.277 191.261 220.448C191.285 220.448 191.285 220.472 191.285 220.472C191.285 220.472 191.334 220.521 191.358 220.521C191.431 220.569 191.529 220.618 191.626 220.667L191.772 220.74C192.016 220.886 192.259 221.032 192.454 221.226C192.498 221.271 192.543 221.356 192.532 221.426L192.527 221.421V221.445C192.529 221.439 192.531 221.432 192.532 221.426L192.673 221.567C192.661 221.591 192.649 221.61 192.636 221.628L192.636 221.628C192.624 221.646 192.612 221.664 192.6 221.689C191.845 222.881 191.529 224.292 191.748 225.679L191.553 225.728C191.553 225.752 191.529 225.752 191.529 225.752C191.504 225.825 191.431 225.874 191.358 225.922C191.09 225.995 190.822 226.044 190.53 226.068C190.481 226.068 190.433 226.068 190.384 226.093C190.335 226.093 190.287 226.099 190.238 226.105C190.189 226.111 190.141 226.117 190.092 226.117C190.082 226.117 190.072 226.121 190.06 226.126C190.043 226.133 190.023 226.141 189.994 226.141C189.97 226.141 189.97 226.141 189.946 226.166C189.678 226.214 189.507 226.458 189.556 226.725C189.605 226.944 189.824 227.09 190.043 227.066C190.092 227.066 190.116 227.066 190.165 227.041C190.189 227.041 190.189 227.041 190.189 227.017C190.189 227 190.225 227.007 190.255 227.012L190.255 227.012C190.267 227.015 190.279 227.017 190.287 227.017C190.348 227.002 190.409 226.977 190.464 226.955C190.497 226.941 190.527 226.929 190.555 226.92C190.603 226.895 190.652 226.871 190.701 226.871H190.725C190.993 226.774 191.236 226.701 191.529 226.652H191.553C191.626 226.652 191.699 226.677 191.748 226.725C191.772 226.725 191.772 226.749 191.772 226.749L191.991 226.725C192.356 227.844 193.038 228.842 193.988 229.572C194.207 229.742 194.402 229.888 194.645 230.01L194.524 230.18C194.524 230.205 194.548 230.205 194.548 230.205C194.597 230.278 194.597 230.375 194.572 230.448C194.475 230.691 194.329 230.934 194.183 231.153V231.178C194.158 231.226 194.134 231.251 194.085 231.299C194.058 231.327 194.031 231.369 193.999 231.419C193.974 231.457 193.947 231.5 193.915 231.543C193.903 231.555 193.897 231.567 193.89 231.579C193.884 231.591 193.878 231.604 193.866 231.616C193.866 231.616 193.866 231.64 193.842 231.64C193.72 231.883 193.817 232.175 194.037 232.297C194.085 232.321 194.158 232.346 194.207 232.346C194.402 232.346 194.572 232.224 194.67 232.054C194.67 232.054 194.67 232.029 194.694 232.029C194.694 232.005 194.718 231.981 194.743 231.956C194.755 231.908 194.773 231.865 194.791 231.823C194.81 231.78 194.828 231.737 194.84 231.689L194.889 231.543C194.962 231.275 195.084 231.032 195.205 230.788C195.254 230.715 195.327 230.667 195.4 230.642C195.425 230.642 195.425 230.642 195.425 230.618L195.522 230.424C196.204 230.691 196.91 230.813 197.64 230.813C198.079 230.813 198.517 230.764 198.955 230.642C199.155 230.606 199.355 230.543 199.544 230.483L199.544 230.483C199.609 230.462 199.673 230.442 199.735 230.424L199.832 230.594H199.832C199.844 230.594 199.85 230.594 199.853 230.597C199.856 230.6 199.856 230.606 199.856 230.618C199.929 230.642 200.002 230.691 200.051 230.764L200.051 230.764C200.173 231.007 200.295 231.251 200.368 231.518V231.543L200.416 231.689C200.441 231.786 200.465 231.883 200.514 231.956C200.526 231.969 200.532 231.981 200.538 231.993C200.544 232.005 200.55 232.017 200.562 232.029C200.562 232.029 200.562 232.054 200.587 232.054C200.684 232.224 200.855 232.346 201.049 232.346C201.107 232.346 201.15 232.33 201.201 232.312C201.215 232.307 201.229 232.302 201.244 232.297C201.342 232.248 201.439 232.151 201.463 232.029C201.488 231.908 201.488 231.786 201.439 231.664C201.439 231.64 201.415 231.64 201.415 231.64C201.415 231.616 201.39 231.591 201.366 231.567C201.317 231.47 201.269 231.397 201.196 231.324C201.171 231.275 201.147 231.251 201.098 231.202L201.098 231.202V231.153C200.928 230.934 200.806 230.691 200.709 230.448C200.684 230.375 200.684 230.278 200.733 230.205C200.733 230.18 200.757 230.18 200.757 230.18L200.684 229.986C201.926 229.231 202.876 228.063 203.314 226.677L203.509 226.701C203.533 226.701 203.533 226.677 203.533 226.677C203.582 226.628 203.655 226.604 203.728 226.604H203.752C204.02 226.652 204.288 226.725 204.532 226.822H204.556L204.556 226.822C204.605 226.847 204.653 226.871 204.702 226.871C204.727 226.884 204.751 226.896 204.773 226.908L204.773 226.908C204.839 226.943 204.898 226.975 204.97 226.993C204.98 226.993 204.99 226.997 205.002 227.002C205.019 227.009 205.039 227.017 205.067 227.017C205.092 227.017 205.092 227.017 205.116 227.041L205.116 227.041C205.165 227.066 205.189 227.066 205.238 227.066C205.457 227.066 205.652 226.92 205.725 226.725C205.7 226.458 205.506 226.263 205.286 226.214ZM198.249 225.46L197.592 225.776L196.934 225.46L196.764 224.754L197.226 224.17H197.957L198.42 224.754L198.249 225.46ZM202.316 225.411C202.364 224.9 202.34 224.389 202.218 223.879C202.096 223.368 201.902 222.881 201.634 222.443L199.808 224.097C199.759 224.146 199.735 224.195 199.71 224.268C199.661 224.487 199.783 224.706 200.002 224.754L202.316 225.411ZM200.903 221.543L198.907 222.954C198.736 223.051 198.493 223.027 198.371 222.857C198.322 222.808 198.298 222.759 198.298 222.686L198.152 220.229C199.223 220.35 200.173 220.813 200.903 221.543ZM196.983 220.205L196.496 220.302C195.644 220.497 194.864 220.934 194.231 221.543L196.252 222.978C196.268 222.983 196.282 222.988 196.295 222.993C196.347 223.012 196.389 223.027 196.447 223.027C196.666 223.027 196.861 222.857 196.861 222.638L196.983 220.205ZM193.525 222.443L195.327 224.049C195.498 224.195 195.522 224.438 195.376 224.608C195.327 224.681 195.278 224.706 195.181 224.73L192.819 225.411C192.746 224.389 192.99 223.343 193.525 222.443ZM195.522 226.141L193.111 226.555C193.452 227.528 194.134 228.38 194.986 228.939L195.912 226.701C195.96 226.628 195.96 226.531 195.936 226.458C195.912 226.263 195.717 226.141 195.522 226.141ZM198.639 229.572C198.298 229.645 197.957 229.694 197.592 229.694C197.08 229.694 196.545 229.596 196.058 229.45L197.251 227.285C197.373 227.139 197.567 227.09 197.738 227.188C197.811 227.236 197.86 227.285 197.933 227.358L199.101 229.475C198.955 229.499 198.809 229.523 198.639 229.572ZM200.148 228.915C200.733 228.55 201.244 228.039 201.609 227.455C201.804 227.188 201.95 226.871 202.072 226.531L199.637 226.117C199.564 226.117 199.491 226.141 199.418 226.166C199.248 226.239 199.15 226.433 199.199 226.628L200.148 228.915Z" fill="white"/>
<path d="M197.294 244C191.811 244 187.385 245.576 187.294 247.545C187.295 247.566 187.295 247.586 187.294 247.607C187.294 247.834 187.431 248.126 187.88 248.488C188.328 248.849 189.054 249.222 189.969 249.533C191.801 250.154 194.405 250.557 197.294 250.557C200.182 250.557 202.786 250.154 204.618 249.533C205.533 249.222 206.259 248.849 206.707 248.488C207.156 248.126 207.294 247.834 207.294 247.607C207.294 247.593 207.294 247.579 207.294 247.566C207.232 245.587 202.795 244 197.294 244ZM187.294 249.666V254.43C187.295 254.451 187.295 254.471 187.294 254.492C187.294 254.719 187.431 255.012 187.88 255.373C188.328 255.734 189.054 256.107 189.969 256.418C191.801 257.04 194.405 257.443 197.294 257.443C200.182 257.443 202.786 257.04 204.618 256.418C205.533 256.107 206.259 255.734 206.707 255.373C207.156 255.012 207.293 254.719 207.293 254.492V254.451V249.666C206.692 250.108 205.922 250.472 205.008 250.783C202.999 251.465 200.291 251.869 197.294 251.869C194.296 251.869 191.588 251.465 189.579 250.783C188.665 250.472 187.895 250.108 187.294 249.666ZM187.294 256.551V260.988C187.295 261.008 187.295 261.029 187.294 261.049C187.294 261.277 187.431 261.569 187.88 261.93C188.328 262.292 189.054 262.665 189.969 262.975C191.801 263.597 194.405 264 197.294 264C200.182 264 202.786 263.597 204.618 262.975C205.533 262.665 206.259 262.292 206.707 261.93C207.156 261.569 207.293 261.277 207.293 261.049V261.008V256.551C206.692 256.993 205.922 257.358 205.008 257.668C202.999 258.35 200.291 258.754 197.294 258.754C194.296 258.754 191.588 258.35 189.579 257.668C188.665 257.358 187.895 256.993 187.294 256.551Z" fill="#44BB66"/>
<path d="M195.554 275.947C194.984 275.401 194.461 274.934 194.01 274.554C196.921 273.543 200.136 273.93 202.723 275.602C201.171 275.639 199.631 275.892 198.149 276.355C197.866 275.947 197.429 275.672 196.939 275.595C196.449 275.518 195.948 275.645 195.554 275.947ZM192.992 283.072C194.261 284.285 195.745 285.252 197.368 285.921C198.526 286.388 199.751 286.667 200.996 286.749C201.07 286.372 201.263 286.03 201.547 285.771C200.49 283.355 199.095 281.102 197.404 279.078C196.671 279.413 195.804 279.221 195.281 278.607C194.902 278.863 194.538 279.142 194.192 279.442C193.674 279.897 193.197 280.396 192.766 280.934C193.305 281.516 193.397 282.382 192.992 283.064V283.072ZM203.753 276.378C201.958 276.327 200.168 276.566 198.45 277.087C198.557 277.637 198.397 278.205 198.018 278.619C199.723 280.666 201.134 282.939 202.212 285.375C202.395 285.317 202.586 285.287 202.779 285.288C203.23 285.288 203.665 285.456 203.998 285.759C205.06 285.124 206.16 284.557 207.294 284.061C207.294 284.061 207.294 284.033 207.294 284.018C207.304 281.069 206.01 278.267 203.757 276.362L203.753 276.378ZM201.547 288.459C198.972 290.64 197.816 292.761 197.321 294C199.472 294.002 201.566 293.307 203.289 292.021C203.15 290.979 202.939 289.947 202.66 288.934C202.245 288.903 201.853 288.731 201.551 288.447L201.547 288.459ZM201.258 287.802C201.206 287.702 201.15 287.606 201.087 287.513C199.728 287.427 198.391 287.127 197.127 286.622C195.412 285.92 193.841 284.908 192.493 283.638C192.052 283.954 191.49 284.052 190.968 283.903C190.09 285.869 189.551 287.971 189.376 290.117C191.132 292.352 193.745 293.749 196.58 293.968C197.059 292.638 198.089 290.244 201.258 287.802ZM204.513 286.507C204.58 286.698 204.613 286.899 204.612 287.101C204.612 287.16 204.612 287.216 204.612 287.275C204.543 287.972 204.082 288.569 203.424 288.811C203.659 289.676 203.846 290.553 203.983 291.439C205.859 289.755 207.028 287.423 207.254 284.912C206.298 285.347 205.367 285.836 204.466 286.377C204.484 286.419 204.5 286.463 204.513 286.507ZM189.582 282.153C189.583 281.704 189.751 281.271 190.053 280.938C189.567 280.28 189.117 279.596 188.707 278.888C186.823 282.044 186.823 285.979 188.707 289.135C188.936 287.206 189.458 285.323 190.255 283.55C189.829 283.205 189.581 282.686 189.582 282.137V282.153ZM190.687 280.475C191.148 280.275 191.671 280.275 192.133 280.475C192.6 279.892 193.119 279.352 193.681 278.86C194.069 278.522 194.478 278.209 194.905 277.922C194.757 277.461 194.81 276.96 195.051 276.541C194.343 275.856 193.705 275.306 193.194 274.886C191.596 275.606 190.214 276.732 189.186 278.152C189.638 278.945 190.139 279.709 190.687 280.439V280.475Z" fill="#A048F8"/>
<path d="M259.568 219H220.932C219.865 219 219 219.56 219 220.25C219 220.94 219.865 221.5 220.932 221.5H259.568C260.635 221.5 261.5 220.94 261.5 220.25C261.5 219.56 260.635 219 259.568 219Z" fill="#9B9B9B"/>
<path d="M220.875 229H239.625C240.66 229 241.5 228.44 241.5 227.75C241.5 227.06 240.66 226.5 239.625 226.5H220.875C219.84 226.5 219 227.06 219 227.75C219 228.44 219.84 229 220.875 229Z" fill="#9B9B9B"/>
<path d="M259.568 249H220.932C219.865 249 219 249.56 219 250.25C219 250.94 219.865 251.5 220.932 251.5H259.568C260.635 251.5 261.5 250.94 261.5 250.25C261.5 249.56 260.635 249 259.568 249Z" fill="#9B9B9B"/>
<path d="M220.875 259H247.125C248.16 259 249 258.44 249 257.75C249 257.06 248.16 256.5 247.125 256.5H220.875C219.84 256.5 219 257.06 219 257.75C219 258.44 219.84 259 220.875 259Z" fill="#9B9B9B"/>
<path d="M259.568 279H220.932C219.865 279 219 279.56 219 280.25C219 280.94 219.865 281.5 220.932 281.5H259.568C260.635 281.5 261.5 280.94 261.5 280.25C261.5 279.56 260.635 279 259.568 279Z" fill="#9B9B9B"/>
<path d="M259.568 286.5H220.932C219.865 286.5 219 287.06 219 287.75C219 288.44 219.865 289 220.932 289H259.568C260.635 289 261.5 288.44 261.5 287.75C261.5 287.06 260.635 286.5 259.568 286.5Z" fill="#9B9B9B"/>
<path d="M133.355 57.7966V159.463C133.355 162.202 131.191 164.422 128.521 164.422H31.8343C29.1644 164.422 27 162.202 27 159.463V37.9593C27 35.2204 29.1644 33 31.8343 33H109.183" fill="white"/>
<path d="M133.355 57.7966V159.463C133.355 162.202 131.191 164.422 128.521 164.422H31.8343C29.1644 164.422 27 162.202 27 159.463V37.9593C27 35.2204 29.1644 33 31.8343 33H109.183" stroke="#E5E5E5" stroke-width="2.10752"/>
<path d="M133.355 57.7966H111.653C110.289 57.7966 109.183 56.6908 109.183 55.3268V33" fill="#D8D8D8"/>
<path d="M133.355 57.7966H111.653C110.289 57.7966 109.183 56.6908 109.183 55.3268V33" fill="#E5E5E5"/>
<path d="M43.0686 57.2653H72.7337" stroke="#E5E5E5" stroke-width="2.70967" stroke-linecap="round"/>
<path d="M42.4946 49.2949H68.3192" stroke="#E5E5E5" stroke-width="2.03225" stroke-linecap="round" stroke-dasharray="4.06 4.06"/>
<path d="M43.0686 65.2356H85.8005" stroke="#E5E5E5" stroke-width="2.70967" stroke-linecap="round"/>
<path d="M43.0686 73.2059H50.838" stroke="#C5C5C5" stroke-width="2.70967" stroke-linecap="round"/>
<path d="M55.7822 73.2059H74.6761" stroke="#E5E5E5" stroke-width="2.70967" stroke-linecap="round"/>
<path d="M46.2468 81.1763H63.5515" stroke="#C5C5C5" stroke-width="2.70967" stroke-linecap="round"/>
<path d="M68.4958 81.1763H71.4977" stroke="#E5E5E5" stroke-width="2.70967" stroke-linecap="round"/>
<path d="M46.2468 89.1466H60.3731" stroke="#C5C5C5" stroke-width="2.70967" stroke-linecap="round"/>
<path d="M65.3174 89.1466H98.5141" stroke="#E5E5E5" stroke-width="2.70967" stroke-linecap="round"/>
<path d="M46.2468 97.1169H53.31" stroke="#C5C5C5" stroke-width="2.70967" stroke-linecap="round"/>
<path d="M58.7839 97.1169H84.2112" stroke="#E5E5E5" stroke-width="2.70967" stroke-linecap="round"/>
<path d="M49.4253 105.087H72.7336" stroke="#C5C5C5" stroke-width="2.70967" stroke-linecap="round"/>
<path d="M77.8545 105.087H88.9789" stroke="#E5E5E5" stroke-width="2.70967" stroke-linecap="round"/>
<path d="M52.6038 113.058H63.5516" stroke="#C5C5C5" stroke-width="2.70967" stroke-linecap="round"/>
<path d="M68.3191 113.058H71.4975" stroke="#E5E5E5" stroke-width="2.70967" stroke-linecap="round"/>
<path d="M43.0686 121.028H50.838" stroke="#C5C5C5" stroke-width="2.70967" stroke-linecap="round"/>
<path d="M55.7822 121.028H74.6761" stroke="#E5E5E5" stroke-width="2.70967" stroke-linecap="round"/>
<path d="M46.2468 128.998H63.5515" stroke="#C5C5C5" stroke-width="2.70967" stroke-linecap="round"/>
<path d="M68.4958 128.998H71.4977" stroke="#E5E5E5" stroke-width="2.70967" stroke-linecap="round"/>
<path d="M46.2468 136.969H60.3731" stroke="#C5C5C5" stroke-width="2.70967" stroke-linecap="round"/>
<path d="M65.3174 136.969H98.5141" stroke="#E5E5E5" stroke-width="2.70967" stroke-linecap="round"/>
<path d="M46.2468 144.939H53.31" stroke="#C5C5C5" stroke-width="2.70967" stroke-linecap="round"/>
<path d="M58.7839 144.939H84.2112" stroke="#E5E5E5" stroke-width="2.70967" stroke-linecap="round"/>
<path d="M152.061 65.5567V167.223C152.061 169.962 149.896 172.182 147.226 172.182H50.5399C47.87 172.182 45.7056 169.962 45.7056 167.223V45.7194C45.7056 42.9804 47.87 40.7601 50.5399 40.7601H127.889" fill="white"/>
<path d="M152.061 65.5567V167.223C152.061 169.962 149.896 172.182 147.226 172.182H50.5399C47.87 172.182 45.7056 169.962 45.7056 167.223V45.7194C45.7056 42.9804 47.87 40.7601 50.5399 40.7601H127.889" stroke="#C5C5C5" stroke-width="2.10752"/>
<path d="M152.061 65.5567H130.359C128.995 65.5567 127.889 64.4509 127.889 63.0868V40.7601" fill="#D8D8D8"/>
<path d="M152.061 65.5567H130.359C128.995 65.5567 127.889 64.4509 127.889 63.0868V40.7601" fill="#C5C5C5"/>
<path d="M61.7742 65.0253H91.4393" stroke="#C5C5C5" stroke-width="2.70967" stroke-linecap="round"/>
<path d="M61.2002 57.055H87.0248" stroke="#C5C5C5" stroke-width="2.03225" stroke-linecap="round" stroke-dasharray="4.06 4.06"/>
<path d="M61.7742 72.9957H104.506" stroke="#C5C5C5" stroke-width="2.70967" stroke-linecap="round"/>
<path d="M61.7742 80.966H69.5436" stroke="#9B9B9B" stroke-width="2.70967" stroke-linecap="round"/>
<path d="M74.4878 80.966H93.3817" stroke="#C5C5C5" stroke-width="2.70967" stroke-linecap="round"/>
<path d="M64.9524 88.9363H82.2571" stroke="#9B9B9B" stroke-width="2.70967" stroke-linecap="round"/>
<path d="M87.2014 88.9363H90.2032" stroke="#C5C5C5" stroke-width="2.70967" stroke-linecap="round"/>
<path d="M64.9524 96.9067H79.0786" stroke="#9B9B9B" stroke-width="2.70967" stroke-linecap="round"/>
<path d="M84.0229 96.9067H117.22" stroke="#C5C5C5" stroke-width="2.70967" stroke-linecap="round"/>
<path d="M64.9524 104.877H72.0155" stroke="#9B9B9B" stroke-width="2.70967" stroke-linecap="round"/>
<path d="M77.4895 104.877H102.917" stroke="#C5C5C5" stroke-width="2.70967" stroke-linecap="round"/>
<path d="M68.1309 112.847H91.4392" stroke="#9B9B9B" stroke-width="2.70967" stroke-linecap="round"/>
<path d="M96.5601 112.847H107.684" stroke="#C5C5C5" stroke-width="2.70967" stroke-linecap="round"/>
<path d="M71.3093 120.818H82.2572" stroke="#9B9B9B" stroke-width="2.70967" stroke-linecap="round"/>
<path d="M87.0247 120.818H90.2031" stroke="#C5C5C5" stroke-width="2.70967" stroke-linecap="round"/>
<path d="M61.7742 128.788H69.5436" stroke="#9B9B9B" stroke-width="2.70967" stroke-linecap="round"/>
<path d="M74.4878 128.788H93.3817" stroke="#C5C5C5" stroke-width="2.70967" stroke-linecap="round"/>
<path d="M64.9524 136.758H82.2571" stroke="#9B9B9B" stroke-width="2.70967" stroke-linecap="round"/>
<path d="M87.2014 136.758H90.2032" stroke="#C5C5C5" stroke-width="2.70967" stroke-linecap="round"/>
<path d="M64.9524 144.729H79.0786" stroke="#9B9B9B" stroke-width="2.70967" stroke-linecap="round"/>
<path d="M84.0229 144.729H117.22" stroke="#C5C5C5" stroke-width="2.70967" stroke-linecap="round"/>
<path d="M64.9524 152.699H72.0155" stroke="#9B9B9B" stroke-width="2.70967" stroke-linecap="round"/>
<path d="M77.4895 152.699H102.917" stroke="#C5C5C5" stroke-width="2.70967" stroke-linecap="round"/>
<g filter="url(#filter0_d)">
<path d="M143.294 83.5536C153.397 83.5536 161.587 75.3708 161.587 65.2768C161.587 55.1828 153.397 47 143.294 47C133.19 47 125 55.1828 125 65.2768C125 75.3708 133.19 83.5536 143.294 83.5536Z" fill="white"/>
</g>
<path fill-rule="evenodd" clip-rule="evenodd" d="M152.137 59.2906C152.015 58.9013 151.723 58.585 151.358 58.3904L143.931 54.838C143.736 54.7407 143.517 54.7164 143.322 54.7164C143.128 54.7164 142.908 54.7164 142.714 54.765L135.287 58.3417C134.922 58.512 134.654 58.8283 134.556 59.242L132.73 67.2469C132.657 67.6606 132.754 68.0742 132.998 68.4148L138.136 74.7653C138.428 75.0573 138.842 75.2519 139.256 75.2762H147.438C147.876 75.3249 148.29 75.1303 148.558 74.7653L153.696 68.4148C153.939 68.0742 154.036 67.6606 153.988 67.2469L152.137 59.2906Z" fill="#326DE6"/>
<path fill-rule="evenodd" clip-rule="evenodd" d="M150.993 66.9306C150.968 66.9306 150.944 66.9306 150.944 66.9062C150.944 66.8819 150.895 66.8819 150.847 66.8819C150.749 66.8576 150.652 66.8576 150.554 66.8576C150.506 66.8576 150.457 66.8576 150.408 66.8332H150.384C150.116 66.8089 149.824 66.7602 149.556 66.6872C149.483 66.6629 149.41 66.5899 149.386 66.5169L149.191 66.4683C149.288 65.7627 149.239 65.0327 149.093 64.3271C148.923 63.6215 148.631 62.9402 148.241 62.332L148.387 62.186V62.1616C148.387 62.0886 148.412 61.9913 148.46 61.9427C148.679 61.748 148.899 61.602 149.142 61.456L149.288 61.383C149.337 61.3587 149.379 61.3344 149.422 61.3101L149.422 61.31L149.422 61.31L149.422 61.31C149.465 61.2857 149.507 61.2614 149.556 61.237C149.568 61.2249 149.58 61.2188 149.593 61.2127C149.605 61.2066 149.617 61.2006 149.629 61.1884C149.644 61.1733 149.641 61.1676 149.636 61.1597C149.633 61.1548 149.629 61.149 149.629 61.1397C149.848 60.9694 149.897 60.6774 149.726 60.4585C149.653 60.3611 149.507 60.2881 149.386 60.2881C149.264 60.2881 149.142 60.3368 149.045 60.4098L149.02 60.4341C148.996 60.4585 148.972 60.4828 148.947 60.4828L148.947 60.4828C148.874 60.5558 148.801 60.6288 148.752 60.7018C148.735 60.7357 148.707 60.7578 148.683 60.7763C148.672 60.7844 148.662 60.7917 148.655 60.7991C148.485 60.9937 148.265 61.1884 148.046 61.3344C147.998 61.3587 147.949 61.383 147.9 61.383C147.876 61.383 147.827 61.383 147.803 61.3587H147.778L147.584 61.4804C147.486 61.3831 147.383 61.2857 147.279 61.1884L147.279 61.1884L147.279 61.1883C147.176 61.091 147.072 60.9937 146.975 60.8964C146.074 60.1908 144.954 59.7528 143.809 59.6312L143.785 59.4365V59.4609C143.712 59.4122 143.688 59.3392 143.663 59.2662C143.663 58.9986 143.663 58.7309 143.712 58.439V58.4146C143.712 58.3903 143.718 58.366 143.724 58.3416L143.724 58.3416C143.73 58.3173 143.736 58.293 143.736 58.2686C143.748 58.22 143.755 58.1713 143.761 58.1227L143.761 58.1227C143.767 58.074 143.773 58.0253 143.785 57.9767V57.8307C143.809 57.5874 143.615 57.3441 143.371 57.3197C143.225 57.2954 143.079 57.3684 142.957 57.49C142.86 57.5874 142.811 57.709 142.811 57.8307V57.9523C142.811 58.0497 142.835 58.147 142.86 58.2443C142.884 58.293 142.884 58.3416 142.884 58.3903V58.4146C142.933 58.6823 142.933 58.9499 142.933 59.2419C142.908 59.3149 142.884 59.3879 142.811 59.4365V59.4852L142.787 59.6799C142.557 59.7007 142.328 59.7393 142.084 59.7805L142.084 59.7805L141.959 59.8015C140.814 60.0448 139.767 60.6531 138.964 61.5047L138.818 61.4074H138.793C138.783 61.4074 138.773 61.4115 138.761 61.4164C138.745 61.4233 138.724 61.4317 138.696 61.4317C138.647 61.4317 138.598 61.4074 138.55 61.383C138.331 61.2127 138.111 61.0181 137.941 60.8234C137.924 60.7895 137.895 60.7674 137.871 60.7489C137.861 60.7408 137.851 60.7335 137.844 60.7261C137.807 60.6896 137.777 60.6531 137.746 60.6166C137.716 60.5801 137.685 60.5436 137.649 60.5071C137.637 60.4949 137.624 60.4889 137.612 60.4828C137.6 60.4767 137.588 60.4706 137.576 60.4585L137.551 60.4341C137.454 60.3611 137.332 60.3125 137.21 60.3125C137.064 60.3125 136.943 60.3611 136.87 60.4828C136.723 60.7018 136.772 60.9937 136.967 61.1641C136.991 61.1641 136.991 61.1884 136.991 61.1884C136.991 61.1884 137.04 61.237 137.064 61.237C137.137 61.2857 137.235 61.3344 137.332 61.383L137.478 61.456C137.722 61.602 137.965 61.748 138.16 61.9427C138.205 61.9871 138.249 62.0721 138.238 62.142L138.233 62.1373V62.1616C138.235 62.1553 138.237 62.1487 138.238 62.142L138.379 62.2833C138.367 62.3076 138.355 62.3259 138.343 62.3441L138.343 62.3441C138.331 62.3624 138.318 62.3806 138.306 62.4049C137.551 63.5972 137.235 65.0084 137.454 66.3953L137.259 66.4439C137.259 66.4683 137.235 66.4683 137.235 66.4683C137.21 66.5413 137.137 66.5899 137.064 66.6386C136.797 66.7116 136.529 66.7602 136.236 66.7846C136.188 66.7846 136.139 66.7846 136.09 66.8089C136.042 66.8089 135.993 66.815 135.944 66.8211C135.896 66.8271 135.847 66.8332 135.798 66.8332C135.788 66.8332 135.778 66.8374 135.766 66.8423C135.749 66.8492 135.729 66.8576 135.701 66.8576C135.676 66.8576 135.676 66.8576 135.652 66.8819C135.384 66.9306 135.214 67.1739 135.262 67.4415C135.311 67.6605 135.53 67.8065 135.749 67.7821C135.798 67.7821 135.822 67.7821 135.871 67.7578C135.896 67.7578 135.896 67.7578 135.896 67.7335C135.896 67.7165 135.931 67.7232 135.961 67.7288L135.961 67.7288C135.974 67.7313 135.986 67.7335 135.993 67.7335C136.054 67.7182 136.115 67.6933 136.17 67.6709C136.203 67.6576 136.234 67.6452 136.261 67.6362C136.31 67.6118 136.358 67.5875 136.407 67.5875H136.431C136.699 67.4902 136.943 67.4172 137.235 67.3685H137.259C137.332 67.3685 137.405 67.3928 137.454 67.4415C137.478 67.4415 137.478 67.4658 137.478 67.4658L137.697 67.4415C138.063 68.5607 138.745 69.5583 139.694 70.2883C139.913 70.4586 140.108 70.6046 140.352 70.7262L140.23 70.8965C140.23 70.9209 140.254 70.9209 140.254 70.9209C140.303 70.9939 140.303 71.0912 140.279 71.1642C140.181 71.4075 140.035 71.6508 139.889 71.8698V71.8941C139.865 71.9428 139.84 71.9671 139.792 72.0158C139.764 72.0431 139.737 72.0858 139.705 72.1352C139.681 72.1737 139.653 72.2164 139.621 72.2591C139.609 72.2712 139.603 72.2834 139.597 72.2956C139.591 72.3077 139.585 72.3199 139.572 72.3321C139.572 72.3321 139.572 72.3564 139.548 72.3564C139.426 72.5997 139.524 72.8917 139.743 73.0134C139.792 73.0377 139.865 73.062 139.913 73.062C140.108 73.062 140.279 72.9404 140.376 72.77C140.376 72.77 140.376 72.7457 140.4 72.7457C140.4 72.7214 140.425 72.697 140.449 72.6727C140.461 72.6241 140.479 72.5815 140.498 72.5389C140.516 72.4963 140.534 72.4537 140.546 72.4051L140.595 72.2591C140.668 71.9914 140.79 71.7481 140.912 71.5048C140.96 71.4318 141.033 71.3832 141.106 71.3588C141.131 71.3588 141.131 71.3588 141.131 71.3345L141.228 71.1398C141.91 71.4075 142.616 71.5291 143.347 71.5291C143.785 71.5291 144.223 71.4805 144.662 71.3588C144.861 71.3226 145.061 71.2592 145.251 71.1991L145.251 71.1991C145.315 71.1786 145.379 71.1584 145.441 71.1398L145.538 71.3102H145.538C145.55 71.3102 145.556 71.3102 145.56 71.3132C145.563 71.3163 145.563 71.3223 145.563 71.3345C145.636 71.3588 145.709 71.4075 145.757 71.4805L145.757 71.4805C145.879 71.7238 146.001 71.9671 146.074 72.2348V72.2591L146.123 72.4051C146.147 72.5024 146.171 72.5997 146.22 72.6727C146.232 72.6849 146.238 72.697 146.244 72.7092C146.25 72.7214 146.257 72.7335 146.269 72.7457C146.269 72.7457 146.269 72.77 146.293 72.77C146.39 72.9404 146.561 73.062 146.756 73.062C146.814 73.062 146.856 73.0468 146.908 73.0284C146.921 73.0235 146.935 73.0184 146.951 73.0134C147.048 72.9647 147.145 72.8674 147.17 72.7457C147.194 72.6241 147.194 72.5024 147.145 72.3807C147.145 72.3564 147.121 72.3564 147.121 72.3564C147.121 72.3321 147.097 72.3077 147.072 72.2834C147.024 72.1861 146.975 72.1131 146.902 72.0401C146.877 71.9914 146.853 71.9671 146.804 71.9185L146.804 71.9184V71.8698C146.634 71.6508 146.512 71.4075 146.415 71.1642C146.39 71.0912 146.39 70.9939 146.439 70.9209C146.439 70.8965 146.464 70.8965 146.464 70.8965L146.39 70.7019C147.632 69.9476 148.582 68.7797 149.02 67.3928L149.215 67.4172C149.239 67.4172 149.239 67.3928 149.239 67.3928C149.288 67.3442 149.361 67.3199 149.434 67.3199H149.459C149.726 67.3685 149.994 67.4415 150.238 67.5388H150.262L150.262 67.5388C150.311 67.5632 150.36 67.5875 150.408 67.5875C150.433 67.6001 150.457 67.6126 150.48 67.6248L150.48 67.6248C150.545 67.6597 150.604 67.6911 150.676 67.7092C150.686 67.7092 150.696 67.7133 150.708 67.7182C150.725 67.7251 150.745 67.7335 150.774 67.7335C150.798 67.7335 150.798 67.7335 150.822 67.7578L150.822 67.7578C150.871 67.7821 150.895 67.7821 150.944 67.7821C151.163 67.7821 151.358 67.6362 151.431 67.4415C151.407 67.1739 151.212 66.9792 150.993 66.9306ZM143.955 66.1764L143.298 66.4927L142.641 66.1764L142.47 65.4708L142.933 64.8868H143.663L144.126 65.4708L143.955 66.1764ZM148.022 66.1277C148.071 65.6168 148.046 65.1058 147.925 64.5949C147.803 64.0839 147.608 63.5973 147.34 63.1593L145.514 64.8138C145.465 64.8625 145.441 64.9112 145.416 64.9842C145.368 65.2031 145.49 65.4221 145.709 65.4708L148.022 66.1277ZM146.61 62.2591L144.613 63.6703C144.442 63.7676 144.199 63.7433 144.077 63.5729C144.028 63.5243 144.004 63.4756 144.004 63.4026L143.858 60.9452C144.929 61.0668 145.879 61.5291 146.61 62.2591ZM142.689 60.9209L142.202 61.0182C141.35 61.2129 140.571 61.6508 139.938 62.2591L141.959 63.6946C141.974 63.6997 141.988 63.7048 142.002 63.7097C142.053 63.7281 142.096 63.7433 142.154 63.7433C142.373 63.7433 142.568 63.573 142.568 63.354L142.689 60.9209ZM139.232 63.1593L141.033 64.7652C141.204 64.9112 141.228 65.1545 141.082 65.3248C141.033 65.3978 140.985 65.4221 140.887 65.4465L138.525 66.1277C138.452 65.1058 138.696 64.0596 139.232 63.1593ZM141.228 66.8577L138.818 67.2713C139.158 68.2446 139.84 69.0962 140.693 69.6558L141.618 67.4173C141.667 67.3443 141.667 67.247 141.642 67.174C141.618 66.9793 141.423 66.8577 141.228 66.8577ZM144.345 70.2884C144.004 70.3614 143.663 70.4101 143.298 70.4101C142.787 70.4101 142.251 70.3128 141.764 70.1668L142.957 68.0013C143.079 67.8553 143.274 67.8067 143.444 67.904C143.517 67.9527 143.566 68.0013 143.639 68.0743L144.808 70.1911C144.662 70.2155 144.516 70.2398 144.345 70.2884ZM145.855 69.6314C146.439 69.2665 146.951 68.7555 147.316 68.1716C147.511 67.9039 147.657 67.5876 147.778 67.247L145.343 66.8333C145.27 66.8333 145.197 66.8577 145.124 66.882C144.954 66.955 144.856 67.1496 144.905 67.3443L145.855 69.6314Z" fill="white"/>
<g filter="url(#filter1_d)">
<path d="M143.294 125.554C153.397 125.554 161.587 117.371 161.587 107.277C161.587 97.1828 153.397 89 143.294 89C133.19 89 125 97.1828 125 107.277C125 117.371 133.19 125.554 143.294 125.554Z" fill="white"/>
</g>
<path d="M143 97C137.517 97 133.091 98.5759 133 100.545C133.001 100.566 133.001 100.586 133 100.607C133 100.834 133.137 101.126 133.586 101.488C134.035 101.849 134.76 102.222 135.676 102.533C137.507 103.154 140.111 103.557 143 103.557C145.889 103.557 148.493 103.154 150.324 102.533C151.24 102.222 151.965 101.849 152.414 101.488C152.862 101.126 153 100.834 153 100.607C153 100.593 153 100.579 153 100.566C152.939 98.5868 148.501 97 143 97ZM133 102.666V107.43C133.001 107.451 133.001 107.471 133 107.492C133 107.719 133.137 108.012 133.586 108.373C134.035 108.734 134.76 109.107 135.676 109.418C137.507 110.04 140.111 110.443 143 110.443C145.889 110.443 148.493 110.04 150.324 109.418C151.24 109.107 151.965 108.734 152.414 108.373C152.862 108.012 153 107.719 153 107.492V107.451V102.666C152.398 103.108 151.629 103.472 150.715 103.783C148.705 104.465 145.997 104.869 143 104.869C140.003 104.869 137.295 104.465 135.285 103.783C134.371 103.472 133.601 103.108 133 102.666ZM133 109.551V113.988C133.001 114.008 133.001 114.029 133 114.049C133 114.277 133.137 114.569 133.586 114.93C134.035 115.292 134.76 115.665 135.676 115.975C137.507 116.597 140.111 117 143 117C145.889 117 148.493 116.597 150.324 115.975C151.24 115.665 151.965 115.292 152.414 114.93C152.862 114.569 153 114.277 153 114.049V114.008V109.551C152.398 109.993 151.629 110.358 150.715 110.668C148.705 111.35 145.997 111.754 143 111.754C140.003 111.754 137.295 111.35 135.285 110.668C134.371 110.358 133.601 109.993 133 109.551Z" fill="#44BB66"/>
<g filter="url(#filter2_d)">
<path d="M143.294 167.554C153.397 167.554 161.587 159.371 161.587 149.277C161.587 139.183 153.397 131 143.294 131C133.19 131 125 139.183 125 149.277C125 159.371 133.19 167.554 143.294 167.554Z" fill="white"/>
</g>
<path d="M141.261 140.947C140.69 140.401 140.168 139.934 139.716 139.554C142.627 138.543 145.842 138.93 148.429 140.602C146.877 140.639 145.337 140.892 143.855 141.355C143.573 140.947 143.135 140.672 142.645 140.595C142.155 140.518 141.655 140.645 141.261 140.947ZM138.698 148.072C139.967 149.285 141.451 150.252 143.075 150.921C144.232 151.388 145.457 151.667 146.703 151.749C146.777 151.372 146.97 151.03 147.253 150.771C146.196 148.355 144.801 146.102 143.11 144.078C142.377 144.413 141.51 144.221 140.987 143.607C140.608 143.863 140.244 144.142 139.898 144.442C139.38 144.897 138.903 145.396 138.473 145.934C139.011 146.516 139.103 147.382 138.698 148.064V148.072ZM149.459 141.378C147.665 141.327 145.874 141.566 144.156 142.087C144.264 142.637 144.103 143.205 143.724 143.619C145.429 145.666 146.841 147.939 147.918 150.375C148.102 150.317 148.293 150.287 148.485 150.288C148.936 150.288 149.371 150.456 149.705 150.759C150.766 150.124 151.867 149.557 153 149.061C153 149.061 153 149.033 153 149.018C153.011 146.069 151.716 143.267 149.463 141.362L149.459 141.378ZM147.253 153.459C144.679 155.64 143.522 157.761 143.027 159C145.178 159.002 147.272 158.307 148.996 157.021C148.856 155.979 148.646 154.947 148.366 153.934C147.951 153.903 147.56 153.731 147.257 153.447L147.253 153.459ZM146.964 152.802C146.913 152.702 146.856 152.606 146.794 152.513C145.435 152.427 144.098 152.127 142.833 151.622C141.118 150.92 139.547 149.908 138.199 148.638C137.758 148.954 137.197 149.052 136.674 148.903C135.796 150.869 135.258 152.971 135.082 155.117C136.839 157.352 139.452 158.749 142.287 158.968C142.766 157.638 143.796 155.244 146.964 152.802ZM150.22 151.507C150.286 151.698 150.32 151.899 150.319 152.101C150.319 152.16 150.319 152.216 150.319 152.275C150.25 152.972 149.788 153.569 149.13 153.811C149.366 154.676 149.552 155.553 149.689 156.439C151.565 154.755 152.734 152.423 152.96 149.912C152.004 150.347 151.073 150.836 150.172 151.377C150.19 151.419 150.206 151.463 150.22 151.507ZM135.288 147.153C135.289 146.704 135.457 146.271 135.76 145.938C135.273 145.28 134.824 144.596 134.413 143.888C132.529 147.044 132.529 150.979 134.413 154.135C134.642 152.206 135.164 150.323 135.962 148.55C135.535 148.205 135.288 147.686 135.288 147.137V147.153ZM136.393 145.475C136.854 145.275 137.378 145.275 137.839 145.475C138.307 144.892 138.825 144.352 139.387 143.86C139.775 143.522 140.184 143.209 140.611 142.922C140.463 142.461 140.516 141.96 140.758 141.541C140.049 140.856 139.411 140.306 138.9 139.886C137.302 140.606 135.92 141.732 134.892 143.152C135.344 143.945 135.846 144.709 136.393 145.439V145.475Z" fill="#A048F8"/>
<path d="M249.136 50.818L249.145 50.8277L249.153 50.8371L261.999 64.3828L261.882 152.139C261.882 152.297 261.753 152.425 261.595 152.425H170.287C170.128 152.425 170 152.297 170 152.138V34.2552C170 34.096 170.13 33.9673 170.289 33.9686L234.431 34.4811L249.136 50.818ZM234.389 34.4346L234.39 34.4352C234.39 34.435 234.389 34.4348 234.389 34.4345L234.495 34.3394L234.389 34.4346Z" fill="white" stroke="#E5E5E5" stroke-width="2"/>
<path d="M231.971 34.9295V65.5226C231.971 65.9964 232.355 66.3804 232.828 66.3804H260.413" stroke="#E5E5E5" stroke-width="2" stroke-dasharray="1.12 1.12"/>
<path d="M183.908 52.205H208.427" stroke="#E5E5E5" stroke-width="2" stroke-linecap="round"/>
<path d="M191.362 64.5218H215.881" stroke="#E5E5E5" stroke-width="2" stroke-linecap="round"/>
<path d="M191.362 76.8387H227.39" stroke="#EBB55C" stroke-width="1.23192" stroke-linecap="round"/>
<path d="M191.362 136.96H227.39" stroke="#EBB55C" stroke-width="1.23192" stroke-linecap="round"/>
<path d="M183.908 89.1556H202.543" stroke="#E5E5E5" stroke-width="2" stroke-linecap="round"/>
<path d="M191.362 101.472H205.028" stroke="#EBB55C" stroke-width="1.23192" stroke-linecap="round"/>
<path d="M191.362 113.789H211.239" stroke="#EBB55C" stroke-width="1.23192" stroke-linecap="round"/>
<path d="M266.138 60.5407L266.147 60.5503L266.156 60.5598L279.001 74.1054L278.884 161.861C278.884 162.02 278.756 162.148 278.597 162.148H187.289C187.131 162.148 187.002 162.019 187.002 161.861V43.9779C187.002 43.8187 187.132 43.69 187.291 43.6912L251.433 44.2038L266.138 60.5407ZM251.391 44.1572L251.392 44.1578C251.392 44.1576 251.392 44.1574 251.391 44.1572L251.497 44.0621L251.391 44.1572Z" fill="white" stroke="#C5C5C5" stroke-width="2"/>
<path d="M198.574 62.9703H228.239" stroke="#C5C5C5" stroke-width="2.70967" stroke-linecap="round"/>
<path d="M198 55H223.825" stroke="#C5C5C5" stroke-width="2.03225" stroke-linecap="round" stroke-dasharray="4.06 4.06"/>
<path d="M198.574 70.9407H241.306" stroke="#C5C5C5" stroke-width="2.70967" stroke-linecap="round"/>
<path d="M198.574 78.911H206.343" stroke="#9B9B9B" stroke-width="2.70967" stroke-linecap="round"/>
<path d="M211.288 78.911H230.181" stroke="#C5C5C5" stroke-width="2.70967" stroke-linecap="round"/>
<path d="M201.752 86.8813H219.057" stroke="#9B9B9B" stroke-width="2.70967" stroke-linecap="round"/>
<path d="M224.001 86.8813H227.003" stroke="#C5C5C5" stroke-width="2.70967" stroke-linecap="round"/>
<path d="M201.752 94.8517H215.878" stroke="#9B9B9B" stroke-width="2.70967" stroke-linecap="round"/>
<path d="M220.823 94.8517H254.019" stroke="#C5C5C5" stroke-width="2.70967" stroke-linecap="round"/>
<path d="M201.752 102.822H208.815" stroke="#9B9B9B" stroke-width="2.70967" stroke-linecap="round"/>
<path d="M214.289 102.822H239.717" stroke="#C5C5C5" stroke-width="2.70967" stroke-linecap="round"/>
<path d="M204.931 110.792H228.239" stroke="#9B9B9B" stroke-width="2.70967" stroke-linecap="round"/>
<path d="M233.36 110.792H244.484" stroke="#C5C5C5" stroke-width="2.70967" stroke-linecap="round"/>
<path d="M208.109 118.763H219.057" stroke="#9B9B9B" stroke-width="2.70967" stroke-linecap="round"/>
<path d="M223.824 118.763H227.003" stroke="#C5C5C5" stroke-width="2.70967" stroke-linecap="round"/>
<path d="M198.574 126.733H206.343" stroke="#9B9B9B" stroke-width="2.70967" stroke-linecap="round"/>
<path d="M211.288 126.733H230.181" stroke="#C5C5C5" stroke-width="2.70967" stroke-linecap="round"/>
<path d="M201.752 134.703H219.057" stroke="#9B9B9B" stroke-width="2.70967" stroke-linecap="round"/>
<path d="M224.001 134.703H227.003" stroke="#C5C5C5" stroke-width="2.70967" stroke-linecap="round"/>
<path d="M201.752 142.674H215.878" stroke="#9B9B9B" stroke-width="2.70967" stroke-linecap="round"/>
<path d="M220.823 142.674H254.019" stroke="#C5C5C5" stroke-width="2.70967" stroke-linecap="round"/>
<path d="M201.752 150.644H208.815" stroke="#9B9B9B" stroke-width="2.70967" stroke-linecap="round"/>
<path d="M214.289 150.644H239.717" stroke="#C5C5C5" stroke-width="2.70967" stroke-linecap="round"/>
<path d="M250.266 44.7187V75.3766C250.266 75.8504 250.65 76.2344 251.124 76.2344H278.566" stroke="#C5C5C5" stroke-width="2"/>
<rect x="200" y="83" width="60" height="8" fill="#323232"/>
<rect x="203" y="115" width="38" height="8" fill="#323232"/>
<rect x="197" y="58.6" width="38" height="8" fill="#323232"/>
<rect x="209" y="146.6" width="38" height="8" fill="#323232"/>
<path d="M205.627 87.2506L203.752 86.7867L204.055 85.8297L205.856 86.611L205.7 84.526H206.701L206.53 86.6403L208.317 85.8785L208.62 86.8502L206.716 87.2897L207.99 88.8717L207.175 89.4723L206.149 87.6705L205.134 89.4186L204.309 88.8473L205.627 87.2506ZM217.639 87.2506L215.764 86.7867L216.066 85.8297L217.868 86.611L217.712 84.526H218.713L218.542 86.6403L220.329 85.8785L220.632 86.8502L218.728 87.2897L220.002 88.8717L219.187 89.4723L218.161 87.6705L217.146 89.4186L216.32 88.8473L217.639 87.2506ZM229.65 87.2506L227.775 86.7867L228.078 85.8297L229.88 86.611L229.724 84.526H230.725L230.554 86.6403L232.341 85.8785L232.644 86.8502L230.739 87.2897L232.014 88.8717L231.198 89.4723L230.173 87.6705L229.157 89.4186L228.332 88.8473L229.65 87.2506ZM241.662 87.2506L239.787 86.7867L240.09 85.8297L241.892 86.611L241.735 84.526H242.736L242.565 86.6403L244.353 85.8785L244.655 86.8502L242.751 87.2897L244.025 88.8717L243.21 89.4723L242.185 87.6705L241.169 89.4186L240.344 88.8473L241.662 87.2506ZM253.674 87.2506L251.799 86.7867L252.102 85.8297L253.903 86.611L253.747 84.526H254.748L254.577 86.6403L256.364 85.8785L256.667 86.8502L254.763 87.2897L256.037 88.8717L255.222 89.4723L254.196 87.6705L253.181 89.4186L252.355 88.8473L253.674 87.2506Z" fill="white"/>
<rect x="200" y="99" width="60" height="8" fill="#323232"/>
<path d="M205.627 103.251L203.752 102.787L204.055 101.83L205.856 102.611L205.7 100.526H206.701L206.53 102.64L208.317 101.879L208.62 102.85L206.716 103.29L207.99 104.872L207.175 105.472L206.149 103.671L205.134 105.419L204.309 104.847L205.627 103.251ZM217.639 103.251L215.764 102.787L216.066 101.83L217.868 102.611L217.712 100.526H218.713L218.542 102.64L220.329 101.879L220.632 102.85L218.728 103.29L220.002 104.872L219.187 105.472L218.161 103.671L217.146 105.419L216.32 104.847L217.639 103.251ZM229.65 103.251L227.775 102.787L228.078 101.83L229.88 102.611L229.724 100.526H230.725L230.554 102.64L232.341 101.879L232.644 102.85L230.739 103.29L232.014 104.872L231.198 105.472L230.173 103.671L229.157 105.419L228.332 104.847L229.65 103.251ZM241.662 103.251L239.787 102.787L240.09 101.83L241.892 102.611L241.735 100.526H242.736L242.565 102.64L244.353 101.879L244.655 102.85L242.751 103.29L244.025 104.872L243.21 105.472L242.185 103.671L241.169 105.419L240.344 104.847L241.662 103.251ZM253.674 103.251L251.799 102.787L252.102 101.83L253.903 102.611L253.747 100.526H254.748L254.577 102.64L256.364 101.879L256.667 102.85L254.763 103.29L256.037 104.872L255.222 105.472L254.196 103.671L253.181 105.419L252.355 104.847L253.674 103.251Z" fill="white"/>
<path d="M208.627 119.251L206.752 118.787L207.055 117.83L208.856 118.611L208.7 116.526H209.701L209.53 118.64L211.317 117.879L211.62 118.85L209.716 119.29L210.99 120.872L210.175 121.472L209.149 119.671L208.134 121.419L207.309 120.847L208.627 119.251ZM220.639 119.251L218.764 118.787L219.066 117.83L220.868 118.611L220.712 116.526H221.713L221.542 118.64L223.329 117.879L223.632 118.85L221.728 119.29L223.002 120.872L222.187 121.472L221.161 119.671L220.146 121.419L219.32 120.847L220.639 119.251ZM232.65 119.251L230.775 118.787L231.078 117.83L232.88 118.611L232.724 116.526H233.725L233.554 118.64L235.341 117.879L235.644 118.85L233.739 119.29L235.014 120.872L234.198 121.472L233.173 119.671L232.157 121.419L231.332 120.847L232.65 119.251Z" fill="white"/>
<path d="M202.627 62.8506L200.752 62.3867L201.055 61.4297L202.856 62.2109L202.7 60.126H203.701L203.53 62.2402L205.317 61.4785L205.62 62.4502L203.716 62.8896L204.99 64.4717L204.175 65.0723L203.149 63.2705L202.134 65.0186L201.309 64.4473L202.627 62.8506ZM214.639 62.8506L212.764 62.3867L213.066 61.4297L214.868 62.2109L214.712 60.126H215.713L215.542 62.2402L217.329 61.4785L217.632 62.4502L215.728 62.8896L217.002 64.4717L216.187 65.0723L215.161 63.2705L214.146 65.0186L213.32 64.4473L214.639 62.8506ZM226.65 62.8506L224.775 62.3867L225.078 61.4297L226.88 62.2109L226.724 60.126H227.725L227.554 62.2402L229.341 61.4785L229.644 62.4502L227.739 62.8896L229.014 64.4717L228.198 65.0723L227.173 63.2705L226.157 65.0186L225.332 64.4473L226.65 62.8506Z" fill="white"/>
<path d="M214.627 150.851L212.752 150.387L213.055 149.43L214.856 150.211L214.7 148.126H215.701L215.53 150.24L217.317 149.479L217.62 150.45L215.716 150.89L216.99 152.472L216.175 153.072L215.149 151.271L214.134 153.019L213.309 152.447L214.627 150.851ZM226.639 150.851L224.764 150.387L225.066 149.43L226.868 150.211L226.712 148.126H227.713L227.542 150.24L229.329 149.479L229.632 150.45L227.728 150.89L229.002 152.472L228.187 153.072L227.161 151.271L226.146 153.019L225.32 152.447L226.639 150.851ZM238.65 150.851L236.775 150.387L237.078 149.43L238.88 150.211L238.724 148.126H239.725L239.554 150.24L241.341 149.479L241.644 150.45L239.739 150.89L241.014 152.472L240.198 153.072L239.173 151.271L238.157 153.019L237.332 152.447L238.65 150.851Z" fill="white"/>
<path fill-rule="evenodd" clip-rule="evenodd" d="M6.57143 82.2678L0.428571 76.3449C-0.142857 75.794 -0.142857 74.9675 0.428571 74.4165C1 73.8656 1.85714 73.8656 2.42857 74.4165L9.57143 81.3036C9.85714 81.5791 10 81.9923 10 82.2678C10 82.681 9.85714 83.0942 9.57143 83.3697L2.42857 90.2568C1.85714 90.8077 1 90.8077 0.428571 90.2568C-0.142857 89.7058 -0.142857 88.8793 0.428571 88.3284L6.57143 82.2678Z" fill="#326DE6"/>
<rect y="115.453" width="13.3684" height="1.57275" rx="0.786375" transform="rotate(-45 0 115.453)" fill="#4A4A4A"/>
<rect x="1.11206" y="106" width="13.3684" height="1.57275" rx="0.786375" transform="rotate(45 1.11206 106)" fill="#4A4A4A"/>
<path fill-rule="evenodd" clip-rule="evenodd" d="M5.04132 122.943L8.59504 119.257C8.92562 118.914 9.42149 118.914 9.75207 119.257C10.0826 119.6 10.0826 120.114 9.75207 120.457L5.61983 124.743C5.45455 124.914 5.20661 125 5.04132 125C4.79339 125 4.54545 124.914 4.38017 124.743L0.247934 120.457C-0.0826447 120.114 -0.0826447 119.6 0.247934 119.257C0.578512 118.914 1.07438 118.914 1.40496 119.257L5.04132 122.943Z" fill="#163166"/>
<rect y="127" width="12" height="1.5" rx="0.75" fill="#4A4A4A"/>
<rect y="131" width="12" height="1.5" rx="0.75" fill="#4A4A4A"/>
<rect y="135" width="12" height="1.5" rx="0.75" fill="#4A4A4A"/>
<path d="M152.707 15.7071C153.098 15.3166 153.098 14.6834 152.707 14.2929L146.343 7.92893C145.953 7.53841 145.319 7.53841 144.929 7.92893C144.538 8.31946 144.538 8.95262 144.929 9.34315L150.586 15L144.929 20.6569C144.538 21.0474 144.538 21.6805 144.929 22.0711C145.319 22.4616 145.953 22.4616 146.343 22.0711L152.707 15.7071ZM48 16H51.7143V14H48V16ZM59.1429 16L66.5714 16V14H59.1429V16ZM74 16L81.4286 16V14L74 14V16ZM88.8571 16L96.2857 16V14L88.8571 14V16ZM103.714 16L111.143 16V14L103.714 14V16ZM118.571 16L126 16V14L118.571 14V16ZM133.429 16L140.857 16V14L133.429 14V16ZM148.286 16H152V14H148.286V16ZM153.414 16.4142C154.195 15.6332 154.195 14.3668 153.414 13.5858L140.686 0.857864C139.905 0.0768156 138.639 0.0768156 137.858 0.857864C137.077 1.63891 137.077 2.90524 137.858 3.68629L149.172 15L137.858 26.3137C137.077 27.0948 137.077 28.3611 137.858 29.1421C138.639 29.9232 139.905 29.9232 140.686 29.1421L153.414 16.4142ZM48 17H51.7143V13H48V17ZM59.1429 17H66.5714V13H59.1429V17ZM74 17H81.4286V13H74V17ZM88.8571 17H96.2857V13L88.8571 13V17ZM103.714 17H111.143V13L103.714 13V17ZM118.571 17H126V13L118.571 13V17ZM133.429 17H140.857V13L133.429 13V17ZM148.286 17H152V13H148.286V17Z" fill="#E5E5E5"/>
<path d="M24 74H18.7013L12 80.7013L17.2987 86L24 79.2987V74ZM21.1948 76.8052C21.5391 77.1495 21.5391 77.7077 21.1948 78.0519C20.8505 78.3962 20.2923 78.3962 19.9481 78.0519C19.6038 77.7077 19.6038 77.1495 19.9481 76.8052C20.2923 76.4609 20.8505 76.4609 21.1948 76.8052Z" fill="#C5C5C5"/>
<path d="M24.3515 19.8735L30.1577 14.0716C29.7111 13.494 29.3695 12.864 29.0805 12.2076C28.6339 11.1313 28.3974 9.97613 28.3974 8.79475C28.3974 7.61336 28.6339 6.45823 29.0805 5.38186C29.5271 4.33174 30.1577 3.38663 30.9721 2.57279C31.7866 1.75895 32.7324 1.12888 33.7833 0.682578C34.8605 0.236277 36.0165 0 37.1987 0C38.381 0 39.537 0.236277 40.6141 0.682578C41.665 1.12888 42.6108 1.75895 43.4253 2.57279C44.2397 3.38663 44.8703 4.33174 45.3169 5.38186C45.7635 6.45823 46 7.61336 46 8.79475C46 9.97613 45.7635 11.1313 45.3169 12.2076C44.8703 13.2578 44.2397 14.2029 43.4253 15.0167C42.6108 15.8305 41.665 16.4606 40.6141 16.9069C39.537 17.3532 38.381 17.5895 37.1987 17.5895C36.0165 17.5895 34.8605 17.3532 33.7833 16.9069C33.1002 16.6181 32.4959 16.2506 31.9179 15.8305L26.1117 21.6325C25.8753 21.8687 25.56 22 25.2447 22C24.9295 22 24.6142 21.8687 24.3777 21.6325C23.8786 21.1337 23.8786 20.3461 24.3515 19.8735ZM37.1724 15.6205C40.9557 15.6205 44.0296 12.5489 44.0296 8.7685C44.0296 4.98807 40.9557 1.91647 37.1724 1.91647C33.3892 1.91647 30.3153 4.98807 30.3153 8.7685C30.3153 10.4224 30.8933 11.9189 31.8654 13.1002C32.1544 13.4415 32.4697 13.7828 32.8375 14.0716C34.0197 15.043 35.5435 15.6205 37.1724 15.6205Z" fill="#E5E5E5"/>
<path d="M0.351463 19.8735L6.15768 14.0716C5.71105 13.494 5.36951 12.864 5.08051 12.2076C4.63388 11.1313 4.39743 9.97613 4.39743 8.79475C4.39743 7.61336 4.63388 6.45823 5.08051 5.38186C5.52714 4.33174 6.15768 3.38663 6.97213 2.57279C7.78658 1.75895 8.73239 1.12888 9.78329 0.682578C10.8605 0.236277 12.0165 0 13.1987 0C14.381 0 15.537 0.236277 16.6141 0.682578C17.665 1.12888 18.6108 1.75895 19.4253 2.57279C20.2397 3.38663 20.8703 4.33174 21.3169 5.38186C21.7635 6.45823 22 7.61336 22 8.79475C22 9.97613 21.7635 11.1313 21.3169 12.2076C20.8703 13.2578 20.2397 14.2029 19.4253 15.0167C18.6108 15.8305 17.665 16.4606 16.6141 16.9069C15.537 17.3532 14.381 17.5895 13.1987 17.5895C12.0165 17.5895 10.8605 17.3532 9.78329 16.9069C9.1002 16.6181 8.49594 16.2506 7.91794 15.8305L2.11172 21.6325C1.87527 21.8687 1.56 22 1.24473 22C0.929459 22 0.614187 21.8687 0.377735 21.6325C-0.121443 21.1337 -0.121443 20.3461 0.351463 19.8735ZM13.1724 15.6205C16.9557 15.6205 20.0296 12.5489 20.0296 8.7685C20.0296 4.98807 16.9557 1.91647 13.1724 1.91647C9.3892 1.91647 6.31532 4.98807 6.31532 8.7685C6.31532 10.4224 6.89331 11.9189 7.8654 13.1002C8.15439 13.4415 8.46966 13.7828 8.83748 14.0716C10.0197 15.043 11.5435 15.6205 13.1724 15.6205Z" fill="#163166"/>
<path fill-rule="evenodd" clip-rule="evenodd" d="M21.1363 54.5061L23.1143 62.9359C23.1539 63.2979 23.0686 63.6596 22.8553 63.9589L17.3475 70.7071C17.233 70.8634 17.0872 70.9839 16.922 71.0587C16.7607 71.1316 16.5812 71.1604 16.3969 71.1373H7.6159C7.24971 71.1137 6.88518 70.9429 6.62418 70.6894L1.13083 63.9589C0.919266 63.662 0.833856 63.303 0.896113 62.9435L2.85243 54.4435C2.93599 54.0929 3.16458 53.8241 3.47758 53.68L11.4137 49.8914C11.5925 49.8521 11.7905 49.8549 11.967 49.8549C12.1335 49.8549 12.3225 49.871 12.4896 49.9544L20.4493 53.7284C20.7678 53.8981 21.0268 54.1691 21.1363 54.5061Z" fill="#326DE6"/>
<path fill-rule="evenodd" clip-rule="evenodd" d="M11.5091 50.1632L3.60415 53.9369L3.60229 53.9377C3.37038 54.0445 3.20072 54.2418 3.13718 54.5071C3.1371 54.5074 3.13702 54.5077 3.13695 54.5081L1.18294 62.9982C1.13645 63.2775 1.20195 63.5557 1.36558 63.7891L6.84166 70.4984C7.05334 70.6988 7.34355 70.8318 7.62617 70.8523H16.4156L16.4342 70.8547C16.5632 70.8708 16.6872 70.8508 16.7993 70.8001C16.9149 70.7479 17.0224 70.6611 17.1099 70.5415L17.1143 70.5355L22.6207 63.7891C22.7843 63.5558 22.8538 63.2727 22.8257 62.9823L20.8545 54.5819C20.7704 54.3335 20.5737 54.121 20.3152 53.9816L12.3593 50.2095L12.3567 50.2081C12.2524 50.1561 12.1202 50.1399 11.967 50.1399L11.9459 50.1399C11.7808 50.1399 11.6365 50.1398 11.5091 50.1632ZM11.9292 49.5699C11.9422 49.57 11.9548 49.57 11.967 49.57C12.1462 49.57 12.3907 49.5858 12.6198 49.6993L20.5833 53.4751L20.5894 53.4783C20.9614 53.6766 21.2785 54.0007 21.4148 54.42L21.4184 54.4312L23.403 62.8889L23.4048 62.9058C23.4512 63.3307 23.3515 63.7619 23.0952 64.1216L23.0898 64.1292L17.5805 70.8792C17.4398 71.0692 17.2574 71.2212 17.0449 71.3172C16.8401 71.4098 16.6123 71.4479 16.3795 71.4223H7.60635L7.59675 71.4216C7.15489 71.3932 6.72537 71.1898 6.41818 70.8913L6.40626 70.8798L0.896523 64.1292L0.891104 64.1216C0.636751 63.7647 0.532985 63.3305 0.60821 62.8961L0.609512 62.8886L2.56778 54.38L2.56804 54.379C2.67162 53.9444 2.95824 53.6048 3.35104 53.4232L11.3162 49.6208L11.3496 49.6135C11.5509 49.5692 11.767 49.5696 11.9292 49.5699Z" fill="white"/>
<path fill-rule="evenodd" clip-rule="evenodd" d="M11.3144 49.6216L3.35114 53.4231L3.34962 53.4238C2.9592 53.6048 2.67293 53.9375 2.5678 54.38C2.56774 54.3803 2.56767 54.3806 2.56761 54.3809L0.609625 62.8882C0.531341 63.3276 0.634877 63.7663 0.896818 64.1295L6.40584 70.8791C6.72086 71.1912 7.1688 71.3967 7.60685 71.4222H16.3787L16.3935 71.4237C16.6226 71.4464 16.8441 71.408 17.0449 71.3172C17.2469 71.2259 17.4307 71.0799 17.577 70.8839L17.5807 70.8789L23.0895 64.1295C23.3485 63.7704 23.4556 63.3322 23.4028 62.8882L21.4186 54.4317C21.2911 54.0277 20.984 53.6867 20.5831 53.4749L12.6199 49.6993L12.6179 49.6983C12.4237 49.6026 12.1938 49.5699 11.9671 49.5699C11.7299 49.5699 11.5046 49.5744 11.3144 49.6216ZM11.1331 49.079C11.4167 49.0018 11.7294 49 11.9671 49C12.2419 49 12.5728 49.0382 12.8791 49.1885L20.8493 52.9675L20.8545 52.9702C21.3791 53.2453 21.804 53.7038 21.9806 54.2763L21.9834 54.2854L23.979 62.79L23.9808 62.8044C24.0547 63.389 23.9152 63.9793 23.5613 64.4656L23.5566 64.472L18.0453 71.2246C17.8433 71.4933 17.5842 71.7015 17.2905 71.8343C17.0008 71.9653 16.6796 72.0222 16.3497 71.9921H7.59051L7.58253 71.9917C6.98315 71.9596 6.39106 71.683 5.97696 71.2663L5.96704 71.2564L0.429715 64.472L0.425061 64.4656C0.0693306 63.9769 -0.0729272 63.3789 0.0356238 62.7824L0.036777 62.7761L1.99832 54.2533L1.99852 54.2525C2.14398 53.6386 2.54846 53.1648 3.09743 52.9098L11.1073 49.086L11.1331 49.079Z" fill="#326DE6"/>
<path d="M13.0588 53.6C13.5274 53.6 13.9074 53.9883 13.9074 54.4674L13.9073 58.6599L18.0089 58.66C18.4775 58.66 18.8575 59.0483 18.8575 59.5274V62.1297C18.8575 62.6088 18.4775 62.9971 18.0089 62.9971L13.9073 62.9971L13.9074 67.1897C13.9074 67.6688 13.5274 68.0571 13.0588 68.0571H10.513C10.0444 68.0571 9.66444 67.6688 9.66444 67.1897L9.66441 62.9971L5.56294 62.9971C5.09428 62.9971 4.71436 62.6088 4.71436 62.1297V59.5274C4.71436 59.0483 5.09428 58.66 5.56294 58.66L9.66441 58.6599L9.66444 54.4674C9.66444 53.9883 10.0444 53.6 10.513 53.6H13.0588Z" fill="white"/>
<path fill-rule="evenodd" clip-rule="evenodd" d="M21.1491 29.5077L23.1286 37.9366C23.168 38.2976 23.0827 38.6581 22.8699 38.9566L17.3575 45.7045C17.1302 46.0146 16.7765 46.1834 16.4 46.1365H7.61212C7.24387 46.1129 6.87703 45.9416 6.61452 45.6868L1.1166 38.9566C0.905527 38.6606 0.820013 38.3028 0.882104 37.9444L2.84 29.4448C2.92372 29.0939 3.15343 28.8255 3.46679 28.6813L11.4102 24.8925C11.5902 24.8529 11.7894 24.8556 11.9671 24.8556C12.1351 24.8556 12.3257 24.8719 12.4942 24.9559L20.4605 28.7298C20.7795 28.8996 21.0393 29.1703 21.1491 29.5077Z" fill="#326DE6"/>
<path fill-rule="evenodd" clip-rule="evenodd" d="M11.5028 25.1648L3.58947 28.9392L3.58766 28.9401C3.3528 29.0481 3.18304 29.2461 3.11986 29.5096C3.11978 29.5099 3.1197 29.5102 3.11962 29.5106L1.16408 37.9999C1.11811 38.2765 1.18304 38.5523 1.34605 38.7846L6.82676 45.4938C7.04028 45.6959 7.33435 45.8306 7.62193 45.8513H16.418L16.4359 45.8535C16.698 45.8862 16.953 45.7716 17.1251 45.5368L17.1295 45.5307L22.6404 38.7846C22.8033 38.5525 22.8724 38.2715 22.8446 37.9837L20.8721 29.5848C20.7881 29.3374 20.5911 29.1245 20.3304 28.9841L12.3678 25.2121L12.3652 25.2108C12.2578 25.1572 12.1221 25.1408 11.9671 25.1408L11.9467 25.1408C11.78 25.1407 11.6328 25.1407 11.5028 25.1648ZM11.93 24.5704C11.9427 24.5704 11.9551 24.5704 11.9671 24.5704C12.1474 24.5704 12.3916 24.5865 12.6204 24.6997L20.5904 28.4753L20.5964 28.4785C20.9671 28.6758 21.2856 28.9991 21.4225 29.42L21.4262 29.4314L23.4124 37.8887L23.4143 37.9059C23.4608 38.3313 23.3604 38.7624 23.1044 39.1214L23.099 39.129L17.5852 45.8787C17.3061 46.2552 16.8639 46.4746 16.3832 46.4217H7.60287L7.59362 46.4211C7.15257 46.3929 6.72212 46.1902 6.4136 45.8907L6.40176 45.8792L0.887493 39.129L0.882069 39.1214C0.62811 38.7653 0.52355 38.3311 0.598916 37.8961L0.600243 37.8884L2.56013 29.3802L2.56038 29.3791C2.66468 28.942 2.95343 28.6039 3.34401 28.4235L11.3156 24.6213L11.3479 24.6142C11.5496 24.5697 11.7664 24.5701 11.93 24.5704Z" fill="white"/>
<path fill-rule="evenodd" clip-rule="evenodd" d="M11.3138 24.6221L3.34404 28.4234L3.34255 28.4241C2.95015 28.6058 2.66488 28.9394 2.56006 29.3802C2.55999 29.3805 2.55992 29.3808 2.55985 29.3811L0.600267 37.888C0.522009 38.3269 0.625115 38.7655 0.887704 39.1293L6.40125 45.8786C6.71581 46.1899 7.16383 46.3961 7.60325 46.4217H16.3824L16.3967 46.4231C16.8539 46.4686 17.2912 46.272 17.5816 45.8834L17.5853 45.8784L23.0986 39.1293C23.3582 38.7697 23.4649 38.3316 23.4122 37.888L21.4263 29.432C21.2991 29.0292 20.9925 28.6876 20.5901 28.4752L12.6204 24.6997L12.6185 24.6988C12.4239 24.603 12.1936 24.5704 11.967 24.5704C11.7306 24.5704 11.5048 24.5748 11.3138 24.6221ZM11.1385 24.0781C11.4199 24.0017 11.7302 24 11.967 24C12.2398 24 12.568 24.0378 12.8718 24.1868L20.8484 27.9655L20.8535 27.9682C21.3769 28.2425 21.8017 28.7007 21.9786 29.2738L21.9814 29.2831L23.9788 37.788L23.9807 37.8027C24.055 38.3896 23.915 38.9822 23.5599 39.4696L23.5553 39.476L18.0394 46.2282C17.6382 46.7618 17.0163 47.0528 16.3542 46.9921H7.58742L7.57968 46.9917C6.98429 46.9597 6.39539 46.6846 5.98276 46.2699L5.97288 46.2599L0.431089 39.476L0.426433 39.4696C0.0695281 38.9797 -0.0732898 38.3794 0.0358527 37.7804L0.0370254 37.7739L2.00023 29.2513L2.00044 29.2504C2.14622 28.6357 2.55043 28.1621 3.09799 27.9079L11.1133 24.0849L11.1385 24.0781Z" fill="#326DE6"/>
<path fill-rule="evenodd" clip-rule="evenodd" d="M18.0747 30.5013C18.5755 30.8884 18.6654 31.6052 18.2753 32.1023L11.9676 40.1414C11.9419 40.1741 11.9149 40.2058 11.8867 40.2364L11.8867 40.2364C11.3024 40.8692 10.3115 40.9107 9.67577 40.3277L5.57617 36.5682C5.10993 36.1407 5.08119 35.419 5.51199 34.9562C5.94278 34.4935 6.66998 34.4649 7.13622 34.8925L10.6466 38.1116L16.4616 30.7005C16.8516 30.2034 17.5738 30.1142 18.0747 30.5013Z" fill="white"/>
<path d="M73.1456 339.501C72.6873 338.011 71.5873 336.801 70.2124 336.056L42.2548 322.465C41.5215 322.093 40.6965 322 39.9632 322C39.2299 322 38.4049 322 37.6716 322.186L9.71405 335.87C8.33908 336.522 7.33078 337.732 6.96412 339.314L0.0893137 369.941C-0.185679 371.523 0.180978 373.106 1.09762 374.409L20.4387 398.705C21.5387 399.822 23.097 400.567 24.6553 400.66H55.4544C57.1044 400.846 58.6627 400.101 59.671 398.705L79.0121 374.409C79.9288 373.106 80.2954 371.523 80.1121 369.941L73.1456 339.501Z" fill="#326DE6"/>
<path fill-rule="evenodd" clip-rule="evenodd" d="M39.1211 356.704C38.8748 356.948 38.5482 357.081 38.2011 357.081C37.8513 357.081 37.5225 356.945 37.275 356.697C36.9755 356.398 36.8226 356.064 36.8226 355.703C36.8226 355.355 36.9559 355.029 37.2 354.782L26.2379 343.814C25.6956 343.272 24.9741 342.972 24.2067 342.972C23.4429 342.972 22.7252 343.268 22.184 343.805L18.5354 347.21C17.9878 347.754 17.6865 348.478 17.6865 349.249C17.6865 350.016 17.9862 350.737 18.5296 351.281L29.4923 362.248C29.7386 362.004 30.0652 361.871 30.4122 361.871C30.7617 361.871 31.0904 362.007 31.3379 362.255C31.6374 362.554 31.7903 362.888 31.7903 363.25C31.7903 363.597 31.657 363.924 31.413 364.17L33.3034 366.062L35.7696 363.595C35.7706 363.594 35.9521 363.473 36.1276 363.346C36.3914 363.155 36.6492 362.958 36.6503 362.957L38.5221 361.086L41.0116 358.596L39.1211 356.704Z" fill="white"/>
<path fill-rule="evenodd" clip-rule="evenodd" d="M33.3047 367.03L36.2082 364.125C36.2259 364.113 36.2471 364.099 36.2709 364.082C36.3409 364.034 36.4355 363.969 36.5298 363.9C36.6661 363.801 36.8 363.702 36.8995 363.627C36.9493 363.59 36.9909 363.558 37.0203 363.536L37.0551 363.509L37.0657 363.501L37.0707 363.497L37.0758 363.493L37.0832 363.487C37.0848 363.486 37.0886 363.483 37.0934 363.479L37.1051 363.469C37.1105 363.464 37.1252 363.45 37.1347 363.441L41.9795 358.596L39.1248 355.739L38.6413 356.218C38.5241 356.334 38.3709 356.397 38.2025 356.397C38.0337 356.397 37.8791 356.333 37.7601 356.214C37.5633 356.017 37.5076 355.85 37.5076 355.703C37.5076 355.534 37.5708 355.381 37.6869 355.264L38.1658 354.78L26.7226 343.331C26.0522 342.66 25.1569 342.289 24.2081 342.289C23.2677 342.289 22.3803 342.653 21.7119 343.312L18.0629 346.718L18.0555 346.725C17.3784 347.397 17.0044 348.295 17.0044 349.249C17.0044 350.198 17.3766 351.093 18.0477 351.764L29.4916 363.213L29.9749 362.734C30.0921 362.618 30.2453 362.555 30.4136 362.555C30.582 362.555 30.7366 362.619 30.8556 362.738C31.0523 362.935 31.1081 363.102 31.1081 363.25C31.1081 363.419 31.0449 363.572 30.9288 363.689L30.45 364.172L33.3047 367.03ZM33.3049 365.095L32.294 364.083C32.4128 363.825 32.4752 363.541 32.4752 363.25C32.4752 362.674 32.225 362.174 31.8226 361.771C31.4468 361.395 30.9442 361.187 30.4136 361.187C30.1225 361.187 29.8393 361.25 29.5807 361.368L19.0144 350.797C18.5985 350.381 18.3715 349.834 18.3715 349.249C18.3715 348.663 18.5975 348.117 19.0112 347.703L22.6593 344.298L22.6667 344.291C23.0799 343.881 23.6246 343.656 24.2081 343.656C24.7942 343.656 25.3418 343.883 25.7559 344.298L36.3217 354.869C36.2029 355.128 36.1405 355.411 36.1405 355.703C36.1405 356.279 36.3907 356.778 36.7928 357.181M33.3049 365.095L35.2877 363.112C35.3161 363.083 35.3417 363.063 35.3447 363.061C35.3525 363.054 35.359 363.05 35.3619 363.047C35.3681 363.043 35.373 363.039 35.3747 363.038L35.3832 363.032L35.3891 363.028L35.4199 363.007C35.439 362.994 35.466 362.976 35.4982 362.954C35.563 362.909 35.647 362.851 35.7281 362.792C35.8557 362.7 35.9826 362.606 36.0782 362.534C36.1259 362.498 36.1655 362.468 36.193 362.447L36.2005 362.441L40.0464 358.596L39.0355 357.584C38.7769 357.703 38.4937 357.765 38.2025 357.765C37.6718 357.765 37.1688 357.557 36.7928 357.181" fill="#326DE6"/>
<path fill-rule="evenodd" clip-rule="evenodd" d="M55.3954 375.524L53.376 375.665L39.2648 361.873L36.6912 364.771L50.2623 378.344L50.3235 380.867L55.8914 383.958L58.4792 381.083L55.3954 375.524Z" fill="white"/>
<path fill-rule="evenodd" clip-rule="evenodd" d="M56.0352 384.82L59.3135 381.178L55.7816 374.811L53.634 374.962L39.2296 360.883L35.752 364.799L49.5854 378.634L49.6495 381.275L56.0352 384.82ZM50.9972 380.459L50.9388 378.054L37.63 364.744L39.2996 362.863L53.1175 376.369L55.0087 376.236L57.6447 380.988L55.7473 383.096L50.9972 380.459Z" fill="#326DE6"/>
<path d="M30.2456 357.853C29.9759 358.123 29.5391 358.123 29.2693 357.853L21.0507 349.631C20.781 349.361 20.781 348.923 21.0507 348.654C21.1856 348.519 21.3623 348.452 21.5391 348.452C21.7158 348.452 21.8926 348.519 22.0274 348.654L30.2456 356.876C30.5154 357.146 30.5154 357.583 30.2456 357.853Z" fill="#326DE6"/>
<path d="M31.7855 355.336L23.5668 347.113C23.2971 346.844 23.2971 346.406 23.5668 346.136C23.7017 346.002 23.8784 345.934 24.0552 345.934C24.2319 345.934 24.4087 346.002 24.5436 346.136L32.7618 354.359C33.0315 354.628 33.0315 355.066 32.7618 355.336C32.492 355.605 32.0552 355.605 31.7855 355.336Z" fill="#326DE6"/>
<path fill-rule="evenodd" clip-rule="evenodd" d="M59.1549 361.852C57.4964 363.511 55.7035 361.358 55.7035 361.358L53.8173 359.48C54.0947 358.644 54.1908 357.992 54.1389 357.486C54.1003 357.109 53.9773 356.83 53.7855 356.636C53.5194 356.368 53.1475 356.266 52.7951 356.228C52.5012 356.197 52.2126 356.214 51.9735 356.252C51.9202 356.26 51.744 356.168 51.7284 356.192L51.2768 356.893L50.6781 356.312C48.5264 354.226 47.5031 353.136 47.5031 353.136C47.1039 352.694 46.4589 351.847 46.599 350.891C46.6757 350.368 46.5273 347.807 44.8674 346.241C43.9355 345.362 42.515 344.833 40.4097 345.109C38.4812 345.152 38.2 344.297 38.1678 344.166L37.313 342.717C37.2469 342.621 37.0814 342.34 37.0817 341.936C37.0819 341.718 37.1296 341.457 37.2898 341.174C37.4663 340.861 37.8006 340.489 38.4693 340.129C47.5249 335.059 54.2092 342.493 54.6364 342.984C54.8919 343.24 57.8157 346.165 59.3071 347.668C59.391 347.753 59.4793 347.842 59.5712 347.935C59.5429 348.048 59.5165 348.166 59.4917 348.287C59.2713 349.366 59.2902 350.223 59.7703 350.703C60.2354 351.167 61.0645 351.195 62.159 350.959C62.2837 350.932 62.4038 350.903 62.5191 350.873C62.6055 350.961 62.6946 351.052 62.7866 351.144C63.0515 351.409 63.3028 351.65 63.5352 351.873C64.5994 352.894 65.2432 353.631 65.3319 354.413C65.411 355.109 65.1236 355.905 64.0178 357.012C62.7778 358.252 61.7569 359.265 60.8847 360.131C60.2353 360.775 59.6684 361.338 59.1549 361.852Z" fill="white"/>
<path fill-rule="evenodd" clip-rule="evenodd" d="M49.508 340.095C46.8111 338.88 43.1084 338.315 38.8031 340.726L38.7981 340.729L38.793 340.732C38.2182 341.041 37.9876 341.328 37.885 341.51C37.7882 341.681 37.7654 341.824 37.7653 341.937C37.7651 342.153 37.855 342.299 37.8759 342.329L37.8895 342.349L38.8076 343.905L38.8289 343.992C38.8378 344.011 38.8736 344.074 38.9742 344.146C39.1324 344.258 39.5172 344.439 40.3593 344.426C42.6092 344.14 44.2348 344.705 45.3363 345.743C46.2917 346.645 46.7917 347.81 47.0458 348.784C47.2961 349.744 47.3308 350.612 47.2753 350.99C47.232 351.286 47.3058 351.592 47.4599 351.9C47.613 352.205 47.8264 352.473 48.0057 352.672L48.012 352.679L48.0468 352.716C48.078 352.749 48.1255 352.798 48.1894 352.865C48.3171 352.998 48.5103 353.197 48.7709 353.462C49.2919 353.991 50.0818 354.782 51.1538 355.821C51.2684 355.644 51.4304 355.566 51.5359 355.534C51.6362 355.504 51.7207 355.503 51.7633 355.504C51.8485 355.507 51.9168 355.525 51.9406 355.531C51.9683 355.538 51.9964 355.547 52.0197 355.555C52.2747 355.525 52.5665 355.516 52.8677 355.548C53.2794 355.592 53.8407 355.721 54.2707 356.155C54.5997 356.486 54.7688 356.927 54.8189 357.416C54.8742 357.956 54.7935 358.578 54.5922 359.287L56.2083 360.895L56.2271 360.918L56.2276 360.919L56.228 360.919L56.2284 360.92L56.2369 360.929C56.246 360.94 56.2611 360.957 56.2819 360.979C56.3237 361.023 56.3872 361.088 56.4687 361.162C56.6348 361.312 56.8601 361.488 57.1152 361.616C57.3709 361.745 57.6237 361.812 57.8626 361.793C58.0861 361.775 58.3606 361.679 58.6716 361.368C59.1856 360.854 59.7526 360.291 60.4006 359.648L60.4033 359.645C61.2755 358.78 62.2955 357.768 63.5344 356.528C64.5759 355.486 64.6976 354.885 64.6527 354.49C64.6272 354.264 64.5173 353.998 64.2512 353.641C63.9827 353.28 63.5914 352.874 63.062 352.366L63.0567 352.361C62.8261 352.14 62.5719 351.896 62.3032 351.627C61.7242 351.752 61.1676 351.819 60.6685 351.775C60.1638 351.73 59.6682 351.567 59.2873 351.186C58.8975 350.797 58.7338 350.29 58.6876 349.782C58.6418 349.278 58.7057 348.72 58.822 348.15C57.3317 346.648 54.4088 343.723 54.153 343.467L54.1362 343.451L54.1206 343.433C53.9354 343.22 52.2345 341.322 49.508 340.095ZM55.2026 361.824L53.0354 359.667L53.1685 359.265C53.431 358.473 53.4969 357.926 53.4589 357.555C53.4318 357.291 53.3549 357.173 53.3002 357.118C53.1981 357.015 53.0157 356.939 52.7225 356.908C52.4985 356.884 52.2712 356.897 52.0812 356.927C52.0762 356.928 52.0713 356.929 52.0665 356.929L51.3997 357.965L50.2023 356.803C49.1226 355.756 48.3251 354.958 47.7966 354.421C47.5324 354.153 47.3353 353.949 47.2039 353.813C47.1382 353.744 47.0889 353.693 47.0558 353.658L47.0183 353.618L47.0086 353.608L47.0053 353.604C47.0052 353.604 47.0049 353.604 47.5031 353.136L47.0049 353.604L47.0004 353.599L46.9959 353.594C46.7769 353.352 46.4706 352.977 46.2377 352.512C46.0046 352.047 45.8259 351.452 45.9227 350.792C45.9439 350.647 45.9427 349.972 45.723 349.13C45.5071 348.301 45.1029 347.403 44.3985 346.739C43.6425 346.026 42.4393 345.533 40.4985 345.787L40.4619 345.792L40.425 345.792C39.3631 345.816 38.6515 345.595 38.1811 345.26C37.7873 344.979 37.6137 344.655 37.5393 344.446L36.7349 343.082C36.6181 342.907 36.3978 342.502 36.3982 341.936C36.3984 341.611 36.471 341.233 36.6946 340.837C36.9443 340.395 37.381 339.939 38.1404 339.53C42.8887 336.873 47.0541 337.49 50.069 338.847C52.9964 340.165 54.8365 342.176 55.1359 342.517C55.4786 342.86 58.3263 345.709 59.7923 347.187C59.8762 347.271 59.9648 347.36 60.057 347.454L60.3276 347.727L60.2344 348.1C60.2087 348.203 60.1844 348.311 60.1614 348.424C60.0574 348.934 60.0205 349.344 60.0491 349.658C60.0772 349.968 60.1629 350.128 60.2532 350.219C60.3374 350.303 60.489 350.386 60.7887 350.412C61.0941 350.439 61.4993 350.402 62.0148 350.29C62.1303 350.265 62.2403 350.239 62.3446 350.211L62.7296 350.11L63.008 350.395C63.0929 350.482 63.1801 350.57 63.2699 350.66C63.5285 350.919 63.7741 351.154 64.0066 351.378L64.0084 351.379C64.5432 351.892 65.0059 352.365 65.3475 352.824C65.6915 353.286 65.948 353.779 66.0111 354.335C66.1243 355.332 65.6713 356.324 64.5011 357.495C63.2601 358.737 62.2383 359.751 61.3661 360.616L61.3647 360.618C60.7156 361.262 60.1503 361.823 59.6383 362.335C59.12 362.854 58.5485 363.111 57.9694 363.156C57.4056 363.2 56.8992 363.039 56.4994 362.837C56.0989 362.635 55.7723 362.376 55.5505 362.175C55.438 362.073 55.3485 361.982 55.2857 361.915C55.2542 361.882 55.2293 361.854 55.2113 361.834C55.2082 361.83 55.2053 361.827 55.2026 361.824Z" fill="#326DE6"/>
<path fill-rule="evenodd" clip-rule="evenodd" d="M49.7144 358.459C49.7144 358.459 31.2832 378.641 27.8134 382.518C26.6974 383.635 25.5055 384.102 24.3866 384.144C23.0739 384.193 21.8455 383.652 20.9579 382.764C20.0688 381.874 19.5262 380.641 19.5724 379.326C19.6118 378.202 20.0766 377.007 21.1642 375.919C25.9647 371.116 45.1209 353.857 45.1209 353.857C45.1209 353.857 45.2908 353.704 45.6031 353.423L50.1551 357.977C49.8699 358.289 49.7144 358.459 49.7144 358.459Z" fill="white"/>
<path fill-rule="evenodd" clip-rule="evenodd" d="M45.6281 352.481L51.1005 357.955L50.2191 358.92L49.7144 358.459C50.219 358.92 50.2193 358.92 50.2191 358.92L50.2182 358.921L49.4203 359.795C48.9096 360.355 48.1761 361.158 47.2851 362.134C45.503 364.087 43.0908 366.731 40.5701 369.496C35.5273 375.027 30.0548 381.039 28.3226 382.974L28.3101 382.988L28.297 383.001C27.0687 384.231 25.7166 384.779 24.4121 384.827C22.8928 384.884 21.4844 384.258 20.4746 383.248C19.4631 382.236 18.8358 380.823 18.8892 379.302C18.9351 377.995 19.4781 376.639 20.6809 375.435C23.0949 373.02 29.098 367.492 34.4822 362.582C37.1776 360.123 39.7228 357.815 41.5942 356.122C42.5299 355.275 43.2971 354.582 43.8305 354.1C44.0971 353.859 44.3054 353.672 44.4469 353.544L44.6632 353.349C44.6634 353.349 44.6634 353.349 45.1209 353.857L44.6632 353.349L45.6281 352.481ZM49.213 358.001L45.5759 354.363C45.5782 354.365 45.5781 354.365 45.5781 354.365L45.3623 354.56C45.2209 354.687 45.0128 354.875 44.7463 355.116C44.2133 355.597 43.4465 356.29 42.5113 357.136C40.6408 358.829 38.097 361.135 35.4032 363.592C30.0092 368.512 24.034 374.015 21.6476 376.402C20.6751 377.375 20.2885 378.409 20.2555 379.35C20.2165 380.46 20.6745 381.513 21.4413 382.28C22.2066 383.046 23.255 383.502 24.3611 383.461C25.2903 383.426 26.3173 383.043 27.3169 382.047C29.0683 380.091 34.532 374.089 39.56 368.574C42.0809 365.809 44.4933 363.165 46.2755 361.212C47.1666 360.236 47.9002 359.432 48.4109 358.873L49.2095 357.998C49.2095 357.998 49.2096 357.998 49.213 358.001Z" fill="#326DE6"/>
<path d="M134.848 334.902V383.623C134.848 384.936 133.833 386 132.582 386H87.2658C86.0144 386 85 384.936 85 383.623V325.396C85 324.083 86.0144 323.019 87.2658 323.019H123.519" fill="white"/>
<path d="M134.848 334.902V383.623C134.848 384.936 133.833 386 132.582 386H87.2658C86.0144 386 85 384.936 85 383.623V325.396C85 324.083 86.0144 323.019 87.2658 323.019H123.519" stroke="#C5C5C5" stroke-width="2"/>
<path d="M92.5312 334.648H106.435" stroke="#C5C5C5" stroke-width="2" stroke-linecap="round"/>
<path d="M92.2625 330.828H104.366" stroke="#C5C5C5" stroke-width="2" stroke-miterlimit="3.8637" stroke-linecap="round" stroke-dasharray="4 4"/>
<path d="M92.5312 338.467H112.559" stroke="#C5C5C5" stroke-width="2" stroke-linecap="round"/>
<path d="M92.5312 342.287H96.1727" stroke="#326DE6" stroke-width="2" stroke-linecap="round"/>
<path d="M100.267 342.287H110.835H100.267Z" fill="#163166"/>
<path d="M100.267 342.287H110.835" stroke="#4261A0" stroke-width="2" stroke-linecap="round"/>
<path d="M94.021 346.107H102.132" stroke="#326DE6" stroke-width="2" stroke-linecap="round"/>
<path d="M106.448 346.107H107.855" stroke="#CEE3F7" stroke-width="2" stroke-linecap="round"/>
<path d="M94.021 349.926H100.642" stroke="#326DE6" stroke-width="2" stroke-linecap="round"/>
<path d="M104.959 349.926H120.518" stroke="#CEE3F7" stroke-width="2" stroke-linecap="round"/>
<path d="M94.021 353.746H97.3314" stroke="#326DE6" stroke-width="2" stroke-linecap="round"/>
<path d="M101.897 353.746H113.815" stroke="#CEE3F7" stroke-width="2" stroke-linecap="round"/>
<path d="M95.5107 357.565H106.435" stroke="#326DE6" stroke-width="2" stroke-linecap="round"/>
<path d="M110.835 357.565H116.049H110.835Z" fill="#163166"/>
<path d="M110.835 357.565H116.049" stroke="#4261A0" stroke-width="2" stroke-linecap="round"/>
<path d="M97.0005 361.385H102.132" stroke="#326DE6" stroke-width="2" stroke-linecap="round"/>
<path d="M106.366 361.385H107.856" stroke="#4261A0" stroke-width="2" stroke-linecap="round"/>
<path d="M92.5312 365.205H96.1727" stroke="#326DE6" stroke-width="2" stroke-linecap="round"/>
<path d="M100.49 365.205H109.345" stroke="#CEE3F7" stroke-width="2" stroke-linecap="round"/>
<path d="M94.021 369.024H102.132" stroke="#326DE6" stroke-width="2" stroke-linecap="round"/>
<path d="M106.448 369.024H107.855" stroke="#CEE3F7" stroke-width="2" stroke-linecap="round"/>
<path d="M94.021 372.844H100.642" stroke="#326DE6" stroke-width="2" stroke-linecap="round"/>
<path d="M104.959 372.844H120.518" stroke="#4261A0" stroke-width="2" stroke-linecap="round"/>
<path d="M94.021 376.663H97.3314" stroke="#326DE6" stroke-width="2" stroke-linecap="round"/>
<path d="M101.897 376.663H113.815" stroke="#CEE3F7" stroke-width="2" stroke-linecap="round"/>
<path d="M135.893 335.015H124.067C123.764 335.015 123.519 334.769 123.519 334.466V322" fill="#C5C5C5"/>
<path d="M152.829 331.152C152.829 331.756 153.32 332.247 153.925 332.247H168.495V386.753H153.925C153.32 386.753 152.829 387.244 152.829 387.848C152.829 388.453 153.32 388.944 153.925 388.944H169.59C170.195 388.944 170.686 388.453 170.686 387.848V331.151C170.686 330.546 170.195 330.055 169.59 330.055H153.925C153.32 330.056 152.829 330.546 152.829 331.152Z" fill="#D8D8D8"/>
<path d="M152.684 359.5C152.684 360.105 153.175 360.596 153.78 360.596H181.686C182.291 360.596 182.782 360.105 182.782 359.5C182.782 358.895 182.291 358.404 181.686 358.404H153.779C153.174 358.404 152.684 358.895 152.684 359.5Z" fill="#D8D8D8"/>
<path d="M178 359.735C178 364.844 182.157 369 187.265 369C192.374 369 196.53 364.844 196.53 359.735C196.53 354.627 192.373 350.471 187.264 350.471C182.156 350.471 178 354.627 178 359.735Z" fill="#326DE6"/>
<path d="M187.197 354.5L183.005 356.425L187.197 358.349L191.388 356.425L187.197 354.5Z" fill="white"/>
<path d="M187.731 365L192.03 363.033V357.28L187.731 359.247V365Z" fill="white"/>
<path d="M182.385 363.033L186.683 365V359.247L182.385 357.28V363.033Z" fill="white"/>
<path d="M139.529 359.5C139.529 364.609 143.686 368.765 148.795 368.765C153.903 368.765 158.059 364.609 158.059 359.5C158.059 354.391 153.902 350.235 148.794 350.235C143.685 350.235 139.529 354.391 139.529 359.5Z" fill="#D8D8D8"/>
<path d="M139.529 331.264C139.529 336.373 143.686 340.529 148.794 340.529C153.902 340.529 158.059 336.373 158.059 331.264C158.059 326.156 153.902 322 148.794 322C143.686 322 139.529 326.156 139.529 331.264Z" fill="#D8D8D8"/>
<path d="M139.529 387.736C139.529 392.844 143.686 397 148.794 397C153.902 397 158.059 392.844 158.059 387.736C158.059 382.627 153.902 378.471 148.794 378.471C143.686 378.471 139.529 382.627 139.529 387.736Z" fill="#D8D8D8"/>
<path fill-rule="evenodd" clip-rule="evenodd" d="M153.53 335.155C153.53 336.364 151.363 336.997 148.53 337C145.693 337.003 143.53 336.372 143.53 335.155C143.53 333.865 144.935 332.327 146.69 331.67C146.771 331.64 146.815 331.541 146.788 331.449C146.779 331.417 146.762 331.389 146.74 331.368C146.727 331.355 146.714 331.343 146.703 331.332C146.044 330.668 145.641 329.662 145.641 328.567C145.641 326.602 146.929 325 148.53 325C150.13 325 151.418 326.602 151.418 328.567C151.418 329.652 151.022 330.65 150.374 331.314C150.359 331.329 150.342 331.346 150.323 331.364C150.256 331.428 150.247 331.542 150.303 331.619C150.322 331.645 150.347 331.665 150.375 331.675C152.124 332.336 153.53 333.879 153.53 335.155Z" fill="#4A4A4A"/>
<path fill-rule="evenodd" clip-rule="evenodd" d="M153.53 392.155C153.53 393.364 151.363 393.997 148.53 394C145.693 394.003 143.53 393.372 143.53 392.155C143.53 390.865 144.935 389.327 146.69 388.67C146.771 388.64 146.815 388.541 146.788 388.449C146.779 388.417 146.762 388.389 146.74 388.368C146.727 388.355 146.714 388.343 146.703 388.332C146.044 387.668 145.641 386.662 145.641 385.567C145.641 383.602 146.929 382 148.53 382C150.13 382 151.418 383.602 151.418 385.567C151.418 386.652 151.022 387.65 150.374 388.314C150.359 388.329 150.342 388.346 150.323 388.364C150.256 388.428 150.247 388.542 150.303 388.619C150.322 388.645 150.347 388.665 150.375 388.675C152.124 389.336 153.53 390.879 153.53 392.155Z" fill="#4A4A4A"/>
<path fill-rule="evenodd" clip-rule="evenodd" d="M153.53 363.155C153.53 364.364 151.363 364.997 148.53 365C145.693 365.003 143.53 364.372 143.53 363.155C143.53 361.865 144.935 360.327 146.69 359.67C146.771 359.64 146.815 359.541 146.788 359.449C146.779 359.417 146.762 359.389 146.74 359.368C146.727 359.355 146.714 359.343 146.703 359.332C146.044 358.668 145.641 357.662 145.641 356.567C145.641 354.602 146.929 353 148.53 353C150.13 353 151.418 354.602 151.418 356.567C151.418 357.652 151.022 358.65 150.374 359.314C150.359 359.329 150.342 359.346 150.323 359.364C150.256 359.428 150.247 359.542 150.303 359.619C150.322 359.645 150.347 359.665 150.375 359.675C152.124 360.336 153.53 361.879 153.53 363.155Z" fill="#4A4A4A"/>
<path fill-rule="evenodd" clip-rule="evenodd" d="M9 178C13.9706 178 18 173.971 18 169C18 164.029 13.9706 160 9 160C4.02944 160 0 164.029 0 169C0 173.971 4.02944 178 9 178Z" fill="#65A61E"/>
<path d="M12.2274 165.2C12.5414 164.746 13.1643 164.632 13.6186 164.946C14.0729 165.26 14.1866 165.883 13.8725 166.337L9.59514 172.525C8.92344 173.497 7.6144 173.6 6.79561 172.748L4.22883 170.076C3.8462 169.678 3.85888 169.045 4.25715 168.662C4.65541 168.279 5.28845 168.292 5.67108 168.69L8.08088 171.199L12.2274 165.2Z" fill="white"/>
<path fill-rule="evenodd" clip-rule="evenodd" d="M9 158C13.9706 158 18 153.971 18 149C18 144.029 13.9706 140 9 140C4.02944 140 0 144.029 0 149C0 153.971 4.02944 158 9 158Z" fill="#326DE6"/>
<rect x="3.65625" y="148.606" width="10.6875" height="1.2375" rx="0.55" fill="white" stroke="white" stroke-width="0.5"/>
<rect x="8.3811" y="154.569" width="10.6875" height="1.2375" rx="0.55" transform="rotate(-90 8.3811 154.569)" fill="white" stroke="white" stroke-width="0.5"/>
<path d="M269.543 392.707C269.933 393.098 270.567 393.098 270.957 392.707L277.321 386.343C277.712 385.953 277.712 385.319 277.321 384.929C276.931 384.538 276.297 384.538 275.907 384.929L270.25 390.586L264.593 384.929C264.203 384.538 263.569 384.538 263.179 384.929C262.788 385.319 262.788 385.953 263.179 386.343L269.543 392.707ZM200.75 324C202.354 324 203.929 324.021 205.475 324.062L205.529 322.063C203.964 322.021 202.371 322 200.75 322V324ZM214.894 324.616C218.146 324.922 221.246 325.345 224.195 325.893L224.56 323.926C221.546 323.367 218.387 322.936 215.081 322.625L214.894 324.616ZM233.295 328.136C236.384 329.111 239.263 330.269 241.936 331.622L242.839 329.837C240.06 328.431 237.079 327.233 233.897 326.228L233.295 328.136ZM249.758 336.599C252.179 338.52 254.369 340.685 256.332 343.112L257.887 341.854C255.832 339.312 253.536 337.044 251.001 335.032L249.758 336.599ZM261.386 350.889C262.752 353.527 263.94 356.392 264.951 359.498L266.853 358.879C265.811 355.678 264.582 352.712 263.162 349.969L261.386 350.889ZM267.263 368.558C267.83 371.488 268.275 374.589 268.599 377.868L270.59 377.671C270.26 374.337 269.806 371.174 269.226 368.178L267.263 368.558ZM269.184 387.282C269.228 388.821 269.25 390.394 269.25 392H271.25C271.25 390.375 271.228 388.784 271.183 387.225L269.184 387.282Z" fill="#C5C5C5"/>
<path d="M289.293 400.707C289.683 401.098 290.317 401.098 290.707 400.707L297.071 394.343C297.462 393.953 297.462 393.319 297.071 392.929C296.681 392.538 296.047 392.538 295.657 392.929L290 398.586L284.343 392.929C283.953 392.538 283.319 392.538 282.929 392.929C282.538 393.319 282.538 393.953 282.929 394.343L289.293 400.707ZM291 400C291 398.361 291 396.724 291 395.092L289 395.092C289 396.724 289 398.361 289 400L291 400ZM291 385.28C291 381.964 291 378.687 291 375.468H289C289 378.687 289 381.964 289 385.28L291 385.28ZM291 365.651C291 362.281 291 359.003 291 355.842L289 355.842C289 359.003 289 362.281 289 365.651L291 365.651ZM291 346.03C291 342.531 291 339.242 291 336.21L289 336.21C289 339.242 289 342.531 289 346.03L291 346.03ZM291 326.395C291 324.569 291 322.931 291 321.5H289C289 322.931 289 324.569 289 326.395L291 326.395Z" fill="#C5C5C5"/>
</g>
<defs>
<filter id="filter0_d" x="121" y="43" width="44.587" height="44.5536" filterUnits="userSpaceOnUse" color-interpolation-filters="sRGB">
<feFlood flood-opacity="0" result="BackgroundImageFix"/>
<feColorMatrix in="SourceAlpha" type="matrix" values="0 0 0 0 0 0 0 0 0 0 0 0 0 0 0 0 0 0 127 0"/>
<feOffset/>
<feGaussianBlur stdDeviation="2"/>
<feColorMatrix type="matrix" values="0 0 0 0 0 0 0 0 0 0 0 0 0 0 0 0 0 0 0.16 0"/>
<feBlend mode="normal" in2="BackgroundImageFix" result="effect1_dropShadow"/>
<feBlend mode="normal" in="SourceGraphic" in2="effect1_dropShadow" result="shape"/>
</filter>
<filter id="filter1_d" x="121" y="85" width="44.587" height="44.5536" filterUnits="userSpaceOnUse" color-interpolation-filters="sRGB">
<feFlood flood-opacity="0" result="BackgroundImageFix"/>
<feColorMatrix in="SourceAlpha" type="matrix" values="0 0 0 0 0 0 0 0 0 0 0 0 0 0 0 0 0 0 127 0"/>
<feOffset/>
<feGaussianBlur stdDeviation="2"/>
<feColorMatrix type="matrix" values="0 0 0 0 0 0 0 0 0 0 0 0 0 0 0 0 0 0 0.16 0"/>
<feBlend mode="normal" in2="BackgroundImageFix" result="effect1_dropShadow"/>
<feBlend mode="normal" in="SourceGraphic" in2="effect1_dropShadow" result="shape"/>
</filter>
<filter id="filter2_d" x="121" y="127" width="44.587" height="44.5536" filterUnits="userSpaceOnUse" color-interpolation-filters="sRGB">
<feFlood flood-opacity="0" result="BackgroundImageFix"/>
<feColorMatrix in="SourceAlpha" type="matrix" values="0 0 0 0 0 0 0 0 0 0 0 0 0 0 0 0 0 0 127 0"/>
<feOffset/>
<feGaussianBlur stdDeviation="2"/>
<feColorMatrix type="matrix" values="0 0 0 0 0 0 0 0 0 0 0 0 0 0 0 0 0 0 0.16 0"/>
<feBlend mode="normal" in2="BackgroundImageFix" result="effect1_dropShadow"/>
<feBlend mode="normal" in="SourceGraphic" in2="effect1_dropShadow" result="shape"/>
</filter>
<clipPath id="clip0">
<rect width="300" height="500" fill="white"/>
</clipPath>
</defs>
</svg>
