<?xml version="1.0" encoding="UTF-8"?>
<svg width="20px" height="14px" viewBox="0 0 20 14" version="1.1" xmlns="http://www.w3.org/2000/svg" xmlns:xlink="http://www.w3.org/1999/xlink">
    <!-- Generator: Sketch 62 (91390) - https://sketch.com -->
    <title>Shape</title>
    <desc>Created with Sketch.</desc>
    <g id="Kotsadm" stroke="none" stroke-width="1" fill="none" fill-rule="evenodd">
        <g id="main_spritesheet" transform="translate(-196.000000, -361.000000)" fill="#9E7A17" fill-rule="nonzero">
            <path d="M215.0593,361 L205.6108,361 C205.0957,361 204.6782,361.422594 204.6782,361.943792 L204.6782,362.33875 L199.8328,362.33875 C199.4905,362.33886 199.172,362.51606 198.9886,362.80851 L196.2547,367.14875 C196.0886,367.41431 196.0003,367.72208 195.999998,368.03635 L195.999998,372.2415 C195.9995,372.4908 196.0971,372.7301 196.2713,372.9065 C196.4456,373.0828 196.682,373.1816 196.9284,373.181 L198.0828,373.181 C198.3989,374.2589 199.3771,374.9985 200.488,374.999968 C201.6053,375.0082 202.5904,374.2605 202.8954,373.1727 L208.9177,373.1727 C209.2321,374.2583 210.2175,375.003 211.3353,374.999968 C212.4525,375.0082 213.4377,374.2605 213.7426,373.1727 L215.0716,373.1727 C215.318,373.1733 215.5544,373.0745 215.7287,372.8981 C215.9029,372.7218 216.0005,372.4825 215.999998,372.2332 L215.999998,361.943792 C215.999998,361.692056 215.9006,361.450756 215.724,361.273534 C215.5473,361.096313 215.308,360.997854 215.0593,361 Z M202.983301,367.44373 C202.9819,367.58178 202.8578,367.69306 202.705,367.69306 L198.2602,367.69306 C198.1589,367.69259 198.0659,367.64245 198.0174,367.56214 C197.9688,367.48183 197.9724,367.38402 198.0266,367.30674 L200.3596,363.99167 C200.4104,363.91933 200.4984,363.87529 200.5932,363.87485 L202.705,363.87485 C202.8587,363.87485 202.983301,363.98748 202.983301,364.12641 L202.983301,367.44373 Z M211.4381,373.8712 C210.6439,373.8712 210,373.2159 210,372.4075 C210,371.5992 210.6439,370.94391 211.4381,370.94391 C212.2264,370.95675 212.8624,371.604 212.875,372.4063 C212.8737,373.2139 212.2315,373.8686 211.4381,373.8712 Z M200.5631,373.8712 C199.7689,373.8712 199.125,373.2159 199.125,372.4075 C199.125,371.5992 199.7689,370.94391 200.5631,370.94391 C201.3514,370.95675 201.9874,371.604 202,372.4063 C201.9987,373.2139 201.3565,373.8686 200.5631,373.8712 Z" id="Shape"></path>
        </g>
    </g>
</svg>