<?xml version="1.0" encoding="UTF-8"?>
<svg width="20px" height="13px" viewBox="0 0 20 13" version="1.1" xmlns="http://www.w3.org/2000/svg" xmlns:xlink="http://www.w3.org/1999/xlink">
    <!-- Generator: Sketch 62 (91390) - https://sketch.com -->
    <title>Group 22</title>
    <desc>Created with Sketch.</desc>
    <g id="Kotsadm" stroke="none" stroke-width="1" fill="none" fill-rule="evenodd">
        <g id="main_spritesheet" transform="translate(-201.000000, -379.000000)" fill-rule="nonzero">
            <g id="Group-22" transform="translate(201.000000, 379.000000)">
                <path d="M17.4,9.6 L1.8,9.6 C1.4686,9.6 1.2,9.8686 1.2,10.2 C1.2,10.5314 1.4686,10.8 1.8,10.8 L17.4,10.8 C17.7313,10.8 18,10.5314 18,10.2 C18,9.8686 17.7313,9.6 17.4,9.6 Z" id="Path" fill="#FA6400"></path>
                <path d="M18,0 L1.2,0 C0.5373,0 -9.05941988e-14,0.5373 -9.05941988e-14,1.2 L-9.05941988e-14,4.8 C-9.05941988e-14,5.4627 0.5373,6 1.2,6 L18,6 C18.6627,6 19.2,5.4627 19.2,4.8 L19.2,1.2 C19.2,0.5373 18.6627,0 18,0 Z" id="Path" fill="#FA6400"></path>
                <path d="M10.2,5.4 C10.2,5.0686 9.9314,4.8 9.6,4.8 C9.2686,4.8 9,5.0686 9,5.4 L9,7.8 C9,8.1314 9.2686,8.4 9.6,8.4 C9.9314,8.4 10.2,8.1314 10.2,7.8 L10.2,5.4 Z" id="Path" fill="#FA6400"></path>
                <path d="M9.6,12 C10.5942,12 11.4,11.1941 11.4,10.2 C11.4,9.2059 10.5942,8.4 9.6,8.4 C8.6059,8.4 7.8,9.2059 7.8,10.2 C7.8,11.1941 8.6059,12 9.6,12 Z" id="Path" stroke="#FA6400" stroke-width="1.2" fill="#FFFFFF"></path>
                <path d="M3.5999,4.2 C4.2626,4.2 4.7999,3.6627 4.7999,3 C4.7999,2.3373 4.2626,1.8 3.5999,1.8 C2.9372,1.8 2.3999,2.3373 2.3999,3 C2.3999,3.6627 2.9372,4.2 3.5999,4.2 Z" id="Path" fill="#FFFFFF"></path>
                <path d="M7.2,4.2 C7.8627,4.2 8.4,3.6627 8.4,3 C8.4,2.3373 7.8627,1.8 7.2,1.8 C6.5373,1.8 6,2.3373 6,3 C6,3.6627 6.5373,4.2 7.2,4.2 Z" id="Path" fill="#FFFFFF"></path>
            </g>
        </g>
    </g>
</svg>