<?xml version="1.0" encoding="UTF-8"?>
<svg width="16px" height="18px" viewBox="0 0 16 18" version="1.1" xmlns="http://www.w3.org/2000/svg" xmlns:xlink="http://www.w3.org/1999/xlink">
    <!-- Generator: Sketch 62 (91390) - https://sketch.com -->
    <title>Node resources</title>
    <desc>Created with Sketch.</desc>
    <g id="Kotsadm" stroke="none" stroke-width="1" fill="none" fill-rule="evenodd">
        <g id="main_spritesheet" transform="translate(-190.000000, -359.000000)" fill="#2C7314" fill-rule="nonzero">
            <path d="M204.849057,369.989474 L204.849057,366.010526 C205.509434,365.764211 206,365.138947 206,364.381053 C206,363.414737 205.226415,362.637895 204.264151,362.637895 C203.830189,362.637895 203.45283,362.808421 203.150943,363.054737 L199.698113,361.046316 C199.716981,360.951579 199.735849,360.837895 199.735849,360.743158 C199.735849,359.776842 198.962264,359 198,359 C197.037736,359 196.264151,359.776842 196.264151,360.743158 C196.264151,360.856842 196.283019,360.951579 196.301887,361.046316 L192.849057,363.054737 C192.54717,362.789474 192.169811,362.637895 191.735849,362.637895 C190.773585,362.637895 190,363.414737 190,364.381053 C190,365.138947 190.490566,365.764211 191.150943,366.010526 L191.150943,369.989474 C190.490566,370.235789 190,370.861053 190,371.618947 C190,372.585263 190.773585,373.362105 191.735849,373.362105 C192.169811,373.362105 192.54717,373.191579 192.849057,372.945263 L196.301887,374.953684 C196.283019,375.048421 196.264151,375.162105 196.264151,375.256842 C196.264151,376.223158 197.037736,377 198,377 C198.962264,377 199.735849,376.223158 199.735849,375.256842 C199.735849,375.143158 199.716981,375.048421 199.698113,374.953684 L203.132075,372.964211 C203.433962,373.229474 203.830189,373.381053 204.245283,373.381053 C205.207547,373.381053 205.981132,372.604211 205.981132,371.637895 C206,370.88 205.509434,370.235789 204.849057,369.989474 Z M203.150943,370.292632 L200.566038,368.795789 C200.641509,368.549474 200.698113,368.284211 200.698113,368 C200.698113,367.715789 200.641509,367.450526 200.566038,367.204211 L203.150943,365.707368 C203.301887,365.84 203.490566,365.934737 203.679245,366.010526 L203.679245,369.989474 C203.471698,370.065263 203.301887,370.16 203.150943,370.292632 Z M198,369.515789 C197.169811,369.515789 196.490566,368.833684 196.490566,368 C196.490566,367.166316 197.169811,366.484211 198,366.484211 C198.830189,366.484211 199.509434,367.166316 199.509434,368 C199.509434,368.833684 198.830189,369.515789 198,369.515789 Z M202.54717,364.684211 L199.962264,366.181053 C199.603774,365.783158 199.113208,365.498947 198.584906,365.366316 L198.584906,362.372632 C198.773585,362.296842 198.962264,362.202105 199.113208,362.069474 L202.54717,364.058947 C202.528302,364.172632 202.528302,364.267368 202.528302,364.381053 C202.528302,364.475789 202.528302,364.589474 202.54717,364.684211 Z M197.415094,362.372632 L197.415094,365.366316 C196.867925,365.48 196.396226,365.783158 196.037736,366.162105 L193.45283,364.665263 C193.471698,364.570526 193.490566,364.456842 193.490566,364.362105 C193.490566,364.248421 193.471698,364.153684 193.45283,364.058947 L196.886792,362.069474 C197.037736,362.202105 197.207547,362.315789 197.415094,362.372632 Z M192.867925,365.707368 L195.45283,367.204211 C195.377358,367.450526 195.320755,367.715789 195.320755,368 C195.320755,368.284211 195.377358,368.549474 195.45283,368.795789 L192.867925,370.292632 C192.716981,370.16 192.528302,370.046316 192.339623,369.989474 L192.339623,366.010526 C192.528302,365.934737 192.698113,365.84 192.867925,365.707368 Z M193.45283,371.315789 L196.037736,369.818947 C196.396226,370.216842 196.867925,370.501053 197.415094,370.614737 L197.415094,373.608421 C197.226415,373.684211 197.037736,373.778947 196.886792,373.911579 L193.45283,371.941053 C193.471698,371.846316 193.490566,371.732632 193.490566,371.637895 C193.471698,371.524211 193.471698,371.429474 193.45283,371.315789 Z M198.584906,373.627368 L198.584906,370.633684 C199.132075,370.52 199.603774,370.216842 199.962264,369.818947 L202.54717,371.315789 C202.528302,371.429474 202.528302,371.524211 202.528302,371.618947 C202.528302,371.732632 202.54717,371.827368 202.566038,371.922105 L199.113208,373.930526 C198.962264,373.797895 198.773585,373.684211 198.584906,373.627368 Z" id="Node-resources"></path>
        </g>
    </g>
</svg>