<?xml version="1.0" encoding="UTF-8"?>
<svg width="23px" height="14px" viewBox="0 0 23 14" version="1.1" xmlns="http://www.w3.org/2000/svg" xmlns:xlink="http://www.w3.org/1999/xlink">
    <!-- Generator: Sketch 62 (91390) - https://sketch.com -->
    <title>Group 19</title>
    <desc>Created with Sketch.</desc>
    <g id="Kotsadm" stroke="none" stroke-width="1" fill="none" fill-rule="evenodd">
        <g id="main_spritesheet" transform="translate(-200.000000, -398.000000)" fill="#073551" fill-rule="nonzero">
            <g id="Group-19" transform="translate(200.000000, 398.000000)">
                <path d="M13.4653,5.6832 L12.6337,5.3267 C12.4356,5.2475 12.2772,5.0891 12.1782,4.8911 L12.1782,4.8515 C12.099,4.6337 12.099,4.396 12.1782,4.198 L12.5149,3.3663 C12.6931,3.0891 12.6337,2.7327 12.4158,2.5149 L11.4851,1.5842 C11.2673,1.3663 10.9109,1.3267 10.6535,1.4851 L9.802,1.8218 C9.3465,2 8.8515,1.7822 8.6733,1.3465 L8.3168,0.5347 C8.2574,0.2178 7.9802,0 7.6634,0 L6.3366,0 C6.0198,0 5.7426,0.2178 5.6832,0.5149 L5.3267,1.3465 C5.1287,1.7822 4.6337,1.9802 4.198,1.8218 L3.3663,1.4851 C3.1089,1.3069 2.7525,1.3465 2.5149,1.5842 L1.5842,2.5149 C1.3663,2.7327 1.3267,3.0891 1.4851,3.3465 L1.8218,4.198 C2,4.6535 1.7822,5.1485 1.3465,5.3267 L0.5347,5.6832 C0.2178,5.7426 0,6.0198 0,6.3366 L0,7.6634 C0,7.9802 0.2178,8.2574 0.5149,8.3168 L1.3465,8.6733 C1.7822,8.8713 1.9802,9.3663 1.8218,9.802 L1.4851,10.6337 C1.3069,10.9109 1.3465,11.2475 1.5842,11.4851 L2.5149,12.4158 C2.7327,12.6337 3.0891,12.6733 3.3465,12.5149 L4.198,12.1782 C4.6535,12 5.1485,12.2178 5.3267,12.6535 L5.6832,13.4653 C5.7426,13.7822 6.0198,14 6.3366,14 L7.6634,14 C7.9802,14 8.2574,13.7822 8.3168,13.4851 L8.6733,12.6535 C8.8713,12.2178 9.3663,12.0198 9.802,12.1782 L10.6337,12.5149 C10.8911,12.6931 11.2475,12.6535 11.4851,12.4158 L12.4158,11.4851 C12.6337,11.2673 12.6733,10.9109 12.5149,10.6535 L12.1782,9.802 C12,9.3465 12.2178,8.8515 12.6535,8.6733 L13.4653,8.3168 C13.7822,8.2574 14,7.9802 14,7.6634 L14,6.3366 C14,6.0198 13.7822,5.7426 13.4653,5.6832 Z M6.9901,9.8614 C5.4059,9.8614 4.1188,8.5743 4.1188,6.9901 C4.1188,5.4059 5.4059,4.1188 6.9901,4.1188 C8.5743,4.1188 9.8614,5.4059 9.8614,6.9901 C9.8614,8.5743 8.5743,9.8614 6.9901,9.8614 Z" id="Shape"></path>
                <path d="M21.8548,9.1485 L21.3696,8.9406 C21.2541,8.8944 21.1617,8.802 21.104,8.6865 L21.104,8.6634 C21.0578,8.5363 21.0578,8.3977 21.104,8.2822 L21.3003,7.797 C21.4043,7.6353 21.3696,7.4274 21.2426,7.3003 L20.6997,6.7574 C20.5726,6.6304 20.3647,6.6073 20.2145,6.6997 L19.7178,6.896 C19.4521,7 19.1634,6.8729 19.0594,6.6188 L18.8515,6.1452 C18.8168,5.9604 18.6551,5.8333 18.4703,5.8333 L17.6964,5.8333 C17.5116,5.8333 17.3498,5.9604 17.3152,6.1337 L17.1073,6.6188 C16.9917,6.8729 16.703,6.9884 16.4488,6.896 L15.9637,6.6997 C15.8135,6.5957 15.6056,6.6188 15.467,6.7574 L14.9241,7.3003 C14.797,7.4274 14.7739,7.6353 14.8663,7.7855 L15.0627,8.2822 C15.1667,8.5479 15.0396,8.8366 14.7855,8.9406 L14.3119,9.1485 C14.1271,9.1832 14,9.3449 14,9.5297 L14,10.3036 C14,10.4884 14.1271,10.6502 14.3003,10.6848 L14.7855,10.8927 C15.0396,11.0083 15.1551,11.297 15.0627,11.5512 L14.8663,12.0363 C14.7624,12.198 14.7855,12.3944 14.9241,12.533 L15.467,13.0759 C15.5941,13.203 15.802,13.2261 15.9521,13.1337 L16.4488,12.9373 C16.7145,12.8333 17.0033,12.9604 17.1073,13.2145 L17.3152,13.6881 C17.3498,13.8729 17.5116,14 17.6964,14 L18.4703,14 C18.6551,14 18.8168,13.8729 18.8515,13.6997 L19.0594,13.2145 C19.1749,12.9604 19.4637,12.8449 19.7178,12.9373 L20.203,13.1337 C20.3531,13.2376 20.5611,13.2145 20.6997,13.0759 L21.2426,12.533 C21.3696,12.4059 21.3927,12.198 21.3003,12.0479 L21.104,11.5512 C21,11.2855 21.1271,10.9967 21.3812,10.8927 L21.8548,10.6848 C22.0396,10.6502 22.1667,10.4884 22.1667,10.3036 L22.1667,9.5297 C22.1667,9.3449 22.0396,9.1832 21.8548,9.1485 Z M18.1026,11.436 C17.2751,11.436 16.6026,10.7636 16.6026,9.936 C16.6026,9.1084 17.2751,8.436 18.1026,8.436 C18.9302,8.436 19.6026,9.1084 19.6026,9.936 C19.6026,10.7636 18.9302,11.436 18.1026,11.436 Z" id="Shape"></path>
            </g>
        </g>
    </g>
</svg>