<?xml version="1.0" encoding="UTF-8"?>
<svg width="12px" height="12px" viewBox="0 0 12 12" version="1.1" xmlns="http://www.w3.org/2000/svg" xmlns:xlink="http://www.w3.org/1999/xlink">
    <!-- Generator: Sketch 62 (91390) - https://sketch.com -->
    <title>Storage class</title>
    <desc>Created with Sketch.</desc>
    <g id="Kotsadm" stroke="none" stroke-width="1" fill="none" fill-rule="evenodd">
        <g id="main_spritesheet" transform="translate(-135.000000, -377.000000)" fill="#326DE6" fill-rule="nonzero">
            <path d="M140.907692,377 C137.668818,377 135.053942,377.904772 135,379.035294 C135.000541,379.047052 135.000541,379.05883 135,379.070588 C135,379.201233 135.081066,379.369039 135.346154,379.576471 C135.611241,379.783902 136.039772,379.99801 136.580769,380.176471 C137.662765,380.533391 139.201041,380.764706 140.907692,380.764706 C142.614344,380.764706 144.15262,380.533391 145.234615,380.176471 C145.775613,379.99801 146.204143,379.783902 146.469231,379.576471 C146.734318,379.369039 146.815497,379.201233 146.815497,379.070588 C146.815497,379.062647 146.815636,379.054979 146.815497,379.047059 C146.77925,377.911003 144.157896,377 140.907692,377 Z M135,380.252941 L135,382.988235 C135.000541,382.999994 135.000541,383.011771 135,383.023529 C135,383.154174 135.081066,383.321978 135.346154,383.529412 C135.611242,383.736845 136.039772,383.95095 136.580769,384.129412 C137.662765,384.486344 139.201041,384.717647 140.907692,384.717647 C142.614343,384.717647 144.15262,384.486344 145.234615,384.129412 C145.775613,383.95095 146.204143,383.736845 146.469231,383.529412 C146.734319,383.321978 146.815385,383.154174 146.815385,383.023529 L146.815385,383 L146.815385,380.252941 C146.460036,380.506443 146.005464,380.71596 145.465385,380.894118 C144.278272,381.285715 142.678457,381.517647 140.907692,381.517647 C139.136928,381.517647 137.537112,381.285715 136.35,380.894118 C135.80992,380.71596 135.355349,380.506443 135,380.252941 Z M135,384.205882 L135,386.752941 C135.000541,386.764699 135.000541,386.776477 135,386.788235 C135,386.918889 135.081066,387.086682 135.346154,387.294118 C135.611241,387.501553 136.039772,387.715652 136.580769,387.894118 C137.662765,388.251031 139.201041,388.482353 140.907692,388.482353 C142.614344,388.482353 144.15262,388.251031 145.234615,387.894118 C145.775613,387.715652 146.204143,387.501553 146.469231,387.294118 C146.734318,387.086682 146.815385,386.918889 146.815385,386.788235 L146.815385,386.764706 L146.815385,384.205882 C146.460036,384.459384 146.005464,384.668897 145.465385,384.847059 C144.278272,385.238664 142.678457,385.470588 140.907692,385.470588 C139.136928,385.470588 137.537112,385.238664 136.35,384.847059 C135.80992,384.668897 135.355348,384.459384 135,384.205882 Z" id="Storage-class"></path>
        </g>
    </g>
</svg>