<?xml version="1.0" encoding="UTF-8"?>
<svg width="15px" height="16px" viewBox="0 0 15 16" version="1.1" xmlns="http://www.w3.org/2000/svg" xmlns:xlink="http://www.w3.org/1999/xlink">
    <!-- Generator: Sketch 62 (91390) - https://sketch.com -->
    <title>uptime</title>
    <desc>Created with Sketch.</desc>
    <g id="Kotsadm" stroke="none" stroke-width="1" fill="none" fill-rule="evenodd">
        <g id="main_spritesheet" transform="translate(-29.000000, -397.000000)" fill="#33BDBC">
            <g id="uptime" transform="translate(29.000000, 397.000000)">
                <path d="M6.96428571,16 C3.11979187,16 0,12.8976645 0,9.06666667 C0,5.2356688 3.11979187,2.13333333 6.96428571,2.13333333 C10.8087796,2.13333333 13.9285714,5.2356688 13.9285714,9.06666667 C13.9285714,12.8976645 10.8087796,16 6.96428571,16 Z M6.96428571,14.9579961 C10.2425119,14.9579961 12.8968254,12.3185345 12.8968254,9.06666667 C12.8968254,5.81479884 10.2425119,3.17533719 6.96428571,3.17533719 C3.68605957,3.17533719 1.03174603,5.81479884 1.03174603,9.06666667 C1.03174603,12.3185345 3.68605957,14.9579961 6.96428571,14.9579961 Z" id="Oval" fill-rule="nonzero"></path>
                <rect id="Rectangle-2" x="5.35714286" y="0" width="3.21428571" height="1.06666667" rx="0.533333333"></rect>
                <rect id="Rectangle-2-Copy-2" x="6.42857143" y="9.6" width="4.01785714" height="1.06666667" rx="0.533333333"></rect>
                <rect id="Rectangle-2-Copy-3" x="6.42857143" y="5.33333333" width="1.07142857" height="5.24800008" rx="0.535714285"></rect>
                <path d="M12.2271335,2.04182783 L14.3747526,2.04182783 C14.6693044,2.04182783 14.9080859,2.28060929 14.9080859,2.57516116 C14.9080859,2.86971303 14.6693044,3.1084945 14.3747526,3.1084945 L12.2271335,3.1084945 C11.9325817,3.1084945 11.6938002,2.86971303 11.6938002,2.57516116 C11.6938002,2.28060929 11.9325817,2.04182783 12.2271335,2.04182783 Z" id="Rectangle-2-Copy" transform="translate(13.300943, 2.575161) rotate(45.000000) translate(-13.300943, -2.575161) "></path>
            </g>
        </g>
    </g>
</svg>