<svg width="50" height="50" viewBox="0 0 50 50" fill="none" xmlns="http://www.w3.org/2000/svg">
<circle cx="25" cy="25" r="25" fill="#E5E5E5"/>
<path d="M39.5588 15.3192C39.359 14.6697 38.8793 14.142 38.2798 13.8173L26.0888 7.89095C25.7691 7.72858 25.4094 7.68799 25.0896 7.68799C24.7698 7.68799 24.4101 7.68799 24.0903 7.76917L11.8994 13.7361C11.2998 14.0202 10.8602 14.5479 10.7003 15.238L7.70252 28.5925C7.58261 29.2826 7.74249 29.9727 8.14219 30.5409L16.5759 41.1353C17.0556 41.6224 17.7351 41.9471 18.4146 41.9877H31.8446C32.564 42.0689 33.2435 41.7441 33.6832 41.1353L42.1169 30.5409C42.5166 29.9727 42.6765 29.2826 42.5966 28.5925L39.5588 15.3192Z" fill="#C5C5C5"/>
<path fill-rule="evenodd" clip-rule="evenodd" d="M24.7226 22.8205C24.6152 22.927 24.4727 22.9852 24.3214 22.9852C24.1688 22.9852 24.0255 22.9259 23.9176 22.8178C23.787 22.6872 23.7203 22.5417 23.7203 22.384C23.7203 22.2326 23.7784 22.0902 23.8849 21.9827L19.1048 17.2C18.8683 16.9635 18.5537 16.833 18.2191 16.833C17.8861 16.833 17.5731 16.962 17.3371 17.1961L15.7461 18.681C15.5073 18.9179 15.376 19.2335 15.376 19.5698C15.376 19.9043 15.5066 20.2188 15.7436 20.4559L20.5239 25.2384C20.6313 25.1319 20.7737 25.0737 20.925 25.0737C21.0774 25.0737 21.2208 25.133 21.3287 25.2411C21.4593 25.3718 21.5259 25.5173 21.5259 25.6751C21.5259 25.8265 21.4678 25.9689 21.3614 26.0764L22.1858 26.9015L23.2611 25.8256C23.2615 25.8252 23.3407 25.7725 23.4172 25.7171C23.5323 25.6337 23.6447 25.5477 23.6451 25.5473L24.4614 24.7317L25.5469 23.6456L24.7226 22.8205Z" fill="white"/>
<path fill-rule="evenodd" clip-rule="evenodd" d="M22.1859 27.3232L23.452 26.0566C23.4597 26.0514 23.4689 26.0451 23.4793 26.0379C23.5099 26.017 23.5511 25.9884 23.5922 25.9586C23.6517 25.9155 23.71 25.8721 23.7534 25.8395C23.7751 25.8231 23.7933 25.8094 23.8061 25.7996L23.8213 25.7881L23.8259 25.7845L23.8281 25.7828L23.8303 25.7811L23.8335 25.7785C23.8342 25.7779 23.8359 25.7766 23.838 25.7748L23.8431 25.7704C23.8454 25.7683 23.8518 25.7623 23.856 25.7582L25.9686 23.6457L24.7237 22.3997L24.5129 22.6087C24.4618 22.6594 24.395 22.687 24.3216 22.687C24.248 22.687 24.1806 22.6591 24.1287 22.6071C24.0429 22.5213 24.0186 22.4482 24.0186 22.384C24.0186 22.3106 24.0461 22.2437 24.0968 22.1926L24.3056 21.9818L19.3158 16.9892C19.0234 16.6967 18.633 16.5348 18.2193 16.5348C17.8093 16.5348 17.4223 16.6937 17.1308 16.981L15.5397 18.4661L15.5365 18.4693C15.2412 18.7621 15.0781 19.1541 15.0781 19.5698C15.0781 19.9837 15.2404 20.374 15.5331 20.6667L20.5232 25.6591L20.7339 25.4502C20.785 25.3995 20.8518 25.3719 20.9252 25.3719C20.9986 25.3719 21.0661 25.3998 21.118 25.4518C21.2037 25.5376 21.2281 25.6107 21.2281 25.6751C21.2281 25.7486 21.2005 25.8154 21.1499 25.8665L20.9411 26.0773L22.1859 27.3232ZM22.186 26.4797L21.7452 26.0385C21.797 25.9257 21.8242 25.8021 21.8242 25.6751C21.8242 25.4238 21.7151 25.2058 21.5396 25.0303C21.3758 24.8662 21.1566 24.7755 20.9252 24.7755C20.7983 24.7755 20.6748 24.8027 20.562 24.8546L15.9546 20.245C15.7732 20.0636 15.6743 19.8248 15.6743 19.5698C15.6743 19.3144 15.7728 19.0762 15.9532 18.8958L17.544 17.4111L17.5472 17.4079C17.7274 17.2292 17.9649 17.1312 18.2193 17.1312C18.4749 17.1312 18.7137 17.2302 18.8942 17.4109L23.5015 22.0206C23.4496 22.1334 23.4224 22.257 23.4224 22.384C23.4224 22.6352 23.5316 22.8531 23.7069 23.0285M22.186 26.4797L23.0506 25.6147C23.063 25.6024 23.0741 25.5936 23.0754 25.5925C23.0788 25.5898 23.0817 25.5877 23.0829 25.5867C23.0856 25.5847 23.0878 25.5832 23.0885 25.5826L23.0922 25.5801L23.0948 25.5783L23.1082 25.5692C23.1165 25.5636 23.1283 25.5556 23.1424 25.546C23.1707 25.5266 23.2073 25.5011 23.2426 25.4755C23.2983 25.4352 23.3536 25.394 23.3953 25.3627C23.4161 25.3471 23.4333 25.334 23.4453 25.3249L23.4486 25.3224L25.1256 23.6456L24.6848 23.2043C24.5721 23.2562 24.4486 23.2834 24.3216 23.2834C24.0902 23.2834 23.8708 23.1927 23.7069 23.0285" fill="#C5C5C5"/>
<path fill-rule="evenodd" clip-rule="evenodd" d="M31.8186 31.0271L30.938 31.0888L24.7848 25.0748L23.6626 26.3386L29.5803 32.257L29.607 33.3572L32.0349 34.7051L33.1633 33.4514L31.8186 31.0271Z" fill="white"/>
<path fill-rule="evenodd" clip-rule="evenodd" d="M32.0975 35.0809L33.527 33.4927L31.9869 30.7163L31.0504 30.782L24.7694 24.643L23.2529 26.3507L29.285 32.3835L29.313 33.5351L32.0975 35.0809ZM29.9006 33.1793L29.8752 32.1305L24.0719 26.3264L24.7999 25.5066L30.8252 31.3956L31.6499 31.3378L32.7993 33.41L31.9719 34.3292L29.9006 33.1793Z" fill="#C5C5C5"/>
<path d="M20.8521 23.3217C20.7345 23.4394 20.544 23.4394 20.4264 23.3217L16.8426 19.7364C16.725 19.6189 16.725 19.4279 16.8426 19.3105C16.9014 19.2516 16.9785 19.2223 17.0556 19.2223C17.1326 19.2223 17.2097 19.2516 17.2685 19.3105L20.8521 22.8958C20.9697 23.0135 20.9697 23.2042 20.8521 23.3217Z" fill="#C5C5C5"/>
<path d="M21.524 22.224L17.9403 18.6387C17.8226 18.5212 17.8226 18.3302 17.9403 18.2127C17.9991 18.1539 18.0761 18.1246 18.1532 18.1246C18.2303 18.1246 18.3074 18.1539 18.3662 18.2127L21.9497 21.7981C22.0674 21.9155 22.0674 22.1065 21.9497 22.224C21.8321 22.3417 21.6416 22.3417 21.524 22.224Z" fill="#C5C5C5"/>
<path fill-rule="evenodd" clip-rule="evenodd" d="M33.4578 25.0655C32.7346 25.789 31.9528 24.85 31.9528 24.85L31.1303 24.0315C31.2513 23.6666 31.2931 23.3823 31.2705 23.1616C31.2537 22.9974 31.2001 22.8755 31.1164 22.7912C31.0004 22.6742 30.8382 22.6297 30.6845 22.6132C30.5564 22.5995 30.4305 22.6071 30.3263 22.6237C30.3031 22.6274 30.2262 22.5869 30.2194 22.5975L30.0225 22.9032L29.7614 22.65C28.8232 21.7401 28.377 21.2649 28.377 21.2649C28.2029 21.0721 27.9217 20.7028 27.9828 20.286C28.0162 20.0579 27.9515 18.9411 27.2277 18.2584C26.8213 17.8751 26.2019 17.6444 25.2839 17.7647C24.443 17.7834 24.3203 17.4106 24.3063 17.3535L23.9336 16.7217C23.9047 16.6798 23.8326 16.5575 23.8327 16.3814C23.8328 16.2859 23.8536 16.1725 23.9234 16.0488C24.0004 15.9125 24.1462 15.7501 24.4378 15.5933C28.3865 13.3823 31.3012 16.624 31.4874 16.8381C31.5988 16.9496 32.8738 18.2253 33.5241 18.8808C33.5607 18.9176 33.5992 18.9564 33.6393 18.997C33.6269 19.0464 33.6154 19.0976 33.6046 19.1505C33.5085 19.6213 33.5167 19.9947 33.7261 20.2038C33.9289 20.4064 34.2905 20.4186 34.7677 20.3155C34.8221 20.3038 34.8744 20.2913 34.9247 20.278C34.9624 20.3166 35.0013 20.356 35.0414 20.3961C35.1569 20.5117 35.2664 20.6168 35.3678 20.7141C35.8318 21.1594 36.1126 21.4807 36.1513 21.8216C36.1857 22.1252 36.0604 22.4725 35.5782 22.9549C35.0375 23.4959 34.5924 23.9376 34.212 24.3151C33.9289 24.5961 33.6817 24.8415 33.4578 25.0655Z" fill="white"/>
<path fill-rule="evenodd" clip-rule="evenodd" d="M29.2512 15.5782C28.0752 15.0487 26.4606 14.8023 24.5833 15.8535L24.5811 15.8547L24.5789 15.8559C24.3283 15.9907 24.2277 16.1161 24.183 16.1954C24.1408 16.2701 24.1308 16.3323 24.1308 16.3815C24.1307 16.4757 24.1699 16.5393 24.179 16.5525L24.185 16.5611L24.5853 17.2397L24.5946 17.2776C24.5985 17.2859 24.6141 17.3134 24.6579 17.3446C24.7269 17.3938 24.8947 17.4727 25.2619 17.4668C26.243 17.3421 26.9518 17.5884 27.4321 18.0414C27.8487 18.4343 28.0668 18.9424 28.1776 19.3674C28.2867 19.786 28.3019 20.1641 28.2777 20.3292C28.2588 20.458 28.2909 20.5917 28.3581 20.7258C28.4249 20.859 28.518 20.9759 28.5961 21.0627L28.5989 21.0656L28.614 21.0816C28.6277 21.096 28.6484 21.1177 28.6762 21.1466C28.7319 21.2045 28.8162 21.2916 28.9298 21.407C29.157 21.6379 29.5014 21.9825 29.9689 22.4359C30.0188 22.3583 30.0895 22.3244 30.1355 22.3105C30.1792 22.2973 30.2161 22.297 30.2346 22.2976C30.2718 22.2988 30.3016 22.3066 30.3119 22.3093C30.324 22.3125 30.3363 22.3164 30.3464 22.3199C30.4576 22.3067 30.5849 22.3027 30.7162 22.3167C30.8957 22.3359 31.1405 22.392 31.328 22.5811C31.4714 22.7258 31.5452 22.9179 31.567 23.1312C31.5912 23.3667 31.556 23.6378 31.4682 23.9471L32.1729 24.6484L32.1811 24.6583L32.1813 24.6586L32.1815 24.6588L32.1817 24.659L32.1854 24.6632C32.1893 24.6677 32.1959 24.6751 32.205 24.6847C32.2232 24.7041 32.2509 24.7323 32.2864 24.7645C32.3589 24.8302 32.4571 24.9067 32.5683 24.9628C32.6798 25.0191 32.7901 25.0479 32.8942 25.0397C32.9917 25.0321 33.1114 24.9902 33.247 24.8546C33.4711 24.6304 33.7184 24.385 34.001 24.1045L34.0021 24.1034C34.3824 23.7259 34.8272 23.2845 35.3675 22.744C35.8216 22.2897 35.8747 22.0277 35.8551 21.8552C35.8439 21.7569 35.7961 21.6409 35.68 21.4851C35.5629 21.3279 35.3923 21.1508 35.1615 20.9293L35.1591 20.927C35.0586 20.8305 34.9477 20.7241 34.8306 20.607C34.5781 20.6615 34.3354 20.6905 34.1178 20.6713C33.8977 20.6519 33.6816 20.5807 33.5155 20.4148C33.3455 20.245 33.2741 20.0239 33.254 19.8023C33.234 19.5826 33.2619 19.3392 33.3126 19.0908C32.6627 18.4358 31.3882 17.1605 31.2767 17.0489L31.2693 17.0416L31.2626 17.0338C31.1818 16.9409 30.4401 16.1135 29.2512 15.5782ZM31.7343 25.0532L30.7893 24.1127L30.8474 23.9376C30.9618 23.5923 30.9906 23.3537 30.974 23.192C30.9622 23.0768 30.9286 23.0252 30.9048 23.0012C30.8603 22.9563 30.7807 22.9234 30.6529 22.9097C30.5552 22.8993 30.4561 22.9049 30.3732 22.9181C30.3711 22.9185 30.369 22.9188 30.3668 22.9191L30.0761 23.3705L29.5539 22.8641C29.0832 22.4075 28.7354 22.0596 28.505 21.8254C28.3897 21.7083 28.3038 21.6196 28.2465 21.56C28.2179 21.5302 28.1964 21.5076 28.1819 21.4925L28.1656 21.4752L28.1613 21.4707L28.1599 21.4692C28.1599 21.4691 28.1597 21.469 28.377 21.2648L28.1597 21.469L28.1578 21.4669L28.1558 21.4647C28.0603 21.359 27.9267 21.1956 27.8252 20.993C27.7235 20.7901 27.6456 20.5307 27.6878 20.2427C27.6971 20.1797 27.6966 19.8854 27.6007 19.5179C27.5066 19.1568 27.3304 18.7651 27.0232 18.4753C26.6935 18.1644 26.1689 17.9495 25.3226 18.0603L25.3066 18.0624L25.2905 18.0627C24.8275 18.0731 24.5172 17.9765 24.3121 17.8304C24.1404 17.708 24.0647 17.5668 24.0322 17.4756L23.6815 16.881C23.6306 16.8043 23.5345 16.6279 23.5347 16.3811C23.5348 16.2395 23.5664 16.0748 23.6639 15.9021C23.7728 15.7092 23.9632 15.5104 24.2943 15.3319C26.3649 14.1734 28.1812 14.4424 29.4958 15.0343C30.7723 15.6091 31.5747 16.4857 31.7052 16.6343C31.8547 16.7838 33.0965 18.0264 33.7357 18.6706C33.7723 18.7075 33.8109 18.7465 33.8511 18.7872L33.9691 18.9064L33.9285 19.0692C33.9173 19.114 33.9067 19.161 33.8967 19.2101C33.8513 19.4324 33.8352 19.6112 33.8477 19.7483C33.8599 19.8833 33.8973 19.9535 33.9367 19.9928C33.9734 20.0294 34.0395 20.0657 34.1702 20.0772C34.3033 20.089 34.48 20.0726 34.7048 20.024C34.7552 20.0131 34.8031 20.0017 34.8486 19.9897L35.0165 19.9453L35.1379 20.0696C35.1749 20.1075 35.213 20.1461 35.2521 20.1853C35.3649 20.298 35.472 20.4008 35.5734 20.4981L35.5741 20.4989C35.8073 20.7227 36.0091 20.9289 36.158 21.1288C36.3081 21.3302 36.4199 21.5454 36.4474 21.7879C36.4968 22.2226 36.2993 22.6553 35.789 23.1657C35.2478 23.7071 34.8023 24.1493 34.4219 24.5268L34.4214 24.5273C34.1383 24.8082 33.8918 25.0529 33.6685 25.2763C33.4425 25.5024 33.1933 25.6145 32.9408 25.6343C32.695 25.6535 32.4742 25.5833 32.2998 25.4952C32.1252 25.4071 31.9828 25.2941 31.886 25.2063C31.837 25.1618 31.798 25.1223 31.7706 25.0931C31.7569 25.0785 31.746 25.0664 31.7381 25.0575C31.7368 25.056 31.7355 25.0546 31.7343 25.0532Z" fill="#C5C5C5"/>
<path fill-rule="evenodd" clip-rule="evenodd" d="M29.3419 23.5861C29.3419 23.5861 21.305 32.3866 19.7919 34.0768C19.3053 34.5642 18.7856 34.7677 18.2977 34.786C17.7253 34.8074 17.1897 34.5714 16.8026 34.1842C16.4149 33.7964 16.1783 33.2586 16.1984 32.6849C16.2156 32.1949 16.4183 31.6738 16.8926 31.1994C18.9858 29.1052 27.3389 21.5793 27.3389 21.5793C27.3389 21.5793 27.413 21.5125 27.5492 21.39L29.5341 23.3757C29.4097 23.5119 29.3419 23.5861 29.3419 23.5861Z" fill="white"/>
<path fill-rule="evenodd" clip-rule="evenodd" d="M27.5601 20.9791L29.9463 23.3664L29.562 23.7872L29.3419 23.5861C29.562 23.7872 29.5621 23.7871 29.562 23.7872L29.5616 23.7876L29.2137 24.1687C28.991 24.4126 28.6712 24.763 28.2826 25.1887C27.5055 26.0401 26.4537 27.1929 25.3545 28.3986C23.1556 30.8106 20.7693 33.4319 20.014 34.2757L20.0086 34.2817L20.0028 34.2875C19.4672 34.824 18.8776 35.0627 18.3088 35.084C17.6463 35.1087 17.0322 34.8356 16.5919 34.3951C16.1508 33.9539 15.8773 33.3378 15.9006 32.6745C15.9206 32.1048 16.1573 31.5132 16.6818 30.9885C17.7345 29.9354 20.3521 27.525 22.6999 25.3837C23.8752 24.3117 24.9851 23.3052 25.8011 22.5668C26.2091 22.1975 26.5437 21.8953 26.7762 21.6854C26.8925 21.5804 26.9833 21.4985 27.045 21.4428L27.1394 21.3578C27.1394 21.3577 27.1394 21.3577 27.3389 21.5793L27.1394 21.3578L27.5601 20.9791ZM29.1233 23.3864L27.5373 21.7998C27.5383 21.8009 27.5383 21.8009 27.5383 21.8009L27.4442 21.8858C27.3825 21.9414 27.2918 22.0232 27.1756 22.1281C26.9432 22.3379 26.6088 22.64 26.201 23.0091C25.3854 23.7472 24.2761 24.7531 23.1015 25.8244C20.7494 27.9696 18.1439 30.3692 17.1033 31.4102C16.6793 31.8345 16.5107 32.2851 16.4963 32.6954C16.4793 33.1794 16.679 33.6389 17.0134 33.9734C17.3471 34.3073 17.8043 34.506 18.2866 34.488C18.6918 34.4728 19.1396 34.3059 19.5755 33.8716C20.3392 33.0187 22.7216 30.4016 24.9141 27.9967C26.0133 26.7909 27.0653 25.638 27.8424 24.7865C28.231 24.3608 28.5508 24.0104 28.7735 23.7665L29.1218 23.3851C29.1218 23.3851 29.1218 23.3851 29.1233 23.3864Z" fill="#C5C5C5"/>
</svg>
