<svg width="83" height="83" viewBox="0 0 83 83" fill="none" xmlns="http://www.w3.org/2000/svg">
<path d="M62.1314 15.2528V73.689C62.1314 75.2634 60.8874 76.5396 59.3527 76.5396H3.7787C2.24407 76.5396 1 75.2634 1 73.689V3.85055C1 2.27623 2.24407 1 3.7787 1H48.2379" fill="white"/>
<path d="M62.1314 15.2528V73.689C62.1314 75.2634 60.8874 76.5396 59.3527 76.5396H3.7787C2.24407 76.5396 1 75.2634 1 73.689V3.85055C1 2.27623 2.24407 1 3.7787 1H48.2379" stroke="#E5E5E5" stroke-width="2"/>
<path d="M62.1318 15.2528H49.6579C48.8739 15.2528 48.2383 14.6172 48.2383 13.8331V1" fill="#D8D8D8"/>
<path d="M62.1318 15.2528H49.6579C48.8739 15.2528 48.2383 14.6172 48.2383 13.8331V1" fill="#E5E5E5"/>
<path d="M10.2358 14.9473H27.287" stroke="#E5E5E5" stroke-width="2" stroke-linecap="round"/>
<path d="M9.90625 10.3661H24.7499" stroke="#E5E5E5" stroke-width="2" stroke-linecap="round" stroke-dasharray="4.06 4.06"/>
<path d="M10.2358 19.5286H34.7976" stroke="#E5E5E5" stroke-width="2" stroke-linecap="round"/>
<path d="M10.2358 24.1098H14.7016" stroke="#C5C5C5" stroke-width="2" stroke-linecap="round"/>
<path d="M17.5435 24.1098H28.4034" stroke="#E5E5E5" stroke-width="2" stroke-linecap="round"/>
<path d="M12.063 28.691H22.0095" stroke="#C5C5C5" stroke-width="2" stroke-linecap="round"/>
<path d="M24.8511 28.691H26.5765" stroke="#E5E5E5" stroke-width="2" stroke-linecap="round"/>
<path d="M12.063 33.2723H20.1826" stroke="#C5C5C5" stroke-width="2" stroke-linecap="round"/>
<path d="M23.0244 33.2723H42.1054" stroke="#E5E5E5" stroke-width="2" stroke-linecap="round"/>
<path d="M12.063 37.8535H16.1228" stroke="#C5C5C5" stroke-width="2" stroke-linecap="round"/>
<path d="M19.269 37.8535H33.8843" stroke="#E5E5E5" stroke-width="2" stroke-linecap="round"/>
<path d="M13.8896 42.4348H27.287" stroke="#C5C5C5" stroke-width="2" stroke-linecap="round"/>
<path d="M30.2305 42.4348H36.6246" stroke="#E5E5E5" stroke-width="2" stroke-linecap="round"/>
<path d="M15.7163 47.016H22.009" stroke="#C5C5C5" stroke-width="2" stroke-linecap="round"/>
<path d="M24.75 47.016H26.5769" stroke="#E5E5E5" stroke-width="2" stroke-linecap="round"/>
<path d="M10.2358 51.5973H14.7016" stroke="#C5C5C5" stroke-width="2" stroke-linecap="round"/>
<path d="M17.5435 51.5973H28.4034" stroke="#E5E5E5" stroke-width="2" stroke-linecap="round"/>
<path d="M12.063 56.1785H22.0095" stroke="#C5C5C5" stroke-width="2" stroke-linecap="round"/>
<path d="M24.8511 56.1785H26.5765" stroke="#E5E5E5" stroke-width="2" stroke-linecap="round"/>
<path d="M12.063 60.7598H20.1826" stroke="#C5C5C5" stroke-width="2" stroke-linecap="round"/>
<path d="M23.0244 60.7598H42.1054" stroke="#E5E5E5" stroke-width="2" stroke-linecap="round"/>
<path d="M12.063 65.341H16.1228" stroke="#C5C5C5" stroke-width="2" stroke-linecap="round"/>
<path d="M19.269 65.341H33.8843" stroke="#E5E5E5" stroke-width="2" stroke-linecap="round"/>
<path d="M72.8829 19.7131V78.1494C72.8829 79.7238 71.6388 81 70.1042 81H14.5302C12.9955 81 11.7515 79.7238 11.7515 78.1494V8.31094C11.7515 6.73662 12.9955 5.46039 14.5302 5.46039H58.9894" fill="white"/>
<path d="M72.8829 19.7131V78.1494C72.8829 79.7238 71.6388 81 70.1042 81H14.5302C12.9955 81 11.7515 79.7238 11.7515 78.1494V8.31094C11.7515 6.73662 12.9955 5.46039 14.5302 5.46039H58.9894" stroke="#D8D8D8" stroke-width="2"/>
<path d="M72.8833 19.7132H60.4094C59.6253 19.7132 58.9897 19.0776 58.9897 18.2935V5.46042" fill="#D8D8D8"/>
<path d="M72.8833 19.7132H60.4094C59.6253 19.7132 58.9897 19.0776 58.9897 18.2935V5.46042" fill="#C5C5C5"/>
<path d="M20.9873 19.4077H38.0384" stroke="#C5C5C5" stroke-width="2" stroke-linecap="round"/>
<path d="M20.6577 14.8265H35.5013" stroke="#C5C5C5" stroke-width="2" stroke-linecap="round" stroke-dasharray="4.06 4.06"/>
<path d="M20.9873 23.989H45.549" stroke="#C5C5C5" stroke-width="2" stroke-linecap="round"/>
<path d="M20.9873 28.5703H25.4531" stroke="#9B9B9B" stroke-width="2" stroke-linecap="round"/>
<path d="M28.2954 28.5703H39.1554" stroke="#C5C5C5" stroke-width="2" stroke-linecap="round"/>
<path d="M22.8149 33.1515H32.7614" stroke="#9B9B9B" stroke-width="2" stroke-linecap="round"/>
<path d="M35.603 33.1515H37.3284" stroke="#C5C5C5" stroke-width="2" stroke-linecap="round"/>
<path d="M22.8149 37.7327H30.9345" stroke="#9B9B9B" stroke-width="2" stroke-linecap="round"/>
<path d="M33.7759 37.7327H52.8569" stroke="#C5C5C5" stroke-width="2" stroke-linecap="round"/>
<path d="M22.8149 42.314H26.8747" stroke="#9B9B9B" stroke-width="2" stroke-linecap="round"/>
<path d="M30.021 42.314H44.6362" stroke="#C5C5C5" stroke-width="2" stroke-linecap="round"/>
<path d="M24.6411 46.8952H38.0384" stroke="#9B9B9B" stroke-width="2" stroke-linecap="round"/>
<path d="M40.9819 46.8952H47.3761" stroke="#C5C5C5" stroke-width="2" stroke-linecap="round"/>
<path d="M26.4683 51.4765H32.7609" stroke="#9B9B9B" stroke-width="2" stroke-linecap="round"/>
<path d="M35.5015 51.4765H37.3284" stroke="#C5C5C5" stroke-width="2" stroke-linecap="round"/>
<path d="M20.9873 56.0577H25.4531" stroke="#9B9B9B" stroke-width="2" stroke-linecap="round"/>
<path d="M28.2954 56.0577H39.1554" stroke="#C5C5C5" stroke-width="2" stroke-linecap="round"/>
<path d="M22.8149 60.6389H32.7614" stroke="#9B9B9B" stroke-width="2" stroke-linecap="round"/>
<path d="M35.603 60.6389H37.3284" stroke="#C5C5C5" stroke-width="2" stroke-linecap="round"/>
<path d="M22.8149 65.2202H30.9345" stroke="#9B9B9B" stroke-width="2" stroke-linecap="round"/>
<path d="M33.7759 65.2202H52.8569" stroke="#C5C5C5" stroke-width="2" stroke-linecap="round"/>
<path d="M22.8149 69.8014H26.8747" stroke="#9B9B9B" stroke-width="2" stroke-linecap="round"/>
<path d="M30.021 69.8014H44.6362" stroke="#C5C5C5" stroke-width="2" stroke-linecap="round"/>
<g filter="url(#filter0_d)">
<path d="M67.844 30.0575C73.6512 30.0575 78.3588 25.3542 78.3588 19.5523C78.3588 13.7504 73.6512 9.047 67.844 9.047C62.0368 9.047 57.3291 13.7504 57.3291 19.5523C57.3291 25.3542 62.0368 30.0575 67.844 30.0575Z" fill="white"/>
</g>
<path fill-rule="evenodd" clip-rule="evenodd" d="M72.9274 16.1115C72.8574 15.8877 72.6894 15.7059 72.4795 15.5941L68.2107 13.5522C68.0987 13.4963 67.9727 13.4823 67.8608 13.4823C67.7488 13.4823 67.6228 13.4823 67.5109 13.5103L63.242 15.5661C63.0321 15.664 62.8781 15.8458 62.8221 16.0835L61.7724 20.6847C61.7304 20.9224 61.7864 21.1602 61.9264 21.356L64.8796 25.0061C65.0475 25.174 65.2855 25.2858 65.5234 25.2998H70.2261C70.478 25.3278 70.716 25.2159 70.8699 25.0061L73.8231 21.356C73.9631 21.1602 74.0191 20.9224 73.9911 20.6847L72.9274 16.1115Z" fill="#326DE6"/>
<path fill-rule="evenodd" clip-rule="evenodd" d="M72.2694 20.5029C72.2554 20.5029 72.2414 20.5029 72.2414 20.4889C72.2414 20.4749 72.2135 20.4749 72.1855 20.4749C72.1295 20.4609 72.0735 20.4609 72.0175 20.4609C71.9895 20.4609 71.9615 20.4609 71.9335 20.4469H71.9195C71.7656 20.4329 71.5976 20.405 71.4437 20.363C71.4017 20.349 71.3597 20.3071 71.3457 20.2651L71.2337 20.2371C71.2897 19.8316 71.2617 19.412 71.1777 19.0064C71.0798 18.6009 70.9118 18.2093 70.6879 17.8596L70.7718 17.7757V17.7617C70.7718 17.7198 70.7858 17.6638 70.8138 17.6359C70.9398 17.524 71.0658 17.4401 71.2057 17.3562L71.2897 17.3142C71.3177 17.3002 71.3422 17.2862 71.3667 17.2723L71.3667 17.2723C71.3912 17.2583 71.4157 17.2443 71.4437 17.2303C71.4507 17.2233 71.4577 17.2198 71.4647 17.2163C71.4717 17.2128 71.4787 17.2093 71.4857 17.2023C71.4943 17.1937 71.4923 17.1904 71.4894 17.1858C71.4877 17.183 71.4857 17.1797 71.4857 17.1744C71.6116 17.0765 71.6396 16.9086 71.5416 16.7828C71.4997 16.7268 71.4157 16.6849 71.3457 16.6849C71.2757 16.6849 71.2057 16.7128 71.1497 16.7548L71.1357 16.7688C71.1218 16.7828 71.1078 16.7968 71.0938 16.7968L71.0938 16.7968C71.0518 16.8387 71.0098 16.8807 70.9818 16.9226C70.972 16.9421 70.9555 16.9548 70.9416 16.9655L70.9416 16.9655C70.9356 16.9701 70.93 16.9743 70.9258 16.9786C70.8278 17.0905 70.7019 17.2023 70.5759 17.2862C70.5479 17.3002 70.5199 17.3142 70.4919 17.3142C70.4779 17.3142 70.4499 17.3142 70.4359 17.3002H70.4219L70.31 17.3702C70.254 17.3142 70.1945 17.2583 70.135 17.2023C70.0755 17.1464 70.0161 17.0905 69.9601 17.0345C69.4422 16.6289 68.7984 16.3772 68.1406 16.3073L68.1266 16.1954V16.2094C68.0846 16.1814 68.0706 16.1395 68.0566 16.0975C68.0566 15.9437 68.0566 15.7898 68.0846 15.622V15.608C68.0846 15.594 68.0881 15.58 68.0916 15.5661C68.0951 15.5521 68.0986 15.5381 68.0986 15.5241C68.1056 15.4961 68.1091 15.4682 68.1126 15.4402C68.1161 15.4122 68.1196 15.3842 68.1266 15.3563V15.2724C68.1406 15.1325 68.0286 14.9927 67.8886 14.9787C67.8047 14.9647 67.7207 15.0066 67.6507 15.0766C67.5947 15.1325 67.5667 15.2024 67.5667 15.2724V15.3423C67.5667 15.3982 67.5807 15.4542 67.5947 15.5101C67.6087 15.5381 67.6087 15.5661 67.6087 15.594V15.608C67.6367 15.7619 67.6367 15.9157 67.6367 16.0835C67.6227 16.1255 67.6087 16.1674 67.5667 16.1954V16.2234L67.5527 16.3352C67.421 16.3472 67.2893 16.3694 67.1488 16.3931L67.1488 16.3931L67.0769 16.4052C66.419 16.545 65.8172 16.8947 65.3553 17.3841L65.2714 17.3282H65.2574C65.2516 17.3282 65.2458 17.3306 65.239 17.3334C65.2294 17.3374 65.2178 17.3422 65.2014 17.3422C65.1734 17.3422 65.1454 17.3282 65.1174 17.3142C64.9914 17.2163 64.8655 17.1044 64.7675 16.9926C64.7577 16.9731 64.7412 16.9603 64.7273 16.9497C64.7213 16.9451 64.7157 16.9408 64.7115 16.9366C64.6905 16.9156 64.673 16.8947 64.6555 16.8737C64.638 16.8527 64.6205 16.8317 64.5995 16.8107C64.5925 16.8038 64.5855 16.8003 64.5785 16.7968C64.5715 16.7933 64.5645 16.7898 64.5575 16.7828L64.5436 16.7688C64.4876 16.7268 64.4176 16.6989 64.3476 16.6989C64.2636 16.6989 64.1936 16.7268 64.1517 16.7968C64.0677 16.9226 64.0957 17.0905 64.2076 17.1883C64.2216 17.1883 64.2216 17.2023 64.2216 17.2023C64.2216 17.2023 64.2496 17.2303 64.2636 17.2303C64.3056 17.2583 64.3616 17.2862 64.4176 17.3142L64.5016 17.3562C64.6415 17.4401 64.7815 17.524 64.8935 17.6359C64.919 17.6614 64.9446 17.7103 64.9382 17.7505L64.9354 17.7478V17.7617C64.9367 17.7581 64.9376 17.7543 64.9382 17.7505L65.0194 17.8317C65.0124 17.8457 65.0054 17.8561 64.9984 17.8666C64.9914 17.8771 64.9844 17.8876 64.9774 17.9016C64.5436 18.5869 64.3616 19.398 64.4876 20.1952L64.3756 20.2231C64.3756 20.2371 64.3616 20.2371 64.3616 20.2371C64.3476 20.2791 64.3056 20.3071 64.2636 20.335C64.1097 20.377 63.9557 20.405 63.7878 20.4189C63.7598 20.4189 63.7318 20.4189 63.7038 20.4329C63.6758 20.4329 63.6478 20.4364 63.6198 20.4399L63.6198 20.4399L63.6198 20.4399C63.5918 20.4434 63.5638 20.4469 63.5358 20.4469C63.53 20.4469 63.5242 20.4493 63.5174 20.4521C63.5078 20.4561 63.4962 20.4609 63.4798 20.4609C63.4739 20.4609 63.4705 20.4609 63.4674 20.462C63.4633 20.4634 63.4599 20.4668 63.4518 20.4749C63.2979 20.5029 63.1999 20.6427 63.2279 20.7965C63.2559 20.9224 63.3819 21.0063 63.5078 20.9923C63.5358 20.9923 63.5498 20.9923 63.5778 20.9783C63.5918 20.9783 63.5918 20.9783 63.5918 20.9644C63.5918 20.9546 63.6122 20.9585 63.6293 20.9617L63.6293 20.9617C63.6368 20.9631 63.6436 20.9644 63.6478 20.9644C63.6829 20.9556 63.7181 20.9413 63.7498 20.9284L63.7498 20.9284L63.7498 20.9284L63.7499 20.9284L63.7499 20.9284C63.7686 20.9207 63.7862 20.9136 63.8018 20.9084C63.8297 20.8944 63.8577 20.8805 63.8857 20.8805H63.8997C64.0537 20.8245 64.1936 20.7826 64.3616 20.7546H64.3756C64.4176 20.7546 64.4596 20.7686 64.4876 20.7965C64.5016 20.7965 64.5016 20.8105 64.5016 20.8105L64.6275 20.7965C64.8375 21.4399 65.2294 22.0133 65.7752 22.4328C65.9012 22.5307 66.0131 22.6146 66.1531 22.6846L66.0831 22.7824C66.0831 22.7964 66.0971 22.7964 66.0971 22.7964C66.1251 22.8384 66.1251 22.8943 66.1111 22.9363C66.0551 23.0761 65.9712 23.216 65.8872 23.3419V23.3558C65.8732 23.3838 65.8592 23.3978 65.8312 23.4258C65.8155 23.4415 65.7998 23.466 65.7816 23.4944C65.7674 23.5166 65.7516 23.5411 65.7332 23.5656C65.7262 23.5726 65.7227 23.5796 65.7192 23.5866C65.7157 23.5936 65.7122 23.6006 65.7052 23.6076C65.7052 23.6076 65.7052 23.6216 65.6912 23.6216C65.6213 23.7614 65.6772 23.9292 65.8032 23.9992C65.8312 24.0131 65.8732 24.0271 65.9012 24.0271C66.0131 24.0271 66.1111 23.9572 66.1671 23.8593C66.1671 23.8593 66.1671 23.8453 66.1811 23.8453C66.1811 23.8313 66.1951 23.8174 66.2091 23.8034C66.2161 23.7754 66.2266 23.7509 66.2371 23.7265L66.2371 23.7264C66.2476 23.702 66.2581 23.6775 66.2651 23.6495L66.2931 23.5656C66.3351 23.4118 66.405 23.2719 66.475 23.1321C66.503 23.0901 66.545 23.0622 66.587 23.0482C66.601 23.0482 66.601 23.0482 66.601 23.0342L66.657 22.9223C67.0489 23.0761 67.4548 23.1461 67.8746 23.1461C68.1266 23.1461 68.3785 23.1181 68.6304 23.0482C68.7452 23.0273 68.86 22.9909 68.9689 22.9564L68.969 22.9564L68.969 22.9563C69.0062 22.9446 69.0427 22.933 69.0783 22.9223L69.1343 23.0202C69.1413 23.0202 69.1448 23.0202 69.1465 23.0219C69.1483 23.0237 69.1483 23.0272 69.1483 23.0342C69.1903 23.0482 69.2323 23.0761 69.2603 23.1181C69.3302 23.2579 69.4002 23.3978 69.4422 23.5516V23.5656L69.4702 23.6495C69.4842 23.7055 69.4982 23.7614 69.5262 23.8034C69.5332 23.8104 69.5367 23.8174 69.5402 23.8243C69.5437 23.8313 69.5472 23.8383 69.5542 23.8453C69.5542 23.8453 69.5542 23.8593 69.5682 23.8593C69.6242 23.9572 69.7221 24.0271 69.8341 24.0271C69.8673 24.0271 69.8918 24.0184 69.9213 24.0078L69.9214 24.0078C69.9292 24.005 69.9373 24.0021 69.9461 23.9992C70.0021 23.9712 70.058 23.9153 70.072 23.8453C70.086 23.7754 70.086 23.7055 70.058 23.6355C70.058 23.6216 70.044 23.6216 70.044 23.6216C70.044 23.6076 70.0301 23.5936 70.0161 23.5796C69.9881 23.5237 69.9601 23.4817 69.9181 23.4398C69.9041 23.4118 69.8901 23.3978 69.8621 23.3698L69.8621 23.3698V23.3419C69.7641 23.216 69.6941 23.0761 69.6382 22.9363C69.6242 22.8943 69.6242 22.8384 69.6522 22.7964C69.6522 22.7824 69.6662 22.7824 69.6662 22.7824L69.6242 22.6706C70.338 22.237 70.8838 21.5657 71.1357 20.7686L71.2477 20.7826C71.2617 20.7826 71.2617 20.7686 71.2617 20.7686C71.2897 20.7406 71.3317 20.7266 71.3737 20.7266H71.3877C71.5416 20.7546 71.6956 20.7965 71.8356 20.8525H71.8496C71.8775 20.8665 71.9055 20.8805 71.9335 20.8805C71.948 20.8877 71.9615 20.8949 71.9746 20.9019C72.0121 20.9219 72.046 20.94 72.0875 20.9504C72.0933 20.9504 72.0991 20.9528 72.1059 20.9556C72.1155 20.9596 72.1271 20.9644 72.1435 20.9644C72.1575 20.9644 72.1575 20.9644 72.1715 20.9783C72.1995 20.9923 72.2135 20.9923 72.2414 20.9923C72.3674 20.9923 72.4794 20.9084 72.5214 20.7965C72.5074 20.6427 72.3954 20.5308 72.2694 20.5029ZM68.2245 20.0694L67.8466 20.2512L67.4687 20.0694L67.3707 19.6638L67.6366 19.3282H68.0565L68.3224 19.6638L68.2245 20.0694ZM70.5621 20.0414C70.5901 19.7477 70.5761 19.454 70.5061 19.1603C70.4361 18.8667 70.3242 18.587 70.1702 18.3352L69.1205 19.2862C69.0925 19.3142 69.0785 19.3422 69.0645 19.3841C69.0365 19.51 69.1065 19.6358 69.2325 19.6638L70.5621 20.0414ZM69.75 17.8177L68.6024 18.6289C68.5044 18.6848 68.3644 18.6708 68.2944 18.5729C68.2664 18.545 68.2524 18.517 68.2524 18.475L68.1685 17.0625C68.7843 17.1325 69.3302 17.3982 69.75 17.8177ZM67.4969 17.0486L67.217 17.1045C66.7271 17.2164 66.2793 17.4682 65.9154 17.8178L67.077 18.6429C67.0858 18.6458 67.0939 18.6487 67.1016 18.6515L67.1017 18.6515L67.1017 18.6515L67.1017 18.6515L67.1018 18.6515C67.1313 18.6621 67.1558 18.6709 67.189 18.6709C67.315 18.6709 67.427 18.573 67.427 18.4471L67.4969 17.0486ZM65.5092 18.3352L66.5449 19.2582C66.6429 19.3422 66.6569 19.482 66.5729 19.5799C66.5449 19.6219 66.517 19.6358 66.461 19.6498L65.1033 20.0414C65.0614 19.454 65.2013 18.8527 65.5092 18.3352ZM66.657 20.461L65.2713 20.6987C65.4673 21.2582 65.8592 21.7476 66.349 22.0693L66.8809 20.7827C66.9089 20.7407 66.9089 20.6848 66.8949 20.6428C66.8809 20.5309 66.7689 20.461 66.657 20.461ZM68.4486 22.4329C68.2527 22.4749 68.0567 22.5029 67.8468 22.5029C67.5529 22.5029 67.245 22.4469 66.965 22.363L67.6509 21.1183C67.7208 21.0344 67.8328 21.0064 67.9308 21.0624C67.9728 21.0904 68.0008 21.1183 68.0427 21.1603L68.7146 22.377C68.6306 22.391 68.5466 22.405 68.4486 22.4329ZM69.3165 22.0553C69.6524 21.8455 69.9463 21.5518 70.1562 21.2162C70.2682 21.0623 70.3522 20.8805 70.4222 20.6847L69.0226 20.447C68.9806 20.447 68.9386 20.461 68.8966 20.4749C68.7986 20.5169 68.7426 20.6288 68.7706 20.7407L69.3165 22.0553Z" fill="white"/>
<g filter="url(#filter1_d)">
<path d="M67.844 54.1986C73.6512 54.1986 78.3588 49.4952 78.3588 43.6933C78.3588 37.8914 73.6512 33.1881 67.844 33.1881C62.0368 33.1881 57.3291 37.8914 57.3291 43.6933C57.3291 49.4952 62.0368 54.1986 67.844 54.1986Z" fill="white"/>
</g>
<path d="M67.675 37.7863C64.5238 37.7863 61.9797 38.6922 61.9272 39.824C61.9278 39.8358 61.9278 39.8476 61.9272 39.8593C61.9272 39.9901 62.0061 40.1581 62.264 40.3658C62.5219 40.5735 62.9389 40.7879 63.4652 40.9665C64.5179 41.3239 66.0146 41.5554 67.675 41.5554C69.3355 41.5554 70.8321 41.3239 71.8848 40.9665C72.4112 40.7879 72.8281 40.5735 73.086 40.3658C73.3439 40.1581 73.4229 39.9901 73.4229 39.8593C73.4229 39.8514 73.4231 39.8437 73.4229 39.8358C73.3877 38.6984 70.8373 37.7863 67.675 37.7863ZM61.9272 41.0431V43.7816C61.9278 43.7933 61.9278 43.8051 61.9272 43.8169C61.9272 43.9477 62.0061 44.1157 62.264 44.3234C62.5219 44.531 62.9389 44.7454 63.4652 44.9241C64.5179 45.2814 66.0146 45.513 67.675 45.513C69.3355 45.513 70.8321 45.2814 71.8848 44.9241C72.4112 44.7454 72.8281 44.531 73.086 44.3234C73.3439 44.1157 73.4228 43.9477 73.4228 43.8169V43.7933V41.0431C73.0771 41.2969 72.6348 41.5066 72.1094 41.685C70.9544 42.0771 69.3979 42.3093 67.675 42.3093C65.9522 42.3093 64.3957 42.0771 63.2407 41.685C62.7152 41.5066 62.273 41.2969 61.9272 41.0431ZM61.9272 45.0006V47.5507C61.9278 47.5624 61.9278 47.5742 61.9272 47.586C61.9272 47.7168 62.0061 47.8848 62.264 48.0925C62.5219 48.3001 62.9389 48.5145 63.4652 48.6932C64.5179 49.0505 66.0146 49.2821 67.675 49.2821C69.3355 49.2821 70.8321 49.0505 71.8848 48.6932C72.4112 48.5145 72.8281 48.3001 73.086 48.0925C73.3439 47.8848 73.4228 47.7168 73.4228 47.586V47.5624V45.0006C73.0771 45.2544 72.6348 45.4642 72.1094 45.6425C70.9544 46.0346 69.3979 46.2668 67.675 46.2668C65.9522 46.2668 64.3957 46.0346 63.2407 45.6425C62.7152 45.4642 62.273 45.2544 61.9272 45.0006Z" fill="#44BB66"/>
<g filter="url(#filter2_d)">
<path d="M67.844 78.3396C73.6512 78.3396 78.3588 73.6362 78.3588 67.8343C78.3588 62.0324 73.6512 57.3291 67.844 57.3291C62.0368 57.3291 57.3291 62.0324 57.3291 67.8343C57.3291 73.6362 62.0368 78.3396 67.844 78.3396Z" fill="white"/>
</g>
<path d="M66.6754 63.0464C66.3476 62.7324 66.0471 62.464 65.7876 62.2456C67.4608 61.6646 69.3085 61.887 70.7958 62.8485C69.9035 62.8692 69.0185 63.0147 68.1665 63.2807C68.0042 63.0464 67.7529 62.8887 67.4712 62.8444C67.1894 62.8001 66.9019 62.8731 66.6754 63.0464ZM65.2025 67.1416C65.9318 67.8392 66.7849 68.3947 67.718 68.7796C68.3835 69.0476 69.0874 69.2081 69.8033 69.2551C69.8459 69.0388 69.9568 68.8418 70.1197 68.6932C69.512 67.3047 68.7103 66.0094 67.7385 64.846C67.317 65.0388 66.8186 64.9282 66.5183 64.5753C66.3002 64.7226 66.0912 64.8829 65.8923 65.0553C65.5946 65.3167 65.3203 65.6037 65.0728 65.913C65.3825 66.2472 65.4353 66.7453 65.2025 67.137V67.1416ZM71.3877 63.2944C70.3563 63.2649 69.3269 63.4024 68.3395 63.7016C68.4014 64.0178 68.3093 64.3446 68.0914 64.5821C69.0713 65.7586 69.8827 67.0657 70.5022 68.4657C70.6074 68.432 70.7172 68.4151 70.8277 68.4156C71.087 68.4154 71.3371 68.5119 71.5289 68.6863C72.1389 68.3213 72.7716 67.9954 73.4229 67.7103C73.4229 67.7103 73.4229 67.6944 73.4229 67.6853C73.429 65.9905 72.6848 64.3797 71.39 63.2853L71.3877 63.2944ZM70.1197 70.238C68.64 71.4915 67.9753 72.711 67.6907 73.4231C68.9272 73.4241 70.1307 73.025 71.1214 72.2855C71.041 71.6865 70.9201 71.0936 70.7594 70.511C70.5211 70.4936 70.296 70.3948 70.122 70.2311L70.1197 70.238ZM69.9535 69.8603C69.9241 69.8031 69.8914 69.7477 69.8557 69.6942C69.0745 69.6453 68.3061 69.4725 67.5792 69.1823C66.5935 68.7788 65.6906 68.1973 64.9157 67.4669C64.6623 67.6491 64.3393 67.7052 64.0392 67.6193C63.5344 68.7497 63.2249 69.9575 63.1241 71.1912C64.1336 72.4757 65.6356 73.2787 67.265 73.4049C67.5405 72.6405 68.1324 71.264 69.9535 69.8603ZM71.8248 69.1163C71.8631 69.226 71.8824 69.3414 71.8817 69.4576C71.8817 69.4917 71.8817 69.5236 71.8817 69.5577C71.842 69.9584 71.5768 70.3012 71.1988 70.4404C71.3339 70.9376 71.4411 71.442 71.5198 71.9511C72.5984 70.9829 73.2702 69.6426 73.4001 68.1995C72.8505 68.4497 72.3154 68.7307 71.7975 69.0413C71.8078 69.0658 71.817 69.0909 71.8248 69.1163ZM63.2425 66.6137C63.243 66.3554 63.3396 66.1065 63.5134 65.9153C63.2338 65.537 62.9754 65.1436 62.7394 64.7368C61.6565 66.5511 61.6565 68.8127 62.7394 70.627C62.8711 69.518 63.1713 68.4355 63.6295 67.4168C63.3844 67.2184 63.2422 66.9199 63.2425 66.6046V66.6137ZM63.8776 65.6491C64.1427 65.5343 64.4435 65.5343 64.7085 65.6491C64.9775 65.3143 65.2753 65.0037 65.5986 64.7209C65.8216 64.5266 66.0565 64.3465 66.3021 64.1817C66.217 63.9169 66.2476 63.6287 66.3863 63.3877C65.9788 62.9941 65.6123 62.6778 65.3186 62.4367C64.3999 62.8506 63.6057 63.4977 63.0148 64.3136C63.2748 64.7695 63.5629 65.2087 63.8776 65.6286V65.6491Z" fill="#A048F8"/>
<defs>
<filter id="filter0_d" x="53.3291" y="5.047" width="29.0297" height="29.0105" filterUnits="userSpaceOnUse" color-interpolation-filters="sRGB">
<feFlood flood-opacity="0" result="BackgroundImageFix"/>
<feColorMatrix in="SourceAlpha" type="matrix" values="0 0 0 0 0 0 0 0 0 0 0 0 0 0 0 0 0 0 127 0"/>
<feOffset/>
<feGaussianBlur stdDeviation="2"/>
<feColorMatrix type="matrix" values="0 0 0 0 0 0 0 0 0 0 0 0 0 0 0 0 0 0 0.16 0"/>
<feBlend mode="normal" in2="BackgroundImageFix" result="effect1_dropShadow"/>
<feBlend mode="normal" in="SourceGraphic" in2="effect1_dropShadow" result="shape"/>
</filter>
<filter id="filter1_d" x="53.3291" y="29.1881" width="29.0297" height="29.0105" filterUnits="userSpaceOnUse" color-interpolation-filters="sRGB">
<feFlood flood-opacity="0" result="BackgroundImageFix"/>
<feColorMatrix in="SourceAlpha" type="matrix" values="0 0 0 0 0 0 0 0 0 0 0 0 0 0 0 0 0 0 127 0"/>
<feOffset/>
<feGaussianBlur stdDeviation="2"/>
<feColorMatrix type="matrix" values="0 0 0 0 0 0 0 0 0 0 0 0 0 0 0 0 0 0 0.16 0"/>
<feBlend mode="normal" in2="BackgroundImageFix" result="effect1_dropShadow"/>
<feBlend mode="normal" in="SourceGraphic" in2="effect1_dropShadow" result="shape"/>
</filter>
<filter id="filter2_d" x="53.3291" y="53.3291" width="29.0297" height="29.0105" filterUnits="userSpaceOnUse" color-interpolation-filters="sRGB">
<feFlood flood-opacity="0" result="BackgroundImageFix"/>
<feColorMatrix in="SourceAlpha" type="matrix" values="0 0 0 0 0 0 0 0 0 0 0 0 0 0 0 0 0 0 127 0"/>
<feOffset/>
<feGaussianBlur stdDeviation="2"/>
<feColorMatrix type="matrix" values="0 0 0 0 0 0 0 0 0 0 0 0 0 0 0 0 0 0 0.16 0"/>
<feBlend mode="normal" in2="BackgroundImageFix" result="effect1_dropShadow"/>
<feBlend mode="normal" in="SourceGraphic" in2="effect1_dropShadow" result="shape"/>
</filter>
</defs>
</svg>
