<svg width="19" height="18" viewBox="0 0 19 18" fill="none" xmlns="http://www.w3.org/2000/svg">
<mask id="mask0" mask-type="alpha" maskUnits="userSpaceOnUse" x="0" y="0" width="19" height="18">
<path fill-rule="evenodd" clip-rule="evenodd" d="M0 0H18.9647V17.5947H0V0Z" fill="white"/>
</mask>
<g mask="url(#mask0)">
<path fill-rule="evenodd" clip-rule="evenodd" d="M9.48241 -6.10352e-05C4.24611 -6.10352e-05 0 4.03815 0 9.02008C0 13.0053 2.717 16.3864 6.48465 17.5791C6.95855 17.6626 7.13254 17.3834 7.13254 17.1452C7.13254 16.9303 7.12374 16.2196 7.11966 15.4658C4.48164 16.0115 3.92499 14.4016 3.92499 14.4016C3.49364 13.3591 2.87214 13.0817 2.87214 13.0817C2.0118 12.5219 2.93699 12.5334 2.93699 12.5334C3.88919 12.597 4.39057 13.4631 4.39057 13.4631C5.23631 14.8419 6.60886 14.4432 7.14997 14.2128C7.23507 13.6299 7.48082 13.2319 7.752 13.0066C5.64583 12.7787 3.43178 12.0051 3.43178 8.54882C3.43178 7.56417 3.8022 6.75937 4.40879 6.12768C4.31033 5.90049 3.98576 4.98306 4.50064 3.74061C4.50064 3.74061 5.29707 3.49833 7.10898 4.66535C7.86537 4.4655 8.67656 4.36527 9.48241 4.36168C10.2883 4.36527 11.1001 4.4655 11.8579 4.66535C13.6678 3.49833 14.4629 3.74061 14.4629 3.74061C14.9791 4.98306 14.6545 5.90049 14.556 6.12768C15.164 6.75937 15.5318 7.56417 15.5318 8.54882C15.5318 12.0134 13.3135 12.7761 11.202 12.9994C11.5421 13.2794 11.8452 13.8283 11.8452 14.6698C11.8452 15.8767 11.8343 16.8481 11.8343 17.1452C11.8343 17.3854 12.0049 17.6665 12.4855 17.5781C16.2511 16.384 18.9648 13.0041 18.9648 9.02008C18.9648 4.03815 14.7193 -6.10352e-05 9.48241 -6.10352e-05" fill="#181717"/>
</g>
<path fill-rule="evenodd" clip-rule="evenodd" d="M3.59137 12.9508C3.57048 12.9957 3.49637 13.0092 3.42885 12.9784C3.35991 12.9488 3.32144 12.8877 3.34374 12.8428C3.36415 12.7968 3.43827 12.7839 3.50705 12.8147C3.57582 12.8441 3.61508 12.9058 3.59137 12.9508" fill="#181717"/>
<path fill-rule="evenodd" clip-rule="evenodd" d="M3.97567 13.3583C3.93045 13.3982 3.84189 13.3797 3.78206 13.3167C3.71988 13.2538 3.70842 13.1695 3.75427 13.1292C3.8009 13.0893 3.88664 13.108 3.94866 13.1709C4.01084 13.2345 4.02294 13.3178 3.97567 13.3583" fill="#181717"/>
<path fill-rule="evenodd" clip-rule="evenodd" d="M4.34938 13.8778C4.29128 13.9163 4.19612 13.8803 4.13739 13.7999C4.07929 13.7197 4.07929 13.6235 4.13881 13.585C4.19753 13.5465 4.29128 13.5813 4.35079 13.6607C4.40873 13.7423 4.40873 13.8385 4.34938 13.8778" fill="#181717"/>
<path fill-rule="evenodd" clip-rule="evenodd" d="M4.86176 14.3797C4.80978 14.4342 4.69908 14.4196 4.61805 14.3452C4.53515 14.2725 4.51206 14.1692 4.56404 14.1147C4.6168 14.0601 4.72813 14.0754 4.80978 14.1492C4.89206 14.2218 4.91719 14.3258 4.86176 14.3797" fill="#181717"/>
<path fill-rule="evenodd" clip-rule="evenodd" d="M5.56828 14.6712C5.54535 14.7418 5.43873 14.7738 5.33133 14.7437C5.22408 14.7128 5.15389 14.6302 5.17556 14.5588C5.19786 14.4876 5.30495 14.4543 5.41314 14.4864C5.52023 14.5172 5.59058 14.5993 5.56828 14.6712" fill="#181717"/>
<path fill-rule="evenodd" clip-rule="evenodd" d="M6.3444 14.7251C6.34707 14.7995 6.256 14.8612 6.14326 14.8625C6.02988 14.8651 5.93802 14.8047 5.93677 14.7315C5.93677 14.6564 6.02596 14.5955 6.13917 14.5935C6.25192 14.5914 6.3444 14.6513 6.3444 14.7251" fill="#181717"/>
<path fill-rule="evenodd" clip-rule="evenodd" d="M7.0664 14.6083C7.07991 14.6807 7.00155 14.7552 6.88959 14.7751C6.77952 14.7944 6.67761 14.7494 6.66364 14.6776C6.64997 14.6032 6.72959 14.5286 6.83966 14.5094C6.95178 14.4909 7.05211 14.5345 7.0664 14.6083" fill="#181717"/>
</svg>
