<svg width="460" height="152" viewBox="0 0 460 152" fill="none" xmlns="http://www.w3.org/2000/svg">
<path d="M391.638 144.687H387.366L386.338 148H384.712L388.843 135.203H390.205L394.266 148H392.648L391.638 144.687ZM387.806 143.271H391.207L389.52 137.717L387.806 143.271ZM397.799 138.49L397.913 139.896C398.259 139.404 398.684 139.021 399.188 138.745C399.691 138.464 400.254 138.32 400.875 138.314C401.373 138.314 401.824 138.385 402.229 138.525C402.639 138.666 402.987 138.886 403.274 139.185C403.562 139.483 403.781 139.864 403.934 140.327C404.092 140.784 404.171 141.329 404.171 141.962V148H402.545V141.997C402.545 141.575 402.498 141.218 402.404 140.925C402.311 140.632 402.17 140.395 401.982 140.213C401.801 140.031 401.575 139.899 401.306 139.817C401.042 139.735 400.737 139.694 400.392 139.694C399.847 139.694 399.366 139.832 398.95 140.107C398.54 140.377 398.212 140.734 397.966 141.18V148H396.34V138.49H397.799ZM413.399 148C413.335 147.877 413.282 147.725 413.241 147.543C413.206 147.355 413.18 147.162 413.162 146.963C412.998 147.127 412.813 147.282 412.608 147.429C412.409 147.575 412.187 147.704 411.94 147.815C411.7 147.927 411.442 148.015 411.167 148.079C410.892 148.144 410.599 148.176 410.288 148.176C409.784 148.176 409.327 148.103 408.917 147.956C408.513 147.81 408.167 147.613 407.88 147.367C407.599 147.115 407.379 146.819 407.221 146.479C407.068 146.134 406.992 145.762 406.992 145.363C406.992 144.842 407.095 144.385 407.3 143.992C407.511 143.6 407.807 143.274 408.188 143.017C408.568 142.753 409.025 142.557 409.559 142.428C410.098 142.299 410.698 142.234 411.36 142.234H413.136V141.487C413.136 141.2 413.083 140.942 412.978 140.714C412.872 140.485 412.723 140.292 412.529 140.134C412.336 139.97 412.099 139.844 411.817 139.756C411.542 139.668 411.231 139.624 410.886 139.624C410.563 139.624 410.273 139.665 410.016 139.747C409.764 139.829 409.55 139.938 409.374 140.072C409.198 140.207 409.061 140.368 408.961 140.556C408.867 140.737 408.82 140.928 408.82 141.127H407.186C407.191 140.781 407.279 140.441 407.449 140.107C407.625 139.773 407.874 139.475 408.196 139.211C408.524 138.941 408.92 138.725 409.383 138.561C409.852 138.396 410.382 138.314 410.974 138.314C411.513 138.314 412.014 138.382 412.477 138.517C412.939 138.646 413.338 138.845 413.672 139.114C414.012 139.378 414.278 139.709 414.472 140.107C414.665 140.506 414.762 140.972 414.762 141.505V145.926C414.762 146.242 414.791 146.579 414.85 146.937C414.908 147.288 414.99 147.596 415.096 147.859V148H413.399ZM410.525 146.761C410.842 146.761 411.138 146.72 411.413 146.638C411.688 146.556 411.938 146.447 412.16 146.312C412.389 146.178 412.585 146.025 412.749 145.855C412.913 145.68 413.042 145.498 413.136 145.311V143.386H411.624C410.675 143.386 409.937 143.526 409.409 143.808C408.882 144.089 408.618 144.531 408.618 145.135C408.618 145.369 408.656 145.586 408.732 145.785C408.814 145.984 408.935 146.157 409.093 146.304C409.251 146.444 409.45 146.556 409.69 146.638C409.931 146.72 410.209 146.761 410.525 146.761ZM418.216 134.5H423.076V146.594H426.179V148H418.216V146.594H421.45V135.915H418.216V134.5ZM432.27 144.625L432.691 145.776L435.592 138.49H437.411L432.586 149.468C432.475 149.714 432.331 149.975 432.155 150.25C431.985 150.525 431.777 150.78 431.531 151.015C431.285 151.249 430.998 151.445 430.67 151.604C430.342 151.762 429.964 151.841 429.536 151.841C429.46 151.841 429.375 151.835 429.281 151.823C429.188 151.817 429.094 151.806 429 151.788C428.906 151.776 428.818 151.762 428.736 151.744C428.654 151.727 428.587 151.712 428.534 151.7L428.798 150.373C428.839 150.373 428.895 150.376 428.965 150.382C429.035 150.388 429.108 150.394 429.185 150.399C429.261 150.405 429.334 150.408 429.404 150.408C429.475 150.414 429.53 150.417 429.571 150.417C429.794 150.417 429.996 150.355 430.178 150.232C430.365 150.109 430.529 149.963 430.67 149.793C430.816 149.623 430.939 149.447 431.039 149.266C431.145 149.084 431.227 148.935 431.285 148.817L431.936 147.552L427.84 138.49H429.659L432.27 144.625ZM441.533 146.673H447.589V148H439.459V146.805L445.137 139.835H439.538V138.49H447.272V139.642L441.533 146.673ZM454.594 148.176C453.926 148.176 453.311 148.062 452.748 147.833C452.191 147.604 451.714 147.285 451.315 146.875C450.917 146.465 450.606 145.979 450.384 145.416C450.161 144.854 450.05 144.241 450.05 143.579V143.21C450.05 142.442 450.173 141.757 450.419 141.153C450.665 140.544 450.99 140.031 451.395 139.615C451.805 139.193 452.268 138.871 452.783 138.648C453.305 138.426 453.838 138.314 454.383 138.314C455.068 138.314 455.666 138.435 456.176 138.675C456.691 138.909 457.119 139.237 457.459 139.659C457.799 140.075 458.051 140.567 458.215 141.136C458.385 141.704 458.47 142.319 458.47 142.981V143.711H451.676C451.693 144.145 451.775 144.552 451.922 144.933C452.074 145.313 452.279 145.647 452.537 145.935C452.801 146.216 453.114 146.438 453.478 146.603C453.841 146.767 454.242 146.849 454.682 146.849C455.262 146.849 455.777 146.731 456.229 146.497C456.68 146.263 457.055 145.952 457.354 145.565L458.347 146.339C458.188 146.579 457.989 146.811 457.749 147.033C457.515 147.25 457.242 147.443 456.932 147.613C456.621 147.783 456.27 147.918 455.877 148.018C455.484 148.123 455.057 148.176 454.594 148.176ZM454.383 139.65C454.055 139.65 453.744 139.712 453.451 139.835C453.158 139.952 452.895 140.128 452.66 140.362C452.426 140.591 452.227 140.875 452.062 141.215C451.904 141.549 451.793 141.936 451.729 142.375H456.844V142.252C456.826 141.936 456.765 141.622 456.659 141.312C456.56 141.001 456.41 140.723 456.211 140.477C456.012 140.23 455.76 140.031 455.455 139.879C455.156 139.727 454.799 139.65 454.383 139.65Z" fill="#C5C5C5"/>
<path d="M203.766 142.779H201.208V148H199.591V135.203H203.344C203.941 135.215 204.504 135.3 205.031 135.458C205.559 135.616 206.019 135.854 206.411 136.17C206.81 136.486 207.12 136.885 207.343 137.365C207.571 137.84 207.686 138.399 207.686 139.044C207.686 139.46 207.624 139.841 207.501 140.187C207.384 140.532 207.22 140.846 207.009 141.127C206.798 141.408 206.546 141.657 206.253 141.874C205.96 142.091 205.638 142.275 205.286 142.428L208.002 147.895L207.993 148H206.279L203.766 142.779ZM201.208 141.443H203.388C203.751 141.438 204.094 141.382 204.416 141.276C204.738 141.165 205.02 141.007 205.26 140.802C205.506 140.597 205.699 140.348 205.84 140.055C205.98 139.756 206.051 139.413 206.051 139.026C206.051 138.616 205.983 138.259 205.849 137.954C205.714 137.644 205.526 137.386 205.286 137.181C205.046 136.97 204.759 136.812 204.425 136.706C204.097 136.601 203.736 136.545 203.344 136.539H201.208V141.443ZM214.541 148.176C213.873 148.176 213.258 148.062 212.695 147.833C212.139 147.604 211.661 147.285 211.263 146.875C210.864 146.465 210.554 145.979 210.331 145.416C210.108 144.854 209.997 144.241 209.997 143.579V143.21C209.997 142.442 210.12 141.757 210.366 141.153C210.612 140.544 210.938 140.031 211.342 139.615C211.752 139.193 212.215 138.871 212.73 138.648C213.252 138.426 213.785 138.314 214.33 138.314C215.016 138.314 215.613 138.435 216.123 138.675C216.639 138.909 217.066 139.237 217.406 139.659C217.746 140.075 217.998 140.567 218.162 141.136C218.332 141.704 218.417 142.319 218.417 142.981V143.711H211.623C211.641 144.145 211.723 144.552 211.869 144.933C212.021 145.313 212.227 145.647 212.484 145.935C212.748 146.216 213.062 146.438 213.425 146.603C213.788 146.767 214.189 146.849 214.629 146.849C215.209 146.849 215.725 146.731 216.176 146.497C216.627 146.263 217.002 145.952 217.301 145.565L218.294 146.339C218.136 146.579 217.937 146.811 217.696 147.033C217.462 147.25 217.189 147.443 216.879 147.613C216.568 147.783 216.217 147.918 215.824 148.018C215.432 148.123 215.004 148.176 214.541 148.176ZM214.33 139.65C214.002 139.65 213.691 139.712 213.398 139.835C213.105 139.952 212.842 140.128 212.607 140.362C212.373 140.591 212.174 140.875 212.01 141.215C211.852 141.549 211.74 141.936 211.676 142.375H216.791V142.252C216.773 141.936 216.712 141.622 216.606 141.312C216.507 141.001 216.357 140.723 216.158 140.477C215.959 140.23 215.707 140.031 215.402 139.879C215.104 139.727 214.746 139.65 214.33 139.65ZM220.843 143.166C220.843 142.457 220.931 141.807 221.106 141.215C221.288 140.617 221.543 140.104 221.871 139.677C222.205 139.249 222.606 138.915 223.075 138.675C223.544 138.435 224.068 138.314 224.648 138.314C225.217 138.314 225.712 138.411 226.134 138.604C226.562 138.792 226.931 139.067 227.241 139.431V134.5H228.867V148H227.373L227.303 146.998C226.986 147.385 226.608 147.678 226.169 147.877C225.729 148.076 225.217 148.176 224.631 148.176C224.057 148.176 223.535 148.053 223.066 147.807C222.604 147.561 222.208 147.221 221.88 146.787C221.552 146.354 221.297 145.844 221.115 145.258C220.934 144.666 220.843 144.03 220.843 143.351V143.166ZM222.469 143.351C222.469 143.813 222.519 144.253 222.618 144.669C222.718 145.085 222.87 145.451 223.075 145.768C223.286 146.084 223.553 146.336 223.875 146.523C224.197 146.705 224.584 146.796 225.035 146.796C225.311 146.796 225.56 146.764 225.782 146.699C226.005 146.635 226.207 146.544 226.389 146.427C226.57 146.304 226.731 146.16 226.872 145.996C227.013 145.826 227.136 145.639 227.241 145.434V141.021C227.03 140.635 226.746 140.318 226.389 140.072C226.031 139.82 225.586 139.694 225.053 139.694C224.596 139.694 224.203 139.788 223.875 139.976C223.553 140.163 223.286 140.418 223.075 140.74C222.87 141.057 222.718 141.426 222.618 141.848C222.519 142.264 222.469 142.703 222.469 143.166V143.351ZM238.21 148C238.146 147.877 238.093 147.725 238.052 147.543C238.017 147.355 237.99 147.162 237.973 146.963C237.809 147.127 237.624 147.282 237.419 147.429C237.22 147.575 236.997 147.704 236.751 147.815C236.511 147.927 236.253 148.015 235.978 148.079C235.702 148.144 235.409 148.176 235.099 148.176C234.595 148.176 234.138 148.103 233.728 147.956C233.323 147.81 232.978 147.613 232.69 147.367C232.409 147.115 232.189 146.819 232.031 146.479C231.879 146.134 231.803 145.762 231.803 145.363C231.803 144.842 231.905 144.385 232.11 143.992C232.321 143.6 232.617 143.274 232.998 143.017C233.379 142.753 233.836 142.557 234.369 142.428C234.908 142.299 235.509 142.234 236.171 142.234H237.946V141.487C237.946 141.2 237.894 140.942 237.788 140.714C237.683 140.485 237.533 140.292 237.34 140.134C237.146 139.97 236.909 139.844 236.628 139.756C236.353 139.668 236.042 139.624 235.696 139.624C235.374 139.624 235.084 139.665 234.826 139.747C234.574 139.829 234.36 139.938 234.185 140.072C234.009 140.207 233.871 140.368 233.771 140.556C233.678 140.737 233.631 140.928 233.631 141.127H231.996C232.002 140.781 232.09 140.441 232.26 140.107C232.436 139.773 232.685 139.475 233.007 139.211C233.335 138.941 233.73 138.725 234.193 138.561C234.662 138.396 235.192 138.314 235.784 138.314C236.323 138.314 236.824 138.382 237.287 138.517C237.75 138.646 238.148 138.845 238.482 139.114C238.822 139.378 239.089 139.709 239.282 140.107C239.476 140.506 239.572 140.972 239.572 141.505V145.926C239.572 146.242 239.602 146.579 239.66 146.937C239.719 147.288 239.801 147.596 239.906 147.859V148H238.21ZM235.336 146.761C235.652 146.761 235.948 146.72 236.224 146.638C236.499 146.556 236.748 146.447 236.971 146.312C237.199 146.178 237.396 146.025 237.56 145.855C237.724 145.68 237.853 145.498 237.946 145.311V143.386H236.435C235.485 143.386 234.747 143.526 234.22 143.808C233.692 144.089 233.429 144.531 233.429 145.135C233.429 145.369 233.467 145.586 233.543 145.785C233.625 145.984 233.745 146.157 233.903 146.304C234.062 146.444 234.261 146.556 234.501 146.638C234.741 146.72 235.02 146.761 235.336 146.761ZM246.823 146.857C247.116 146.857 247.4 146.811 247.676 146.717C247.957 146.623 248.206 146.494 248.423 146.33C248.64 146.16 248.812 145.964 248.941 145.741C249.076 145.513 249.146 145.267 249.152 145.003H250.69C250.685 145.425 250.573 145.829 250.356 146.216C250.146 146.597 249.861 146.934 249.504 147.227C249.146 147.514 248.736 147.745 248.273 147.921C247.811 148.091 247.327 148.176 246.823 148.176C246.103 148.176 245.473 148.047 244.934 147.789C244.395 147.531 243.943 147.186 243.58 146.752C243.223 146.312 242.953 145.809 242.771 145.24C242.59 144.666 242.499 144.062 242.499 143.43V143.061C242.499 142.434 242.59 141.833 242.771 141.259C242.953 140.685 243.223 140.181 243.58 139.747C243.943 139.308 244.395 138.959 244.934 138.701C245.473 138.443 246.103 138.314 246.823 138.314C247.386 138.314 247.901 138.405 248.37 138.587C248.845 138.763 249.252 139.006 249.592 139.316C249.938 139.621 250.207 139.984 250.4 140.406C250.594 140.828 250.69 141.279 250.69 141.76H249.152C249.146 141.473 249.082 141.203 248.959 140.951C248.842 140.693 248.681 140.468 248.476 140.274C248.271 140.081 248.024 139.929 247.737 139.817C247.456 139.706 247.151 139.65 246.823 139.65C246.319 139.65 245.895 139.753 245.549 139.958C245.209 140.157 244.934 140.421 244.723 140.749C244.512 141.071 244.359 141.435 244.266 141.839C244.178 142.243 244.134 142.65 244.134 143.061V143.43C244.134 143.846 244.178 144.259 244.266 144.669C244.359 145.073 244.509 145.439 244.714 145.768C244.925 146.09 245.2 146.354 245.54 146.559C245.886 146.758 246.313 146.857 246.823 146.857ZM257.432 136.188V138.49H261.053V139.747H257.432V144.915C257.432 145.284 257.479 145.589 257.572 145.829C257.666 146.069 257.795 146.263 257.959 146.409C258.123 146.55 258.311 146.649 258.521 146.708C258.738 146.767 258.967 146.796 259.207 146.796C259.383 146.796 259.564 146.787 259.752 146.77C259.939 146.746 260.121 146.72 260.297 146.69C260.479 146.661 260.646 146.632 260.798 146.603C260.956 146.567 261.085 146.538 261.185 146.515L261.413 147.666C261.278 147.748 261.114 147.821 260.921 147.886C260.728 147.944 260.517 147.994 260.288 148.035C260.06 148.082 259.816 148.117 259.559 148.141C259.307 148.164 259.055 148.176 258.803 148.176C258.381 148.176 257.985 148.117 257.616 148C257.253 147.877 256.937 147.687 256.667 147.429C256.397 147.165 256.184 146.828 256.025 146.418C255.873 146.002 255.797 145.501 255.797 144.915V139.747H253.301V138.49H255.797V136.188H257.432Z" fill="#C5C5C5"/>
<path d="M42 116H227" stroke="#E5E5E5" stroke-width="2" stroke-dasharray="8 8"/>
<path d="M233 116H421" stroke="#E5E5E5" stroke-width="2" stroke-dasharray="8 8"/>
<circle cx="230.5" cy="115.5" r="10" stroke="#E5E5E5"/>
<circle cx="230.5" cy="115.5" r="7.5" fill="#E5E5E5"/>
<circle cx="38.5" cy="115.5" r="10" stroke="#E5E5E5"/>
<circle cx="38.5" cy="115.5" r="7.5" fill="#E5E5E5"/>
<circle cx="422.5" cy="115.5" r="10" stroke="#E5E5E5"/>
<circle cx="422.5" cy="115.5" r="7.5" fill="#E5E5E5"/>
<path d="M9.81738 144.15C9.74121 144.742 9.58887 145.287 9.36035 145.785C9.13184 146.277 8.83301 146.702 8.46387 147.06C8.10059 147.411 7.66699 147.687 7.16309 147.886C6.66504 148.079 6.1084 148.176 5.49316 148.176C4.96582 148.176 4.48535 148.103 4.05176 147.956C3.62402 147.804 3.24023 147.596 2.90039 147.332C2.56641 147.068 2.27637 146.758 2.03027 146.4C1.79004 146.043 1.58789 145.653 1.42383 145.231C1.26562 144.81 1.14551 144.367 1.06348 143.904C0.987305 143.441 0.946289 142.973 0.94043 142.498V140.714C0.946289 140.239 0.987305 139.771 1.06348 139.308C1.14551 138.845 1.26562 138.402 1.42383 137.98C1.58789 137.559 1.79004 137.169 2.03027 136.812C2.27637 136.448 2.56641 136.135 2.90039 135.871C3.24023 135.607 3.62402 135.402 4.05176 135.256C4.47949 135.104 4.95996 135.027 5.49316 135.027C6.13184 135.027 6.70312 135.127 7.20703 135.326C7.71094 135.52 8.14453 135.798 8.50781 136.161C8.87109 136.519 9.16113 136.949 9.37793 137.453C9.60059 137.957 9.74707 138.514 9.81738 139.123H8.19141C8.13867 138.736 8.04785 138.376 7.91895 138.042C7.79004 137.708 7.61719 137.415 7.40039 137.163C7.18359 136.911 6.91699 136.715 6.60059 136.574C6.29004 136.428 5.9209 136.354 5.49316 136.354C5.10645 136.354 4.76367 136.419 4.46484 136.548C4.17188 136.671 3.91699 136.841 3.7002 137.058C3.48926 137.274 3.31055 137.526 3.16406 137.813C3.02344 138.101 2.90918 138.405 2.82129 138.728C2.7334 139.05 2.66895 139.381 2.62793 139.721C2.59277 140.055 2.5752 140.38 2.5752 140.696V142.498C2.5752 142.814 2.59277 143.143 2.62793 143.482C2.66895 143.816 2.7334 144.147 2.82129 144.476C2.90918 144.798 3.02344 145.103 3.16406 145.39C3.30469 145.677 3.4834 145.932 3.7002 146.154C3.91699 146.371 4.17188 146.544 4.46484 146.673C4.75781 146.796 5.10059 146.857 5.49316 146.857C5.9209 146.857 6.29004 146.79 6.60059 146.655C6.91699 146.521 7.18359 146.333 7.40039 146.093C7.61719 145.847 7.79004 145.56 7.91895 145.231C8.04785 144.897 8.13867 144.537 8.19141 144.15H9.81738ZM11.8828 143.157C11.8828 142.472 11.9824 141.836 12.1816 141.25C12.3809 140.658 12.665 140.146 13.0342 139.712C13.4092 139.278 13.8633 138.938 14.3965 138.692C14.9297 138.44 15.5303 138.314 16.1982 138.314C16.8721 138.314 17.4756 138.44 18.0088 138.692C18.5479 138.938 19.002 139.278 19.3711 139.712C19.7461 140.146 20.0332 140.658 20.2324 141.25C20.4316 141.836 20.5312 142.472 20.5312 143.157V143.351C20.5312 144.036 20.4316 144.672 20.2324 145.258C20.0332 145.844 19.7461 146.354 19.3711 146.787C19.002 147.221 18.5508 147.561 18.0176 147.807C17.4844 148.053 16.8838 148.176 16.2158 148.176C15.542 148.176 14.9355 148.053 14.3965 147.807C13.8633 147.561 13.4092 147.221 13.0342 146.787C12.665 146.354 12.3809 145.844 12.1816 145.258C11.9824 144.672 11.8828 144.036 11.8828 143.351V143.157ZM13.5088 143.351C13.5088 143.819 13.5645 144.268 13.6758 144.695C13.7871 145.117 13.9541 145.489 14.1768 145.812C14.4053 146.134 14.6895 146.389 15.0293 146.576C15.3691 146.764 15.7646 146.857 16.2158 146.857C16.6611 146.857 17.0508 146.764 17.3848 146.576C17.7246 146.389 18.0059 146.134 18.2285 145.812C18.457 145.489 18.627 145.117 18.7383 144.695C18.8496 144.268 18.9053 143.819 18.9053 143.351V143.157C18.9053 142.694 18.8467 142.252 18.7295 141.83C18.6182 141.402 18.4482 141.027 18.2197 140.705C17.9971 140.383 17.7158 140.128 17.376 139.94C17.042 139.747 16.6494 139.65 16.1982 139.65C15.7471 139.65 15.3545 139.747 15.0205 139.94C14.6865 140.128 14.4053 140.383 14.1768 140.705C13.9541 141.027 13.7871 141.402 13.6758 141.83C13.5645 142.252 13.5088 142.694 13.5088 143.157V143.351ZM23.4053 134.5H28.2656V146.594H31.3682V148H23.4053V146.594H26.6396V135.915H23.4053V134.5ZM34.2158 134.5H39.0762V146.594H42.1787V148H34.2158V146.594H37.4502V135.915H34.2158V134.5ZM48.9727 148.176C48.3047 148.176 47.6895 148.062 47.127 147.833C46.5703 147.604 46.0928 147.285 45.6943 146.875C45.2959 146.465 44.9854 145.979 44.7627 145.416C44.54 144.854 44.4287 144.241 44.4287 143.579V143.21C44.4287 142.442 44.5518 141.757 44.7979 141.153C45.0439 140.544 45.3691 140.031 45.7734 139.615C46.1836 139.193 46.6465 138.871 47.1621 138.648C47.6836 138.426 48.2168 138.314 48.7617 138.314C49.4473 138.314 50.0449 138.435 50.5547 138.675C51.0703 138.909 51.498 139.237 51.8379 139.659C52.1777 140.075 52.4297 140.567 52.5938 141.136C52.7637 141.704 52.8486 142.319 52.8486 142.981V143.711H46.0547C46.0723 144.145 46.1543 144.552 46.3008 144.933C46.4531 145.313 46.6582 145.647 46.916 145.935C47.1797 146.216 47.4932 146.438 47.8564 146.603C48.2197 146.767 48.6211 146.849 49.0605 146.849C49.6406 146.849 50.1562 146.731 50.6074 146.497C51.0586 146.263 51.4336 145.952 51.7324 145.565L52.7256 146.339C52.5674 146.579 52.3682 146.811 52.1279 147.033C51.8936 147.25 51.6211 147.443 51.3105 147.613C51 147.783 50.6484 147.918 50.2559 148.018C49.8633 148.123 49.4355 148.176 48.9727 148.176ZM48.7617 139.65C48.4336 139.65 48.123 139.712 47.8301 139.835C47.5371 139.952 47.2734 140.128 47.0391 140.362C46.8047 140.591 46.6055 140.875 46.4414 141.215C46.2832 141.549 46.1719 141.936 46.1074 142.375H51.2227V142.252C51.2051 141.936 51.1436 141.622 51.0381 141.312C50.9385 141.001 50.7891 140.723 50.5898 140.477C50.3906 140.23 50.1387 140.031 49.834 139.879C49.5352 139.727 49.1777 139.65 48.7617 139.65ZM59.6338 146.857C59.9268 146.857 60.2109 146.811 60.4863 146.717C60.7676 146.623 61.0166 146.494 61.2334 146.33C61.4502 146.16 61.623 145.964 61.752 145.741C61.8867 145.513 61.957 145.267 61.9629 145.003H63.501C63.4951 145.425 63.3838 145.829 63.167 146.216C62.9561 146.597 62.6719 146.934 62.3145 147.227C61.957 147.514 61.5469 147.745 61.084 147.921C60.6211 148.091 60.1377 148.176 59.6338 148.176C58.9131 148.176 58.2832 148.047 57.7441 147.789C57.2051 147.531 56.7539 147.186 56.3906 146.752C56.0332 146.312 55.7637 145.809 55.582 145.24C55.4004 144.666 55.3096 144.062 55.3096 143.43V143.061C55.3096 142.434 55.4004 141.833 55.582 141.259C55.7637 140.685 56.0332 140.181 56.3906 139.747C56.7539 139.308 57.2051 138.959 57.7441 138.701C58.2832 138.443 58.9131 138.314 59.6338 138.314C60.1963 138.314 60.7119 138.405 61.1807 138.587C61.6553 138.763 62.0625 139.006 62.4023 139.316C62.748 139.621 63.0176 139.984 63.2109 140.406C63.4043 140.828 63.501 141.279 63.501 141.76H61.9629C61.957 141.473 61.8926 141.203 61.7695 140.951C61.6523 140.693 61.4912 140.468 61.2861 140.274C61.0811 140.081 60.835 139.929 60.5479 139.817C60.2666 139.706 59.9619 139.65 59.6338 139.65C59.1299 139.65 58.7051 139.753 58.3594 139.958C58.0195 140.157 57.7441 140.421 57.5332 140.749C57.3223 141.071 57.1699 141.435 57.0762 141.839C56.9883 142.243 56.9443 142.65 56.9443 143.061V143.43C56.9443 143.846 56.9883 144.259 57.0762 144.669C57.1699 145.073 57.3193 145.439 57.5244 145.768C57.7354 146.09 58.0107 146.354 58.3506 146.559C58.6963 146.758 59.124 146.857 59.6338 146.857ZM70.2422 136.188V138.49H73.8633V139.747H70.2422V144.915C70.2422 145.284 70.2891 145.589 70.3828 145.829C70.4766 146.069 70.6055 146.263 70.7695 146.409C70.9336 146.55 71.1211 146.649 71.332 146.708C71.5488 146.767 71.7773 146.796 72.0176 146.796C72.1934 146.796 72.375 146.787 72.5625 146.77C72.75 146.746 72.9316 146.72 73.1074 146.69C73.2891 146.661 73.4561 146.632 73.6084 146.603C73.7666 146.567 73.8955 146.538 73.9951 146.515L74.2236 147.666C74.0889 147.748 73.9248 147.821 73.7314 147.886C73.5381 147.944 73.3271 147.994 73.0986 148.035C72.8701 148.082 72.627 148.117 72.3691 148.141C72.1172 148.164 71.8652 148.176 71.6133 148.176C71.1914 148.176 70.7959 148.117 70.4268 148C70.0635 147.877 69.7471 147.687 69.4775 147.429C69.208 147.165 68.9941 146.828 68.8359 146.418C68.6836 146.002 68.6074 145.501 68.6074 144.915V139.747H66.1113V138.49H68.6074V136.188H70.2422Z" fill="#C5C5C5"/>
<path fill-rule="evenodd" clip-rule="evenodd" d="M231 70H229V88H39H37V98H39V90H229H231H422V98H424V90V88H422H231V70Z" fill="#E5E5E5"/>
<path d="M136.797 57.0049H142.791V59H134.318V46.2031H136.797V57.0049ZM149.664 59.1758C148.932 59.1758 148.267 59.0557 147.669 58.8154C147.071 58.5752 146.559 58.25 146.131 57.8398C145.703 57.4238 145.372 56.9375 145.138 56.3809C144.909 55.8184 144.795 55.2178 144.795 54.5791V54.2275C144.795 53.501 144.909 52.8389 145.138 52.2412C145.366 51.6377 145.686 51.1191 146.096 50.6855C146.506 50.252 146.992 49.915 147.555 49.6748C148.117 49.4346 148.729 49.3145 149.392 49.3145C150.077 49.3145 150.687 49.4287 151.22 49.6572C151.759 49.8799 152.213 50.1963 152.582 50.6064C152.957 51.0166 153.241 51.5117 153.435 52.0918C153.628 52.666 153.725 53.3018 153.725 53.999V55.0361H147.273C147.32 55.3584 147.414 55.6543 147.555 55.9238C147.701 56.1875 147.886 56.416 148.108 56.6094C148.331 56.8027 148.586 56.9521 148.873 57.0576C149.16 57.1631 149.474 57.2158 149.813 57.2158C150.054 57.2158 150.291 57.1924 150.525 57.1455C150.766 57.0986 150.994 57.0312 151.211 56.9434C151.428 56.8496 151.63 56.7354 151.817 56.6006C152.005 56.4658 152.169 56.3076 152.31 56.126L153.531 57.4443C153.379 57.6611 153.18 57.875 152.934 58.0859C152.693 58.291 152.406 58.4756 152.072 58.6396C151.744 58.7979 151.378 58.9268 150.974 59.0264C150.569 59.126 150.133 59.1758 149.664 59.1758ZM149.374 51.292C149.099 51.292 148.847 51.3418 148.618 51.4414C148.39 51.5352 148.188 51.6729 148.012 51.8545C147.842 52.0361 147.698 52.2529 147.581 52.5049C147.464 52.7568 147.376 53.0381 147.317 53.3486H151.325V53.1553C151.313 52.8975 151.264 52.6543 151.176 52.4258C151.088 52.1973 150.962 52.001 150.798 51.8369C150.634 51.667 150.432 51.5352 150.191 51.4414C149.957 51.3418 149.685 51.292 149.374 51.292ZM161.802 59C161.743 58.8828 161.693 58.748 161.652 58.5957C161.611 58.4434 161.576 58.2822 161.547 58.1123C161.412 58.2588 161.257 58.3965 161.081 58.5254C160.905 58.6543 160.709 58.7686 160.492 58.8682C160.281 58.9619 160.047 59.0352 159.789 59.0879C159.531 59.1465 159.253 59.1758 158.954 59.1758C158.468 59.1758 158.02 59.1055 157.609 58.9648C157.205 58.8242 156.856 58.6279 156.563 58.376C156.271 58.124 156.042 57.8252 155.878 57.4795C155.714 57.1279 155.632 56.7471 155.632 56.3369C155.632 55.335 156.004 54.5615 156.748 54.0166C157.498 53.4658 158.614 53.1904 160.097 53.1904H161.459V52.6279C161.459 52.1709 161.31 51.8105 161.011 51.5469C160.712 51.2773 160.281 51.1426 159.719 51.1426C159.221 51.1426 158.857 51.251 158.629 51.4678C158.4 51.6787 158.286 51.9629 158.286 52.3203H155.843C155.843 51.916 155.931 51.5322 156.106 51.1689C156.288 50.8057 156.549 50.4863 156.889 50.2109C157.234 49.9355 157.653 49.7188 158.146 49.5605C158.644 49.3965 159.212 49.3145 159.851 49.3145C160.425 49.3145 160.958 49.3848 161.45 49.5254C161.948 49.666 162.379 49.874 162.742 50.1494C163.105 50.4248 163.39 50.7734 163.595 51.1953C163.8 51.6113 163.902 52.0947 163.902 52.6455V56.7236C163.902 57.2334 163.935 57.6553 163.999 57.9893C164.063 58.3232 164.157 58.6104 164.28 58.8506V59H161.802ZM159.473 57.2861C159.719 57.2861 159.947 57.2568 160.158 57.1982C160.369 57.1396 160.56 57.0635 160.729 56.9697C160.899 56.876 161.046 56.7705 161.169 56.6533C161.292 56.5303 161.389 56.4072 161.459 56.2842V54.6494H160.211C159.83 54.6494 159.505 54.6875 159.235 54.7637C158.966 54.834 158.746 54.9365 158.576 55.0713C158.406 55.2002 158.28 55.3584 158.198 55.5459C158.116 55.7275 158.075 55.9268 158.075 56.1436C158.075 56.4717 158.189 56.7441 158.418 56.9609C158.652 57.1777 159.004 57.2861 159.473 57.2861ZM173.5 49.3145C173.869 49.3145 174.209 49.3408 174.52 49.3936C174.836 49.4404 175.091 49.4932 175.284 49.5518L174.924 51.9863C174.602 51.9102 174.271 51.8545 173.931 51.8193C173.597 51.7783 173.277 51.7578 172.973 51.7578C172.287 51.7578 171.736 51.8896 171.32 52.1533C170.91 52.417 170.603 52.7949 170.397 53.2871V59H167.954V49.4902H170.23L170.345 51.0459C170.731 50.5068 171.194 50.085 171.733 49.7803C172.272 49.4697 172.861 49.3145 173.5 49.3145ZM179.696 49.4902L179.846 50.8086C180.186 50.334 180.599 49.9678 181.085 49.71C181.571 49.4463 182.11 49.3145 182.702 49.3145C183.183 49.3145 183.622 49.3848 184.021 49.5254C184.419 49.666 184.762 49.8916 185.049 50.2021C185.342 50.5068 185.567 50.9023 185.726 51.3887C185.89 51.8691 185.972 52.4551 185.972 53.1465V59H183.528V53.1816C183.528 52.8066 183.484 52.499 183.396 52.2588C183.314 52.0127 183.194 51.8193 183.036 51.6787C182.878 51.5381 182.688 51.4414 182.465 51.3887C182.242 51.3301 181.99 51.3008 181.709 51.3008C181.293 51.3008 180.938 51.3857 180.646 51.5557C180.353 51.7197 180.115 51.9482 179.934 52.2412V59H177.481V49.4902H179.696ZM208.419 48.2158H204.473V59H201.994V48.2158H198.101V46.2031H208.419V48.2158ZM216.742 49.3145C217.111 49.3145 217.451 49.3408 217.762 49.3936C218.078 49.4404 218.333 49.4932 218.526 49.5518L218.166 51.9863C217.844 51.9102 217.513 51.8545 217.173 51.8193C216.839 51.7783 216.52 51.7578 216.215 51.7578C215.529 51.7578 214.979 51.8896 214.562 52.1533C214.152 52.417 213.845 52.7949 213.64 53.2871V59H211.196V49.4902H213.473L213.587 51.0459C213.974 50.5068 214.437 50.085 214.976 49.7803C215.515 49.4697 216.104 49.3145 216.742 49.3145ZM220.39 54.1572C220.39 53.4658 220.489 52.8271 220.688 52.2412C220.888 51.6494 221.178 51.1367 221.559 50.7031C221.945 50.2695 222.414 49.9297 222.965 49.6836C223.521 49.4375 224.157 49.3145 224.872 49.3145C225.587 49.3145 226.223 49.4375 226.779 49.6836C227.336 49.9297 227.805 50.2695 228.186 50.7031C228.572 51.1367 228.865 51.6494 229.064 52.2412C229.264 52.8271 229.363 53.4658 229.363 54.1572V54.3418C229.363 55.0391 229.264 55.6836 229.064 56.2754C228.865 56.8613 228.575 57.3711 228.194 57.8047C227.813 58.2383 227.345 58.5781 226.788 58.8242C226.231 59.0645 225.599 59.1846 224.89 59.1846C224.175 59.1846 223.536 59.0645 222.974 58.8242C222.417 58.5781 221.945 58.2383 221.559 57.8047C221.178 57.3711 220.888 56.8613 220.688 56.2754C220.489 55.6836 220.39 55.0391 220.39 54.3418V54.1572ZM222.833 54.3418C222.833 54.7402 222.871 55.1152 222.947 55.4668C223.023 55.8125 223.144 56.1172 223.308 56.3809C223.472 56.6387 223.683 56.8438 223.94 56.9961C224.204 57.1484 224.521 57.2246 224.89 57.2246C225.247 57.2246 225.555 57.1484 225.812 56.9961C226.07 56.8438 226.278 56.6387 226.437 56.3809C226.601 56.1172 226.721 55.8125 226.797 55.4668C226.873 55.1152 226.911 54.7402 226.911 54.3418V54.1572C226.911 53.7705 226.873 53.4043 226.797 53.0586C226.721 52.7129 226.601 52.4082 226.437 52.1445C226.278 51.8809 226.07 51.6729 225.812 51.5205C225.555 51.3682 225.241 51.292 224.872 51.292C224.509 51.292 224.198 51.3682 223.94 51.5205C223.683 51.6729 223.472 51.8809 223.308 52.1445C223.144 52.4082 223.023 52.7129 222.947 53.0586C222.871 53.4043 222.833 53.7705 222.833 54.1572V54.3418ZM237.599 57.6641C237.276 58.1387 236.887 58.5107 236.43 58.7803C235.979 59.0498 235.483 59.1846 234.944 59.1846C234.452 59.1846 234.001 59.1084 233.591 58.9561C233.181 58.8037 232.829 58.5635 232.536 58.2354C232.243 57.9014 232.015 57.4795 231.851 56.9697C231.692 56.4541 231.613 55.8359 231.613 55.1152V49.4902H234.057V55.1328C234.057 55.5195 234.083 55.8447 234.136 56.1084C234.194 56.3721 234.285 56.5859 234.408 56.75C234.531 56.9082 234.692 57.0225 234.892 57.0928C235.091 57.1631 235.334 57.1982 235.621 57.1982C236.107 57.1982 236.503 57.1074 236.808 56.9258C237.112 56.7383 237.344 56.4834 237.502 56.1611V49.4902H239.954V59H237.739L237.599 57.6641ZM250.914 54.3418C250.914 55.0508 250.835 55.7012 250.677 56.293C250.524 56.8848 250.293 57.3945 249.982 57.8223C249.672 58.25 249.285 58.584 248.822 58.8242C248.359 59.0586 247.82 59.1758 247.205 59.1758C246.648 59.1758 246.165 59.0732 245.755 58.8682C245.351 58.6572 245.002 58.3643 244.709 57.9893L244.595 59H242.397V45.5H244.841V50.3516C245.122 50.0234 245.453 49.7686 245.834 49.5869C246.221 49.4053 246.672 49.3145 247.188 49.3145C247.809 49.3145 248.351 49.4346 248.813 49.6748C249.282 49.915 249.672 50.249 249.982 50.6768C250.293 51.1045 250.524 51.6172 250.677 52.2148C250.835 52.8066 250.914 53.4541 250.914 54.1572V54.3418ZM248.471 54.1572C248.471 53.7705 248.441 53.4043 248.383 53.0586C248.324 52.7129 248.222 52.4111 248.075 52.1533C247.935 51.8896 247.741 51.6816 247.495 51.5293C247.249 51.377 246.941 51.3008 246.572 51.3008C246.127 51.3008 245.764 51.3945 245.482 51.582C245.207 51.7695 244.993 52.0273 244.841 52.3555V56.1436C244.993 56.4717 245.207 56.7295 245.482 56.917C245.764 57.1045 246.133 57.1982 246.59 57.1982C246.959 57.1982 247.264 57.1279 247.504 56.9873C247.744 56.8408 247.935 56.6416 248.075 56.3896C248.222 56.1318 248.324 55.8301 248.383 55.4844C248.441 55.1328 248.471 54.752 248.471 54.3418V54.1572ZM253.665 45.5H258.982V57.0137H261.707V59H253.665V57.0137H256.513V47.4951H253.665V45.5ZM268.58 59.1758C267.848 59.1758 267.183 59.0557 266.585 58.8154C265.987 58.5752 265.475 58.25 265.047 57.8398C264.619 57.4238 264.288 56.9375 264.054 56.3809C263.825 55.8184 263.711 55.2178 263.711 54.5791V54.2275C263.711 53.501 263.825 52.8389 264.054 52.2412C264.282 51.6377 264.602 51.1191 265.012 50.6855C265.422 50.252 265.908 49.915 266.471 49.6748C267.033 49.4346 267.646 49.3145 268.308 49.3145C268.993 49.3145 269.603 49.4287 270.136 49.6572C270.675 49.8799 271.129 50.1963 271.498 50.6064C271.873 51.0166 272.157 51.5117 272.351 52.0918C272.544 52.666 272.641 53.3018 272.641 53.999V55.0361H266.189C266.236 55.3584 266.33 55.6543 266.471 55.9238C266.617 56.1875 266.802 56.416 267.024 56.6094C267.247 56.8027 267.502 56.9521 267.789 57.0576C268.076 57.1631 268.39 57.2158 268.729 57.2158C268.97 57.2158 269.207 57.1924 269.441 57.1455C269.682 57.0986 269.91 57.0312 270.127 56.9434C270.344 56.8496 270.546 56.7354 270.733 56.6006C270.921 56.4658 271.085 56.3076 271.226 56.126L272.447 57.4443C272.295 57.6611 272.096 57.875 271.85 58.0859C271.609 58.291 271.322 58.4756 270.988 58.6396C270.66 58.7979 270.294 58.9268 269.89 59.0264C269.485 59.126 269.049 59.1758 268.58 59.1758ZM268.29 51.292C268.015 51.292 267.763 51.3418 267.534 51.4414C267.306 51.5352 267.104 51.6729 266.928 51.8545C266.758 52.0361 266.614 52.2529 266.497 52.5049C266.38 52.7568 266.292 53.0381 266.233 53.3486H270.241V53.1553C270.229 52.8975 270.18 52.6543 270.092 52.4258C270.004 52.1973 269.878 52.001 269.714 51.8369C269.55 51.667 269.348 51.5352 269.107 51.4414C268.873 51.3418 268.601 51.292 268.29 51.292ZM280.911 56.3896C280.911 56.2432 280.876 56.1143 280.806 56.0029C280.741 55.8916 280.621 55.7891 280.445 55.6953C280.275 55.5957 280.047 55.5049 279.76 55.4229C279.473 55.3408 279.109 55.2588 278.67 55.1768C278.113 55.0654 277.604 54.9277 277.141 54.7637C276.684 54.5938 276.291 54.3916 275.963 54.1572C275.635 53.917 275.377 53.6416 275.189 53.3311C275.008 53.0205 274.917 52.6631 274.917 52.2588C274.917 51.8662 275.011 51.4912 275.198 51.1338C275.386 50.7764 275.655 50.4629 276.007 50.1934C276.358 49.9238 276.786 49.71 277.29 49.5518C277.794 49.3936 278.362 49.3145 278.995 49.3145C279.657 49.3145 280.252 49.3936 280.779 49.5518C281.307 49.7041 281.752 49.918 282.115 50.1934C282.484 50.4629 282.766 50.7852 282.959 51.1602C283.152 51.5352 283.249 51.9424 283.249 52.3818H280.806C280.806 52.0127 280.656 51.7051 280.357 51.459C280.059 51.207 279.604 51.0811 278.995 51.0811C278.427 51.0811 277.996 51.1836 277.703 51.3887C277.416 51.5938 277.272 51.8457 277.272 52.1445C277.272 52.2852 277.302 52.417 277.36 52.54C277.419 52.6572 277.521 52.7656 277.668 52.8652C277.82 52.959 278.025 53.0469 278.283 53.1289C278.541 53.2051 278.869 53.2725 279.268 53.3311C279.842 53.4248 280.375 53.5449 280.867 53.6914C281.359 53.8379 281.784 54.0283 282.142 54.2627C282.499 54.4912 282.777 54.7725 282.977 55.1064C283.182 55.4346 283.284 55.8271 283.284 56.2842C283.284 56.7061 283.182 57.0957 282.977 57.4531C282.777 57.8047 282.49 58.1094 282.115 58.3672C281.746 58.625 281.298 58.8271 280.771 58.9736C280.243 59.1143 279.654 59.1846 279.004 59.1846C278.289 59.1846 277.656 59.0908 277.105 58.9033C276.561 58.7158 276.104 58.4727 275.734 58.1738C275.365 57.8691 275.084 57.5264 274.891 57.1455C274.703 56.7588 274.609 56.3721 274.609 55.9854H276.938C276.956 56.2432 277.026 56.4658 277.149 56.6533C277.272 56.835 277.431 56.9844 277.624 57.1016C277.817 57.2129 278.037 57.2949 278.283 57.3477C278.535 57.4004 278.793 57.4268 279.057 57.4268C279.66 57.4268 280.12 57.3301 280.437 57.1367C280.753 56.9434 280.911 56.6943 280.911 56.3896ZM288.03 50.7998C288.347 50.3369 288.73 49.9736 289.182 49.71C289.639 49.4463 290.148 49.3145 290.711 49.3145C291.209 49.3145 291.666 49.3906 292.082 49.543C292.498 49.6895 292.855 49.9209 293.154 50.2373C293.453 50.5537 293.685 50.9609 293.849 51.459C294.019 51.9512 294.104 52.5459 294.104 53.2432V59H291.66V53.2256C291.66 52.8857 291.616 52.5928 291.528 52.3467C291.446 52.1006 291.326 51.9014 291.168 51.749C291.01 51.5967 290.819 51.4854 290.597 51.415C290.374 51.3389 290.122 51.3008 289.841 51.3008C289.431 51.3008 289.073 51.374 288.769 51.5205C288.47 51.667 288.224 51.8721 288.03 52.1357V59H285.587V45.5H288.03V50.7998ZM296.063 54.1572C296.063 53.4658 296.163 52.8271 296.362 52.2412C296.562 51.6494 296.852 51.1367 297.232 50.7031C297.619 50.2695 298.088 49.9297 298.639 49.6836C299.195 49.4375 299.831 49.3145 300.546 49.3145C301.261 49.3145 301.896 49.4375 302.453 49.6836C303.01 49.9297 303.479 50.2695 303.859 50.7031C304.246 51.1367 304.539 51.6494 304.738 52.2412C304.938 52.8271 305.037 53.4658 305.037 54.1572V54.3418C305.037 55.0391 304.938 55.6836 304.738 56.2754C304.539 56.8613 304.249 57.3711 303.868 57.8047C303.487 58.2383 303.019 58.5781 302.462 58.8242C301.905 59.0645 301.272 59.1846 300.563 59.1846C299.849 59.1846 299.21 59.0645 298.647 58.8242C298.091 58.5781 297.619 58.2383 297.232 57.8047C296.852 57.3711 296.562 56.8613 296.362 56.2754C296.163 55.6836 296.063 55.0391 296.063 54.3418V54.1572ZM298.507 54.3418C298.507 54.7402 298.545 55.1152 298.621 55.4668C298.697 55.8125 298.817 56.1172 298.981 56.3809C299.146 56.6387 299.356 56.8438 299.614 56.9961C299.878 57.1484 300.194 57.2246 300.563 57.2246C300.921 57.2246 301.229 57.1484 301.486 56.9961C301.744 56.8438 301.952 56.6387 302.11 56.3809C302.274 56.1172 302.395 55.8125 302.471 55.4668C302.547 55.1152 302.585 54.7402 302.585 54.3418V54.1572C302.585 53.7705 302.547 53.4043 302.471 53.0586C302.395 52.7129 302.274 52.4082 302.11 52.1445C301.952 51.8809 301.744 51.6729 301.486 51.5205C301.229 51.3682 300.915 51.292 300.546 51.292C300.183 51.292 299.872 51.3682 299.614 51.5205C299.356 51.6729 299.146 51.8809 298.981 52.1445C298.817 52.4082 298.697 52.7129 298.621 53.0586C298.545 53.4043 298.507 53.7705 298.507 54.1572V54.3418ZM306.874 54.1572C306.874 53.4658 306.974 52.8271 307.173 52.2412C307.372 51.6494 307.662 51.1367 308.043 50.7031C308.43 50.2695 308.898 49.9297 309.449 49.6836C310.006 49.4375 310.642 49.3145 311.356 49.3145C312.071 49.3145 312.707 49.4375 313.264 49.6836C313.82 49.9297 314.289 50.2695 314.67 50.7031C315.057 51.1367 315.35 51.6494 315.549 52.2412C315.748 52.8271 315.848 53.4658 315.848 54.1572V54.3418C315.848 55.0391 315.748 55.6836 315.549 56.2754C315.35 56.8613 315.06 57.3711 314.679 57.8047C314.298 58.2383 313.829 58.5781 313.272 58.8242C312.716 59.0645 312.083 59.1846 311.374 59.1846C310.659 59.1846 310.021 59.0645 309.458 58.8242C308.901 58.5781 308.43 58.2383 308.043 57.8047C307.662 57.3711 307.372 56.8613 307.173 56.2754C306.974 55.6836 306.874 55.0391 306.874 54.3418V54.1572ZM309.317 54.3418C309.317 54.7402 309.355 55.1152 309.432 55.4668C309.508 55.8125 309.628 56.1172 309.792 56.3809C309.956 56.6387 310.167 56.8438 310.425 56.9961C310.688 57.1484 311.005 57.2246 311.374 57.2246C311.731 57.2246 312.039 57.1484 312.297 56.9961C312.555 56.8438 312.763 56.6387 312.921 56.3809C313.085 56.1172 313.205 55.8125 313.281 55.4668C313.357 55.1152 313.396 54.7402 313.396 54.3418V54.1572C313.396 53.7705 313.357 53.4043 313.281 53.0586C313.205 52.7129 313.085 52.4082 312.921 52.1445C312.763 51.8809 312.555 51.6729 312.297 51.5205C312.039 51.3682 311.726 51.292 311.356 51.292C310.993 51.292 310.683 51.3682 310.425 51.5205C310.167 51.6729 309.956 51.8809 309.792 52.1445C309.628 52.4082 309.508 52.7129 309.432 53.0586C309.355 53.4043 309.317 53.7705 309.317 54.1572V54.3418ZM322.501 47.1611V49.4902H326.052V51.292H322.501V55.3789C322.501 55.7246 322.539 56.0146 322.615 56.249C322.697 56.4775 322.812 56.6621 322.958 56.8027C323.104 56.9375 323.28 57.0342 323.485 57.0928C323.696 57.1514 323.931 57.1807 324.188 57.1807C324.376 57.1807 324.566 57.1719 324.76 57.1543C324.959 57.1367 325.146 57.1162 325.322 57.0928C325.504 57.0635 325.671 57.0342 325.823 57.0049C325.981 56.9756 326.116 56.9463 326.228 56.917L326.465 58.5957C326.295 58.6953 326.096 58.7832 325.867 58.8594C325.639 58.9297 325.396 58.9883 325.138 59.0352C324.88 59.082 324.61 59.1172 324.329 59.1406C324.054 59.1699 323.781 59.1846 323.512 59.1846C322.99 59.1846 322.516 59.1172 322.088 58.9824C321.666 58.8418 321.303 58.6279 320.998 58.3408C320.699 58.0479 320.468 57.6787 320.304 57.2334C320.14 56.7822 320.058 56.2432 320.058 55.6162V51.292H317.887V49.4902H320.058V47.1611H322.501Z" fill="#4A4A4A"/>
<path d="M244.938 7.67299C244.738 7.01997 244.258 6.48939 243.657 6.16288L231.45 0.204069C231.13 0.0408138 230.77 0 230.449 0C230.129 0 229.769 0 229.449 0.0816275L217.242 6.08125C216.641 6.36695 216.201 6.89753 216.041 7.59136L213.039 21.0191C212.919 21.7129 213.079 22.4068 213.479 22.9781L221.924 33.6305C222.405 34.1203 223.085 34.4468 223.765 34.4876H237.214C237.934 34.5693 238.614 34.2427 239.055 33.6305L247.5 22.9781C247.9 22.4068 248.06 21.7129 247.98 21.0191L244.938 7.67299Z" fill="#326DE6"/>
<path fill-rule="evenodd" clip-rule="evenodd" d="M230.082 15.2154C229.975 15.3225 229.832 15.381 229.681 15.381C229.528 15.381 229.384 15.3214 229.276 15.2127C229.145 15.0813 229.079 14.9351 229.079 14.7765C229.079 14.6243 229.137 14.481 229.243 14.373L224.457 9.56411C224.22 9.32624 223.905 9.19509 223.57 9.19509C223.237 9.19509 222.923 9.32482 222.687 9.5602L221.094 11.0532C220.855 11.2914 220.723 11.6088 220.723 11.9469C220.723 12.2832 220.854 12.5994 221.091 12.8378L225.878 17.6465C225.986 17.5394 226.128 17.4809 226.28 17.4809C226.432 17.4809 226.576 17.5406 226.684 17.6492C226.815 17.7806 226.881 17.9269 226.881 18.0856C226.881 18.2378 226.823 18.3811 226.717 18.4891L227.542 19.3187L228.619 18.2369C228.619 18.2365 228.699 18.1835 228.775 18.1278C228.89 18.044 229.003 17.9576 229.003 17.9571L229.821 17.137L230.908 16.045L230.082 15.2154Z" fill="white"/>
<path fill-rule="evenodd" clip-rule="evenodd" d="M227.543 19.7428L228.81 18.4692C228.818 18.464 228.827 18.4576 228.838 18.4504C228.868 18.4294 228.91 18.4006 228.951 18.3707C229.01 18.3274 229.069 18.2837 229.112 18.2509C229.134 18.2345 229.152 18.2207 229.165 18.2109L229.18 18.1992L229.185 18.1956L229.187 18.194L229.189 18.1922L229.192 18.1896C229.193 18.189 229.195 18.1877 229.197 18.1859L229.202 18.1814C229.204 18.1793 229.211 18.1733 229.215 18.1692L231.33 16.0451L230.084 14.7923L229.873 15.0025C229.822 15.0534 229.755 15.0812 229.681 15.0812C229.607 15.0812 229.54 15.0531 229.488 15.0008C229.402 14.9145 229.378 14.841 229.378 14.7765C229.378 14.7027 229.405 14.6354 229.456 14.584L229.665 14.372L224.669 9.35212C224.376 9.05803 223.985 8.89526 223.571 8.89526C223.16 8.89526 222.773 9.05499 222.481 9.34392L220.887 10.8371L220.884 10.8403C220.589 11.1348 220.425 11.5289 220.425 11.9469C220.425 12.363 220.588 12.7554 220.881 13.0498L225.878 18.0696L226.089 17.8595C226.14 17.8085 226.207 17.7808 226.28 17.7808C226.354 17.7808 226.421 17.8088 226.473 17.8611C226.559 17.9474 226.584 18.0209 226.584 18.0856C226.584 18.1595 226.556 18.2267 226.505 18.2781L226.296 18.49L227.543 19.7428ZM227.543 18.8947L227.101 18.451C227.153 18.3376 227.18 18.2133 227.18 18.0856C227.18 17.833 227.071 17.6138 226.895 17.4372C226.731 17.2723 226.512 17.1811 226.28 17.1811C226.153 17.1811 226.029 17.2085 225.917 17.2606L221.303 12.6258C221.121 12.4434 221.022 12.2033 221.022 11.9469C221.022 11.6901 221.121 11.4506 221.302 11.2691L222.894 9.77632L222.898 9.77311C223.078 9.59341 223.316 9.49491 223.571 9.49491C223.827 9.49491 224.066 9.59446 224.247 9.77611L228.86 14.4111C228.808 14.5246 228.781 14.6488 228.781 14.7765C228.781 15.029 228.89 15.2482 229.066 15.4246M227.543 18.8947L228.408 18.0249C228.421 18.0125 228.432 18.0036 228.433 18.0026C228.437 17.9999 228.44 17.9977 228.441 17.9968C228.444 17.9947 228.446 17.9932 228.446 17.9927L228.45 17.9901L228.453 17.9883L228.466 17.9792C228.475 17.9735 228.486 17.9655 228.5 17.9558C228.529 17.9363 228.565 17.9107 228.601 17.8849C228.656 17.8445 228.712 17.803 228.754 17.7715C228.774 17.7558 228.792 17.7427 228.804 17.7335L228.807 17.731L230.486 16.045L230.045 15.6013C229.932 15.6535 229.808 15.6808 229.681 15.6808C229.449 15.6808 229.23 15.5896 229.066 15.4246" fill="#326DE6"/>
<path fill-rule="evenodd" clip-rule="evenodd" d="M237.188 23.4669L236.307 23.529L230.145 17.482L229.021 18.7527L234.947 24.7036L234.974 25.8098L237.405 27.165L238.535 25.9045L237.188 23.4669Z" fill="white"/>
<path fill-rule="evenodd" clip-rule="evenodd" d="M237.467 27.543L238.899 25.9461L237.357 23.1545L236.419 23.2205L230.129 17.0478L228.611 18.7649L234.651 24.8308L234.679 25.9886L237.467 27.543ZM235.268 25.6309L235.242 24.5763L229.431 18.7405L230.16 17.9162L236.193 23.8375L237.019 23.7793L238.17 25.8628L237.342 26.7871L235.268 25.6309Z" fill="#326DE6"/>
<path d="M226.207 15.7194C226.089 15.8377 225.898 15.8377 225.78 15.7194L222.192 12.1144C222.074 11.9963 222.074 11.8043 222.192 11.6861C222.251 11.627 222.328 11.5975 222.405 11.5975C222.482 11.5975 222.559 11.627 222.618 11.6861L226.207 15.2911C226.324 15.4094 226.324 15.6012 226.207 15.7194Z" fill="#326DE6"/>
<path d="M226.879 14.6156L223.29 11.0106C223.173 10.8925 223.173 10.7005 223.29 10.5824C223.349 10.5232 223.427 10.4937 223.504 10.4937C223.581 10.4937 223.658 10.5232 223.717 10.5824L227.305 14.1873C227.423 14.3055 227.423 14.4975 227.305 14.6156C227.188 14.7339 226.997 14.7339 226.879 14.6156Z" fill="#326DE6"/>
<path fill-rule="evenodd" clip-rule="evenodd" d="M238.829 17.4726C238.105 18.2 237.322 17.256 237.322 17.256L236.499 16.4329C236.62 16.066 236.662 15.7802 236.639 15.5583C236.622 15.3932 236.569 15.2706 236.485 15.1858C236.369 15.0682 236.206 15.0234 236.052 15.0069C235.924 14.9931 235.798 15.0007 235.694 15.0174C235.67 15.0211 235.593 14.9804 235.587 14.991L235.389 15.2985L235.128 15.0439C234.189 14.129 233.742 13.6512 233.742 13.6512C233.567 13.4573 233.286 13.086 233.347 12.6669C233.38 12.4376 233.316 11.3146 232.591 10.6282C232.184 10.2429 231.564 10.0109 230.644 10.1318C229.802 10.1506 229.68 9.77581 229.666 9.71834L229.292 9.08313C229.263 9.041 229.191 8.91798 229.191 8.7409C229.191 8.64494 229.212 8.53089 229.282 8.4065C229.359 8.26943 229.505 8.10622 229.797 7.94854C233.751 5.72538 236.67 8.98483 236.856 9.20017C236.968 9.31225 238.245 10.595 238.896 11.254C238.932 11.291 238.971 11.3301 239.011 11.3708C238.999 11.4205 238.987 11.472 238.976 11.5252C238.88 11.9985 238.888 12.3741 239.098 12.5843C239.301 12.788 239.663 12.8002 240.141 12.6966C240.195 12.6848 240.248 12.6723 240.298 12.6589C240.336 12.6977 240.375 12.7373 240.415 12.7777C240.531 12.8939 240.64 12.9996 240.742 13.0974C241.207 13.5451 241.488 13.8682 241.526 14.2109C241.561 14.5162 241.436 14.8654 240.953 15.3505C240.411 15.8944 239.965 16.3386 239.585 16.7181C239.301 17.0007 239.054 17.2473 238.829 17.4726Z" fill="white"/>
<path fill-rule="evenodd" clip-rule="evenodd" d="M234.617 7.93328C233.44 7.40089 231.823 7.15318 229.943 8.21012L229.941 8.21137L229.939 8.21257C229.688 8.3481 229.587 8.47416 229.542 8.55389C229.5 8.62904 229.49 8.69151 229.49 8.74107C229.49 8.83578 229.529 8.89964 229.538 8.91295L229.544 8.92162L229.945 9.6039L229.954 9.64201C229.958 9.65038 229.974 9.678 230.018 9.70942C230.087 9.75883 230.255 9.83825 230.622 9.83228C231.605 9.70692 232.315 9.95451 232.796 10.41C233.213 10.8051 233.431 11.3159 233.542 11.7432C233.651 12.1641 233.666 12.5443 233.642 12.7103C233.623 12.8399 233.656 12.9742 233.723 13.1091C233.79 13.2431 233.883 13.3606 233.961 13.4479L233.964 13.4508L233.979 13.4669C233.993 13.4813 234.013 13.5031 234.041 13.5322C234.097 13.5905 234.182 13.678 234.295 13.7941C234.523 14.0262 234.868 14.3727 235.336 14.8286C235.386 14.7506 235.457 14.7165 235.503 14.7025C235.546 14.6893 235.583 14.689 235.602 14.6896C235.639 14.6908 235.669 14.6986 235.679 14.7013C235.691 14.7045 235.704 14.7085 235.714 14.7119C235.825 14.6987 235.953 14.6946 236.084 14.7087C236.264 14.728 236.509 14.7845 236.697 14.9746C236.84 15.1201 236.914 15.3133 236.936 15.5277C236.96 15.7645 236.925 16.037 236.837 16.348L237.543 17.0533L237.551 17.0632L237.551 17.0634L237.551 17.0636L237.552 17.0639L237.555 17.0681C237.559 17.0726 237.566 17.08 237.575 17.0897C237.593 17.1092 237.621 17.1375 237.656 17.1699C237.729 17.236 237.827 17.3129 237.939 17.3693C238.05 17.4259 238.161 17.4549 238.265 17.4467C238.363 17.439 238.483 17.3969 238.618 17.2605C238.843 17.0351 239.09 16.7883 239.373 16.5064L239.374 16.5052C239.755 16.1257 240.201 15.6818 240.742 15.1384C241.196 14.6816 241.249 14.4181 241.23 14.2447C241.219 14.1459 241.171 14.0293 241.055 13.8726C240.937 13.7145 240.766 13.5364 240.535 13.3137L240.533 13.3114C240.432 13.2144 240.321 13.1075 240.204 12.9896C239.951 13.0445 239.708 13.0736 239.49 13.0543C239.27 13.0348 239.053 12.9633 238.887 12.7964C238.717 12.6257 238.645 12.4034 238.625 12.1805C238.605 11.9596 238.633 11.7149 238.684 11.4651C238.033 10.8066 236.757 9.52433 236.645 9.41212L236.638 9.40476L236.631 9.39691C236.55 9.30351 235.808 8.47152 234.617 7.93328ZM237.104 17.4603L236.157 16.5146L236.215 16.3385C236.33 15.9913 236.359 15.7514 236.342 15.5888C236.33 15.473 236.297 15.4211 236.273 15.397C236.228 15.3518 236.149 15.3187 236.021 15.305C235.923 15.2945 235.824 15.3002 235.741 15.3135C235.739 15.3138 235.736 15.3141 235.734 15.3144L235.443 15.7683L234.92 15.2591C234.449 14.8 234.101 14.4502 233.87 14.2147C233.754 14.097 233.668 14.0078 233.611 13.9479C233.582 13.9179 233.561 13.8953 233.546 13.88L233.53 13.8626L233.526 13.8581L233.524 13.8565C233.524 13.8565 233.524 13.8564 233.742 13.6511L233.524 13.8564L233.522 13.8543L233.52 13.8521C233.425 13.7458 233.291 13.5815 233.189 13.3778C233.087 13.1738 233.009 12.9129 233.052 12.6233C233.061 12.56 233.06 12.2641 232.964 11.8946C232.87 11.5315 232.694 11.1376 232.386 10.8463C232.056 10.5337 231.531 10.3176 230.683 10.429L230.667 10.4311L230.651 10.4315C230.187 10.4419 229.877 10.3448 229.671 10.1978C229.499 10.0748 229.424 9.93286 229.391 9.84108L229.04 9.24327C228.989 9.16619 228.893 8.98875 228.893 8.74064C228.893 8.59828 228.925 8.43264 229.022 8.25902C229.131 8.06506 229.322 7.86515 229.654 7.68565C231.727 6.52083 233.546 6.79129 234.862 7.38646C236.14 7.96435 236.944 8.84578 237.074 8.99521C237.224 9.14556 238.468 10.3949 239.108 11.0427C239.144 11.0798 239.183 11.119 239.223 11.1599L239.341 11.2797L239.301 11.4434C239.289 11.4885 239.279 11.5357 239.269 11.5851C239.223 11.8087 239.207 11.9884 239.22 12.1262C239.232 12.262 239.269 12.3326 239.309 12.3721C239.346 12.4089 239.412 12.4454 239.543 12.457C239.676 12.4688 239.853 12.4523 240.078 12.4035C240.129 12.3926 240.177 12.381 240.222 12.369L240.39 12.3244L240.512 12.4493C240.549 12.4874 240.587 12.5262 240.626 12.5656C240.739 12.679 240.846 12.7824 240.948 12.8802L240.949 12.881C241.182 13.106 241.384 13.3133 241.533 13.5143C241.683 13.7169 241.795 13.9332 241.823 14.1771C241.872 14.6141 241.675 15.0491 241.164 15.5624C240.622 16.1068 240.176 16.5514 239.795 16.9309L239.794 16.9315C239.511 17.2139 239.264 17.46 239.04 17.6845C238.814 17.9119 238.565 18.0246 238.312 18.0445C238.066 18.0639 237.844 17.9932 237.67 17.9047C237.495 17.8161 237.352 17.7024 237.256 17.6142C237.206 17.5695 237.167 17.5297 237.14 17.5004C237.126 17.4857 237.115 17.4735 237.107 17.4646C237.106 17.463 237.105 17.4616 237.104 17.4603Z" fill="#326DE6"/>
<path fill-rule="evenodd" clip-rule="evenodd" d="M234.707 15.9851C234.707 15.9851 226.659 24.8338 225.144 26.5333C224.657 27.0234 224.137 27.228 223.648 27.2463C223.075 27.2678 222.539 27.0306 222.151 26.6413C221.763 26.2513 221.526 25.7106 221.546 25.1338C221.563 24.6411 221.766 24.1172 222.241 23.6401C224.337 21.5345 232.702 13.9673 232.702 13.9673C232.702 13.9673 232.776 13.9001 232.912 13.7769L234.9 15.7735C234.775 15.9105 234.707 15.9851 234.707 15.9851Z" fill="white"/>
<path fill-rule="evenodd" clip-rule="evenodd" d="M232.923 13.3639L235.312 15.7643L234.928 16.1874L234.707 15.9852C234.928 16.1874 234.928 16.1873 234.928 16.1874L234.927 16.1878L234.579 16.5709C234.356 16.8162 234.036 17.1685 233.646 17.5965C232.868 18.4526 231.815 19.6118 230.714 20.824C228.513 23.2492 226.123 25.8849 225.367 26.7333L225.361 26.7394L225.356 26.7452C224.819 27.2847 224.229 27.5246 223.659 27.546C222.996 27.5709 222.381 27.2963 221.94 26.8534C221.498 26.4097 221.224 25.7903 221.248 25.1233C221.268 24.5505 221.505 23.9557 222.03 23.4281C223.084 22.3693 225.705 19.9456 228.056 17.7926C229.233 16.7147 230.345 15.7028 231.162 14.9603C231.57 14.589 231.905 14.2851 232.138 14.074C232.255 13.9684 232.345 13.8861 232.407 13.8301L232.502 13.7446C232.502 13.7446 232.502 13.7445 232.702 13.9673L232.502 13.7446L232.923 13.3639ZM234.488 15.7844L232.9 14.189C232.901 14.1902 232.901 14.1902 232.901 14.1902L232.807 14.2755C232.745 14.3314 232.654 14.4137 232.538 14.5192C232.305 14.7301 231.97 15.0339 231.562 15.405C230.745 16.1471 229.635 17.1585 228.458 18.2357C226.103 20.3927 223.494 22.8054 222.452 23.8522C222.028 24.2787 221.859 24.7318 221.844 25.1443C221.827 25.631 222.027 26.093 222.362 26.4294C222.696 26.7651 223.154 26.9649 223.637 26.9468C224.043 26.9316 224.491 26.7637 224.928 26.3271C225.692 25.4695 228.078 22.838 230.273 20.4199C231.374 19.2076 232.427 18.0483 233.206 17.1922C233.595 16.7641 233.915 16.4118 234.138 16.1665L234.487 15.7831C234.487 15.783 234.487 15.783 234.488 15.7844Z" fill="#326DE6"/>
</svg>
