<svg width="473" height="130" viewBox="0 0 473 130" fill="none" xmlns="http://www.w3.org/2000/svg">
<path d="M404.638 122.687H400.366L399.338 126H397.712L401.843 113.203H403.205L407.266 126H405.648L404.638 122.687ZM400.806 121.271H404.207L402.52 115.717L400.806 121.271ZM410.799 116.49L410.913 117.896C411.259 117.404 411.684 117.021 412.188 116.745C412.691 116.464 413.254 116.32 413.875 116.314C414.373 116.314 414.824 116.385 415.229 116.525C415.639 116.666 415.987 116.886 416.274 117.185C416.562 117.483 416.781 117.864 416.934 118.327C417.092 118.784 417.171 119.329 417.171 119.962V126H415.545V119.997C415.545 119.575 415.498 119.218 415.404 118.925C415.311 118.632 415.17 118.395 414.982 118.213C414.801 118.031 414.575 117.899 414.306 117.817C414.042 117.735 413.737 117.694 413.392 117.694C412.847 117.694 412.366 117.832 411.95 118.107C411.54 118.377 411.212 118.734 410.966 119.18V126H409.34V116.49H410.799ZM426.399 126C426.335 125.877 426.282 125.725 426.241 125.543C426.206 125.355 426.18 125.162 426.162 124.963C425.998 125.127 425.813 125.282 425.608 125.429C425.409 125.575 425.187 125.704 424.94 125.815C424.7 125.927 424.442 126.015 424.167 126.079C423.892 126.144 423.599 126.176 423.288 126.176C422.784 126.176 422.327 126.103 421.917 125.956C421.513 125.81 421.167 125.613 420.88 125.367C420.599 125.115 420.379 124.819 420.221 124.479C420.068 124.134 419.992 123.762 419.992 123.363C419.992 122.842 420.095 122.385 420.3 121.992C420.511 121.6 420.807 121.274 421.188 121.017C421.568 120.753 422.025 120.557 422.559 120.428C423.098 120.299 423.698 120.234 424.36 120.234H426.136V119.487C426.136 119.2 426.083 118.942 425.978 118.714C425.872 118.485 425.723 118.292 425.529 118.134C425.336 117.97 425.099 117.844 424.817 117.756C424.542 117.668 424.231 117.624 423.886 117.624C423.563 117.624 423.273 117.665 423.016 117.747C422.764 117.829 422.55 117.938 422.374 118.072C422.198 118.207 422.061 118.368 421.961 118.556C421.867 118.737 421.82 118.928 421.82 119.127H420.186C420.191 118.781 420.279 118.441 420.449 118.107C420.625 117.773 420.874 117.475 421.196 117.211C421.524 116.941 421.92 116.725 422.383 116.561C422.852 116.396 423.382 116.314 423.974 116.314C424.513 116.314 425.014 116.382 425.477 116.517C425.939 116.646 426.338 116.845 426.672 117.114C427.012 117.378 427.278 117.709 427.472 118.107C427.665 118.506 427.762 118.972 427.762 119.505V123.926C427.762 124.242 427.791 124.579 427.85 124.937C427.908 125.288 427.99 125.596 428.096 125.859V126H426.399ZM423.525 124.761C423.842 124.761 424.138 124.72 424.413 124.638C424.688 124.556 424.938 124.447 425.16 124.312C425.389 124.178 425.585 124.025 425.749 123.855C425.913 123.68 426.042 123.498 426.136 123.311V121.386H424.624C423.675 121.386 422.937 121.526 422.409 121.808C421.882 122.089 421.618 122.531 421.618 123.135C421.618 123.369 421.656 123.586 421.732 123.785C421.814 123.984 421.935 124.157 422.093 124.304C422.251 124.444 422.45 124.556 422.69 124.638C422.931 124.72 423.209 124.761 423.525 124.761ZM431.216 112.5H436.076V124.594H439.179V126H431.216V124.594H434.45V113.915H431.216V112.5ZM445.27 122.625L445.691 123.776L448.592 116.49H450.411L445.586 127.468C445.475 127.714 445.331 127.975 445.155 128.25C444.985 128.525 444.777 128.78 444.531 129.015C444.285 129.249 443.998 129.445 443.67 129.604C443.342 129.762 442.964 129.841 442.536 129.841C442.46 129.841 442.375 129.835 442.281 129.823C442.188 129.817 442.094 129.806 442 129.788C441.906 129.776 441.818 129.762 441.736 129.744C441.654 129.727 441.587 129.712 441.534 129.7L441.798 128.373C441.839 128.373 441.895 128.376 441.965 128.382C442.035 128.388 442.108 128.394 442.185 128.399C442.261 128.405 442.334 128.408 442.404 128.408C442.475 128.414 442.53 128.417 442.571 128.417C442.794 128.417 442.996 128.355 443.178 128.232C443.365 128.109 443.529 127.963 443.67 127.793C443.816 127.623 443.939 127.447 444.039 127.266C444.145 127.084 444.227 126.935 444.285 126.817L444.936 125.552L440.84 116.49H442.659L445.27 122.625ZM454.533 124.673H460.589V126H452.459V124.805L458.137 117.835H452.538V116.49H460.272V117.642L454.533 124.673ZM467.594 126.176C466.926 126.176 466.311 126.062 465.748 125.833C465.191 125.604 464.714 125.285 464.315 124.875C463.917 124.465 463.606 123.979 463.384 123.416C463.161 122.854 463.05 122.241 463.05 121.579V121.21C463.05 120.442 463.173 119.757 463.419 119.153C463.665 118.544 463.99 118.031 464.395 117.615C464.805 117.193 465.268 116.871 465.783 116.648C466.305 116.426 466.838 116.314 467.383 116.314C468.068 116.314 468.666 116.435 469.176 116.675C469.691 116.909 470.119 117.237 470.459 117.659C470.799 118.075 471.051 118.567 471.215 119.136C471.385 119.704 471.47 120.319 471.47 120.981V121.711H464.676C464.693 122.145 464.775 122.552 464.922 122.933C465.074 123.313 465.279 123.647 465.537 123.935C465.801 124.216 466.114 124.438 466.478 124.603C466.841 124.767 467.242 124.849 467.682 124.849C468.262 124.849 468.777 124.731 469.229 124.497C469.68 124.263 470.055 123.952 470.354 123.565L471.347 124.339C471.188 124.579 470.989 124.811 470.749 125.033C470.515 125.25 470.242 125.443 469.932 125.613C469.621 125.783 469.27 125.918 468.877 126.018C468.484 126.123 468.057 126.176 467.594 126.176ZM467.383 117.65C467.055 117.65 466.744 117.712 466.451 117.835C466.158 117.952 465.895 118.128 465.66 118.362C465.426 118.591 465.227 118.875 465.062 119.215C464.904 119.549 464.793 119.936 464.729 120.375H469.844V120.252C469.826 119.936 469.765 119.622 469.659 119.312C469.56 119.001 469.41 118.723 469.211 118.477C469.012 118.23 468.76 118.031 468.455 117.879C468.156 117.727 467.799 117.65 467.383 117.65Z" fill="#C5C5C5"/>
<path d="M207.493 121.219H205.621V126H203.151V113.203H207.44C208.149 113.203 208.791 113.288 209.365 113.458C209.939 113.622 210.429 113.865 210.833 114.188C211.243 114.51 211.557 114.911 211.773 115.392C211.996 115.872 212.107 116.429 212.107 117.062C212.107 117.519 212.052 117.932 211.94 118.301C211.835 118.664 211.68 118.992 211.475 119.285C211.275 119.572 211.032 119.824 210.745 120.041C210.464 120.258 210.147 120.445 209.796 120.604L212.547 125.886V126H209.901L207.493 121.219ZM205.621 119.215H207.449C208.146 119.215 208.683 119.039 209.058 118.688C209.438 118.33 209.629 117.844 209.629 117.229C209.629 116.59 209.444 116.095 209.075 115.743C208.706 115.386 208.161 115.207 207.44 115.207H205.621V119.215ZM218.664 126.176C217.932 126.176 217.267 126.056 216.669 125.815C216.071 125.575 215.559 125.25 215.131 124.84C214.703 124.424 214.372 123.938 214.138 123.381C213.909 122.818 213.795 122.218 213.795 121.579V121.228C213.795 120.501 213.909 119.839 214.138 119.241C214.366 118.638 214.686 118.119 215.096 117.686C215.506 117.252 215.992 116.915 216.555 116.675C217.117 116.435 217.729 116.314 218.392 116.314C219.077 116.314 219.687 116.429 220.22 116.657C220.759 116.88 221.213 117.196 221.582 117.606C221.957 118.017 222.241 118.512 222.435 119.092C222.628 119.666 222.725 120.302 222.725 120.999V122.036H216.273C216.32 122.358 216.414 122.654 216.555 122.924C216.701 123.188 216.886 123.416 217.108 123.609C217.331 123.803 217.586 123.952 217.873 124.058C218.16 124.163 218.474 124.216 218.813 124.216C219.054 124.216 219.291 124.192 219.525 124.146C219.766 124.099 219.994 124.031 220.211 123.943C220.428 123.85 220.63 123.735 220.817 123.601C221.005 123.466 221.169 123.308 221.31 123.126L222.531 124.444C222.379 124.661 222.18 124.875 221.934 125.086C221.693 125.291 221.406 125.476 221.072 125.64C220.744 125.798 220.378 125.927 219.974 126.026C219.569 126.126 219.133 126.176 218.664 126.176ZM218.374 118.292C218.099 118.292 217.847 118.342 217.618 118.441C217.39 118.535 217.188 118.673 217.012 118.854C216.842 119.036 216.698 119.253 216.581 119.505C216.464 119.757 216.376 120.038 216.317 120.349H220.325V120.155C220.313 119.897 220.264 119.654 220.176 119.426C220.088 119.197 219.962 119.001 219.798 118.837C219.634 118.667 219.432 118.535 219.191 118.441C218.957 118.342 218.685 118.292 218.374 118.292ZM224.605 121.175C224.605 120.454 224.688 119.795 224.852 119.197C225.021 118.6 225.268 118.087 225.59 117.659C225.912 117.231 226.302 116.9 226.759 116.666C227.222 116.432 227.749 116.314 228.341 116.314C228.839 116.314 229.275 116.405 229.65 116.587C230.031 116.763 230.368 117.015 230.661 117.343V112.5H233.113V126H230.907L230.784 125.007C230.485 125.376 230.134 125.663 229.729 125.868C229.325 126.073 228.856 126.176 228.323 126.176C227.743 126.176 227.222 126.056 226.759 125.815C226.302 125.569 225.912 125.232 225.59 124.805C225.273 124.377 225.03 123.87 224.86 123.284C224.69 122.692 224.605 122.051 224.605 121.359V121.175ZM227.049 121.359C227.049 121.758 227.081 122.13 227.146 122.476C227.216 122.815 227.327 123.114 227.479 123.372C227.632 123.624 227.828 123.823 228.068 123.97C228.309 124.116 228.602 124.189 228.947 124.189C229.369 124.189 229.718 124.099 229.993 123.917C230.274 123.735 230.497 123.486 230.661 123.17V119.32C230.497 118.998 230.277 118.749 230.002 118.573C229.727 118.392 229.381 118.301 228.965 118.301C228.619 118.301 228.323 118.377 228.077 118.529C227.837 118.676 227.641 118.881 227.488 119.145C227.336 119.402 227.225 119.707 227.154 120.059C227.084 120.404 227.049 120.776 227.049 121.175V121.359ZM241.612 126C241.554 125.883 241.504 125.748 241.463 125.596C241.422 125.443 241.387 125.282 241.357 125.112C241.223 125.259 241.067 125.396 240.892 125.525C240.716 125.654 240.52 125.769 240.303 125.868C240.092 125.962 239.857 126.035 239.6 126.088C239.342 126.146 239.063 126.176 238.765 126.176C238.278 126.176 237.83 126.105 237.42 125.965C237.016 125.824 236.667 125.628 236.374 125.376C236.081 125.124 235.853 124.825 235.688 124.479C235.524 124.128 235.442 123.747 235.442 123.337C235.442 122.335 235.814 121.562 236.559 121.017C237.309 120.466 238.425 120.19 239.907 120.19H241.27V119.628C241.27 119.171 241.12 118.811 240.821 118.547C240.522 118.277 240.092 118.143 239.529 118.143C239.031 118.143 238.668 118.251 238.439 118.468C238.211 118.679 238.097 118.963 238.097 119.32H235.653C235.653 118.916 235.741 118.532 235.917 118.169C236.099 117.806 236.359 117.486 236.699 117.211C237.045 116.936 237.464 116.719 237.956 116.561C238.454 116.396 239.022 116.314 239.661 116.314C240.235 116.314 240.769 116.385 241.261 116.525C241.759 116.666 242.189 116.874 242.553 117.149C242.916 117.425 243.2 117.773 243.405 118.195C243.61 118.611 243.713 119.095 243.713 119.646V123.724C243.713 124.233 243.745 124.655 243.81 124.989C243.874 125.323 243.968 125.61 244.091 125.851V126H241.612ZM239.283 124.286C239.529 124.286 239.758 124.257 239.969 124.198C240.18 124.14 240.37 124.063 240.54 123.97C240.71 123.876 240.856 123.771 240.979 123.653C241.103 123.53 241.199 123.407 241.27 123.284V121.649H240.021C239.641 121.649 239.315 121.688 239.046 121.764C238.776 121.834 238.557 121.937 238.387 122.071C238.217 122.2 238.091 122.358 238.009 122.546C237.927 122.728 237.886 122.927 237.886 123.144C237.886 123.472 238 123.744 238.229 123.961C238.463 124.178 238.814 124.286 239.283 124.286ZM250.691 124.225C250.932 124.225 251.16 124.189 251.377 124.119C251.594 124.049 251.784 123.949 251.948 123.82C252.112 123.691 252.238 123.536 252.326 123.354C252.42 123.173 252.461 122.971 252.449 122.748H254.752C254.764 123.24 254.661 123.697 254.444 124.119C254.233 124.541 253.943 124.904 253.574 125.209C253.205 125.514 252.774 125.754 252.282 125.93C251.796 126.1 251.28 126.185 250.735 126.185C249.997 126.185 249.35 126.062 248.793 125.815C248.236 125.563 247.771 125.221 247.396 124.787C247.026 124.354 246.745 123.847 246.552 123.267C246.364 122.681 246.271 122.054 246.271 121.386V121.122C246.271 120.454 246.364 119.83 246.552 119.25C246.739 118.664 247.021 118.154 247.396 117.721C247.771 117.287 248.233 116.944 248.784 116.692C249.341 116.44 249.985 116.314 250.718 116.314C251.304 116.314 251.846 116.402 252.344 116.578C252.842 116.754 253.27 117.003 253.627 117.325C253.99 117.642 254.271 118.028 254.471 118.485C254.67 118.937 254.764 119.443 254.752 120.006H252.449C252.461 119.771 252.426 119.549 252.344 119.338C252.262 119.127 252.142 118.945 251.983 118.793C251.825 118.641 251.635 118.521 251.412 118.433C251.189 118.339 250.946 118.292 250.683 118.292C250.296 118.292 249.977 118.371 249.725 118.529C249.473 118.688 249.271 118.898 249.118 119.162C248.972 119.426 248.866 119.728 248.802 120.067C248.743 120.407 248.714 120.759 248.714 121.122V121.386C248.714 121.755 248.743 122.112 248.802 122.458C248.86 122.798 248.963 123.1 249.109 123.363C249.262 123.621 249.464 123.829 249.716 123.987C249.974 124.146 250.299 124.225 250.691 124.225ZM261.774 114.161V116.49H265.325V118.292H261.774V122.379C261.774 122.725 261.812 123.015 261.889 123.249C261.971 123.478 262.085 123.662 262.231 123.803C262.378 123.938 262.554 124.034 262.759 124.093C262.97 124.151 263.204 124.181 263.462 124.181C263.649 124.181 263.84 124.172 264.033 124.154C264.232 124.137 264.42 124.116 264.596 124.093C264.777 124.063 264.944 124.034 265.097 124.005C265.255 123.976 265.39 123.946 265.501 123.917L265.738 125.596C265.568 125.695 265.369 125.783 265.141 125.859C264.912 125.93 264.669 125.988 264.411 126.035C264.153 126.082 263.884 126.117 263.603 126.141C263.327 126.17 263.055 126.185 262.785 126.185C262.264 126.185 261.789 126.117 261.361 125.982C260.939 125.842 260.576 125.628 260.271 125.341C259.973 125.048 259.741 124.679 259.577 124.233C259.413 123.782 259.331 123.243 259.331 122.616V118.292H257.16V116.49H259.331V114.161H261.774Z" fill="#4A4A4A"/>
<path d="M41 86H226" stroke="#E5E5E5" stroke-width="2" stroke-dasharray="8 8"/>
<path d="M246 86H433" stroke="#E5E5E5" stroke-width="2" stroke-dasharray="8 8"/>
<circle cx="38.5" cy="85.5" r="10" stroke="#E5E5E5"/>
<circle cx="38.5" cy="85.5" r="7.5" fill="#E5E5E5"/>
<circle cx="435.5" cy="85.5" r="10" stroke="#E5E5E5"/>
<circle cx="435.5" cy="85.5" r="7.5" fill="#E5E5E5"/>
<path d="M245.543 9.57496L245.552 9.58463L245.561 9.59406L251.335 15.6826L251.282 55.2314C251.282 55.3896 251.153 55.5177 250.995 55.5177H210.287C210.128 55.5177 210 55.3894 210 55.231V2.27775C210 2.11853 210.13 1.98981 210.289 1.99108L238.923 2.21989L245.543 9.57496Z" fill="white" stroke="#E5E5E5" stroke-width="2"/>
<path d="M238.03 1.88953V15.5311C238.03 16.0048 238.414 16.3889 238.888 16.3889H251.142" stroke="#E5E5E5" stroke-width="2" stroke-dasharray="1.12 1.12"/>
<path d="M215.873 9.85367H227.177" stroke="#E5E5E5" stroke-width="1.5" stroke-linecap="round"/>
<path d="M219.309 15.532H230.613" stroke="#E5E5E5" stroke-width="1.5" stroke-linecap="round"/>
<path d="M219.309 21.2104H235.918" stroke="#EBB55C" stroke-width="1.5" stroke-linecap="round"/>
<path d="M219.309 48.9272H235.918" stroke="#EBB55C" stroke-width="1.5" stroke-linecap="round"/>
<path d="M215.873 26.8886H224.464" stroke="#E5E5E5" stroke-width="1.5" stroke-linecap="round"/>
<path d="M219.309 32.5668H225.609" stroke="#EBB55C" stroke-width="1.5" stroke-linecap="round"/>
<path d="M219.309 38.245H228.473" stroke="#EBB55C" stroke-width="1.5" stroke-linecap="round"/>
<path d="M253.381 14.0573L253.39 14.0669L253.399 14.0764L259.173 20.1649L259.12 59.7137C259.12 59.8719 258.991 60 258.833 60H218.125C217.966 60 217.838 59.8717 217.838 59.7133V6.76004C217.838 6.60083 217.968 6.47211 218.127 6.47338L246.761 6.70219L253.381 14.0573Z" fill="white" stroke="#C5C5C5" stroke-width="2"/>
<path d="M222.634 14.8169H236.31" stroke="#C5C5C5" stroke-width="1.5" stroke-linecap="round"/>
<path d="M222.369 11.1423H234.275" stroke="#C5C5C5" stroke-width="1.5" stroke-linecap="round" stroke-dasharray="4.06 4.06"/>
<path d="M222.634 18.4913H242.334" stroke="#C5C5C5" stroke-width="1.5" stroke-linecap="round"/>
<path d="M222.634 22.1658H226.216" stroke="#9B9B9B" stroke-width="1.5" stroke-linecap="round"/>
<path d="M228.495 22.1658H237.205" stroke="#C5C5C5" stroke-width="1.5" stroke-linecap="round"/>
<path d="M224.099 25.8401H232.077" stroke="#9B9B9B" stroke-width="1.5" stroke-linecap="round"/>
<path d="M234.356 25.8401H235.74" stroke="#C5C5C5" stroke-width="1.5" stroke-linecap="round"/>
<path d="M224.099 29.5146H230.612" stroke="#9B9B9B" stroke-width="1.5" stroke-linecap="round"/>
<path d="M232.891 29.5146H248.195" stroke="#C5C5C5" stroke-width="1.5" stroke-linecap="round"/>
<path d="M224.099 33.1892H227.355" stroke="#9B9B9B" stroke-width="1.5" stroke-linecap="round"/>
<path d="M229.879 33.1892H241.601" stroke="#C5C5C5" stroke-width="1.5" stroke-linecap="round"/>
<path d="M225.564 36.8635H236.31" stroke="#9B9B9B" stroke-width="1.5" stroke-linecap="round"/>
<path d="M238.671 36.8635H243.799" stroke="#C5C5C5" stroke-width="1.5" stroke-linecap="round"/>
<path d="M227.03 40.538H232.077" stroke="#9B9B9B" stroke-width="1.5" stroke-linecap="round"/>
<path d="M234.275 40.538H235.741" stroke="#C5C5C5" stroke-width="1.5" stroke-linecap="round"/>
<path d="M222.634 44.2124H226.216" stroke="#9B9B9B" stroke-width="1.5" stroke-linecap="round"/>
<path d="M228.495 44.2124H237.205" stroke="#C5C5C5" stroke-width="1.5" stroke-linecap="round"/>
<path d="M224.099 47.8867H232.077" stroke="#9B9B9B" stroke-width="1.5" stroke-linecap="round"/>
<path d="M234.356 47.8867H235.74" stroke="#C5C5C5" stroke-width="1.5" stroke-linecap="round"/>
<path d="M224.099 51.5613H230.612" stroke="#9B9B9B" stroke-width="1.5" stroke-linecap="round"/>
<path d="M232.891 51.5613H248.195" stroke="#C5C5C5" stroke-width="1.5" stroke-linecap="round"/>
<path d="M224.099 55.2358H227.355" stroke="#9B9B9B" stroke-width="1.5" stroke-linecap="round"/>
<path d="M229.879 55.2358H241.601" stroke="#C5C5C5" stroke-width="1.5" stroke-linecap="round"/>
<path d="M246.465 6.40259V20.074C246.465 20.5478 246.849 20.9318 247.323 20.9318H259.511" stroke="#C5C5C5" stroke-width="2"/>
<rect x="223.292" y="24.0508" width="27.6609" height="3.68812" fill="#323232"/>
<rect x="224.674" y="38.8032" width="17.5186" height="3.68812" fill="#323232"/>
<rect x="221.908" y="12.802" width="17.5186" height="3.68812" fill="#323232"/>
<rect x="223.25" y="49.75" width="26.25" height="3.75" fill="#323232"/>
<rect x="223.292" y="31.427" width="27.6609" height="3.68812" fill="#323232"/>
<path d="M9.81738 122.15C9.74121 122.742 9.58887 123.287 9.36035 123.785C9.13184 124.277 8.83301 124.702 8.46387 125.06C8.10059 125.411 7.66699 125.687 7.16309 125.886C6.66504 126.079 6.1084 126.176 5.49316 126.176C4.96582 126.176 4.48535 126.103 4.05176 125.956C3.62402 125.804 3.24023 125.596 2.90039 125.332C2.56641 125.068 2.27637 124.758 2.03027 124.4C1.79004 124.043 1.58789 123.653 1.42383 123.231C1.26562 122.81 1.14551 122.367 1.06348 121.904C0.987305 121.441 0.946289 120.973 0.94043 120.498V118.714C0.946289 118.239 0.987305 117.771 1.06348 117.308C1.14551 116.845 1.26562 116.402 1.42383 115.98C1.58789 115.559 1.79004 115.169 2.03027 114.812C2.27637 114.448 2.56641 114.135 2.90039 113.871C3.24023 113.607 3.62402 113.402 4.05176 113.256C4.47949 113.104 4.95996 113.027 5.49316 113.027C6.13184 113.027 6.70312 113.127 7.20703 113.326C7.71094 113.52 8.14453 113.798 8.50781 114.161C8.87109 114.519 9.16113 114.949 9.37793 115.453C9.60059 115.957 9.74707 116.514 9.81738 117.123H8.19141C8.13867 116.736 8.04785 116.376 7.91895 116.042C7.79004 115.708 7.61719 115.415 7.40039 115.163C7.18359 114.911 6.91699 114.715 6.60059 114.574C6.29004 114.428 5.9209 114.354 5.49316 114.354C5.10645 114.354 4.76367 114.419 4.46484 114.548C4.17188 114.671 3.91699 114.841 3.7002 115.058C3.48926 115.274 3.31055 115.526 3.16406 115.813C3.02344 116.101 2.90918 116.405 2.82129 116.728C2.7334 117.05 2.66895 117.381 2.62793 117.721C2.59277 118.055 2.5752 118.38 2.5752 118.696V120.498C2.5752 120.814 2.59277 121.143 2.62793 121.482C2.66895 121.816 2.7334 122.147 2.82129 122.476C2.90918 122.798 3.02344 123.103 3.16406 123.39C3.30469 123.677 3.4834 123.932 3.7002 124.154C3.91699 124.371 4.17188 124.544 4.46484 124.673C4.75781 124.796 5.10059 124.857 5.49316 124.857C5.9209 124.857 6.29004 124.79 6.60059 124.655C6.91699 124.521 7.18359 124.333 7.40039 124.093C7.61719 123.847 7.79004 123.56 7.91895 123.231C8.04785 122.897 8.13867 122.537 8.19141 122.15H9.81738ZM11.8828 121.157C11.8828 120.472 11.9824 119.836 12.1816 119.25C12.3809 118.658 12.665 118.146 13.0342 117.712C13.4092 117.278 13.8633 116.938 14.3965 116.692C14.9297 116.44 15.5303 116.314 16.1982 116.314C16.8721 116.314 17.4756 116.44 18.0088 116.692C18.5479 116.938 19.002 117.278 19.3711 117.712C19.7461 118.146 20.0332 118.658 20.2324 119.25C20.4316 119.836 20.5312 120.472 20.5312 121.157V121.351C20.5312 122.036 20.4316 122.672 20.2324 123.258C20.0332 123.844 19.7461 124.354 19.3711 124.787C19.002 125.221 18.5508 125.561 18.0176 125.807C17.4844 126.053 16.8838 126.176 16.2158 126.176C15.542 126.176 14.9355 126.053 14.3965 125.807C13.8633 125.561 13.4092 125.221 13.0342 124.787C12.665 124.354 12.3809 123.844 12.1816 123.258C11.9824 122.672 11.8828 122.036 11.8828 121.351V121.157ZM13.5088 121.351C13.5088 121.819 13.5645 122.268 13.6758 122.695C13.7871 123.117 13.9541 123.489 14.1768 123.812C14.4053 124.134 14.6895 124.389 15.0293 124.576C15.3691 124.764 15.7646 124.857 16.2158 124.857C16.6611 124.857 17.0508 124.764 17.3848 124.576C17.7246 124.389 18.0059 124.134 18.2285 123.812C18.457 123.489 18.627 123.117 18.7383 122.695C18.8496 122.268 18.9053 121.819 18.9053 121.351V121.157C18.9053 120.694 18.8467 120.252 18.7295 119.83C18.6182 119.402 18.4482 119.027 18.2197 118.705C17.9971 118.383 17.7158 118.128 17.376 117.94C17.042 117.747 16.6494 117.65 16.1982 117.65C15.7471 117.65 15.3545 117.747 15.0205 117.94C14.6865 118.128 14.4053 118.383 14.1768 118.705C13.9541 119.027 13.7871 119.402 13.6758 119.83C13.5645 120.252 13.5088 120.694 13.5088 121.157V121.351ZM23.4053 112.5H28.2656V124.594H31.3682V126H23.4053V124.594H26.6396V113.915H23.4053V112.5ZM34.2158 112.5H39.0762V124.594H42.1787V126H34.2158V124.594H37.4502V113.915H34.2158V112.5ZM48.9727 126.176C48.3047 126.176 47.6895 126.062 47.127 125.833C46.5703 125.604 46.0928 125.285 45.6943 124.875C45.2959 124.465 44.9854 123.979 44.7627 123.416C44.54 122.854 44.4287 122.241 44.4287 121.579V121.21C44.4287 120.442 44.5518 119.757 44.7979 119.153C45.0439 118.544 45.3691 118.031 45.7734 117.615C46.1836 117.193 46.6465 116.871 47.1621 116.648C47.6836 116.426 48.2168 116.314 48.7617 116.314C49.4473 116.314 50.0449 116.435 50.5547 116.675C51.0703 116.909 51.498 117.237 51.8379 117.659C52.1777 118.075 52.4297 118.567 52.5938 119.136C52.7637 119.704 52.8486 120.319 52.8486 120.981V121.711H46.0547C46.0723 122.145 46.1543 122.552 46.3008 122.933C46.4531 123.313 46.6582 123.647 46.916 123.935C47.1797 124.216 47.4932 124.438 47.8564 124.603C48.2197 124.767 48.6211 124.849 49.0605 124.849C49.6406 124.849 50.1562 124.731 50.6074 124.497C51.0586 124.263 51.4336 123.952 51.7324 123.565L52.7256 124.339C52.5674 124.579 52.3682 124.811 52.1279 125.033C51.8936 125.25 51.6211 125.443 51.3105 125.613C51 125.783 50.6484 125.918 50.2559 126.018C49.8633 126.123 49.4355 126.176 48.9727 126.176ZM48.7617 117.65C48.4336 117.65 48.123 117.712 47.8301 117.835C47.5371 117.952 47.2734 118.128 47.0391 118.362C46.8047 118.591 46.6055 118.875 46.4414 119.215C46.2832 119.549 46.1719 119.936 46.1074 120.375H51.2227V120.252C51.2051 119.936 51.1436 119.622 51.0381 119.312C50.9385 119.001 50.7891 118.723 50.5898 118.477C50.3906 118.23 50.1387 118.031 49.834 117.879C49.5352 117.727 49.1777 117.65 48.7617 117.65ZM59.6338 124.857C59.9268 124.857 60.2109 124.811 60.4863 124.717C60.7676 124.623 61.0166 124.494 61.2334 124.33C61.4502 124.16 61.623 123.964 61.752 123.741C61.8867 123.513 61.957 123.267 61.9629 123.003H63.501C63.4951 123.425 63.3838 123.829 63.167 124.216C62.9561 124.597 62.6719 124.934 62.3145 125.227C61.957 125.514 61.5469 125.745 61.084 125.921C60.6211 126.091 60.1377 126.176 59.6338 126.176C58.9131 126.176 58.2832 126.047 57.7441 125.789C57.2051 125.531 56.7539 125.186 56.3906 124.752C56.0332 124.312 55.7637 123.809 55.582 123.24C55.4004 122.666 55.3096 122.062 55.3096 121.43V121.061C55.3096 120.434 55.4004 119.833 55.582 119.259C55.7637 118.685 56.0332 118.181 56.3906 117.747C56.7539 117.308 57.2051 116.959 57.7441 116.701C58.2832 116.443 58.9131 116.314 59.6338 116.314C60.1963 116.314 60.7119 116.405 61.1807 116.587C61.6553 116.763 62.0625 117.006 62.4023 117.316C62.748 117.621 63.0176 117.984 63.2109 118.406C63.4043 118.828 63.501 119.279 63.501 119.76H61.9629C61.957 119.473 61.8926 119.203 61.7695 118.951C61.6523 118.693 61.4912 118.468 61.2861 118.274C61.0811 118.081 60.835 117.929 60.5479 117.817C60.2666 117.706 59.9619 117.65 59.6338 117.65C59.1299 117.65 58.7051 117.753 58.3594 117.958C58.0195 118.157 57.7441 118.421 57.5332 118.749C57.3223 119.071 57.1699 119.435 57.0762 119.839C56.9883 120.243 56.9443 120.65 56.9443 121.061V121.43C56.9443 121.846 56.9883 122.259 57.0762 122.669C57.1699 123.073 57.3193 123.439 57.5244 123.768C57.7354 124.09 58.0107 124.354 58.3506 124.559C58.6963 124.758 59.124 124.857 59.6338 124.857ZM70.2422 114.188V116.49H73.8633V117.747H70.2422V122.915C70.2422 123.284 70.2891 123.589 70.3828 123.829C70.4766 124.069 70.6055 124.263 70.7695 124.409C70.9336 124.55 71.1211 124.649 71.332 124.708C71.5488 124.767 71.7773 124.796 72.0176 124.796C72.1934 124.796 72.375 124.787 72.5625 124.77C72.75 124.746 72.9316 124.72 73.1074 124.69C73.2891 124.661 73.4561 124.632 73.6084 124.603C73.7666 124.567 73.8955 124.538 73.9951 124.515L74.2236 125.666C74.0889 125.748 73.9248 125.821 73.7314 125.886C73.5381 125.944 73.3271 125.994 73.0986 126.035C72.8701 126.082 72.627 126.117 72.3691 126.141C72.1172 126.164 71.8652 126.176 71.6133 126.176C71.1914 126.176 70.7959 126.117 70.4268 126C70.0635 125.877 69.7471 125.687 69.4775 125.429C69.208 125.165 68.9941 124.828 68.8359 124.418C68.6836 124.002 68.6074 123.501 68.6074 122.915V117.747H66.1113V116.49H68.6074V114.188H70.2422Z" fill="#C5C5C5"/>
<circle cx="235" cy="86" r="17" fill="#326DE6"/>
<path d="M239.576 93H230.025V91.3887L234.654 86.3398C235.045 85.9036 235.37 85.5195 235.631 85.1875C235.898 84.849 236.109 84.5397 236.266 84.2598C236.422 83.9798 236.533 83.7194 236.598 83.4785C236.663 83.2376 236.695 82.9935 236.695 82.7461C236.695 82.4206 236.643 82.1211 236.539 81.8477C236.441 81.5677 236.298 81.3301 236.109 81.1348C235.927 80.9329 235.702 80.7767 235.436 80.666C235.175 80.5553 234.882 80.5 234.557 80.5C233.71 80.5 233.085 80.7311 232.682 81.1934C232.285 81.6556 232.086 82.2936 232.086 83.1074H229.742C229.742 82.4889 229.853 81.9062 230.074 81.3594C230.302 80.806 230.624 80.3242 231.041 79.9141C231.464 79.5039 231.975 79.1816 232.574 78.9473C233.173 78.7064 233.847 78.5859 234.596 78.5859C235.299 78.5859 235.924 78.6868 236.471 78.8887C237.018 79.0905 237.48 79.3737 237.857 79.7383C238.235 80.0964 238.521 80.5228 238.717 81.0176C238.912 81.5124 239.01 82.056 239.01 82.6484C239.01 83.0911 238.938 83.5208 238.795 83.9375C238.652 84.3477 238.453 84.7578 238.199 85.168C237.945 85.5781 237.643 85.9915 237.291 86.4082C236.939 86.8184 236.559 87.2415 236.148 87.6777L232.926 91.1348H239.576V93Z" fill="white"/>
</svg>
