<svg width="69" height="68" viewBox="0 0 69 68" fill="none" xmlns="http://www.w3.org/2000/svg">
<path d="M62.9506 15.1236C62.5561 13.8365 61.6095 12.7907 60.4262 12.1471L36.3653 0.402223C35.7342 0.0804445 35.0242 0 34.3931 0C33.762 0 33.052 0 32.4209 0.160889L8.3601 11.9862C7.17678 12.5493 6.30901 13.5951 5.99346 14.9627L0.0768652 41.4289C-0.159799 42.7965 0.155753 44.164 0.944633 45.2903L17.59 66.2863C18.5367 67.2516 19.8777 67.8952 21.2188 67.9756H47.7252C49.1452 68.1365 50.4863 67.493 51.354 66.2863L67.9994 45.2903C68.7883 44.164 69.1038 42.7965 68.9461 41.4289L62.9506 15.1236Z" fill="#326DE6"/>
<path fill-rule="evenodd" clip-rule="evenodd" d="M33.6687 29.9899C33.4568 30.201 33.1757 30.3163 32.877 30.3163C32.5759 30.3163 32.293 30.1988 32.0799 29.9846C31.8222 29.7256 31.6906 29.4373 31.6906 29.1248C31.6906 28.8248 31.8053 28.5425 32.0154 28.3295L22.5811 18.8511C22.1144 18.3823 21.4935 18.1238 20.8331 18.1238C20.1757 18.1238 19.5581 18.3795 19.0923 18.8434L15.9522 21.7862C15.481 22.2556 15.2217 22.8812 15.2217 23.5476C15.2217 24.2104 15.4795 24.8337 15.9473 25.3036L25.382 34.7816C25.5939 34.5706 25.875 34.4553 26.1737 34.4553C26.4745 34.4553 26.7573 34.5728 26.9703 34.787C27.2281 35.046 27.3597 35.3343 27.3597 35.6472C27.3597 35.9472 27.2449 36.2295 27.0349 36.4424L28.6619 38.0776L30.7844 35.9454C30.7852 35.9446 30.9414 35.8401 31.0924 35.7303C31.3195 35.5651 31.5413 35.3947 31.5423 35.3938L33.1532 33.7774L35.2957 31.6251L33.6687 29.9899Z" fill="white"/>
<path fill-rule="evenodd" clip-rule="evenodd" d="M28.6631 38.9135L31.1619 36.4032C31.1771 36.3929 31.1954 36.3804 31.2159 36.3663C31.2762 36.3248 31.3575 36.2681 31.4387 36.209C31.556 36.1237 31.6713 36.0376 31.7569 35.973C31.7998 35.9406 31.8356 35.9134 31.8609 35.894L31.8908 35.8711L31.8999 35.8641L31.9042 35.8607L31.9086 35.8573L31.915 35.8522C31.9164 35.851 31.9196 35.8483 31.9237 35.8448L31.9339 35.836C31.9385 35.8319 31.9512 35.82 31.9593 35.8119L36.1289 31.6252L33.672 29.1559L33.2559 29.5703C33.1551 29.6707 33.0232 29.7254 32.8783 29.7254C32.733 29.7254 32.5999 29.67 32.4975 29.567C32.3282 29.3969 32.2802 29.2521 32.2802 29.1249C32.2802 28.9793 32.3346 28.8468 32.4346 28.7455L32.8467 28.3277L22.9985 18.4333C22.4215 17.8537 21.651 17.5329 20.8344 17.5329C20.0251 17.5329 19.2614 17.8477 18.6862 18.4172L15.5457 21.3603L15.5394 21.3666C14.9566 21.947 14.6348 22.7237 14.6348 23.5476C14.6348 24.3679 14.9551 25.1413 15.5327 25.7215L25.3815 35.6156L25.7974 35.2014C25.8983 35.101 26.0301 35.0463 26.175 35.0463C26.3199 35.0463 26.4529 35.1016 26.5554 35.2047C26.7247 35.3747 26.7727 35.5196 26.7727 35.6472C26.7727 35.7928 26.7183 35.9252 26.6184 36.0266L26.2064 36.4443L28.6631 38.9135ZM28.6633 37.2418L27.7933 36.3674C27.8956 36.1438 27.9493 35.8989 27.9493 35.6472C27.9493 35.1492 27.7339 34.7171 27.3876 34.3692C27.0642 34.044 26.6316 33.8644 26.175 33.8644C25.9245 33.8644 25.6807 33.9184 25.4582 34.0211L16.3646 24.8858C16.0067 24.5262 15.8113 24.053 15.8113 23.5476C15.8113 23.0415 16.0059 22.5694 16.3619 22.2118L19.5015 19.2694L19.5079 19.2631C19.8635 18.9089 20.3322 18.7148 20.8344 18.7148C21.3388 18.7148 21.8101 18.911 22.1665 19.269L31.2596 28.4047C31.1573 28.6283 31.1036 28.8732 31.1036 29.1249C31.1036 29.6226 31.319 30.0545 31.665 30.4022M28.6633 37.2418L30.3697 35.5276C30.3942 35.503 30.4162 35.4856 30.4188 35.4835C30.4255 35.4782 30.4311 35.4739 30.4336 35.4721C30.4389 35.4681 30.4431 35.465 30.4446 35.464L30.4519 35.4588L30.457 35.4553L30.4835 35.4374C30.4999 35.4262 30.5232 35.4104 30.5509 35.3913C30.6067 35.3529 30.679 35.3024 30.7488 35.2517C30.8585 35.1718 30.9678 35.0902 31.0501 35.0281C31.0911 34.9971 31.1252 34.9712 31.1488 34.9531L31.1553 34.9482L34.4652 31.625L33.5951 30.7506C33.3726 30.8534 33.1288 30.9073 32.8783 30.9073C32.4215 30.9073 31.9886 30.7276 31.665 30.4022" fill="#326DE6"/>
<path fill-rule="evenodd" clip-rule="evenodd" d="M47.6748 46.2536L45.9369 46.376L33.7925 34.4573L31.5776 36.9619L43.2572 48.6911L43.3099 50.8715L48.1018 53.5427L50.3289 51.0581L47.6748 46.2536Z" fill="white"/>
<path fill-rule="evenodd" clip-rule="evenodd" d="M48.2253 54.2877L51.0466 51.1402L48.007 45.6379L46.1587 45.768L33.762 33.6016L30.769 36.986L42.6744 48.9419L42.7296 51.2241L48.2253 54.2877ZM43.8894 50.519L43.8392 48.4404L32.3853 36.9379L33.8222 35.3131L45.7142 46.9841L47.3418 46.8695L49.6104 50.9761L47.9774 52.7979L43.8894 50.519Z" fill="#326DE6"/>
<path d="M26.0303 30.9831C25.7982 31.2163 25.4222 31.2163 25.1901 30.9831L18.117 23.8776C17.8848 23.6448 17.8848 23.2663 18.117 23.0335C18.233 22.9169 18.3852 22.8588 18.5373 22.8588C18.6894 22.8588 18.8415 22.9169 18.9576 23.0335L26.0303 30.139C26.2625 30.3722 26.2625 30.7503 26.0303 30.9831Z" fill="#326DE6"/>
<path d="M27.3557 28.8076L20.2825 21.7022C20.0504 21.4694 20.0504 21.0909 20.2825 20.8581C20.3986 20.7415 20.5507 20.6834 20.7028 20.6834C20.8549 20.6834 21.0071 20.7415 21.1231 20.8581L28.1959 27.9635C28.428 28.1963 28.428 28.5748 28.1959 28.8076C27.9637 29.0408 27.5878 29.0408 27.3557 28.8076Z" fill="#326DE6"/>
<path fill-rule="evenodd" clip-rule="evenodd" d="M50.91 34.4388C49.4826 35.8726 47.9396 34.0119 47.9396 34.0119L46.3163 32.3896C46.5551 31.6665 46.6377 31.1031 46.5931 30.6657C46.5599 30.3403 46.454 30.0987 46.2889 29.9316C46.0599 29.6997 45.7399 29.6115 45.4366 29.5789C45.1837 29.5518 44.9352 29.5667 44.7295 29.5996C44.6836 29.607 44.532 29.5267 44.5186 29.5476L44.1299 30.1536L43.6146 29.6518C41.7629 27.8485 40.8822 26.9067 40.8822 26.9067C40.5386 26.5246 39.9835 25.7928 40.1041 24.9667C40.1701 24.5147 40.0423 22.3014 38.6138 20.9484C37.8119 20.1889 36.5893 19.7317 34.7775 19.97C33.1178 20.0071 32.8757 19.2683 32.848 19.1551L32.1124 17.9031C32.0555 17.82 31.9131 17.5775 31.9133 17.2285C31.9135 17.0394 31.9546 16.8146 32.0924 16.5694C32.2443 16.2993 32.532 15.9776 33.1075 15.6668C40.9009 11.2849 46.6536 17.7093 47.0212 18.1338C47.2411 18.3547 49.7574 20.8829 51.041 22.1818C51.1131 22.2548 51.1891 22.3318 51.2682 22.4121C51.2439 22.5101 51.2211 22.6116 51.1998 22.7164C51.0102 23.6494 51.0264 24.3896 51.4396 24.804C51.8398 25.2054 52.5534 25.2295 53.4954 25.0253C53.6026 25.002 53.706 24.9773 53.8052 24.951C53.8796 25.0275 53.9563 25.1055 54.0355 25.1851C54.2635 25.4141 54.4797 25.6224 54.6798 25.8152C55.5956 26.6977 56.1497 27.3345 56.226 28.0101C56.294 28.6117 56.0468 29.3 55.095 30.2561C54.0279 31.3281 53.1493 32.2037 52.3986 32.9517C51.8398 33.5087 51.3519 33.9948 50.91 34.4388Z" fill="white"/>
<path fill-rule="evenodd" clip-rule="evenodd" d="M42.6076 15.6368C40.2866 14.5875 37.1 14.0992 33.3948 16.1825L33.3905 16.1849L33.3861 16.1873C32.8914 16.4544 32.693 16.7029 32.6046 16.8601C32.5213 17.0082 32.5017 17.1313 32.5016 17.229C32.5015 17.4157 32.5788 17.5415 32.5968 17.5678L32.6085 17.5848L33.3986 18.9296L33.417 19.0047C33.4246 19.0213 33.4555 19.0757 33.542 19.1376C33.6781 19.235 34.0093 19.3915 34.7341 19.3798C36.6704 19.1327 38.0694 19.6207 39.0174 20.5185C39.8396 21.2972 40.2699 22.304 40.4886 23.1463C40.704 23.9759 40.7339 24.7253 40.6862 25.0524C40.6489 25.3078 40.7124 25.5726 40.845 25.8384C40.9768 26.1025 41.1604 26.3341 41.3148 26.5062L41.3201 26.5119L41.3501 26.5436C41.377 26.5721 41.4178 26.6151 41.4728 26.6725C41.5827 26.7873 41.749 26.9597 41.9732 27.1885C42.4216 27.6461 43.1015 28.3291 44.0241 29.2276C44.1227 29.0739 44.2621 29.0066 44.3529 28.9791C44.4392 28.953 44.5119 28.9524 44.5486 28.9536C44.6219 28.9559 44.6807 28.9713 44.7011 28.9767C44.725 28.983 44.7492 28.9908 44.7692 28.9976C44.9887 28.9715 45.2398 28.9635 45.499 28.9914C45.8533 29.0294 46.3364 29.1407 46.7065 29.5154C46.9896 29.8021 47.1352 30.1829 47.1783 30.6055C47.2259 31.0722 47.1565 31.6095 46.9832 32.2224L48.374 33.6124L48.3903 33.632L48.3907 33.6325L48.391 33.6329L48.3913 33.6333L48.3986 33.6417C48.4064 33.6506 48.4195 33.6652 48.4374 33.6843C48.4733 33.7228 48.528 33.7785 48.5981 33.8424C48.7411 33.9726 48.935 34.1242 49.1545 34.2354C49.3746 34.347 49.5922 34.404 49.7977 34.3879C49.9901 34.3727 50.2264 34.2898 50.494 34.0209C50.9363 33.5766 51.4244 33.0903 51.9821 32.5345L51.9843 32.5322C52.735 31.7842 53.6128 30.9094 54.6791 29.8383C55.5754 28.9378 55.6801 28.4186 55.6415 28.0768C55.6195 27.882 55.525 27.6521 55.296 27.3434C55.0648 27.0317 54.7281 26.6807 54.2725 26.2417L54.2679 26.2372C54.0695 26.0461 53.8506 25.8352 53.6195 25.603C53.1212 25.711 52.6421 25.7685 52.2126 25.7305C51.7782 25.6919 51.3517 25.551 51.0239 25.2222C50.6884 24.8857 50.5475 24.4474 50.5078 24.0082C50.4683 23.5728 50.5233 23.0905 50.6234 22.5982C49.3408 21.3002 46.8253 18.7728 46.6052 18.5516L46.5908 18.5371L46.5774 18.5217C46.4179 18.3376 44.9541 16.6977 42.6076 15.6368ZM47.5085 34.4146L45.6434 32.5507L45.758 32.2036C45.9838 31.5194 46.0406 31.0465 46.0078 30.726C45.9846 30.4977 45.9183 30.3955 45.8713 30.3478C45.7834 30.2589 45.6264 30.1937 45.3741 30.1666C45.1813 30.1459 44.9857 30.1571 44.8221 30.1832C44.8179 30.1839 44.8137 30.1846 44.8095 30.1851L44.2356 31.0797L43.2051 30.0762C42.276 29.1713 41.5896 28.4818 41.1348 28.0176C40.9073 27.7856 40.7378 27.6098 40.6247 27.4917C40.5682 27.4326 40.5257 27.388 40.4973 27.3578L40.465 27.3236L40.4566 27.3147L40.4537 27.3117C40.4537 27.3116 40.4534 27.3113 40.8822 26.9067L40.4534 27.3113L40.4495 27.3071L40.4457 27.3029C40.2572 27.0933 39.9936 26.7696 39.7932 26.3681C39.5925 25.9659 39.4388 25.4518 39.5221 24.881C39.5403 24.7562 39.5393 24.1729 39.3502 23.4446C39.1644 22.729 38.8166 21.9527 38.2103 21.3785C37.5596 20.7622 36.5241 20.3363 34.8538 20.556L34.8223 20.5601L34.7906 20.5608C33.8767 20.5813 33.2643 20.39 32.8595 20.1003C32.5205 19.8578 32.3712 19.578 32.3071 19.3971L31.6148 18.2188C31.5143 18.0669 31.3247 17.7172 31.3251 17.2281C31.3253 16.9475 31.3878 16.6211 31.5801 16.2789C31.7951 15.8966 32.1709 15.5025 32.8244 15.1487C36.9109 12.8529 40.4958 13.3859 43.0905 14.559C45.6098 15.6981 47.1935 17.4354 47.4511 17.7299C47.746 18.0262 50.1969 20.4888 51.4585 21.7655C51.5307 21.8387 51.6069 21.9158 51.6863 21.9964L51.9192 22.2328L51.839 22.5553C51.8169 22.6442 51.796 22.7373 51.7762 22.8347C51.6866 23.2753 51.6549 23.6296 51.6795 23.9012C51.7037 24.1689 51.7775 24.3079 51.8552 24.3858C51.9276 24.4584 52.0581 24.5303 52.316 24.5531C52.5788 24.5764 52.9276 24.5439 53.3712 24.4477C53.4707 24.4261 53.5653 24.4034 53.6551 24.3796L53.9864 24.2918L54.226 24.538C54.2991 24.6131 54.3741 24.6896 54.4514 24.7672C54.6739 24.9907 54.8854 25.1945 55.0854 25.3873L55.087 25.3888C55.5472 25.8323 55.9455 26.2409 56.2394 26.6372C56.5355 27.0364 56.7562 27.4627 56.8105 27.9434C56.9079 28.8049 56.5181 29.6623 55.511 30.674C54.4429 31.7469 53.5636 32.6232 52.8129 33.3713L52.8118 33.3724C52.2532 33.9291 51.7666 34.414 51.3259 34.8567C50.8799 35.3048 50.388 35.5269 49.8896 35.5662C49.4044 35.6043 48.9687 35.4651 48.6245 35.2906C48.2799 35.116 47.9988 34.8919 47.8079 34.718C47.7111 34.6299 47.634 34.5515 47.58 34.4937C47.553 34.4648 47.5315 34.4408 47.516 34.4232C47.5133 34.4201 47.5108 34.4173 47.5085 34.4146Z" fill="#326DE6"/>
<path fill-rule="evenodd" clip-rule="evenodd" d="M42.7856 31.5071C42.7856 31.5071 26.9233 48.948 23.9371 52.2976C22.9767 53.2637 21.9509 53.667 20.988 53.7031C19.8582 53.7455 18.8011 53.2779 18.0372 52.5106C17.272 51.7419 16.805 50.6761 16.8447 49.5392C16.8787 48.5682 17.2787 47.5354 18.2147 46.5951C22.3461 42.445 38.8323 27.5299 38.8323 27.5299C38.8323 27.5299 38.9786 27.3975 39.2474 27.1547L43.1649 31.0901C42.9194 31.3599 42.7856 31.5071 42.7856 31.5071Z" fill="white"/>
<path fill-rule="evenodd" clip-rule="evenodd" d="M39.2688 26.3406L43.9785 31.0717L43.22 31.9056L42.7856 31.5071C43.2199 31.9057 43.2201 31.9054 43.22 31.9056L43.2192 31.9065L42.5325 32.6616C42.093 33.145 41.4617 33.8393 40.6949 34.683C39.1612 36.3704 37.0851 38.6551 34.9158 41.0445C30.5759 45.8246 25.8662 51.0196 24.3753 52.6918L24.3647 52.7038L24.3534 52.7152C23.2962 53.7785 22.1326 54.2515 21.0099 54.2936C19.7024 54.3427 18.4903 53.8015 17.6212 52.9284C16.7507 52.054 16.2109 50.833 16.2568 49.5185C16.2963 48.3894 16.7636 47.2171 17.7988 46.1773C19.8763 44.0902 25.0427 39.3131 29.6765 35.0695C31.9962 32.945 34.1866 30.9504 35.7972 29.4869C36.6024 28.7552 37.2627 28.1562 37.7218 27.7401C37.9513 27.5321 38.1305 27.3698 38.2523 27.2594L38.4384 27.0909C38.4386 27.0908 38.4386 27.0907 38.8323 27.5299L38.4384 27.0909L39.2688 26.3406ZM42.354 31.1113L39.2239 27.9669C39.2259 27.9691 39.2258 27.9691 39.2258 27.9692L39.04 28.1373C38.9184 28.2475 38.7393 28.4097 38.51 28.6176C38.0513 29.0334 37.3913 29.6321 36.5864 30.3634C34.9767 31.8263 32.7874 33.8198 30.4691 35.9429C25.8269 40.1943 20.6845 44.9499 18.6307 47.013C17.7938 47.8537 17.4611 48.7469 17.4327 49.5599C17.3991 50.5192 17.7932 51.4298 18.4532 52.0927C19.1118 52.7544 20.0141 53.1483 20.966 53.1126C21.7658 53.0825 22.6496 52.7516 23.5098 51.8911C25.0172 50.2008 29.7193 45.0142 34.0465 40.248C36.216 37.8584 38.2922 35.5736 39.826 33.8861C40.5929 33.0424 41.2242 32.348 41.6638 31.8645L42.3511 31.1087C42.3511 31.1087 42.3511 31.1086 42.354 31.1113Z" fill="#326DE6"/>
</svg>
