<svg width="40" height="38" viewBox="0 0 40 38" fill="none" xmlns="http://www.w3.org/2000/svg">
<path d="M35.6129 8.45141C35.3898 7.73214 34.8542 7.14773 34.1848 6.7881L20.5729 0.224771C20.2159 0.0449543 19.8142 0 19.4572 0C19.1001 0 18.6985 0 18.3414 0.0899086L4.72954 6.69819C4.06011 7.01287 3.56919 7.59728 3.39067 8.3615L0.0434848 23.1515C-0.0904026 23.9157 0.0881139 24.6799 0.534405 25.3093L9.95115 37.0423C10.4867 37.5818 11.2454 37.9414 12.0041 37.9864H26.9995C27.8028 38.0763 28.5615 37.7166 29.0524 37.0423L38.4692 25.3093C38.9155 24.6799 39.094 23.9157 39.0047 23.1515L35.6129 8.45141Z" fill="#326DE6"/>
<path fill-rule="evenodd" clip-rule="evenodd" d="M19.0478 16.759C18.9279 16.877 18.7689 16.9414 18.5999 16.9414C18.4296 16.9414 18.2695 16.8758 18.149 16.756C18.0032 16.6113 17.9287 16.4502 17.9287 16.2756C17.9287 16.1079 17.9936 15.9502 18.1125 15.8312L12.7753 10.5344C12.5112 10.2724 12.16 10.128 11.7863 10.128C11.4145 10.128 11.0651 10.2708 10.8015 10.5301L9.0251 12.1746C8.7585 12.4369 8.61182 12.7865 8.61182 13.1589C8.61182 13.5293 8.7577 13.8776 9.02231 14.1402L14.3598 19.4368C14.4797 19.3188 14.6387 19.2544 14.8077 19.2544C14.9778 19.2544 15.1379 19.3201 15.2583 19.4398C15.4042 19.5845 15.4786 19.7456 15.4786 19.9204C15.4786 20.0881 15.4137 20.2459 15.2949 20.3648L16.2153 21.2786L17.4161 20.0871C17.4165 20.0867 17.5049 20.0283 17.5903 19.9669C17.7188 19.8746 17.8443 19.7794 17.8448 19.7788L18.7562 18.8756L19.9683 17.6728L19.0478 16.759Z" fill="white"/>
<path fill-rule="evenodd" clip-rule="evenodd" d="M16.2155 21.7458L17.6292 20.343C17.6378 20.3372 17.6481 20.3302 17.6597 20.3223C17.6938 20.2992 17.7398 20.2674 17.7858 20.2345C17.8521 20.1868 17.9173 20.1386 17.9657 20.1025C17.99 20.0844 18.0103 20.0692 18.0246 20.0584L18.0415 20.0456L18.0467 20.0417L18.0491 20.0398L18.0516 20.0379L18.0552 20.035C18.056 20.0344 18.0578 20.0329 18.0602 20.0309L18.0659 20.026C18.0685 20.0237 18.0757 20.017 18.0803 20.0126L20.4391 17.6729L19.0492 16.293L18.8138 16.5246C18.7567 16.5807 18.6821 16.6112 18.6002 16.6112C18.518 16.6112 18.4427 16.5803 18.3848 16.5227C18.2889 16.4277 18.2618 16.3467 18.2618 16.2757C18.2618 16.1943 18.2926 16.1203 18.3491 16.0637L18.5823 15.8302L13.0109 10.301C12.6845 9.97706 12.2485 9.79778 11.7866 9.79778C11.3288 9.79778 10.8967 9.97371 10.5713 10.292L8.79466 11.9366L8.79106 11.9402C8.46139 12.2645 8.2793 12.6986 8.2793 13.159C8.2793 13.6174 8.46053 14.0496 8.78726 14.3738L14.359 19.9028L14.5943 19.6714C14.6514 19.6153 14.726 19.5847 14.8079 19.5847C14.8899 19.5847 14.9652 19.6156 15.0231 19.6732C15.1189 19.7682 15.1461 19.8492 15.1461 19.9205C15.1461 20.0019 15.1153 20.0759 15.0588 20.1325L14.8257 20.3659L16.2155 21.7458ZM16.2157 20.8116L15.7234 20.3229C15.7813 20.198 15.8117 20.0612 15.8117 19.9205C15.8117 19.6422 15.6899 19.4008 15.4939 19.2063C15.311 19.0246 15.0663 18.9242 14.8079 18.9242C14.6662 18.9242 14.5283 18.9544 14.4024 19.0118L9.25793 13.9068C9.05544 13.7058 8.94491 13.4414 8.94491 13.159C8.94491 12.8761 9.05496 12.6123 9.25636 12.4125L11.0326 10.7682L11.0361 10.7647C11.2373 10.5668 11.5025 10.4583 11.7866 10.4583C12.072 10.4583 12.3386 10.5679 12.5402 10.768L17.6844 15.8732C17.6266 15.9982 17.5962 16.135 17.5962 16.2757C17.5962 16.5538 17.718 16.7952 17.9138 16.9895M16.2157 20.8116L17.181 19.8537C17.1948 19.8399 17.2073 19.8302 17.2088 19.829C17.2125 19.826 17.2157 19.8237 17.2171 19.8226C17.2201 19.8204 17.2225 19.8187 17.2234 19.8181L17.2275 19.8152L17.2304 19.8133L17.2454 19.8032C17.2547 19.797 17.2678 19.7881 17.2835 19.7775C17.3151 19.756 17.3559 19.7278 17.3954 19.6995C17.4575 19.6549 17.5193 19.6092 17.5659 19.5745C17.5891 19.5572 17.6084 19.5427 17.6218 19.5326L17.6254 19.5299L19.4979 17.6728L19.0057 17.1842C18.8798 17.2416 18.7419 17.2717 18.6002 17.2717C18.3418 17.2717 18.0969 17.1713 17.9138 16.9895" fill="#326DE6"/>
<path fill-rule="evenodd" clip-rule="evenodd" d="M26.9709 25.8476L25.9877 25.916L19.1173 19.2556L17.8643 20.6552L24.4717 27.2098L24.5015 28.4282L27.2124 29.921L28.4724 28.5325L26.9709 25.8476Z" fill="white"/>
<path fill-rule="evenodd" clip-rule="evenodd" d="M27.2827 30.3372L28.8788 28.5783L27.1592 25.5035L26.1136 25.5762L19.1004 18.7774L17.4072 20.6686L24.1424 27.3499L24.1736 28.6252L27.2827 30.3372ZM24.8298 28.2312L24.8014 27.0696L18.3216 20.6418L19.1345 19.7338L25.8621 26.2558L26.7829 26.1918L28.0663 28.4866L27.1425 29.5047L24.8298 28.2312Z" fill="#326DE6"/>
<path d="M14.7262 17.3141C14.5948 17.4444 14.3822 17.4444 14.2508 17.3141L10.2494 13.3434C10.118 13.2133 10.118 13.0018 10.2494 12.8717C10.315 12.8065 10.4011 12.774 10.4872 12.774C10.5732 12.774 10.6593 12.8065 10.7249 12.8717L14.7262 16.8424C14.8575 16.9727 14.8575 17.184 14.7262 17.3141Z" fill="#326DE6"/>
<path d="M15.476 16.0984L11.4745 12.1277C11.3431 11.9976 11.3431 11.7861 11.4745 11.656C11.5401 11.5908 11.6262 11.5583 11.7123 11.5583C11.7983 11.5583 11.8844 11.5908 11.95 11.656L15.9513 15.6267C16.0826 15.7568 16.0826 15.9683 15.9513 16.0984C15.82 16.2287 15.6073 16.2287 15.476 16.0984Z" fill="#326DE6"/>
<path fill-rule="evenodd" clip-rule="evenodd" d="M28.8012 19.2452C27.9937 20.0465 27.1208 19.0066 27.1208 19.0066L26.2024 18.1001C26.3375 17.696 26.3842 17.3812 26.359 17.1367C26.3402 16.9549 26.2803 16.8199 26.1869 16.7265C26.0573 16.5969 25.8763 16.5476 25.7047 16.5294C25.5616 16.5143 25.4211 16.5226 25.3047 16.541C25.2787 16.5451 25.193 16.5003 25.1854 16.5119L24.9655 16.8506L24.674 16.5702C23.6264 15.5624 23.1282 15.0361 23.1282 15.0361C22.9338 14.8226 22.6198 14.4137 22.688 13.952C22.7253 13.6994 22.653 12.4626 21.8449 11.7065C21.3912 11.2821 20.6996 11.0266 19.6746 11.1597C18.7356 11.1805 18.5987 10.7676 18.583 10.7043L18.1669 10.0047C18.1346 9.95827 18.0541 9.82277 18.0542 9.62773C18.0543 9.52204 18.0775 9.39641 18.1555 9.25941C18.2414 9.10843 18.4042 8.92866 18.7298 8.75499C23.1387 6.30628 26.3932 9.8964 26.6012 10.1336C26.7256 10.257 28.1491 11.6699 28.8753 12.3958C28.9161 12.4366 28.9591 12.4796 29.0038 12.5244C28.9901 12.5792 28.9772 12.6359 28.9651 12.6945C28.8578 13.2158 28.867 13.6295 29.1008 13.8611C29.3272 14.0854 29.7309 14.0989 30.2638 13.9847C30.3245 13.9717 30.3829 13.9579 30.4391 13.9432C30.4812 13.986 30.5245 14.0296 30.5693 14.074C30.6983 14.202 30.8206 14.3184 30.9338 14.4262C31.4519 14.9193 31.7654 15.2752 31.8086 15.6527C31.8471 15.9889 31.7072 16.3736 31.1688 16.9078C30.565 17.5069 30.068 17.9962 29.6433 18.4142C29.3272 18.7255 29.0512 18.9971 28.8012 19.2452Z" fill="white"/>
<path fill-rule="evenodd" clip-rule="evenodd" d="M24.1043 8.73823C22.7912 8.15182 20.9885 7.87899 18.8923 9.04316L18.8899 9.04453L18.8874 9.04586C18.6076 9.19514 18.4953 9.33398 18.4453 9.4218C18.3982 9.50458 18.3871 9.57338 18.387 9.62797C18.387 9.73229 18.4307 9.80263 18.4409 9.81728L18.4475 9.82683L18.8945 10.5783L18.9049 10.6203C18.9092 10.6295 18.9266 10.6599 18.9756 10.6946C19.0526 10.749 19.24 10.8365 19.65 10.8299C20.7454 10.6918 21.5369 10.9645 22.0732 11.4662C22.5383 11.9014 22.7818 12.464 22.9055 12.9347C23.0274 13.3983 23.0443 13.8171 23.0173 13.9999C22.9962 14.1426 23.0321 14.2906 23.1071 14.4391C23.1817 14.5867 23.2856 14.7161 23.3729 14.8123L23.3759 14.8155L23.3929 14.8332C23.4081 14.8491 23.4312 14.8731 23.4623 14.9052C23.5244 14.9694 23.6186 15.0657 23.7454 15.1936C23.9991 15.4493 24.3837 15.831 24.9056 16.3331C24.9614 16.2472 25.0403 16.2096 25.0916 16.1942C25.1404 16.1796 25.1816 16.1793 25.2023 16.1799C25.2438 16.1813 25.2771 16.1898 25.2887 16.1929C25.3022 16.1964 25.3158 16.2007 25.3272 16.2046C25.4513 16.19 25.5934 16.1855 25.74 16.2011C25.9405 16.2223 26.2138 16.2845 26.4232 16.4939C26.5833 16.6541 26.6656 16.8669 26.69 17.1031C26.717 17.3639 26.6777 17.6641 26.5797 18.0067L27.3665 18.7834L27.3757 18.7944L27.3759 18.7946L27.3761 18.7948L27.3763 18.7951L27.3804 18.7998C27.3848 18.8048 27.3922 18.8129 27.4024 18.8236C27.4227 18.8451 27.4536 18.8762 27.4933 18.9119C27.5742 18.9847 27.6839 19.0694 27.8081 19.1316C27.9325 19.1939 28.0557 19.2258 28.1719 19.2168C28.2808 19.2083 28.4144 19.1619 28.5658 19.0117C28.8161 18.7634 29.0922 18.4916 29.4077 18.181L29.4089 18.1798C29.8336 17.7618 30.3302 17.2729 30.9334 16.6743C31.4405 16.1711 31.4998 15.881 31.4779 15.69C31.4655 15.5811 31.412 15.4527 31.2824 15.2801C31.1517 15.106 30.9612 14.9098 30.7034 14.6645L30.7008 14.662C30.5886 14.5552 30.4648 14.4373 30.334 14.3075C30.0521 14.3679 29.7811 14.4001 29.5381 14.3788C29.2924 14.3573 29.0511 14.2785 28.8656 14.0948C28.6758 13.9067 28.5961 13.6618 28.5736 13.4163C28.5513 13.1731 28.5824 12.9035 28.6391 12.6284C27.9135 11.903 26.4904 10.4907 26.3658 10.3671L26.3577 10.359L26.3501 10.3503C26.2599 10.2475 25.4318 9.33108 24.1043 8.73823ZM26.8769 19.2317L25.8217 18.1901L25.8865 17.9961C26.0143 17.6138 26.0464 17.3495 26.0279 17.1704C26.0147 17.0428 25.9772 16.9857 25.9506 16.9591C25.9009 16.9094 25.8121 16.8729 25.6693 16.8578C25.5603 16.8462 25.4496 16.8525 25.3571 16.8671C25.3547 16.8675 25.3523 16.8678 25.3499 16.8682L25.0253 17.3681L24.4423 16.8073C23.9167 16.3016 23.5284 15.9163 23.2711 15.6569C23.1424 15.5272 23.0465 15.429 22.9825 15.363C22.9505 15.33 22.9265 15.305 22.9104 15.2882L22.8921 15.2691L22.8874 15.2641L22.8858 15.2624C22.8858 15.2624 22.8856 15.2622 23.1282 15.0361L22.8856 15.2622L22.8834 15.2599L22.8812 15.2575C22.7746 15.1404 22.6254 14.9595 22.5121 14.7351C22.3986 14.5104 22.3116 14.2231 22.3587 13.9041C22.369 13.8343 22.3684 13.5084 22.2615 13.1014C22.1563 12.7015 21.9596 12.2677 21.6166 11.9468C21.2485 11.6024 20.6627 11.3644 19.7178 11.4872L19.6999 11.4895L19.682 11.4899C19.165 11.5013 18.8185 11.3944 18.5895 11.2325C18.3977 11.097 18.3132 10.9407 18.277 10.8396L17.8853 10.1811C17.8285 10.0962 17.7212 9.90077 17.7214 9.62749C17.7215 9.47069 17.7569 9.28825 17.8657 9.09701C17.9873 8.88338 18.2 8.66319 18.5697 8.46548C20.8815 7.18249 22.9095 7.48038 24.3774 8.13594C25.8027 8.77245 26.6986 9.7433 26.8444 9.90789C27.0112 10.0735 28.3977 11.4496 29.1115 12.1631C29.1523 12.204 29.1954 12.2471 29.2404 12.2921L29.3721 12.4242L29.3267 12.6045C29.3142 12.6541 29.3024 12.7062 29.2912 12.7606C29.2405 13.0068 29.2226 13.2048 29.2365 13.3565C29.2502 13.5061 29.2919 13.5838 29.3359 13.6274C29.3769 13.6679 29.4507 13.7081 29.5966 13.7209C29.7453 13.7339 29.9426 13.7157 30.1936 13.6619C30.2498 13.6499 30.3034 13.6372 30.3541 13.6239L30.5416 13.5748L30.6771 13.7124C30.7185 13.7544 30.7609 13.7971 30.8047 13.8405C30.9305 13.9654 31.0501 14.0793 31.1633 14.187L31.1642 14.1879C31.4246 14.4357 31.6499 14.664 31.8162 14.8855C31.9837 15.1086 32.1085 15.3468 32.1393 15.6155C32.1944 16.0969 31.9738 16.576 31.4041 17.1414C30.7999 17.7409 30.3024 18.2306 29.8777 18.6487L29.8771 18.6493C29.561 18.9604 29.2858 19.2314 29.0365 19.4787C28.7841 19.7291 28.5059 19.8533 28.2239 19.8752C27.9494 19.8966 27.7029 19.8187 27.5082 19.7212C27.3133 19.6236 27.1543 19.4984 27.0462 19.4013C26.9915 19.352 26.9479 19.3082 26.9173 19.2759C26.902 19.2597 26.8898 19.2463 26.8811 19.2365C26.8796 19.2348 26.8782 19.2332 26.8769 19.2317Z" fill="#326DE6"/>
<path fill-rule="evenodd" clip-rule="evenodd" d="M24.205 17.6069C24.205 17.6069 15.2313 27.3533 13.5419 29.2251C12.9985 29.765 12.4182 29.9904 11.8735 30.0106C11.2344 30.0342 10.6363 29.773 10.2041 29.3441C9.77123 28.9146 9.50705 28.319 9.52953 27.6837C9.54873 27.141 9.77503 26.5639 10.3046 26.0385C12.6418 23.7192 21.9685 15.3843 21.9685 15.3843C21.9685 15.3843 22.0513 15.3104 22.2033 15.1747L24.4196 17.3738C24.2807 17.5246 24.205 17.6069 24.205 17.6069Z" fill="white"/>
<path fill-rule="evenodd" clip-rule="evenodd" d="M22.2155 14.7198L24.8799 17.3636L24.4507 17.8296L24.205 17.6069C24.4507 17.8297 24.4508 17.8295 24.4507 17.8296L24.4503 17.8301L24.0618 18.2521C23.8132 18.5222 23.456 18.9103 23.0222 19.3817C22.1546 20.3247 20.9801 21.6014 19.7528 22.9366C17.2976 25.6079 14.6332 28.511 13.7898 29.4455L13.7838 29.4522L13.7774 29.4585C13.1793 30.0527 12.521 30.317 11.8859 30.3406C11.1462 30.368 10.4605 30.0656 9.9688 29.5777C9.47635 29.089 9.17094 28.4067 9.19693 27.6721C9.21926 27.0412 9.48362 26.3861 10.0692 25.805C11.2446 24.6387 14.1674 21.9691 16.7888 19.5977C18.1011 18.4105 19.3403 17.2959 20.2514 16.478C20.707 16.0691 21.0806 15.7344 21.3402 15.5019C21.4701 15.3856 21.5714 15.2949 21.6404 15.2333L21.7457 15.1391C21.7458 15.139 21.7458 15.139 21.9685 15.3844L21.7457 15.1391L22.2155 14.7198ZM23.9608 17.3857L22.19 15.6286C22.1911 15.6298 22.1911 15.6298 22.1911 15.6299L22.086 15.7238C22.0172 15.7854 21.9159 15.876 21.7861 15.9922C21.5266 16.2246 21.1533 16.5591 20.698 16.9678C19.7873 17.7853 18.5487 18.8993 17.2372 20.0858C14.611 22.4616 11.7018 25.1191 10.5399 26.272C10.0664 26.7418 9.87821 27.2409 9.86213 27.6953C9.84316 28.2313 10.0661 28.7402 10.4395 29.1107C10.8121 29.4804 11.3225 29.7005 11.861 29.6806C12.3135 29.6638 12.8135 29.4789 13.3002 28.998C14.1529 28.0534 16.813 25.155 19.2611 22.4916C20.4884 21.1562 21.663 19.8794 22.5307 18.9364C22.9645 18.4649 23.3217 18.0768 23.5704 17.8067L23.9592 17.3843C23.9592 17.3843 23.9592 17.3843 23.9608 17.3857Z" fill="#326DE6"/>
</svg>
