<svg width="250" height="24" viewBox="0 0 250 24" fill="none" xmlns="http://www.w3.org/2000/svg">
<path d="M10.6608 23.6883V4.39481H16.6459V0.311688H0V4.39481H6.01621V23.6883H10.6608ZM23.9401 23.6883V13.7766H26.2469L31.3591 23.6883H36.6272L30.9539 13.4649C32.3878 13.0909 33.5567 12.3481 34.4607 11.2364C35.3647 10.1247 35.8167 8.81039 35.8167 7.29351C35.8167 5.34026 35.1465 3.68831 33.8061 2.33766C32.4657 0.987013 30.8292 0.311688 28.8965 0.311688H19.2332V23.6883H23.9401ZM28.7095 10.1299H23.9401V4.39481H28.7095C29.4992 4.39481 30.1694 4.67013 30.7201 5.22078C31.2708 5.77143 31.5461 6.45195 31.5461 7.26234C31.5461 8.07273 31.276 8.75325 30.7357 9.3039C30.1953 9.85455 29.5199 10.1299 28.7095 10.1299ZM74.5888 24C77.2696 24 79.5348 23.2416 81.3843 21.7247C83.2339 20.2078 84.1586 18.3481 84.1586 16.1455V0.311688H79.4517V15.3039C79.4517 16.5714 78.9789 17.6519 78.0333 18.5455C77.0878 19.439 75.9396 19.8857 74.5888 19.8857C73.238 19.8857 72.0899 19.439 71.1443 18.5455C70.1988 17.6519 69.726 16.5714 69.726 15.3039V0.311688H65.019V16.1455C65.019 18.3481 65.9438 20.2078 67.7933 21.7247C69.6429 23.2416 71.908 24 74.5888 24ZM98.4978 23.6883C100.472 23.6883 102.109 23.1169 103.407 21.974C104.706 20.8312 105.356 19.2831 105.356 17.3299C105.356 15.8545 104.966 14.639 104.187 13.6831C103.407 12.7273 102.342 12.0416 100.992 11.626C102.737 10.6286 103.61 9.00779 103.61 6.76364C103.61 4.78961 102.955 3.22078 101.646 2.05714C100.337 0.893507 98.6848 0.311688 96.6898 0.311688H87.9616V23.6883H98.4978ZM96.1287 10.0987H92.6374V4.39481H96.1287C96.8976 4.39481 97.5574 4.67532 98.1081 5.23636C98.6589 5.7974 98.9342 6.46234 98.9342 7.23117C98.9342 8 98.6589 8.67013 98.1081 9.24156C97.5574 9.81299 96.8976 10.0987 96.1287 10.0987ZM97.812 19.574H92.6374V13.9013H97.812C98.6017 13.9013 99.2719 14.1818 99.8226 14.7429C100.373 15.3039 100.649 15.9688 100.649 16.7377C100.649 17.5065 100.373 18.1714 99.8226 18.7325C99.2719 19.2935 98.6017 19.574 97.812 19.574ZM120.942 23.6883V19.574H113.055V0.311688H108.348V23.6883H120.942ZM137.681 23.6883V19.574H128.516V14.0571H136.372V9.94286H128.516V4.39481H137.681V0.311688H123.81V23.6883H137.681ZM149.121 24C151.657 24 153.735 23.4078 155.356 22.2234C156.977 21.039 157.787 19.3143 157.787 17.0494C157.787 16.3221 157.694 15.6519 157.507 15.039C157.319 14.426 157.013 13.8753 156.587 13.387C156.161 12.8987 155.756 12.4831 155.371 12.1403C154.987 11.7974 154.446 11.4494 153.75 11.0961C153.054 10.7429 152.509 10.4831 152.114 10.3169C151.719 10.1507 151.137 9.91169 150.368 9.6C149.599 9.28831 149.023 9.04935 148.638 8.88312C148.254 8.71688 147.817 8.48831 147.329 8.1974C146.84 7.90649 146.492 7.6052 146.285 7.29351C146.077 6.98182 145.973 6.63896 145.973 6.26494C145.973 5.55844 146.269 4.99221 146.861 4.56623C147.454 4.14026 148.217 3.92727 149.152 3.92727C151.314 3.92727 153.111 4.73766 154.545 6.35844L157.6 3.3974C155.48 1.13247 152.623 0 149.028 0C146.742 0 144.856 0.592208 143.37 1.77662C141.884 2.96104 141.141 4.51948 141.141 6.45195C141.141 7.17922 141.276 7.84935 141.546 8.46234C141.817 9.07533 142.133 9.58442 142.497 9.98961C142.861 10.3948 143.375 10.7948 144.04 11.1896C144.705 11.5844 145.277 11.8909 145.755 12.1091C146.233 12.3273 146.877 12.5922 147.687 12.9039C148.435 13.1948 148.981 13.4078 149.324 13.5429C149.667 13.6779 150.129 13.8961 150.711 14.1974C151.293 14.4987 151.714 14.7688 151.973 15.0078C152.233 15.2468 152.472 15.5532 152.69 15.9273C152.909 16.3013 153.018 16.6961 153.018 17.1117C152.997 17.9636 152.649 18.5974 151.973 19.013C151.298 19.4286 150.399 19.6364 149.277 19.6364C146.555 19.6364 144.508 18.5766 143.136 16.4571L139.894 19.6675C140.892 20.9766 142.217 22.026 143.869 22.8156C145.521 23.6052 147.272 24 149.121 24ZM165.518 23.6883V14.0571H175.555V23.6883H180.262V0.311688H175.555V9.91169H165.518V0.311688H160.811V23.6883H165.518ZM194.726 24C198.051 24 200.784 22.8416 202.924 20.5247C205.065 18.2078 206.135 15.3662 206.135 12C206.135 8.63377 205.065 5.79221 202.924 3.47533C200.784 1.15844 198.051 0 194.726 0C191.38 0 188.642 1.15325 186.512 3.45974C184.382 5.76623 183.317 8.61299 183.317 12C183.317 15.387 184.382 18.2338 186.512 20.5403C188.642 22.8468 191.38 24 194.726 24ZM194.726 19.4494C192.606 19.4494 190.923 18.7481 189.676 17.3455C188.429 15.9429 187.806 14.161 187.806 12C187.806 9.81818 188.424 8.02597 189.661 6.62338C190.897 5.22078 192.585 4.51948 194.726 4.51948C196.846 4.51948 198.519 5.22078 199.745 6.62338C200.971 8.02597 201.584 9.81818 201.584 12C201.584 14.161 200.971 15.9429 199.745 17.3455C198.519 18.7481 196.846 19.4494 194.726 19.4494ZM219.882 24C223.207 24 225.94 22.8416 228.08 20.5247C230.221 18.2078 231.291 15.3662 231.291 12C231.291 8.63377 230.221 5.79221 228.08 3.47533C225.94 1.15844 223.207 0 219.882 0C216.536 0 213.798 1.15325 211.668 3.45974C209.538 5.76623 208.473 8.61299 208.473 12C208.473 15.387 209.538 18.2338 211.668 20.5403C213.798 22.8468 216.536 24 219.882 24ZM219.882 19.4494C217.762 19.4494 216.079 18.7481 214.832 17.3455C213.585 15.9429 212.962 14.161 212.962 12C212.962 9.81818 213.58 8.02597 214.816 6.62338C216.053 5.22078 217.741 4.51948 219.882 4.51948C222.002 4.51948 223.674 5.22078 224.901 6.62338C226.127 8.02597 226.74 9.81818 226.74 12C226.74 14.161 226.127 15.9429 224.901 17.3455C223.674 18.7481 222.002 19.4494 219.882 19.4494ZM243.822 23.6883V4.39481H249.807V0.311688H233.161V4.39481H239.177V23.6883H243.822Z" fill="#7A9FEA"/>
<path d="M60.1088 5.30229C59.9698 4.85104 59.6364 4.48439 59.2197 4.25876L50.7456 0.141018C50.5233 0.0282037 50.2733 0 50.051 0C49.8287 0 49.5787 0 49.3564 0.0564074L40.8824 4.20235C40.4656 4.39978 40.16 4.76642 40.0488 5.24589L37.9651 14.5249C37.8817 15.0044 37.9928 15.4838 38.2707 15.8787L44.1331 23.2398C44.4665 23.5783 44.9388 23.8039 45.4111 23.8321H54.7465C55.2466 23.8885 55.7189 23.6629 56.0245 23.2398L61.8869 15.8787C62.1648 15.4838 62.2759 15.0044 62.2203 14.5249L60.1088 5.30229Z" fill="#326DE6"/>
<path fill-rule="evenodd" clip-rule="evenodd" d="M49.7977 10.5144C49.723 10.5884 49.624 10.6289 49.5188 10.6289C49.4128 10.6289 49.3132 10.5877 49.2381 10.5126C49.1474 10.4218 49.101 10.3207 49.101 10.2111C49.101 10.106 49.1414 10.007 49.2154 9.93231L45.8927 6.60921C45.7284 6.44483 45.5097 6.3542 45.2771 6.3542C45.0456 6.3542 44.828 6.44385 44.664 6.6065L43.5581 7.63823C43.3921 7.8028 43.3008 8.02213 43.3008 8.25577C43.3008 8.48816 43.3916 8.7067 43.5563 8.87144L46.8792 12.1944C46.9538 12.1204 47.0528 12.08 47.158 12.08C47.2639 12.08 47.3636 12.1212 47.4386 12.1963C47.5294 12.2871 47.5757 12.3882 47.5757 12.4979C47.5757 12.603 47.5353 12.702 47.4613 12.7767L48.0343 13.35L48.7818 12.6024C48.7821 12.6021 48.8372 12.5655 48.8903 12.527C48.9703 12.4691 49.0484 12.4094 49.0488 12.409L49.6161 11.8423L50.3707 11.0877L49.7977 10.5144Z" fill="white"/>
<path fill-rule="evenodd" clip-rule="evenodd" d="M48.034 13.643L48.914 12.7629C48.9194 12.7593 48.9258 12.7549 48.933 12.7499C48.9542 12.7354 48.9829 12.7155 49.0115 12.6948C49.0528 12.6649 49.0934 12.6347 49.1235 12.6121C49.1387 12.6007 49.1513 12.5912 49.1602 12.5844L49.1707 12.5763L49.1739 12.5739L49.1754 12.5727L49.177 12.5715L49.1792 12.5697C49.1797 12.5693 49.1809 12.5684 49.1823 12.5671L49.1859 12.564C49.1875 12.5626 49.192 12.5584 49.1948 12.5556L50.6633 11.0877L49.798 10.222L49.6515 10.3673C49.616 10.4025 49.5695 10.4217 49.5185 10.4217C49.4673 10.4217 49.4205 10.4022 49.3844 10.3661C49.3248 10.3065 49.3079 10.2557 49.3079 10.2111C49.3079 10.1601 49.327 10.1137 49.3622 10.0781L49.5074 9.93164L46.0389 6.4627C45.8357 6.25947 45.5643 6.14699 45.2767 6.14699C44.9917 6.14699 44.7227 6.25737 44.5201 6.45703L43.4141 7.48887L43.4119 7.49109C43.2066 7.69459 43.0933 7.9669 43.0933 8.25575C43.0933 8.54335 43.2061 8.81451 43.4095 9.01792L46.8782 12.4868L47.0247 12.3416C47.0602 12.3063 47.1066 12.2872 47.1577 12.2872C47.2087 12.2872 47.2555 12.3066 47.2916 12.3427C47.3512 12.4023 47.3682 12.4531 47.3682 12.4979C47.3682 12.5489 47.349 12.5953 47.3138 12.6308L47.1687 12.7773L48.034 13.643ZM48.034 13.0569L47.7276 12.7503C47.7636 12.672 47.7825 12.5861 47.7825 12.4979C47.7825 12.3233 47.7067 12.1718 47.5847 12.0498C47.4708 11.9358 47.3185 11.8728 47.1577 11.8728C47.0694 11.8728 46.9836 11.8917 46.9052 11.9277L43.7025 8.72492C43.5764 8.59885 43.5076 8.43294 43.5076 8.25575C43.5076 8.07832 43.5761 7.91281 43.7015 7.78742L44.8073 6.75583L44.8095 6.75361C44.9348 6.62944 45.0999 6.56137 45.2767 6.56137C45.4544 6.56137 45.6204 6.63016 45.7459 6.75569L48.9484 9.95865C48.9124 10.037 48.8935 10.1229 48.8935 10.2111C48.8935 10.3856 48.9693 10.5371 49.0912 10.659M48.034 13.0569L48.635 12.4559C48.6436 12.4473 48.6514 12.4412 48.6523 12.4405C48.6546 12.4386 48.6566 12.4371 48.6575 12.4364C48.6594 12.435 48.6609 12.434 48.6614 12.4336L48.6639 12.4318L48.6657 12.4306L48.6751 12.4243C48.6809 12.4204 48.689 12.4148 48.6988 12.4081C48.7185 12.3946 48.7439 12.377 48.7685 12.3592C48.8072 12.3312 48.8456 12.3026 48.8746 12.2808C48.8891 12.2699 48.9011 12.2608 48.9094 12.2545L48.9117 12.2528L50.0774 11.0877L49.771 10.7811C49.6926 10.8171 49.6067 10.836 49.5185 10.836C49.3576 10.836 49.2052 10.773 49.0912 10.659" fill="#326DE6"/>
<path fill-rule="evenodd" clip-rule="evenodd" d="M54.7299 16.2165L54.1178 16.2594L49.8406 12.0807L49.0605 12.9588L53.174 17.0711L53.1926 17.8355L54.8802 18.772L55.6646 17.9009L54.7299 16.2165Z" fill="white"/>
<path fill-rule="evenodd" clip-rule="evenodd" d="M54.9238 19.0332L55.9175 17.9297L54.847 16.0006L54.196 16.0462L49.83 11.7807L48.7759 12.9673L52.9689 17.159L52.9883 17.9591L54.9238 19.0332ZM53.3968 17.7119L53.3791 16.9832L49.3451 12.9504L49.8512 12.3807L54.0395 16.4726L54.6127 16.4324L55.4117 17.8722L54.8366 18.5109L53.3968 17.7119Z" fill="#326DE6"/>
<path d="M47.1071 10.8627C47.0254 10.9445 46.893 10.9445 46.8112 10.8627L44.3201 8.37154C44.2383 8.28991 44.2383 8.15722 44.3201 8.07559C44.361 8.03471 44.4146 8.01434 44.4681 8.01434C44.5217 8.01434 44.5753 8.03471 44.6162 8.07559L47.1071 10.5667C47.1889 10.6485 47.1889 10.7811 47.1071 10.8627Z" fill="#326DE6"/>
<path d="M47.5739 10.0999L45.0828 7.60878C45.001 7.52715 45.001 7.39446 45.0828 7.31283C45.1237 7.27195 45.1773 7.25158 45.2308 7.25158C45.2844 7.25158 45.338 7.27195 45.3789 7.31283L47.8698 9.80399C47.9516 9.88561 47.9516 10.0183 47.8698 10.0999C47.7881 10.1817 47.6557 10.1817 47.5739 10.0999Z" fill="#326DE6"/>
<path fill-rule="evenodd" clip-rule="evenodd" d="M55.8687 12.0742C55.366 12.5769 54.8226 11.9245 54.8226 11.9245L54.2508 11.3557C54.3349 11.1022 54.364 10.9047 54.3483 10.7513C54.3366 10.6372 54.2993 10.5526 54.2412 10.494C54.1605 10.4127 54.0478 10.3817 53.941 10.3703C53.8519 10.3608 53.7644 10.366 53.692 10.3776C53.6758 10.3802 53.6224 10.352 53.6177 10.3594L53.4808 10.5718L53.2993 10.3959C52.6471 9.76365 52.337 9.43345 52.337 9.43345C52.216 9.29948 52.0205 9.04293 52.0629 8.75329C52.0862 8.59482 52.0412 7.81883 51.5381 7.34449C51.2556 7.0782 50.825 6.91791 50.1869 7.00145C49.6024 7.01446 49.5171 6.75546 49.5074 6.71574L49.2483 6.27679C49.2282 6.24768 49.1781 6.16267 49.1782 6.0403C49.1782 5.97399 49.1927 5.89517 49.2413 5.80922C49.2947 5.7145 49.3961 5.60171 49.5988 5.49275C52.3436 3.95647 54.3696 6.20886 54.4991 6.35767C54.5765 6.43512 55.4628 7.32151 55.9148 7.77692C55.9402 7.80252 55.967 7.8295 55.9949 7.85766C55.9863 7.89201 55.9783 7.9276 55.9708 7.96434C55.904 8.29144 55.9097 8.55095 56.0552 8.69623C56.1962 8.83697 56.4475 8.84544 56.7792 8.77383C56.817 8.76567 56.8534 8.757 56.8884 8.74778C56.9146 8.77459 56.9416 8.80197 56.9695 8.82985C57.0498 8.91016 57.1259 8.98318 57.1964 9.05077C57.5189 9.36018 57.7141 9.58344 57.741 9.82029C57.7649 10.0312 57.6778 10.2725 57.3426 10.6077C56.9668 10.9836 56.6574 11.2906 56.393 11.5528C56.1961 11.7481 56.0243 11.9185 55.8687 12.0742Z" fill="white"/>
<path fill-rule="evenodd" clip-rule="evenodd" d="M52.9446 5.48222C52.1272 5.11432 51.0049 4.94315 49.7 5.67353L49.6984 5.67439L49.6969 5.67523C49.5227 5.76888 49.4528 5.85599 49.4217 5.91109C49.3923 5.96302 49.3854 6.00619 49.3854 6.04043C49.3853 6.10588 49.4126 6.15002 49.4189 6.15921L49.423 6.1652L49.7013 6.63668L49.7078 6.66301C49.7105 6.6688 49.7213 6.68789 49.7518 6.70959C49.7997 6.74374 49.9164 6.79862 50.1716 6.7945C50.8536 6.70787 51.3463 6.87897 51.6802 7.19373C51.9698 7.46675 52.1213 7.81974 52.1984 8.11504C52.2742 8.4059 52.2847 8.66863 52.2679 8.78333C52.2548 8.87286 52.2772 8.9657 52.3239 9.05889C52.3703 9.15148 52.435 9.23267 52.4893 9.293L52.4912 9.29501L52.5018 9.30613C52.5112 9.3161 52.5256 9.33117 52.545 9.3513C52.5837 9.39155 52.6423 9.452 52.7212 9.53222C52.8791 9.69265 53.1186 9.93212 53.4435 10.2471C53.4782 10.1932 53.5273 10.1696 53.5593 10.16C53.5897 10.1508 53.6153 10.1506 53.6282 10.1511C53.6541 10.1519 53.6748 10.1573 53.682 10.1592C53.6904 10.1614 53.6989 10.1641 53.706 10.1665C53.7832 10.1573 53.8717 10.1545 53.963 10.1643C54.0878 10.1776 54.2579 10.2166 54.3883 10.348C54.488 10.4485 54.5392 10.5821 54.5544 10.7302C54.5712 10.8938 54.5467 11.0822 54.4857 11.2971L54.9755 11.7844L54.9813 11.7913L54.9814 11.7915L54.9815 11.7916L54.9816 11.7918L54.9842 11.7947C54.987 11.7978 54.9916 11.8029 54.9979 11.8097C55.0105 11.8231 55.0298 11.8427 55.0545 11.8651C55.1048 11.9107 55.1731 11.9638 55.2504 12.0029C55.3279 12.042 55.4046 12.062 55.477 12.0563C55.5447 12.051 55.6279 12.0219 55.7222 11.9277C55.878 11.7719 56.0498 11.6014 56.2463 11.4065L56.2471 11.4057C56.5114 11.1435 56.8206 10.8367 57.1961 10.4612C57.5118 10.1455 57.5487 9.96349 57.5351 9.84365C57.5273 9.77535 57.4941 9.69477 57.4134 9.58652C57.332 9.47726 57.2134 9.3542 57.0529 9.20028L57.0513 9.19872C56.9814 9.13169 56.9044 9.05776 56.823 8.97634C56.6474 9.01422 56.4787 9.03438 56.3275 9.02104C56.1745 9.00754 56.0243 8.95811 55.9088 8.84284C55.7907 8.72487 55.741 8.57121 55.727 8.41721C55.7131 8.26457 55.7325 8.09548 55.7678 7.92287C55.316 7.46779 54.4301 6.5817 54.3526 6.50416L54.3475 6.49907L54.3428 6.49364C54.2866 6.4291 53.7711 5.85417 52.9446 5.48222ZM54.6707 12.0657L54.0138 11.4122L54.0542 11.2905C54.1337 11.0506 54.1537 10.8848 54.1422 10.7725C54.134 10.6924 54.1107 10.6566 54.0941 10.6399C54.0631 10.6087 54.0078 10.5858 53.919 10.5763C53.8511 10.5691 53.7822 10.573 53.7246 10.5822C53.7231 10.5824 53.7216 10.5826 53.7201 10.5828L53.518 10.8965L53.1551 10.5446C52.8278 10.2274 52.5861 9.98565 52.4259 9.82292C52.3458 9.74155 52.2861 9.67994 52.2463 9.63852C52.2264 9.61781 52.2114 9.60215 52.2014 9.59159L52.19 9.57959L52.1871 9.57648L52.1861 9.5754C52.1861 9.57539 52.186 9.57529 52.337 9.43344L52.186 9.57529L52.1846 9.57382L52.1832 9.57232C52.1168 9.49884 52.024 9.38537 51.9534 9.24458C51.8828 9.10359 51.8286 8.92333 51.8579 8.72322C51.8644 8.67945 51.864 8.47495 51.7974 8.21962C51.732 7.96872 51.6095 7.69655 51.3959 7.49523C51.1668 7.27919 50.8021 7.12986 50.2138 7.20687L50.2027 7.20832L50.1915 7.20857C49.8697 7.21574 49.654 7.14867 49.5114 7.04711C49.392 6.9621 49.3394 6.864 49.3169 6.80058L49.0731 6.38747C49.0377 6.33421 48.9709 6.21159 48.971 6.04014C48.9711 5.94176 48.9931 5.8273 49.0608 5.70732C49.1365 5.57329 49.2689 5.43515 49.4991 5.3111C50.9383 4.50617 52.2009 4.69307 53.1147 5.10435C54.002 5.5037 54.5598 6.11279 54.6505 6.21606C54.7544 6.31995 55.6175 7.18332 56.0619 7.63095C56.0873 7.65658 56.1141 7.68364 56.1421 7.7119L56.2241 7.79475L56.1959 7.90784C56.1881 7.93899 56.1807 7.97164 56.1738 8.00578C56.1422 8.16026 56.131 8.28448 56.1397 8.37969C56.1482 8.47355 56.1742 8.52228 56.2016 8.5496C56.2271 8.57506 56.273 8.60025 56.3639 8.60827C56.4564 8.61643 56.5793 8.60502 56.7355 8.57129C56.7705 8.56373 56.8039 8.55578 56.8355 8.54744L56.9522 8.51663L57.0366 8.60296C57.0623 8.62931 57.0887 8.65611 57.116 8.68333C57.1943 8.76169 57.2688 8.83313 57.3393 8.90072L57.3398 8.90124C57.5019 9.05673 57.6421 9.19999 57.7457 9.33893C57.8499 9.47888 57.9277 9.62835 57.9468 9.7969C57.9811 10.0989 57.8438 10.3995 57.4891 10.7542C57.113 11.1304 56.8033 11.4376 56.5389 11.6999L56.5385 11.7003C56.3417 11.8955 56.1704 12.0655 56.0152 12.2207C55.8581 12.3778 55.6849 12.4557 55.5093 12.4694C55.3384 12.4828 55.185 12.434 55.0638 12.3728C54.9424 12.3116 54.8434 12.233 54.7762 12.1721C54.7421 12.1412 54.7149 12.1137 54.6959 12.0934C54.6864 12.0833 54.6788 12.0749 54.6733 12.0687C54.6724 12.0676 54.6715 12.0666 54.6707 12.0657Z" fill="#326DE6"/>
<path fill-rule="evenodd" clip-rule="evenodd" d="M53.0078 11.0464C53.0078 11.0464 47.4213 17.1611 46.3695 18.3355C46.0313 18.6742 45.67 18.8156 45.3309 18.8282C44.933 18.8431 44.5607 18.6792 44.2916 18.4102C44.0221 18.1407 43.8577 17.767 43.8717 17.3684C43.8836 17.028 44.0245 16.6659 44.3542 16.3362C45.8092 14.8812 51.6155 9.65196 51.6155 9.65196C51.6155 9.65196 51.667 9.60557 51.7617 9.52044L53.1414 10.9002C53.055 10.9948 53.0078 11.0464 53.0078 11.0464Z" fill="white"/>
<path fill-rule="evenodd" clip-rule="evenodd" d="M51.7693 9.23497L53.428 10.8937L53.1608 11.1861L53.0078 11.0463C53.1608 11.1861 53.1609 11.186 53.1608 11.1861L53.1605 11.1864L52.9187 11.4511C52.7639 11.6206 52.5416 11.864 52.2715 12.1598C51.7314 12.7514 51.0002 13.5524 50.2362 14.3901C48.7077 16.066 47.0489 17.8874 46.5239 18.4737L46.5201 18.4779L46.5161 18.4819C46.1438 18.8547 45.734 19.0205 45.3386 19.0353C44.8781 19.0525 44.4512 18.8627 44.1451 18.5566C43.8386 18.2501 43.6484 17.822 43.6646 17.3611C43.6785 16.9653 43.8431 16.5543 44.2077 16.1897C44.9394 15.458 46.7589 13.7831 48.3909 12.2953C49.2079 11.5505 49.9794 10.8512 50.5466 10.3381C50.8302 10.0815 51.0627 9.87153 51.2244 9.72565C51.3052 9.65271 51.3683 9.59581 51.4112 9.55713L51.4768 9.49804C51.4769 9.498 51.4769 9.49798 51.6155 9.65194L51.4768 9.49804L51.7693 9.23497ZM52.8559 10.9076L51.7534 9.80515C51.7541 9.80594 51.7541 9.80594 51.7541 9.80595L51.6887 9.86491C51.6458 9.90354 51.5828 9.9604 51.502 10.0333C51.3404 10.1791 51.108 10.389 50.8245 10.6454C50.2576 11.1582 49.4865 11.8572 48.6701 12.6015C47.0351 14.0921 45.224 15.7594 44.5007 16.4827C44.2059 16.7775 44.0887 17.0906 44.0787 17.3756C44.0669 17.7119 44.2057 18.0312 44.4381 18.2636C44.6701 18.4956 44.9879 18.6337 45.3231 18.6212C45.6048 18.6107 45.9161 18.4946 46.2191 18.1929C46.7499 17.6003 48.406 15.7819 49.93 14.1109C50.6941 13.2731 51.4253 12.472 51.9655 11.8804C52.2356 11.5846 52.4579 11.3412 52.6128 11.1717L52.8548 10.9067C52.8548 10.9067 52.8548 10.9066 52.8559 10.9076Z" fill="#326DE6"/>
</svg>
