<svg width="50" height="50" viewBox="0 0 50 50" fill="none" xmlns="http://www.w3.org/2000/svg">
<circle cx="25" cy="25" r="25" fill="#F15A29"/>
<path d="M26.0591 39.3205C26.8592 39.1271 27.5681 38.6604 28.0652 37.9996L28.0965 37.9601C27.9101 38.0908 27.7305 38.2076 27.5539 38.3132C26.5221 38.9298 25.4268 39.1149 24.299 38.8642C23.6061 38.71 22.8963 38.4265 22.0701 37.9737C22.5939 38.5241 23.24 38.9413 23.9551 39.1909C24.628 39.4442 25.3606 39.4893 26.0591 39.3205ZM19.6976 22.1444C19.7932 22.3145 19.7791 22.3779 19.6493 22.5026C18.9635 23.1508 18.4637 23.9732 18.2025 24.8833C17.9993 25.5877 18.0325 26.3025 18.0956 27.0202C18.1522 27.6633 18.2053 28.3067 18.2549 28.9505C18.2871 29.3702 18.2923 29.7927 18.3408 30.2103C18.4319 30.9955 18.4856 31.7833 18.5392 32.5714C18.5764 33.1195 18.6101 33.6682 18.747 34.2033C18.9303 34.919 19.2157 35.5978 19.4901 36.2803C19.5925 36.5348 19.7012 36.7876 19.8142 37.0537L19.8431 37.0181C19.8881 36.9488 19.9133 36.8683 19.916 36.7855C19.9201 36.7553 19.9244 36.7253 19.9298 36.6958C20.0844 35.8937 20.4008 35.1322 20.8594 34.4584C21.2462 33.8777 21.6988 33.3443 22.2079 32.869C22.6162 32.4727 23.0879 32.1487 23.6032 31.9105C24.0972 31.6901 24.6401 31.6047 25.1773 31.6629C25.8255 31.7372 26.4492 31.9559 27.0031 32.3032C27.7529 32.7506 28.4191 33.3268 28.9716 34.0057C29.446 34.5697 29.8311 35.2041 30.1134 35.8866C30.1165 35.8945 30.1193 35.9029 30.122 35.9117L30.1302 35.9121C30.4383 35.1638 30.7087 34.4025 30.8511 33.6024C30.9895 32.8252 31.106 32.0441 31.2327 31.2648C31.3574 30.4975 31.4863 29.7308 31.5932 28.9606C31.7112 28.1107 31.8207 27.2596 31.9216 26.4075C31.9934 25.8037 32.0224 25.202 31.9072 24.5989C31.7272 23.6561 31.3184 22.8512 30.551 22.2543C30.3932 22.1316 30.381 22.0509 30.486 21.8726C31.0124 20.9666 31.4826 20.0286 31.8939 19.064C32.5479 17.5558 33.1234 16.0207 33.3267 14.3727C33.4293 13.6605 33.4178 12.9364 33.2925 12.2279C33.0375 10.9267 32.0482 9.90855 30.7869 9.68039C30.0542 9.54784 29.4034 9.72693 28.876 10.278C28.4787 10.7022 28.1677 11.2007 27.9606 11.7455C27.3277 13.3432 27.0427 15.0183 26.885 16.7205C26.8256 17.3615 26.7752 18.0034 26.7216 18.645L26.7266 18.6431L26.7593 18.6661L26.7642 18.664C26.7772 18.6587 26.79 18.6535 26.8029 18.6497C26.9244 18.611 27.0504 18.5889 27.1777 18.5839L27.3395 18.5792L27.2872 18.7335C27.2621 18.8044 27.2292 18.8723 27.1891 18.9358C27.1146 19.0612 27.0611 19.1982 27.031 19.3412C26.9938 19.4949 26.997 19.6557 27.0402 19.8078C27.0431 19.8186 27.0474 19.8289 27.0529 19.8386C27.0558 19.8369 27.068 19.8352 27.0893 19.8277C27.1244 19.8141 27.1565 19.7938 27.184 19.7679C27.2904 19.6716 27.367 19.5463 27.4045 19.4073C27.479 19.1102 27.5103 18.8038 27.4976 18.4977L27.5027 17.7573L27.7168 18.4097C27.7349 18.4647 27.7577 18.5219 27.781 18.5804C27.7834 18.5865 27.7857 18.5927 27.7881 18.5988C27.783 18.3546 27.7628 18.1111 27.7522 17.8671C27.7416 17.6227 27.7555 17.3788 27.7648 17.1345C27.8099 15.9526 27.932 14.7808 28.2513 13.6391C28.458 12.8997 28.7329 12.1848 29.2077 11.5715C29.466 11.2378 29.7846 10.9641 30.2102 10.8754C30.7648 10.7599 31.2678 10.9188 31.7124 11.2483C32.1294 11.5573 32.3338 12.0104 32.453 12.5036C32.5622 13.0089 32.573 13.5308 32.4847 14.0403C32.3154 15.2088 31.9995 16.3509 31.5446 17.4392C31.0429 18.672 30.3902 19.8368 29.6016 20.9064C29.3836 21.2032 29.1337 21.475 28.8567 21.7168C28.6608 21.8848 28.5465 21.871 28.4198 21.6469C28.2414 21.3174 28.1084 20.965 28.0242 20.5994L28.0053 20.5913C27.9978 20.6063 27.9906 20.6245 27.9821 20.6463C27.9679 20.6864 27.9495 20.7249 27.9273 20.7612C27.9168 20.7746 27.9114 20.7912 27.9118 20.8083C27.9122 20.8253 27.9185 20.8417 27.9296 20.8545C28.1549 21.2375 28.1528 21.6445 28.1211 21.9922C28.0873 22.2839 28.0241 22.5713 27.9324 22.85L28.1522 23.4466L27.7335 22.9417C27.7221 22.9279 27.7137 22.9119 27.7087 22.8947C27.7037 22.8775 27.7023 22.8595 27.7045 22.8417C27.6876 22.6093 27.6435 22.3796 27.5732 22.1575C27.5386 22.0513 27.4865 21.9516 27.4191 21.8627C27.4245 22.2091 27.3756 22.5542 27.274 22.8852C27.186 23.1794 27.0821 23.4684 26.9625 23.7511L26.9103 23.8813L26.8134 23.8468C26.7999 23.8758 26.7864 23.9047 26.7727 23.9336C26.7765 23.9015 26.7813 23.8693 26.7861 23.8372L26.6987 23.8061C26.7914 23.4988 26.7612 23.1586 26.6036 22.7355C26.4377 22.3123 26.1809 21.9314 25.8516 21.62C25.876 21.8364 25.8742 22.055 25.8462 22.2709C25.77 22.7674 25.5665 23.2418 25.2059 23.7641C25.1811 23.8078 25.1426 23.842 25.0966 23.8615L24.9137 23.934L24.9445 23.7384C24.96 23.6615 24.966 23.5831 24.9624 23.5047C24.9064 23.013 24.7722 22.5337 24.5649 22.0849C24.563 22.0804 24.5608 22.076 24.5584 22.0718C24.5509 22.0745 24.5436 22.0779 24.5368 22.082C24.461 22.1275 24.3989 22.1931 24.3573 22.2715C24.275 22.4187 24.2172 22.5785 24.1862 22.7445C24.125 23.0501 24.0845 23.3596 24.065 23.6708C24.0478 23.9072 24.0479 24.1364 24.0504 24.3295L24.0517 24.4332L24.0281 24.4356L24.0284 24.4365L23.9624 24.4431C23.9617 24.5127 23.9611 24.5823 23.9604 24.6519C23.9351 24.585 23.913 24.5176 23.8901 24.4503L23.7729 24.462L23.7448 24.3747C23.5453 23.762 23.4403 23.1221 23.4333 22.4774C23.3395 22.7423 23.2993 23.0234 23.315 23.3043L23.325 23.4988L23.366 23.9363L23.3449 23.8841L23.3479 23.9426L23.0471 23.2317C23.008 23.1408 22.969 23.0499 22.9326 22.9579C22.7913 22.6083 22.6937 22.2423 22.642 21.8683C22.6155 21.7101 22.6214 21.5481 22.6593 21.3922C22.6619 21.3843 22.6633 21.376 22.6635 21.3677C22.6629 21.3676 22.6588 21.3632 22.6488 21.3566C22.5125 21.2657 22.4028 21.1396 22.3313 20.9914C22.2167 20.766 22.1254 20.5293 22.0589 20.285C21.9774 20.7637 21.8189 21.2259 21.5898 21.6532C21.4646 21.8777 21.3516 21.886 21.1539 21.7132C20.6339 21.2585 20.239 20.702 19.8706 20.1236C19.0996 18.9298 18.4872 17.6394 18.049 16.2852C17.8107 15.5561 17.6374 14.8069 17.5314 14.0467C17.4884 13.77 17.4671 13.4903 17.4676 13.2102C17.4726 12.7033 17.6044 12.2059 17.8508 11.7639C18.1361 11.2632 18.5886 10.9897 19.1383 10.8742C19.9041 10.7133 20.4499 11.0772 20.8763 11.6631C21.3264 12.2818 21.5852 12.9942 21.7882 13.7267C21.9492 14.3369 22.0631 14.9588 22.1286 15.5867C22.1923 16.1316 22.2322 16.6773 22.2531 17.2258C22.2625 17.4719 22.2591 17.7169 22.2542 17.962C22.2852 17.8777 22.3167 17.7936 22.3488 17.7097L22.6702 16.8618L22.6169 17.6235C22.6028 17.8966 22.6099 18.1704 22.638 18.4423C22.6536 18.6402 22.6833 18.8366 22.7269 19.0301C22.8194 18.6505 22.9405 18.2785 23.0892 17.9175L23.1814 17.4351L23.2088 17.5362C23.1484 16.708 23.0772 15.8809 22.9377 15.0613C22.7804 14.1368 22.6139 13.2143 22.3153 12.3226C22.1001 11.6327 21.7614 10.9883 21.3158 10.4214C20.7356 9.70993 19.8909 9.4595 19.0182 9.73557C18.2829 9.96818 17.6568 10.3565 17.233 11.0248C16.764 11.7645 16.619 12.5933 16.6272 13.4505C16.6345 14.2146 16.7732 14.9648 16.952 15.7066C17.2478 16.9339 17.7079 18.1012 18.2217 19.249C18.665 20.2394 19.1667 21.1994 19.6976 22.1444ZM25.8779 27.7703C26.0733 26.9893 26.487 26.2811 27.0698 25.7299C27.3997 25.4102 27.8322 25.22 28.2891 25.1937C28.5488 25.1782 28.8072 25.2412 29.0311 25.3748C29.7809 25.8177 30.2967 26.4478 30.52 27.3019C30.594 27.5596 30.5978 27.8327 30.5311 28.0924C30.4644 28.3522 30.3296 28.5891 30.1408 28.7784C29.5119 29.463 28.6717 29.9131 27.7567 30.0556C27.5405 30.0813 27.3231 30.0952 27.1054 30.097C26.9499 30.1092 26.7936 30.1071 26.6384 30.0907C26.5085 30.0677 26.3866 30.0119 26.284 29.9285C26.1814 29.845 26.1016 29.7366 26.0519 29.6135C25.769 29.0422 25.707 28.3852 25.8779 27.7703ZM20.6514 25.5143C20.9188 25.3167 21.2355 25.198 21.5661 25.1715C21.7855 25.1615 22.0036 25.2112 22.1974 25.3153C23.1061 25.7821 23.6825 26.5228 23.9646 27.503C24.073 27.8383 24.1304 28.1882 24.135 28.5408C24.1357 28.898 24.0543 29.2505 23.8972 29.5707C23.8277 29.7408 23.7071 29.8847 23.5524 29.9822C23.3976 30.0797 23.2164 30.1259 23.0343 30.1144C21.8653 30.1034 20.8082 29.7827 19.9465 28.9465C19.6742 28.6822 19.4496 28.3848 19.3671 28C19.3147 27.7603 19.3257 27.5108 19.399 27.2767C19.6027 26.5615 20.045 25.939 20.6514 25.5143Z" fill="white"/>
<path d="M30.0848 36.0229C30.2517 36.6198 30.2827 37.2145 30.05 37.8027C29.8306 38.3573 29.4595 38.8002 29.0129 39.1783C28.2573 39.8182 27.3161 40.1938 26.3307 40.2489C25.8985 40.2848 25.4645 40.2948 25.0311 40.2788C24.0222 40.2306 23.0125 40.1728 22.0405 39.856C21.4996 39.6798 21.0048 39.4242 20.6113 38.9968C20.2218 38.5738 20.0327 38.0661 19.972 37.5003C19.9574 37.3636 19.9768 37.2231 19.93 37.0899C19.9191 37.1278 19.9083 37.1658 19.8895 37.2315C19.8641 37.1712 19.8392 37.1125 19.8142 37.0537L19.803 37.0675L19.8241 37.1276C19.8458 37.204 19.8554 37.2833 19.8527 37.3626C19.8539 37.4127 19.8551 37.4628 19.8604 37.5125C19.9287 38.1486 20.1473 38.6593 20.5289 39.0737C20.8956 39.472 21.3649 39.7548 22.006 39.9637C22.9511 40.2717 23.8929 40.3377 25.0258 40.392C25.1521 40.3979 25.2781 40.4005 25.4019 40.4005C25.7461 40.4005 26.0734 40.3809 26.3387 40.3617C27.3475 40.3035 28.3107 39.9189 29.0852 39.2649C29.5985 38.8303 29.9482 38.3656 30.1543 37.8446C30.3738 37.2899 30.3864 36.6839 30.1929 35.9922L30.1711 35.9144L30.1302 35.9121C30.115 35.949 30.1002 35.9861 30.0848 36.023L30.0848 36.0229Z" fill="white"/>
<path d="M23.9179 39.2976C24.6115 39.5567 25.3658 39.6029 26.0855 39.4304C26.9092 39.2293 27.6392 38.749 28.1532 38.0701C28.2898 37.9184 28.4016 37.7459 28.4844 37.5588C28.4503 37.5609 28.4183 37.5762 28.3953 37.6015C28.1073 37.823 27.8073 38.0281 27.4967 38.2158C26.5075 38.807 25.4543 39.0053 24.3232 38.7537C23.5192 38.5747 22.7796 38.238 22.0632 37.8409C21.9223 37.7628 21.7823 37.6831 21.6351 37.6004C21.6346 37.6168 21.6378 37.6331 21.6444 37.6481C21.651 37.6631 21.661 37.6764 21.6734 37.687C22.2521 38.4304 23.0315 38.9896 23.9179 39.2976ZM24.299 38.8642C25.4268 39.1149 26.5221 38.9298 27.554 38.3132C27.7305 38.2076 27.9101 38.0908 28.0965 37.9601L28.0652 37.9996C27.5682 38.6604 26.8593 39.1271 26.0591 39.3205C25.3606 39.4893 24.628 39.4442 23.9551 39.1909C23.24 38.9413 22.5939 38.5241 22.0701 37.9736C22.8963 38.4265 23.6061 38.71 24.299 38.8642ZM30.1134 35.8866C29.8311 35.2041 29.446 34.5697 28.9716 34.0057C28.4191 33.3268 27.7529 32.7506 27.0031 32.3032C26.4492 31.9559 25.8255 31.7372 25.1773 31.6629C24.6401 31.6047 24.0972 31.6901 23.6032 31.9105C23.0879 32.1487 22.6162 32.4727 22.2079 32.869C21.6988 33.3443 21.2462 33.8777 20.8594 34.4584C20.4008 35.1322 20.0844 35.8937 19.9298 36.6958C19.9244 36.7253 19.9201 36.7553 19.916 36.7855C19.9133 36.8683 19.8881 36.9488 19.8431 37.0181L19.8142 37.0537C19.8392 37.1125 19.8641 37.1712 19.8895 37.2315C19.9083 37.1658 19.9191 37.1278 19.93 37.0899C20.0179 36.6972 20.0838 36.2993 20.2196 35.9182C20.4721 35.2163 20.8383 34.5614 21.3033 33.9802C21.8009 33.3516 22.3442 32.768 23.016 32.3218C23.4618 32.0101 23.9759 31.8118 24.5143 31.7438C24.8822 31.7059 25.2537 31.7307 25.6134 31.817C26.4208 32.0065 27.1174 32.4153 27.7595 32.9245C28.6789 33.6539 29.4197 34.5863 29.9248 35.6498C29.9835 35.7715 30.0318 35.8984 30.0848 36.0229C30.1002 35.9861 30.115 35.949 30.1302 35.9121L30.122 35.9116C30.1194 35.9029 30.1165 35.8945 30.1134 35.8866Z" fill="white"/>
<path d="M20.6114 38.9968C21.0049 39.4242 21.4997 39.6798 22.0406 39.8561C23.0126 40.1728 24.0223 40.2306 25.0312 40.2789C25.4646 40.2948 25.8985 40.2848 26.3307 40.2489C27.3162 40.1938 28.2574 39.8182 29.013 39.1783C29.4596 38.8002 29.8307 38.3573 30.0501 37.8027C30.2828 37.2145 30.2518 36.6198 30.0849 36.023V36.023C30.0257 36.0196 30.0238 35.9654 30.0092 35.9287C29.731 35.2571 29.3517 34.6327 28.8848 34.0774C28.3411 33.4082 27.6848 32.8406 26.9458 32.4006C26.4056 32.0625 25.7979 31.849 25.1662 31.7755C24.6484 31.7188 24.125 31.8011 23.6489 32.0139C23.1451 32.2471 22.6839 32.5641 22.2847 32.9517C21.7816 33.4207 21.3347 33.9474 20.9531 34.5211C20.5039 35.1827 20.1934 35.9297 20.0404 36.7164C20.0169 36.8431 20.0185 36.9811 19.9301 37.0899C19.9769 37.2231 19.9575 37.3636 19.9722 37.5003C20.0328 38.0661 20.2219 38.5738 20.6114 38.9968ZM20.1386 36.8168C20.1422 36.7899 20.1459 36.7633 20.1508 36.7371C20.2999 35.9651 20.6049 35.2321 21.0466 34.5837C21.4238 34.0177 21.865 33.4977 22.3613 33.0344C22.7514 32.6554 23.2021 32.3454 23.6945 32.1174C24.1529 31.913 24.6566 31.8339 25.155 31.8881C25.7706 31.9592 26.3627 32.1676 26.8885 32.4979C27.6158 32.9318 28.262 33.4906 28.7979 34.1492C29.2577 34.6954 29.6311 35.3098 29.9049 35.9708C29.9067 35.9751 29.908 35.98 29.9094 35.9848C29.9213 36.0348 29.9506 36.0789 29.9919 36.1092C30.1556 36.7278 30.1404 37.2687 29.9458 37.7608C29.7538 38.2463 29.4251 38.6816 28.9407 39.0916C28.2023 39.7146 27.2842 40.0808 26.3228 40.136C25.895 40.1713 25.4656 40.1813 25.0367 40.1659C23.9207 40.1125 22.994 40.0478 22.0752 39.7484C21.4722 39.5519 21.0332 39.2886 20.6938 38.9198C20.3462 38.5424 20.1467 38.0741 20.0839 37.4882C20.0792 37.4448 20.0784 37.4012 20.0774 37.3575C20.0785 37.2744 20.0703 37.1915 20.0531 37.1102C20.1017 37.0195 20.1308 36.9195 20.1386 36.8168Z" fill="white"/>
<path d="M23.8805 39.4044C24.315 39.5619 24.7729 39.6436 25.2345 39.6461C25.5301 39.6461 25.8247 39.6106 26.112 39.5404C26.9593 39.332 27.7105 38.838 28.2411 38.1404L28.2797 38.0917C28.4088 37.9454 28.5135 37.7789 28.5895 37.5987L28.6457 37.4477L28.4858 37.4457H28.4829C28.4248 37.4471 28.3694 37.4705 28.3276 37.5113C28.043 37.7302 27.7465 37.9329 27.4394 38.1184C26.4582 38.7048 25.4178 38.8814 24.3474 38.6432C23.6591 38.49 22.9505 38.2035 22.1174 37.7418C22.0242 37.6901 21.9313 37.6377 21.8365 37.5842L21.5315 37.4128L21.5229 37.595C21.5213 37.625 21.5261 37.6549 21.5369 37.6829C21.5476 37.7109 21.5642 37.7362 21.5854 37.7573C22.178 38.5166 22.9747 39.0883 23.8805 39.4044ZM22.0632 37.8409C22.7795 38.238 23.5192 38.5747 24.3232 38.7537C25.4542 39.0053 26.5075 38.807 27.4967 38.2158C27.8073 38.0281 28.1073 37.823 28.3952 37.6015C28.4183 37.5762 28.4503 37.5609 28.4844 37.5588C28.4016 37.7459 28.2898 37.9184 28.1532 38.0701C27.6392 38.749 26.9092 39.2293 26.0855 39.4304C25.3658 39.6029 24.6115 39.5567 23.9179 39.2976C23.0314 38.9896 22.2521 38.4304 21.6734 37.687C21.6609 37.6764 21.651 37.6631 21.6444 37.6481C21.6377 37.6331 21.6346 37.6168 21.6351 37.6004C21.7823 37.6831 21.9223 37.7628 22.0632 37.8409Z" fill="white"/>
<path d="M26.0408 37.575C26.0904 37.5984 26.1445 37.6106 26.1993 37.6107C26.2556 37.6101 26.3112 37.5982 26.3628 37.5756C26.8451 37.3786 27.3075 37.1357 27.7438 36.8499C27.9273 36.7282 28.1031 36.5954 28.2705 36.4521C28.5345 36.2335 28.7197 35.9334 28.7975 35.5982L28.8019 35.5787C28.8401 35.4091 28.8834 35.2169 28.8073 35.0228C28.6595 34.6465 28.1122 34.2726 27.7022 34.2681C27.698 34.2681 27.6937 34.2679 27.6894 34.2679C27.1297 34.2679 26.7336 34.6667 26.702 35.2637C26.6798 35.6788 26.557 36.0821 26.3443 36.4384L26.3309 36.4617C26.3257 36.4711 26.3204 36.4805 26.3146 36.4899C26.2335 36.6209 26.1451 36.7518 26.0596 36.8783C26.008 36.9546 25.9565 37.0308 25.906 37.1078C25.8778 37.1453 25.8583 37.1887 25.8489 37.2348C25.8395 37.2809 25.8405 37.3285 25.8517 37.3742C25.8664 37.4198 25.891 37.4615 25.9237 37.4962C25.9564 37.531 25.9964 37.5579 26.0408 37.575ZM25.9997 37.1701C26.1357 36.9629 26.2795 36.7606 26.4099 36.5497C26.4208 36.532 26.4304 36.5139 26.4409 36.4961C26.6634 36.1244 26.7915 35.7032 26.8141 35.2698C26.8428 34.7275 27.1993 34.3758 27.7011 34.3813C28.0603 34.3852 28.5709 34.7283 28.7028 35.0645C28.7688 35.2325 28.7256 35.4055 28.6879 35.5733C28.6154 35.8847 28.443 36.1634 28.1975 36.3661C28.0335 36.5064 27.8612 36.6365 27.6816 36.7557C27.2509 37.0369 26.7948 37.2765 26.3193 37.4712C26.2831 37.4882 26.2436 37.4971 26.2036 37.4973C26.1636 37.4974 26.124 37.4888 26.0877 37.4721C25.9494 37.4079 25.9156 37.2983 25.9997 37.1701V37.1701ZM22.2729 36.5789C22.3512 36.6424 22.4368 36.706 22.5424 36.7792C22.9693 37.0601 23.4172 37.3071 23.8821 37.5181C23.9634 37.5551 24.0489 37.5817 24.1368 37.5971C24.16 37.6017 24.1837 37.604 24.2074 37.6041C24.264 37.6032 24.3196 37.5894 24.3702 37.5638C24.4208 37.5383 24.465 37.5015 24.4995 37.4563C24.5832 37.3532 24.5723 37.232 24.4672 37.0962C24.4366 37.0533 24.4099 37.0078 24.3873 36.9602C24.3575 36.897 24.3208 36.8373 24.2778 36.7823C24.1792 36.6644 24.0918 36.5373 24.017 36.4028C23.8196 36.0418 23.7088 35.6392 23.6937 35.2273C23.6631 34.672 23.2535 34.2685 22.7198 34.2679H22.7188C22.4251 34.2686 22.143 34.3837 21.9316 34.5892C21.7325 34.7639 21.6042 35.0063 21.5713 35.2702C21.5383 35.5341 21.603 35.801 21.7529 36.0199C21.8959 36.2327 22.0714 36.4213 22.2729 36.5789ZM22.0075 34.6725C22.1986 34.4863 22.4538 34.3818 22.7197 34.3811C22.9457 34.3806 23.1628 34.4697 23.3241 34.6293C23.4854 34.7888 23.5779 35.006 23.5816 35.2337C23.5982 35.6628 23.7138 36.0821 23.9192 36.4584C23.9975 36.599 24.0888 36.7319 24.192 36.8552C24.2659 36.9435 24.3033 37.0683 24.3786 37.1656C24.4267 37.2277 24.4761 37.3063 24.4125 37.3847C24.3839 37.424 24.3449 37.4544 24.2999 37.4723C24.255 37.4902 24.2059 37.495 24.1584 37.4861C24.0799 37.4724 24.0034 37.4489 23.9306 37.4161C23.4709 37.2079 23.0281 36.9638 22.6061 36.6861C22.5167 36.624 22.4285 36.5599 22.3432 36.4908C22.151 36.3405 21.9835 36.1606 21.8468 35.9578C21.711 35.7615 21.6522 35.5214 21.6819 35.284C21.7116 35.0466 21.8276 34.8287 22.0075 34.6725Z" fill="white"/>
<path d="M20.953 34.521C21.3345 33.9473 21.7815 33.4207 22.2846 32.9517C22.6838 32.5641 23.145 32.2471 23.6488 32.0139C24.1248 31.8011 24.6483 31.7188 25.1661 31.7754C25.7978 31.849 26.4055 32.0624 26.9457 32.4005C27.6846 32.8406 28.341 33.4082 28.8847 34.0774C29.3516 34.6327 29.7309 35.2571 30.0091 35.9287C30.0237 35.9654 30.0256 36.0196 30.0848 36.0229C30.0317 35.8984 29.9835 35.7715 29.9248 35.6498C29.4196 34.5863 28.6788 33.6539 27.7595 32.9245C27.1173 32.4153 26.4208 32.0065 25.6133 31.817C25.2537 31.7307 24.8821 31.7059 24.5143 31.7438C23.9759 31.8117 23.4618 32.0101 23.016 32.3218C22.3442 32.768 21.8009 33.3515 21.3032 33.9801C20.8383 34.5614 20.4721 35.2163 20.2196 35.9182C20.0838 36.2992 20.0179 36.6972 19.9299 37.0899C20.0184 36.9811 20.0168 36.8431 20.0402 36.7164C20.1932 35.9297 20.5038 35.1827 20.953 34.521ZM27.7888 18.8025C27.8031 18.8097 27.8156 18.8199 27.8253 18.8326C27.835 18.8453 27.8417 18.8601 27.845 18.8758C27.9663 19.2734 28.0812 19.673 28.0637 20.0947C28.0586 20.2183 28.0723 20.3518 27.9815 20.458C28.0455 20.4847 28.0433 20.5504 28.0575 20.6039C28.0582 20.6065 28.059 20.609 28.0597 20.6117L28.0905 20.4849C28.2061 20.0079 28.1152 19.5492 28.0112 19.1634C27.987 19.0738 27.9604 18.9849 27.9338 18.896L27.8685 18.6856L27.8286 18.6865C27.8251 18.7261 27.8143 18.7648 27.7969 18.8004C27.7942 18.8006 27.7915 18.8007 27.7888 18.8006L27.7888 18.8025L27.7888 18.8025ZM22.1402 18.1707C21.9993 18.6593 21.9394 19.1681 21.9628 19.6764C21.9677 19.755 21.976 19.8333 21.9846 19.9116L22.0032 20.0946L22.0139 20.0971C22.0087 20.0735 22.002 20.0505 21.9972 20.0267L21.9952 20.0129L21.982 19.8587L22.0533 19.8745C22.0477 19.8349 22.0474 19.7942 22.0454 19.7551C22.0141 19.2804 22.0587 18.8037 22.1777 18.3433C22.192 18.2911 22.197 18.2334 22.2474 18.1989C22.1947 18.1432 22.213 18.0751 22.22 18.0114L22.1908 17.982L22.1402 18.1707ZM25.6615 18.1399L25.6615 18.1399C25.7192 18.1396 25.7747 18.1617 25.8166 18.2016C25.7969 18.1692 25.7789 18.1362 25.7579 18.1044L25.5079 17.7261L25.5398 18.0483C25.544 18.0499 25.5482 18.0512 25.5523 18.0528C25.5973 18.0687 25.6358 18.0994 25.6615 18.1399ZM26.3312 19.037C26.4398 18.9244 26.5687 18.8338 26.7112 18.7702H26.7112C26.7147 18.7285 26.718 18.6867 26.7215 18.645L26.671 18.6645C26.5307 18.7247 26.4028 18.811 26.2941 18.9187C26.2977 18.9325 26.302 18.9458 26.3052 18.9597C26.3112 18.9862 26.3073 19.0165 26.3312 19.037ZM23.2243 17.8831L23.2243 17.8831L23.2243 17.8831C23.2562 18.1552 23.2725 18.4289 23.2733 18.7029C23.3265 18.9218 23.4103 19.132 23.522 19.3273C23.661 18.9536 23.775 18.5945 23.6719 18.1885C23.8046 18.2728 23.868 18.3978 23.9663 18.4876C23.99 18.4574 24.0148 18.4295 24.0398 18.4017C24.0074 18.3701 23.9772 18.3365 23.9493 18.3009C23.8887 18.2199 23.8152 18.1495 23.7318 18.0928L23.4931 17.9411L23.5631 18.2165C23.6237 18.4909 23.603 18.7771 23.5037 19.0397C23.4535 18.9217 23.4128 18.7998 23.3822 18.6752L23.3774 18.6558L23.3662 18.6393C23.3229 18.5591 23.3013 18.4688 23.3036 18.3776C23.3006 18.3371 23.2975 18.2967 23.292 18.2571C23.2764 18.1775 23.28 18.0954 23.3025 18.0175C23.316 17.9817 23.3181 17.9424 23.3085 17.9053L23.2088 17.5362C23.2128 17.5918 23.2169 17.6474 23.2209 17.7031C23.2252 17.7628 23.2233 17.8231 23.2243 17.8831Z" fill="white"/>
<path d="M27.7889 18.8025L27.789 18.8006L27.7881 18.8006L27.7889 18.8025L27.7889 18.8025ZM26.6899 22.7355C26.4924 22.2384 26.1816 21.795 25.7826 21.4413C25.7779 21.4369 25.7683 21.4378 25.7471 21.4332C25.9202 22.3621 25.5705 23.1308 25.0453 23.8517C25.0328 23.8442 25.0233 23.8326 25.0184 23.8189C25.0136 23.8051 25.0136 23.7901 25.0186 23.7764C25.0887 23.273 24.9178 22.8142 24.7594 22.3535C24.7256 22.2552 24.6772 22.162 24.6446 22.0633C24.6107 21.9609 24.5597 21.9669 24.4836 22.0171C24.3624 22.1035 24.2707 22.2256 24.2212 22.3666C24.1103 22.6706 24.0412 22.9885 24.0158 23.3114C23.9825 23.6158 23.9656 23.9219 23.9651 24.2282C23.9726 24.2531 23.9789 24.278 23.9867 24.3028L24.0282 24.4356L24.0519 24.4331L24.0505 24.3295C24.048 24.1364 24.0479 23.9072 24.0651 23.6708C24.0846 23.3596 24.1251 23.0501 24.1863 22.7444C24.2173 22.5784 24.2751 22.4186 24.3574 22.2714C24.399 22.193 24.4611 22.1275 24.5369 22.0819C24.5438 22.0779 24.551 22.0745 24.5585 22.0717C24.5609 22.076 24.5631 22.0804 24.565 22.0849C24.7723 22.5336 24.9065 23.013 24.9625 23.5047C24.9661 23.583 24.9601 23.6615 24.9446 23.7383L24.9138 23.9339L25.0967 23.8614C25.1428 23.842 25.1812 23.8078 25.206 23.7641C25.5666 23.2418 25.7701 22.7673 25.8463 22.2709C25.8743 22.0549 25.8761 21.8364 25.8517 21.62C26.181 21.9313 26.4378 22.3123 26.6037 22.7355C26.7613 23.1586 26.7915 23.4987 26.6988 23.8061L26.7862 23.8371C26.8131 23.6974 26.8272 23.5556 26.8283 23.4133C26.8195 23.1813 26.7727 22.9523 26.6899 22.7355ZM27.9814 20.4582C27.9352 20.5549 27.8908 20.6524 27.8422 20.7478C27.8309 20.7662 27.8254 20.7876 27.8264 20.8091C27.8273 20.8307 27.8347 20.8514 27.8475 20.8687C28.0623 21.2194 28.0801 21.6031 28.04 22.0005C28.0045 22.297 27.9377 22.5888 27.8407 22.871H27.8407C27.8385 22.8932 27.8367 22.924 27.8113 22.9228C27.7801 22.9212 27.7976 22.8888 27.7939 22.8699C27.7381 22.5076 27.7162 22.1355 27.4891 21.8237C27.4568 21.7651 27.4028 21.7216 27.3389 21.7029C27.3867 22.4785 27.1294 23.1706 26.8135 23.8468L26.9104 23.8812L26.9626 23.751C27.0822 23.4684 27.1862 23.1793 27.2741 22.8851C27.3757 22.5541 27.4246 22.209 27.4192 21.8626C27.4866 21.9516 27.5387 22.0512 27.5733 22.1575C27.6436 22.3796 27.6877 22.6092 27.7046 22.8417C27.7024 22.8595 27.7038 22.8775 27.7088 22.8947C27.7138 22.9119 27.7222 22.9278 27.7336 22.9416L28.1523 23.4465L27.9325 22.85C28.0242 22.5712 28.0874 22.2838 28.1212 21.9922C28.1529 21.6445 28.155 21.2375 27.9297 20.8545C27.9186 20.8416 27.9123 20.8252 27.9119 20.8082C27.9115 20.7912 27.9169 20.7745 27.9274 20.7611C27.9496 20.7249 27.968 20.6864 27.9822 20.6463C27.9907 20.6245 27.9979 20.6062 28.0054 20.5912L28.0243 20.5993C28.0191 20.5785 28.0136 20.5578 28.0086 20.5369C28.0021 20.51 27.9906 20.4844 27.9814 20.4582ZM23.0893 17.9174C22.9406 18.2785 22.8195 18.6504 22.727 19.0301C22.6834 18.8366 22.6537 18.6401 22.6381 18.4423C22.61 18.1703 22.6029 17.8966 22.617 17.6235L22.6703 16.8618L22.3489 17.7097C22.3168 17.7936 22.2853 17.8777 22.2543 17.962C22.2527 18.0404 22.2511 18.1188 22.2495 18.1973C22.3353 17.9709 22.421 17.7445 22.5068 17.5181C22.5258 18.1262 22.5447 18.7283 22.7349 19.3128C22.8395 18.8307 22.9878 18.3592 23.1779 17.9044L23.1779 17.9044C23.1934 17.8973 23.2089 17.8902 23.2244 17.8831L23.2244 17.8831C23.2235 17.8231 23.2253 17.7628 23.2211 17.703C23.2171 17.6474 23.213 17.5918 23.2089 17.5362L23.1815 17.4351L23.0893 17.9174Z" fill="white"/>
<path d="M26.7112 18.7702C26.8469 18.7141 26.9892 18.6761 27.1347 18.6572C27.1639 18.6521 27.206 18.6387 27.2227 18.6683C27.2375 18.6945 27.2171 18.7295 27.1998 18.7574C27.0795 18.9369 26.9941 19.1377 26.9479 19.3492C26.9164 19.5107 26.9209 19.6772 26.961 19.8367C26.9823 19.9195 27.0277 19.9461 27.1115 19.9072C27.3169 19.8118 27.4111 19.6334 27.481 19.4313C27.5593 19.2047 27.5562 18.9679 27.5733 18.734C27.5828 18.6036 27.575 18.4718 27.596 18.335C27.66 18.4902 27.724 18.6454 27.788 18.8006L27.7888 18.8006C27.7904 18.7333 27.7895 18.666 27.7881 18.5988C27.7857 18.5927 27.7834 18.5865 27.7809 18.5804C27.7577 18.5219 27.7349 18.4647 27.7168 18.4097L27.5027 17.7573L27.4975 18.4977C27.5103 18.8038 27.4789 19.1102 27.4044 19.4073C27.3669 19.5464 27.2904 19.6716 27.184 19.7679C27.1565 19.7938 27.1244 19.8141 27.0893 19.8277C27.0679 19.8352 27.0557 19.8369 27.0529 19.8387C27.0474 19.8289 27.0431 19.8186 27.0402 19.8078C26.9969 19.6557 26.9938 19.4949 27.031 19.3412C27.0611 19.1982 27.1145 19.0612 27.1891 18.9358C27.2292 18.8723 27.2621 18.8044 27.2872 18.7336L27.3395 18.5792L27.1777 18.5839C27.0504 18.5889 26.9243 18.611 26.8028 18.6497C26.79 18.6535 26.7772 18.6587 26.7642 18.664L26.7593 18.6661L26.7266 18.6431L26.7215 18.6451C26.7181 18.6868 26.7147 18.7285 26.7112 18.7702H26.7112Z" fill="white"/>
<path d="M23.1969 17.9789C23.2025 17.965 23.2036 17.9496 23.2002 17.935C23.1993 17.9396 23.1985 17.9442 23.1977 17.9488C23.0254 18.3586 22.8931 18.7842 22.8026 19.2197C22.7946 19.2632 22.7867 19.322 22.7391 19.3247C22.6828 19.3279 22.6717 19.2643 22.6594 19.2202C22.5908 18.9689 22.5462 18.7116 22.5262 18.4517C22.4975 18.174 22.4904 17.8944 22.505 17.6155C22.4388 17.7902 22.3759 17.95 22.3189 18.112C22.3061 18.1484 22.2981 18.1915 22.2499 18.2017L22.2487 18.2002C22.111 18.677 22.0523 19.1734 22.0749 19.6694C22.0794 19.7409 22.0868 19.8122 22.0945 19.8835L22.1317 19.8917C22.1642 19.8986 22.1939 19.9148 22.2173 19.9385C22.2155 19.9367 22.2146 19.9345 22.2127 19.9327L22.2078 19.887C22.1998 19.8122 22.1917 19.7374 22.187 19.6623C22.1654 19.1966 22.2182 18.7304 22.3434 18.2816C22.3652 18.2653 22.3832 18.2444 22.3963 18.2204C22.4014 18.3021 22.4077 18.3824 22.4143 18.4612C22.4346 18.7283 22.4805 18.9928 22.5514 19.251L22.5544 19.2624C22.5665 19.3077 22.6054 19.4474 22.7455 19.4377C22.8789 19.4301 22.9037 19.2924 22.9131 19.2402C22.9579 19.0056 23.0192 18.7743 23.0965 18.5484C23.1077 18.6193 23.1324 18.6873 23.1691 18.7488C23.2246 18.9715 23.3107 19.1852 23.4248 19.3839L23.5437 19.5912L23.6272 19.367C23.7447 19.0932 23.8114 18.8001 23.824 18.5021C23.8369 18.5169 23.8504 18.5317 23.8646 18.5461C23.8771 18.5799 23.8958 18.6111 23.9196 18.6382C23.9242 18.6439 23.9289 18.6495 23.9331 18.6555C24.0731 18.8456 24.1931 19.0498 24.2912 19.2649C24.3165 19.3246 24.3412 19.3846 24.3696 19.454L24.5518 19.8967L24.6263 19.5388C24.6859 19.2424 24.7736 18.9524 24.8883 18.6728C24.9474 18.9968 25.0502 19.3112 25.1938 19.6072C25.204 19.6375 25.2223 19.6645 25.2468 19.685C25.2712 19.7055 25.3008 19.7188 25.3323 19.7234C25.3626 19.7234 25.3924 19.715 25.4182 19.6989C25.4441 19.6829 25.465 19.66 25.4786 19.6326C25.6723 19.3536 25.7913 19.0289 25.8239 18.6899C25.9192 18.8957 25.9989 19.1071 26.0737 19.3121L26.151 19.5244L26.4177 19.1107C26.5043 19.0232 26.6038 18.9497 26.7125 18.8925C26.7593 18.9007 26.8074 18.894 26.8501 18.8732C26.8557 18.8707 26.8614 18.8684 26.8671 18.8665C26.9101 18.8536 26.9497 18.8431 26.9875 18.8349C26.9047 18.9775 26.8452 19.1325 26.8112 19.2941C26.7665 19.4856 26.7714 19.6854 26.8256 19.8744C26.8336 19.9093 26.8487 19.9421 26.87 19.9707C26.8913 19.9994 26.9183 20.0232 26.9493 20.0407C26.9829 20.0558 27.0193 20.0636 27.056 20.0638C27.0928 20.0639 27.1292 20.0563 27.163 20.0415C27.2251 20.0187 27.2822 19.9839 27.3311 19.939C27.4697 19.8151 27.5698 19.6533 27.6192 19.4733C27.6703 19.2977 27.701 19.1168 27.7107 18.9341L27.7188 18.9613C27.7448 19.0482 27.7708 19.1352 27.7945 19.2227C27.8875 19.5676 27.9695 19.9733 27.8829 20.3843C27.832 20.434 27.7942 20.4957 27.7729 20.5638C27.7641 20.5892 27.753 20.6137 27.7395 20.637C27.706 20.6858 27.6878 20.7436 27.6872 20.803C27.6867 20.8624 27.7038 20.9205 27.7365 20.97C27.929 21.2973 27.9259 21.6599 27.8974 21.9714C27.8868 22.0819 27.8697 22.1917 27.8464 22.3002C27.829 22.2292 27.8093 22.1586 27.7871 22.0887C27.745 21.9582 27.6813 21.8358 27.5987 21.7266L27.5909 21.7161C27.5511 21.6613 27.4573 21.5332 27.3098 21.5876C27.1769 21.6367 27.188 21.777 27.1927 21.8369L27.1944 21.8617C27.1999 22.1876 27.1539 22.5122 27.058 22.8235C27.0264 22.9358 26.9902 23.0465 26.9515 23.1557C26.9219 22.985 26.8758 22.8176 26.8139 22.656C26.6349 22.1979 26.3569 21.7858 26 21.4496C25.9911 21.4404 25.9827 21.4307 25.9748 21.4206C25.9373 21.3752 25.8376 21.255 25.7002 21.3269C25.5787 21.3908 25.6074 21.5284 25.6196 21.5872C25.6228 21.6004 25.6251 21.6138 25.6268 21.6273C25.6503 21.8296 25.6495 22.0341 25.6243 22.2362C25.5549 22.6494 25.4027 23.0441 25.177 23.3961C25.1111 22.9113 24.9742 22.439 24.7709 21.9946C24.7592 21.9625 24.7408 21.9333 24.7168 21.909C24.6929 21.8847 24.664 21.866 24.6322 21.854C24.598 21.8439 24.562 21.8413 24.5267 21.8465C24.4914 21.8517 24.4576 21.8646 24.4276 21.8841C24.3166 21.949 24.2253 22.0434 24.1636 22.1569C24.0694 22.3252 24.0028 22.5078 23.9664 22.6975C23.9031 23.0132 23.8612 23.3328 23.8411 23.6543C23.8393 23.6789 23.8376 23.7036 23.8362 23.7283C23.8654 23.8647 23.8999 24.0005 23.9383 24.1359C23.9387 23.9783 23.9415 23.8206 23.953 23.6625C23.9729 23.3462 24.0141 23.0317 24.0764 22.721C24.1102 22.5431 24.1724 22.372 24.2605 22.2142C24.3122 22.1183 24.3888 22.0384 24.4822 21.983C24.5674 21.9352 24.6294 21.9505 24.6679 22.0399C24.8795 22.4997 25.0167 22.9907 25.0743 23.4942C25.0789 23.582 25.0726 23.67 25.0555 23.7561C25.0807 23.7444 25.1012 23.7244 25.1136 23.6994C25.4174 23.2596 25.653 22.7891 25.7352 22.2536C25.762 22.0424 25.7631 21.8287 25.7387 21.6172C25.7328 21.5517 25.6906 21.4596 25.7521 21.4272C25.8259 21.3885 25.873 21.4827 25.9215 21.5305C26.2662 21.8555 26.5351 22.2535 26.7088 22.6958C26.849 23.0724 26.9205 23.4598 26.8061 23.839C26.9434 23.5175 27.0635 23.1888 27.166 22.8544C27.265 22.5317 27.3124 22.1952 27.3067 21.8574C27.3045 21.7996 27.2855 21.7171 27.3485 21.6939C27.4218 21.6669 27.4683 21.7397 27.5087 21.7943C27.5836 21.8935 27.6416 22.0046 27.6802 22.123C27.7543 22.3561 27.8002 22.5972 27.8169 22.8413C27.8181 22.8502 27.8125 22.8603 27.8197 22.8691C27.8172 22.8581 27.817 22.8467 27.8194 22.8357C27.9117 22.5584 27.9753 22.2723 28.0092 21.9818C28.0433 21.6097 28.029 21.2454 27.833 20.9123C27.8112 20.8811 27.7996 20.8438 27.7996 20.8056C27.7997 20.7674 27.8115 20.7302 27.8335 20.699C27.8847 20.6202 27.89 20.5144 27.9748 20.4553C27.9771 20.4561 27.9792 20.4571 27.9814 20.458C28.0856 20.0282 28.015 19.6091 27.9028 19.1931C27.8675 19.0622 27.827 18.9327 27.7889 18.8026L27.7881 18.8006C27.7414 18.8017 27.7301 18.7604 27.7177 18.7275C27.6811 18.6303 27.6396 18.5349 27.6102 18.4453C27.6079 18.7734 27.6114 19.1116 27.5118 19.4403C27.4683 19.5998 27.38 19.7433 27.2574 19.8535C27.2192 19.8888 27.1746 19.9163 27.1261 19.9346C27.0226 19.9708 26.9653 19.947 26.9329 19.841C26.8843 19.6705 26.8803 19.4902 26.9211 19.3176C26.9533 19.1642 27.0103 19.0172 27.09 18.8824C27.1271 18.8242 27.1576 18.762 27.1809 18.6969C27.0634 18.7015 26.947 18.7221 26.835 18.7581C26.7952 18.77 26.7558 18.8016 26.7112 18.7702H26.7112C26.5688 18.8338 26.4398 18.9244 26.3313 19.037C26.2844 19.1098 26.2374 19.1826 26.1791 19.2731C26.0516 18.8853 25.8788 18.514 25.6645 18.1671C25.6934 18.3251 25.71 18.4851 25.7142 18.6457C25.6884 18.9783 25.5744 19.2979 25.3843 19.5711C25.3358 19.6465 25.3151 19.5986 25.2916 19.5513C25.133 19.2195 25.0251 18.8655 24.9715 18.5012C24.9615 18.4402 24.9514 18.3792 24.9383 18.2995C24.7418 18.6829 24.5998 19.0923 24.5164 19.5156C24.4676 19.3974 24.432 19.3085 24.3944 19.2203C24.2935 18.9979 24.1696 18.7867 24.0249 18.5903C24.0024 18.5581 23.97 18.5309 23.9664 18.4876V18.4876C23.868 18.3978 23.8047 18.2728 23.672 18.1885C23.7751 18.5945 23.661 18.9536 23.522 19.3273C23.4103 19.132 23.3266 18.9218 23.2734 18.7029C23.1853 18.5724 23.2009 18.4175 23.1808 18.2728C23.1622 18.175 23.1678 18.0741 23.1969 17.9789ZM23.9424 24.5867C23.9415 24.5395 23.9408 24.4924 23.94 24.4453L23.9132 24.448C23.9295 24.4926 23.9394 24.5393 23.9424 24.5867Z" fill="white"/>
<path d="M22.2499 18.2017C22.298 18.1915 22.3061 18.1484 22.3189 18.112C22.3759 17.95 22.4388 17.7902 22.5049 17.6155C22.4904 17.8944 22.4975 18.174 22.5261 18.4517C22.5461 18.7116 22.5907 18.9689 22.6594 19.2202C22.6717 19.2644 22.6828 19.3279 22.7391 19.3247C22.7867 19.322 22.7946 19.2632 22.8026 19.2197C22.8931 18.7842 23.0254 18.3586 23.1977 17.9488C23.1985 17.9442 23.1993 17.9396 23.2002 17.935C23.1967 17.9224 23.1887 17.9115 23.1778 17.9044L23.1778 17.9044L23.1778 17.9044C22.9877 18.3592 22.8394 18.8307 22.7348 19.3129C22.5446 18.7283 22.5257 18.1263 22.5067 17.5181C22.4209 17.7445 22.3352 17.9709 22.2494 18.1973L22.2486 18.2002L22.2499 18.2017ZM22.0527 20.1059L22.0139 20.0971C22.0226 20.1362 22.0318 20.175 22.0416 20.2136C22.0467 20.1889 22.0528 20.1645 22.0587 20.14C22.0584 20.1383 22.0579 20.1367 22.0576 20.1351C22.0556 20.1259 22.0542 20.116 22.0527 20.1059ZM22.7968 22.4446C22.7138 22.1236 22.6196 21.76 22.6925 21.3739C22.6942 21.3647 22.6962 21.3543 22.6554 21.3238C22.5045 21.2062 22.3862 21.0514 22.3119 20.8743C22.2101 20.6597 22.1305 20.4351 22.0743 20.204C22.0695 20.2311 22.064 20.258 22.0589 20.285C22.1254 20.5293 22.2167 20.766 22.3313 20.9914C22.4028 21.1396 22.5125 21.2657 22.6488 21.3566C22.6588 21.3632 22.6629 21.3676 22.6635 21.3677C22.6633 21.376 22.6619 21.3843 22.6593 21.3922C22.6214 21.5481 22.6155 21.7101 22.642 21.8683C22.6937 22.2422 22.7913 22.6082 22.9326 22.9579C22.969 23.0498 23.008 23.1408 23.0471 23.2316L23.3479 23.9426L23.3449 23.8841L23.366 23.9363L23.0477 23.1513C22.9484 22.9217 22.8645 22.6856 22.7968 22.4446ZM23.9624 24.4431L24.0283 24.4365L24.0281 24.4356L23.9624 24.4424V24.4431ZM23.7999 24.4593L23.7723 24.371C23.5576 23.6902 23.4573 22.9781 23.4755 22.264C23.3523 22.5512 23.2906 22.8613 23.2945 23.1742L23.366 23.9363L23.325 23.4988L23.315 23.3043C23.2993 23.0234 23.3395 22.7423 23.4333 22.4774C23.4403 23.1221 23.5453 23.762 23.7448 24.3747L23.773 24.462L23.8901 24.4503L23.89 24.4499L23.7999 24.4593ZM23.836 23.7308L23.8362 23.7283C23.8207 23.6557 23.8061 23.5831 23.7932 23.5102C23.8062 23.5839 23.8203 23.6574 23.836 23.7308ZM23.7114 21.4926L23.5037 21.8313C23.5024 21.8319 23.501 21.833 23.4997 21.8336C23.521 21.8233 23.5442 21.8178 23.5678 21.8174C23.5881 21.8173 23.6082 21.8218 23.6266 21.8303C23.6552 21.8447 23.6783 21.8681 23.6924 21.8969C23.6893 21.8898 23.6857 21.883 23.6817 21.8764L23.7114 21.4926Z" fill="white"/>
<path d="M22.1055 20.0018C22.076 19.9655 22.0579 19.9212 22.0534 19.8745L21.9821 19.8588L21.9953 20.0129L21.9973 20.0267C22.0021 20.0505 22.0088 20.0735 22.014 20.0971L22.0528 20.1059C22.0542 20.116 22.0556 20.1259 22.0576 20.1351C22.058 20.1367 22.0585 20.1383 22.0588 20.14C22.0698 20.0927 22.0835 20.0462 22.1 20.0007C22.1019 20.0009 22.1036 20.0014 22.1055 20.0018ZM23.3878 22.5062C23.4115 22.4235 23.4408 22.3426 23.4756 22.264C23.4573 22.9781 23.5577 23.6902 23.7724 24.371L23.8 24.4593L23.89 24.4499C23.8775 24.4131 23.8635 24.3765 23.8516 24.3397C23.5993 23.57 23.5014 22.7574 23.5636 21.9492C23.3049 22.3536 23.1788 22.8296 23.2029 23.3101C23.1474 23.1787 23.0895 23.0484 23.0369 22.9159C22.8988 22.5751 22.8036 22.2181 22.7534 21.8535C22.7287 21.7106 22.7335 21.5642 22.7673 21.4233C22.7797 21.394 22.7807 21.3611 22.77 21.3311C22.7594 21.3012 22.7379 21.2763 22.7099 21.2616C22.5902 21.1812 22.4941 21.07 22.4313 20.9396C22.2812 20.6443 22.1721 20.3295 22.1073 20.0041L22.1073 20.0041C22.0972 20.071 22.0862 20.1377 22.0743 20.204C22.1306 20.4351 22.2102 20.6597 22.312 20.8743C22.3863 21.0514 22.5046 21.2062 22.6555 21.3238C22.6963 21.3543 22.6943 21.3647 22.6926 21.3739C22.6196 21.76 22.7138 22.1236 22.7969 22.4446C22.8646 22.6856 22.9484 22.9217 23.0478 23.1513L23.3661 23.9363L23.2946 23.1742C23.2854 22.9477 23.317 22.7214 23.3878 22.5062ZM23.9651 24.2283C23.9646 24.2617 23.9639 24.295 23.9635 24.3284C23.9631 24.3664 23.9628 24.4044 23.9624 24.4424L24.0282 24.4356L23.9867 24.3029C23.9789 24.2781 23.9725 24.2531 23.9651 24.2283Z" fill="white"/>
<path d="M23.836 23.7308C23.8203 23.6574 23.8062 23.5839 23.7932 23.5102C23.7896 23.4899 23.7866 23.4696 23.7832 23.4493C23.7728 23.3872 23.7634 23.3251 23.7549 23.2629C23.7514 23.2373 23.748 23.2118 23.7448 23.1862C23.7365 23.1182 23.7292 23.0502 23.723 22.982C23.7218 22.9683 23.7201 22.9545 23.719 22.9407C23.7123 22.8601 23.7075 22.7793 23.704 22.6986C23.703 22.6756 23.7025 22.6526 23.7018 22.6296C23.6998 22.5683 23.6988 22.507 23.6987 22.4456C23.6986 22.4214 23.6985 22.3972 23.6987 22.3729C23.6995 22.2913 23.7014 22.2096 23.7055 22.128C23.7062 22.1134 23.7079 22.0991 23.7094 22.0846C23.7151 22.0456 23.7164 22.0061 23.7134 21.9668C23.7116 21.9482 23.7073 21.9299 23.7006 21.9124C23.6982 21.9071 23.6955 21.9019 23.6925 21.8969C23.6783 21.868 23.6552 21.8447 23.6266 21.8303C23.6082 21.8217 23.5881 21.8173 23.5678 21.8174C23.5442 21.8178 23.521 21.8233 23.4997 21.8335C23.4876 21.839 23.4759 21.8456 23.465 21.8532C23.4186 21.8886 23.3819 21.9354 23.3583 21.989C23.2805 22.1338 23.218 22.2863 23.1717 22.4441C23.1495 22.5225 23.1276 22.6057 23.1095 22.6919C23.0737 22.5923 23.0411 22.491 23.0142 22.3873C22.9371 22.0897 22.8497 21.7523 22.9132 21.4163C22.9224 21.3633 22.9155 21.3088 22.8934 21.2599C22.8713 21.2109 22.835 21.1698 22.7893 21.1421C22.6688 21.0466 22.5746 20.9216 22.5157 20.779C22.41 20.5588 22.33 20.3271 22.2774 20.0884C22.2763 20.0832 22.2756 20.0777 22.2749 20.0722C22.2742 20.0664 22.273 20.0584 22.2714 20.0495C22.2709 20.0471 22.2705 20.0451 22.2699 20.0425C22.2679 20.0329 22.2654 20.0234 22.2624 20.014C22.2618 20.0121 22.2614 20.0105 22.2607 20.0085C22.2564 19.9964 22.251 19.9848 22.2446 19.9737C22.243 19.9709 22.2411 19.9683 22.2393 19.9656C22.2329 19.9558 22.2256 19.9467 22.2173 19.9385C22.1939 19.9148 22.1641 19.8986 22.1317 19.8917L22.0945 19.8835C22.0987 19.9231 22.1031 19.9626 22.107 20.0021C22.165 20.0153 22.159 20.0712 22.1674 20.1118C22.2221 20.3588 22.3048 20.5986 22.4137 20.8266C22.4806 20.9863 22.5868 21.1262 22.7223 21.2329C22.7506 21.2484 22.7736 21.2722 22.788 21.3012C22.8024 21.3302 22.8076 21.363 22.8028 21.3951C22.7365 21.7456 22.8187 22.081 22.9055 22.416C22.9809 22.6781 23.0735 22.935 23.1827 23.1848C23.1717 22.9442 23.2046 22.7037 23.2797 22.4751C23.3239 22.3249 23.3835 22.1796 23.4576 22.0418C23.4731 22.0046 23.4975 21.9718 23.5286 21.9464C23.5692 21.9181 23.5965 21.927 23.6017 21.9782C23.6025 22.0264 23.5997 22.0745 23.5933 22.1222C23.5562 22.8718 23.6531 23.6219 23.8794 24.3369C23.8989 24.3348 23.9185 24.3329 23.9381 24.331C23.9373 24.2659 23.9381 24.2009 23.9383 24.1359C23.8999 24.0005 23.8654 23.8647 23.8362 23.7283L23.836 23.7308ZM23.9132 24.448L23.94 24.4453V24.4448L23.9131 24.4475L23.9132 24.448Z" fill="white"/>
<path d="M23.8794 24.3368C23.8896 24.3695 23.8986 24.4023 23.9094 24.4348C23.9107 24.439 23.9117 24.4433 23.9131 24.4475L23.94 24.4447C23.9394 24.4068 23.9386 24.3689 23.9381 24.331C23.9185 24.3329 23.8989 24.3348 23.8794 24.3368ZM23.5933 22.1222C23.5997 22.0745 23.6025 22.0264 23.6017 21.9782C23.5965 21.927 23.5692 21.9181 23.5286 21.9464C23.4975 21.9718 23.4731 22.0046 23.4576 22.0418C23.3836 22.1796 23.324 22.3248 23.2798 22.4751C23.2046 22.7037 23.1718 22.9442 23.1827 23.1848C23.0735 22.935 22.9809 22.6781 22.9055 22.4159C22.8187 22.081 22.7366 21.7456 22.8029 21.3951C22.8076 21.363 22.8024 21.3302 22.788 21.3012C22.7736 21.2722 22.7507 21.2483 22.7224 21.2329C22.5869 21.1261 22.4806 20.9863 22.4138 20.8266C22.3048 20.5986 22.2221 20.3588 22.1674 20.1118C22.159 20.0712 22.165 20.0153 22.1071 20.0021L22.1073 20.0041L22.1072 20.0041L22.1073 20.0041C22.1721 20.3294 22.2811 20.6442 22.4312 20.9396C22.494 21.07 22.5902 21.1812 22.7099 21.2616C22.7379 21.2763 22.7594 21.3011 22.77 21.3311C22.7806 21.3611 22.7797 21.394 22.7673 21.4233C22.7334 21.5642 22.7287 21.7106 22.7534 21.8534C22.8036 22.2181 22.8988 22.575 23.0369 22.9159C23.0895 23.0484 23.1474 23.1787 23.2029 23.31C23.1787 22.8296 23.3049 22.3536 23.5635 21.9492C23.5013 22.7574 23.5992 23.5699 23.8516 24.3396C23.8608 24.3386 23.8702 24.3378 23.8794 24.3368C23.6531 23.6219 23.5562 22.8717 23.5933 22.1222ZM26.7727 23.9336C26.7865 23.9047 26.7999 23.8757 26.8134 23.8468L26.7861 23.8371C26.7814 23.8693 26.7765 23.9014 26.7727 23.9336Z" fill="white"/>
<path d="M27.3389 21.7029C27.4028 21.7217 27.4568 21.7651 27.4891 21.8238C27.7162 22.1356 27.7381 22.5077 27.7939 22.8699L27.8407 22.8711V22.8711H27.8407C27.9377 22.5889 28.0045 22.2971 28.04 22.0006C28.0801 21.6032 28.0623 21.2194 27.8475 20.8688C27.8347 20.8515 27.8273 20.8307 27.8264 20.8092C27.8254 20.7876 27.8309 20.7663 27.8422 20.7479C27.8907 20.6525 27.9352 20.555 27.9814 20.4583L27.9815 20.458C27.9793 20.4571 27.9772 20.4561 27.9748 20.4553C27.8901 20.5144 27.8848 20.6203 27.8335 20.6991C27.8116 20.7302 27.7998 20.7674 27.7997 20.8056C27.7996 20.8438 27.8113 20.8811 27.8331 20.9124C28.0291 21.2454 28.0433 21.6097 28.0093 21.9818C27.9754 22.2723 27.9117 22.5584 27.8194 22.8357C27.8171 22.8467 27.8172 22.8581 27.8198 22.8691C27.8126 22.8603 27.8182 22.8503 27.8169 22.8414C27.8003 22.5973 27.7544 22.3561 27.6803 22.1231C27.6417 22.0046 27.5837 21.8935 27.5087 21.7943C27.4684 21.7397 27.4219 21.6669 27.3485 21.694C27.2856 21.7171 27.3045 21.7997 27.3067 21.8574C27.3125 22.1952 27.265 22.5317 27.1661 22.8544C27.0636 23.1888 26.9435 23.5175 26.8062 23.839C26.9206 23.4598 26.8491 23.0725 26.7089 22.6958C26.5351 22.2535 26.2662 21.8556 25.9216 21.5305C25.8731 21.4827 25.826 21.3885 25.7522 21.4273C25.6907 21.4596 25.7329 21.5518 25.7387 21.6172C25.7632 21.8287 25.7621 22.0424 25.7353 22.2536C25.6531 22.7891 25.4174 23.2597 25.1137 23.6994C25.1012 23.7244 25.0807 23.7444 25.0556 23.7562C25.0727 23.67 25.079 23.582 25.0743 23.4942C25.0168 22.9907 24.8796 22.4997 24.668 22.0399C24.6295 21.9506 24.5675 21.9352 24.4822 21.983C24.3889 22.0384 24.3123 22.1183 24.2606 22.2142C24.1724 22.372 24.1103 22.5432 24.0764 22.721C24.0142 23.0317 23.973 23.3462 23.9531 23.6625C23.9415 23.8206 23.9388 23.9783 23.9384 24.1359C23.9471 24.1667 23.9559 24.1975 23.9651 24.2283C23.9656 23.922 23.9825 23.6159 24.0158 23.3114C24.0412 22.9885 24.1103 22.6707 24.2211 22.3667C24.2707 22.2256 24.3624 22.1035 24.4836 22.0171C24.5597 21.967 24.6107 21.9609 24.6446 22.0634C24.6772 22.162 24.7256 22.2553 24.7594 22.3536C24.9178 22.8143 25.0887 23.2731 25.0186 23.7765C25.0136 23.7902 25.0136 23.8052 25.0184 23.819C25.0233 23.8327 25.0328 23.8443 25.0453 23.8517C25.5705 23.1309 25.9202 22.3622 25.7471 21.4332C25.7683 21.4378 25.7779 21.437 25.7826 21.4414C26.1816 21.7951 26.4924 22.2385 26.6899 22.7356C26.7727 22.9523 26.8195 23.1813 26.8283 23.4134C26.8272 23.5557 26.8131 23.6975 26.7862 23.8372L26.8135 23.8469C27.1293 23.1706 27.3867 22.4785 27.3389 21.7029Z" fill="white"/>
<path d="M23.9635 24.3284C23.9639 24.295 23.9646 24.2616 23.9651 24.2283C23.9558 24.1975 23.947 24.1667 23.9383 24.1359C23.9381 24.2009 23.9373 24.2659 23.9381 24.331C23.9466 24.3301 23.955 24.3292 23.9635 24.3284ZM23.9424 24.5867C23.9394 24.5393 23.9296 24.4926 23.9132 24.448L23.8902 24.4503C23.913 24.5176 23.9352 24.585 23.9604 24.6519C23.9612 24.5823 23.9619 24.5127 23.9624 24.4431L23.9401 24.4453C23.9408 24.4924 23.9415 24.5395 23.9424 24.5867ZM23.9131 24.4475L23.89 24.4499L23.8902 24.4503L23.9132 24.448L23.9131 24.4475Z" fill="white"/>
<path d="M23.94 24.4448V24.4453L23.9624 24.4431V24.4424L23.94 24.4448ZM23.8794 24.3369C23.8702 24.3378 23.8608 24.3387 23.8516 24.3397C23.8635 24.3765 23.8775 24.4131 23.89 24.4499L23.9131 24.4475C23.9117 24.4433 23.9107 24.439 23.9093 24.4348C23.8986 24.4023 23.8896 24.3695 23.8794 24.3369Z" fill="white"/>
<path d="M23.94 24.4447L23.9624 24.4424C23.9627 24.4044 23.9631 24.3664 23.9635 24.3284C23.955 24.3292 23.9466 24.3301 23.9381 24.331C23.9386 24.3689 23.9394 24.4068 23.94 24.4447ZM26.835 18.7581C26.947 18.7221 27.0634 18.7015 27.1809 18.6969C27.1576 18.762 27.1271 18.8242 27.09 18.8824C27.0104 19.0172 26.9533 19.1642 26.9211 19.3176C26.8803 19.4902 26.8843 19.6705 26.9329 19.841C26.9653 19.947 27.0226 19.9708 27.1261 19.9346C27.1746 19.9163 27.2192 19.8888 27.2574 19.8535C27.38 19.7433 27.4683 19.5998 27.5118 19.4403C27.6114 19.1116 27.6079 18.7734 27.6102 18.4453C27.6396 18.5349 27.6811 18.6303 27.7177 18.7275C27.7301 18.7604 27.7414 18.8017 27.7881 18.8006C27.7241 18.6454 27.6601 18.4902 27.5961 18.335C27.5751 18.4718 27.5829 18.6035 27.5733 18.734C27.5563 18.9679 27.5594 19.2046 27.481 19.4313C27.4112 19.6334 27.317 19.8118 27.1115 19.9072C27.0278 19.9461 26.9824 19.9195 26.9611 19.8367C26.921 19.6772 26.9165 19.5107 26.9479 19.3492C26.9941 19.1377 27.0796 18.9369 27.1998 18.7573C27.2171 18.7295 27.2375 18.6945 27.2228 18.6683C27.206 18.6386 27.1639 18.652 27.1347 18.6572C26.9893 18.6761 26.8469 18.7141 26.7112 18.7702C26.7558 18.8016 26.7952 18.77 26.835 18.7581ZM24.0744 18.4336L24.0782 18.4778L24.0783 18.4777C24.0841 18.4831 24.0893 18.4889 24.0939 18.4953C24.1018 18.5051 24.1096 18.5149 24.1167 18.5251C24.2606 18.7214 24.3849 18.9317 24.4876 19.1527C24.572 18.839 24.6897 18.5354 24.8387 18.2471L24.9921 17.9508L24.9264 17.9507V17.9507C24.5836 17.9779 24.2651 18.1399 24.0398 18.4017C24.0405 18.4023 24.0411 18.4031 24.0418 18.4038L24.0744 18.4336ZM24.9951 17.9508L25.0823 18.4825C25.1297 18.8029 25.2196 19.1154 25.3496 19.4117C25.496 19.1794 25.5827 18.9141 25.602 18.6397C25.6036 18.5418 25.5949 18.444 25.5761 18.348C25.5672 18.2916 25.5583 18.2353 25.5527 18.1784L25.5399 18.0483C25.4109 17.9961 25.275 17.9633 25.1366 17.9509V17.9509C25.0894 17.9509 25.0423 17.9508 24.9951 17.9508Z" fill="white"/>
<path d="M23.9663 18.4876C23.9937 18.504 24.0176 18.5258 24.0366 18.5516C24.2362 18.8186 24.3949 19.1142 24.5074 19.4285C24.5809 19.07 24.6968 18.7216 24.8528 18.3909C24.8538 18.389 24.8546 18.3869 24.8552 18.3849C24.8557 18.3841 24.8565 18.3829 24.8582 18.3802C24.8782 18.3468 24.89 18.2937 24.9341 18.2975C24.9819 18.3017 24.9796 18.3575 24.9857 18.3942C25.0209 18.6282 25.0727 18.8593 25.1407 19.0858C25.1819 19.2241 25.2349 19.3586 25.2992 19.4877C25.3328 19.5527 25.3641 19.5498 25.3991 19.491C25.6135 19.1304 25.7435 18.7514 25.6563 18.3227C25.646 18.2718 25.6062 18.2177 25.6534 18.1643C25.6572 18.1646 25.6608 18.1651 25.6643 18.1656L25.6615 18.1399H25.6615L25.6615 18.1399C25.6358 18.0994 25.5973 18.0688 25.5523 18.0529C25.5482 18.0512 25.544 18.0499 25.5398 18.0483L25.5527 18.1784C25.5583 18.2353 25.5672 18.2917 25.5761 18.348C25.5949 18.4441 25.6036 18.5418 25.6019 18.6397C25.5827 18.9141 25.4959 19.1794 25.3496 19.4117C25.2195 19.1154 25.1296 18.8029 25.0823 18.4825L24.995 17.9508H24.9921L24.8387 18.2471C24.6896 18.5354 24.5719 18.839 24.4876 19.1527C24.3848 18.9317 24.2606 18.7215 24.1167 18.5251C24.1095 18.515 24.1017 18.5051 24.0939 18.4953C24.0893 18.489 24.084 18.4831 24.0783 18.4778L24.0782 18.4778L24.0743 18.4336L24.0418 18.4038C24.0411 18.4032 24.0404 18.4024 24.0398 18.4017C24.0148 18.4295 23.99 18.4575 23.9663 18.4876L23.9663 18.4876Z" fill="white"/>
<path d="M24.3944 19.2203C24.4319 19.3084 24.4676 19.3974 24.5163 19.5156C24.5998 19.0923 24.7418 18.6829 24.9382 18.2994C24.9514 18.3792 24.9614 18.4401 24.9715 18.5011C25.025 18.8655 25.133 19.2195 25.2916 19.5513C25.3151 19.5986 25.3357 19.6465 25.3843 19.571C25.5744 19.2978 25.6883 18.9783 25.7142 18.6457C25.7099 18.4851 25.6933 18.3251 25.6645 18.1671L25.6643 18.1656C25.6608 18.165 25.6572 18.1645 25.6534 18.1643C25.6062 18.2176 25.646 18.2718 25.6563 18.3227C25.7435 18.7514 25.6135 19.1304 25.3991 19.491C25.3641 19.5498 25.3328 19.5526 25.2992 19.4876C25.2349 19.3585 25.1819 19.2241 25.1407 19.0858C25.0727 18.8593 25.0209 18.6281 24.9857 18.3942C24.9796 18.3574 24.9819 18.3016 24.9341 18.2975C24.89 18.2937 24.8782 18.3468 24.8582 18.3801C24.8565 18.3828 24.8557 18.3841 24.8552 18.3848C24.8546 18.3869 24.8538 18.3889 24.8528 18.3909C24.6968 18.7215 24.5809 19.0699 24.5074 19.4285C24.3949 19.1141 24.2362 18.8185 24.0366 18.5516C24.0176 18.5258 23.9937 18.504 23.9663 18.4876C23.97 18.5309 24.0023 18.5581 24.0249 18.5902C24.1696 18.7867 24.2934 18.9978 24.3944 19.2203ZM25.1331 16.4507L25.1332 16.4506C25.1848 16.4308 25.2367 16.4119 25.2878 16.3911C25.3886 16.3485 25.4762 16.2794 25.5414 16.1911C25.6067 16.1028 25.6472 15.9984 25.6588 15.8889C25.6704 15.7794 25.6526 15.6688 25.6073 15.5686C25.562 15.4684 25.4908 15.3823 25.4012 15.3192C25.3116 15.2562 25.2069 15.2185 25.0979 15.2101C24.9889 15.2018 24.8797 15.2231 24.7817 15.2717C24.6837 15.3204 24.6004 15.3947 24.5406 15.4868C24.4807 15.579 24.4466 15.6856 24.4416 15.7956C24.4331 16.1102 24.5835 16.3083 24.9276 16.4359C24.9964 16.4254 25.0665 16.4304 25.1331 16.4507Z" fill="white"/>
<path d="M25.1366 17.9509L25.1333 16.4507L25.1331 16.4507C25.101 16.468 25.0646 16.4758 25.0283 16.4732C24.9919 16.4706 24.9571 16.4577 24.9277 16.4359L24.9264 17.9507C24.9577 17.9302 24.9942 17.9193 25.0315 17.9193C25.0688 17.9194 25.1054 17.9303 25.1366 17.9509Z" fill="white"/>
<path d="M24.9921 17.9508L24.9944 17.9464L24.9951 17.9508C25.0423 17.9508 25.0894 17.9509 25.1366 17.9509V17.9509C25.1054 17.9303 25.0688 17.9194 25.0315 17.9194C24.9942 17.9193 24.9577 17.9302 24.9264 17.9507V17.9507L24.9921 17.9508Z" fill="white"/>
<path d="M24.9922 17.9508H24.9951L24.9944 17.9464L24.9922 17.9508ZM25.1332 16.4507C25.0666 16.4304 24.9965 16.4254 24.9277 16.4359C24.9571 16.4577 24.992 16.4706 25.0283 16.4732C25.0647 16.4758 25.101 16.468 25.1332 16.4507ZM26.2553 18.9537C26.2682 18.9418 26.2813 18.9305 26.2942 18.9187C26.2268 18.6651 26.0853 18.4378 25.8882 18.2661C25.8646 18.245 25.8415 18.2221 25.8167 18.2016C25.9714 18.4628 26.1018 18.7379 26.2063 19.0233L26.2553 18.9537Z" fill="white"/>
<path d="M25.6691 18.1574C25.6688 18.1604 25.6677 18.1633 25.666 18.1658C25.741 18.1774 25.757 18.2494 25.7841 18.3032C25.9418 18.588 26.0732 18.8868 26.1766 19.1958C26.2455 19.1457 26.2622 19.0631 26.3313 19.0371C26.3074 19.0165 26.3113 18.9863 26.3053 18.9598C26.3021 18.9458 26.2978 18.9325 26.2941 18.9187C26.2812 18.9305 26.2681 18.9418 26.2553 18.9537L26.2062 19.0233C26.1018 18.7379 25.9714 18.4628 25.8167 18.2016C25.7748 18.1617 25.7193 18.1396 25.6616 18.1399C25.6643 18.1419 25.6665 18.1445 25.6678 18.1476C25.6691 18.1507 25.6695 18.1541 25.6691 18.1574Z" fill="white"/>
<path d="M26.1791 19.2731C26.2298 19.1945 26.2806 19.1158 26.3313 19.0371C26.2622 19.0631 26.2455 19.1457 26.1766 19.1958C26.0732 18.8868 25.9418 18.588 25.7841 18.3032C25.757 18.2494 25.741 18.1774 25.666 18.1658C25.6655 18.1663 25.6651 18.1671 25.6646 18.1671C25.8789 18.514 26.0516 18.8853 26.1791 19.2731Z" fill="white"/>
<path d="M25.6691 18.1577C25.6696 18.1543 25.6692 18.1509 25.6678 18.1477C25.6665 18.1446 25.6643 18.1419 25.6615 18.1399H25.6615L25.6643 18.1659L25.6659 18.1661C25.6677 18.1636 25.6688 18.1607 25.6691 18.1577Z" fill="white"/>
<path d="M25.6659 18.1658L25.6643 18.1656L25.6645 18.1671C25.665 18.1671 25.6654 18.1663 25.6659 18.1658ZM23.2114 18.013C23.2065 18.2446 23.2272 18.476 23.2734 18.7029C23.2725 18.4289 23.2562 18.1552 23.2243 17.8831L23.2243 17.8831C23.2146 17.8927 23.2077 17.9048 23.2042 17.918C23.2318 17.9424 23.2118 17.9836 23.2114 18.013Z" fill="white"/>
<path d="M23.2243 17.8831C23.2088 17.8902 23.1933 17.8973 23.1778 17.9044C23.1875 17.9069 23.1965 17.9116 23.2042 17.918C23.2077 17.9048 23.2146 17.8927 23.2243 17.8831ZM23.2042 17.918C23.2026 17.9236 23.2013 17.9292 23.2002 17.935C23.2036 17.9496 23.2024 17.9649 23.1969 17.9789C23.1678 18.0741 23.1622 18.175 23.1808 18.2728C23.2009 18.4175 23.1853 18.5724 23.2734 18.7029C23.2273 18.476 23.2065 18.2446 23.2115 18.013C23.2119 17.9836 23.2318 17.9424 23.2042 17.918Z" fill="white"/>
<path d="M23.2002 17.935C23.2013 17.9292 23.2026 17.9236 23.2042 17.918C23.1965 17.9116 23.1875 17.9069 23.1778 17.9044L23.1778 17.9044C23.1887 17.9115 23.1967 17.9224 23.2002 17.935ZM21.9994 20.4191C21.9148 20.8448 21.7672 21.2553 21.5615 21.6369C21.4518 21.8283 21.3582 21.8392 21.1898 21.6986C20.9275 21.4762 20.6912 21.2244 20.4856 20.948C19.7577 19.9715 19.1436 18.9139 18.6552 17.7961C18.2381 16.8575 17.9199 15.8774 17.7058 14.8719C17.5951 14.3869 17.526 13.8932 17.4993 13.3963C17.4859 12.9741 17.5552 12.5533 17.7032 12.1581C17.9649 11.4308 18.4822 11.0191 19.2252 10.8946C19.4195 10.8562 19.6198 10.8603 19.8125 10.9066C20.0052 10.9529 20.1858 11.0403 20.3421 11.163C20.7017 11.4516 20.9913 11.8189 21.1889 12.2372C21.5428 12.9532 21.7932 13.7165 21.9324 14.5039C22.0623 15.2139 22.15 15.9311 22.195 16.6516C22.2083 16.8601 22.1987 17.0688 22.22 17.2762C22.2455 17.5196 22.2456 17.765 22.2204 18.0084L22.2201 18.0114L22.2314 18.0228C22.2386 18.0028 22.2469 17.982 22.2542 17.962C22.2591 17.7169 22.2625 17.4719 22.2531 17.2258C22.2322 16.6773 22.1923 16.1316 22.1286 15.5867C22.0631 14.9588 21.9493 14.3369 21.7882 13.7266C21.5853 12.9942 21.3264 12.2818 20.8763 11.6631C20.45 11.0772 19.9042 10.7133 19.1384 10.8742C18.5886 10.9897 18.1361 11.2632 17.8509 11.7639C17.6045 12.2059 17.4727 12.7033 17.4677 13.2102C17.4671 13.4903 17.4884 13.77 17.5314 14.0467C17.6374 14.8069 17.8107 15.5561 18.049 16.2852C18.4872 17.6394 19.0996 18.9298 19.8706 20.1236C20.239 20.702 20.6339 21.2585 21.1539 21.7132C21.3516 21.886 21.4646 21.8777 21.5898 21.6532C21.819 21.2259 21.9774 20.7637 22.0589 20.285C22.0525 20.2615 22.0476 20.2373 22.0416 20.2136C22.0272 20.282 22.0149 20.351 21.9994 20.4191Z" fill="white"/>
<path d="M22.22 18.0114C22.213 18.0751 22.1947 18.1432 22.2474 18.1989C22.2481 18.1984 22.2486 18.1978 22.2494 18.1973C22.2509 18.1188 22.2525 18.0404 22.2541 17.962C22.2468 17.982 22.2385 18.0028 22.2313 18.0228L22.22 18.0114ZM22.0587 20.14C22.0527 20.1644 22.0467 20.1889 22.0415 20.2136C22.0475 20.2373 22.0524 20.2615 22.0588 20.285C22.0639 20.258 22.0694 20.2311 22.0742 20.204C22.0692 20.1827 22.0631 20.1612 22.0587 20.14Z" fill="white"/>
<path d="M22.0999 20.0007C22.0835 20.0462 22.0697 20.0928 22.0588 20.14C22.0632 20.1612 22.0693 20.1827 22.0743 20.2041C22.0861 20.1377 22.0971 20.071 22.1073 20.0041L22.1054 20.0018C22.1036 20.0014 22.1019 20.001 22.0999 20.0007ZM22.1778 18.3433C22.0588 18.8037 22.0141 19.2804 22.0455 19.7552C22.0474 19.7942 22.0478 19.8349 22.0533 19.8745L22.0945 19.8836C22.0868 19.8123 22.0794 19.7409 22.075 19.6694C22.0523 19.1734 22.111 18.677 22.2487 18.2003L22.2475 18.1989C22.1971 18.2335 22.1921 18.2911 22.1778 18.3433Z" fill="white"/>
<path d="M22.1054 20.0018L22.1071 20.0021C22.1032 19.9626 22.0988 19.9231 22.0945 19.8835L22.0533 19.8745C22.0579 19.9211 22.076 19.9654 22.1054 20.0018ZM22.1071 20.0021L22.1054 20.0018L22.1073 20.0041L22.1073 20.0041L22.1071 20.0021ZM22.2487 18.2002L22.2495 18.1973C22.2487 18.1978 22.2482 18.1984 22.2475 18.1989L22.2487 18.2002ZM27.8287 18.6865C27.8324 18.6181 27.8289 18.5495 27.8182 18.4818C27.7895 18.2182 27.7941 17.9533 27.7813 17.6894C27.765 17.3534 27.8059 17.0171 27.8206 16.6808C27.8427 16.1752 27.9007 15.6737 27.9693 15.1733C28.0735 14.3194 28.2917 13.4837 28.6178 12.6887C28.8328 12.1844 29.0774 11.6986 29.487 11.3204C29.7229 11.1025 29.9867 10.9258 30.3112 10.8872C30.981 10.8075 31.8087 11.1101 32.197 11.8917C32.4766 12.4736 32.5776 13.1263 32.4872 13.7664C32.356 14.8679 32.0887 15.9485 31.6915 16.9832C31.2272 18.2156 30.6169 19.3869 29.8739 20.4719C29.5789 20.9011 29.2674 21.3172 28.8687 21.659C28.6436 21.852 28.5568 21.8385 28.4154 21.5721C28.2606 21.2668 28.1413 20.9445 28.0598 20.6117L28.0592 20.6143L28.0243 20.5994C28.1084 20.965 28.2415 21.3174 28.4198 21.6468C28.5465 21.871 28.6609 21.8848 28.8568 21.7168C29.1338 21.475 29.3836 21.2032 29.6017 20.9064C30.3902 19.8367 31.0429 18.672 31.5446 17.4391C31.9995 16.3508 32.3154 15.2087 32.4847 14.0402C32.573 13.5308 32.5623 13.0089 32.453 12.5036C32.3338 12.0104 32.1294 11.5572 31.7124 11.2482C31.2679 10.9188 30.7648 10.7598 30.2102 10.8754C29.7846 10.9641 29.4661 11.2378 29.2078 11.5715C28.733 12.1848 28.4581 12.8997 28.2513 13.6391C27.9321 14.7808 27.81 15.9526 27.7649 17.1345C27.7555 17.3788 27.7416 17.6226 27.7522 17.8671C27.7628 18.111 27.7831 18.3546 27.7882 18.5988C27.7997 18.6279 27.8113 18.6571 27.8225 18.6867L27.8287 18.6865Z" fill="white"/>
<path d="M27.797 18.8004C27.8144 18.7648 27.8252 18.7262 27.8287 18.6865L27.8225 18.6867C27.8114 18.6571 27.7997 18.6279 27.7882 18.5988C27.7896 18.666 27.7905 18.7332 27.7889 18.8006C27.7916 18.8007 27.7943 18.8006 27.797 18.8004ZM28.0598 20.6117C28.0591 20.6091 28.0583 20.6065 28.0576 20.6039C28.0434 20.5504 28.0456 20.4847 27.9816 20.4581L27.9814 20.4583C27.9906 20.4845 28.002 20.5101 28.0085 20.5369C28.0136 20.5578 28.0191 20.5785 28.0243 20.5994L28.0592 20.6143L28.0598 20.6117ZM27.8451 18.8758C27.8419 18.8601 27.8351 18.8454 27.8254 18.8327C27.8157 18.82 27.8032 18.8097 27.7889 18.8025C27.827 18.9327 27.8676 19.0622 27.9029 19.1931C28.0151 19.6091 28.0856 20.0282 27.9815 20.458L27.9816 20.4581C28.0724 20.3518 28.0587 20.2183 28.0638 20.0948C28.0813 19.673 27.9664 19.2734 27.8451 18.8758Z" fill="white"/>
<path d="M27.9814 20.4582L27.9815 20.458L27.9814 20.4579L27.9814 20.4582ZM27.7938 22.8699C27.7976 22.8888 27.78 22.9212 27.8113 22.9228C27.8366 22.9241 27.8385 22.8932 27.8407 22.871C27.8377 22.8744 27.8341 22.8771 27.83 22.8789C27.8259 22.8807 27.8215 22.8815 27.817 22.8814C27.8125 22.8813 27.8081 22.8802 27.8041 22.8782C27.8002 22.8762 27.7966 22.8734 27.7938 22.8699Z" fill="white"/>
<path d="M27.7938 22.8699C27.7966 22.8734 27.8001 22.8762 27.8041 22.8782C27.8081 22.8802 27.8125 22.8813 27.817 22.8814C27.8214 22.8815 27.8259 22.8807 27.8299 22.8789C27.834 22.8771 27.8377 22.8744 27.8406 22.871V22.871L27.7938 22.8699ZM26.1347 37.3693C26.1569 37.3795 26.1811 37.3846 26.2055 37.3841C26.2299 37.3837 26.2539 37.3778 26.2758 37.3669C26.745 37.1755 27.1949 36.9392 27.6194 36.6614C27.7953 36.5448 27.964 36.4174 28.1244 36.2801C28.3514 36.093 28.5109 35.8358 28.5784 35.5483L28.5829 35.5286C28.6169 35.3776 28.649 35.2351 28.5985 35.106C28.4854 34.818 28.0151 34.4979 27.6998 34.4944C27.6964 34.4944 27.6929 34.4943 27.6895 34.4943C27.2506 34.4943 26.9515 34.8 26.9264 35.2757C26.9023 35.7274 26.7687 36.1662 26.5375 36.5538L26.5264 36.5734C26.5195 36.5856 26.5126 36.5977 26.5051 36.6098C26.4217 36.7445 26.332 36.8773 26.2453 37.0057C26.1943 37.0811 26.1433 37.1565 26.0934 37.2326C26.0749 37.2548 26.0657 37.2834 26.0678 37.3123C26.0819 37.3393 26.1059 37.3598 26.1347 37.3693Z" fill="white"/>
<path d="M26.0877 37.4721C26.1241 37.4888 26.1636 37.4974 26.2036 37.4973C26.2436 37.4971 26.2831 37.4882 26.3193 37.4712C26.7948 37.2765 27.2509 37.0369 27.6816 36.7557C27.8612 36.6365 28.0335 36.5064 28.1975 36.3661C28.4431 36.1634 28.6154 35.8847 28.6879 35.5733C28.7256 35.4056 28.7688 35.2326 28.7028 35.0645C28.5709 34.7283 28.0603 34.3852 27.7011 34.3813C27.1993 34.3758 26.8428 34.7275 26.8141 35.2698C26.7916 35.7033 26.6634 36.1244 26.4409 36.4961C26.4304 36.5139 26.4208 36.5321 26.4099 36.5498C26.2795 36.7606 26.1357 36.9629 25.9997 37.1702C25.9156 37.2983 25.9494 37.4079 26.0877 37.4721ZM26.0934 37.2327C26.1433 37.1565 26.1943 37.0811 26.2453 37.0058C26.332 36.8774 26.4218 36.7445 26.5051 36.6098C26.5126 36.5978 26.5195 36.5856 26.5264 36.5734L26.5375 36.5539C26.7688 36.1662 26.9023 35.7274 26.9264 35.2758C26.9515 34.8 27.2506 34.4943 27.6895 34.4943C27.6929 34.4943 27.6965 34.4944 27.6999 34.4944C28.0151 34.498 28.4854 34.818 28.5985 35.106C28.649 35.2351 28.6169 35.3777 28.5829 35.5286L28.5784 35.5483C28.511 35.8359 28.3514 36.0931 28.1244 36.2801C27.964 36.4175 27.7953 36.5448 27.6195 36.6614C27.1949 36.9392 26.745 37.1755 26.2758 37.3669C26.2539 37.3779 26.2299 37.3837 26.2055 37.3842C26.1811 37.3846 26.1569 37.3795 26.1347 37.3694C26.1059 37.3598 26.0819 37.3394 26.0678 37.3123C26.0657 37.2834 26.0749 37.2548 26.0934 37.2327L26.0934 37.2327ZM22.4135 36.4026C22.4875 36.4624 22.5689 36.5228 22.6698 36.5929C23.0873 36.8669 23.5251 37.108 23.9793 37.3141C24.0435 37.3426 24.111 37.3631 24.1801 37.375C24.2077 37.3799 24.2361 37.3766 24.262 37.3656C24.2878 37.3546 24.3099 37.3363 24.3257 37.313C24.3306 37.3029 24.3299 37.2868 24.29 37.2352C24.2508 37.1816 24.2165 37.1244 24.1878 37.0645C24.1655 37.0163 24.1381 36.9706 24.1062 36.9283C23.9986 36.7994 23.9033 36.6607 23.8214 36.514C23.6068 36.1229 23.4863 35.6865 23.4695 35.24C23.4669 35.0413 23.3868 34.8516 23.2464 34.7121C23.1061 34.5725 22.9168 34.4943 22.7196 34.4943H22.7189C22.4815 34.4957 22.2538 34.5894 22.0834 34.7559C21.9228 34.8937 21.8192 35.087 21.7928 35.2978C21.7664 35.5087 21.8191 35.7219 21.9407 35.8955C22.0709 36.0885 22.2304 36.2597 22.4135 36.4026Z" fill="white"/>
<path d="M22.3433 36.4908C22.4286 36.5599 22.5168 36.624 22.6062 36.686C23.0282 36.9638 23.471 37.2079 23.9307 37.4161C24.0035 37.4489 24.08 37.4724 24.1585 37.486C24.206 37.495 24.2551 37.4902 24.3 37.4723C24.345 37.4543 24.384 37.424 24.4126 37.3847C24.4762 37.3063 24.4268 37.2277 24.3787 37.1656C24.3034 37.0683 24.266 36.9435 24.1921 36.8552C24.0889 36.7318 23.9976 36.599 23.9193 36.4584C23.7139 36.0821 23.5983 35.6628 23.5817 35.2337C23.578 35.0059 23.4855 34.7888 23.3242 34.6293C23.1629 34.4697 22.9458 34.3806 22.7198 34.3811C22.4539 34.3818 22.1987 34.4862 22.0076 34.6725C21.8277 34.8287 21.7117 35.0466 21.682 35.284C21.6523 35.5214 21.7111 35.7615 21.8469 35.9578C21.9836 36.1606 22.1511 36.3405 22.3433 36.4908ZM22.0834 34.7559C22.2539 34.5893 22.4815 34.4956 22.7189 34.4943H22.7197C22.9169 34.4942 23.1061 34.5725 23.2465 34.712C23.3868 34.8516 23.467 35.0412 23.4696 35.2399C23.4864 35.6865 23.6069 36.1228 23.8214 36.5139C23.9034 36.6607 23.9987 36.7994 24.1063 36.9283C24.1382 36.9706 24.1655 37.0162 24.1879 37.0644C24.2166 37.1244 24.2508 37.1816 24.2901 37.2352C24.33 37.2868 24.3307 37.3029 24.3257 37.313C24.31 37.3363 24.2878 37.3546 24.262 37.3656C24.2362 37.3766 24.2078 37.3798 24.1802 37.375C24.111 37.363 24.0436 37.3426 23.9794 37.3141C23.5251 37.1079 23.0873 36.8668 22.6699 36.5928C22.569 36.5228 22.4876 36.4623 22.4136 36.4025C22.2305 36.2596 22.0709 36.0885 21.9408 35.8955C21.8192 35.7218 21.7665 35.5086 21.7929 35.2978C21.8193 35.087 21.9229 34.8937 22.0834 34.7559H22.0834ZM21.723 29.8467C21.9583 29.9624 22.2087 29.9544 22.4685 29.9749C22.6745 29.9821 22.8793 29.9396 23.0657 29.851C23.2522 29.7624 23.4149 29.6301 23.5404 29.4654C23.6525 29.3341 23.7348 29.1797 23.7813 29.013C23.8279 28.8463 23.8377 28.6714 23.81 28.5005C23.7747 28.2583 23.5919 28.1834 23.3911 28.3135C23.351 28.3395 23.3125 28.3683 23.2709 28.3914C23.0394 28.5196 22.8327 28.471 22.6631 28.25C22.5186 28.0617 22.5367 27.8533 22.7141 27.6657C22.7361 27.6424 22.7583 27.6192 22.782 27.5979C22.8299 27.5644 22.866 27.5165 22.8851 27.461C22.9041 27.4055 22.9052 27.3454 22.8881 27.2892C22.8707 27.2291 22.8365 27.1752 22.7896 27.134C22.7427 27.0929 22.6851 27.0662 22.6235 27.0572C22.4268 27.0265 22.226 27.0363 22.0331 27.086C21.8403 27.1357 21.6595 27.2243 21.5015 27.3464C21.3436 27.4684 21.2118 27.6214 21.1142 27.7962C21.0166 27.971 20.9551 28.1639 20.9335 28.3633C20.9025 28.6618 20.9612 28.9627 21.102 29.2272C21.2428 29.4917 21.4591 29.7075 21.723 29.8467ZM26.4569 29.5678C26.7406 29.8764 27.1104 29.9596 27.4846 29.9668C27.5675 29.9668 27.6273 29.9677 27.687 29.9666C28.3674 29.9544 29.0079 29.2914 29.0006 28.6071C28.9975 28.3168 28.8012 28.1937 28.5425 28.3221C28.4567 28.3723 28.3659 28.4133 28.2717 28.4445C28.1761 28.4672 28.0757 28.4576 27.9861 28.4173C27.8964 28.3769 27.8223 28.3081 27.7752 28.2212C27.7196 28.1466 27.6918 28.0546 27.6968 27.9615C27.7017 27.8683 27.739 27.7798 27.8022 27.7116C27.8457 27.6595 27.8962 27.6132 27.9387 27.5603C27.9774 27.5203 28.0038 27.47 28.0151 27.4153C28.0263 27.3606 28.0219 27.3039 28.0022 27.2517C27.9826 27.1995 27.9486 27.154 27.9042 27.1206C27.8598 27.0872 27.8069 27.0672 27.7516 27.063C27.5231 27.0227 27.2883 27.0382 27.0669 27.1082C26.8456 27.1783 26.6442 27.3008 26.4796 27.4656C26.1123 27.807 26.0489 28.2563 26.1069 28.7282C26.1315 29.0386 26.2541 29.3329 26.4569 29.5678Z" fill="white"/>
</svg>
