<svg width="50" height="50" viewBox="0 0 50 50" fill="none" xmlns="http://www.w3.org/2000/svg">
<circle cx="25" cy="25" r="25" fill="#0091BD"/>
<path d="M35 21.0553H29.7991V19.3217H33.2479V15.2643H30.6106V17.5696H26.3319V15.2643H23.7314V17.5696H19.3421V15.2643H16.8523V19.3217H20.2089V21.0553H15.1187V13.5306H21.0757V15.836H21.9978V13.5306H28.0655V15.836H28.877V13.5306H35V21.0553ZM33.2111 24.3197V33.8915C33.2111 34.9059 32.3811 35.7358 31.3668 35.7358H18.7519C17.7375 35.7358 16.9076 34.9059 16.9076 33.8915V24.3197H33.2111ZM34.9447 22.5676H15.1555V33.91C15.174 35.8833 16.7785 37.4694 18.7519 37.4694H31.3668C33.3402 37.4694 34.9447 35.8649 34.9631 33.8731V22.5492L34.9447 22.5676Z" fill="white"/>
<path d="M25.0594 27.8054C26.0922 27.8054 26.9405 28.6538 26.9405 29.6866V31.6784H23.1782V29.6866C23.1782 28.6538 24.0081 27.8238 25.0594 27.8054ZM25.0594 26.0718C23.0675 26.0718 21.4446 27.6947 21.4446 29.6866V33.3936H28.6742V29.6866C28.6742 27.6947 27.0512 26.0718 25.0594 26.0718Z" fill="white"/>
</svg>
