<svg width="56" height="56" viewBox="0 0 56 56" fill="none" xmlns="http://www.w3.org/2000/svg">
<g filter="url(#filter0_d)">
<circle cx="28" cy="28" r="25" fill="white"/>
</g>
<path d="M24.7873 18.7127C25.9333 17.5186 27.5288 16.778 29.2934 16.778C31.639 16.778 33.6856 18.086 34.7754 20.0277C35.7225 19.6046 36.7708 19.3692 37.8738 19.3692C42.1045 19.3692 45.5344 22.829 45.5344 27.0967C45.5344 31.3648 42.1045 34.8246 37.8738 34.8246C37.3575 34.8246 36.8528 34.773 36.3648 34.6743C35.4051 36.3862 33.5762 37.5429 31.4771 37.5429C30.5983 37.5429 29.7672 37.3399 29.0271 36.979C28.0542 39.2675 25.7875 40.8721 23.1457 40.8721C20.3946 40.8721 18.0499 39.1313 17.1499 36.6899C16.7566 36.7735 16.3491 36.817 15.931 36.817C12.6555 36.817 10 34.1342 10 30.8242C10 28.6061 11.1931 26.6694 12.9658 25.6333C12.6008 24.7935 12.3978 23.8667 12.3978 22.8923C12.3978 19.0857 15.4881 16 19.2997 16C21.5376 16 23.5264 17.064 24.7873 18.7127Z" fill="#00A1E0"/>
<path d="M15.1468 28.8981C15.1246 28.9563 15.1549 28.9684 15.162 28.9786C15.2288 29.0272 15.2967 29.0621 15.365 29.1011C15.7274 29.2934 16.0696 29.3496 16.4275 29.3496C17.1564 29.3496 17.6089 28.9619 17.6089 28.3377V28.3256C17.6089 27.7485 17.0982 27.539 16.6188 27.3876L16.5566 27.3674C16.1951 27.2499 15.8833 27.1487 15.8833 26.9108V26.8981C15.8833 26.6947 16.0656 26.5448 16.348 26.5448C16.6618 26.5448 17.0344 26.6491 17.2743 26.7817C17.2743 26.7817 17.3447 26.8273 17.3705 26.7589C17.3847 26.7225 17.5062 26.3955 17.5188 26.3601C17.5325 26.3216 17.5082 26.2932 17.4834 26.2781C17.2095 26.1115 16.8309 25.9976 16.4391 25.9976L16.3662 25.9981C15.6991 25.9981 15.2334 26.4011 15.2334 26.9786V26.9908C15.2334 27.5997 15.7472 27.7971 16.2285 27.9348L16.306 27.9586C16.6568 28.0664 16.959 28.1591 16.959 28.4061V28.4182C16.959 28.644 16.7626 28.812 16.4457 28.812C16.3227 28.812 15.9304 28.8095 15.5067 28.5417C15.4556 28.5119 15.4257 28.4901 15.3863 28.4663C15.3655 28.4531 15.3134 28.4304 15.2906 28.4992L15.1468 28.8981Z" fill="white"/>
<path d="M25.8177 28.8981C25.7955 28.9563 25.8258 28.9684 25.8329 28.9786C25.8997 29.0272 25.9676 29.0621 26.0359 29.1011C26.3983 29.2934 26.7405 29.3496 27.0984 29.3496C27.8273 29.3496 28.2798 28.9619 28.2798 28.3377V28.3256C28.2798 27.7485 27.7691 27.539 27.2897 27.3876L27.2275 27.3674C26.866 27.2499 26.5542 27.1487 26.5542 26.9108V26.8981C26.5542 26.6947 26.7365 26.5448 27.0189 26.5448C27.3327 26.5448 27.7053 26.6491 27.9452 26.7817C27.9452 26.7817 28.0156 26.8273 28.0414 26.7589C28.0556 26.7225 28.1771 26.3955 28.1897 26.3601C28.2034 26.3216 28.1791 26.2932 28.1543 26.2781C27.8804 26.1115 27.5018 25.9976 27.11 25.9976L27.0371 25.9981C26.37 25.9981 25.9043 26.4011 25.9043 26.9786V26.9908C25.9043 27.5997 26.4181 27.7971 26.8994 27.9348L26.9769 27.9586C27.3277 28.0664 27.6304 28.1591 27.6304 28.4061V28.4182C27.6304 28.644 27.4335 28.812 27.1166 28.812C26.9936 28.812 26.6013 28.8095 26.1776 28.5417C26.1265 28.5119 26.0961 28.4911 26.0577 28.4663C26.0445 28.4577 25.9827 28.4339 25.9615 28.4992L25.8177 28.8981Z" fill="white"/>
<path d="M33.1025 27.6756C33.1025 28.0284 33.0367 28.3063 32.9071 28.5027C32.7791 28.6971 32.5852 28.7917 32.3149 28.7917C32.0441 28.7917 31.8512 28.6976 31.7252 28.5027C31.5976 28.3068 31.5328 28.0284 31.5328 27.6756C31.5328 27.3233 31.5976 27.0459 31.7252 26.8515C31.8512 26.6591 32.0441 26.5655 32.3149 26.5655C32.5852 26.5655 32.7791 26.6591 32.9077 26.8515C33.0367 27.0459 33.1025 27.3233 33.1025 27.6756ZM33.711 27.0216C33.6512 26.8196 33.5581 26.6414 33.4341 26.4931C33.3101 26.3443 33.1532 26.2248 32.9669 26.1378C32.7811 26.0512 32.5614 26.0072 32.3149 26.0072C32.0679 26.0072 31.8482 26.0512 31.6624 26.1378C31.4761 26.2248 31.3192 26.3443 31.1947 26.4931C31.0712 26.6419 30.9781 26.8201 30.9178 27.0216C30.8586 27.2225 30.8287 27.4422 30.8287 27.6756C30.8287 27.9089 30.8586 28.1291 30.9178 28.3296C30.9781 28.531 31.0707 28.7092 31.1952 28.858C31.3192 29.0068 31.4767 29.1258 31.6624 29.2103C31.8487 29.2949 32.0679 29.3379 32.3149 29.3379C32.5614 29.3379 32.7806 29.2949 32.9669 29.2103C33.1526 29.1258 33.3101 29.0068 33.4341 28.858C33.5581 28.7097 33.6512 28.5315 33.711 28.3296C33.7707 28.1286 33.8006 27.9084 33.8006 27.6756C33.8006 27.4427 33.7707 27.2225 33.711 27.0216Z" fill="white"/>
<path d="M38.7074 28.6974C38.6872 28.6381 38.63 28.6604 38.63 28.6604C38.5414 28.6943 38.4472 28.7257 38.347 28.7414C38.2453 28.7571 38.1334 28.7652 38.0134 28.7652C37.7188 28.7652 37.485 28.6776 37.3174 28.5045C37.1494 28.3314 37.0552 28.0515 37.0562 27.6728C37.0572 27.3281 37.1402 27.069 37.2896 26.8716C37.4379 26.6751 37.6636 26.5744 37.9648 26.5744C38.2159 26.5744 38.4072 26.6033 38.6077 26.6665C38.6077 26.6665 38.6558 26.6873 38.6786 26.6245C38.7317 26.4767 38.7712 26.3709 38.8279 26.2084C38.8441 26.1624 38.8046 26.1426 38.7904 26.1371C38.7115 26.1062 38.5252 26.0561 38.3845 26.0348C38.2528 26.0146 38.099 26.0039 37.9279 26.0039C37.6723 26.0039 37.4445 26.0475 37.2496 26.1345C37.0552 26.2211 36.8902 26.3406 36.7596 26.4894C36.629 26.6382 36.5298 26.8164 36.4635 27.0178C36.3977 27.2188 36.3643 27.4395 36.3643 27.6728C36.3643 28.1775 36.5004 28.5855 36.7692 28.8842C37.0385 29.1838 37.4429 29.3362 37.9704 29.3362C38.2822 29.3362 38.6021 29.2729 38.8319 29.1823C38.8319 29.1823 38.876 29.161 38.8567 29.1099L38.7074 28.6974Z" fill="white"/>
<path d="M39.7719 27.3374C39.8008 27.1415 39.8549 26.9785 39.9385 26.8515C40.0645 26.6586 40.2569 26.5528 40.5272 26.5528C40.7975 26.5528 40.9761 26.6591 41.1042 26.8515C41.1893 26.9785 41.2262 27.1486 41.2409 27.3374H39.7719ZM41.8205 26.9066C41.7688 26.7118 41.6408 26.5149 41.5567 26.4248C41.4241 26.282 41.2945 26.1823 41.166 26.1266C40.9979 26.0547 40.7964 26.0071 40.5757 26.0071C40.3186 26.0071 40.0853 26.0502 39.8959 26.1393C39.7061 26.2284 39.5467 26.3498 39.4216 26.5012C39.2966 26.652 39.2025 26.8317 39.1427 27.0357C39.0825 27.2387 39.0521 27.4599 39.0521 27.6933C39.0521 27.9307 39.0835 28.1519 39.1458 28.3508C39.2085 28.5513 39.3088 28.7279 39.4444 28.8742C39.5796 29.0215 39.7537 29.1369 39.9622 29.2174C40.1693 29.2974 40.4209 29.3389 40.7099 29.3384C41.3047 29.3363 41.618 29.2037 41.7471 29.1324C41.7698 29.1197 41.7916 29.0974 41.7643 29.0336L41.6296 28.6565C41.6094 28.6004 41.5522 28.6211 41.5522 28.6211C41.4049 28.6758 41.1953 28.774 40.7069 28.773C40.3874 28.7725 40.1506 28.6783 40.0022 28.531C39.8499 28.3802 39.7755 28.1584 39.7623 27.8456L41.822 27.8476C41.822 27.8476 41.8761 27.8466 41.8817 27.794C41.8837 27.7717 41.9526 27.3708 41.8205 26.9066Z" fill="white"/>
<path d="M23.2769 27.3374C23.3063 27.1415 23.3599 26.9785 23.4435 26.8515C23.5695 26.6586 23.7619 26.5528 24.0322 26.5528C24.3025 26.5528 24.4812 26.6591 24.6097 26.8515C24.6943 26.9785 24.7312 27.1486 24.7459 27.3374H23.2769ZM25.325 26.9066C25.2733 26.7118 25.1458 26.5149 25.0617 26.4248C24.9291 26.282 24.7995 26.1823 24.671 26.1266C24.5029 26.0547 24.3015 26.0071 24.0808 26.0071C23.8241 26.0071 23.5903 26.0502 23.4009 26.1393C23.2111 26.2284 23.0517 26.3498 22.9266 26.5012C22.8016 26.652 22.7075 26.8317 22.6477 27.0357C22.588 27.2387 22.5571 27.4599 22.5571 27.6933C22.5571 27.9307 22.5885 28.1519 22.6508 28.3508C22.7135 28.5513 22.8138 28.7279 22.9494 28.8742C23.0846 29.0215 23.2587 29.1369 23.4673 29.2174C23.6743 29.2974 23.9259 29.3389 24.2149 29.3384C24.8097 29.3363 25.123 29.2037 25.2521 29.1324C25.2749 29.1197 25.2966 29.0974 25.2693 29.0336L25.1351 28.6565C25.1144 28.6004 25.0572 28.6211 25.0572 28.6211C24.9099 28.6758 24.7008 28.774 24.2114 28.773C23.8925 28.7725 23.6556 28.6783 23.5072 28.531C23.3549 28.3802 23.2805 28.1584 23.2673 27.8456L25.327 27.8476C25.327 27.8476 25.3812 27.8466 25.3867 27.794C25.3887 27.7717 25.4576 27.3708 25.325 26.9066Z" fill="white"/>
<path d="M18.8249 28.6862C18.7444 28.6219 18.7333 28.6057 18.706 28.5642C18.6655 28.5009 18.6447 28.4108 18.6447 28.2964C18.6447 28.1152 18.7044 27.9851 18.8285 27.8975C18.8269 27.898 19.0056 27.7431 19.4258 27.7487C19.7209 27.7528 19.9846 27.7963 19.9846 27.7963V28.7327H19.9851C19.9851 28.7327 19.7234 28.7889 19.4288 28.8066C19.0097 28.8319 18.8234 28.6857 18.8249 28.6862ZM19.6444 27.239C19.5609 27.2329 19.4526 27.2294 19.323 27.2294C19.1463 27.2294 18.9758 27.2516 18.8158 27.2947C18.6548 27.3377 18.5101 27.405 18.3855 27.4941C18.2605 27.5837 18.1598 27.6981 18.0869 27.8337C18.014 27.9694 17.9771 28.1294 17.9771 28.3085C17.9771 28.4908 18.0084 28.6492 18.0712 28.7788C18.134 28.9089 18.2246 29.0172 18.34 29.1007C18.4544 29.1843 18.5956 29.2455 18.7596 29.2825C18.9211 29.3194 19.1043 29.3381 19.3048 29.3381C19.5159 29.3381 19.7264 29.3209 19.9304 29.286C20.1324 29.2516 20.3804 29.2015 20.4493 29.1858C20.5176 29.1696 20.5935 29.1488 20.5935 29.1488C20.6447 29.1362 20.6406 29.0815 20.6406 29.0815L20.6396 27.198C20.6396 26.7849 20.5293 26.4787 20.3121 26.2889C20.096 26.0995 19.7776 26.0039 19.366 26.0039C19.2116 26.0039 18.9631 26.0251 18.8143 26.055C18.8143 26.055 18.3643 26.1421 18.179 26.2868C18.179 26.2868 18.1385 26.3121 18.1608 26.3688L18.3066 26.7606C18.3248 26.8112 18.3739 26.794 18.3739 26.794C18.3739 26.794 18.3896 26.788 18.4078 26.7773C18.8042 26.5617 19.3053 26.5683 19.3053 26.5683C19.528 26.5683 19.6991 26.6128 19.8145 26.7014C19.9269 26.7875 19.9841 26.9175 19.9841 27.1919V27.279C19.8069 27.2537 19.6444 27.239 19.6444 27.239Z" fill="white"/>
<path d="M36.2566 26.1777C36.2723 26.1311 36.2394 26.1088 36.2257 26.1038C36.1908 26.0901 36.0157 26.0532 35.8805 26.0446C35.6218 26.0289 35.4781 26.0724 35.3495 26.1301C35.222 26.1878 35.0802 26.2809 35.0013 26.3867V26.1362C35.0013 26.1012 34.9765 26.0734 34.942 26.0734H34.4141C34.3797 26.0734 34.3549 26.1012 34.3549 26.1362V29.2082C34.3549 29.2427 34.3832 29.271 34.4176 29.271H34.9587C34.9932 29.271 35.021 29.2427 35.021 29.2082V27.6735C35.021 27.4674 35.0438 27.2619 35.0893 27.1329C35.1339 27.0053 35.1946 26.903 35.2695 26.8297C35.345 26.7568 35.4305 26.7056 35.5242 26.6768C35.6198 26.6474 35.7256 26.6378 35.8005 26.6378C35.9084 26.6378 36.0268 26.6656 36.0268 26.6656C36.0663 26.6702 36.0886 26.6459 36.1017 26.61C36.1371 26.5158 36.2374 26.2339 36.2566 26.1777Z" fill="white"/>
<path d="M31.1775 24.7538C31.1117 24.7336 31.0519 24.7199 30.974 24.7052C30.895 24.691 30.8009 24.6839 30.6941 24.6839C30.3215 24.6839 30.0279 24.7892 29.8219 24.9968C29.6169 25.2033 29.4777 25.5176 29.4078 25.9312L29.3825 26.0704H28.9148C28.9148 26.0704 28.8581 26.0684 28.846 26.1301L28.7695 26.5589C28.764 26.5994 28.7817 26.6252 28.8364 26.6252H29.2914L28.8298 29.2027C28.7938 29.4102 28.7523 29.5808 28.7063 29.7104C28.6612 29.838 28.6172 29.9336 28.5625 30.0035C28.5099 30.0703 28.4603 30.1199 28.3742 30.1488C28.3033 30.1725 28.2213 30.1837 28.1317 30.1837C28.0821 30.1837 28.0158 30.1756 27.9667 30.1655C27.9181 30.1558 27.8923 30.1452 27.8554 30.1295C27.8554 30.1295 27.8022 30.1093 27.781 30.1624C27.7642 30.2065 27.6428 30.54 27.6281 30.581C27.6139 30.622 27.6342 30.6539 27.66 30.6635C27.7207 30.6848 27.7658 30.699 27.8483 30.7187C27.9627 30.7456 28.0594 30.7471 28.15 30.7471C28.3393 30.7471 28.5124 30.7202 28.6556 30.6686C28.7994 30.6165 28.9249 30.5259 29.0363 30.4034C29.1563 30.2707 29.2317 30.1321 29.3036 29.9422C29.3749 29.7549 29.4362 29.5221 29.4848 29.2508L29.949 26.6252H30.6272C30.6272 26.6252 30.6844 26.6272 30.6961 26.5649L30.773 26.1367C30.7781 26.0957 30.7609 26.0704 30.7057 26.0704H30.0472C30.0507 26.0557 30.0806 25.8239 30.156 25.6057C30.1884 25.5131 30.2491 25.4377 30.3003 25.386C30.3509 25.3354 30.4091 25.2995 30.4729 25.2787C30.5382 25.2575 30.6126 25.2473 30.6941 25.2473C30.7558 25.2473 30.8171 25.2544 30.8631 25.264C30.9269 25.2777 30.9517 25.2848 30.9684 25.2899C31.0357 25.3101 31.0449 25.2904 31.058 25.258L31.2154 24.8257C31.2316 24.7791 31.1916 24.7594 31.1775 24.7538Z" fill="white"/>
<path d="M21.9763 29.2085C21.9763 29.2429 21.9514 29.2708 21.917 29.2708H21.3709C21.3364 29.2708 21.3121 29.2429 21.3121 29.2085V24.8128C21.3121 24.7783 21.3364 24.7505 21.3709 24.7505H21.917C21.9514 24.7505 21.9763 24.7783 21.9763 24.8128V29.2085Z" fill="white"/>
<defs>
<filter id="filter0_d" x="0" y="0" width="56" height="56" filterUnits="userSpaceOnUse" color-interpolation-filters="sRGB">
<feFlood flood-opacity="0" result="BackgroundImageFix"/>
<feColorMatrix in="SourceAlpha" type="matrix" values="0 0 0 0 0 0 0 0 0 0 0 0 0 0 0 0 0 0 127 0"/>
<feOffset/>
<feGaussianBlur stdDeviation="1.5"/>
<feColorMatrix type="matrix" values="0 0 0 0 0 0 0 0 0 0 0 0 0 0 0 0 0 0 0.16 0"/>
<feBlend mode="normal" in2="BackgroundImageFix" result="effect1_dropShadow"/>
<feBlend mode="normal" in="SourceGraphic" in2="effect1_dropShadow" result="shape"/>
</filter>
</defs>
</svg>
