<svg width="56" height="56" viewBox="0 0 56 56" fill="none" xmlns="http://www.w3.org/2000/svg">
<g filter="url(#filter0_d)">
<circle cx="28" cy="28" r="25" fill="white"/>
</g>
<path d="M41.3826 34.8352C39.8616 35.6285 31.9835 38.8676 30.3062 39.7417C28.6289 40.6159 27.6973 40.6076 26.3721 39.9744C25.0468 39.3413 16.6633 35.9549 15.1522 35.2326C14.3966 34.8715 14.0007 34.5677 14.0007 34.2806V31.3997C14.0007 31.3997 24.9161 29.0235 26.6788 28.3911C28.4415 27.7587 29.0513 27.7361 30.5518 28.2853C32.0523 28.8346 41.0184 30.4523 42.5 30.9955V33.8364C42.5 34.1212 42.1585 34.4408 41.3841 34.8367L41.3826 34.8352Z" fill="#A41E11"/>
<path d="M41.3825 31.9536C39.8616 32.747 31.9835 35.986 30.3062 36.8602C28.6289 37.7343 27.6973 37.726 26.3721 37.0929C25.0468 36.4597 16.6633 33.0734 15.1522 32.351C13.6411 31.6287 13.6109 31.1323 15.094 30.5513L26.6781 26.0664C28.44 25.4348 29.0505 25.4113 30.551 25.9606C32.0515 26.5099 39.882 29.6265 41.3629 30.1781C42.8438 30.7296 42.902 31.1679 41.381 31.9612L41.3825 31.9536Z" fill="#D82C20"/>
<path d="M41.3826 30.1372C39.8616 30.9305 31.9835 34.1696 30.3062 35.0437C28.6289 35.9179 27.6973 35.9096 26.3721 35.2764C25.0468 34.6433 16.6633 31.2569 15.1522 30.5346C14.3966 30.1735 14.0007 29.8697 14.0007 29.5826V26.7017C14.0007 26.7017 24.9161 24.3255 26.6788 23.6931C28.4415 23.0607 29.0513 23.0381 30.5518 23.5874C32.0523 24.1366 41.0184 25.7543 42.5 26.2975V29.1384C42.5 29.4232 42.1585 29.7428 41.3841 30.1387L41.3826 30.1372Z" fill="#A41E11"/>
<path d="M41.3825 27.2564C39.8616 28.0497 31.9835 31.2887 30.3062 32.1629C28.6289 33.0371 27.6973 33.0288 26.3721 32.3956C25.0468 31.7625 16.6633 28.3761 15.1522 27.6538C13.6411 26.9315 13.6109 26.4351 15.094 25.8541L26.6781 21.3699C28.44 20.7375 29.0505 20.7148 30.551 21.2641C32.0515 21.8134 39.882 24.9308 41.3644 25.4725C42.8468 26.0142 42.9035 26.4623 41.3825 27.2556V27.2564Z" fill="#D82C20"/>
<path d="M41.3826 25.2654C39.8616 26.0587 31.9835 29.2978 30.3062 30.1727C28.6289 31.0476 27.6973 31.0385 26.3721 30.4054C25.0468 29.7722 16.6633 26.3859 15.1522 25.6636C14.3966 25.3024 14.0007 24.9987 14.0007 24.7116V21.8292C14.0007 21.8292 24.9161 19.453 26.6788 18.8206C28.4415 18.1882 29.0513 18.1655 30.5518 18.7148C32.0523 19.2641 41.0184 20.8817 42.5 21.4249V24.2658C42.5 24.5506 42.1585 24.8702 41.3841 25.2662L41.3826 25.2654Z" fill="#A41E11"/>
<path d="M41.3825 22.3838C39.8616 23.1771 31.9835 26.4162 30.3062 27.2903C28.6289 28.1645 27.6973 28.1562 26.3721 27.523C25.0468 26.8899 16.6633 23.5035 15.1522 22.7812C13.6411 22.0589 13.6109 21.5625 15.094 20.9815L26.6781 16.4973C28.44 15.8649 29.0505 15.8423 30.551 16.3916C32.0515 16.9408 39.882 20.0582 41.3644 20.6C42.8468 21.1417 42.9035 21.5897 41.3825 22.383V22.3838Z" fill="#D82C20"/>
<path d="M28.9613 21.1961L28.0682 19.7115L25.2168 19.4546L27.3444 18.687L26.706 17.5083L28.6976 18.2865L30.5759 17.6715L30.0682 18.8894L31.9827 19.6072L29.5136 19.8641L28.9613 21.1961ZM24.2043 24.1518L30.8078 23.1379L28.8132 26.0634L24.2043 24.1518Z" fill="white"/>
<path d="M22.4242 23.0857C24.3737 23.0857 25.9541 22.4731 25.9541 21.7174C25.9541 20.9617 24.3737 20.3491 22.4242 20.3491C20.4747 20.3491 18.8943 20.9617 18.8943 21.7174C18.8943 22.4731 20.4747 23.0857 22.4242 23.0857Z" fill="white"/>
<path d="M38.8106 21.518L34.9044 23.0608L34.9014 19.9729L38.8106 21.518Z" fill="#7A0C00"/>
<path d="M34.9051 23.0608L34.482 23.227L30.5789 21.6842L34.9029 19.9736L34.9051 23.0608Z" fill="#AD2115"/>
<defs>
<filter id="filter0_d" x="0" y="0" width="56" height="56" filterUnits="userSpaceOnUse" color-interpolation-filters="sRGB">
<feFlood flood-opacity="0" result="BackgroundImageFix"/>
<feColorMatrix in="SourceAlpha" type="matrix" values="0 0 0 0 0 0 0 0 0 0 0 0 0 0 0 0 0 0 127 0"/>
<feOffset/>
<feGaussianBlur stdDeviation="1.5"/>
<feColorMatrix type="matrix" values="0 0 0 0 0 0 0 0 0 0 0 0 0 0 0 0 0 0 0.16 0"/>
<feBlend mode="normal" in2="BackgroundImageFix" result="effect1_dropShadow"/>
<feBlend mode="normal" in="SourceGraphic" in2="effect1_dropShadow" result="shape"/>
</filter>
</defs>
</svg>
