<svg width="468" height="130" viewBox="0 0 468 130" fill="none" xmlns="http://www.w3.org/2000/svg">
<path d="M399.444 123.328H395.604L394.848 126H392.246L396.438 113.203H398.68L402.793 126H400.191L399.444 123.328ZM396.21 121.228H398.864L397.555 116.517L396.21 121.228ZM406.265 116.49L406.414 117.809C406.754 117.334 407.167 116.968 407.653 116.71C408.14 116.446 408.679 116.314 409.271 116.314C409.751 116.314 410.19 116.385 410.589 116.525C410.987 116.666 411.33 116.892 411.617 117.202C411.91 117.507 412.136 117.902 412.294 118.389C412.458 118.869 412.54 119.455 412.54 120.146V126H410.097V120.182C410.097 119.807 410.053 119.499 409.965 119.259C409.883 119.013 409.763 118.819 409.604 118.679C409.446 118.538 409.256 118.441 409.033 118.389C408.811 118.33 408.559 118.301 408.277 118.301C407.861 118.301 407.507 118.386 407.214 118.556C406.921 118.72 406.684 118.948 406.502 119.241V126H404.05V116.49H406.265ZM420.802 126C420.743 125.883 420.693 125.748 420.652 125.596C420.611 125.443 420.576 125.282 420.547 125.112C420.412 125.259 420.257 125.396 420.081 125.525C419.905 125.654 419.709 125.769 419.492 125.868C419.281 125.962 419.047 126.035 418.789 126.088C418.531 126.146 418.253 126.176 417.954 126.176C417.468 126.176 417.02 126.105 416.609 125.965C416.205 125.824 415.856 125.628 415.563 125.376C415.271 125.124 415.042 124.825 414.878 124.479C414.714 124.128 414.632 123.747 414.632 123.337C414.632 122.335 415.004 121.562 415.748 121.017C416.498 120.466 417.614 120.19 419.097 120.19H420.459V119.628C420.459 119.171 420.31 118.811 420.011 118.547C419.712 118.277 419.281 118.143 418.719 118.143C418.221 118.143 417.857 118.251 417.629 118.468C417.4 118.679 417.286 118.963 417.286 119.32H414.843C414.843 118.916 414.931 118.532 415.106 118.169C415.288 117.806 415.549 117.486 415.889 117.211C416.234 116.936 416.653 116.719 417.146 116.561C417.644 116.396 418.212 116.314 418.851 116.314C419.425 116.314 419.958 116.385 420.45 116.525C420.948 116.666 421.379 116.874 421.742 117.149C422.105 117.425 422.39 117.773 422.595 118.195C422.8 118.611 422.902 119.095 422.902 119.646V123.724C422.902 124.233 422.935 124.655 422.999 124.989C423.063 125.323 423.157 125.61 423.28 125.851V126H420.802ZM418.473 124.286C418.719 124.286 418.947 124.257 419.158 124.198C419.369 124.14 419.56 124.063 419.729 123.97C419.899 123.876 420.046 123.771 420.169 123.653C420.292 123.53 420.389 123.407 420.459 123.284V121.649H419.211C418.83 121.649 418.505 121.688 418.235 121.764C417.966 121.834 417.746 121.937 417.576 122.071C417.406 122.2 417.28 122.358 417.198 122.546C417.116 122.728 417.075 122.927 417.075 123.144C417.075 123.472 417.189 123.744 417.418 123.961C417.652 124.178 418.004 124.286 418.473 124.286ZM426.181 112.5H431.498V124.014H434.223V126H426.181V124.014H429.028V114.495H426.181V112.5ZM440.533 122.01L440.814 123.029L443.346 116.49H446.044L441.219 127.424C441.113 127.664 440.976 127.925 440.806 128.206C440.642 128.487 440.434 128.748 440.182 128.988C439.93 129.229 439.622 129.431 439.259 129.595C438.901 129.759 438.477 129.841 437.984 129.841C437.867 129.841 437.759 129.835 437.659 129.823C437.56 129.817 437.463 129.806 437.369 129.788C437.275 129.776 437.182 129.759 437.088 129.735C437 129.718 436.903 129.694 436.798 129.665L437.097 127.802C437.196 127.802 437.322 127.805 437.475 127.811C437.633 127.822 437.759 127.828 437.853 127.828C438.046 127.828 438.216 127.77 438.362 127.652C438.515 127.535 438.644 127.406 438.749 127.266C438.854 127.125 438.939 126.996 439.004 126.879C439.068 126.762 439.112 126.703 439.136 126.703L439.725 125.596L435.699 116.49H438.371L440.533 122.01ZM450.43 124.04H456.028V126H447.09V124.488L452.416 118.477H447.213V116.49H455.809V117.958L450.43 124.04ZM462.717 126.176C461.984 126.176 461.319 126.056 460.722 125.815C460.124 125.575 459.611 125.25 459.184 124.84C458.756 124.424 458.425 123.938 458.19 123.381C457.962 122.818 457.848 122.218 457.848 121.579V121.228C457.848 120.501 457.962 119.839 458.19 119.241C458.419 118.638 458.738 118.119 459.148 117.686C459.559 117.252 460.045 116.915 460.607 116.675C461.17 116.435 461.782 116.314 462.444 116.314C463.13 116.314 463.739 116.429 464.272 116.657C464.812 116.88 465.266 117.196 465.635 117.606C466.01 118.017 466.294 118.512 466.487 119.092C466.681 119.666 466.777 120.302 466.777 120.999V122.036H460.326C460.373 122.358 460.467 122.654 460.607 122.924C460.754 123.188 460.938 123.416 461.161 123.609C461.384 123.803 461.639 123.952 461.926 124.058C462.213 124.163 462.526 124.216 462.866 124.216C463.106 124.216 463.344 124.192 463.578 124.146C463.818 124.099 464.047 124.031 464.264 123.943C464.48 123.85 464.683 123.735 464.87 123.601C465.058 123.466 465.222 123.308 465.362 123.126L466.584 124.444C466.432 124.661 466.232 124.875 465.986 125.086C465.746 125.291 465.459 125.476 465.125 125.64C464.797 125.798 464.431 125.927 464.026 126.026C463.622 126.126 463.186 126.176 462.717 126.176ZM462.427 118.292C462.151 118.292 461.899 118.342 461.671 118.441C461.442 118.535 461.24 118.673 461.064 118.854C460.895 119.036 460.751 119.253 460.634 119.505C460.517 119.757 460.429 120.038 460.37 120.349H464.378V120.155C464.366 119.897 464.316 119.654 464.229 119.426C464.141 119.197 464.015 119.001 463.851 118.837C463.687 118.667 463.484 118.535 463.244 118.441C463.01 118.342 462.737 118.292 462.427 118.292Z" fill="#4A4A4A"/>
<path d="M203.766 120.779H201.208V126H199.591V113.203H203.344C203.941 113.215 204.504 113.3 205.031 113.458C205.559 113.616 206.019 113.854 206.411 114.17C206.81 114.486 207.12 114.885 207.343 115.365C207.571 115.84 207.686 116.399 207.686 117.044C207.686 117.46 207.624 117.841 207.501 118.187C207.384 118.532 207.22 118.846 207.009 119.127C206.798 119.408 206.546 119.657 206.253 119.874C205.96 120.091 205.638 120.275 205.286 120.428L208.002 125.895L207.993 126H206.279L203.766 120.779ZM201.208 119.443H203.388C203.751 119.438 204.094 119.382 204.416 119.276C204.738 119.165 205.02 119.007 205.26 118.802C205.506 118.597 205.699 118.348 205.84 118.055C205.98 117.756 206.051 117.413 206.051 117.026C206.051 116.616 205.983 116.259 205.849 115.954C205.714 115.644 205.526 115.386 205.286 115.181C205.046 114.97 204.759 114.812 204.425 114.706C204.097 114.601 203.736 114.545 203.344 114.539H201.208V119.443ZM214.541 126.176C213.873 126.176 213.258 126.062 212.695 125.833C212.139 125.604 211.661 125.285 211.263 124.875C210.864 124.465 210.554 123.979 210.331 123.416C210.108 122.854 209.997 122.241 209.997 121.579V121.21C209.997 120.442 210.12 119.757 210.366 119.153C210.612 118.544 210.938 118.031 211.342 117.615C211.752 117.193 212.215 116.871 212.73 116.648C213.252 116.426 213.785 116.314 214.33 116.314C215.016 116.314 215.613 116.435 216.123 116.675C216.639 116.909 217.066 117.237 217.406 117.659C217.746 118.075 217.998 118.567 218.162 119.136C218.332 119.704 218.417 120.319 218.417 120.981V121.711H211.623C211.641 122.145 211.723 122.552 211.869 122.933C212.021 123.313 212.227 123.647 212.484 123.935C212.748 124.216 213.062 124.438 213.425 124.603C213.788 124.767 214.189 124.849 214.629 124.849C215.209 124.849 215.725 124.731 216.176 124.497C216.627 124.263 217.002 123.952 217.301 123.565L218.294 124.339C218.136 124.579 217.937 124.811 217.696 125.033C217.462 125.25 217.189 125.443 216.879 125.613C216.568 125.783 216.217 125.918 215.824 126.018C215.432 126.123 215.004 126.176 214.541 126.176ZM214.33 117.65C214.002 117.65 213.691 117.712 213.398 117.835C213.105 117.952 212.842 118.128 212.607 118.362C212.373 118.591 212.174 118.875 212.01 119.215C211.852 119.549 211.74 119.936 211.676 120.375H216.791V120.252C216.773 119.936 216.712 119.622 216.606 119.312C216.507 119.001 216.357 118.723 216.158 118.477C215.959 118.23 215.707 118.031 215.402 117.879C215.104 117.727 214.746 117.65 214.33 117.65ZM220.843 121.166C220.843 120.457 220.931 119.807 221.106 119.215C221.288 118.617 221.543 118.104 221.871 117.677C222.205 117.249 222.606 116.915 223.075 116.675C223.544 116.435 224.068 116.314 224.648 116.314C225.217 116.314 225.712 116.411 226.134 116.604C226.562 116.792 226.931 117.067 227.241 117.431V112.5H228.867V126H227.373L227.303 124.998C226.986 125.385 226.608 125.678 226.169 125.877C225.729 126.076 225.217 126.176 224.631 126.176C224.057 126.176 223.535 126.053 223.066 125.807C222.604 125.561 222.208 125.221 221.88 124.787C221.552 124.354 221.297 123.844 221.115 123.258C220.934 122.666 220.843 122.03 220.843 121.351V121.166ZM222.469 121.351C222.469 121.813 222.519 122.253 222.618 122.669C222.718 123.085 222.87 123.451 223.075 123.768C223.286 124.084 223.553 124.336 223.875 124.523C224.197 124.705 224.584 124.796 225.035 124.796C225.311 124.796 225.56 124.764 225.782 124.699C226.005 124.635 226.207 124.544 226.389 124.427C226.57 124.304 226.731 124.16 226.872 123.996C227.013 123.826 227.136 123.639 227.241 123.434V119.021C227.03 118.635 226.746 118.318 226.389 118.072C226.031 117.82 225.586 117.694 225.053 117.694C224.596 117.694 224.203 117.788 223.875 117.976C223.553 118.163 223.286 118.418 223.075 118.74C222.87 119.057 222.718 119.426 222.618 119.848C222.519 120.264 222.469 120.703 222.469 121.166V121.351ZM238.21 126C238.146 125.877 238.093 125.725 238.052 125.543C238.017 125.355 237.99 125.162 237.973 124.963C237.809 125.127 237.624 125.282 237.419 125.429C237.22 125.575 236.997 125.704 236.751 125.815C236.511 125.927 236.253 126.015 235.978 126.079C235.702 126.144 235.409 126.176 235.099 126.176C234.595 126.176 234.138 126.103 233.728 125.956C233.323 125.81 232.978 125.613 232.69 125.367C232.409 125.115 232.189 124.819 232.031 124.479C231.879 124.134 231.803 123.762 231.803 123.363C231.803 122.842 231.905 122.385 232.11 121.992C232.321 121.6 232.617 121.274 232.998 121.017C233.379 120.753 233.836 120.557 234.369 120.428C234.908 120.299 235.509 120.234 236.171 120.234H237.946V119.487C237.946 119.2 237.894 118.942 237.788 118.714C237.683 118.485 237.533 118.292 237.34 118.134C237.146 117.97 236.909 117.844 236.628 117.756C236.353 117.668 236.042 117.624 235.696 117.624C235.374 117.624 235.084 117.665 234.826 117.747C234.574 117.829 234.36 117.938 234.185 118.072C234.009 118.207 233.871 118.368 233.771 118.556C233.678 118.737 233.631 118.928 233.631 119.127H231.996C232.002 118.781 232.09 118.441 232.26 118.107C232.436 117.773 232.685 117.475 233.007 117.211C233.335 116.941 233.73 116.725 234.193 116.561C234.662 116.396 235.192 116.314 235.784 116.314C236.323 116.314 236.824 116.382 237.287 116.517C237.75 116.646 238.148 116.845 238.482 117.114C238.822 117.378 239.089 117.709 239.282 118.107C239.476 118.506 239.572 118.972 239.572 119.505V123.926C239.572 124.242 239.602 124.579 239.66 124.937C239.719 125.288 239.801 125.596 239.906 125.859V126H238.21ZM235.336 124.761C235.652 124.761 235.948 124.72 236.224 124.638C236.499 124.556 236.748 124.447 236.971 124.312C237.199 124.178 237.396 124.025 237.56 123.855C237.724 123.68 237.853 123.498 237.946 123.311V121.386H236.435C235.485 121.386 234.747 121.526 234.22 121.808C233.692 122.089 233.429 122.531 233.429 123.135C233.429 123.369 233.467 123.586 233.543 123.785C233.625 123.984 233.745 124.157 233.903 124.304C234.062 124.444 234.261 124.556 234.501 124.638C234.741 124.72 235.02 124.761 235.336 124.761ZM246.823 124.857C247.116 124.857 247.4 124.811 247.676 124.717C247.957 124.623 248.206 124.494 248.423 124.33C248.64 124.16 248.812 123.964 248.941 123.741C249.076 123.513 249.146 123.267 249.152 123.003H250.69C250.685 123.425 250.573 123.829 250.356 124.216C250.146 124.597 249.861 124.934 249.504 125.227C249.146 125.514 248.736 125.745 248.273 125.921C247.811 126.091 247.327 126.176 246.823 126.176C246.103 126.176 245.473 126.047 244.934 125.789C244.395 125.531 243.943 125.186 243.58 124.752C243.223 124.312 242.953 123.809 242.771 123.24C242.59 122.666 242.499 122.062 242.499 121.43V121.061C242.499 120.434 242.59 119.833 242.771 119.259C242.953 118.685 243.223 118.181 243.58 117.747C243.943 117.308 244.395 116.959 244.934 116.701C245.473 116.443 246.103 116.314 246.823 116.314C247.386 116.314 247.901 116.405 248.37 116.587C248.845 116.763 249.252 117.006 249.592 117.316C249.938 117.621 250.207 117.984 250.4 118.406C250.594 118.828 250.69 119.279 250.69 119.76H249.152C249.146 119.473 249.082 119.203 248.959 118.951C248.842 118.693 248.681 118.468 248.476 118.274C248.271 118.081 248.024 117.929 247.737 117.817C247.456 117.706 247.151 117.65 246.823 117.65C246.319 117.65 245.895 117.753 245.549 117.958C245.209 118.157 244.934 118.421 244.723 118.749C244.512 119.071 244.359 119.435 244.266 119.839C244.178 120.243 244.134 120.65 244.134 121.061V121.43C244.134 121.846 244.178 122.259 244.266 122.669C244.359 123.073 244.509 123.439 244.714 123.768C244.925 124.09 245.2 124.354 245.54 124.559C245.886 124.758 246.313 124.857 246.823 124.857ZM257.432 114.188V116.49H261.053V117.747H257.432V122.915C257.432 123.284 257.479 123.589 257.572 123.829C257.666 124.069 257.795 124.263 257.959 124.409C258.123 124.55 258.311 124.649 258.521 124.708C258.738 124.767 258.967 124.796 259.207 124.796C259.383 124.796 259.564 124.787 259.752 124.77C259.939 124.746 260.121 124.72 260.297 124.69C260.479 124.661 260.646 124.632 260.798 124.603C260.956 124.567 261.085 124.538 261.185 124.515L261.413 125.666C261.278 125.748 261.114 125.821 260.921 125.886C260.728 125.944 260.517 125.994 260.288 126.035C260.06 126.082 259.816 126.117 259.559 126.141C259.307 126.164 259.055 126.176 258.803 126.176C258.381 126.176 257.985 126.117 257.616 126C257.253 125.877 256.937 125.687 256.667 125.429C256.397 125.165 256.184 124.828 256.025 124.418C255.873 124.002 255.797 123.501 255.797 122.915V117.747H253.301V116.49H255.797V114.188H257.432Z" fill="#C5C5C5"/>
<path d="M41 86H228" stroke="#E5E5E5" stroke-width="2" stroke-dasharray="8 8"/>
<path d="M234 86H419" stroke="#E5E5E5" stroke-width="2" stroke-dasharray="8 8"/>
<circle cx="38.5" cy="85.5" r="10" stroke="#E5E5E5"/>
<circle cx="38.5" cy="85.5" r="7.5" fill="#E5E5E5"/>
<circle cx="230.5" cy="85.5" r="10" stroke="#E5E5E5"/>
<circle cx="230.5" cy="85.5" r="7.5" fill="#E5E5E5"/>
<path d="M9.81738 122.15C9.74121 122.742 9.58887 123.287 9.36035 123.785C9.13184 124.277 8.83301 124.702 8.46387 125.06C8.10059 125.411 7.66699 125.687 7.16309 125.886C6.66504 126.079 6.1084 126.176 5.49316 126.176C4.96582 126.176 4.48535 126.103 4.05176 125.956C3.62402 125.804 3.24023 125.596 2.90039 125.332C2.56641 125.068 2.27637 124.758 2.03027 124.4C1.79004 124.043 1.58789 123.653 1.42383 123.231C1.26562 122.81 1.14551 122.367 1.06348 121.904C0.987305 121.441 0.946289 120.973 0.94043 120.498V118.714C0.946289 118.239 0.987305 117.771 1.06348 117.308C1.14551 116.845 1.26562 116.402 1.42383 115.98C1.58789 115.559 1.79004 115.169 2.03027 114.812C2.27637 114.448 2.56641 114.135 2.90039 113.871C3.24023 113.607 3.62402 113.402 4.05176 113.256C4.47949 113.104 4.95996 113.027 5.49316 113.027C6.13184 113.027 6.70312 113.127 7.20703 113.326C7.71094 113.52 8.14453 113.798 8.50781 114.161C8.87109 114.519 9.16113 114.949 9.37793 115.453C9.60059 115.957 9.74707 116.514 9.81738 117.123H8.19141C8.13867 116.736 8.04785 116.376 7.91895 116.042C7.79004 115.708 7.61719 115.415 7.40039 115.163C7.18359 114.911 6.91699 114.715 6.60059 114.574C6.29004 114.428 5.9209 114.354 5.49316 114.354C5.10645 114.354 4.76367 114.419 4.46484 114.548C4.17188 114.671 3.91699 114.841 3.7002 115.058C3.48926 115.274 3.31055 115.526 3.16406 115.813C3.02344 116.101 2.90918 116.405 2.82129 116.728C2.7334 117.05 2.66895 117.381 2.62793 117.721C2.59277 118.055 2.5752 118.38 2.5752 118.696V120.498C2.5752 120.814 2.59277 121.143 2.62793 121.482C2.66895 121.816 2.7334 122.147 2.82129 122.476C2.90918 122.798 3.02344 123.103 3.16406 123.39C3.30469 123.677 3.4834 123.932 3.7002 124.154C3.91699 124.371 4.17188 124.544 4.46484 124.673C4.75781 124.796 5.10059 124.857 5.49316 124.857C5.9209 124.857 6.29004 124.79 6.60059 124.655C6.91699 124.521 7.18359 124.333 7.40039 124.093C7.61719 123.847 7.79004 123.56 7.91895 123.231C8.04785 122.897 8.13867 122.537 8.19141 122.15H9.81738ZM11.8828 121.157C11.8828 120.472 11.9824 119.836 12.1816 119.25C12.3809 118.658 12.665 118.146 13.0342 117.712C13.4092 117.278 13.8633 116.938 14.3965 116.692C14.9297 116.44 15.5303 116.314 16.1982 116.314C16.8721 116.314 17.4756 116.44 18.0088 116.692C18.5479 116.938 19.002 117.278 19.3711 117.712C19.7461 118.146 20.0332 118.658 20.2324 119.25C20.4316 119.836 20.5312 120.472 20.5312 121.157V121.351C20.5312 122.036 20.4316 122.672 20.2324 123.258C20.0332 123.844 19.7461 124.354 19.3711 124.787C19.002 125.221 18.5508 125.561 18.0176 125.807C17.4844 126.053 16.8838 126.176 16.2158 126.176C15.542 126.176 14.9355 126.053 14.3965 125.807C13.8633 125.561 13.4092 125.221 13.0342 124.787C12.665 124.354 12.3809 123.844 12.1816 123.258C11.9824 122.672 11.8828 122.036 11.8828 121.351V121.157ZM13.5088 121.351C13.5088 121.819 13.5645 122.268 13.6758 122.695C13.7871 123.117 13.9541 123.489 14.1768 123.812C14.4053 124.134 14.6895 124.389 15.0293 124.576C15.3691 124.764 15.7646 124.857 16.2158 124.857C16.6611 124.857 17.0508 124.764 17.3848 124.576C17.7246 124.389 18.0059 124.134 18.2285 123.812C18.457 123.489 18.627 123.117 18.7383 122.695C18.8496 122.268 18.9053 121.819 18.9053 121.351V121.157C18.9053 120.694 18.8467 120.252 18.7295 119.83C18.6182 119.402 18.4482 119.027 18.2197 118.705C17.9971 118.383 17.7158 118.128 17.376 117.94C17.042 117.747 16.6494 117.65 16.1982 117.65C15.7471 117.65 15.3545 117.747 15.0205 117.94C14.6865 118.128 14.4053 118.383 14.1768 118.705C13.9541 119.027 13.7871 119.402 13.6758 119.83C13.5645 120.252 13.5088 120.694 13.5088 121.157V121.351ZM23.4053 112.5H28.2656V124.594H31.3682V126H23.4053V124.594H26.6396V113.915H23.4053V112.5ZM34.2158 112.5H39.0762V124.594H42.1787V126H34.2158V124.594H37.4502V113.915H34.2158V112.5ZM48.9727 126.176C48.3047 126.176 47.6895 126.062 47.127 125.833C46.5703 125.604 46.0928 125.285 45.6943 124.875C45.2959 124.465 44.9854 123.979 44.7627 123.416C44.54 122.854 44.4287 122.241 44.4287 121.579V121.21C44.4287 120.442 44.5518 119.757 44.7979 119.153C45.0439 118.544 45.3691 118.031 45.7734 117.615C46.1836 117.193 46.6465 116.871 47.1621 116.648C47.6836 116.426 48.2168 116.314 48.7617 116.314C49.4473 116.314 50.0449 116.435 50.5547 116.675C51.0703 116.909 51.498 117.237 51.8379 117.659C52.1777 118.075 52.4297 118.567 52.5938 119.136C52.7637 119.704 52.8486 120.319 52.8486 120.981V121.711H46.0547C46.0723 122.145 46.1543 122.552 46.3008 122.933C46.4531 123.313 46.6582 123.647 46.916 123.935C47.1797 124.216 47.4932 124.438 47.8564 124.603C48.2197 124.767 48.6211 124.849 49.0605 124.849C49.6406 124.849 50.1562 124.731 50.6074 124.497C51.0586 124.263 51.4336 123.952 51.7324 123.565L52.7256 124.339C52.5674 124.579 52.3682 124.811 52.1279 125.033C51.8936 125.25 51.6211 125.443 51.3105 125.613C51 125.783 50.6484 125.918 50.2559 126.018C49.8633 126.123 49.4355 126.176 48.9727 126.176ZM48.7617 117.65C48.4336 117.65 48.123 117.712 47.8301 117.835C47.5371 117.952 47.2734 118.128 47.0391 118.362C46.8047 118.591 46.6055 118.875 46.4414 119.215C46.2832 119.549 46.1719 119.936 46.1074 120.375H51.2227V120.252C51.2051 119.936 51.1436 119.622 51.0381 119.312C50.9385 119.001 50.7891 118.723 50.5898 118.477C50.3906 118.23 50.1387 118.031 49.834 117.879C49.5352 117.727 49.1777 117.65 48.7617 117.65ZM59.6338 124.857C59.9268 124.857 60.2109 124.811 60.4863 124.717C60.7676 124.623 61.0166 124.494 61.2334 124.33C61.4502 124.16 61.623 123.964 61.752 123.741C61.8867 123.513 61.957 123.267 61.9629 123.003H63.501C63.4951 123.425 63.3838 123.829 63.167 124.216C62.9561 124.597 62.6719 124.934 62.3145 125.227C61.957 125.514 61.5469 125.745 61.084 125.921C60.6211 126.091 60.1377 126.176 59.6338 126.176C58.9131 126.176 58.2832 126.047 57.7441 125.789C57.2051 125.531 56.7539 125.186 56.3906 124.752C56.0332 124.312 55.7637 123.809 55.582 123.24C55.4004 122.666 55.3096 122.062 55.3096 121.43V121.061C55.3096 120.434 55.4004 119.833 55.582 119.259C55.7637 118.685 56.0332 118.181 56.3906 117.747C56.7539 117.308 57.2051 116.959 57.7441 116.701C58.2832 116.443 58.9131 116.314 59.6338 116.314C60.1963 116.314 60.7119 116.405 61.1807 116.587C61.6553 116.763 62.0625 117.006 62.4023 117.316C62.748 117.621 63.0176 117.984 63.2109 118.406C63.4043 118.828 63.501 119.279 63.501 119.76H61.9629C61.957 119.473 61.8926 119.203 61.7695 118.951C61.6523 118.693 61.4912 118.468 61.2861 118.274C61.0811 118.081 60.835 117.929 60.5479 117.817C60.2666 117.706 59.9619 117.65 59.6338 117.65C59.1299 117.65 58.7051 117.753 58.3594 117.958C58.0195 118.157 57.7441 118.421 57.5332 118.749C57.3223 119.071 57.1699 119.435 57.0762 119.839C56.9883 120.243 56.9443 120.65 56.9443 121.061V121.43C56.9443 121.846 56.9883 122.259 57.0762 122.669C57.1699 123.073 57.3193 123.439 57.5244 123.768C57.7354 124.09 58.0107 124.354 58.3506 124.559C58.6963 124.758 59.124 124.857 59.6338 124.857ZM70.2422 114.188V116.49H73.8633V117.747H70.2422V122.915C70.2422 123.284 70.2891 123.589 70.3828 123.829C70.4766 124.069 70.6055 124.263 70.7695 124.409C70.9336 124.55 71.1211 124.649 71.332 124.708C71.5488 124.767 71.7773 124.796 72.0176 124.796C72.1934 124.796 72.375 124.787 72.5625 124.77C72.75 124.746 72.9316 124.72 73.1074 124.69C73.2891 124.661 73.4561 124.632 73.6084 124.603C73.7666 124.567 73.8955 124.538 73.9951 124.515L74.2236 125.666C74.0889 125.748 73.9248 125.821 73.7314 125.886C73.5381 125.944 73.3271 125.994 73.0986 126.035C72.8701 126.082 72.627 126.117 72.3691 126.141C72.1172 126.164 71.8652 126.176 71.6133 126.176C71.1914 126.176 70.7959 126.117 70.4268 126C70.0635 125.877 69.7471 125.687 69.4775 125.429C69.208 125.165 68.9941 124.828 68.8359 124.418C68.6836 124.002 68.6074 123.501 68.6074 122.915V117.747H66.1113V116.49H68.6074V114.188H70.2422Z" fill="#C5C5C5"/>
<circle cx="430" cy="86" r="17" fill="#326DE6"/>
<path d="M427.945 84.8359H429.342C429.752 84.8359 430.11 84.7839 430.416 84.6797C430.722 84.569 430.976 84.416 431.178 84.2207C431.38 84.0254 431.529 83.7943 431.627 83.5273C431.731 83.2539 431.783 82.9544 431.783 82.6289C431.783 81.9388 431.601 81.4082 431.236 81.0371C430.878 80.6595 430.335 80.4707 429.605 80.4707C429.286 80.4707 428.99 80.5195 428.717 80.6172C428.45 80.7083 428.215 80.8418 428.014 81.0176C427.818 81.1934 427.665 81.4049 427.555 81.6523C427.444 81.8997 427.389 82.1797 427.389 82.4922H425.055C425.055 81.9323 425.165 81.4147 425.387 80.9395C425.615 80.4642 425.927 80.054 426.324 79.709C426.728 79.3574 427.206 79.084 427.76 78.8887C428.313 78.6868 428.919 78.5859 429.576 78.5859C430.247 78.5859 430.862 78.6738 431.422 78.8496C431.982 79.0189 432.46 79.2728 432.857 79.6113C433.255 79.9499 433.564 80.373 433.785 80.8809C434.007 81.3822 434.117 81.9648 434.117 82.6289C434.117 82.9089 434.075 83.1953 433.99 83.4883C433.906 83.7812 433.775 84.0645 433.6 84.3379C433.43 84.6113 433.212 84.8685 432.945 85.1094C432.685 85.3438 432.376 85.5423 432.018 85.7051C432.447 85.8548 432.809 86.0469 433.102 86.2812C433.395 86.5156 433.632 86.7793 433.814 87.0723C433.997 87.3587 434.127 87.668 434.205 88C434.283 88.332 434.322 88.6706 434.322 89.0156C434.322 89.6797 434.202 90.2721 433.961 90.793C433.72 91.3138 433.385 91.7533 432.955 92.1113C432.532 92.4629 432.031 92.7331 431.451 92.9219C430.872 93.1042 430.247 93.1953 429.576 93.1953C428.958 93.1953 428.368 93.1107 427.809 92.9414C427.249 92.7721 426.754 92.5215 426.324 92.1895C425.901 91.8509 425.562 91.4342 425.309 90.9395C425.055 90.4382 424.928 89.8587 424.928 89.2012H427.262C427.262 89.5137 427.317 89.8034 427.428 90.0703C427.538 90.3307 427.695 90.5553 427.896 90.7441C428.105 90.9264 428.352 91.0697 428.639 91.1738C428.925 91.278 429.247 91.3301 429.605 91.3301C430.348 91.3301 430.93 91.1348 431.354 90.7441C431.783 90.347 431.998 89.7741 431.998 89.0254C431.998 88.6152 431.936 88.2637 431.812 87.9707C431.689 87.6712 431.51 87.4271 431.275 87.2383C431.048 87.043 430.771 86.8997 430.445 86.8086C430.12 86.7174 429.752 86.6719 429.342 86.6719H427.945V84.8359Z" fill="white"/>
<path d="M417.316 24.6886L417.316 24.6887L418.853 26.2289C419.301 26.6784 419.928 27.0529 420.558 27.3146C421.189 27.5763 421.896 27.7557 422.531 27.7557H451.698C452.297 27.7557 452.792 28.2498 452.792 28.8536V59.1522C452.792 59.7559 452.297 60.25 451.698 60.25H405.844C405.245 60.25 404.75 59.7559 404.75 59.1522V24.7003C404.75 24.0964 405.246 23.6022 405.844 23.6022H414.7C415.079 23.6022 415.587 23.7167 416.097 23.9287C416.608 24.1406 417.048 24.4194 417.316 24.6886Z" fill="#CEE3F6" stroke="#73A3CD" stroke-width="1.5"/>
<path d="M449.227 12.7295L449.234 12.7367L449.24 12.7438L453.4 17.1302C453.419 17.1502 453.43 17.1768 453.43 17.2045L453.392 45.5401C453.391 45.8362 453.151 46.0761 452.855 46.0761H423.976C423.68 46.0761 423.439 45.8358 423.439 45.5394V7.76567C423.439 7.4676 423.682 7.22664 423.98 7.22902L444.376 7.39199C444.406 7.39223 444.435 7.40518 444.455 7.42766L449.227 12.7295Z" fill="white" stroke="#E5E5E5" stroke-width="1.5"/>
<path d="M443.862 7.03314V16.8075C443.862 17.2813 444.246 17.6653 444.72 17.6653H453.314" stroke="#E5E5E5" stroke-width="1.5" stroke-dasharray="1.12 1.12"/>
<path d="M427.684 12.9164H435.898" stroke="#EBB55C" stroke-width="1.23192" stroke-linecap="round"/>
<path d="M430.181 17.0427H438.395" stroke="#EBB55C" stroke-width="1.23192" stroke-linecap="round"/>
<path d="M430.181 21.169H442.25" stroke="#EBB55C" stroke-width="1.23192" stroke-linecap="round"/>
<path d="M430.181 41.3102H442.25" stroke="#EBB55C" stroke-width="1.23192" stroke-linecap="round"/>
<path d="M427.684 25.2952H433.927" stroke="#EBB55C" stroke-width="1.23192" stroke-linecap="round"/>
<path d="M430.181 29.4214H434.759" stroke="#EBB55C" stroke-width="1.23192" stroke-linecap="round"/>
<path d="M430.181 33.5477H436.84" stroke="#EBB55C" stroke-width="1.23192" stroke-linecap="round"/>
<path d="M427.684 37.674H435.898" stroke="#EBB55C" stroke-width="1.23192" stroke-linecap="round"/>
<path d="M436.161 7.24682L436.167 7.25407L436.174 7.26115L440.334 11.6475C440.353 11.6676 440.363 11.6942 440.363 11.7218L440.325 40.0574C440.325 40.3536 440.085 40.5934 439.789 40.5934H410.91C410.613 40.5934 410.373 40.3531 410.373 40.0567V2.28301C410.373 1.98494 410.616 1.74397 410.914 1.74635L431.309 1.90933C431.34 1.90957 431.368 1.92251 431.389 1.945L436.161 7.24682Z" fill="white" stroke="#E5E5E5" stroke-width="1.5"/>
<path d="M430.718 1.64648V11.325C430.718 11.7988 431.102 12.1828 431.576 12.1828H440.247" stroke="#E5E5E5" stroke-width="1.5" stroke-dasharray="1.12 1.12"/>
<path d="M414.617 7.43377H422.831" stroke="#E5E5E5" stroke-width="2" stroke-linecap="round"/>
<path d="M417.114 11.5601H425.328" stroke="#E5E5E5" stroke-width="1.5" stroke-linecap="round"/>
<path d="M417.114 15.6863H429.184" stroke="#EBB55C" stroke-width="1.5" stroke-linecap="round"/>
<path d="M417.114 35.8276H429.184" stroke="#EBB55C" stroke-width="1.5" stroke-linecap="round"/>
<path d="M414.617 19.8126H420.86" stroke="#E5E5E5" stroke-width="1.5" stroke-linecap="round"/>
<path d="M417.114 23.9389H421.692" stroke="#EBB55C" stroke-width="1.5" stroke-linecap="round"/>
<path d="M417.114 28.0651H423.773" stroke="#EBB55C" stroke-width="1.5" stroke-linecap="round"/>
<path d="M442.191 21.0146L442.198 21.0219L442.204 21.029L446.364 25.4153C446.383 25.4354 446.394 25.462 446.394 25.4896L446.356 53.8253C446.355 54.1214 446.115 54.3612 445.819 54.3612H416.94C416.644 54.3612 416.403 54.1209 416.403 53.8245V16.0508C416.403 15.7528 416.646 15.5118 416.944 15.5142L437.34 15.6771C437.37 15.6774 437.399 15.6903 437.419 15.7128L442.191 21.0146Z" fill="white" stroke="#C5C5C5" stroke-width="1.5"/>
<path d="M418.899 21.6724H431.683" stroke="#C5C5C5" stroke-width="1.5" stroke-linecap="round"/>
<path d="M418.652 18.2377H429.781" stroke="#C5C5C5" stroke-width="1.5" stroke-linecap="round" stroke-dasharray="4.06 4.06"/>
<path d="M418.899 25.1071L435.028 25.1314" stroke="#C5C5C5" stroke-width="1.5" stroke-linecap="round"/>
<path d="M418.899 28.5419H422.248" stroke="#9B9B9B" stroke-width="1.5" stroke-linecap="round"/>
<path d="M424.378 28.5419H432.52" stroke="#C5C5C5" stroke-width="1.5" stroke-linecap="round"/>
<path d="M420.269 31.9766H427.726" stroke="#9B9B9B" stroke-width="1.5" stroke-linecap="round"/>
<path d="M429.856 31.9766H431.15" stroke="#C5C5C5" stroke-width="1.5" stroke-linecap="round"/>
<path d="M420.269 35.4114H426.357" stroke="#9B9B9B" stroke-width="1.5" stroke-linecap="round"/>
<path d="M428.487 35.4114H442.793" stroke="#C5C5C5" stroke-width="1.5" stroke-linecap="round"/>
<path d="M420.269 38.8461H423.313" stroke="#9B9B9B" stroke-width="1.5" stroke-linecap="round"/>
<path d="M425.672 38.8461H436.63" stroke="#C5C5C5" stroke-width="1.5" stroke-linecap="round"/>
<path d="M421.639 42.2809H431.683" stroke="#9B9B9B" stroke-width="1.5" stroke-linecap="round"/>
<path d="M433.89 42.2809H438.684" stroke="#C5C5C5" stroke-width="1.5" stroke-linecap="round"/>
<path d="M423.008 45.7156H427.726" stroke="#9B9B9B" stroke-width="1.5" stroke-linecap="round"/>
<path d="M429.781 45.7156H431.15" stroke="#C5C5C5" stroke-width="1.5" stroke-linecap="round"/>
<path d="M418.899 49.1503H422.248" stroke="#9B9B9B" stroke-width="1.5" stroke-linecap="round"/>
<path d="M424.378 49.1503H432.52" stroke="#C5C5C5" stroke-width="1.5" stroke-linecap="round"/>
<path d="M420.269 52.585H427.726" stroke="#9B9B9B" stroke-width="1.5" stroke-linecap="round"/>
<path d="M429.856 52.585H431.15" stroke="#C5C5C5" stroke-width="1.5" stroke-linecap="round"/>
<path d="M420.269 56.0198H426.357" stroke="#9B9B9B" stroke-width="1.5" stroke-linecap="round"/>
<path d="M428.487 56.0198H442.793" stroke="#C5C5C5" stroke-width="1.5" stroke-linecap="round"/>
<path d="M420.269 59.4545H423.313" stroke="#9B9B9B" stroke-width="1.5" stroke-linecap="round"/>
<path d="M425.672 59.4545H436.63" stroke="#C5C5C5" stroke-width="1.5" stroke-linecap="round"/>
<path d="M437.183 15.4365V25.1368C437.183 25.6105 437.567 25.9946 438.04 25.9946H446.663" stroke="#C5C5C5" stroke-width="1.5"/>
<path d="M404.757 58.894L404.759 58.8835L404.76 58.8729L407.199 31.5202C407.279 30.891 407.884 30.3564 408.513 30.3564H455.233C455.789 30.3564 456.155 30.7745 456.076 31.3318L456.075 31.3402L456.074 31.3486L452.853 58.7144C452.759 59.3488 452.132 59.8913 451.495 59.8913H405.64C405.077 59.8913 404.691 59.459 404.757 58.894Z" fill="#CEE3F7" stroke="#73A3CD" stroke-width="1.5"/>
<path d="M406.068 24.8154L411.755 19.2466C411.317 18.6922 410.983 18.0875 410.7 17.4575C410.262 16.4244 410.031 15.3157 410.031 14.1817C410.031 13.0478 410.262 11.9391 410.7 10.906C411.137 9.89806 411.755 8.99092 412.553 8.20978C413.35 7.42863 414.277 6.82388 415.306 6.39551C416.361 5.96714 417.493 5.74036 418.651 5.74036C419.809 5.74036 420.941 5.96714 421.996 6.39551C423.025 6.82388 423.952 7.42863 424.749 8.20978C425.547 8.99092 426.165 9.89806 426.602 10.906C427.039 11.9391 427.271 13.0478 427.271 14.1817C427.271 15.3157 427.039 16.4244 426.602 17.4575C426.165 18.4654 425.547 19.3726 424.749 20.1537C423.952 20.9349 423.025 21.5396 421.996 21.968C420.941 22.3964 419.809 22.6231 418.651 22.6231C417.493 22.6231 416.361 22.3964 415.306 21.968C414.637 21.6908 414.045 21.338 413.479 20.9349L407.792 26.5037C407.561 26.7304 407.252 26.8564 406.943 26.8564C406.634 26.8564 406.326 26.7304 406.094 26.5037C405.605 26.0249 405.605 25.2689 406.068 24.8154ZM418.625 20.7333C422.331 20.7333 425.341 17.7851 425.341 14.1565C425.341 10.528 422.331 7.57982 418.625 7.57982C414.92 7.57982 411.909 10.528 411.909 14.1565C411.909 15.744 412.475 17.1803 413.427 18.3142C413.71 18.6418 414.019 18.9694 414.379 19.2466C415.537 20.1789 417.03 20.7333 418.625 20.7333Z" fill="#4A4A4A"/>
</svg>
