<svg width="69" height="81" viewBox="0 0 69 81" fill="none" xmlns="http://www.w3.org/2000/svg">
<path d="M48.972 12.2103L48.9807 12.2199L48.9897 12.2294L56.7798 20.444L56.7086 73.7373C56.7084 73.8955 56.5801 74.0236 56.4219 74.0236H1.28667C1.12835 74.0236 1 73.8953 1 73.7369V2.27133C1 2.11211 1.12975 1.9834 1.28896 1.98467L40.0468 2.29437L48.972 12.2103Z" fill="white" stroke="#E5E5E5" stroke-width="2"/>
<path d="M38.707 2.18607V20.6607C38.707 21.1345 39.0911 21.5185 39.5648 21.5185H56.1899" stroke="#E5E5E5" stroke-width="2" stroke-dasharray="1.12 1.12"/>
<path d="M9.16406 12.805H24.2354" stroke="#E5E5E5" stroke-width="2" stroke-linecap="round"/>
<path d="M13.7456 20.376H28.8169" stroke="#E5E5E5" stroke-width="2" stroke-linecap="round"/>
<path d="M13.7456 27.9471H35.8914" stroke="#EBB55C" stroke-width="1.23192" stroke-linecap="round"/>
<path d="M13.7456 64.9029H35.8914" stroke="#EBB55C" stroke-width="1.23192" stroke-linecap="round"/>
<path d="M9.16406 35.5181H20.6188" stroke="#E5E5E5" stroke-width="2" stroke-linecap="round"/>
<path d="M13.7456 43.0891H22.1457" stroke="#EBB55C" stroke-width="1.23192" stroke-linecap="round"/>
<path d="M13.7456 50.6601H25.964" stroke="#EBB55C" stroke-width="1.23192" stroke-linecap="round"/>
<path d="M59.4227 18.1867L59.4314 18.1963L59.4404 18.2058L67.2305 26.4204L67.1593 79.7137C67.1591 79.8719 67.0308 80 66.8726 80H11.7374C11.579 80 11.4507 79.8716 11.4507 79.7133V8.24771C11.4507 8.08849 11.5804 7.95977 11.7396 7.96105L50.4975 8.27075L59.4227 18.1867Z" fill="white" stroke="#C5C5C5" stroke-width="2"/>
<path d="M18.1787 19.4224H36.4135" stroke="#C5C5C5" stroke-width="2" stroke-linecap="round"/>
<path d="M17.8257 14.5231H33.6997" stroke="#C5C5C5" stroke-width="2" stroke-linecap="round" stroke-dasharray="4.06 4.06"/>
<path d="M18.1787 24.3217H44.4455" stroke="#C5C5C5" stroke-width="2" stroke-linecap="round"/>
<path d="M18.1787 29.2209H22.9545" stroke="#9B9B9B" stroke-width="2" stroke-linecap="round"/>
<path d="M25.9937 29.2209H37.6075" stroke="#C5C5C5" stroke-width="2" stroke-linecap="round"/>
<path d="M20.1323 34.1201H30.7693" stroke="#9B9B9B" stroke-width="2" stroke-linecap="round"/>
<path d="M33.8086 34.1201H35.6538" stroke="#C5C5C5" stroke-width="2" stroke-linecap="round"/>
<path d="M20.1323 39.0194H28.8155" stroke="#9B9B9B" stroke-width="2" stroke-linecap="round"/>
<path d="M31.855 39.0194H52.2605" stroke="#C5C5C5" stroke-width="2" stroke-linecap="round"/>
<path d="M20.1323 43.9187H24.4739" stroke="#9B9B9B" stroke-width="2" stroke-linecap="round"/>
<path d="M27.8389 43.9187H43.4687" stroke="#C5C5C5" stroke-width="2" stroke-linecap="round"/>
<path d="M22.0859 48.8179H36.4133" stroke="#9B9B9B" stroke-width="2" stroke-linecap="round"/>
<path d="M39.561 48.8179H46.3991" stroke="#C5C5C5" stroke-width="2" stroke-linecap="round"/>
<path d="M24.0396 53.7172H30.769" stroke="#9B9B9B" stroke-width="2" stroke-linecap="round"/>
<path d="M33.7002 53.7172H35.6539" stroke="#C5C5C5" stroke-width="2" stroke-linecap="round"/>
<path d="M18.1787 58.6164H22.9545" stroke="#9B9B9B" stroke-width="2" stroke-linecap="round"/>
<path d="M25.9937 58.6164H37.6075" stroke="#C5C5C5" stroke-width="2" stroke-linecap="round"/>
<path d="M20.1323 63.5157H30.7693" stroke="#9B9B9B" stroke-width="2" stroke-linecap="round"/>
<path d="M33.8086 63.5157H35.6538" stroke="#C5C5C5" stroke-width="2" stroke-linecap="round"/>
<path d="M20.1323 68.415H28.8155" stroke="#9B9B9B" stroke-width="2" stroke-linecap="round"/>
<path d="M31.855 68.415H52.2605" stroke="#C5C5C5" stroke-width="2" stroke-linecap="round"/>
<path d="M20.1323 73.3142H24.4739" stroke="#9B9B9B" stroke-width="2" stroke-linecap="round"/>
<path d="M27.8389 73.3142H43.4687" stroke="#C5C5C5" stroke-width="2" stroke-linecap="round"/>
<path d="M49.9531 8.20332V26.7178C49.9531 27.1916 50.3372 27.5756 50.8109 27.5756H67.3487" stroke="#C5C5C5" stroke-width="2"/>
<rect x="19.0552" y="31.7343" width="36.8812" height="4.91749" fill="#323232"/>
<rect x="20.8989" y="51.4043" width="23.3581" height="4.91749" fill="#323232"/>
<rect x="17.2109" y="16.736" width="23.3581" height="4.91749" fill="#323232"/>
<rect x="19" y="66" width="35" height="5" fill="#323232"/>
<rect x="19.0552" y="41.5693" width="36.8812" height="4.91749" fill="#323232"/>
</svg>
