<?xml version="1.0" encoding="UTF-8"?>
<svg width="17px" height="13px" viewBox="0 0 17 13" version="1.1" xmlns="http://www.w3.org/2000/svg" xmlns:xlink="http://www.w3.org/1999/xlink">
    <!-- Generator: Sketch 62 (91390) - https://sketch.com -->
    <title>Shape</title>
    <desc>Created with Sketch.</desc>
    <g id="Kotsadm" stroke="none" stroke-width="1" fill="none" fill-rule="evenodd">
        <g id="main_spritesheet" transform="translate(-164.000000, -386.000000)" fill="#326DE6" fill-rule="nonzero">
            <path d="M169.573757,391.6875 L166.786879,394.461781 L164,391.6875 L166.021293,391.6875 C166.424082,388.485437 169.175865,386 172.499796,386 C174.243993,386 175.883717,386.676406 177.116571,387.904094 L175.962479,389.052969 C175.038145,388.132 173.808556,387.625 172.500204,387.625 C170.077754,387.625 168.06095,389.384875 167.67122,391.6875 L169.573757,391.6875 Z M178.21353,390.538219 L175.427059,393.3125 L177.329188,393.3125 C176.939458,395.615125 174.922654,397.375 172.500204,397.375 C171.191853,397.375 169.962263,396.868 169.037521,395.947031 L167.883021,397.095906 C169.116283,398.323594 170.756007,399 172.500204,399 C175.824543,399 178.575918,396.514563 178.979115,393.3125 L181,393.3125 L178.21353,390.538219 Z M171.684015,389.453125 L171.684015,393.361656 L173.495547,395.165 L174.361116,394.303344 L172.908299,392.857094 L172.908299,389.453125 L171.684015,389.453125 Z" id="Shape"></path>
        </g>
    </g>
</svg>