<?xml version="1.0" encoding="UTF-8"?>
<svg width="12px" height="16px" viewBox="0 0 12 16" version="1.1" xmlns="http://www.w3.org/2000/svg" xmlns:xlink="http://www.w3.org/1999/xlink">
    <!-- Generator: Sketch 62 (91390) - https://sketch.com -->
    <title>disk</title>
    <desc>Created with Sketch.</desc>
    <g id="Kotsadm" stroke="none" stroke-width="1" fill="none" fill-rule="evenodd">
        <g id="main_spritesheet" transform="translate(-55.000000, -385.000000)" fill="#C4C8CA" fill-rule="nonzero">
            <path d="M60.9999428,385 C57.7104926,385 55.0547843,385.915543 55,387.05952 C55.0005494,387.07142 55.0005494,387.083341 55,387.095241 C55,387.227436 55.0823319,387.397244 55.3515593,387.607143 C55.6207858,387.817043 56.0560084,388.033701 56.6054533,388.214286 C57.7043441,388.575455 59.2666418,388.809529 60.9999428,388.809529 C62.7332449,388.809529 64.2955416,388.575455 65.3944324,388.214286 C65.9438783,388.033701 66.3790999,387.817043 66.6483274,387.607143 C66.9175538,387.397244 67,387.227436 67,387.095241 C67,387.087206 67.0001416,387.079445 67,387.07143 C66.9631874,385.921849 64.3009,385 60.9999428,385 Z M55,388.291666 L55,391.05953 C55.0005494,391.07142 55.0005494,391.083341 55,391.095241 C55,391.227436 55.0823319,391.397244 55.3515593,391.607143 C55.6207868,391.817053 56.0560084,392.033701 56.6054533,392.214286 C57.7043441,392.575465 59.2666418,392.809529 60.9999428,392.809529 C62.7332438,392.809529 64.2955416,392.575465 65.3944324,392.214286 C65.9438783,392.033701 66.3790999,391.817053 66.6483274,391.607143 C66.9175548,391.397244 66.9998867,391.227436 66.9998867,391.095241 L66.9998867,391.07143 L66.9998867,388.291666 C66.6389888,388.548184 66.1773185,388.760199 65.6288059,388.94048 C64.4231557,389.336732 62.798359,389.571433 60.9999428,389.571433 C59.2015277,389.571433 57.57673,389.336732 56.3710808,388.94048 C55.8225672,388.760199 55.3608979,388.548184 55,388.291666 Z M55,392.291666 L55,394.869049 C55.0005494,394.880949 55.0005494,394.89287 55,394.90477 C55,395.036975 55.0823319,395.206763 55.3515593,395.416672 C55.6207858,395.626572 56.0560084,395.84322 56.6054533,396.023815 C57.7043441,396.384974 59.2666418,396.619048 60.9999428,396.619048 C62.7332449,396.619048 64.2955416,396.384974 65.3944324,396.023815 C65.9438783,395.84322 66.3790999,395.626572 66.6483274,395.416672 C66.9175538,395.206763 66.9998867,395.036975 66.9998867,394.90477 L66.9998867,394.880959 L66.9998867,392.291666 C66.6389888,392.548184 66.1773185,392.760199 65.6288059,392.94048 C64.4231557,393.336742 62.798359,393.571433 60.9999428,393.571433 C59.2015277,393.571433 57.57673,393.336742 56.3710808,392.94048 C55.8225672,392.760199 55.3608969,392.548184 55,392.291666 Z M55,396.101196 L55,398.90477 C55,400.065526 57.6759749,401 60.9999428,401 C64.3239118,401 66.9998867,400.065526 66.9998867,398.90477 L66.9998867,396.101196 C66.6389888,396.357713 66.1773185,396.569718 65.6288059,396.749999 C64.4231557,397.146271 62.798359,397.380952 60.9999428,397.380952 C59.2015277,397.380952 57.57673,397.146271 56.3710808,396.749999 C55.8225672,396.569718 55.3608979,396.357713 55,396.101196 Z" id="disk"></path>
        </g>
    </g>
</svg>