<?xml version="1.0" encoding="UTF-8"?>
<svg width="22px" height="16px" viewBox="0 0 22 16" version="1.1" xmlns="http://www.w3.org/2000/svg" xmlns:xlink="http://www.w3.org/1999/xlink">
    <!-- Generator: Sketch 62 (91390) - https://sketch.com -->
    <title>docker</title>
    <desc>Created with Sketch.</desc>
    <g id="Kotsadm" stroke="none" stroke-width="1" fill="none" fill-rule="evenodd">
        <g id="main_spritesheet" transform="translate(0.000000, -377.000000)" fill="#0DB7ED" fill-rule="nonzero">
            <path d="M12.4430846,384.35134 L14.7147134,384.35134 L14.7147134,382.18925 L12.4430846,382.18925 L12.4430846,384.35134 Z M9.7584848,384.35134 L12.0299693,384.35134 L12.0299693,382.18925 L9.7584848,382.18925 L9.7584848,384.35134 Z M7.07388504,384.35134 L9.34551385,384.35134 L9.34551385,382.18925 L7.07388504,382.18925 L7.07388504,384.35134 Z M4.38928528,384.35134 L6.66091409,384.35134 L6.66091409,382.18925 L4.38928528,382.18925 L4.38928528,384.35134 Z M1.70468551,384.35134 L3.97631433,384.35134 L3.97631433,382.18925 L1.70468551,382.18925 L1.70468551,384.35134 Z M4.38928528,381.75672 L6.66091409,381.75672 L6.66091409,379.59463 L4.38928528,379.59463 L4.38928528,381.75672 Z M7.07388504,381.75672 L9.34551385,381.75672 L9.34551385,379.59463 L7.07388504,379.59463 L7.07388504,381.75672 Z M9.7584848,381.75672 L12.0299693,381.75672 L12.0299693,379.59463 L9.7584848,379.59463 L9.7584848,381.75672 Z M9.7584848,379.16224 L12.0299693,379.16224 L12.0299693,377 L9.7584848,377 L9.7584848,379.16224 Z M21.5412877,383.09059 C21.0452031,382.74311 19.9052763,382.61575 19.0281098,382.78904 C18.9151272,381.92396 18.4546834,381.17385 17.6170536,380.49581 L17.1355427,380.15951 L16.8141988,380.66427 C16.4028151,381.31375 16.1973397,382.21358 16.2647252,383.07654 C16.2950271,383.38006 16.3902615,383.92303 16.6885183,384.40044 C16.3904058,384.56814 15.8011069,384.79929 15.0243694,384.78373 L0.0848350975,384.78373 L0.0555433076,384.96397 C-0.0848552719,385.83116 -0.0818250867,388.53728 1.59632032,390.61734 C2.87188398,392.19822 4.7843637,393 7.28037052,393 C12.6914155,393 16.6947229,390.39208 18.5695418,385.65138 C19.3067426,385.66679 20.8939824,385.65606 21.7093908,384.02486 C21.7306021,383.98739 21.779518,383.8895 21.9219367,383.58054 L22,383.41103 L21.5412877,383.09059 Z" id="docker"></path>
        </g>
    </g>
</svg>