<?xml version="1.0" encoding="UTF-8"?>
<svg width="16px" height="16px" viewBox="0 0 16 16" version="1.1" xmlns="http://www.w3.org/2000/svg" xmlns:xlink="http://www.w3.org/1999/xlink">
    <!-- Generator: Sketch 62 (91390) - https://sketch.com -->
    <title>kubernetes-logo-small</title>
    <desc>Created with Sketch.</desc>
    <g id="Kotsadm" stroke="none" stroke-width="1" fill="none" fill-rule="evenodd">
        <g id="main_spritesheet" transform="translate(-74.000000, -345.000000)">
            <g id="kubernetes-logo-small" transform="translate(74.000000, 345.000000)">
                <path d="M14.5478768,3.55318216 C14.4567218,3.25078368 14.2379497,3.00508492 13.9644846,2.85388568 L8.40402718,0.0944995256 C8.25817912,0.0188999051 8.09410005,-4.97379915e-14 7.94825199,-4.97379915e-14 C7.80240393,-4.97379915e-14 7.63832486,-4.97379915e-14 7.49247678,0.0377998102 L1.93201939,2.81608586 C1.65855424,2.9483852 1.45801315,3.19408396 1.38508912,3.51538236 L0.0177635365,9.73345114 C-0.0369294872,10.0547495 0.0359945443,10.3760479 0.218304615,10.6406466 L4.06504731,15.5735218 C4.28381941,15.8003207 4.59374654,15.9515199 4.90367368,15.9704198 L11.0292923,15.9704198 C11.3574504,16.0082196 11.6673776,15.8570204 11.8679187,15.5735218 L15.7146613,10.6406466 C15.8969714,10.3760479 15.9698954,10.0547495 15.9334334,9.73345114 L14.5478768,3.55318216 Z" id="path10349" fill="#326DE6"></path>
                <path d="M13.6910195,9.48775236 C13.6727885,9.48775236 13.6545575,9.48775236 13.6545575,9.46885246 C13.6545575,9.44995256 13.6180954,9.44995256 13.5816334,9.44995256 C13.5087094,9.43105264 13.4357853,9.43105264 13.3628613,9.43105264 C13.3263993,9.43105264 13.2899373,9.43105264 13.2534753,9.41215274 L13.2352443,9.41215274 C13.0347032,9.39325284 12.8159311,9.35545302 12.61539,9.29875332 C12.560697,9.2798534 12.506004,9.2231537 12.487773,9.16645398 C12.506004,9.16645398 12.487773,9.16645398 12.487773,9.16645398 L12.3419249,9.12865416 C12.4148489,8.58055692 12.3783869,8.01355976 12.2690008,7.46546252 C12.1413838,6.91736526 11.9226117,6.38816792 11.6309156,5.9156703 L11.7403016,5.80227086 L11.7403016,5.78337096 C11.7403016,5.72667124 11.7585326,5.65107162 11.7949946,5.61327182 C11.9590737,5.46207258 12.1231528,5.34867314 12.3054629,5.23527372 C12.3419249,5.2163738 12.3783869,5.1974739 12.4148489,5.178574 C12.487773,5.14077418 12.542466,5.10297438 12.61539,5.06517456 C12.633621,5.04627466 12.651852,5.04627466 12.670083,5.02737476 C12.688314,5.00847486 12.670083,5.00847486 12.670083,4.98957494 C12.8341621,4.85727562 12.8706241,4.63047676 12.7430071,4.4603776 C12.688314,4.38477798 12.578928,4.32807826 12.487773,4.32807826 C12.3966179,4.32807826 12.3054629,4.36587808 12.2325388,4.4225778 L12.2143078,4.4414777 C12.1960768,4.4603776 12.1778458,4.47927752 12.1596148,4.47927752 C12.1049218,4.53597722 12.0502288,4.59267694 12.0137667,4.64937666 C11.9955357,4.68717646 11.9590737,4.70607638 11.9408427,4.72497628 C11.8132257,4.87617552 11.6491466,5.02737476 11.4850675,5.14077418 C11.4486055,5.1596741 11.4121435,5.178574 11.3756815,5.178574 C11.3574504,5.178574 11.3209884,5.178574 11.3027574,5.1596741 L11.2845264,5.1596741 L11.1386784,5.25417362 C10.9928303,5.10297438 10.8287512,4.95177514 10.6829032,4.8005759 C10.0083559,4.25247864 9.16972952,3.91228036 8.31287213,3.81778084 L8.29464114,3.6665816 L8.29464114,3.6854815 C8.23994811,3.64768168 8.22171711,3.59098198 8.20348609,3.53428226 C8.20348609,3.3263833 8.20348609,3.11848434 8.23994811,2.89168548 L8.23994811,2.87278558 C8.23994811,2.83498576 8.25817912,2.79718596 8.25817912,2.75938614 C8.27641012,2.68378652 8.27641012,2.6081869 8.29464114,2.53258728 L8.29464114,2.41918786 C8.31287213,2.2301888 8.16702408,2.04118976 7.984714,2.02228984 C7.87532796,2.00338994 7.7659419,2.06008966 7.67478687,2.15458918 C7.60186284,2.2301888 7.56540083,2.32468832 7.56540083,2.41918786 L7.56540083,2.51368738 C7.56540083,2.589287 7.58363183,2.66488662 7.60186284,2.74048624 C7.62009384,2.77828606 7.62009384,2.81608586 7.62009384,2.85388568 L7.62009384,2.87278558 C7.65655586,3.08068454 7.65655586,3.28858348 7.65655586,3.51538236 C7.63832486,3.57208206 7.62009384,3.62878178 7.56540083,3.6665816 L7.56540083,3.7043814 L7.54716981,3.85558064 C7.34662872,3.87448054 7.14608763,3.91228036 6.92731555,3.95008016 C6.07045818,4.13907922 5.28652484,4.61157684 4.68490157,5.27307352 L4.57551553,5.1974739 L4.55728453,5.1974739 C4.53905351,5.1974739 4.52082252,5.2163738 4.4843605,5.2163738 C4.44789847,5.2163738 4.41143645,5.1974739 4.37497444,5.178574 C4.21089538,5.04627466 4.04681631,4.89507542 3.91919925,4.74387618 C3.90096823,4.70607638 3.86450622,4.68717646 3.84627522,4.66827656 C3.79158219,4.61157684 3.75512017,4.55487714 3.70042716,4.49817742 C3.68219614,4.47927752 3.66396515,4.47927752 3.64573413,4.4603776 C3.62750313,4.4414777 3.62750313,4.4414777 3.62750313,4.4414777 C3.55457908,4.38477798 3.46342406,4.34697818 3.37226901,4.34697818 C3.26288297,4.34697818 3.17172792,4.38477798 3.11703491,4.47927752 C3.00764885,4.64937666 3.04411086,4.87617552 3.18995894,5.00847486 C3.20818994,5.00847486 3.20818994,5.02737476 3.20818994,5.02737476 C3.20818994,5.02737476 3.24465195,5.06517456 3.26288297,5.06517456 C3.31757598,5.10297438 3.39050003,5.14077418 3.46342406,5.178574 C3.49988607,5.1974739 3.53634809,5.2163738 3.5728101,5.23527372 C3.75512017,5.34867314 3.93743027,5.46207258 4.08327832,5.61327182 C4.11974034,5.65107162 4.15620235,5.72667124 4.13797133,5.78337096 L4.13797133,5.76447106 L4.2473574,5.87787048 C4.22912638,5.9156703 4.21089538,5.9345702 4.19266437,5.97237002 C3.62750313,6.89846536 3.39050003,7.99465986 3.55457908,9.07195446 L3.40873103,9.10975426 C3.40873103,9.12865416 3.39050003,9.12865416 3.39050003,9.12865416 C3.37226901,9.18535388 3.31757598,9.2231537 3.26288297,9.2609535 C3.06234188,9.31765322 2.86180079,9.35545302 2.6430287,9.37435294 C2.60656669,9.37435294 2.57010467,9.37435294 2.53364266,9.39325284 C2.46071861,9.39325284 2.38779458,9.41215274 2.31487055,9.41215274 C2.29663956,9.41215274 2.27840854,9.43105264 2.24194653,9.43105264 C2.22371551,9.43105264 2.22371551,9.43105264 2.20548451,9.44995256 C2.00494342,9.48775236 1.87732637,9.67675142 1.91378838,9.88465038 C1.91378838,9.88465038 1.91378838,9.88465038 1.91378838,9.88465038 C1.95025039,10.0547495 2.11432947,10.1681489 2.27840854,10.149249 C2.31487055,10.149249 2.33310157,10.149249 2.36956359,10.1303491 C2.38779458,10.1303491 2.38779458,10.1303491 2.38779458,10.1114492 C2.38779458,10.0925493 2.44248761,10.1114492 2.46071861,10.1114492 C2.53364266,10.0925493 2.60656669,10.0547495 2.6612597,10.0358496 C2.69772172,10.0169497 2.73418373,9.9980498 2.77064574,9.9980498 L2.78887676,9.9980498 C2.98941785,9.92245018 3.17172792,9.86575046 3.39050003,9.82795066 L3.40873103,9.82795066 C3.46342406,9.82795066 3.51811707,9.84685056 3.55457908,9.88465038 C3.5728101,9.88465038 3.5728101,9.90355028 3.5728101,9.90355028 L3.73688918,9.88465038 C4.01035429,10.754046 4.52082252,11.5289421 5.23183181,12.0959393 C5.39591088,12.2282386 5.54175894,12.341638 5.72406903,12.4361376 L5.63291399,12.5684369 C5.63291399,12.5873368 5.651145,12.5873368 5.651145,12.5873368 C5.68760702,12.6440365 5.68760702,12.7196361 5.669376,12.7763359 C5.59645197,12.9653349 5.48706593,13.154334 5.37767988,13.3244331 L5.37767988,13.343333 C5.35944887,13.3811328 5.34121787,13.4000327 5.30475586,13.4378325 C5.26829382,13.4756323 5.23183181,13.551232 5.1771388,13.6268316 C5.15890778,13.6457315 5.15890778,13.6646314 5.14067678,13.6835313 C5.14067678,13.6835313 5.14067678,13.7024312 5.12244576,13.7024312 C5.03129074,13.8914303 5.10421477,14.1182291 5.26829382,14.2127286 C5.30475586,14.2316285 5.35944887,14.2505285 5.39591088,14.2505285 C5.54175894,14.2505285 5.669376,14.1560289 5.74230003,14.0237296 C5.74230003,14.0237296 5.74230003,14.0048297 5.76053105,14.0048297 C5.76053105,13.9859298 5.77876204,13.9670299 5.79699306,13.94813 C5.81522406,13.8725303 5.85168609,13.8158306 5.86991709,13.740231 L5.9063791,13.6268316 C5.96107213,13.4189326 6.05222716,13.2299336 6.14338221,13.0409345 C6.17984422,12.9842348 6.23453725,12.946435 6.28923027,12.9275351 C6.30746128,12.9275351 6.30746128,12.9275351 6.30746128,12.9086352 L6.38038531,12.7574359 C6.89085353,12.9653349 7.41955275,13.0598344 7.96648299,13.0598344 C8.29464114,13.0598344 8.62279929,13.0220346 8.95095742,12.9275351 C9.15149851,12.8897353 9.3520396,12.8141357 9.53434967,12.7574359 L9.6072737,12.8897353 C9.62550471,12.8897353 9.62550471,12.8897353 9.62550471,12.9086352 C9.68019773,12.9275351 9.73489076,12.9653349 9.77135277,13.0220346 C9.86250782,13.2110337 9.95366284,13.4000327 10.0083559,13.6079317 L10.0083559,13.6268316 L10.0448179,13.740231 C10.0630489,13.8158306 10.0812799,13.8914303 10.1177419,13.94813 C10.1359729,13.9670299 10.1359729,13.9859298 10.1542039,14.0048297 C10.1542039,14.0048297 10.1542039,14.0237296 10.1724349,14.0237296 C10.245359,14.1560289 10.372976,14.2505285 10.5188241,14.2505285 C10.5735171,14.2505285 10.6099791,14.2316285 10.6646722,14.2127286 C10.7375962,14.1749288 10.8105202,14.0993292 10.8287512,14.0048297 C10.8469822,13.9103302 10.8469822,13.8158306 10.8105202,13.7213311 C10.8105202,13.7024312 10.7922892,13.7024312 10.7922892,13.7024312 C10.7922892,13.6835313 10.7740582,13.6646314 10.7558272,13.6457315 C10.7193652,13.5701319 10.6829032,13.5134322 10.6282101,13.4567324 C10.6099791,13.4189326 10.5917481,13.4000327 10.5552861,13.3622329 L10.5552861,13.3244331 C10.4276691,13.154334 10.336514,12.9653349 10.26359,12.7763359 C10.245359,12.7196361 10.245359,12.6440365 10.281821,12.5873368 C10.281821,12.5684369 10.300052,12.5684369 10.300052,12.5684369 L10.245359,12.4172377 C11.1751404,11.8313406 11.8861497,10.9241452 12.2143078,9.84685056 L12.3601559,9.86575046 C12.3783869,9.86575046 12.3783869,9.84685056 12.3783869,9.84685056 C12.4148489,9.80905076 12.4695419,9.79015084 12.524235,9.79015084 L12.542466,9.79015084 C12.7430071,9.82795066 12.9435481,9.88465038 13.1258582,9.96025 L13.1440892,9.96025 C13.1805512,9.9791499 13.2170133,9.9980498 13.2534753,9.9980498 C13.3263993,10.0358496 13.3810923,10.0736494 13.4540164,10.0925493 C13.4722474,10.0925493 13.4904784,10.1114492 13.5269404,10.1114492 C13.5451714,10.1114492 13.5451714,10.1114492 13.5634024,10.1303491 C13.5998644,10.149249 13.6180954,10.149249 13.6545575,10.149249 C13.8186365,10.149249 13.9644846,10.0358496 14.0191776,9.88465038 C14.0009466,9.67675142 13.8550985,9.52555218 13.6910195,9.48775236 Z M8.4222582,8.9018553 L7.93002097,9.14755408 L7.43778377,8.9018553 L7.31016671,8.35375806 L7.65655586,7.90016034 L8.20348609,7.90016034 L8.54987524,8.35375806 L8.4222582,8.9018553 Z M11.3939125,7.67336148 C11.4850675,8.07025948 11.5032985,8.46715748 11.4668365,8.8640555 L9.73489076,8.35375806 C9.57081168,8.31595824 9.47965666,8.1458591 9.51611867,7.97575996 C9.53434967,7.91906024 9.55258068,7.88126042 9.5890427,7.84346062 L10.9563683,6.55826708 C11.1569094,6.89846536 11.3027574,7.27646346 11.3939125,7.67336148 Z M10.4094381,5.85897058 L8.9144954,6.95516508 C8.78687834,7.0307647 8.60456827,7.0118648 8.51341322,6.87956546 C8.47695121,6.84176564 8.45872021,6.80396584 8.45872021,6.74726612 L8.34933417,4.8383757 C9.15149851,4.93287524 9.86250782,5.29197344 10.4094381,5.85897058 Z M7.10962562,4.89507542 L7.47424578,4.8194758 L7.38309074,6.70946632 C7.38309074,6.87956546 7.23724268,7.0118648 7.0731636,7.0118648 C7.01847059,7.0118648 6.98200858,6.99296488 6.92731555,6.97406498 L5.4141419,5.85897058 C5.88814811,5.38647296 6.47154036,5.04627466 7.10962562,4.89507542 Z M4.88544266,6.55826708 L6.23453725,7.8056608 C6.36215429,7.91906024 6.38038531,8.1080593 6.27099927,8.24035862 C6.23453725,8.29705834 6.19807524,8.31595824 6.12515121,8.33485816 L4.35674344,8.8640555 C4.30205041,8.07025948 4.4843605,7.25756356 4.88544266,6.55826708 Z M4.57551553,9.75235104 L6.38038531,9.43105264 C6.52623337,9.43105264 6.67208145,9.52555218 6.69031244,9.67675142 C6.70854346,9.73345114 6.70854346,9.80905076 6.67208145,9.86575046 L5.97930313,11.6045417 C5.34121787,11.1698439 4.83074965,10.5083472 4.57551553,9.75235104 Z M8.71395431,12.0959393 C8.45872021,12.152639 8.20348609,12.1904388 7.93002097,12.1904388 C7.54716981,12.1904388 7.14608763,12.1148392 6.78146749,12.0014397 L7.67478687,10.3193482 C7.7659419,10.2059488 7.91178998,10.1681489 8.03940702,10.2437486 C8.09410005,10.2815484 8.13056206,10.3193482 8.18525509,10.3760479 L9.06034346,12.0203396 C8.95095742,12.0392396 8.84157137,12.0581395 8.71395431,12.0959393 Z M10.9381373,10.4516475 C10.6646722,10.9052452 10.281821,11.3021433 9.8442768,11.5856418 L9.13326749,9.80905076 C9.09680547,9.65785152 9.16972952,9.50665226 9.29734656,9.44995256 C9.3520396,9.43105264 9.40673261,9.41215274 9.46142564,9.41215274 L11.2845264,9.73345114 C11.1933714,9.9980498 11.0839853,10.2437486 10.9381373,10.4516475 Z" id="path10351" fill="#FFFFFF" fill-rule="nonzero"></path>
            </g>
        </g>
    </g>
</svg>