<?xml version="1.0" encoding="UTF-8"?>
<svg width="13px" height="16px" viewBox="0 0 13 16" version="1.1" xmlns="http://www.w3.org/2000/svg" xmlns:xlink="http://www.w3.org/1999/xlink">
    <!-- Generator: Sketch 62 (91390) - https://sketch.com -->
    <title>Secret</title>
    <desc>Created with Sketch.</desc>
    <g id="Kotsadm" stroke="none" stroke-width="1" fill="none" fill-rule="evenodd">
        <g id="main_spritesheet" transform="translate(-151.000000, -372.000000)" fill="#6236FF">
            <path d="M157.535326,372 C160.361413,372 162.622283,374.331839 162.622283,377.165919 L162.622283,377.165919 L162.622283,378.959641 L162.657609,378.959641 C163.399457,378.959641 164,379.569507 164,380.32287 L164,380.32287 L164,386.636771 C164,387.390135 163.399457,388 162.657609,388 L162.657609,388 L152.342391,388 C151.600543,388 151,387.390135 151,386.636771 L151,386.636771 L151,380.286996 C151,379.533632 151.600543,378.923767 152.342391,378.923767 L152.342391,378.923767 L152.44837,378.923767 L152.44837,377.273543 C152.44837,374.475336 154.567935,372.107623 157.32337,372 L157.32337,372 Z M157.619031,381.650107 L157.358696,381.650224 C156.899457,381.686099 156.475543,382.080717 156.404891,382.58296 C156.334239,382.977578 156.51087,383.372197 156.793478,383.623318 L156.793478,383.623318 L156.51087,385.058296 C156.475543,385.237668 156.581522,385.381166 156.758152,385.381166 L156.758152,385.381166 L158.241848,385.381166 C158.383152,385.381166 158.524457,385.201794 158.48913,385.058296 L158.48913,385.058296 L158.206522,383.623318 C158.48913,383.443946 158.630435,383.121076 158.630435,382.762332 C158.630435,382.116592 158.100543,381.61435 157.5,381.650224 Z M157.535326,374.26009 L157.252717,374.26009 L157.252717,374.26009 C155.804348,374.439462 154.673913,375.766816 154.673913,377.273543 L154.673913,378.995516 L160.396739,378.995516 L160.396739,377.165919 C160.396739,375.55157 159.125,374.26009 157.535326,374.26009 Z" id="Secret"></path>
        </g>
    </g>
</svg>